<?xml version="1.0" encoding="UTF-8"?>
<svg id="Camada_2" data-name="Camada 2" xmlns="http://www.w3.org/2000/svg" xmlns:xlink="http://www.w3.org/1999/xlink" viewBox="0 0 303.65 207.19">
  <defs>
    <style>
      .cls-1 {
        fill: #c7ddda;
      }

      .cls-1, .cls-2, .cls-3, .cls-4, .cls-5, .cls-6, .cls-7, .cls-8, .cls-9, .cls-10, .cls-11, .cls-12, .cls-13, .cls-14, .cls-15, .cls-16, .cls-17, .cls-18, .cls-19, .cls-20, .cls-21, .cls-22, .cls-23, .cls-24, .cls-25, .cls-26, .cls-27, .cls-28, .cls-29, .cls-30, .cls-31, .cls-32, .cls-33, .cls-34, .cls-35, .cls-36, .cls-37, .cls-38, .cls-39, .cls-40, .cls-41, .cls-42, .cls-43, .cls-44, .cls-45, .cls-46, .cls-47, .cls-48, .cls-49, .cls-50, .cls-51, .cls-52 {
        stroke-width: 0px;
      }

      .cls-2 {
        fill: #77290b;
      }

      .cls-3 {
        fill: #6b3a28;
      }

      .cls-4 {
        fill: #747770;
      }

      .cls-5 {
        fill: #092a28;
      }

      .cls-6 {
        fill: #24c3c1;
      }

      .cls-7 {
        fill: #d93e14;
      }

      .cls-8 {
        fill: #1b2f33;
      }

      .cls-9 {
        fill: #433a26;
      }

      .cls-10 {
        fill: #7a2a2b;
      }

      .cls-11 {
        fill: #057b7d;
      }

      .cls-12 {
        fill: #b3beb8;
      }

      .cls-13 {
        fill: #11a19a;
      }

      .cls-14 {
        fill: #8d8e84;
      }

      .cls-15 {
        fill: #ba2e08;
      }

      .cls-16 {
        fill: #7b8682;
      }

      .cls-17 {
        fill: #994e48;
      }

      .cls-18 {
        fill: #044a48;
      }

      .cls-19 {
        fill: #a0a295;
      }

      .cls-20 {
        fill: #4f665e;
      }

      .cls-21 {
        fill: #62af9e;
      }

      .cls-22 {
        fill: #953509;
      }

      .cls-23 {
        fill: #3b4e48;
      }

      .cls-24 {
        fill: #091a15;
      }

      .cls-25 {
        fill: #05373a;
      }

      .cls-26 {
        fill: #036673;
      }

      .cls-27 {
        fill: #f67b0c;
      }

      .cls-28 {
        fill: #ecf4f2;
      }

      .cls-29 {
        fill: #a81905;
      }

      .cls-30 {
        fill: #d3d3d2;
      }

      .cls-31 {
        fill: url(#Gradiente_sem_nome_506);
      }

      .cls-32 {
        fill: #432018;
      }

      .cls-33 {
        fill: #870b07;
      }

      .cls-34 {
        fill: #fa961e;
      }

      .cls-35 {
        fill: #334140;
      }

      .cls-36 {
        fill: #c0460c;
      }

      .cls-37 {
        fill: #038a8c;
      }

      .cls-38 {
        fill: #345c61;
      }

      .cls-39 {
        fill: #9dafa6;
      }

      .cls-40 {
        fill: #3f372f;
      }

      .cls-41 {
        fill: #222425;
      }

      .cls-42 {
        fill: #0a5c59;
      }

      .cls-43 {
        fill: #f26014;
      }

      .cls-44 {
        fill: #0c0b0c;
      }

      .cls-45 {
        fill: url(#Gradiente_sem_nome_507);
      }

      .cls-46 {
        fill: #0f181a;
      }

      .cls-47 {
        fill: #947d6d;
      }

      .cls-48 {
        fill: #4e1407;
      }

      .cls-49 {
        fill: #621c07;
      }

      .cls-50 {
        fill: #697771;
      }

      .cls-51 {
        fill: #d35007;
      }

      .cls-52 {
        fill: #293020;
      }
    </style>
    <linearGradient id="Gradiente_sem_nome_507" data-name="Gradiente sem nome 507" x1="-5103.02" y1="-4390.09" x2="-5102.58" y2="-4298.22" gradientTransform="translate(2742.94 2216.55) scale(.5)" gradientUnits="userSpaceOnUse">
      <stop offset="0" stop-color="#c1dbda"/>
      <stop offset="1" stop-color="#223e3c"/>
    </linearGradient>
    <linearGradient id="Gradiente_sem_nome_506" data-name="Gradiente sem nome 506" x1="-5213.42" y1="-4147.18" x2="-5217.65" y2="-4050.82" gradientTransform="translate(2742.94 2216.55) scale(.5)" gradientUnits="userSpaceOnUse">
      <stop offset="0" stop-color="#c4dada"/>
      <stop offset="1" stop-color="#26403c"/>
    </linearGradient>
  </defs>
  <g id="Camada_1-2" data-name="Camada 1">
    <g>
      <path class="cls-47" d="m225.83,56.31c2.78.88,8.47,4.01,11.1,3.83.86,1.42,2.31,2.3,3.44,3.44.03.03.33.57.38.77-.09.01.53.54-1.34,1.15-7.32.48-27.63,4.21-31.39,4.21-1.06,0-.97-.37-1.72-.77.14-1.13.21-2.31.38-3.44.3-1.99.54-3.91.38-5.93.13-.3,3.28-1.22,3.83-1.34,1.08-.24,14.18-2.03,14.93-1.91Z"/>
      <g>
        <g>
          <path class="cls-44" d="m116.36,41.76c.11.38.22,1.22.38,1.91.53,2.24.93,4.59,1.15,6.89v.38c-1.78-.08-3.58.09-5.36,0,.38-12.45-5.22-14.88-2.68-.38-15.32-1.06-15.71.98,0,2.68-2.61,8.25-.68,5.87,11.48,4.21,13.79-1.88,27.49-3.87,41.34-5.36,2.54-.27,5.09-.75,7.66-.77.02.76.04,1.54,0,2.3-.65,12.89-3.61,10.28-16.84,11.48-4.97.45-32.45,2.3-34.64,3.06-.45.16-2.26,2.55-2.68,2.68-1.97.59-11.72-1.85-15.88-.77-4.22-1.74-3.74-.53-5.74-.38.26-1.33-1.39-.52-1.72-.77-.41-.3,1.8-7.53,2.11-8.8.62-2.57,1.65-4.98,1.91-7.66.01-.12,0-.26,0-.38.01-.64,0-1.28,0-1.91,1.8-.43,3.72-.53,5.55-.77,1.73-8.31,2.34-8.01-5.17-11.1.02-.25-.05-.54,0-.77,3.92,1.68,4.94,0,5.36,0,1.75,0,6.7.82,8.23.77.6-.02,2.28-1.13,2.49-1.15.49-.05,1.6-.12,1.91.19.12,1.54.73,2.94,1.15,4.4Z"/>
          <path class="cls-39" d="m149.28,39.08c.16,2.95,6.12,8.14,4.4,8.8-8.66.19-29.4,4.47-35.21,4.21-.38-.02.1-1.12-.57-1.15v-.38c5.39,1.06,4.44-3.16,5.36-7.08-.67-1.37-5.3.01-6.51.19-.16-.69-.27-1.54-.38-1.91,8.02-.94,27.43-1.6,32.92-2.68Z"/>
          <path class="cls-25" d="m150.04,39.08c2.45,2.83,8.42,11.43,11.48,9.95.61,1.05,1,1.85,1.15,3.06-13.85,1.49-27.55,3.48-41.34,5.36-5.13-4.28-1.81-5.79-11.48-4.21-15.71-1.7-15.32-3.74,0-2.68.14,0,.48.27,2.68.38,1.78.09,3.58-.08,5.36,0,.68.03.19,1.13.57,1.15,5.81.26,26.56-4.02,35.21-4.21,1.72-.66-4.24-5.86-4.4-8.8.23-.05.54.05.77,0Z"/>
          <path class="cls-22" d="m240.38,50.18c-.37,1.75,3.01,7.7,3.06,8.61.02.31-.77.15-.77.19-1.94-.53-5.45,1.13-5.74,1.15-2.63.18-8.32-2.95-11.1-3.83,0-.32.28-.4.38-.77.43-1.57,1.15-3.06,1.53-4.59.22-.86.55-1.52.77-2.3,8.89-1.81,4.12-2.49,11.87,1.53Z"/>
          <path class="cls-20" d="m179.52,32.96c-5.06-2.9-6.36-2.88-11.87-2.68-6.17.22-6.85.95-12.25,2.68-.54-.11-.41-.37-.38-.77,1.42-2.19,3.07-4.03,4.59-6.12,1.57-1.01,9.22,2,9.76,1.91,1.68-1.74,2.57-3.25,4.4-4.98,2.24,3.18,4.07,6.43,5.74,9.95Z"/>
          <path class="cls-1" d="m176.46,50.57c-2.01.2-4.08.72-6.12.38,0-.13,0-.26,0-.38,1.26.02,7.26-.13,5.74-2.11-.33-.42-1.18-.04-1.34-.19-1.34-1.29-3.34-3.95-5.17-2.68-.86-3.57-2.49-7.53-5.36-9.95-.06-.05-.22-.73-1.15-1.15-.41-2.07,1.7-.5,2.68-1.53,9,1.83,10.12,9.88,10.72,17.61Z"/>
          <path class="cls-10" d="m167.65,30.28c6.45,1.25,10.64,14.58,11.1,20.29-.76.05-1.54-.07-2.3,0-.6-7.73-1.72-15.78-10.72-17.61-5.21-1.06-9.42.18-10.33,0,5.4-1.73,6.08-2.46,12.25-2.68Z"/>
          <path class="cls-44" d="m163.06,34.49c.92.42,1.09,1.1,1.15,1.15l-9.19,4.98c-.76-.92-1.84-2.45-3.06-2.68-1.57-2.57,6.15-5.68,11.1-3.44Z"/>
          <g>
            <path class="cls-11" d="m11.48,63.58c5.94-.48,12.09-1.4,17.99-2.3-1.61,3.19,14.91.48,18.76-.38.02.12,1.29.96.57,2.3-5.26-.15-32.36,5.57-34.07,5.36-2.07-.26-2.69-3.24-3.25-4.98Z"/>
            <path class="cls-37" d="m47.46,58.22c.02.14.33.51.77,2.68-3.84.86-20.37,3.58-18.76.38,6-.91,11.96-2.33,17.99-3.06Z"/>
          </g>
          <path class="cls-42" d="m155.02,40.61c1.85,2.25,5.13,6.07,6.51,8.42-3.06,1.48-9.03-7.12-11.48-9.95,1.1-.25,1.08-.67,1.91-1.15,1.23.23,2.3,1.76,3.06,2.68Z"/>
          <path class="cls-13" d="m208.61,16.5c-6.59-.45-8.4,1.46-9.95-1.91,3.14.72,9.35-1.79,9.95,1.91Z"/>
          <path class="cls-10" d="m155.4,32.96c-.08.02-1.19,1.26-1.53.57-.11-.74,1.1-1.27,1.15-1.34-.03.39-.16.66.38.77Z"/>
          <path class="cls-38" d="m204.78,79.66c-.3.94-.81,3.58-1.34,3.83-6-.69-16.7,3.55-17.8.38,3.17-.26,3.75-.55,6.51-1.15,1.25-.27,2.57-.52,3.83-.77.52-.1,1.16.25,1.15-.38,1.82-.1,5.37-1.69,7.66-1.91Z"/>
          <path class="cls-47" d="m97.22,71.62c-2.45,1.08-5.79,3.79-9.19,4.98-7,2.46-6.13.09-6.51,0,4.48-3.05,10.34-4.45,15.69-4.98Z"/>
          <path class="cls-24" d="m206.69,65.49c-.17,1.13-.24,2.31-.38,3.44-.21,1.61-.75,1.81-.77,1.91l-16.46,1.91s-.33.13-.38-.38c4.03-.88,8.27-1.43,12.82-1.53,1.64-2.62,1.97-4.71,2.49-7.66,1.67-.08,2.18,1.06,2.68,2.3Z"/>
          <path class="cls-8" d="m174.54,63.96c-.04.08-1.6-.09-.38,1.15-5.16,2.35-2.89,3.31-.77,4.98-1.18.43-2.33,3.59-3.25,3.83-1.08.28-13.45-1.85-16.65-1.53-.17-2.4.13-4.86,0-7.27,13.23-1.2,16.19,1.41,16.84-11.48,2.16-.42,5.62,1.23,6.12-1.53.03,1.76-.01,3.43.38,5.17-1.14,1.38-1.3,4.74-2.3,6.7Z"/>
          <path class="cls-8" d="m169.57,45.59c.34,1.43.67,3.51.77,4.98,0,.13,0,.26,0,.38,0,.13,0,.26,0,.38-2.57.02-5.11.49-7.66.77-.15-1.21-.53-2.02-1.15-3.06-1.38-2.35-4.66-6.17-6.51-8.42l9.19-4.98c2.87,2.42,4.5,6.38,5.36,9.95Z"/>
          <path class="cls-25" d="m121.34,57.46c-12.17,1.66-14.09,4.04-11.48-4.21,9.67-1.58,6.36-.07,11.48,4.21Z"/>
          <path class="cls-46" d="m94.93,60.14c-.31,1.27-2.52,8.5-2.11,8.8.34.25,1.98-.57,1.72.77-1.06.08-2,.34-3.06.38-2.01.09-2.9.75-3.44-.19.74-3.34,1.05-6.76,1.53-10.14.04-.25-.04-.52,0-.77l5.36,1.15Z"/>
          <path class="cls-43" d="m117.89,50.57c-.21-2.3-.62-4.65-1.15-6.89,1.21-.18,5.84-1.57,6.51-.19-.92,3.92.03,8.14-5.36,7.08Z"/>
          <path class="cls-8" d="m96.84,52.1c-.41-1.83-7.77-.91-6.12,2.87.74,1.7,5.12-1.84,6.12-2.49-.26,2.68-1.3,5.08-1.91,7.66l-5.36-1.15c.34-2.35.47-4.72.77-7.08.3-.43,5.51-1.48,6.51-1.72,0,.64.01,1.28,0,1.91Z"/>
          <g>
            <g>
              <path class="cls-5" d="m112.53,30.66c.04,1.67.27,3.65.38,5.36-.87,1.1-5.27.03-9,.38q-.86-2.68-1.72-5.36c3.43-.14,6.87-.69,10.33-.38Z"/>
              <path class="cls-6" d="m112.53,27.98l-11.87.38c-.16-1.01-.39-2.11-.77-3.06,3.48-1.32,8.48-.76,12.44-1.15.73.2.18,3.64.19,3.83Z"/>
              <path class="cls-24" d="m99.9,25.3c.37.96.61,2.06.77,3.06.12.77.26,1.53.38,2.3.37,2.28.15,4.84,1.53,6.89-.42,0-1.44,1.68-5.36,0,.55-2.41.68-8.48,1.15-11.67l.57-.96c1.13-.17.91.4.96.38Z"/>
              <path class="cls-37" d="m112.53,27.98c.09,1.07-.02,1.73,0,2.68-3.46-.31-6.9.24-10.33.38-.35.01-.51-.57-1.15-.38-.13-.77-.26-1.52-.38-2.3l11.87-.38Z"/>
              <path class="cls-42" d="m102.2,31.04q.86,2.68,1.72,5.36c3.73-.35,8.12.72,9-.38.04.58.13.68.38,1.15-.21.02-1.88,1.13-2.49,1.15-1.53.05-6.48-.77-8.23-.77-1.38-2.05-1.16-4.61-1.53-6.89.64-.18.8.4,1.15.38Z"/>
            </g>
            <path class="cls-25" d="m112.53,50.95c-2.2-.11-2.54-.37-2.68-.38-2.55-14.49,3.06-12.07,2.68.38Z"/>
          </g>
          <path class="cls-8" d="m96.84,52.1c0,.13.01.26,0,.38-1,.65-5.39,4.19-6.12,2.49-1.64-3.78,5.72-4.7,6.12-2.87Z"/>
          <path class="cls-23" d="m176.46,50.57c.09,1.13,0,1.2,0,1.53-.51,2.76-3.96,1.11-6.12,1.53.04-.76.02-1.54,0-2.3,0-.13,0-.26,0-.38,2.05.34,4.11-.19,6.12-.38Z"/>
          <g>
            <path class="cls-8" d="m68.52,49.42c4.72-.43,3.76,5.16,6.12,8.23-.19.54-7.99,2.06-9.19,2.11-.11,0-1.47-1.11-1.91-1.15,2.91,1.92-1.45-6.76-1.91-7.46-.6-.91-2.14-.45-1.15-2.3-3.69-1.85-2.86.54-3.06.57-2.31.38-4.93-.29-7.27.38,1.42-1.37,1.39-1.93,3.64-2.3,8.5-1.37,8,2.82,8.8,3.06.71.21,4.84-.95,5.93-1.15Z"/>
            <path class="cls-25" d="m63.54,58.6c-.12-.01-.26-.01-.38,0l-5.74-9.19c.2-.03-.63-2.43,3.06-.57-.99,1.84.55,1.39,1.15,2.3.47.7,4.83,9.38,1.91,7.46Z"/>
            <g>
              <path class="cls-44" d="m71.96,49.03c1.51,2.93,2.25,6.3,3.83,9.19l-.38,14.16c-2.2,1.44-1.81,1.82-1.91,1.91-2.51,2.2-9.17,2.61-.77,4.59-.14.77.52,3.81-.57,4.59-12.11,1.08-9.83-1.8-18.95-6.51-4.35-1.39-2.58-6-6.7-6.12-3.45-.1-28.1,5.3-34.26,6.51-1.9.37-5.12,1-6.89.77-8.76-17.87.31-14.07,6.12-14.55.56,1.74,1.19,4.72,3.25,4.98,1.71.21,28.8-5.51,34.07-5.36.72-1.34-.55-2.18-.57-2.3-.44-2.17-.75-2.54-.77-2.68-.43-3.76-.04-5.8,2.68-8.42,2.34-.67,4.96,0,7.27-.38l5.74,9.19c-1.9.2-.12,10.72,0,12.82.02.31-.86,4.58-.38,6.12,1.64,5.26,2.69-14.12,2.68-17.8,1.2-.04,9-1.57,9.19-2.11-2.36-3.07-1.41-8.66-6.12-8.23,1.11-.2,2.31-.37,3.44-.38Z"/>
              <g>
                <path class="cls-19" d="m73.49,74.3c-.04.35.42.42.38.77-.48,4.59-1.11,3.61-1.15,3.83-8.4-1.98-1.74-2.39.77-4.59Z"/>
                <path class="cls-46" d="m63.16,58.6c.12-.01.26-.01.38,0,.44.04,1.8,1.15,1.91,1.15,0,3.68-1.04,23.06-2.68,17.8-.48-1.55.4-5.82.38-6.12-.12-2.1-1.9-12.62,0-12.82Z"/>
                <path class="cls-49" d="m57.03,75.06c.55-2.2-.04-2.91,0-3.06.02-.09,1.09-.69,1.15-1.34-.53-4.24.03-8.82-.38-13.01-.13-1.36-1.95-3.15-.96-4.02,1.66-.04,7.05,16.76.19,21.43Z"/>
                <path class="cls-2" d="m57.03,72c-.04.15.55.86,0,3.06-4.77.02-3.24-4.56-2.87-4.59.26-.03,1.98,1.68,2.87,1.53Z"/>
                <path class="cls-29" d="m54.16,53.63c2.62,2.83-3.8,3.38-2.87.96.41-1.06,2.24-.13,2.87-.96Z"/>
              </g>
            </g>
          </g>
          <path class="cls-45" d="m181.81,18.03c1.16-.14,2.91,0,4.21,0,1.38,0,8.42.41,9,.77,7.11,13.62,11.7,29.02,9,44.4-.52,2.94-.84,5.03-2.49,7.66-4.55.1-8.79.65-12.82,1.53,0-.1-1-.79-1.15-1.72,0-.86,2.64-6.28,3.06-8.23.98-4.57,1.05-8.05.77-12.63-.62-9.9-3.04-15.56-8.42-23.73-3.77-5.73-7.93-7.19-1.15-8.04Z"/>
          <path class="cls-39" d="m181.05,25.3c2.8,4,6.23,12.46,7.66,17.22l-4.98,1.91c-.83-4.69-2.27-7.39-4.21-11.48-1.67-3.52-3.5-6.77-5.74-9.95.62-.58,2.7-3.07,3.64-2.68.82,1.93,2.46,3.3,3.64,4.98Z"/>
          <path class="cls-50" d="m182.96,26.07c5.38,8.17,7.8,13.83,8.42,23.73-1.14.84-.7,2.48-.77,3.83-.54,1.77-4.16,1.38-6.51,1.53.11-.63.37-3.16.38-3.83,6.71-1.52,7.14.96,4.21-8.8-1.43-4.76-4.85-13.22-7.66-17.22l1.91.77Z"/>
          <g>
            <path class="cls-39" d="m188.7,4.25c-.92-.18-1.09.7-1.53,1.15-.71-.09-1.66.14-2.3,0-2.99-.65-10.22-4.01-14.93-4.21.24-.21.38-1.09.57-1.15,6.21-.52,16.85,4.04,18.18,4.21Z"/>
            <path class="cls-44" d="m184.88,5.4c-.5,3.43-10.24-1.65-15.69-3.06.05-.07-.31-.21.77-1.15,4.71.2,11.94,3.56,14.93,4.21Z"/>
            <g>
              <path class="cls-44" d="m184.88,5.4c.63.14,1.58-.09,2.3,0-1.8,1.82-2.32,1.46-2.68,1.91-.42.53-1.31,3.98-1.53,4.98-.31,1.37-.47,2.82-.77,4.21-.1.47.13.89-.38,1.53-6.78.85-2.62,2.31,1.15,8.04l-1.91-.77c-1.17-1.68-2.81-3.04-3.64-4.98-.94-.39-3.02,2.1-3.64,2.68-1.83,1.73-2.72,3.24-4.4,4.98-.54.09-8.19-2.93-9.76-1.91l-.57-.38c-11.42,9.9-8.16,12.03-8.61-4.4.71-2.14,14.02-5.15,9-7.08-2.86-1.1-6.26,4.94-6.32-4.4q6.79-1.82,13.59-3.64c1.16-1.08,1.58-2.57,2.49-3.83,5.45,1.41,15.19,6.49,15.69,3.06Z"/>
              <path class="cls-8" d="m165.16,6.93c2-.62,4.34,6.89,5.36,7.27,1.63.62,11.79-.18-2.68,2.68-.79-1.48-5.23-9.16-2.68-9.95Z"/>
            </g>
          </g>
          <g>
            <path class="cls-7" d="m202.1,6.55c.78,5.17-.07,5.26-4.21,5.36-1.6.04-8.8-.76-9.76-.38l-2.11,6.51c-1.3,0-3.05-.14-4.21,0,.51-.64.28-1.07.38-1.53.58.42,2.45.58,2.87.38.57-.27,3.62-7.83-2.11-4.59.23-1,1.11-4.45,1.53-4.98.44.73.23,1.08.96,1.15.84.08,14.5-1.29,16.65-1.91Z"/>
            <path class="cls-43" d="m202.1,6.55c-2.15.63-15.81,2-16.65,1.91-.73-.07-.52-.42-.96-1.15.36-.45.88-.1,2.68-1.91.44-.45.61-1.33,1.53-1.15,3.89.51,8.75-.86,12.82-.38.2.12.5,2.2.57,2.68Z"/>
            <path class="cls-15" d="m182.2,16.5c.3-1.39.46-2.84.77-4.21,5.73-3.24,2.68,4.33,2.11,4.59-.42.19-2.29.04-2.87-.38Z"/>
          </g>
          <g>
            <path class="cls-44" d="m298.18,21.86c5.13,2.82,5.53,9.21,1.53,12.25-5.32,1.73-6.09-.44-7.85-.38-2,.07-18.81,3.43-24.11,4.21-7.89,1.17-14.86-.9-15.31,5.36-1.77-1.14-1.15-2.03-.57-3.44.08-.21,1.24-1.08,2.3-3.83-5.52-12.44-8.33-4.32-14.55-9.57.19-.39.49-.65.38-1.15,2.86-.08,5.72-.67,8.61-.38.93,1.36,2.26,2.56,3.25,3.83.15.19,1.37,3.36,2.11,4.21,1.8.78,33.31-6.77,38.66-6.12,1.55-.48.09-3.96.19-5.36.32-.09-.67-2.93,5.36.38Z"/>
            <g>
              <path class="cls-28" d="m298.18,21.86c-6.03-3.31-5.04-.47-5.36-.38-7.76,2.17-30.03,4.14-40.96,7.27-1-1.27-2.32-2.47-3.25-3.83-2.89-.28-5.75.3-8.61.38-.14,0-1.98.53-2.68.77.81-1.96,12.84-3.51,13.21,0,3.99-.5,7.51-.4,10.72-1.91,7.09-.1,12.34-2.46,18.37-1.91,3.46-1.78,9.79-.99,13.4-3.06,1.72.99,4.19.57,5.17,2.68Z"/>
              <path class="cls-37" d="m292.82,21.48c-.1,1.4,1.35,4.88-.19,5.36-5.35-.65-36.86,6.91-38.66,6.12-.73-.85-1.96-4.03-2.11-4.21,10.93-3.14,33.19-5.1,40.96-7.27Z"/>
            </g>
          </g>
          <g>
            <path class="cls-44" d="m197.89,11.91c.25.78.47,2.03.77,2.68,1.56,3.38,3.36,1.46,9.95,1.91,1.11,6.79-4.48,6.1-4.98,7.46-.3.82.74,1.63.77,1.72.59,1.87,1.66,3.5,2.3,5.36,3.22,9.34,4.68,17.22,4.21,27.18-.55.12-3.7,1.04-3.83,1.34.16,2.02-.08,3.94-.38,5.93-.5-1.24-1.01-2.38-2.68-2.3,2.71-15.38-1.88-30.78-9-44.4-.58-.36-7.61-.77-9-.77l2.11-6.51c.96-.38,8.16.42,9.76.38Z"/>
            <path class="cls-26" d="m193.11,11.91c5.15-1.62,2.38,2.51,1.53,6.12-1.07-.97-3.41-5.53-1.53-6.12Z"/>
          </g>
          <path class="cls-27" d="m234.25,33.34c.15,2.08-.11,4.23,0,6.32-8,4.35-4.79,5.61-5.74,9-.22.77-.55,1.44-.77,2.3-.24-6.37.81-11.22-1.15-17.61l7.66-2.68c.04.89-.06,1.79,0,2.68Z"/>
          <g>
            <path class="cls-44" d="m236.55,26.07c-.23,4.55-1.97,9.68.38,8.42-1.91,4.09-1.47-.92-2.68-1.15-.06-.88.04-1.79,0-2.68-.43-1.55-7.25-2.67-10.33-3.06.03-.12-.04-.27,0-.38.1-.32,3.97-4,4.4-4.98,2.05.37,7.78,3.75,8.23,3.83Z"/>
            <path class="cls-25" d="m239.61,26.45c-1.58,3.19-2.09,6.78-2.68,8.04-2.35,1.26-.61-3.87-.38-8.42.24.04.52-.02.77,0,.7-.24,2.54-.76,2.68-.77.11.5-.19.76-.38,1.15Z"/>
            <g>
              <path class="cls-44" d="m254.16,36.02c-.89-1.28-2.02-2.31-3.06-3.44-.13-.14-1.09-2.73-2.11-3.06-3.52-1.15-6.84,6.03-3.44,9.57,2.86-5.23.05-4.75,3.25-5.74l3.06,6.51c-.58,1.42-1.2,2.3.57,3.44.45-6.26,7.42-4.19,15.31-5.36,5.31-.78,22.11-4.14,24.11-4.21,1.76-.06,2.53,2.11,7.85.38-4.02,3.06-5.01.35-9,.38-3.38.02-27.16,5.73-35.6,4.98l-5.74,10.72h-9c-7.75-4.02-2.98-3.34-11.87-1.53.95-3.39-2.25-4.64,5.74-9-.11-2.09.15-4.23,0-6.32,1.21.23.77,5.24,2.68,1.15.59-1.26,1.1-4.85,2.68-8.04,6.22,5.25,9.02-2.87,14.55,9.57Z"/>
              <path class="cls-33" d="m254.16,36.02c-1.06,2.75-2.21,3.62-2.3,3.83l-3.06-6.51c.67-.21,1.93-.25,2.3-.77,1.04,1.13,2.18,2.17,3.06,3.44Z"/>
              <path class="cls-7" d="m251.1,32.58c-.37.52-1.63.56-2.3.77-3.2.99-.4.51-3.25,5.74-3.39-3.54-.07-10.72,3.44-9.57,1.01.33,1.98,2.93,2.11,3.06Z"/>
              <path class="cls-7" d="m245.93,39.85c3.83-2.48,7.36,5.23,4.21,6.12-3.99,1.13-5.46-5.32-4.21-6.12Z"/>
            </g>
          </g>
          <g>
            <path class="cls-34" d="m92.25,42.91c-.07.05.25.63-.96,1.53-5.86-.65-13.51,1.66-16.27-.77.56-.6.89-1.21,1.72-1.53,2.82.46,12.01-.48,12.63-.38.38.06,1.74,2.34,2.87,1.15Z"/>
            <path class="cls-36" d="m83.06,63.58c.19,1.19-.01,5.43.38,6.32l.96.96c3.21-.9,7.06,1.09,7.08-.77,1.06-.05,2-.31,3.06-.38,2.01-.15,1.52-1.35,5.74.38-.17.04-2.32,1.21-3.06,1.53-5.35.53-11.22,1.93-15.69,4.98-2.5-.6-5.14-.94-7.66-1.53.04-.35-.43-.42-.38-.77.1-.09-.29-.47,1.91-1.91,8.26,3.2,5.58-5.6,7.27-10.72.11.65.28,1.3.38,1.91Z"/>
            <path class="cls-22" d="m80.76,51.33c1.04,3.28,1.34,6.94,1.91,10.33-1.7,5.12.98,13.92-7.27,10.72l.38-14.16c3.23,5.92,3.57,2.54,3.83-6.89.37.05.77-.03,1.15,0Z"/>
            <path class="cls-51" d="m89.57,59.75c-.48,3.38-.79,6.8-1.53,10.14.55.94,1.43.28,3.44.19-.02,1.85-3.87-.13-7.08.77l-.96-.96c-.39-.89-.19-5.13-.38-6.32,2.88-3.78,5.27-9.3,6.51-3.83Z"/>
            <g>
              <path class="cls-27" d="m96.84,50.18c-1,.24-6.21,1.29-6.51,1.72-.3,2.36-.42,4.73-.77,7.08-.04.25.04.52,0,.77-1.23-5.47-3.63.05-6.51,3.83-.1-.61-.27-1.27-.38-1.91-.57-3.39-.88-7.06-1.91-10.33-.76-2.4-1.99-7.26-5.17-6.12-3.09,1.11,2.3,5.88,4.02,6.12-.26,9.43-.59,12.8-3.83,6.89-1.58-2.89-2.32-6.26-3.83-9.19,0-.37,2.66-4.93,3.06-5.36,2.75,2.43,10.41.12,16.27.77,1.2-.9.88-1.48.96-1.53,1.32-.92,4.65-3.39,4.98-4.59,7.51,3.09,6.9,2.79,5.17,11.1-1.83.24-3.76.33-5.55.77Z"/>
              <path class="cls-49" d="m80.76,51.33c-.38-.03-.78.05-1.15,0-1.72-.24-7.11-5.02-4.02-6.12,3.18-1.14,4.41,3.73,5.17,6.12Z"/>
              <path class="cls-43" d="m101.62,46.36c4.27,1.38-6.93,4.02-7.46,3.25-1.4-2,7.03-3.39,7.46-3.25Z"/>
            </g>
          </g>
          <path class="cls-22" d="m234.25,30.66l-7.66,2.68c-.62-2.03-2.72-5.02-2.68-5.74,3.09.4,9.91,1.51,10.33,3.06Z"/>
          <path class="cls-44" d="m179.52,32.96c1.94,4.1,3.38,6.79,4.21,11.48.33,1.88.81,5.11.77,6.89-.02.67-.27,3.19-.38,3.83-1.79,10.53-8.89,9.47-9.95,9.95-1.22-1.23.34-1.07.38-1.15,3.06,2.48,4.68-7.64,4.21-13.4-.46-5.7-4.65-19.04-11.1-20.29,5.5-.2,6.8-.22,11.87,2.68Z"/>
          <path class="cls-39" d="m170.33,50.57c-.09-1.47-.42-3.55-.77-4.98,1.83-1.27,3.83,1.39,5.17,2.68.16.15,1.01-.23,1.34.19,1.52,1.97-4.48,2.13-5.74,2.11Z"/>
          <path class="cls-32" d="m178.75,50.57c.47,5.76-1.15,15.88-4.21,13.4,1-1.96,1.15-5.31,2.3-6.7-.39-1.74-.36-3.41-.38-5.17,0-.33.09-.4,0-1.53.75-.07,1.54.05,2.3,0Z"/>
          <path class="cls-23" d="m189.85,60.52c-1.83,8.29-4.05,9.32-11.29,13.01-1.54-1.42-3.54-2.16-5.17-3.44-2.12-1.67-4.39-2.63.77-4.98,1.06-.48,8.16.58,9.95-9.95,2.34-.15,5.97.24,6.51-1.53-.11,2.34-.26,4.6-.77,6.89Z"/>
          <path class="cls-8" d="m190.62,62.43l-.77-1.91c.51-2.29.65-4.55.77-6.89.06-1.35-.38-2.99.77-3.83.28,4.58.22,8.07-.77,12.63Z"/>
          <g>
            <path class="cls-44" d="m190.62,62.43c-.42,1.95-3.06,7.37-3.06,8.23.15.93,1.14,1.62,1.15,1.72.05.51.38.36.38.38.41,4.55-1.13,11.05,3.06,9.95-2.75.59-3.33.89-6.51,1.15-.13.01-.26,0-.38,0-1.62.08-2.03-.71-1.91.19l1.91.57c.98,8.07-1.75,3.7-11.67,5.36l-19.71-13.4c-.64-.84-.29-1.76-.38-2.68-.05-.5.04-1.03,0-1.53,3.2-.32,15.57,1.81,16.65,1.53.93-.24,2.07-3.39,3.25-3.83,1.63,1.28,3.63,2.03,5.17,3.44,7.24-3.7,9.46-4.72,11.29-13.01l.77,1.91Z"/>
            <path class="cls-30" d="m185.26,83.87v.77l-1.91-.57c-.12-.91.29-.11,1.91-.19Z"/>
            <path class="cls-12" d="m178.18,81.19c1.72-.72,1.27,3.14-.38,2.3-.46-.24.28-2.25.38-2.3Z"/>
          </g>
          <g>
            <path class="cls-7" d="m205.55,70.85c-.06.44,1.04,3.18-.77,8.8-2.28.23-5.84,1.81-7.66,1.91-.6.03-1.17-.18-1.15.38-1.26.25-2.57.5-3.83.77-4.2,1.09-2.65-5.4-3.06-9.95l16.46-1.91Z"/>
            <path class="cls-3" d="m197.13,81.57c.01.63-.63.28-1.15.38-.02-.57.55-.35,1.15-.38Z"/>
          </g>
          <path class="cls-16" d="m188.7,42.53c2.93,9.77,2.49,7.28-4.21,8.8.04-1.78-.43-5.01-.77-6.89l4.98-1.91Z"/>
          <g>
            <path class="cls-27" d="m223.92,27.22c-.04.11.03.26,0,.38-.04.72,2.06,3.72,2.68,5.74,1.96,6.39.91,11.23,1.15,17.61-.39,1.54-1.1,3.02-1.53,4.59-1.88-5.97-1.93-19.23-6.51-24.11-.21-.23-.65-1.09-.96-1.15-3.2.74-6.52.3-9.76.38-.83.02-1.55-.17-2.3.38-.64-1.86-1.71-3.49-2.3-5.36,6.66.06,13.26-1.47,19.52,1.53Z"/>
            <path class="cls-36" d="m208.99,30.66v.38c1.35,4.1,3.27,8.01,4.21,12.25,1.02,4.62.84,5.98,1.15,9.95.01.15-1.12,2.58,1.53.38.37.02.79.05,1.15,0,.91-.12,1.97.4,2.68-.57.54-.75,1.93-13.85-.77-18.18.22-2.39-2.76-4.46.77-3.44,4.58,4.89,4.63,18.14,6.51,24.11-.1.37-.38.45-.38.77-.74-.11-13.85,1.67-14.93,1.91.47-9.96-.99-17.83-4.21-27.18.74-.55,1.46-.36,2.3-.38Z"/>
            <path class="cls-49" d="m219.71,31.43c-3.53-1.02-.54,1.06-.77,3.44-.24-.38-.66-.99-1.15-1.15-2.08-4.15-2.74-2.35-8.8-2.68v-.38c3.24-.08,6.56.36,9.76-.38.31.06.74.92.96,1.15Z"/>
            <path class="cls-21" d="m217.79,33.72c.34.67,1.84,6,1.91,6.7.13,1.3-.77,1.26-.77,1.34l-5.74,1.53c-.94-4.24-2.86-8.15-4.21-12.25,6.06.33,6.73-1.47,8.8,2.68Z"/>
            <path class="cls-42" d="m218.94,41.76c.22,5.05,1.27,12.54-1.91,11.87-.36.05-.78.02-1.15,0-.65-.04-.95.04-1.53-.38-.31-3.97-.13-5.33-1.15-9.95l5.74-1.53Z"/>
            <path class="cls-5" d="m218.94,34.87c2.7,4.33,1.31,17.43.77,18.18-.71.97-1.77.46-2.68.57,3.19.68,2.14-6.81,1.91-11.87,0-.08.9-.04.77-1.34-.07-.7-1.58-6.03-1.91-6.7.49.16.91.77,1.15,1.15Z"/>
            <path class="cls-40" d="m215.88,53.63c-2.65,2.2-1.52-.23-1.53-.38.58.43.89.35,1.53.38Z"/>
          </g>
        </g>
        <g>
          <path class="cls-44" d="m112.53,174.58c-.23,2.96-.94,4.94-1.91,7.66-.89,2.5-2.76,4.3-2.11,4.98,2.1.48,12.69,4.65,13.4,4.59.24-.02,3.47-2.4,3.64-2.68,1.02,1.79,2.11,3.39,3.44,4.98.09.1.3,1.3,1.34,2.3,1.3.42,10.67-2.25,13.21-1.15-.23.47-.54,1.89-.77,2.3l-13.21,1.91c-4.68-7.53-2.38.73-1.53,4.59l11.29-.38c-.5.67-.21,1.42-.96,1.91-14.88,2.67-18.19,3.6-25.26-10.33-2.92-.11-4.5.5-7.08-.77-.95-.47-5.55-5.23-6.89-6.51,1.6-.9,1.93-2.35,2.68-3.83,2.44-4.81,2.31-5.57,2.68-10.72,0-.06.35.36.38-1.15.6,3.35,5.8.1,7.66,2.3Z"/>
          <path class="cls-11" d="m48.61,170.76c.03.28,2.17,4.66.57,5.36l-27.75,3.06c.11-1.77.02-3.23-.38-4.98q13.78-1.72,27.56-3.44Z"/>
          <path class="cls-43" d="m144.3,130.95h-12.82l-.57.77q-1.53,3.64-3.06,7.27c-.14,0-.88.62-2.68.38,1.63-4.68.52-9.43,5.74-11.48.86-.34.72-.37.77-.38,1.58-.41,12.67-.76,13.21-.38.19.13.93,4.47-.57,3.83Z"/>
          <path class="cls-8" d="m21.05,174.2c.4,1.74.49,3.21.38,4.98-1.85-.67.74-2.07-2.49-4.21-.7-.46-15.08-5.49-15.69-6.12-1.89-1.97,2.38-.37,2.11-1.91,1.59-.14,5.78-.59,6.7-.38.51.11,8.52,5.3,8.8,5.74.4.63.05,1.3.19,1.91Z"/>
          <g>
            <path class="cls-6" d="m201.34,134.39c-2.76-.44-5.73.42-8.42.38-1.25-.02-2.86.37-3.83-.57-.19-.19-.8-4.26-1.53-5.17,4.39-.52,8.77-1.21,13.21-1.15l.57,6.51Z"/>
            <path class="cls-18" d="m187.56,129.03c.73.91,1.34,4.98,1.53,5.17.97.95,2.58.55,3.83.57-.4,6.7,2.72,6.33,8.42,5.36.61-.07,1.1.43,1.53.77.03.03.34.6.38.77-6.49,1.68-17.47-.36-17.22-8.61.02-.51,1.34-2.9,0-2.49.12-.65.19-1.28.38-1.91.65-.18.82.42,1.15.38Z"/>
            <path class="cls-25" d="m201.34,134.39v5.74c-5.7.97-8.82,1.34-8.42-5.36,2.69.04,5.66-.82,8.42-.38Z"/>
          </g>
          <path class="cls-44" d="m239.61,146.64l-11.48-4.98c3-.23,6.62-2.13,7.85-1.91.28.05,4.33,3.36,4.4,3.64.23.85-.75,3.09-.77,3.25Z"/>
          <path class="cls-44" d="m203.25,141.66c3.33,5.15,8.3,7.37,8.42,14.93.01.89-.21,2.97-.38,3.83-.39,1.89-3.22,7.64-4.21,9.95-.02.59-.63.14-.77.77-5.29-.44-13.66,2.66-20.1,3.83-12.28,2.23-24.85,3.09-37.13,5.36-.71,1.13-.33,3.4-.57,4.21-.48,1.61-1.3,3.4-1.91,4.98-1.11-.25,1.69-7.54,1.91-11.29-.49-3.09-.1-6.31-.38-9.38,5.77-.15,11.49-1.06,17.22-1.53,5.77-.48,23.45-1.39,25.84-1.91,5.01-1.1-4.9-5.25-7.66-6.89,6.39-1.01,16.73-.97,22.2-1.91,9.29-1.6,5.51-3.46-3.44-1.91-.47-2.68-3.21-8.23-.19-8.23-5.93-2.53-1.41,7.8-3.25,8.61-4.8-.01-9.58-.22-14.35-.77v-.38c1.09.34,6.05-.1,7.85.38,1.03-.51.4-2.55.57-3.44.39-1.97.67-3.93.77-5.93q-4.78-1.63-9.57-3.25c.94-3.64,1.25-7.41,1.91-11.1,1.34-.41.02,1.98,0,2.49-.24,8.25,10.73,10.3,17.22,8.61Z"/>
          <g>
            <path class="cls-8" d="m65.84,162.33c1.46.91,1.08,1.46,1.15,1.53-11.57-3.55.92,6.12,4.98,8.04-2.54,1.82-5.73.57-6.51,1.72-1.12,6.23.15,15.29-3.25,12.82-.67-.49,1.38-13.26.96-16.27-.63-4.5-3.39-5.53-4.21-9.38,1.27.36-.12,2.08,6.89,1.53Z"/>
            <path class="cls-44" d="m69.28,162.33c.2.29,1.06,1.5,1.15,1.53.95.33,3.89-1.55.77,3.44-.17-.21-2.7-1.78-4.21-3.44-.06-.07.31-.62-1.15-1.53,1.09-.09,2.98.17,3.44,0Z"/>
            <path class="cls-8" d="m66.98,163.87c1.51,1.66,4.04,3.24,4.21,3.44,1.64,1.97,2.52,3.34.77,4.59-4.05-1.92-16.54-11.59-4.98-8.04Z"/>
          </g>
          <path class="cls-23" d="m118.66,183.77c.86.16,1.81.21,2.68.38,1.39.27,2.77.77,4.21.77-.04.23,1.6,1.47,0,4.21-.16.28-3.4,2.66-3.64,2.68-.71.05-11.29-4.11-13.4-4.59-.65-.67,1.21-2.48,2.11-4.98,2.7.42,5.36,1.04,8.04,1.53Z"/>
          <path class="cls-8" d="m112.53,171.14c.16,2.01.39,2.54.38,2.68,0,.04-.3-.28-.38.77-1.86-2.2-7.05,1.05-7.66-2.3.02-1,.08-2.07,0-3.06.02-12.73-2.94-6.86,2.87-8.42.22-.06.16-1.02.96-1.15,2.27,3.45,3.5,7.35,3.83,11.48Z"/>
          <path class="cls-23" d="m119.04,172.29c.44,9.75-2.74,9.3-.38,11.48-2.68-.49-5.34-1.12-8.04-1.53.97-2.72,1.69-4.7,1.91-7.66.08-1.04.38-.72.38-.77l6.12-1.53Z"/>
          <g>
            <path class="cls-44" d="m253.77,143.58c-.94,1.52-1.28.11-1.72.38-1.23.74-5.66,9.87-3.25,8.42,2.8.72,8.39-3.41,6.89,2.49-.9,3.53-4.39.55-6.89,1.53,5.18,13.1,6.75.99,8.42-5.55,1.08,1.53-.5,4.62-1.15,6.32l1.15,2.49c-.31,1.04-.33,2.55-.38,2.68-.21.5-2.86,3.71-3.25,3.83l-7.85.38c-5.88-8.89-12.86-1.07-11.1-10.33.61-3.23,4.08-2.55,4.98-4.4.31-.65.2-3.72.38-4.4.39-1.47.83-2.92,1.15-4.4,12.16-3.05,9.25-3.03,12.63.57Z"/>
            <path class="cls-29" d="m257.22,150.85c-1.67,6.54-3.24,18.65-8.42,5.55,2.5-.98,5.99,1.99,6.89-1.53,1.5-5.9-4.09-1.77-6.89-2.49l3.64-7.66,4.78,6.12Z"/>
          </g>
          <g>
            <path class="cls-44" d="m298.18,140.9c10.09,5.51,3.86,13.96,0,14.55-2.01.3-3.41-.71-3.83-.77-.05,0,.03-.33-.57-.77-2.25-.11-4.46.25-6.7.38-9.74.57-19.51,2.33-29.28,2.68-.27.19-.36,1.95-.57,2.68l-1.15-2.49c.65-1.69,2.23-4.78,1.15-6.32l-4.78-6.12-3.64,7.66c-2.4,1.45,2.03-7.68,3.25-8.42.45-.27.78,1.13,1.72-.38.84.9,1.5,1.77,2.3,2.68.54.62,1.73,2.93,2.11,3.06,3.86.18,7.66-.34,11.29-1.15,8.91.1,18.6-1.01,27.18-2.49-.16-.72-1.48-1.99-1.53-2.11-.79-1.9-1.12-2.17-1.15-2.3-.73-3.44,1.63-1.79,4.21-.38Z"/>
            <path class="cls-11" d="m293.97,141.28c.03.13.35.4,1.15,2.3-3.48,1.82-20.53,1.67-22.01,2.3-1.58.67,2.93.83-3.64,2.3-3.63.81-7.43,1.33-11.29,1.15-.37-.13-1.56-2.44-2.11-3.06q18.95-2.49,37.89-4.98Z"/>
            <path class="cls-11" d="m269.47,148.17c6.57-1.47,2.05-1.62,3.64-2.3,1.48-.63,18.53-.48,22.01-2.3.05.12,1.38,1.38,1.53,2.11-8.58,1.48-18.26,2.59-27.18,2.49Z"/>
          </g>
          <path class="cls-46" d="m125.55,161.19c.71,2.78,1.34,5.95,1.53,8.8.05.76-.02,1.53,0,2.3.03,1.27.03,2.56,0,3.83-.05,1.95-.35,2.63-.38,3.06-.09,1.36-.3,1.98-.38,2.68-.12,1.08-.59,2.05-.77,3.06-1.44,0-2.82-.5-4.21-.77,1.21-4,1.56-8.45,1.15-12.63-.49-4.96-7.91-28.75-14.93-19.14-3.07-.55-3.87-.79-5.74,2.11.27.36,2.78-1.06,6.89,5.17-.8.13-.74,1.09-.96,1.15-5.81,1.56-2.85-4.31-2.87,8.42-.44-5.67-.9-6.27-3.83-10.72-.56-.85-.94-.71-1.53-1.34,3.03-6.8,4.95-8.96,12.82-8.23,8.9.83,11.2,4.43,13.21,12.25Z"/>
          <g>
            <path class="cls-28" d="m186.41,128.65c-.2.64-.27,1.27-.38,1.91-.67,3.69-.97,7.46-1.91,11.1-3.77-.71-7.56,1.52-11.1,2.87,2.43,2.09,5.04,4.09,7.66,5.93,1.07.75,3.24,3.26,3.83,3.44v.38c-.37-.04-.68.58-.96.77-.6-.19-5.63-5.58-7.08-6.51-3.98-2.54-18.01.05-23.73-.38-1.74-2.73-3.94-1.51-6.89-2.87,2.01-.84,5.74-1.16,6.12-1.34-2.79,1.61,10.4.66,13.21.38,8.42-.84,13.17-3.31,18.37-3.44.98-2.19,1.01-11.94,2.87-12.25Z"/>
            <path class="cls-12" d="m176.46,148.55c-.31,2.04,3.01,9.6,1.34,10.72-7.02.84-14.03,2.09-21.05,2.68-.69-.36-.61-1.68-.96-2.68-.04-.11.04-.27,0-.38-.88-2.72-1.83-8.78-3.06-10.72,5.72.43,19.75-2.16,23.73.38Z"/>
          </g>
          <path class="cls-5" d="m155.79,158.89c.04.12-.04.27,0,.38-2.1,2.73-6.45,1.25-8.8,3.06-.53-2.7-1.54-5.39-2.3-8.04,1.73-1.24,6.28-5.38,8.23-4.21.73.44,1.4,9.42,2.87,8.8Z"/>
          <path class="cls-25" d="m165.36,167.31c-1.82-5.26-10.02-1.71-17.61-1.53-.15-1.08-.55-2.33-.77-3.44,2.35-1.81,6.7-.33,8.8-3.06.35,1,.27,2.32.96,2.68,7.02-.59,14.03-1.84,21.05-2.68,1.67-1.12-1.65-8.68-1.34-10.72,1.45.93,6.48,6.32,7.08,6.51.28-.19.59-.81.96-.77,4.77.54,9.56.75,14.35.77,1.84-.82-2.67-11.14,3.25-8.61-3.02,0-.28,5.55.19,8.23,8.96-1.54,12.74.31,3.44,1.91-5.47.94-15.81.91-22.2,1.91,2.75,1.64,12.67,5.79,7.66,6.89-2.39.52-20.07,1.44-25.84,1.91Z"/>
          <g>
            <path class="cls-27" d="m184.11,141.66q4.78,1.63,9.57,3.25c-.09,2-.38,3.96-.77,5.93-4.33-.06-10.87-2.29-12.25-.38-2.62-1.84-5.23-3.84-7.66-5.93,3.54-1.35,7.33-3.58,11.1-2.87Z"/>
            <path class="cls-51" d="m192.91,150.85c-.18.89.45,2.94-.57,3.44-1.79-.49-6.75-.04-7.85-.38-.58-.18-2.76-2.7-3.83-3.44,1.38-1.91,7.92.32,12.25.38Z"/>
          </g>
          <g>
            <path class="cls-20" d="m131.67,127.5s.09.05-.77.38c-3.41.54-11.44-1.83-16.27-3.06-.29-.07-.19-.51-.19-.77,2.85-1.18,13.77,2.6,17.22,3.44Z"/>
            <g>
              <path class="cls-44" d="m140.48,135.54l12.63.38c.32,1.65-.23,5.32,0,7.46-1.32.23-1.09.55-1.15.57-.39.18-4.11.5-6.12,1.34,2.95,1.36,5.15.14,6.89,2.87,1.23,1.93,2.19,8,3.06,10.72-1.48.62-2.14-8.36-2.87-8.8-1.95-1.17-6.5,2.97-8.23,4.21-1.01-3.51-5.24-14.02-5.36-14.93-.02-.16.77-.13,0-3.25.54-.8,1.13-.51,1.15-.57Z"/>
              <path class="cls-1" d="m144.3,130.95c-.14,4.57,7.72,1.55,8.8,4.21-4.09-1.05-10.84-.17-12.25-1.91.32-.88.48-1.58,1.15-2.3h2.3Z"/>
              <path class="cls-37" d="m153.11,135.16c.02.25-.05.53,0,.77l-12.63-.38c.03-.11-.41-.09.38-2.3,1.41,1.74,8.16.87,12.25,1.91Z"/>
            </g>
            <g>
              <path class="cls-44" d="m130.91,127.89c-5.23,2.05-4.12,6.8-5.74,11.48-1.88-.38-2.51,1.43-2.68,1.53-.84.49-.85.51-1.53,1.15-.5.48-2.57,1.51-2.68,2.11-.18,1,2.45,3.99.96,4.4-21.39-5.34-18.97,6.65-21.82,7.66-.81.29-1.4-.32-1.72-.38-4.28-.87-1.75-4.12-1.53-12.06,1.01-1.14,8.21-2.58,8.42-3.44.72-2.91-4.36-3.05-6.12-2.3-2.08-10.8,9.2-1.95,17.99-13.97,0,.26-.09.69.19.77,4.83,1.23,12.85,3.6,16.27,3.06Z"/>
              <path class="cls-25" d="m108.51,130.18c2.83-.27,4.99,6.44,7.08,8.23l-.57.57-5.17-1.34c-.48-1.68-4.12-7.2-1.34-7.46Z"/>
            </g>
            <path class="cls-42" d="m142.01,130.95c-.67.72-.83,1.41-1.15,2.3-.79,2.21-.36,2.18-.38,2.3-.01.06-.61-.22-1.15.57.77,3.12-.02,3.09,0,3.25h-2.3c-1.4-2.85-3.47-9.13-6.12-7.66l.57-.77h10.53Z"/>
            <path class="cls-24" d="m137.03,139.37c-2.95.53-6.32-.54-9.19-.38q1.53-3.64,3.06-7.27c2.65-1.47,4.73,4.81,6.12,7.66Z"/>
          </g>
          <path class="cls-24" d="m165.36,167.31c-5.74.48-11.45,1.38-17.22,1.53-.08-.93-.25-2.12-.38-3.06,7.59-.18,15.79-3.73,17.61,1.53Z"/>
          <g>
            <path class="cls-44" d="m80.38,171.14c.32,1.69.65,3.25.77,4.98.14,2.1.05,4.22.38,6.32-.67.25-.8.33-1.15.96-.01.02-.08-.09-.38.38-.93-.6-2.49.59-4.21,1.15-12.14,3.92-17.82,12.19-25.84-1.53-3.35.32-27.54,2.2-28.52,3.25-.99,1.07,2.07,17.25-21.43-.38.68-4.78-.1-15.16,1.15-18.95,1.42.03,2.8-.26,4.21-.38.28,1.54-4-.06-2.11,1.91.61.64,14.99,5.66,15.69,6.12,3.23,2.14.64,3.54,2.49,4.21l27.75-3.06c1.6-.7-.54-5.08-.57-5.36-.11-1.05-.47-4.32-.38-4.78.13-.64,4.08-7.02,10.72-5.17.82,3.85,3.58,4.87,4.21,9.38.42,3.01-1.63,15.78-.96,16.27,3.4,2.46,2.13-6.59,3.25-12.82.77-1.15,3.97.1,6.51-1.72,1.75-1.26.87-2.63-.77-4.59,3.12-5,.18-3.12-.77-3.44,5.88-6.46,7.69-4.72,9.95,7.27Z"/>
            <path class="cls-43" d="m76.94,172.67c.01.9-.65,8.92-.77,9.38-1.93,7.8-1.82-8.94-1.91-9.76l2.68.38Z"/>
            <path class="cls-34" d="m76.94,172.67l-2.68-.38c-.14-1.28-1.99-5.27-1.91-5.55.08-.33,3.06-1.82,3.25-1.72.68.32,1.32,6.11,1.34,7.66Z"/>
            <path class="cls-44" d="m75.98,161.95c1.19-.21,4.3,9.63,3.44,10.33-2.46,2.02-2.28-5.08-2.49-5.93-.08-.34-2.77-4.08-.96-4.4Z"/>
            <g>
              <path class="cls-48" d="m55.31,165.4c.76-.05,1.54.04,2.3,0,.67,1.61,2.8,4.51,2.87,4.78.16.65.15,12.74,0,13.4-1.33,5.93-9.99.4-1.53-1.53v-12.25c-.75-1.69-8.15.49-8.42,0-1.33-2.43,3.12-4.29,4.78-4.4Z"/>
              <path class="cls-15" d="m58.75,183c1.95.19-2.46,5.13-2.11,1.72.02-.23,1.91-1.74,2.11-1.72Z"/>
            </g>
          </g>
          <path class="cls-48" d="m122.49,171.52c.41,4.18.06,8.63-1.15,12.63-.87-.17-1.82-.23-2.68-.38-2.35-2.18.82-1.74.38-11.48-.01-.25.02-.51,0-.77h3.44Z"/>
          <path class="cls-28" d="m107.56,152.38c8.09,1.44,10.14,10.11,11.1,16.84l-6.12,1.91c-.33-4.14-1.55-8.03-3.83-11.48-4.11-6.23-6.62-4.81-6.89-5.17,1.87-2.9,2.67-2.65,5.74-2.11Z"/>
          <path class="cls-14" d="m118.66,169.22c.11.78.32,1.44.38,2.3.02.25-.01.51,0,.77l-6.12,1.53c0-.14-.22-.67-.38-2.68l6.12-1.91Z"/>
          <g>
            <path class="cls-51" d="m98.75,173.43c.04,5.5-3.53,10.19,3.06,10.72-.75,1.47-1.08,2.93-2.68,3.83-7.99-1.94-20.97,1.54-22.01,1.15-.66-.25-.54-1.09-.57-1.15,1.1-1,2.67-2.97,3.44-4.21.3-.47.37-.36.38-.38,2.67-.48.93,3.54,1.72,4.21,1.02.86,7.44-2.96,11.48-1.91.36-.15.12-.69.19-.77,2.55-2.8,3.2-20.37-.38-25.65,4.23.52,5.33,10.47,5.36,14.16Z"/>
            <path class="cls-29" d="m80,183.77c-.78,1.24-2.35,3.21-3.44,4.21-.23-.39-.71-2.33-.77-3.06,1.72-.56,3.28-1.75,4.21-1.15Z"/>
            <path class="cls-27" d="m95.31,156.21c1.91.32,3.71,2.16,5.74,2.3,2.92,4.45,3.39,5.05,3.83,10.72.08.99.02,2.06,0,3.06-.03,1.5-.38,1.09-.38,1.15h-5.74c-.03-3.7-1.13-13.64-5.36-14.16-.83-.1-.44-.06-1.15,0-11.13,1.01-4.98,2.84-4.98,13.4v2.68c-.19-.57-.49-1.86-.57-1.91-1.09-.75-6.67-.25-5.55,2.68-.11-1.73-.45-3.28-.77-4.98,1.88-1.73-3.33-10.76-3.06-11.29,3.76.1,11.04,0,10.33-3.64,2.26.02,6.3-.23,7.66,0Z"/>
            <path class="cls-27" d="m87.65,156.21c.7,3.65-6.57,3.74-10.33,3.64-.27.53,4.94,9.56,3.06,11.29-2.26-11.99-4.07-13.73-9.95-7.27-.09-.03-.95-1.24-1.15-1.53,2.92-1.04-1.74-6.32,18.37-6.12Z"/>
            <path class="cls-43" d="m87.27,175.35c.96,2.85.09,6.76.38,9.76l6.12-.19c-.07.08.16.62-.19.77-4.04-1.04-10.47,2.77-11.48,1.91-.79-.67.95-4.69-1.72-4.21.35-.63.48-.71,1.15-.96-.34-2.1-.25-4.22-.38-6.32-1.12-2.93,4.46-3.43,5.55-2.68.08.06.38,1.35.57,1.91Z"/>
            <path class="cls-43" d="m104.5,173.43c-.37,5.15-.23,5.91-2.68,10.72-6.6-.53-3.02-5.21-3.06-10.72h5.74Z"/>
            <g>
              <path class="cls-52" d="m93.4,159.27c3.58,5.27,2.93,22.84.38,25.65l-6.12.19c-.3-3,.57-6.92-.38-9.76v-2.68c.34-.02.38.34.77.38v10.53c6.91,4.79,7.36-5.99,7.27-10.91-.08-4.67-1.17-9.12-3.06-13.4.71-.06.32-.1,1.15,0Z"/>
              <path class="cls-21" d="m92.25,159.27c1.9,4.28,2.98,8.73,3.06,13.4-1.84.52-5.4.58-7.27.38-.38-.04-.43-.4-.77-.38,0-10.56-6.16-12.38,4.98-13.4Z"/>
              <path class="cls-42" d="m88.04,173.05c1.87.2,5.43.14,7.27-.38.08,4.92-.36,15.69-7.27,10.91v-10.53Z"/>
            </g>
          </g>
          <g>
            <path class="cls-39" d="m125.55,161.19c-2-7.82-4.3-11.42-13.21-12.25-7.87-.73-9.8,1.42-12.82,8.23.59.63.97.49,1.53,1.34-2.03-.13-3.83-1.98-5.74-2.3l.38-.38c.32.07.91.67,1.72.38,2.85-1.01.43-13,21.82-7.66,1.49-.41-1.14-3.4-.96-4.4.11-.6,2.17-1.63,2.68-2.11,2.65,4.72,8.23,12.8,8.8,18.18,1.02,9.64-2.79-.12-3.25-.19-.96-.15-.24,1.09-.96,1.15Z"/>
            <path class="cls-31" d="m137.03,139.37h2.3c.12.91,4.35,11.42,5.36,14.93.76,2.65,1.77,5.34,2.3,8.04.22,1.11.61,2.37.77,3.44.13.94.3,2.13.38,3.06.28,3.07-.11,6.29.38,9.38-.22,3.75-3.03,11.04-1.91,11.29-.85,2.18-2.08,3.75-3.06,5.74-2.54-1.1-11.9,1.57-13.21,1.15-1.04-1-1.25-2.19-1.34-2.3,2.31-4.27,3.77-8.99,4.59-13.78.69-4.01.58-6.73.38-10.72-.56-11.38-4.28-19.92-11.48-28.71.17-.1.8-1.91,2.68-1.53,1.8.24,2.54-.38,2.68-.38,2.86-.16,6.23.91,9.19.38Z"/>
            <path class="cls-7" d="m142.77,197.55c-1,1.85-2.29,4.58-3.44,6.12l-11.29.38c-.85-3.86-3.15-12.12,1.53-4.59l13.21-1.91Z"/>
            <path class="cls-8" d="m133.59,180.32c-.83,4.79-2.29,9.51-4.59,13.78-1.33-1.59-2.43-3.18-3.44-4.98,1.6-2.74-.04-3.99,0-4.21.17-1.01.64-1.98.77-3.06,2.53.12,2.47.3,3.44-1.91,1.29.18,3.12-.99,3.83.38Z"/>
            <path class="cls-16" d="m133.97,169.61c-.93,1.23-2.64.91-3.44,2.3-.55.95.14.78,0,1.53-.91,4.87.71,2.52-3.44,2.68.03-1.27.03-2.56,0-3.83,5.08.22,1.8-7.56,0-2.3-.19-2.85-.82-6.03-1.53-8.8.72-.06,0-1.3.96-1.15.46.07,4.27,9.83,3.25.19-.57-5.39-6.15-13.47-8.8-18.18.68-.64.69-.66,1.53-1.15,7.2,8.79,10.92,17.33,11.48,28.71Z"/>
            <path class="cls-23" d="m133.59,180.32c-.71-1.37-2.54-.2-3.83-.38-.17-.02.16-1.11-3.06-.77.03-.43.34-1.11.38-3.06,4.15-.15,2.53,2.19,3.44-2.68,4.33-.33,4.28-3.17,0-1.53.8-1.38,2.51-1.07,3.44-2.3.2,3.99.31,6.71-.38,10.72Z"/>
            <path class="cls-35" d="m129.76,179.94c-.98,2.22-.92,2.03-3.44,1.91.08-.7.29-1.32.38-2.68,3.22-.35,2.89.74,3.06.77Z"/>
            <path class="cls-4" d="m127.08,172.29c-.02-.76.05-1.54,0-2.3,1.8-5.26,5.08,2.52,0,2.3Z"/>
            <path class="cls-20" d="m130.52,173.43c.14-.75-.55-.58,0-1.53,4.28-1.64,4.33,1.2,0,1.53Z"/>
          </g>
          <path class="cls-17" d="m122.49,171.52h-3.44c-.06-.85-.27-1.52-.38-2.3-.96-6.74-3.01-15.4-11.1-16.84,7.02-9.62,14.44,14.18,14.93,19.14Z"/>
          <g>
            <path class="cls-27" d="m228.13,141.66l11.48,4.98c-.04.35.43.42.38.77-.18.68-.07,3.75-.38,4.4-.9,1.85-4.36,1.17-4.98,4.4-.55.02-.32-.42-.38-.77-.32-1.81,1.23-1.19,1.91-3.25.72-2.19.58-8.06-2.11-7.46-.98.22-.56,9.38-.57,10.72-.03,3.41.21,6.75.38,10.14-1.22,1.15-2.33,2.39-3.44,3.64-1.08.2-.71-.75-.77-.77l.77.19-.38-22.01c.48-1.67-13.96-2.72-14.74-2.68-1.94.11-4.81,1.39-6.89,1.53-.58.56,5.38,9.24,4.02,11.1h-.77c-.12-7.56-5.09-9.78-8.42-14.93-.04-.17-.35-.74-.38-.77-.77-3.64,4.29,1.19,6.7,1.15.42,0,6.7-2.32,8.04-2.68,3.71-.27,5.9,2.64,10.53,2.3Z"/>
            <path class="cls-22" d="m234.25,155.44c.06.35-.17.79.38.77-1.76,9.27,5.22,1.44,11.1,10.33-11.65,18.13-11.23,7.17-17.61,5.74-.04-.73,1.22-1.86,2.3-3.06,1.11-1.25,2.23-2.49,3.44-3.64-.18-3.4-.41-6.73-.38-10.14h.77Z"/>
            <path class="cls-51" d="m226.6,168.08c.15,0,2.91.34,3.06.38.05.01-.31.97.77.77-1.07,1.2-2.33,2.33-2.3,3.06h-.77c-5.42.62-8.33-1.6-9.57-1.91,0-.32,1.07-1.13,1.15-1.15,1.75-.39,2.33.38,4.59-.77,1.1.24,2.01-.4,3.06-.38Z"/>
            <path class="cls-27" d="m230.04,146.64c-1.23-.79-2.47-.67-3.83-.77-1.44-.1-1.45.38-1.53.38-.59-.01-4.05-1.71-4.59-.19,1.47,3.64,1.21,7.42,1.15,11.29,0,.13,0,.26,0,.38l-8.8-1.15c1.36-1.86-4.6-10.54-4.02-11.1,2.08-.14,4.95-1.42,6.89-1.53.78-.04,15.22,1.01,14.74,2.68Z"/>
            <path class="cls-36" d="m230.04,146.64l.38,22.01-.77-.19c-.15-.04-2.91-.38-3.06-.38q-.19-11.1-.38-22.2c1.36.09,2.6-.02,3.83.77Z"/>
            <path class="cls-43" d="m234.25,155.44h-.77c.01-1.33-.41-10.5.57-10.72,2.69-.6,2.83,5.27,2.11,7.46-.68,2.06-2.24,1.45-1.91,3.25Z"/>
            <path class="cls-51" d="m212.44,156.59l8.8,1.15c-.07,2.08.08,3.63-.38,5.74.55-8.15-.23-5.04-9.57-3.06.17-.85.4-2.94.38-3.83h.77Z"/>
            <path class="cls-36" d="m220.86,163.48c-.11.5-.53,1.47-.77,1.91-1.32.6-1.11,1.45-1.15,1.53-.76.91-2.02,1.64-2.68,2.68l-9.19.77c.99-2.31,3.82-8.06,4.21-9.95,9.34-1.97,10.12-5.09,9.57,3.06Z"/>
            <g>
              <path class="cls-9" d="m218.94,169.22c-.08.02-1.15.83-1.15,1.15-.58-.15-.78-.96-1.53-.77.66-1.04,1.92-1.77,2.68-2.68-1.05,2.09-1.74,2.47,0,2.3Z"/>
              <path class="cls-26" d="m225.07,156.98c.12,3.49.71,7.01.38,10.53-.65.3-1.28.63-1.91.96-2.26,1.15-2.84.37-4.59.77-1.74.17-1.05-.21,0-2.3.62-.73.57-.47,1.15-1.53.24-.44.66-1.41.77-1.91.46-2.11.32-3.66.38-5.74,0-.13,0-.26,0-.38l3.83-.38Z"/>
              <path class="cls-41" d="m226.22,145.88q.19,11.1.38,22.2c-1.05-.01-1.96.62-3.06.38.64-.32,1.26-.66,1.91-.96.32-3.52-.27-7.04-.38-10.53-.12-3.58.17-7.15-.38-10.72.08,0,.1-.48,1.53-.38Z"/>
              <path class="cls-21" d="m224.68,146.26c.55,3.57.26,7.14.38,10.72l-3.83.38c.06-3.87.32-7.65-1.15-11.29.55-1.52,4,.18,4.59.19Z"/>
              <path class="cls-9" d="m218.94,166.93c.04-.09-.17-.93,1.15-1.53-.58,1.06-.53.8-1.15,1.53Z"/>
            </g>
          </g>
        </g>
      </g>
    </g>
  </g>
</svg>