<?xml version="1.0" encoding="UTF-8"?>
<svg id="Camada_2" data-name="Camada 2" xmlns="http://www.w3.org/2000/svg" xmlns:xlink="http://www.w3.org/1999/xlink" viewBox="0 0 217.48 215.4">
  <defs>
    <style>
      .cls-1 {
        fill: #484342;
      }

      .cls-1, .cls-2, .cls-3, .cls-4, .cls-5, .cls-6, .cls-7, .cls-8, .cls-9, .cls-10, .cls-11, .cls-12, .cls-13, .cls-14, .cls-15, .cls-16, .cls-17, .cls-18, .cls-19, .cls-20, .cls-21, .cls-22, .cls-23, .cls-24, .cls-25, .cls-26, .cls-27, .cls-28, .cls-29, .cls-30, .cls-31, .cls-32, .cls-33, .cls-34, .cls-35, .cls-36, .cls-37, .cls-38, .cls-39, .cls-40, .cls-41, .cls-42, .cls-43, .cls-44, .cls-45, .cls-46, .cls-47, .cls-48, .cls-49, .cls-50, .cls-51, .cls-52, .cls-53, .cls-54, .cls-55, .cls-56, .cls-57, .cls-58, .cls-59, .cls-60, .cls-61, .cls-62, .cls-63, .cls-64, .cls-65, .cls-66, .cls-67, .cls-68, .cls-69, .cls-70, .cls-71, .cls-72, .cls-73, .cls-74 {
        stroke-width: 0px;
      }

      .cls-2 {
        fill: #262f2c;
      }

      .cls-3 {
        fill: #ed4f26;
      }

      .cls-4 {
        fill: #3c3438;
      }

      .cls-5 {
        fill: #243a31;
      }

      .cls-6 {
        fill: #e26f2b;
      }

      .cls-7 {
        fill: #864628;
      }

      .cls-8 {
        fill: #982731;
      }

      .cls-9 {
        fill: #84a497;
      }

      .cls-10 {
        fill: #745054;
      }

      .cls-11 {
        fill: #fbfbfa;
      }

      .cls-12 {
        fill: #e7f3f3;
      }

      .cls-13 {
        fill: url(#Gradiente_sem_nome_523);
      }

      .cls-14 {
        fill: #3d3724;
      }

      .cls-15 {
        fill: #4b1604;
      }

      .cls-16 {
        fill: #3f4744;
      }

      .cls-17 {
        fill: #0a0a0c;
      }

      .cls-18 {
        fill: #f6714c;
      }

      .cls-19 {
        fill: #87666b;
      }

      .cls-20 {
        fill: #f1a95b;
      }

      .cls-21 {
        fill: #92625d;
      }

      .cls-22 {
        fill: #8b9d9a;
      }

      .cls-23 {
        fill: #c6dad3;
      }

      .cls-24 {
        fill: #f79659;
      }

      .cls-25 {
        fill: #53847c;
      }

      .cls-26 {
        fill: #c18675;
      }

      .cls-27 {
        fill: #363635;
      }

      .cls-28 {
        fill: #73746c;
      }

      .cls-29 {
        fill: #302725;
      }

      .cls-30 {
        fill: #e9d6c2;
      }

      .cls-31 {
        fill: #121e20;
      }

      .cls-32 {
        fill: #1d1e1d;
      }

      .cls-33 {
        fill: url(#Gradiente_sem_nome_522);
      }

      .cls-34 {
        fill: #3c5f57;
      }

      .cls-35 {
        fill: url(#Gradiente_sem_nome_524);
      }

      .cls-36 {
        fill: #283b3e;
      }

      .cls-37 {
        fill: #b2afa5;
      }

      .cls-38 {
        fill: #354941;
      }

      .cls-39 {
        fill: #556965;
      }

      .cls-40 {
        fill: #425a59;
      }

      .cls-41 {
        fill: #e6e2db;
      }

      .cls-42 {
        fill: #6b9689;
      }

      .cls-43 {
        fill: #af371a;
      }

      .cls-44 {
        fill: #7f8d8b;
      }

      .cls-45 {
        fill: #234549;
      }

      .cls-46 {
        fill: #6b615d;
      }

      .cls-47 {
        fill: #e97681;
      }

      .cls-48 {
        fill: #536f62;
      }

      .cls-49 {
        fill: #b27854;
      }

      .cls-50 {
        fill: #aa683a;
      }

      .cls-51 {
        fill: #1e2c20;
      }

      .cls-52 {
        fill: #b03742;
      }

      .cls-53 {
        fill: #c5c2be;
      }

      .cls-54 {
        fill: #a2c1b9;
      }

      .cls-55 {
        fill: #9ba295;
      }

      .cls-56 {
        fill: #a47479;
      }

      .cls-57 {
        fill: #e7dabe;
      }

      .cls-58 {
        fill: #753409;
      }

      .cls-59 {
        fill: #7b3924;
      }

      .cls-60 {
        fill: #5f3c4e;
      }

      .cls-61 {
        fill: #98546b;
      }

      .cls-62 {
        fill: #5a5250;
      }

      .cls-63 {
        fill: #2c2518;
      }

      .cls-64 {
        fill: #c6ccc3;
      }

      .cls-65 {
        fill: #c36f49;
      }

      .cls-66 {
        fill: #7a5c59;
      }

      .cls-67 {
        fill: #e3e8df;
      }

      .cls-68 {
        fill: #6b877f;
      }

      .cls-69 {
        fill: #fabd9e;
      }

      .cls-70 {
        fill: #65311c;
      }

      .cls-71 {
        fill: #7d6d66;
      }

      .cls-72 {
        fill: #697878;
      }

      .cls-73 {
        fill: #121c15;
      }

      .cls-74 {
        fill: #9e5733;
      }
    </style>
    <linearGradient id="Gradiente_sem_nome_522" data-name="Gradiente sem nome 522" x1="-5474.03" y1="-4471.01" x2="-5609.09" y2="-4282.76" gradientTransform="translate(2822.66 2281.84) scale(.5)" gradientUnits="userSpaceOnUse">
      <stop offset="0" stop-color="#848573"/>
      <stop offset="1" stop-color="#464d45"/>
    </linearGradient>
    <linearGradient id="Gradiente_sem_nome_523" data-name="Gradiente sem nome 523" x1="-5295.98" y1="-4508" x2="-5493.73" y2="-4506.51" gradientTransform="translate(2822.66 2281.84) scale(.5)" gradientUnits="userSpaceOnUse">
      <stop offset="0" stop-color="#f28649"/>
      <stop offset="1" stop-color="#f9a86a"/>
    </linearGradient>
    <linearGradient id="Gradiente_sem_nome_524" data-name="Gradiente sem nome 524" x1="-5433.77" y1="-4351.54" x2="-5420.48" y2="-4333.72" gradientTransform="translate(2822.66 2281.84) scale(.5)" gradientUnits="userSpaceOnUse">
      <stop offset="0" stop-color="#454d4e"/>
      <stop offset="1" stop-color="#b8bbad"/>
    </linearGradient>
  </defs>
  <g id="Camada_1-2" data-name="Camada 1">
    <g>
      <path class="cls-37" d="m23.48,41.82c-2.85,3.73-11.22,16.53-13.16,20.48-.22-.37-.34-.83-.59-1.17.29-1.17.75-2.38,1.17-3.51.36-.97.79-2.36,1.17-3.22.54-1.22,3.1-6.14,3.8-7.31.31-.52.82-.95,1.17-1.46.53-.8,2.05-2.59,1.46-2.63.09-.03,1.11-.57,1.17-.59,1.23-.33,2.51-.63,3.8-.59Z"/>
      <path class="cls-31" d="m196.08,43.28c5,5.94,7.37,9.99,10.53,17.11,10.74,24.2,15.05,53.25,5.85,78.54,6.95-27.81,5.78-46.68-4.83-73.43-1.53,2.19,1.8,7.61,1.9,8.04.13.54-.48.99-.29,1.76.89,3.6,2.22,7.11,2.63,10.82.08.29.79,0,.88.29,1.16,4.06.34,8.14,2.05,12.29.36,11.74.04,19.76-2.34,31.3-.46,2.21-4.8,19.55-5.27,21.06-1.42,4.57-5.12,8.11-2.05,8.63-2.47,4.56-5.7,8.53-8.48,12.87-.79-.18-1.59.34-2.05.88.32-1.16.07-2.04-1.32-1.46-.99.41-10.96,11.41-15.21,15.21-8.43,7.55-17.74,14.72-28.38,18.72-19.18,7.21-41.35,9.01-61.43,5.56-.29,3.22-10.99-1.5-14.63-1.76-5.68-1.81-9.97-4.47-10.53-4.39-.21.03-.15.41-.15.59-2.08-.81-4.05-1.83-6-2.93-2.41,1.23-3.88.28-4.24-2.34.02.01.03-.49.44-.29.46.22,2.86,2.38,3.51,2.05,1.04-.53-.22-2.1-.15-2.19.41-.55,2.36.21,2.05-.73,28.55,13.65,70.56,15.74,99.02,1.17,19.19-9.82,39.91-32.47,47.83-52.51,3.55-8.97,7.14-24.08,7.61-33.64.94-19.45-6.19-48.58-17.84-64.5l1.76-2.19c.41-1.58-3.73-5.15-.88-4.53Z"/>
      <path class="cls-71" d="m55.08,20.46c-17.54,11.01-32.59,28.93-40.66,47.98-1.78.35-4.23-1.51-5.27-3.22.41-.93.72-2.02,1.17-2.93,1.95-3.95,10.32-16.75,13.16-20.48,6.09-7.98,17.37-19.87,26.62-23.7.45,1.14,3.59,1.68,4.97,2.34Z"/>
      <path class="cls-32" d="m194.61,173.46c-11.97,14.13-14.9,17.05-30.57,27.5-.58.39-.26,1.17-1.17,1.76-9.86,6.39-31.49,11.43-43.29,12.29-21.47,1.56-36.83-1.36-56.6-9.07,0-.18-.07-.56.15-.59.56-.08,4.85,2.58,10.53,4.39,3.64.25,14.34,4.97,14.63,1.76,20.08,3.45,42.25,1.65,61.43-5.56,10.64-4,19.94-11.17,28.38-18.72,4.25-3.81,14.22-14.8,15.21-15.21,1.39-.57,1.64.3,1.32,1.46Z"/>
      <path class="cls-32" d="m22.31,166.14c2.95,3.85,6.32,7.01,10.53,9.36.77.43.82.85.88.88-.78,1.23.11,1.02.29,1.46.08.2-.31.41-.29.44,1.1,1.87,14.68,14.84,18.43,16.38-2.5.69,2.44,2.91,6.44,4.83.31.94-1.64.18-2.05.73-.07.1,1.18,1.67.15,2.19-.65.33-3.05-1.83-3.51-2.05-.41-.2-.42.3-.44.29-2.88-1.44-6.46-3.91-9.07-5.85.65-1.59-4.87-5.24-7.9-8.34-3.69-3.77-6.89-8.17-10.68-11.85-.13-.13-1.19-.21-1.9-.88-1.85-1.75-4.46-5.53-4.83-5.56-1.83-.15-.12,3.6-4.24-3.51,2.06,1.99,4,2.98,6,4.68l2.19-3.22Z"/>
      <path class="cls-1" d="m5.93,106.17c-.39,11.33.57,20.94,3.51,31.89-3.86.68-2.5,4.44-5.56,2.05C.88,128.86-.34,117.86.08,106.17c1.3-.14.08,1.84.44,2.05.87.51,1.63-1.26,2.93-1.17,1.11.08,1.47,1.41,1.76,1.17.49-.41-.4-2.27.73-2.05Z"/>
      <path class="cls-27" d="m22.31,166.14l-2.19,3.22c-2-1.71-3.94-2.69-6-4.68-4.52-7.8-7.92-15.87-10.24-24.57,3.06,2.4,1.7-1.37,5.56-2.05,2.38,8.89,7.27,20.77,12.87,28.08Z"/>
      <path class="cls-62" d="m8.86,85.11c-1.71,7.12-2.67,13.74-2.93,21.06-1.13-.22-.24,1.64-.73,2.05-.29.24-.64-1.09-1.76-1.17-1.3-.09-2.06,1.68-2.93,1.17-.36-.21.87-2.19-.44-2.05.3-8.22,1.55-16.31,3.51-24.28,1.53,2.65,3.47.18,5.27,3.22Z"/>
      <path class="cls-46" d="m14.41,68.44c-2.27,5.35-4.2,11.03-5.56,16.67-1.8-3.04-3.73-.57-5.27-3.22,1.36-5.52,3.27-11.48,5.56-16.67,1.04,1.71,3.49,3.57,5.27,3.22Z"/>
      <path class="cls-32" d="m43.67,194.81c-7.82-5.82-14.62-13.29-20.48-21.06.71.67,1.77.75,1.9.88,3.78,3.68,6.99,8.08,10.68,11.85,3.03,3.1,8.55,6.74,7.9,8.34Z"/>
      <path class="cls-31" d="m197.54,173.16c-.07-.04-.68.15-.88-.59,2.79-4.34,6.02-8.32,8.48-12.87.63-1.16,1.17-2.33,1.76-3.51-.04.12.62.64,0,2.49-.23.68-4.86,7.64-5.85,9.36-1.02,1.76-1.02,4.42-3.51,5.12Z"/>
      <path class="cls-32" d="m196.08,43.28c-2.85-.61,1.29,2.95.88,4.53l-1.76,2.19c-3.42-4.67-16.97-18.29-21.5-21.94-6.91-5.56-19.12-12.09-27.35-15.5,1.23-1.69.95-4.09.29-5.85,4.89,1.84,9.61,3.9,14.19,6.44,1.86,1.03,15.51,9.76,16.09,10.53.85,1.13-1.71,7.92,6.73,6.73,4.26,4.17,8.58,8.3,12.43,12.87Z"/>
      <path class="cls-32" d="m212.46,138.94c-.55,2.18-1.44,4.17-2.05,6.29-.1.37.44.52.29,1.02,0,.03-.51-.11-.59.15-.05.16.76.04.59.59-.23.72-2.54,4.71-2.63,4.97-.33.99-.77,2.99-1.17,4.24-.58,1.18-1.13,2.35-1.76,3.51-3.07-.52.63-4.06,2.05-8.63.47-1.51,4.81-18.85,5.27-21.06,2.38-11.54,2.7-19.56,2.34-31.3-1.71-4.14-.89-8.22-2.05-12.29-.08-.29-.8,0-.88-.29-.41-3.71-1.74-7.23-2.63-10.82-.19-.76.42-1.22.29-1.76-.1-.43-3.43-5.85-1.9-8.04,10.6,26.75,11.78,45.62,4.83,73.43Z"/>
      <path class="cls-27" d="m146.64,6.71c.66,1.76.93,4.16-.29,5.85-1.64-.68-9.68-2.89-10.09-3.22-.74-.59-1.32-5.83-4.39-1.46-4.16-.71-8.22-1.39-12.43-1.76-.51-.78.55-4.9.29-5.12-.49-.41-1.32.89-1.17-.73,9.91.71,18.84,2.96,28.08,6.44Z"/>
      <path class="cls-46" d="m71.46,6.42c6.13-.05,2.35,2.44,6.14,3.8-8.45,2.49-15.09,5.57-22.52,10.24-1.38-.66-4.52-1.2-4.97-2.34-.72-1.82,4.75-4.7,6.29-5.56,4.21-2.36,10.42-4.62,15.07-6.14Z"/>
      <path class="cls-62" d="m98.66.57c2.05,1.11-.25,2.1.29,2.78.29.36,2.29-.1,2.78.44.74.82-1.15,1.58,1.02,2.05-8.45.5-17.05,2-25.16,4.39-3.79-1.36-.02-3.86-6.14-3.8,8.72-2.85,18.06-5,27.21-5.85Z"/>
      <path class="cls-1" d="m118.56.28c-.15,1.62.68.32,1.17.73.26.22-.8,4.34-.29,5.12-5.85-.5-10.79-.64-16.67-.29-2.18-.47-.28-1.23-1.02-2.05-.49-.54-2.49-.07-2.78-.44-.54-.68,1.76-1.67-.29-2.78,6.58-.61,13.3-.76,19.89-.29Z"/>
      <path class="cls-17" d="m119.43,6.13c4.21.36,8.28,1.05,12.43,1.76,3.07-4.37,3.65.88,4.39,1.46.41.33,8.45,2.54,10.09,3.22,8.23,3.42,20.44,9.95,27.35,15.5,4.53,3.65,18.08,17.27,21.5,21.94,11.66,15.92,18.79,45.06,17.84,64.5-.46,9.56-4.06,24.67-7.61,33.64-7.92,20.04-28.64,42.69-47.83,52.51-28.47,14.57-70.47,12.48-99.02-1.17-4-1.91-8.94-4.13-6.44-4.83-3.75-1.54-17.33-14.51-18.43-16.38-.02-.03.37-.24.29-.44,1.88,1.31,4.87.73,6.58,1.46,1.69.72,14.67,13.55,30.86,19.6,13.53,5.06,32,7.13,46.37,6.44,53.25-2.57,92.75-49.58,90.83-101.95l-3.8-1.9c.07,0-.24-1.16.73,0,1.88-.31,1.36-3.02-.44-3.22v-.29c.44.08,2.52-.26,2.63-.44.37-.62-1.14-9.92-1.46-11.41-1.42-6.51-6.17-18.6-9.36-24.57-1.81-3.39-7.3-11.97-9.95-14.48-.22-.38-.35-.81-.59-1.17-1.56-2.46-1.8-2.49-3.8-4.39-6.32-5.99-21.93-17.17-29.69-21.06-26.12-13.1-60.92-12.66-87.03.29-15.22,7.55-30.77,21.88-39.78,36.27-11.46,18.31-18.48,41.25-15.5,62.89.01.1-.01.2,0,.29,1.39,9.64.61,8.15,10.82,10.82.17.82,0,.56,0,.59-1.13-.28-2.4-.32-3.51-.59-.62-.15-1.16-.41-1.76-.59-2.07-.61-3.98-1.8-4.1-1.61.53,2.8,1.23,5.6,2.05,8.34,5.62,18.84,13.4,26.24,17.84,35.4.3.63.72,2.16.88,2.93-4.22-2.35-7.58-5.52-10.53-9.36-5.6-7.31-10.49-19.19-12.87-28.08-2.94-10.95-3.9-20.56-3.51-31.89.25-7.33,1.22-13.94,2.93-21.06,1.35-5.65,3.29-11.32,5.56-16.67,8.07-19.05,23.12-36.97,40.66-47.98,7.44-4.67,14.07-7.75,22.52-10.24,8.11-2.39,16.71-3.88,25.16-4.39,5.88-.35,10.82-.21,16.67.29Z"/>
      <path class="cls-7" d="m73.21,189.55c-4.52,1.79-4.76,3.82-2.34,7.61.4.63.54,1,.59,1.76-16.2-6.05-29.18-18.87-30.86-19.6-1.71-.73-4.7-.15-6.58-1.46-.18-.44-1.07-.23-.29-1.46,1.47.76,3.22,2.1,6,.59,3.33-1.82,1.05-4.69,1.02-4.97-.05-.72.73-1.88,1.61-1.76,1.81.25,12.39,11.6,30.86,19.31Z"/>
      <path class="cls-70" d="m204.85,101.49l3.8,1.9c1.92,52.37-37.58,99.38-90.83,101.95-14.36.69-32.83-1.38-46.37-6.44-.05-.76-.18-1.13-.59-1.76,4.73,2.46,9.64-1.26,6.14-6.14,5.24,1.96,10.34,3.5,15.8,4.68,12.54,2.72,26.07,3.74,38.18-1.46.32.26.06,1.07.15,1.46,1.67,7.31,10.8,3.88,6.14-3.8,18.9-6.25,31.03-13.91,43.29-29.55-.52,1.14.32,2.78,1.17,3.51,2.76,2.38,7.44-.57,4.68-5.56-.1-.18-.19-.41-.29-.59-.16-.28-.36-.52-.29-.88.54-.38,5.86-10.22,6.44-11.56,7.96-18.36,5.68-39.56,6.73-43,1.25-4.1,5.49-2.75,5.85-2.78Z"/>
      <path class="cls-31" d="m183.79,58.78c7.73,12.28,13.23,25.99,14.63,40.52l.73.44c1.61-.43,4.51-1.63,6-1.46,1.8.2,2.32,2.9.44,3.22-.97-1.16-.66,0-.73,0-.36.03-4.6-1.32-5.85,2.78-1.05,3.44,1.23,24.65-6.73,43-.58,1.33-5.89,11.18-6.44,11.56-1.34.92-2.23-.48-4.68,2.34-.04.05.03.38-.59,1.17-12.26,15.63-24.4,23.29-43.29,29.55-.31.15-.4.56-.59.88-.41-1.1-5.9.91-5.27,2.93h-.29c-.09-.39.18-1.21-.15-1.46-12.1,5.21-25.64,4.18-38.18,1.46-1.06-1.64,8.02.11,8.63-.59.91-1.05-3.37-3.79.44-2.63.47.56.7,1.3,1.32,1.76,5.2-3.2,3.74-4.8,7.9-.29,5.33-5.87,2.71-2.45,4.24-1.76,1.1.5,5.41-1.48,5.7-1.46.19,0,.97.77,1.32.88.18.06-.47.42-.15.59,5.13-.52,7.46-3.2,10.09-7.31.33-.51.84-1.11.88-1.17.82,1.3,10.78-2.56,13.6-3.8,14.78-6.51,26.63-17.58,34.96-31.3.9.6,1.92,1.07,2.78,1.76,1.05-1.2,6.56-14.9,4.39-15.21-.14-.02-.93,1.17-1.32,1.17,2.01-3.11,4.7-9.86,2.34-9.07.65-3.16.27-4.93-.59-7.9.59-.27,1.59-5.14,1.76-6.58,1.54-13.11-2.05-25.26-6.73-37.3-1.32-3.41-2.46-6.97-4.68-9.95,1.89-2.16,1.88-2.57-.59-6.73,1.38-1.29,3.35.1,3.22-1.17h.29c.27.43.97.85,1.17,1.17Z"/>
      <path class="cls-33" d="m74.09,24.85c-.81,2.06-1.24,4.33-2.34,6.29-.3,1.86.81,1.22.88,1.32,1,1.4,1.36,2.44,1.76,4.1-11.52,7.2-18,11.07-27.21,21.65-6.46,7.42-9.03,12.99-14.04,21.06-.05.09-.97-.17-1.17.15-.46,1.01-.87,2.13-1.46,3.07-1.07.17-.95,1.36-1.17,2.05-.57,1.06-2.53,4.76-2.63,5.12-.47,1.64.02,2.09,0,2.19-.38,2.63-1.32,4.41.29,8.78-.99,12.59-.03,25.49,5.12,37.15,2.36-.43,4.67-1,7.02-1.46.25-.05.12-.58.15-.59.09-.02.73.53,1.9.29,2.31-.47,8.14-1.77,10.09-2.34.18.4.4.78.59,1.17.03.06-.09.38.59,1.17-1.13-.07-1.8.98-2.63,1.46-2,1.15-13.93,6.32-14.33,7.46-.2,3.36,1.57,6.28,2.93,9.21.38.82.73,1.55,1.17,2.34-3.18-.74-3.51,1.9-1.46,4.1-.53.44-1.15.26-1.17,1.02l3.8,4.83c-.04.05.24.11-.59,1.17-3.1-3.85-6.27-8.55-9.07-12.87-2.34-3.61-4.29-8.31-4.97-8.78-1.14-4.85-3.57-9.47-4.68-14.33,0-.03.17.24,0-.59-.4-1.96-1.34-6.71-1.46-8.19-.02-.29.02-4.36,0-5.85-.34-20.45,5.17-40.43,15.21-58.21.05-.04.6-.63.88-.88,2.32-2.06,7.95-9.6,13.6-14.63,6.83-6.07,11.68-8.11,17.99-12.58,1.46-1.03,4.27-1.9,4.1-4.1,0-.09.02-.21,0-.29,1.24-.57,2.08-3.15,2.34-1.46Z"/>
      <path class="cls-13" d="m182.62,41.52l-.29,1.17c-2.46-.7-5.05.47-7.02,2.05-.3.24-.65.19-.88.59-.73-.44-1.63-.71-2.34-1.17-15.24-9.91-19.8-15.62-38.91-19.89,7.42-5.46-6.38-12.31-6.44-3.51,0,.22-.45.44-.29,1.17-1.95-.22-6.46-.06-9.21-.88-4.91.06-9.88-.16-14.77.29-2.81.26-12.87,2.12-15.5,2.93-4.6,1.4-7.01,3.27-10.82,5.85-1.15.77-2.57,1.23-3.51,2.34-.07-.1-1.18.54-.88-1.32,1.1-1.96,1.53-4.23,2.34-6.29.01-.03.03.12.29-.59.06-.15,2.11-2.17-.59-.59-2.83-.8-4.1-1.85-6.29-2.63-.37-.13-.49.35-.73.29-.05-.01-.14-.7-.88-.59,26.11-12.95,60.91-13.39,87.03-.29,7.76,3.89,23.37,15.08,29.69,21.06Z"/>
      <path class="cls-24" d="m30.8,60.54c2.03.11,2.83-.63,4.39-1.76-10.04,17.78-15.55,37.77-15.21,58.21-.37.09-1.51-.68-1.76-.88-.24-.19-.55-.69-.88-.88-.12-.07-.31-.84-.44-.88-1.7-.48-5.22,1.46-6.29,5.56-2.97-21.64,4.04-44.59,15.5-62.89,2.33-.95.75,3.3,4.68,3.51Z"/>
      <path class="cls-20" d="m65.9,20.75c.74-.12.83.57.88.59-5.73,5.07.17,7.55.88,8.78.04.06-.02.35,0,.59-6.31,4.47-11.16,6.51-17.99,12.58-5.66,5.03-11.28,12.56-13.6,14.63-.36-.77-1.32-1.52-1.76-2.05-.33-.4-1.33-2.25-1.9-2.34-.26-.04-4.19,1.95-4.53,2.63-.67,1.3,1.71,3.94,2.93,4.39-3.94-.21-2.35-4.46-4.68-3.51,9.01-14.4,24.57-28.72,39.78-36.27Z"/>
      <g>
        <path class="cls-58" d="m192.86,59.08c1.25,2.61,2.93,5.05,4.1,7.75,3.96,9.23,7.49,21.16,8.19,31.15v.29c-1.48-.17-4.38,1.03-6,1.46l-.73-.44c-1.4-14.52-6.9-28.23-14.63-40.52l9.07.29Z"/>
        <path class="cls-70" d="m205.15,97.98c-.7-10-4.23-21.92-8.19-31.15-1.16-2.71-2.84-5.15-4.1-7.75-1.66-3.44-4.21-9.13-5.85-11.99,2.64,2.51,8.13,11.09,9.95,14.48,3.19,5.97,7.95,18.06,9.36,24.57.32,1.49,1.83,10.79,1.46,11.41-.11.18-2.19.52-2.63.44Z"/>
        <path class="cls-6" d="m187.01,47.08c1.64,2.86,4.19,8.55,5.85,11.99l-9.07-.29c-.2-.33-.9-.74-1.17-1.17-.98-1.57-2.07-3.48-2.63-5.27,1.19-.33,1.11-.57,1.17-.59.09-.02.2.02.29,0,.05-.01,0,.21.73.59,2.44-.45,3.66-4.22,3.36-6.14l.88-.29c.23.36.37.79.59,1.17Z"/>
      </g>
      <path class="cls-24" d="m12.07,122.85c2.22,3.34,5.35,2.33,7.9,0,.12,1.48,1.06,6.23,1.46,8.19-10.22-2.68-9.43-1.19-10.82-10.82.86-.17.09.57,1.46,2.63Z"/>
      <path class="cls-7" d="m186.42,45.91l-.88.29c-.02-.12-1.19-1.71-1.46-2.05-.57-.7-1.65-1.43-1.76-1.46l.29-1.17c2,1.9,2.24,1.93,3.8,4.39Z"/>
      <path class="cls-31" d="m51.86,171.12c13.08,3.87,16.55,8.35,26.47,11.99,7.2,2.64,14.86,3.89,22.38,5.27-.35,1.46-1.2,1.3,1.17,4.1-3.81-1.16.47,1.59-.44,2.63-.61.7-9.69-1.06-8.63.59-5.46-1.18-10.56-2.72-15.8-4.68-1.29-.48-2.53-.93-3.8-1.46-18.47-7.71-29.05-19.06-30.86-19.31-.88-.12-1.66,1.04-1.61,1.76h-.59c-.1-.36-.43-.52-.59-.88.75.29,2.44-2.15,2.93-2.93,4.31,2.58,7.43,2.35,9.36,2.93Z"/>
      <g>
        <path class="cls-17" d="m186.13,159.71c.1.18.19.41.29.59.27,4.11.12,6.79-4.68,5.56-.85-.73-1.69-2.37-1.17-3.51.62-.79.54-1.12.59-1.17,1.42-1.12,3.16-1.59,4.97-1.46Z"/>
        <path class="cls-68" d="m181.74,165.85c4.8,1.23,4.95-1.44,4.68-5.56,2.76,4.99-1.92,7.94-4.68,5.56Z"/>
        <path class="cls-40" d="m186.13,159.71c-1.82-.12-3.55.35-4.97,1.46,2.45-2.82,3.34-1.42,4.68-2.34-.07.36.13.6.29.88Z"/>
      </g>
      <path class="cls-31" d="m184.08,45.03c.92,3.42,1.11,5.17-2.63,6.73-.09.02-.2-.02-.29,0-5.89-5.03-7.93-5.98-2.93,1.61.44.32-.24-.48,1.17-1.02-1.59,1.96,1.31,4.1,2.93,5.27.13,1.27-1.83-.12-3.22,1.17-1.35-2.28-3.48-4.22-5.27-6.14-.07-.08.07-.53-1.17-1.76.46.03.22-.49.29-.59.16-.22,2.49-3.07,2.63-3.22,2.84-3.02,4.47-4.38,8.48-2.05Z"/>
      <g>
        <path class="cls-31" d="m131.13,195.69h.29c.86,1.58,5.16-1.18,5.56-1.9.23-.42-.36-.91-.29-1.02.19-.31.28-.73.59-.88,4.66,7.68-4.47,11.11-6.14,3.8Z"/>
        <path class="cls-45" d="m136.69,192.76c-.07.12.53.61.29,1.02-.4.72-4.7,3.48-5.56,1.9-.64-2.01,4.86-4.02,5.27-2.93Z"/>
      </g>
      <path class="cls-43" d="m179.99,52.35c.56,1.78,1.65,3.69,2.63,5.27h-.29c-1.62-1.17-4.51-3.3-2.93-5.27.85-.33.56,0,.59,0Z"/>
      <path class="cls-17" d="m84.62,29.82c-1.88,2.97-6.61,8.65-3.8,9.36-.04.15-.31,2.5-.29,2.63-2.24,1.42-4.29,3.13-6.44,4.68-9.62,6.97-17.17,11.86-24.28,21.79-.79,1.1-6.23,9.81-6.44,10.38l-4.83-1.76c-1.64,1.51-1.22,3.14-3.36,2.93,2.49-7.53,11.89-19.77,12.29-20.92.12-.36-.29-.44-.29-.73,9.21-10.58,15.69-14.45,27.21-21.65,5.04-3.15,7.21-5.02,7.61-5.27.86-.52,1.75-.98,2.63-1.46Z"/>
      <path class="cls-17" d="m43.67,109.98c.19-.1.89.11,1.02,0,.68-.52.96-1.67,1.02-1.76.01.93,4.12,1.25,5.12.88.26-.1,1.05-2.08,2.63-3.22,5-3.6,12.89-1.95,13.31,4.97.64,10.43-15.21,11.25-16.53-.88-6.77-1.02-8.56,4.36-14.33,2.05-.29.24-.08.74-.15,1.17-1.1,7.52,1.39,15.38,3.51,22.52-.03,0,.1.54-.15.59-2.35.46-4.67,1.03-7.02,1.46-5.15-11.66-6.11-24.56-5.12-37.15,1.58,4.28,9.69,11.19,14.48,10.53,2.17-.3,2.07-1.11,2.19-1.17Z"/>
      <path class="cls-11" d="m43.37,78.68c-.75,2.14,1.98,2.68,2.19,2.63.38-.08,4.31-6.62.15.88-1.77-.18-4.54-1.44-7.46-.88-3.44.66-6.94,6.7-5.56,7.31,2.55.32,5.29.37,7.75,1.17,3.5,1.14-1.27.03-2.78.29-.28.05-2.73,1.5-3.66,1.76-.32-.08-.99.16-1.17-.15.27-.28.58-.48.88-.73.64-.55,1.75-.92,1.76-1.02.01-.33-2.78-1.17-3.51-1.02-.53.11-1.1.99-1.46,1.46-1.01.06-.92-.9-1.17-1.46-.05-.11.43.11-.88-1.9.53-.71.63-1.7.88-2.49.35-.65.78-1.42,1.17-2.05.59-.94,1-2.06,1.46-3.07.2-.32,1.12-.06,1.17-.15.7.07,1.34.51,2.05.59,2.14.22,1.72-1.41,3.36-2.93l4.83,1.76Z"/>
      <path class="cls-41" d="m30.5,90.38c-.58.77-.86,2.07-1.17,2.93-1.19,3.25-1.76,3.89,0,7.46,1.27,2.57,7.12,7.69,9.95,7.75,1.6.04,2.68,0,4.1-.88l.29,2.34c-.12.06-.02.87-2.19,1.17-4.79.66-12.9-6.25-14.48-10.53-1.61-4.36-.67-6.14-.29-8.78l2.63-2.93c.25.57.16,1.52,1.17,1.46Z"/>
      <path class="cls-32" d="m66.48,140.11c-1.54.58-3.23-1.46-1.46,5.12-.34.46-.58.4-.59.44l-2.34,1.17c-.75-1.06-1.79-2.2-2.63-3.22.41-.31,2.93-2.58,2.93-2.78,0-.19-2.5-2.35-2.93-2.49-1.61-.53-2.68,1.45-4.53,1.17-.51-.76-1.12-.88-1.9-1.17-1.07-.4-2.1-.68-3.22-.88.83-.48,1.5-1.53,2.63-1.46,2.22,2.62,6.67-1.67,3.22-3.22.05-.05-.16-.69.88-1.17,2.96,3.22,6.13,6.27,9.95,8.48Z"/>
      <path class="cls-31" d="m51.57,168.78l.88.88c-.45.23-1-.32-.59,1.46-1.94-.57-5.05-.35-9.36-2.93,2.85-4.56,1.8-6.46-1.76-1.76l-3.8-4.83c.02-.77.64-.58,1.17-1.02.12-.1,1.77-.89,2.63-1.76,2.5,3.8,6.43,7.49,9.8,10.53.42.09.58-.42,1.02-.59Z"/>
      <path class="cls-16" d="m35.18,79.85c-.7-.07-1.34-.52-2.05-.59,5.01-8.07,7.58-13.64,14.04-21.06,0,.29.42.38.29.73-.4,1.15-9.8,13.38-12.29,20.92Z"/>
      <path class="cls-16" d="m76.14,30.12c1.46,1.15,4.74-.14,5.85,1.17-.4.24-2.57,2.12-7.61,5.27-.39-1.66-.75-2.69-1.76-4.1.94-1.11,2.36-1.57,3.51-2.34Z"/>
      <path class="cls-28" d="m34.31,55.86c.44.53,1.4,1.28,1.76,2.05-.27.24-.83.84-.88.88-1.56,1.12-2.36,1.87-4.39,1.76-1.21-.45-3.59-3.08-2.93-4.39,2.34-.11,4.17-1.53,6.44-.29Z"/>
      <path class="cls-52" d="m42.5,168.19c-.48.77-2.18,3.22-2.93,2.93-.1-.23-.82-1.68-.88-1.76.25-.36.57-.87.88-1.17.2-.19.13,0,.59-.59.82-1.06.55-1.12.59-1.17,3.55-4.71,4.6-2.8,1.76,1.76Z"/>
      <path class="cls-11" d="m55.66,132.79c3.45,1.55-1,5.84-3.22,3.22-.67-.8-.56-1.11-.59-1.17.71-.17,3.65-1.9,3.8-2.05Z"/>
      <path class="cls-50" d="m39.57,156.49c.39.7.73,1.37,1.17,2.05.04.07-.04.22,0,.29-.86.86-2.51,1.65-2.63,1.76-2.04-2.2-1.72-4.84,1.46-4.1Z"/>
      <g>
        <path class="cls-24" d="m18.51,142.45c1.08,1.22,5.76,3.09,7.61,3.51.68.47,2.63,5.17,4.97,8.78q4.24,6.73,8.48,13.46c-.3.3-.63.81-.88,1.17-.01-.02-.11-.08-.29-.29-.34-.38-.16-1.1-1.02-.88-2.9,1.96-4.68,1.33-4.83,3.8-.01.19-.02.4,0,.59h-.59c-4.44-9.16-12.22-16.55-17.84-35.4,1.6,1.91,2.43,6.29,3.51,8.92,1.18,2.87,2.82,5.65,4.1,8.48,1.54.62-2.91-7.73-3.51-10.53-.23-1.09-.25-1.2.29-1.61Z"/>
        <path class="cls-74" d="m21.43,131.62c1.11,4.86,3.54,9.48,4.68,14.33-1.85-.42-6.53-2.29-7.61-3.51-.6-.67-2.05-4.31-2.05-5.27,0-1.57,1.76-4.22,1.46-6.14,1.11.26,2.38.3,3.51.59Z"/>
        <path class="cls-6" d="m16.17,130.45c-.33,3.28-1,7.55.29,6.73,0,.96,1.45,4.59,2.05,5.27-.54.41-.53.52-.29,1.61.6,2.8,5.05,11.15,3.51,10.53-1.27-2.84-2.92-5.61-4.1-8.48-1.08-2.63-1.91-7.02-3.51-8.92-.82-2.73-1.52-5.53-2.05-8.34.11-.19,2.02,1,4.1,1.61Z"/>
        <path class="cls-24" d="m17.92,131.04c.3,1.92-1.45,4.57-1.46,6.14-1.29.82-.62-3.44-.29-6.73.59.17,1.13.44,1.76.59Z"/>
        <path class="cls-32" d="m40.16,167.61c-.46.59-.39.39-.59.59q-4.24-6.73-8.48-13.46c2.8,4.32,5.97,9.02,9.07,12.87Z"/>
      </g>
      <path class="cls-66" d="m29.33,88.91l-2.63,2.93c.02-.11-.47-.55,0-2.19.1-.36,2.06-4.06,2.63-5.12-.25.79-.34,1.78-.88,2.49,1.31,2.01.83,1.79.88,1.9Z"/>
      <path class="cls-26" d="m56.54,131.62c-1.04.48-.83,1.12-.88,1.17-.15.15-3.09,1.88-3.8,2.05-.19-.39-.4-.78-.59-1.17,1.05-.31,3.28-1.74,4.53-2.34l.73.29Z"/>
      <path class="cls-66" d="m30.5,82.48c-.39.62-.82,1.39-1.17,2.05.22-.69.1-1.88,1.17-2.05Z"/>
      <path class="cls-16" d="m126.45,21.92c.33.04,1.77.83,2.34.88,1.18,1.26,2.9,1.13,4.39,1.46,19.11,4.27,23.67,9.98,38.91,19.89l-2.05,4.39c-.8-.66-2.33-1.79-3.22-2.34-1.07-.67-1.92-1.48-3.22-1.76-2.2-.47-2.78.52-4.24.29-2.56-.4-22.74-18.36-48.12-16.09h-.29c-2.98-1.37-6.07-2.66-9.36-2.93-.84-.07-1.78-.02-2.63,0-4.56.11-10.33,1.92-14.33,4.1-.89.48-1.77.94-2.63,1.46-1.11-1.31-4.39-.03-5.85-1.17,3.82-2.58,6.22-4.45,10.82-5.85,3.97-.29,11.65-1.45,15.36-2.34.22-.05.15-.39.15-.59,4.9-.46,9.86-.23,14.77-.29,2.75.82,7.26.66,9.21.88Z"/>
      <g>
        <path class="cls-17" d="m128.79,22.8c-.57-.05-2.01-.84-2.34-.88-.15-.73.29-.95.29-1.17,1.19-.17,5.17-3.32,5.7-3.22.59.11,5.03,6.01-3.66,5.27Z"/>
        <path class="cls-41" d="m133.18,24.27c-1.49-.33-3.21-.2-4.39-1.46,8.69.75,4.24-5.16,3.66-5.27-.54-.1-4.51,3.05-5.7,3.22.06-8.8,13.86-1.95,6.44,3.51Z"/>
      </g>
      <path class="cls-40" d="m182.33,42.69c.11.03,1.19.76,1.76,1.46-.38-.06-.12.44,0,.88-4.01-2.33-5.64-.98-8.48,2.05v-.59l-.29-1.76c1.97-1.58,4.56-2.75,7.02-2.05Z"/>
      <path class="cls-8" d="m174.43,45.33c-.03.05-.3,1.33,0,1.17-1.84,1.07-4.9,3.44-1.46,3.8-.07.09.17.61-.29.59-.21-.2-2.3-2.06-2.63-2.34l2.05-4.39c.71.46,1.61.73,2.34,1.17Z"/>
      <path class="cls-14" d="m86.96,24.27c2.64-.8,12.69-2.66,15.5-2.93,0,.2.07.53-.15.59-3.71.89-11.39,2.05-15.36,2.34Z"/>
      <path class="cls-51" d="m175.6,46.5c-.6-.4-.6-.33-1.17,0-.3.16-.03-1.12,0-1.17.23-.4.58-.35.88-.59l.29,1.76Z"/>
      <g>
        <path class="cls-72" d="m73.8,23.68s.56.45.59.59c-.26.7-.28.55-.29.59-.26-1.68-1.1.89-2.34,1.46-.45-1.78-2.77-3.34-4.53-2.34-1.9,1.08-1.16,4.82,2.49,4.39-.04.91-1.22,1.69-2.05,1.76-.71-1.23-6.61-3.7-.88-8.78.24.06.36-.42.73-.29,2.19.78,3.46,1.83,6.29,2.63Z"/>
        <path class="cls-51" d="m71.75,26.31c.02.09,0,.2,0,.29-.59.59-1.08,1.64-2.05,1.76-3.65.43-4.39-3.3-2.49-4.39,1.76-1,4.08.56,4.53,2.34Z"/>
        <path class="cls-55" d="m67.65,30.7c-.02-.23.04-.52,0-.59.83-.07,2-.84,2.05-1.76.97-.11,1.46-1.16,2.05-1.76.17,2.2-2.64,3.06-4.1,4.1Z"/>
        <path class="cls-63" d="m74.38,24.27c-.03-.14-.55-.57-.59-.59,2.7-1.59.64.43.59.59Z"/>
      </g>
      <path class="cls-31" d="m34.31,55.86c-2.27-1.24-4.1.18-6.44.29.35-.68,4.28-2.67,4.53-2.63.57.09,1.57,1.94,1.9,2.34Z"/>
      <g>
        <path class="cls-57" d="m40.74,171.99c.02.29,2.3,3.16-1.02,4.97-2.78,1.52-4.53.18-6-.59-.06-.03-.11-.45-.88-.88-.15-.77-.57-2.3-.88-2.93h.59c.73,6.23,9.02,4.51,7.61-.59h.59Z"/>
        <path class="cls-31" d="m38.69,169.36c.06.08.78,1.53.88,1.76.15.36.48.51.59.88,1.42,5.09-6.87,6.82-7.61.59-.02-.19-.01-.39,0-.59l5.85-2.93c.19.21.28.28.29.29Z"/>
        <path class="cls-45" d="m38.4,169.07l-5.85,2.93c.15-2.48,1.93-1.84,4.83-3.8.87-.22.69.5,1.02.88Z"/>
      </g>
      <path class="cls-45" d="m181.16,51.76c-.06.02.02.26-1.17.59-.03,0,.27-.33-.59,0-1.41.55-.73,1.34-1.17,1.02-5.01-7.59-2.97-6.64,2.93-1.61Z"/>
      <path class="cls-57" d="m185.55,46.21c.29,1.93-.93,5.69-3.36,6.14-.72-.37-.69-.6-.73-.59,3.74-1.56,3.55-3.31,2.63-6.73-.12-.44-.38-.94,0-.88.28.34,1.44,1.92,1.46,2.05Z"/>
      <g>
        <path class="cls-45" d="m77.02,191.01c3.5,4.89-1.41,8.6-6.14,6.14-2.42-3.79-2.18-5.81,2.34-7.61,1.28.53,2.51.98,3.8,1.46Z"/>
        <path class="cls-17" d="m73.07,190.72c4.33-.74,5.5,5.71,1.46,6.14-4.58.49-5.12-5.52-1.46-6.14Z"/>
      </g>
      <path class="cls-27" d="m66.78,110.85c3.23-1.35.19,6.03,2.63,9.95-1.48,1.07-2.47,2.71-2.63,4.39,0,.05-.43-.13-.29.88-3.9-1.16-24.2-10.4-30.72-12.87.06-.43-.15-.93.15-1.17,5.77,2.32,7.56-3.07,14.33-2.05,1.32,12.13,17.16,11.31,16.53.88Z"/>
      <path class="cls-27" d="m78.19,140.11c-2.2.91-3.3,2.13-4.39,2.63-.2.09-.39-.45-.73-.29-2.28,1.05-4.45,2.34-6.87,3.07,3.83,5.43,3.15,5.35,11.12,1.32,1.38-.7,2.95-1.25,4.1-2.34,1.91.19,13.6,9.1,13.75,9.95-2.16-.05-4.09-1.39-3.8-.29-.19-1.01-.96-.94-1.17-1.17-1.05-1.2-6.02-4.51-7.46-4.68-3.7-.43-6.33,3.68-9.8,4.68-.38-2.59-.93-2.87-1.32-.29-1.3-1.01-3.45-1.01-3.8-1.17-1.29-.58-2.42-2.67-3.36-2.05-1.29-2.63-.2-1.02,0-3.8,0-.04.25.02.59-.44-1.76-6.58-.08-4.54,1.46-5.12,2.83-1.06,9.04-3.68,9.95-6.44.3-2.67,4.35,4.43,4.39,4.83.17,2.05-1.69,1.22-2.63,1.61Z"/>
      <path class="cls-27" d="m125.87,62.88c-2.47,6.92,2.73,6.35,9.65,9.07l-2.34,4.1c-6.57-3.66-9.34-4.07-16.67-4.97.99.14.51-3.64,1.46-6.73,4.65,8.46,5.84,1.99,4.97.73-.81-1.18-4.11-.44-4.39-1.61.28-.61.27-.84.29-.88,3.02-1.14,3.95-.36,7.02.29Z"/>
      <path class="cls-32" d="m156.29,47.96c-2.51,2.14-6.19,6.51-6.14,9.95.05,3.98,10.26,15.05,11.12,15.5v.29c-2.02-.96-1.95-.52-2.05-.59-1.54-1-6.11-7.46-8.48-3.8l-7.02,5.56c-1.13-.12-.81.65-2.34-.29.68.11.56-.27.59-.29,1.75-1.38,2.82-3.24,4.1-4.39,2.2-1.99,4.88-3.46,7.31-5.12-2-1.3-3.05-2.55-5.56-2.49l-1.17-4.39c.51-.71.58-1.57.88-2.34.09-.23,2.48-2.78-.29-4.1-.45-1.46,1.41-.16,3.36-.59.7-.15,5.37-2.14,4.83-3.22.39-.04.9-.1.88.29Z"/>
      <path class="cls-11" d="m96.32,63.46c2.52,4.94,2.51,6.13-2.93,7.61-1.62-3.07-3.13-1.36-2.93-6.44.8-.21,1.58-.56,2.34-.88,3.06-1.3,1.64-.42,3.51-.29Z"/>
      <path class="cls-68" d="m158.34,117.29c.05.03.13.44.88.88l-2.19,5.27-5.7-1.9c.08-4.62,1.23-3.8,4.24-6.58.49-.05,2.11,1.92,2.78,2.34Z"/>
      <path class="cls-1" d="m150.73,69.32l4.97,6.73c-1.02.25-9.76-.93-11.99-1.17l7.02-5.56Z"/>
      <path class="cls-17" d="m172.09,121.39c0,.3,1.4,4.71,1.76,5.7l-.44.44c-1.42-.53-8.17-3.21-8.63-3.22.14-1.01-.28-.83-.29-.88-.15-.85.28-1.82-.29-2.63.1.02.2-.01.29,0,1.71.26,5.52.31,7.61.59Z"/>
      <path class="cls-54" d="m78.19,140.11c2.8.54,1.97,2.37,3.22,4.39-1.15,1.09-2.71,1.64-4.1,2.34-1.56,1-2.12-1.87-3.51-4.1,1.09-.5,2.19-1.72,4.39-2.63Z"/>
      <path class="cls-27" d="m159.22,73.12c-.86,1.07-2.12,2.58-3.51,2.93l-4.97-6.73c2.37-3.66,6.94,2.8,8.48,3.8Z"/>
      <path class="cls-32" d="m165.95,102.08l-.59.59-6.29-3.22c-2.67,1.17-6.94,2.4-5.12.29.58-.02,1.29.13,1.76-.15.24-.3-1.81-4.73-5.85-3.36.09-.24.26-.35.29-.59,5.69-.44,10.72,4.04,15.8,6.44Z"/>
      <path class="cls-36" d="m95.15,154.44c.2,1.12-.14,3.07,0,4.39-.55.19-3.88,1.43-4.1,1.02l.29-5.7c-.29-1.1,1.64.24,3.8.29Z"/>
      <path class="cls-1" d="m141.96,74.29s.09.4-.59.29c-.07-.04-.23.05-.29,0-.65-.45-2.34-2.65-3.22-3.51,1.15-1.76,2.03-3.74,3.51-5.27.28,2.81.34,5.67.59,8.48Z"/>
      <path class="cls-45" d="m153.95,99.74c-3.81.15-4.36-2.84-4.1-3.51,4.04-1.36,6.09,3.06,5.85,3.36-.47.28-1.18.12-1.76.15Z"/>
      <g>
        <path class="cls-11" d="m141.08,74.58c-.67,1.09-3.38,4.81-4.1,4.1-.89-2.46-.3-2.91-.29-3.36.01-1.73-.87-2.36-.29-3.07.11-.58,1.22-.8,1.46-1.17.87.86,2.57,3.06,3.22,3.51Z"/>
        <path class="cls-54" d="m136.4,72.24c-.58.71.3,1.34.29,3.07,0,.46-.6.91.29,3.36-1.15-.27-3.2-2.3-3.8-2.63l2.34-4.1c.32.12.48.39.88.29Z"/>
      </g>
      <path class="cls-36" d="m67.36,124.9c1.16-1.16,2.25-2.48,3.22-3.8.03.3,1.79,4.63-1.9,4.68-.61,0-.94-.53-1.32-.88Z"/>
      <path class="cls-22" d="m70.58,120.51c.02.19-.02.39,0,.59-.97,1.33-2.05,2.65-3.22,3.8-.02.02-.43.25-.59.29.16-1.68,1.16-3.32,2.63-4.39.36-.26.72-.36,1.17-.29Z"/>
      <g>
        <path class="cls-32" d="m184.38,75.46c4.68,12.04,8.26,24.18,6.73,37.3-.17,1.45-1.16,6.32-1.76,6.58-.29-.99-.38-1.38-.88-2.34-1.35-2.59-3.25-4.76-6.44-4.39-2.61.3-7.66,5.86-9.95,7.75,0,.34,0,.68,0,1.02-2.08-.27-5.9-.32-7.61-.59.11-1.01-5-2.48-5.27-2.63-.75-.44-.83-.84-.88-.88,6.39-5.79,10.76-4.1,7.02-14.63l.59-.59c2.74,1.29,12.81,6.27,14.77,6.44,4.12.36,3.67-1.58,3.07-7.75-.73-7.46-4.18-16.17-7.9-22.67.66-.22.6.34.73.29,2.58-.9,5.05-2.32,7.75-2.93Z"/>
        <path class="cls-40" d="m176.62,107.93c1.8.16.26,5.27-1.17,5.27-.17,0-2.49-2.03-2.49-2.19,0-.25,3.39-3.1,3.66-3.07Z"/>
        <path class="cls-48" d="m188.47,117c-.57.83.65.89-.88,1.46-.45-1.2-1.75-2.57-2.63-3.51-.97-1.04-1.52-1.73-2.93-2.34,3.18-.37,5.08,1.79,6.44,4.39Z"/>
      </g>
      <path class="cls-47" d="m175.6,46.5v.59c-.14.15-2.47,3-2.63,3.22-3.43-.37-.37-2.73,1.46-3.8.57-.33.57-.4,1.17,0Z"/>
      <path class="cls-4" d="m47.47,105c-.02.11-.47-.37-.29,1.17-.79.46-.89,1.31-1.46,2.05-.06.08-.35,1.23-1.02,1.76-.14.11-.83-.1-1.02,0l-.29-2.34c.38-.23,2.69-3.33,3.51-3.8,1.95-1.12.82.11.59,1.17Z"/>
      <path class="cls-46" d="m51.86,88.91c.71-.05,1.4.18,2.05-.29.09.41.13.51.29.88.12.27,3.56,3.69,3.8,3.8-1.67,1.03-2.49,3.06-2.63,3.22-.34.38-.59.86-1.02,1.17-.41.06-1.68-.7-2.19-.88-1.9-.64-4.26-2.04-6.29-2.63-3.86-1.13-7.97-1.38-11.85-2.34.92-.26,3.38-1.71,3.66-1.76,1.51-.26,6.28.84,2.78-.29-.89-1.43-1.38-1.99-1.17-3.8,5.83.69,8.73,3.13,9.21,3.22.54.1,2.17-.21,3.36-.29Z"/>
      <path class="cls-32" d="m31.97,88.91c-3.11,4.93-2.61,5.72,1.61,1.46l.15.59c-.3.26-.61.45-.88.73.18.31.85.07,1.17.15,3.87.96,7.98,1.21,11.85,2.34,2.03.6,4.39,1.99,6.29,2.63-.73.64-3.05-.13-3.95-.59l-.73.44c.15,3.11-2.11,6.17-.59,7.17-.82.47-3.13,3.57-3.51,3.8-1.42.87-2.5.91-4.1.88,0-.37-1.01-.29-.44-.88,1.02-1.04,6.66,1.46,6.29-10.38l-15.8-3.95c.31-.85.59-2.16,1.17-2.93.36-.47.93-1.35,1.46-1.46Z"/>
      <path class="cls-40" d="m53.03,85.11c-.26.27-.96.9-1.32.88-4.23-3.36-11.54-1.66-12.14-.59-.1.18-.27.39-.29.59-.21,1.81.28,2.37,1.17,3.8-2.46-.8-5.2-.85-7.75-1.17-1.38-.62,2.12-6.65,5.56-7.31,2.92-.56,5.69.7,7.46.88,2.13.21,1.07-.28,2.19-2.05-1.12,3.79.79,2.83,5.12,4.97Z"/>
      <path class="cls-66" d="m33.72,90.96l-.15-.59c-4.22,4.26-4.72,3.47-1.61-1.46.73-.15,3.53.7,3.51,1.02,0,.1-1.12.48-1.76,1.02Z"/>
      <path class="cls-1" d="m39.28,108.51c-2.82-.06-8.68-5.18-9.95-7.75-1.76-3.57-1.19-4.21,0-7.46l15.8,3.95c.37,11.85-5.27,9.35-6.29,10.38-.57.58.44.51.44.88Z"/>
      <path class="cls-11" d="m59.46,143.62c-.35-.42-2.93-2.51-2.93-2.78,0-.38,2.74-1.76,2.93-2.49.42.14,2.93,2.29,2.93,2.49,0,.2-2.51,2.47-2.93,2.78Z"/>
      <g>
        <path class="cls-30" d="m17.34,115.24c-3.59-.87-6.12,2.92-4.97,6.14-1.13-.06-.16.65-.29,1.46-1.37-2.06-.61-2.81-1.46-2.63-.01-.1.01-.2,0-.29,1.07-4.1,4.59-6.04,6.29-5.56.12.04.32.81.44.88Z"/>
        <g>
          <path class="cls-64" d="m19.97,117c.02,1.49-.02,5.56,0,5.85-2.55,2.33-5.68,3.34-7.9,0,.14-.82-.84-1.53.29-1.46.41,1.14,1.25,1.74,2.34,2.05,3.35.95,6.55-1.26,3.8-6.73-.1-.2-.25-.37-.29-.59.25.2,1.39.97,1.76.88Z"/>
          <path class="cls-40" d="m17.34,115.24c.33.19.64.69.88.88.04.22.19.38.29.59-1.38-.89-3.85.32-4.39,1.61-1.27,3.01,1.95,4.48.59,5.12-1.09-.31-1.94-.91-2.34-2.05-1.15-3.22,1.39-7.01,4.97-6.14Z"/>
          <path class="cls-73" d="m18.51,116.71c2.75,5.46-.45,7.68-3.8,6.73,1.37-.64-1.85-2.11-.59-5.12.54-1.29,3.01-2.5,4.39-1.61Z"/>
        </g>
      </g>
      <path class="cls-17" d="m163.61,44.45c-1.23.37-2.51.79-3.8.88-4.74.31-8.65-.12-13.46,1.46-8.43-4.77-17.34-9.32-27.21-9.65l-.29-.29c3.36-3.89-2.73-4.54-7.61-8.19,25.38-2.27,45.57,15.69,48.12,16.09,1.46.23,2.04-.76,4.24-.29Z"/>
      <g>
        <path class="cls-25" d="m176.18,147.71c-.35-.44-1.09-.71-1.17-1.46l5.56-.73c-1.95,1.06-3.75,2.88-4.39,2.19Z"/>
        <path class="cls-54" d="m169.75,138.65c2.03.32,4.14.53,6.14.88.06.01.89.56,1.17.59-.02.19,0,.39,0,.59-1.23-.24-14.47-1.44-13.46-2.78,1.75-.12,1.67-.45,1.76-.44.23.02.19.5,4.39,1.17Z"/>
      </g>
      <path class="cls-10" d="m159.8,45.33c-1.4,1.8-3.34,2.49-3.51,2.63.02-.39-.49-.34-.88-.29-6.74.76-13.01,3.16-18.72,6.73l-.59-1.17c3.49-1.97,6.76-4.43,10.24-6.44,4.8-1.59,8.72-1.16,13.46-1.46Z"/>
      <path class="cls-1" d="m136.69,54.4c-1.65,1.03-4.38,2.29-4.1,3.51-3.02.44-5.56,1.71-6.73,4.97-3.07-.66-4-1.43-7.02-.29.38-.57.17-1.09.73-1.46,5.65-2.31,11.21-4.89,16.53-7.9l.59,1.17Z"/>
      <path class="cls-44" d="m117.97,64.34c.22-.72.56-.83.59-.88.28,1.17,3.58.43,4.39,1.61.87,1.26-.32,7.73-4.97-.73Z"/>
      <path class="cls-11" d="m67.07,96.52c.86.48,2.69,1.59,2.63,2.05-1.22,1.92-2,5.17-2.49,5.27-2.68-1.71-5.28-.95-5.41-4.68.9-.17,1.39-1.67,1.46-1.76.54-.58,1.41-.96,1.76-1.76.56.29,1.47.55,2.05.88Z"/>
      <path class="cls-32" d="m61.22,91.55c.95,1.59,3.66,2.75,5.27,2.93,1.47.16,2.26.36,3.8-.29,1.25.26-1.83,2.73-3.22,2.34-.58-.32-1.49-.59-2.05-.88-1.11-.57-3.42-2.3-3.66-2.34-1.3-.23-1.94.68-3.36,0-.24-.12-3.68-3.53-3.8-3.8,1,.26,1.7,1.05,2.63,1.46,4.63,2.05,2.64-.28,3.8-3.51h.29c-.07,2.09-.73,2.39.29,4.1Z"/>
      <path class="cls-17" d="m90.18,152.98c-1.36,2.71-3.97,8.31-6.87,8.78-5.22.83-9.52-2.4-10.68-7.46-.14-.6.37-.8.29-1.32,3.47-1,6.1-5.11,9.8-4.68,1.44.17,6.41,3.48,7.46,4.68Z"/>
      <g>
        <path class="cls-32" d="m72.92,152.98c.08.52-.43.72-.29,1.32,1.16,5.06,5.46,8.29,10.68,7.46,2.9-.46,5.51-6.06,6.87-8.78.21.23.98.16,1.17,1.17l-.29,5.7c.22.41,3.55-.83,4.1-1.02.14-.05.9.13,2.05-.88-.05.06.28.56-1.02,1.17-7.89,1.71-22.02,7.83-28.23,9.07-.03,0,.08-.63-.15-.59-3.11.6-6.22,1.33-9.36,1.76-1.15.16-5.3-.07-6,.29l-.88-.88c1.27-.47,2.13-1.38,3.22-2.05,3.29-2.02,8.36-5.76,10.24-9.21,3.01-5.52.73-5.37-.59-8.04.94-.63,2.08,1.47,3.36,2.05.35.16,2.5.16,3.8,1.17.39-2.58.94-2.3,1.32.29Z"/>
        <path class="cls-45" d="m68.39,159.12c4.43-1.02,3.01,6.42-.29,4.97-2.33-1.02-2.26-4.39.29-4.97Z"/>
      </g>
      <path class="cls-1" d="m65.02,95.64c-.34.79-1.22,1.17-1.76,1.76-1.6.19-3.11-.13-4.68-.29-1.11-.11-2.2.11-3.22-.59.14-.16.96-2.19,2.63-3.22,1.43.68,2.07-.23,3.36,0,.24.04,2.55,1.77,3.66,2.34Z"/>
      <path class="cls-32" d="m63.27,97.4c-.08.08-.56,1.58-1.46,1.76-1.11.21-5.7-.04-3.22-2.05,1.57.16,3.09.48,4.68.29Z"/>
      <g>
        <path class="cls-27" d="m70.58,120.51c-.45-.07-.81.03-1.17.29-2.44-3.92.6-11.3-2.63-9.95-.42-6.92-8.31-8.57-13.31-4.97-1.59,1.14-2.38,3.12-2.63,3.22-1,.37-5.11.05-5.12-.88.57-.74.67-1.58,1.46-2.05,0,.06.8.47.88.73-1.84,3.14.28.73.44.73.16,0,2.09,2.47.44-.44,2.34-1.59.68-.97.59-1.02-.56-.3-.97-.69-1.46-.29-.18-.28-.21-.76-.59-.88.23-1.06,1.37-2.29-.59-1.17-1.52-.99.73-4.06.59-7.17l.73-.44c.9.46,3.22,1.23,3.95.59.52.18,1.78.94,2.19.88.43-.31.69-.79,1.02-1.17,1.02.69,2.11.47,3.22.59-2.49,2.01,2.11,2.26,3.22,2.05.13,3.73,2.73,2.97,5.41,4.68.49-.09,1.27-3.34,2.49-5.27,1.03-1.63,2.8-3.32,2.93-3.51-4.55,10.97-3.23,15.18-2.05,25.45Z"/>
        <path class="cls-62" d="m53.17,97.98c.27-.06,1.14-.07,1.32.15-.29,10.02-4.21.51-1.32-.15Z"/>
        <path class="cls-55" d="m48.06,105.88c.52.8.72,1.14,1.46.29.09.05,1.75-.57-.59,1.02,1.65,2.91-.28.44-.44.44-.16,0-2.28,2.41-.44-.73-.08-.27-.87-.67-.88-.73-.18-1.54.27-1.06.29-1.17.38.12.4.6.59.88Z"/>
        <path class="cls-16" d="m49.52,106.17c-.74.85-.94.51-1.46-.29.5-.4.9-.01,1.46.29Z"/>
      </g>
      <path class="cls-17" d="m73.8,142.74c1.39,2.23,1.95,5.09,3.51,4.1-7.97,4.04-7.29,4.11-11.12-1.32,2.42-.73,4.6-2.02,6.87-3.07.34-.16.53.39.73.29Z"/>
      <g>
        <path class="cls-9" d="m186.42,134.55c.05.12-.13,1.75,1.17,1.76.39,0,1.18-1.19,1.32-1.17,2.18.31-3.34,14.01-4.39,15.21-.86-.68-1.88-1.15-2.78-1.76-.38-.26-.73-.7-1.17-.88,1.28-1.32,1.71-3.72,2.05-5.41-.49-.23-.97-.51-1.46-.73l4.39-9.07c.31.7.59,1.33.88,2.05Z"/>
        <path class="cls-31" d="m184.38,130.45c1.14.34,1.12,1.94,1.17,2.05l-4.39,9.07c-.19-.09-3.33-.73-4.1-.88,0-.19-.02-.39,0-.59.08-.98,2.94-9.42,3.66-9.65.17-.06,3.45-.06,3.66,0Z"/>
        <g>
          <path class="cls-68" d="m189.35,119.34c.85,2.97,1.23,4.74.59,7.9-.36,1.76-1.28,2.86-2.05,4.39-.47-.04-.84.22-1.17-.29,2.14-3.81,2.41-8.81.88-12.87,1.52-.58.31-.63.88-1.46.5.96.59,1.35.88,2.34Z"/>
          <path class="cls-4" d="m187.59,136.3c-1.3,0-1.12-1.64-1.17-1.76.81-.77.99-1.99,1.46-2.93.77-1.53,1.69-2.63,2.05-4.39,2.36-.79-.33,5.96-2.34,9.07Z"/>
          <path class="cls-27" d="m182.04,112.61c1.41.61,1.95,1.3,2.93,2.34-1.6,0-10.39,5.92-10.53,6.58l2.93,8.19c.53.33,1.66.08,2.34.15l-3.8,9.65c-2-.35-4.12-.55-6.14-.88-2.45-.99-.28-4.05-.59-7.46-.14-.24-1.92-.37-2.34-.44-2.09-3.77-5.44-6.53-2.05-6.44.46.01,7.21,2.69,8.63,3.22l.44-.44c-.36-.99-1.75-5.41-1.76-5.7,0-.34,0-.68,0-1.02,2.29-1.89,7.34-7.45,9.95-7.75Z"/>
          <path class="cls-32" d="m166.82,130.75c.42.07,2.2.2,2.34.44.31,3.41-1.87,6.47.59,7.46-4.2-.67-4.16-1.15-4.39-1.17,0-1.21,1.81-5.68,1.02-6.14-.11-.07-2.52-.36-2.63-.29-.99.56.3,5.59-2.19,3.8,2.07-.07.67-3.39,2.19-4.39,2.84.95,2.92.27,3.07.29Z"/>
          <path class="cls-54" d="m186.72,131.33c.33.51.7.25,1.17.29-.47.94-.65,2.15-1.46,2.93-.29-.71-.56-1.34-.88-2.05-.05-.11-.03-1.71-1.17-2.05v-.29c.42.04,1.33-.57,1.9-.29.71.34.31,1.26.44,1.46Z"/>
          <path class="cls-32" d="m184.96,114.95c.88.95,2.18,2.31,2.63,3.51,1.53,4.06,1.26,9.06-.88,12.87-.13-.2.27-1.12-.44-1.46-.58-.28-1.49.34-1.9.29-1.6-.17-3.12-.14-4.68-.29-.68-.07-1.81.18-2.34-.15l-2.93-8.19c.14-.66,8.93-6.58,10.53-6.58Z"/>
          <path class="cls-16" d="m184.38,130.16v.29c-.21-.06-3.48-.06-3.66,0-.71.24-3.57,8.67-3.66,9.65-.28-.03-1.11-.57-1.17-.59l3.8-9.65c1.57.15,3.08.12,4.68.29Z"/>
        </g>
      </g>
      <path class="cls-17" d="m141.08,61.42c.83,2.33.27,4.17.29,4.39-1.48,1.52-2.36,3.51-3.51,5.27-.24.37-1.35.59-1.46,1.17-.4.1-.56-.17-.88-.29-6.92-2.71-12.12-2.15-9.65-9.07,1.16-3.26,3.71-4.54,6.73-4.97,3.49-.51,7.14-.28,8.48,3.51Z"/>
      <path class="cls-27" d="m155.41,47.67c.54,1.08-4.13,3.07-4.83,3.22-1.96.42-3.82-.88-3.36.59-3.73-1.77-5.12,5.05.29,4.1-.3.77-.37,1.63-.88,2.34-1.24,1.72-3.48,3.11-5.56,3.51-1.34-3.79-5-4.02-8.48-3.51-.28-1.22,2.44-2.48,4.1-3.51,5.71-3.57,11.98-5.97,18.72-6.73Z"/>
      <path class="cls-32" d="m147.81,62.29c-5.41.15-3.41,4.31-1.76,7.61-1.27,1.15-2.34,3-4.1,4.39-.24-2.81-.31-5.68-.59-8.48-.02-.22.53-2.05-.29-4.39,2.08-.4,4.32-1.79,5.56-3.51l1.17,4.39Z"/>
      <path class="cls-27" d="m147.81,62.29c2.51-.07,3.56,1.19,5.56,2.49-2.44,1.66-5.11,3.13-7.31,5.12-1.65-3.3-3.66-7.46,1.76-7.61Z"/>
      <path class="cls-68" d="m147.22,51.47c2.77,1.32.38,3.87.29,4.1-5.42.96-4.02-5.86-.29-4.1Z"/>
      <g>
        <path class="cls-25" d="m133.18,183.7c-.03.06-.55.66-.88,1.17l-1.46-.88c2.53-4.04,4.41-10.13.88-14.04-1.14-1.26-1.67-1.51-3.22-2.19-.06-1.4,9.38.44,7.02,10.82-.07.32-2.01,4.5-2.34,5.12Z"/>
        <path class="cls-60" d="m122.36,191.59c-.35-.11-1.13-.87-1.32-.88-.29-.01-4.61,1.96-5.7,1.46.21-.79,1.89-3.7,2.49-3.8.38-.06,8.45,2.46,4.53,3.22Z"/>
        <path class="cls-32" d="m121.19,165.85c.15.03.63.47,2.93.88-.06.79,1.94.83,2.05,1.32.14.63-3.18,6.3-5.27,11.85-.82.16-.98-.32-1.02-.29-.14.06-.24.6-.44.88-.74-.15.36-1.01-.15-1.17-.64-.2-11.55,2.06-13.31,2.34-1.08.17-2.15.42-3.22.59-1.16.18-1.09.28-1.17.29-.19.02-2.63-.17-3.8,0,.29-1.35,9.99-8.93,11.7-11.26,3.84-5.25.1-7.76,11.7-5.41Z"/>
        <path class="cls-29" d="m130.84,183.99c-.75,1.2-3.06,3.78-4.39,4.39-.18.04-.59-.4-.59-.44.14-.82,6.93-6.1,6.14-14.92-.14-1.52-1.96-2.73-.29-3.07,3.53,3.91,1.65,10-.88,14.04Z"/>
        <path class="cls-38" d="m120.9,179.89c-.86,2.29-1.5,4.72-2.34,7.02-.68-.19-1.32-.4-2.05-.29.72-1.56,2.07-4.97,2.93-6.14.2-.28.3-.81.44-.88.05-.02.21.45,1.02.29Z"/>
        <g>
          <path class="cls-9" d="m105.98,181.65c.39,6.89,2.36,4.23,9.51,5.85l1.02-.88c.73-.1,1.36.1,2.05.29,2.49.69,5.53,2.54,7.9,1.46,1.33-.6,3.63-3.18,4.39-4.39l1.46.88c-2.63,4.11-4.96,6.79-10.09,7.31-.33-.17.32-.53.15-.59,3.92-.76-4.15-3.28-4.53-3.22-.6.1-2.27,3.01-2.49,3.8-1.53-.7,1.09-4.12-4.24,1.76-4.16-4.51-2.7-2.91-7.9.29-.62-.45-.84-1.2-1.32-1.76-2.37-2.8-1.52-2.63-1.17-4.1.5-2.07,1.88-3.95,2.05-6.14,1.06-.16,2.13-.41,3.22-.59Z"/>
          <path class="cls-61" d="m109.34,189.25c.15-.05,2.39-.06,2.63,0,3.2.79-2.93,3.6-3.36,1.32-.09-.48.36-1.18.73-1.32Z"/>
        </g>
        <g>
          <path class="cls-32" d="m119.43,180.48c-.86,1.17-2.2,4.58-2.93,6.14l-1.02.88c-7.15-1.63-9.12,1.04-9.51-5.85,1.76-.28,12.67-2.54,13.31-2.34.51.16-.59,1.02.15,1.17Z"/>
          <path class="cls-32" d="m115.19,182.82c2.53.25-2.72,5.48-3.95,2.78-.45-.99,2.54-2.92,3.95-2.78Z"/>
        </g>
      </g>
      <g>
        <path class="cls-54" d="m173.84,52.64c1.78,1.93,3.92,3.86,5.27,6.14,2.46,4.16,2.48,4.57.59,6.73-.32.36-6.62,6.04-7.17,6.44-7.83,5.7-8.38,3.13-11.26,1.76v-.29c6.57,3.5,17.28-5.81,15.8-11.85-.06-.25-.58-.12-.59-.15-.83-2.45-2.85-5.4-4.68-7.31l2.05-1.46Z"/>
        <path class="cls-23" d="m170.04,48.55c.33.28,2.43,2.14,2.63,2.34,1.24,1.23,1.1,1.68,1.17,1.76l-2.05,1.46c-4.06-4.24-8.13-6.65-13.75-3.51.14-.13,1.22-2.16,2.78-2.63,2.94-.9,5.92,1.62,6-1.76.89.55,2.42,1.68,3.22,2.34Z"/>
        <path class="cls-32" d="m171.8,54.1c1.83,1.91,3.85,4.86,4.68,7.31.56,4.68-9.44,12.62-13.6,11.12-1.6-.58-3.75-4.17-3.95-4.39l.15-.88c-.05.79,4.71,1,5.85.88,10.99-1.22,12.38-16.84,3.07-4.24-.24.32.79.87-.59,1.9-4.98-3.29.16-5.8,0-7.75-.17-2.06-6.36-6.74-10.53,3.07-.51,1.2-.88,2.23-1.17,3.51-1.47-2-3.36-3.3-3.22-6.14.16-3.06,3.4-5.99,5.56-7.9,5.62-3.14,9.69-.73,13.75,3.51Z"/>
        <path class="cls-54" d="m152.49,58.49c-.15,2.84,1.75,4.15,3.22,6.14,1.33,1.8,1.98,2.2,3.22,3.51.2.21,2.35,3.81,3.95,4.39,4.16,1.51,14.17-6.44,13.6-11.12,0,.03.52-.1.59.15,1.48,6.04-9.22,15.34-15.8,11.85-.86-.46-11.07-11.53-11.12-15.5l2.34.59Z"/>
        <path class="cls-67" d="m166.82,46.21c-.08,3.38-3.06.86-6,1.76-1.56.48-2.64,2.51-2.78,2.63-2.16,1.91-5.4,4.84-5.56,7.9l-2.34-.59c-.04-3.44,3.63-7.81,6.14-9.95.17-.14,2.11-.83,3.51-2.63,1.29-.08,2.57-.51,3.8-.88,1.3.28,2.15,1.09,3.22,1.76Z"/>
        <path class="cls-27" d="m167.41,65.8c-2.6,1.95-7.98-3.71-10.53-4.68,4.17-9.81,10.36-5.13,10.53-3.07.16,1.95-4.98,4.46,0,7.75Z"/>
        <path class="cls-32" d="m158.93,68.14c-1.24-1.31-1.89-1.71-3.22-3.51.29-1.28.66-2.31,1.17-3.51,2.55.97,7.93,6.63,10.53,4.68,1.37-1.03.35-1.58.59-1.9,9.31-12.6,7.92,3.02-3.07,4.24-1.14.13-5.91-.09-5.85-.88l-.15.88Z"/>
      </g>
      <path class="cls-5" d="m53.91,86.28c-1.18.65-4.1-.58-4.39.88-3.09-1.43-6.59-1.94-9.95-1.76.6-1.07,7.91-2.78,12.14.59.35.02,1.05-.61,1.32-.88.92-.93.6-3.09.88,1.17Z"/>
      <path class="cls-2" d="m60.63,87.45c-1.16,3.23.83,5.56-3.8,3.51.25-.58.19-1.18.29-1.76.15-.88.35-1.77.59-2.63l2.93.88Z"/>
      <path class="cls-22" d="m60.93,87.45h-.29l-2.93-.88c.51-1.85-.39-2.42,1.61-2.34,2.46.09,1.65,1.82,1.61,3.22Z"/>
      <path class="cls-51" d="m53.91,86.28c.01.19-.02.39,0,.59.06.57-.1,1.3,0,1.76-.64.47-1.34.24-2.05.29-.02-.57-1.87-1.54-2.34-1.76.29-1.45,3.21-.23,4.39-.88Z"/>
      <path class="cls-23" d="m57.12,89.21c-.1.57-.05,1.18-.29,1.76-.94-.41-1.63-1.21-2.63-1.46-.16-.36-.2-.46-.29-.88-.1-.46.06-1.19,0-1.76l3.22,2.34Z"/>
      <path class="cls-21" d="m66.48,94.47c-1.6-.18-4.31-1.33-5.27-2.93.46-.5,3.57,1.81,5.27,2.93Z"/>
      <path class="cls-53" d="m49.52,87.16c.47.22,2.32,1.19,2.34,1.76-1.2.09-2.82.4-3.36.29-.48-.09-3.38-2.53-9.21-3.22.02-.19.19-.4.29-.59,3.35-.18,6.86.33,9.95,1.76Z"/>
      <g>
        <path class="cls-23" d="m64.44,149.47c1.31,2.67,3.59,2.53.59,8.04-1.88,3.45-6.94,7.19-10.24,9.21,1.36-1.75-.63-.38-1.61-.59-5.35-1.1-10.54-8.8-12.43-7.61-.44-.68-.78-1.35-1.17-2.05-.44-.79-.79-1.52-1.17-2.34.87-1.49.94-.26,2.34-.29,1.14,2.17,6.78,8.78,8.92,9.65,4.98,2.03,10.51-2.8,13.31-6.58,1.1-1.49,1.31-2.88,1.76-3.66.17-.31,1.11-.24,1.17-.44-.84-.77-2.63-3.18-3.22-4.1-1.1-1.74-.53-1.82-.59-1.9l2.34-1.17c-.2,2.79-1.29,1.18,0,3.8Z"/>
        <path class="cls-67" d="m49.81,137.48c1.12.2,2.15.48,3.22.88-3.12-.22-2.6,1.12-3.22,1.46-9.34,5.18-13.78,5.1-9.07,14.04-1.4.03-1.47-1.19-2.34.29-1.36-2.93-3.12-5.85-2.93-9.21.41-1.14,12.33-6.31,14.33-7.46Z"/>
        <path class="cls-9" d="m54.78,166.73c-1.09.67-1.95,1.57-3.22,2.05-.44.17-.61.67-1.02.59-3.37-3.04-7.3-6.73-9.8-10.53-.04-.07.04-.22,0-.29,1.89-1.19,7.08,6.5,12.43,7.61.98.2,2.97-1.17,1.61.59Z"/>
        <g>
          <path class="cls-40" d="m59.46,138.35c-.19.73-2.92,2.11-2.93,2.49,0,.26,2.57,2.36,2.93,2.78.85,1.01,1.88,2.16,2.63,3.22.06.08-.52.17.59,1.9.58.92,2.38,3.33,3.22,4.1-.06.2-1,.13-1.17.44-4.4-5.03-8.74-10.5-14.92-13.46.61-.34.1-1.68,3.22-1.46.79.29,1.39.41,1.9,1.17,1.85.28,2.92-1.7,4.53-1.17Z"/>
          <g>
            <path class="cls-32" d="m49.81,139.82c6.18,2.95,10.52,8.42,14.92,13.46-.44.77-.65,2.17-1.76,3.66-2.8,3.78-8.33,8.61-13.31,6.58-2.14-.87-7.78-7.48-8.92-9.65-4.71-8.94-.27-8.86,9.07-14.04Z"/>
            <path class="cls-27" d="m55.66,149.18c1.89,3.45,1.57,5.46-.88,8.48-8.64-10.97.98,3.15-8.19-1.02.15-1.85,2.72-1.84,2.93-2.63.28-1.04-2.48-6.34-2.34-7.02.77-3.76,6.53-1.36,8.48,2.19Z"/>
            <path class="cls-32" d="m54.78,157.66c2.45-3.02,2.77-5.04.88-8.48,1.51-.95,5.12,3.88,4.97,5.12-.3,2.48-9.19,9.63-9.36,7.02-.08-1.16,3.36-2.75,3.51-2.93.09-.1-.08-.64,0-.73Z"/>
          </g>
        </g>
      </g>
      <g>
        <path class="cls-1" d="m81.11,42.99c.02.14.59.74.88,2.63.02.12-.91,1.31.15,2.34,1.47-1.63,2.58-2.48,4.53-3.22,4.91.69,2.87,1.01.59,4.68-.53.37-2.56,2.18-2.93,2.63-.02.02-.04-.61-.59-.15.34,2.38-.97,4.71.29,4.53,1.39.95,6.26-4.18,7.9-4.53-.22,4.24-1.29,8.5-1.46,12.73-.2,5.08,1.3,3.37,2.93,6.44.32.61.64.57.44.88-14.41,6.79-13.44,11.3-21.21,23.11-.13.19-1.9,1.89-2.93,3.51.06-.46-1.77-1.56-2.63-2.05,1.39.39,4.47-2.08,3.22-2.34.48-.2,3.08-2.62,4.68-3.36.07-2.73,2.05-7.03.29-9.21.87-.71.26-1.67.29-1.76.06-.16,1.87-2.33,2.05-2.63,5.35-3.31,11.17-2.43,10.82-10.68-.35-8.38-2.38-6.36-9.51-7.17-6.58,4.69-3.59,6.36-5.7,12.29-.59-.43-.59.14-1.17-.29.53-8.28,1.83-16.55,2.05-24.87,2.14-1.55,4.2-3.26,6.44-4.68.14,1.11.58,1.11.59,1.17Z"/>
        <path class="cls-1" d="m100.71,55.86c-1.49,2.19-2.13,5.4-2.93,7.9-.07,0-.29-.21-1.46-.29-1.87-.13-.45-1-3.51.29.37-3.61.96-8.6,2.05-11.99l5.85,4.1Z"/>
        <path class="cls-27" d="m98.08,33.92c-.07,1.23.84,1.38.88,1.46.25.6.59,1.17.88,1.76.37.76.82,1.95.88,2.05l-1.17.59c-.16-.22-1.5-1.72-1.61-1.76-7.57.56-13.99.38-8.92,5.85-.42.07-1.72.64-2.34.88-1.95.74-3.06,1.59-4.53,3.22-1.05-1.03-.13-2.22-.15-2.34-.04.77.1.55.59.29.37-.19,1.19-.86,1.46-1.17.13-.15.87-.33.88-.44.02-.32-3.27-5.51-3.8-1.32,0-.06-.45-.06-.59-1.17-.02-.13.26-2.48.29-2.63.15-.62.35-.92.59-1.46,1.92.04,2.61-2.36,5.41-3.8,1.99-1.02,6.66-2.16,8.78-1.46,1.18.39,1.72,2.16,2.49,1.46Z"/>
        <path class="cls-17" d="m77.6,77.21c.24-.41.53-.71.88-1.02-2.84-1.35-4.63-4.07-5.27-4.53,2.11-5.93-.88-7.6,5.7-12.29,7.12.8,9.16-1.21,9.51,7.17.34,8.25-5.47,7.37-10.82,10.68Z"/>
        <path class="cls-32" d="m108.32,41.82c-.86.05-1.76.36-2.63.44.35,1.11-.06,1.62,0,2.78-9.37.78-7.45-.35-9.65,4.39-.37.8-.88,1.45-1.17,2.34-1.09,3.4-1.68,8.38-2.05,11.99-.76.32-1.54.67-2.34.88.17-4.23,1.25-8.49,1.46-12.73-1.64.36-6.51,5.49-7.9,4.53-.03-.76.23-1.61.29-2.34-.03.36.28.27.29.29.51,1.11.17.02,1.46-.59,1.87-.87,1.45.09,1.61,0,1.67-.88,8.67-8.29,7.02-8.48-1.79,1.22-6.01,3.08-7.46,4.1,2.29-3.67,4.33-3.99-.59-4.68.62-.24,1.92-.8,2.34-.88.56-.1,6.94-.02,11.26-1.17l.44-.44c-.7-.81-1.09-2.37-1.17-2.49l1.17-.59c2.2,3.64,1.83,1.74,2.19,1.76,2.26.09,5.19.59,5.12-2.34.25,1.06.36,2.13.29,3.22Z"/>
        <path class="cls-27" d="m86.08,53.81c-.53-1.15-1.68-.55-1.46.59,0-.02-.32.07-.29-.29.06-.67-.04-1.37,0-2.05.36-.45,2.39-2.26,2.93-2.63,1.45-1.01,5.67-2.88,7.46-4.1,1.65.19-5.35,7.6-7.02,8.48-.16.09.26-.87-1.61,0Z"/>
        <path class="cls-39" d="m73.21,71.66c.64.47,2.43,3.19,5.27,4.53-.35.32-.63.61-.88,1.02-.18.31-1.99,2.48-2.05,2.63-5.43-2.52-2.5-3.24-3.51-7.61.02-.29-.02-.59,0-.88.58.43.58-.14,1.17.29Z"/>
        <path class="cls-32" d="m75.55,79.85c-.03.08.58,1.05-.29,1.76-.16-.2-3.2-2.3-3.8-3.36.31-1.98.47-4,.59-6,1.01,4.36-1.92,5.09,3.51,7.61Z"/>
        <path class="cls-12" d="m84.33,52.06c-.04.68.06,1.37,0,2.05-.06.73-.32,1.58-.29,2.34-1.26.17.04-2.15-.29-4.53.54-.46.57.17.59.15Z"/>
        <path class="cls-1" d="m105.68,45.03c.06,1.09,1.01,5.74.88,6.29-.99,1.07-3.43,1.92-4.39,2.78-2.39-.97-4.47-2.8-6.14-4.68,2.21-4.74.28-3.61,9.65-4.39Z"/>
        <g>
          <path class="cls-32" d="m101.59,59.66c-1.05.24-1.58,3.05-1.46,3.95-.84.5-1.51.23-2.34.15.8-2.5,1.43-5.71,2.93-7.9.33-.48,1.06-1.39,1.46-1.76.96-.86,3.4-1.71,4.39-2.78.14-.55-.82-5.2-.88-6.29-.06-1.16.35-1.67,0-2.78.87-.08,1.77-.39,2.63-.44,1.41-.08,2.73.37,4.1.59.85.13,1.99.46,2.78.88.34-.11.38-.87,1.02-1.76.45-.61.72-1.41,1.46-1.76-1.58,4.14-.75,10.82-1.76,13.02-1.59,3.49-10.78-1.63-14.33,6.87Z"/>
          <path class="cls-11" d="m109.93,45.62c4.62-1.3,5.02,7.02,0,5.85-2.47-.58-1.85-5.33,0-5.85Z"/>
        </g>
        <path class="cls-23" d="m108.32,35.97s.83.14,1.02.29c1.77,1.43,4.35,5.78,3.07,6.14-1.36-.21-2.69-.67-4.1-.59.07-1.09-.05-2.16-.29-3.22-.18-.77-.77-1.54-.88-2.34.06,0-.17-.44,1.17-.29Z"/>
        <path class="cls-32" d="m102.17,54.1c-.4.36-1.14,1.28-1.46,1.76l-5.85-4.1c.29-.9.8-1.54,1.17-2.34,1.68,1.88,3.75,3.71,6.14,4.68Z"/>
        <path class="cls-66" d="m99.54,39.77c.08.11.47,1.68,1.17,2.49l-.44.44c-4.32,1.15-10.7,1.07-11.26,1.17-5.07-5.47,1.35-5.29,8.92-5.85.11.04,1.45,1.53,1.61,1.76Z"/>
        <path class="cls-19" d="m107.15,36.26c.11.8.7,1.57.88,2.34.07,2.93-2.86,2.43-5.12,2.34-.37-.01,0,1.89-2.19-1.76-.06-.1-.51-1.29-.88-2.05,2.4-.82,4.9-.58,7.31-.88Z"/>
        <path class="cls-42" d="m108.32,35.97c-1.34-.15-1.11.29-1.17.29-2.42.3-4.91.05-7.31.88-.29-.58-.62-1.16-.88-1.76,1.04-.9,5.11-1.56,5.85-1.46.79.1,2.75,1.53,3.51,2.05Z"/>
        <path class="cls-21" d="m104.81,33.92c-.74-.09-4.81.57-5.85,1.46-.03-.08-.94-.23-.88-1.46.21-3.93,7.33-1.81,6.73,0Z"/>
        <g>
          <path class="cls-23" d="m84.04,44.74c-.67-.13-1.51-1.82-1.61-1.76-.39.24.04,2.36.15,2.93-.49.26-.62.48-.59-.29-.28-1.89-.86-2.5-.88-2.63.54-4.19,3.82,1,3.8,1.32,0,.11-.74.29-.88.44Z"/>
          <path class="cls-34" d="m84.04,44.74c-.28.31-1.1.98-1.46,1.17-.1-.56-.53-2.68-.15-2.93.1-.06.94,1.62,1.61,1.76Z"/>
        </g>
        <g>
          <path class="cls-41" d="m98.96,25.73c-2.76,1.09-5.73,1.59-5.27,5.27-5.05.37-9.93,1.36-12.29,6.73-.24.54-.44.84-.59,1.46-2.8-.71,1.92-6.39,3.8-9.36,4-2.17,9.77-3.99,14.33-4.1Z"/>
          <path class="cls-23" d="m118.85,36.84c-1.76-1.4-3.42-2.79-5.27-4.1-.97-.69-1.95-2.14-3.51-2.93l.88-1.17h.29c4.88,3.65,10.97,4.3,7.61,8.19Z"/>
          <path class="cls-56" d="m101.59,25.73c.14,1.06-1.21,1.81-2.05,2.34-.77.48-3.09,1.03-4.39,2.63-.77.02-.98.26-1.46.29-.46-3.68,2.5-4.18,5.27-5.27.85-.02,1.79-.07,2.63,0Z"/>
          <path class="cls-41" d="m110.95,28.65l-.88,1.17c-2.46-1.24-4.87-1.72-7.61-1.76-.97-.01-1.95.01-2.93,0,.84-.53,2.19-1.28,2.05-2.34,3.29.27,6.38,1.55,9.36,2.93Z"/>
          <path class="cls-40" d="m102.47,28.07c1.19,4.56,5.09,2.4,10.24,5.56,2.12,1.3,3.54,3.58,5.56,4.97-.17.36-.56,1.11-.59,1.17-.74.34-1.02,1.14-1.46,1.76-2.45-1.72-3.95-4.64-6.29-6.44-1.67-1.28-5.3-2.77-7.31-4.1-2.51.18-4.96-.36-7.46-.29,1.3-1.6,3.62-2.15,4.39-2.63.97.01,1.95-.01,2.93,0Z"/>
          <path class="cls-68" d="m118.85,36.84l.29.29c-.2.68-.84,1.39-.88,1.46-2.02-1.4-3.44-3.67-5.56-4.97l.88-.88c1.85,1.31,3.5,2.69,5.27,4.1Z"/>
          <path class="cls-32" d="m95.15,30.7c2.5-.07,4.95.47,7.46.29,2.01,1.33,5.65,2.82,7.31,4.1,2.34,1.8,3.84,4.71,6.29,6.44-.64.88-.69,1.65-1.02,1.76-.79-.42-1.93-.75-2.78-.88,1.28-.36-1.3-4.71-3.07-6.14-.19-.15-.98-.26-1.02-.29-.76-.52-2.72-1.95-3.51-2.05.6-1.81-6.52-3.93-6.73,0-.77.69-1.3-1.07-2.49-1.46-2.11-.7-6.79.44-8.78,1.46-2.8,1.44-3.49,3.85-5.41,3.8,2.35-5.37,7.23-6.36,12.29-6.73.48-.04.7-.27,1.46-.29Z"/>
          <path class="cls-22" d="m110.07,29.82c1.56.79,2.54,2.24,3.51,2.93l-.88.88c-5.15-3.16-9.05-1-10.24-5.56,2.73.04,5.15.51,7.61,1.76Z"/>
        </g>
        <path class="cls-11" d="m86.08,53.81c-1.29.61-.96,1.69-1.46.59-.22-1.14.94-1.73,1.46-.59Z"/>
      </g>
      <g>
        <path class="cls-17" d="m101.59,59.66c-1.82,4.36-.57,8.58,3.66,10.82,3.45.24,7.95.18,11.26.59,7.34.9,10.1,1.32,16.67,4.97.61.34,2.65,2.36,3.8,2.63.72.71,3.43-3,4.1-4.1.07.05.22-.04.29,0,1.53.94,1.21.17,2.34.29,2.23.24,10.97,1.42,11.99,1.17,1.39-.34,2.65-1.85,3.51-2.93.1.06.03-.38,2.05.59,2.88,1.37,3.44,3.94,11.26-1.76.54-.4,6.85-6.07,7.17-6.44,2.22,2.98,3.36,6.54,4.68,9.95-2.7.6-5.17,2.02-7.75,2.93-.13.05-.07-.51-.73-.29-.24.08-.42-.47-.73-.29-.83.84-4.83,3.02-5.12,3.66-1.24,2.78,2.83,7.17-9.8,6.87-.91-.39-8.82-12.96-16.09-9.07-6.16,3.3,1.07,12.92,4.1,16.09l1.9.29c-.03.23-.2.35-.29.59-.27.67.29,3.66,4.1,3.51-1.82,2.11,2.45.88,5.12-.29l6.29,3.22c3.74,10.53-.64,8.83-7.02,14.63-.67-.42-2.29-2.39-2.78-2.34-3.01,2.78-4.16,1.97-4.24,6.58l5.7,1.9,2.19-5.27c.26.16,5.37,1.62,5.27,2.63-.1-.01-.2.02-.29,0-.14-.02-2.28-1.24-2.49-1.17-.41.15-3.11,6.2,2.78,3.8,0,.05.43-.13.29.88-3.39-.09-.04,2.67,2.05,6.44-.15-.02-.23.66-3.07-.29-1.52,1-.13,4.31-2.19,4.39-2.13-1.53.93-3.21-1.02-5.27-.59-.63-8.3-4.11-9.07-4.1-2.76.05-6.85,7.78-6.87,8.34-.03.71,1.62,2.94,1.76,4.1.34,2.95-1.76,26.72-1.32,34.08,7.47-2.6,16.64-9.45,21.79-15.36,3.04-3.49,5.84-9.2,8.19-10.38.08.75.82,1.03,1.17,1.46.07.09.76,1.69,1.32,1.76.18.02,2.95-1.63,3.07-1.76.44.18.79.62,1.17.88-8.32,13.72-20.18,24.79-34.96,31.3-2.83,1.25-12.78,5.1-13.6,3.8.33-.62,2.27-4.79,2.34-5.12,2.36-10.38-7.08-12.22-7.02-10.82,1.55.68,2.08.94,3.22,2.19-1.66.34.16,1.55.29,3.07.78,8.82-6.01,14.1-6.14,14.92,0,.04.41.48.59.44-2.36,1.08-5.41-.77-7.9-1.46.84-2.3,1.48-4.73,2.34-7.02,2.09-5.54,5.41-11.21,5.27-11.85-.11-.49-2.11-.53-2.05-1.32,6.18,1.11-.31-1.23-2.93-.88-11.6-2.34-7.86.16-11.7,5.41-1.71,2.33-11.41,9.91-11.7,11.26,2.22,4.28,2.26,5.2,3.8,0,.08,0,.01-.11,1.17-.29-.16,2.19-1.54,4.07-2.05,6.14-7.51-1.38-15.18-2.62-22.38-5.27-9.93-3.64-13.39-8.12-26.47-11.99-.41-1.78.14-1.23.59-1.46.69-.36,4.85-.14,6-.29,3.14-.43,6.25-1.16,9.36-1.76.23-.04.12.59.15.59-.36,0-.44.35-.15.59,4.36,3.46,18.17,9.71,23.7,10.53,12.61,1.87,7.93-6.2,8.63-10.97,2.98-8.99,6.51-1.31,13.31-5.7.3-.19,2.68-2.05,2.78-2.19.26-.38,1.8-6.38,1.76-6.73-.04-.3-1.66-1.99-1.9-3.66-4.22.36-8.35.86-12.58.29-3.5,1.75-4.31,5.61-6.29,7.61-1.15,1-1.91.83-2.05.88-.14-1.31.2-3.27,0-4.39-.15-.85-11.84-9.76-13.75-9.95-1.24-2.02-.42-3.84-3.22-4.39.94-.39,2.81.44,2.63-1.61-.03-.4-4.09-7.5-4.39-4.83,2.51-7.61-5.26-6.22-9.95-7.61-.14-1.01.29-.83.29-.88.15-.04.56-.27.59-.29.38.34.71.89,1.32.88,3.69-.05,1.93-4.38,1.9-4.68-.02-.19.02-.39,0-.59-1.18-10.27-2.5-14.48,2.05-25.45,7.77-11.81,6.8-16.32,21.21-23.11.2-.31-.12-.27-.44-.88,5.43-1.47,5.45-2.66,2.93-7.61,1.17.08,1.39.29,1.46.29.83.08,1.5.35,2.34-.15-.12-.9.41-3.71,1.46-3.95Z"/>
        <g>
          <path class="cls-32" d="m141.37,138.35c-1.08,3.36,4.65,6.66,3.8,1.46.01.03.53-.1.59.15.12.55-.29,8.86-.73,8.92l-8.92-7.46c-.11-.94,3.96-4.06,5.27-3.07Z"/>
          <path class="cls-11" d="m104.95,167.31c3.74-.36,3.83,5.88.29,6.14-2.39.18-2.67-5.91-.29-6.14Z"/>
          <path class="cls-45" d="m142.69,168.19c1.66-.04.85,4.03.73,4.24-.17.3-4.4,2.42-4.39-2.63.6-.22,3.46-1.6,3.66-1.61Z"/>
          <path class="cls-45" d="m145.18,139.82c.85,5.2-4.89,1.9-3.8-1.46.99-3.08,3.04-.42,3.8,1.46Z"/>
          <g>
            <path class="cls-68" d="m127.04,148.3c.94,1.08,1.89,2.58,1.17,4.24-.08.19-3.45,1.89-3.66,1.9-1.44.08-3.87-4.91-3.07-5.85,2.25.78,3.68,3.55,4.83,3.22,1.77-.51-.5-3.56.73-3.51Z"/>
            <path class="cls-23" d="m127.04,148.3c-1.23-.05,1.04,3-.73,3.51-1.14.33-2.57-2.44-4.83-3.22,3.51-1.14,3.57-2.56,5.56-.29Z"/>
          </g>
          <path class="cls-11" d="m164.19,120.8c.57.81.15,1.78.29,2.63-5.89,2.4-3.19-3.65-2.78-3.8.2-.07,2.35,1.15,2.49,1.17Z"/>
          <g>
            <path class="cls-11" d="m165.65,80.72c-.23,3.94-3.18,5.1-4.68,1.17.71-2.24,2.96-2.46,4.68-1.17Z"/>
            <path class="cls-72" d="m160.97,81.89c1.5,3.93,4.45,2.77,4.68-1.17,1.03.77,1.45.6,1.17,2.49-.52,3.48-7.09,2.58-5.85-1.32Z"/>
          </g>
          <path class="cls-45" d="m129.09,161.46c.38-1.29-.06-1.57-1.17-2.34.37-.68,5.67-3.43,1.17,2.34Z"/>
          <path class="cls-48" d="m129.09,161.46c-.14.18-1.31,2.74-1.76,1.9.12-.93.48-4.05.59-4.24,1.11.77,1.55,1.05,1.17,2.34Z"/>
          <g>
            <path class="cls-48" d="m101.59,182.53c-1.54,5.2-1.58,4.28-3.8,0,1.17-.17,3.61.02,3.8,0Z"/>
            <path class="cls-11" d="m124.11,166.73c-2.3-.41-2.78-.85-2.93-.88,2.62-.35,9.1,1.99,2.93.88Z"/>
          </g>
          <path class="cls-11" d="m109.49,140.4c-.24,2.49-.14,3.78-2.05,5.85-.86-.02-1.54-.21-2.34-.29-.1-.75-.56-1.39-.88-2.05-.39-.82-1.13-1.82-.88-2.78.06-.24,3.15-2.78,3.36-2.78.17,0,2.24,1.89,2.78,2.05Z"/>
          <g>
            <path class="cls-70" d="m143.42,128.41c-7.81,13.82-24.28,21.54-39.93,19.89-6.32-.67-12.44-4.62-17.11-8.78.21-.51-.6-.92-.59-1.02.02-.15.78-.12.88-.73.16.14,2.02,1.22,2.34,1.46.93.7,1.93,1.44,2.93,2.05,3.64,2.24,7.29,4.29,11.56,4.97,1.37.22,1.53-.3,1.61-.29.8.09,1.48.28,2.34.29,8.2.15,13.72-1.51,21.5-5.56,1.98-2.05,4.53-3.61,6.58-5.56,2.42-2.29,4.5-4.24,6.14-7.31,2.02-.4-.3,1.32,1.76.59Z"/>
            <path class="cls-65" d="m134.64,82.19c.09,2.49-1.62.94-2.93.29-4.1-2.03-6.24-4.61-14.63-5.85-1.76-.26-6.51-.61-8.19-.59-1.89.03-5.68.5-7.61.88-2.35-.31-.97-2.06-2.93-1.76,13.09-4.15,25.72-1.79,36.27,7.02Z"/>
            <path class="cls-59" d="m143.42,93.3c5.91,11.08,6.24,24.05,0,35.1-2.05.73.26-.99-1.76-.59,3.74-7.01,5.33-18.39,3.22-26.04-.55-3.08-1.78-6.13-3.51-8.78.73.56,1.15.89,2.05.29Z"/>
            <path class="cls-24" d="m98.37,75.17c1.95-.3.57,1.44,2.93,1.76-6.75,1.34-11.76,4.81-16.67,9.36-.14.13-2.48,1.11-2.34,2.63-2.26.51-5.19,5.88-6.14,8.19-.47,1.14-.83,2.33-1.17,3.51-.68-1.79,1.97-5.45.88-6.44,4.47-8.88,13.07-16.02,22.52-19.01Z"/>
            <path class="cls-49" d="m74.97,100.62c-.42,1.47-.94,3.18-1.17,4.68-.82,5.37-.68,8.52.88,13.75l-1.46-.59c-2.12-8.56-1.3-16.47,2.63-24.28,1.09.99-1.55,4.65-.88,6.44Z"/>
            <path class="cls-74" d="m143.42,93.3c-.9.6-1.32.27-2.05-.29-.49-.75-3.35-3.8-4.39-4.97-1.53-1.73-1.68-1.38-1.76-1.46-.07-.08.5-.05-1.17-1.76-.76-.78-1.78-1.35-2.34-2.34,1.3.65,3.02,2.2,2.93-.29,3.69,3.08,6.53,6.9,8.78,11.12Z"/>
            <path class="cls-11" d="m94.57,137.77c-.15.16-1.35,2.3-2.63,3.51-.99-.61-2-1.35-2.93-2.05.16-4.34,2.55-2.05,5.56-1.46Z"/>
            <path class="cls-16" d="m108.9,76.04c-.27.98,2.83.35,1.32,1.17-.52.28-6.4.65-7.9.88-.41,3.39,3.72,5.28,6.87,6.14.26.07,1.23.85,1.61.88,5.88.42,5.94-6.35,2.49-7.61-.89-1.27,2.09-.03,3.8-.88,8.39,1.24,10.53,3.82,14.63,5.85.56.99,1.58,1.56,2.34,2.34-.94,1.31-5.32,3.88-5.56,5.27-.26,1.5,2.76,5.47,3.51,7.9.08.26-.21,1.35.88,2.93-.97-.24-.47-.98-1.32,0-5.24-7.43-7.02-9.96-16.38-9.36-9.55.61-16.85,3.81-23.55,10.53-.22-4.48-4.89-9.35-8.78-7.31-4.33-.83-4.78,2.43-6.73,2.34.95-2.31,3.88-7.68,6.14-8.19,4.15.45,4.86-1.36,5.56-1.76,3.18,1.17,9.28,4.44,5.85-.44-2.3-3.28-4.27-.46-5.85.44-1.04-.38-2.07-.92-3.22-.88,4.91-4.55,9.93-8.02,16.67-9.36,1.92-.38,5.72-.85,7.61-.88Z"/>
            <path class="cls-41" d="m84.62,86.28c1.15-.05,2.18.5,3.22.88-.7.4-1.41,2.21-5.56,1.76-.14-1.52,2.2-2.51,2.34-2.63Z"/>
            <path class="cls-32" d="m135.23,86.57c-2.05,2.98-4.58,3.93-1.76,5.85-1.33-.05-2.94-2.34-4.97-2.34.24-1.39,4.62-3.96,5.56-5.27,1.67,1.71,1.1,1.68,1.17,1.76Z"/>
            <path class="cls-11" d="m136.99,88.04c-.61,2.98.18,4.54-3.51,4.39-2.82-1.92-.3-2.87,1.76-5.85.08.08.22-.27,1.76,1.46Z"/>
            <g>
              <path class="cls-17" d="m82.87,94.77c8.11,1.54,7.79,15.87-2.93,16.67-3.81-1.19-4.07-3.23-6.14-6.14.23-1.5.75-3.21,1.17-4.68.34-1.18.7-2.37,1.17-3.51,1.95.08,2.39-3.17,6.73-2.34Z"/>
              <path class="cls-24" d="m91.64,102.08c.11,2.25-.78,4.45-1.76,6.44-3.73,3.08-4.85,4.52-9.95,2.93,10.72-.81,11.03-15.13,2.93-16.67,3.88-2.04,8.56,2.83,8.78,7.31Z"/>
            </g>
            <path class="cls-17" d="m109.49,140.4c-.54-.16-2.61-2.04-2.78-2.05-.22,0-3.3,2.54-3.36,2.78-.25.96.49,1.96.88,2.78-1.15,1.65-3.12-1.38-3.22-2.19-.33-2.68,4.11-9.63,9.07-2.63.2,1.27-.58,1.24-.59,1.32Z"/>
            <path class="cls-17" d="m132.89,100.91c-1.08-1.57-.8-2.67-.88-2.93,4.58-3.27,5.32,2.94,3.66,3.51-.73.25-2.06-.41-2.78-.59Z"/>
            <g>
              <path class="cls-70" d="m74.68,119.05c1.75,5.88,7.38,14.66,11.99,18.72-.1.61-.85.58-.88.73-.02.1.8.52.59,1.02-5.77-5.14-11.31-13.58-13.16-21.06l1.46.59Z"/>
              <path class="cls-16" d="m79.94,111.44c5.09,1.59,6.22.16,9.95-2.93.96-.8,1.22-1.47,1.32-1.46l.44.44c-2.67,9.04.55,17.89,8.48,23.11-.66,3.04-3.87,5.29-5.56,7.17-3-.59-5.4-2.88-5.56,1.46-.32-.25-2.18-1.32-2.34-1.46-4.61-4.06-10.24-12.84-11.99-18.72-1.56-5.23-1.7-8.38-.88-13.75,2.07,2.91,2.33,4.95,6.14,6.14Z"/>
              <path class="cls-11" d="m84.62,122.56c.2,7.23-4.91,1.73-5.27,1.46.15-3.01,3.68-4,5.27-1.46Z"/>
              <path class="cls-32" d="m84.62,122.56c-1.58-2.54-5.11-1.55-5.27,1.46-.22-.16-2.78.53-2.05-1.9.68-2.26,5.09-3.71,6.87-1.9,1.4,1.42.44,2.21.44,2.34Z"/>
              <path class="cls-17" d="m86.23,125.19c.3-.04,3.09,3.7,3.07,3.95,0,.14-2.05,1.9-2.19,1.9-.26,0-3.42-3.7-3.36-3.95.04-.15,2.33-1.88,2.49-1.9Z"/>
            </g>
            <g>
              <path class="cls-17" d="m117.09,76.63c-1.71.85-4.69-.39-3.8.88-3.32-1.21-4.8,4.22-4.1,6.73-3.15-.86-7.29-2.76-6.87-6.14,1.49-.23,7.37-.59,7.9-.88,1.51-.82-1.58-.19-1.32-1.17,1.68-.03,6.43.33,8.19.59Z"/>
              <path class="cls-11" d="m113.29,77.51c3.46,1.26,3.39,8.02-2.49,7.61-.38-.03-1.35-.81-1.61-.88-.71-2.51.78-7.94,4.1-6.73Z"/>
            </g>
            <path class="cls-17" d="m87.84,87.16c1.58-.9,3.55-3.71,5.85-.44,3.43,4.88-2.67,1.61-5.85.44Z"/>
            <g>
              <path class="cls-36" d="m141.37,93.01c1.74,2.65,2.96,5.7,3.51,8.78.46,2.56.29,5.44.59,8.04q-.73,5.41-1.46,10.82c-1.17,2.28-1.65,4.75-2.93,7.02-1.57,2.78-3.8,4.85-5.56,7.46-2.05,1.95-4.6,3.51-6.58,5.56-7.78,4.05-13.3,5.71-21.5,5.56,1.91-2.07,1.81-3.36,2.05-5.85,0-.07.78-.05.59-1.32-4.96-7-9.4-.04-9.07,2.63.1.81,2.07,3.85,3.22,2.19.31.66.78,1.3.88,2.05-.08,0-.24.51-1.61.29-4.26-.69-7.92-2.73-11.56-4.97,1.28-1.21,2.49-3.35,2.63-3.51,1.69-1.87,4.9-4.13,5.56-7.17-7.94-5.22-11.15-14.07-8.48-23.11l-.44-.44c-.1,0-.35.67-1.32,1.46.97-1.99,1.87-4.18,1.76-6.44,6.7-6.72,14-9.92,23.55-10.53,9.36-.59,11.15,1.93,16.38,9.36.85-.98.34-.24,1.32,0,.72.18,2.05.83,2.78.59,1.67-.57.92-6.78-3.66-3.51-.75-2.43-3.77-6.4-3.51-7.9,2.03,0,3.64,2.29,4.97,2.34,3.69.15,2.9-1.4,3.51-4.39,1.04,1.17,3.9,4.23,4.39,4.97Z"/>
              <g>
                <path class="cls-63" d="m141.67,127.82c-1.64,3.08-3.73,5.03-6.14,7.31,1.76-2.61,3.99-4.68,5.56-7.46,1.28-2.27,1.76-4.74,2.93-7.02q.73-5.41,1.46-10.82c-.3-2.6-.13-5.49-.59-8.04,2.11,7.65.52,19.02-3.22,26.04Z"/>
                <path class="cls-11" d="m139.91,125.77c-2.06,2.84-3.24,1.12-4.97-.59-1.33-6.9,7.1-6.71,4.97.59Z"/>
                <path class="cls-32" d="m139.91,125.77c2.13-7.29-6.3-7.48-4.97-.59-1.15-1.13-.67-1.25-1.32-2.05-.06-.07-1.54-.55-1.61-.73-.35-.91,1.65-3.46,2.49-3.95,5.36-3.14,8.49,3.09,5.41,7.31Z"/>
                <path class="cls-17" d="m129.23,125.19c4.54-.29,2.99,7.27-1.17,4.68-2.16-1.34-1.26-4.52,1.17-4.68Z"/>
                <path class="cls-3" d="m140.35,109.39c5.49-.39.79,4.52,0,4.39-.21-.03-1.97-3.46-1.9-3.66.15-.43,1.58-.71,1.9-.73Z"/>
                <path class="cls-17" d="m118.7,134.55c1.6-.69,3.54.67,4.24,2.19-5.26,3.03-4.83-1.94-4.24-2.19Z"/>
                <path class="cls-18" d="m132.45,109.39c.8-.56,3,.3,2.49,1.61-.72,1.85-4.26-.36-2.49-1.61Z"/>
                <g>
                  <path class="cls-73" d="m108.46,94.18c13.25-1.39,22.48,11.01,17.7,23.84-3.75,10.06-18.33,16.56-28.08,5.85-5.45-5.99-7.34-15.75-2.34-22.52,2.49-3.38,8.61-6.74,12.73-7.17Z"/>
                  <g>
                    <g>
                      <path class="cls-69" d="m108.02,95.94c1.74.52,3.47.2,5.27.59l-.29,2.34c-8.18-2.7-17.53,6.6-16.38,14.77.59-.05.81,2.78.88,2.93.49,1.02,3.58,4.76,4.68,5.41l-1.76,1.76h-.29c-11.15-9.77-5.43-25.67,7.9-27.79Z"/>
                      <path class="cls-18" d="m100.13,123.73h.29c23.74,13.68,34.65-22.47,12.87-27.21-1.79-.39-3.53-.06-5.27-.59,5.65-.9,11.28.85,14.92,5.41,11.42,14.33-7.49,35.8-22.82,22.38Z"/>
                      <path class="cls-41" d="m100.42,123.73l1.76-1.76c1.06.63,2.3.95,3.51,1.17,1.43.26,2.64.39,4.1.29.19-.01.39.02.59,0,3.82-.46,7.64-2.98,9.36-6.44,2.45-4.9,1.66-9.39-1.46-13.75-1.36-1.89-2.98-3.63-5.27-4.39l.29-2.34c21.78,4.73,10.87,40.89-12.87,27.21Z"/>
                      <path class="cls-18" d="m113,98.86c2.28.75,3.91,2.49,5.27,4.39-.81-.36-1.61-.96-2.34-1.46-11.48-7.91-23.4,7.43-15.21,17.41.85,1.03,3.51,3.01,4.68,3.36l.29.59c-1.21-.22-2.45-.54-3.51-1.17-1.1-.66-4.19-4.39-4.68-5.41-.07-.15-.29-2.98-.88-2.93-1.15-8.17,8.2-17.47,16.38-14.77Z"/>
                      <path class="cls-59" d="m119.73,117c-1.72,3.45-5.54,5.98-9.36,6.44.15-.82-.55-.54-.59-.59-.12-.16.52-.48.15-.59-.27-.08-2.14,1.13-1.9-.59,4.14.35,9.05-2.85,10.53-6.73,2.63-1.25.41-.12,1.17,2.05Z"/>
                      <path class="cls-15" d="m118.26,103.25c3.12,4.35,3.91,8.84,1.46,13.75-.76-2.17,1.46-3.29-1.17-2.05,1.4-3.66.93-8.63-2.05-11.41l-.59-1.76c.73.5,1.53,1.1,2.34,1.46Z"/>
                      <path class="cls-59" d="m109.78,122.85s-.02.41,0,.59c-1.45.1-2.67-.03-4.1-.29l-.29-.59c1.58.48,3.96.15,4.39.29Z"/>
                      <path class="cls-32" d="m110.36,123.43c-.19.02-.39-.01-.59,0-.02-.17.03-.58,0-.59.04.05.73-.24.59.59Z"/>
                      <path class="cls-32" d="m115.92,101.79l.59,1.76c-6.21-5.79-16.24.2-16.67,8.04-.28,5.07,3.95,9.73,8.19,10.09-.24,1.72,1.63.51,1.9.59.37.11-.27.43-.15.59-.43-.14-2.81.19-4.39-.29-1.17-.36-3.83-2.33-4.68-3.36-8.19-9.97,3.73-25.32,15.21-17.41Z"/>
                    </g>
                    <path class="cls-35" d="m116.51,103.54c2.98,2.78,3.45,7.75,2.05,11.41-1.48,3.88-6.39,7.08-10.53,6.73-4.24-.36-8.47-5.02-8.19-10.09.43-7.84,10.46-13.83,16.67-8.04Z"/>
                  </g>
                </g>
              </g>
            </g>
          </g>
        </g>
      </g>
    </g>
  </g>
</svg>