<?xml version="1.0" encoding="UTF-8"?>
<svg id="Camada_2" data-name="Camada 2" xmlns="http://www.w3.org/2000/svg" viewBox="0 0 215.76 221.53">
  <defs>
    <style>
      .cls-1 {
        fill: #656565;
      }

      .cls-1, .cls-2, .cls-3, .cls-4, .cls-5, .cls-6, .cls-7, .cls-8, .cls-9, .cls-10, .cls-11, .cls-12, .cls-13, .cls-14, .cls-15, .cls-16, .cls-17, .cls-18, .cls-19, .cls-20, .cls-21, .cls-22, .cls-23, .cls-24, .cls-25, .cls-26, .cls-27, .cls-28, .cls-29, .cls-30, .cls-31, .cls-32, .cls-33, .cls-34, .cls-35 {
        stroke-width: 0px;
      }

      .cls-2 {
        fill: #e4e4e4;
      }

      .cls-3 {
        fill: #7d7d7d;
      }

      .cls-4 {
        fill: #250f0b;
      }

      .cls-5 {
        fill: #474747;
      }

      .cls-6 {
        fill: #6b6b6b;
      }

      .cls-7 {
        fill: #191d1f;
      }

      .cls-8 {
        fill: #190c09;
      }

      .cls-9 {
        fill: #343434;
      }

      .cls-10 {
        fill: gray;
      }

      .cls-11 {
        fill: #2d2d2d;
      }

      .cls-12 {
        fill: #737373;
      }

      .cls-13 {
        fill: #a1a1a1;
      }

      .cls-14 {
        fill: #300c08;
      }

      .cls-15 {
        fill: #373737;
      }

      .cls-16 {
        fill: #13120f;
      }

      .cls-17 {
        fill: #787878;
      }

      .cls-18 {
        fill: #202020;
      }

      .cls-19 {
        fill: #a0a0a0;
      }

      .cls-20 {
        fill: #888;
      }

      .cls-21 {
        fill: #818181;
      }

      .cls-22 {
        fill: #b1b1b1;
      }

      .cls-23 {
        fill: #595959;
      }

      .cls-24 {
        fill: #0e1713;
      }

      .cls-25 {
        fill: #858585;
      }

      .cls-26 {
        fill: #575757;
      }

      .cls-27 {
        fill: #424242;
      }

      .cls-28 {
        fill: #353535;
      }

      .cls-29 {
        fill: #8b8b8b;
      }

      .cls-30 {
        fill: #212121;
      }

      .cls-31 {
        fill: #636363;
      }

      .cls-32 {
        fill: #383838;
      }

      .cls-33 {
        fill: #cecece;
      }

      .cls-34 {
        fill: #4a4a4a;
      }

      .cls-35 {
        fill: #929292;
      }
    </style>
  </defs>
  <g id="Camada_1-2" data-name="Camada 1">
    <g>
      <path class="cls-7" d="m174.89,64.9l-2.85,4.53c-1.58-.55-5.11-.95-5.86.91-4.03,1.92-29.66,30.82-35.46,36.37,3.7,4.74,7.75,9.22,11.72,13.73l-2.4-.3c-1.86-2.1-3.95-4.01-5.56-6.34-.62.04-.22,4.92-.15,5.28.6,3.09,2.61,3.55.9,4.07-1.64-2.52-7.03-8.14-9.17-12.07-1.62,1.55-9.01,8.83-9.17,10.26-.97.35-3.49,2.72-4.51,3.77-2.59,2.68-3.69,4.75-3.91,4.98-9.38,10.21-36.7,36.74-42.37,44.51-.71.98-1.29,2.07-1.8,3.17-.33-1.03-1.96-6.04-2.1-6.34q40.27-42.33,80.53-84.65c5.07-5.04,19.77-18.96,24.94-21.58,1.03-.52,2.67-.72,3.31-1.51.08.04.21-.04.3,0,.04.02-.12.5.15.6.16.06,2.52.39,3.46.6Z"/>
      <path class="cls-24" d="m202.24,62.19c-2.29,2.12-4.57,4.27-7.36,5.73-14.84,7.77-21.89-.82-28.7,2.41.75-1.85,4.28-1.46,5.86-.91l2.85-4.53c1.37.31,2.51.49,3.91.6,8.17.66,15.78-.51,23.44-3.32Z"/>
      <g>
        <path class="cls-34" d="m195.93,150.61c.64,3.27,1.46,6.46,2.4,9.66-6.78-6.71-19.44-1.71-25.54,3.62-.47-4.16-.64-8.22,0-12.37.1-.06.8-1.04,1.8-1.51,8.96,1.68,7.42-4.67,21.34.6Z"/>
        <path class="cls-7" d="m210.65,164.49c.73,1.22,2.48,4.95,3.31,6.64-3.85-1.23-8.53-5.24-12.02-7.85-1.09-.82-2.15-1.68-3.31-2.41-.07-.26-.22-.35-.3-.6-.95-3.19-1.77-6.39-2.4-9.66,7.33,2.78,10.73,7.28,14.72,13.88Z"/>
      </g>
      <path class="cls-15" d="m142.44,120.43c3.57,4.06,21.94,24.78,24.04,26.26-.24.9-.92-.55-1.65-.91-.51-.25-.86.33-.9.3-5.26-2.98-18.97-20.39-23.89-25.95l2.4.3Z"/>
      <path class="cls-27" d="m139.13,67.32s-.73.16-.6.91c-3.12.26-5.41,2.87-7.66,4.83-4.45,3.86-37.67,36.95-43.42,43.01-4.12,4.33-15.2,14.67-15.93,19.77-10.81-1.76-5.04-2.32-6.01,6.94-4.58-.11-10.24,4.49-8.41,10.86-5.59,1.3-11.71.27-17.43,1.51-.93.2-2.2.39-3.01.91-1.25.8-1.53,2.06-1.65,2.11-1.32.6-9.4-4.36-17.58,1.51-2.94,2.11-7.72,8.61-11.87,9.05-.82,1.49-3.86,3.09-4.36,3.62,1.39-3.18,3.01-6.39,4.81-9.36,4.03-6.66,7.17-10.6,14.87-13.28,13.82-4.8,14.56,6.02,28.55-3.32,4.64-3.1,13.28-14.64,17.58-19.16,6.18-6.5,12.67-12.73,18.93-19.16.19-.2.4-.4.6-.6,1.63-1.68,3.17-3.46,4.81-5.13,2.28-2.34,4.63-4.61,6.91-6.94,2.03-2.08,4.27-3.96,6.31-6.04.86-.87,1.6-1.9,2.4-2.72,13.56-13.77,27.3-27.28,40.57-41.35l3.01,9.81c-3.52,4.07-8.8,7.83-11.42,12.22Z"/>
      <path class="cls-7" d="m86.54,107.45c-.2.21-.41.4-.6.6-6.14-5.95-30.71-34.46-34.86-36.82-.39-1.73-4.47-2.07-6.16-2.41-1.24-.92,1.12-.84.15-3.02,3.43,1.16,3.83.81,7.06,3.32,1.98,1.53,33.16,34.19,34.41,36.37.27.46.6.85.6.91,0,.12-.75.43-.6,1.06Z"/>
      <path class="cls-16" d="m50.18,61.88c-3.73,3.21-9.32,2.5-5.11,3.92.97,2.18-1.39,2.1-.15,3.02,1.69.34,5.77.68,6.16,2.41-8.94-5.09-13.47,4.38-29.15-3.02l6.01-2.41c5.49.52,9.03-.11,14.12-2.11,1.96,1.74,5.85-1.43,8.11-1.81Z"/>
      <path class="cls-27" d="m164.68,60.07c-1.74,1.71-12.94,15.3-13.97,15.39-1.82.16.32-3.82-4.66-6.64-2.14-1.21-4.48-1.77-6.91-1.51,2.62-4.4,7.89-8.15,11.42-12.22l-3.01-9.81c1.07-1.13,2.01-2.41,3.31-3.32,2.49,7.25,7.59,13.7,13.82,18.11Z"/>
      <path class="cls-7" d="m74.83,53.13c-.6-.34-2.01-1.05-2.4-.3-.86-.8-1.73-1.57-2.55-2.41-1.55,2.06-8.33,10.9-9.92,11.47-3.48,1.24-7.36-1.4-9.77,0,3.54-3.34,7.87-6.37,9.62-11.17,2.26-2.7,3.99-5.7,5.11-9.05l9.92,11.47Z"/>
      <path class="cls-7" d="m106.98,86.63c-.8.81-1.55,1.84-2.4,2.72-5.21-5.19-9.21-5.89-5.11-9.05.04-.03.45.05.9-.3,2.17,2.25,4.21,4.62,6.61,6.64Z"/>
      <path class="cls-7" d="m116.9,121.34c-.52,4.67,7.46,10.06,11.27,4.83,1.22.24.33.48,1.65.3,1.61-.21,3.17-.45,4.81-.3.03.1-.03.23,0,.3-4.95.65-7.15,3.69-7.51,3.92-6.49,4.23-8.08-.38-14.42.15,2.12,3.12,4.47,6.03,6.91,8.9l-.9,1.51c-3.37-3.65-6.71-7.34-10.22-10.86.21-.23,1.32-2.3,3.91-4.98,1.02-1.05,3.54-3.43,4.51-3.77Z"/>
      <path class="cls-7" d="m151.75,172.94c-.32.85-.65,1.85-.9,2.72-10.38-11.88-21.45-23.12-32.15-34.71l.9-1.51c7.08,8.33,31.22,30.35,32.15,32.44.15.33-.76.85,0,1.06Z"/>
      <path class="cls-15" d="m169.78,208.25c.76.37,2.26.57,3.61,1.21,3.85,1.81,7.86,3.35,11.72,5.13,2.03.94,4.16,2.03,6.01,3.32-2.3,1.9-5.57,3-8.41,3.62-12.19-2.44-21.4-7.15-28.85-17.5,5.31,1.29,10.35,4.21,15.93,4.23Z"/>
      <path class="cls-8" d="m135.23,123.15c.18.27.37.55.3.91-.78-.17-1.61-2.11-1.95-2.11-.29,0-3.3,3.92-3.76,4.53-1.33.17-.43-.06-1.65-.3-3.8,5.23-11.79-.15-11.27-4.83.16-1.43,7.54-8.71,9.17-10.26,2.13,3.93,7.52,9.56,9.17,12.07Z"/>
      <path class="cls-15" d="m134.63,126.47s.06-.06.3.3c-.99,1.01-3.97,3.03-5.11,3.62-.1.05-.46-.54-2.1.45,1.58,1.34,2.67,3.45,3.61,2.57-1.51,1.59-3.39-1.24-4.21-3.02.36-.24,2.56-3.27,7.51-3.92Z"/>
      <path class="cls-11" d="m135.53,124.05v.3c-1.14.21-1.08,1.09-.9,1.81-1.64-.15-3.19.09-4.81.3.45-.6,3.46-4.53,3.76-4.53.34,0,1.18,1.94,1.95,2.11Z"/>
      <g>
        <path class="cls-15" d="m140.03,120.13c4.92,5.57,18.63,22.97,23.89,25.95.04.02.39-.55.9-.3.74.35,1.42,1.8,1.65.91,2.3,1.61,5.37,2.8,8.11,3.32-1.01.47-1.7,1.45-1.8,1.51-9.99,6.37-16.5,9.32-21.04,21.43-.76-.2.15-.72,0-1.06-.93-2.09-25.08-24.12-32.15-32.44-2.44-2.87-4.79-5.78-6.91-8.9,6.34-.53,7.93,4.08,14.42-.15.82,1.78,2.7,4.6,4.21,3.02,1.33-1.4-.15-.94-1.5-3.02,1.14-.59,4.12-2.61,5.11-3.62.15.23,3.21,4.1,3.46,4.23,2.55,1.34,1.82-1.52-1.95-5.73-.1-.11.06-.91-.6-.91-.1,0-.21-.02-.3,0v-.3c.07-.36-.12-.63-.3-.91,1.71-.53-.3-.98-.9-4.07-.07-.36-.47-5.25.15-5.28,1.61,2.33,3.7,4.23,5.56,6.34Z"/>
        <g>
          <path class="cls-12" d="m129.82,130.39c1.35,2.08,2.84,1.62,1.5,3.02-.93.88-2.02-1.22-3.61-2.57,1.64-.99,2.01-.4,2.1-.45Z"/>
          <g>
            <path class="cls-26" d="m151.15,156.34c-4.89,2.24-6.38-1.1-6.31-1.66.06-.5,7.48-4.69,8.41-5.43.2-1.06-14.88-8.18-15.78-8.3-1.11-.14-2.87.41-4.06.6.24-1.9,7.58-10.65,8.26-10.56,2.04,2.57,14.39,14.78,14.57,16.45.3,2.7-2.85,7.52-5.11,8.9Z"/>
            <path class="cls-7" d="m151.15,156.34c-1.67,1.02-4.72,1.7-6.46.91-.89-.41-11.63-12.82-11.27-15.69,1.19-.19,2.94-.75,4.06-.6.89.12,15.98,7.24,15.78,8.3-.93.74-8.35,4.93-8.41,5.43-.07.56,1.42,3.9,6.31,1.66Z"/>
            <path class="cls-5" d="m135.53,124.35c.09-.02.2,0,.3,0l.6.91c3.78,4.21,4.51,7.07,1.95,5.73-.24-.13-3.31-4-3.46-4.23-.24-.36-.29-.28-.3-.3-.03-.07.03-.2,0-.3-.17-.72-.23-1.6.9-1.81Z"/>
            <path class="cls-8" d="m136.43,125.26l-.6-.91c.67,0,.51.8.6.91Z"/>
          </g>
        </g>
      </g>
      <path class="cls-15" d="m166.18,60.98c-1.92.51,1.08,2.71,1.5,4.23-5.17,2.62-19.87,16.54-24.94,21.58q-40.27,42.33-80.53,84.65c-3.24-6.7-14.72-15.85-22.54-16.3,5.72-1.24,11.84-.21,17.43-1.51,2.93,10.2,21.51,7.39,16.53-6.94,4.16,1.38,7.46-1.02,10.22-3.62,6.65-6.28,24.11-27.13,33.06-36.37,5.1-5.27,10.46-10.48,15.78-15.54,2.89-2.75,6.31-5.12,9.17-7.85,1-.95,1.73-1.92,2.7-2.87-1.36-1.24.79-2.96-.3-7.09,1.6,2.42.67,3.72.45,6.34.57.3,3.37-3.33,3.76-3.92.03-.04.8.05.9-.45.53-2.52-2.1-4.55-3.31-6.49,4.98,2.82,2.84,6.8,4.66,6.64,1.03-.09,12.24-13.68,13.97-15.39.12.09.98.57,1.5.91Z"/>
      <path class="cls-7" d="m166.18,60.98c1.01.64,3.87,2.31,4.81,2.72-.63.79-2.27.99-3.31,1.51-.43-1.51-3.43-3.72-1.5-4.23Z"/>
      <path class="cls-5" d="m71.52,135.82c-.66,4.63,1.67,8.67,6.61,8.75,2.42-.33,3.95-.38,5.71-1.51-2.76,2.6-6.06,5-10.22,3.62-1.17-.39-3.46-3.81-8.11-3.92.97-9.26-4.8-8.7,6.01-6.94Z"/>
      <path class="cls-16" d="m98.26,95.38c-2.28,2.33-4.63,4.6-6.91,6.94-2.87-5.39,1.7-11.21,6.91-6.94Z"/>
      <g>
        <path class="cls-21" d="m172.79,151.52c-.64,4.15-.47,8.21,0,12.37-6.28,5.48-7.54,10.24-10.22,17.2-.02.04-.44-.13-.3.91-2.78,5.59-1.61,15.11,1.5,20.52,1.72,2.99,2.91,4.24,6.01,5.73-5.57-.02-10.61-2.94-15.93-4.23-1.2-1.66-2.65-3.81-3.31-5.73-2.56-7.47-1.89-15.15.3-22.63.25-.87.58-1.87.9-2.72,4.53-12.11,11.05-15.06,21.04-21.43Z"/>
        <path class="cls-25" d="m162.27,182c-.14-1.03.28-.86.3-.91.14,1.03-.28.86-.3.91Z"/>
      </g>
      <g>
        <path class="cls-8" d="m193.52,160.87c2.2,1.56,4.67,2.75,6.91,4.23,4.82,3.16,9.27,7,14.42,9.66-.28.7-.55,1.46-.9,2.11-1.22,2.26-3.18,4.32-4.36,6.64q-10.59-6.19-21.19-12.37c-.2-1.49.25-2.45.3-3.02.18-2.2,1.78-4.35-7.96-1.21-2.24.72-4.29,2.12-6.46,3.02,3.42-3.55-1.63,1.05-.9-3.02,5.1-3.47,14.04-6.9,20.13-6.04Z"/>
        <path class="cls-12" d="m177,177.47c.96-.29,2.09-.43,3.01-.91-1.82,3.51-7.82,12.66-6.91,16.3.26,1.03.46,1.19,1.2,1.81-1.36,1.33-1.78,5.11-2.4,7.24-.23.78-1.03,1.75-.9,2.72-4.28-5.95-4.71-13.55-4.51-20.67.42-.63.89-.4.9-.45,4.59,3.86,9.52-3.15,1.5-3.62.87-1.27,1.45-2.7,2.4-3.92q2.33,1.21,4.66,2.41c1.27.1.99-.89,1.05-.91Z"/>
        <path class="cls-8" d="m180.6,198.29c-.72,1.03-1.87-1.33-3.46-.6-2.72,1.25,5.07,4.3,5.41,4.53.67.44.32,1.03.6,1.21.98.62,8.81,4.98,9.32,4.83.77-.23.4-1.92,1.35-2.11l-.9,9.96-6.31-3.32c1.51.52,2.95,1.05,4.36,1.81.37-3.18-4.3-3.27-6.61-4.53-4.37-2.37-8.37-5.37-12.47-8.15.63-2.13,1.05-5.92,2.4-7.24.28.23,5.11,2.9,6.31,3.62Z"/>
        <path class="cls-4" d="m180.6,198.29c1.95,1.18,12.84,6.62,13.22,7.85-.95.19-.58,1.89-1.35,2.11-.5.15-8.33-4.21-9.32-4.83-.28-.18.07-.77-.6-1.21-.34-.23-8.13-3.28-5.41-4.53,1.58-.72,2.74,1.63,3.46.6Z"/>
        <path class="cls-5" d="m213.96,171.13c.42.86,1.22,1.79,1.8,2.57-.23.23-.88.99-.9,1.06-5.15-2.65-9.61-6.5-14.42-9.66.51-.84,1.78-.7,1.5-1.81,3.49,2.61,8.17,6.61,12.02,7.85Z"/>
        <path class="cls-9" d="m184.81,173.55c-5.07,3.28-8.14,10.42-10.52,15.99-.47,1.1-1.09,2.07-1.2,3.32-.91-3.63,5.09-12.78,6.91-16.3.25-.13,3.87-2.43,4.81-3.02Z"/>
        <path class="cls-5" d="m186.61,212.78l6.31,3.32c.11.46-.96,1.12-1.8,1.81-1.85-1.29-3.98-2.38-6.01-3.32,2.35-1.06-1.12-.58,0-2.11.65.24,1.36.25,1.5.3Z"/>
        <path class="cls-17" d="m198.33,160.27c.08.26.23.35.3.6.27.92.91,1.22.45,1.81-1.82-.71-3.6-1.53-5.56-1.81-6.1-.87-15.03,2.57-20.13,6.04-4.93,3.35-7.71,7.48-9.02,13.28-1.28,5.66-1.34,18.46,1.5,23.54-.82,1.35-.86-.75-2.1-1.21-3.11-5.41-4.28-14.93-1.5-20.52.02-.04.44.12.3-.91,2.68-6.96,3.94-11.73,10.22-17.2,6.11-5.33,18.76-10.34,25.54-3.62Z"/>
        <path class="cls-1" d="m198.63,160.87c1.15.73,2.21,1.6,3.31,2.41.28,1.11-.99.97-1.5,1.81-2.24-1.47-4.71-2.67-6.91-4.23,1.96.28,3.74,1.1,5.56,1.81.46-.59-.18-.89-.45-1.81Z"/>
        <path class="cls-28" d="m165.88,203.73c2.6,4.64,4.63,1.52,5.11,1.51.93-.02,5.08,3.1,6.16,3.62.94.45,4.86.93,5.26,2.41-1.83-.63-4.23-2.15-6.16-2.41-1.4-.19-3.79-.13-2.85.6-1.35-.63-2.85-.84-3.61-1.21-3.1-1.5-4.29-2.74-6.01-5.73,1.24.45,1.28,2.56,2.1,1.21Z"/>
        <path class="cls-12" d="m188.72,168.11c-.05.57-.5,1.53-.3,3.02-.31.8-2.82,1.93-3.61,2.41-.94.59-4.56,2.89-4.81,3.02-.91.48-2.05.61-3.01.91l-2.4-4.53,14.12-4.83Z"/>
        <path class="cls-34" d="m188.72,168.11l-14.12,4.83c-1.3.6-2.44,1.9-3.31,3.02-.95,1.22-1.54,2.65-2.4,3.92-1.11-.07-.86.29-.9.3-.25.06-.62-.04-.9,0,2.89-4.94-.16-2.61,7.21-10.26,2.17-.9,4.22-2.29,6.46-3.02,9.75-3.14,8.15-1,7.96,1.21Z"/>
        <path class="cls-30" d="m174.29,169.92c-7.37,7.65-4.32,5.33-7.21,10.26-.79,1.35-.16,2.04-2.7,0,1.31-5.8,4.08-9.92,9.02-13.28-.73,4.07,4.32-.53.9,3.02Z"/>
        <path class="cls-1" d="m182.41,211.27c1.52.52,2.57,1.16,2.7,1.21-1.12,1.53,2.35,1.05,0,2.11-3.86-1.78-7.87-3.32-11.72-5.13-.93-.73,1.46-.79,2.85-.6,1.93.26,4.33,1.79,6.16,2.41Z"/>
        <path class="cls-11" d="m167.08,180.19c.29-.04.65.06.9,0-.68,1.5-.49,2.91-.6,3.32-.01.05-.48-.18-.9.45-.2,7.12.23,14.72,4.51,20.67v.6c-.48,0-2.51,3.13-5.11-1.51-2.84-5.08-2.78-17.88-1.5-23.54,2.55,2.04,1.91,1.35,2.7,0Z"/>
        <path class="cls-14" d="m186.61,212.78c-.14-.05-.85-.06-1.5-.3-.14-.05-1.18-.68-2.7-1.21-.4-1.48-4.32-1.97-5.26-2.41-1.08-.52-5.23-3.64-6.16-3.62v-.6c-.12-.97.67-1.93.9-2.72,4.11,2.78,8.1,5.78,12.47,8.15,2.31,1.25,6.98,1.34,6.61,4.53-1.41-.76-2.84-1.29-4.36-1.81Z"/>
        <path class="cls-16" d="m168.88,179.88c8.02.47,3.08,7.48-1.5,3.62.11-.41-.08-1.82.6-3.32.05-.01-.21-.37.9-.3Z"/>
        <path class="cls-16" d="m177,177.47c-.07.02.22,1-1.05.91q-2.33-1.21-4.66-2.41c.87-1.12,2-2.41,3.31-3.02l2.4,4.53Z"/>
      </g>
      <g>
        <path class="cls-15" d="m74.83,53.13c1.61.92,22,23.19,25.54,26.86-.45.35-.86.27-.9.3-.08-.19.32-.42.3-.45-.25-.41-5.98-6.07-6.76-6.79-.17-.15-.77.27-3.61-2.41-6.09-5.77-12.98-14.08-16.98-17.81.39-.75,1.81-.04,2.4.3Z"/>
        <path class="cls-15" d="m72.42,52.83c4,3.72,10.88,12.03,16.98,17.81,2.84,2.69,3.44,2.26,3.61,2.41.78.72,6.51,6.38,6.76,6.79.02.03-.38.26-.3.45-4.1,3.16-.1,3.86,5.11,9.05-2.04,2.08-4.28,3.96-6.31,6.04-5.21-4.27-9.78,1.55-6.91,6.94-1.63,1.67-3.18,3.45-4.81,5.13-.15-.63.61-.93.6-1.06,0-.05-.33-.44-.6-.91-1.25-2.17-32.43-34.83-34.41-36.37-3.23-2.51-3.63-2.16-7.06-3.32-4.21-1.42,1.38-.72,5.11-3.92,2.4-1.4,6.29,1.24,9.77,0,1.59-.57,8.36-9.4,9.92-11.47.82.85,1.69,1.61,2.55,2.41Z"/>
        <path class="cls-24" d="m87.15,82.41c-2.09-.42-4.69-.49-6.31,1.21-1.38-1.25-9.54-5.99-9.92-6.79-1.54-3.23,1.51-7.68,4.66-6.79.9.26,9.01,10.76,9.77,11.32,1.34.99,1.9-.65,1.8,1.06Z"/>
        <path class="cls-1" d="m87.15,82.41c5.35,1.08,7.98,6.11,3.01,9.81.55-1.57.57-3.04.3-4.68-.8-4.87-11.18-4.36-9.62,1.81-2.46-.07-1.16-4.52,0-5.73,1.62-1.69,4.22-1.63,6.31-1.21Z"/>
        <path class="cls-11" d="m90.45,87.54c-2.55.07-7.62,1.87-9.62,1.81-1.57-6.17,8.81-6.68,9.62-1.81Z"/>
      </g>
      <g>
        <g>
          <path class="cls-1" d="m187.51,1.53c.18.1.43.19.6.3-3.88,3.12-9.35,4.63-14.12,6.04,3.64-3.13,8.01-5.52,12.62-6.64.04.02.27-.03.9.3Z"/>
          <path class="cls-8" d="m191.72,10.88c-3.5,1.63-14.85,9.78-19.83,12.37-.82-2.34-2.18-5.29-2.1-7.85,0-.31.96-3.33,1.2-3.92.05-.12.02-1.06.9-2.41l2.1-1.21c4.77-1.4,10.24-2.91,14.12-6.04,2.94,1.93,4.02,5.79,3.61,9.05Z"/>
        </g>
        <path class="cls-35" d="m212.76,35.63c-6.69,3.67-12.24,9.17-18.33,13.58-1.68-1.47-3.36-3.16-5.11-4.53,5.62-5.87,12.97-9.61,19.38-14.49.63-.03,3.58,4.64,4.06,5.43Z"/>
        <path class="cls-33" d="m189.32,44.68c1.75,1.36,3.43,3.06,5.11,4.53-.42.3-.43.44-1.2.91-4.08-.45-17.58-3.37-20.13-6.04-1.08-1.13-.56-1.73-.6-1.81,1.78-.16,1.62.43,3.61-.3,1.41-.51,3.71-2.93,5.11-3.92,1.7,1.96,4.15,4.07,6.16,5.73,1.09.9,1.87.84,1.95.91Z"/>
        <path class="cls-8" d="m212.76,35.63c.34.57.59,1.24.9,1.81-6.41,4.7-12.71,9.59-18.33,15.24.79,1.58,18.39-12.41,19.83-13.13l.3.75c-.42.56-.72,1.3-.9,1.96-.44,0-.17-.79-.75-.6-1.08.34-7.93,9.2-19.08,11.77.29-1.65-.36-2.35-2.1-2.72.58-.25.56-.58.6-.6.77-.46.78-.6,1.2-.91,6.09-4.41,11.64-9.91,18.33-13.58Z"/>
        <path class="cls-11" d="m213.66,37.44c.06.11,1.02.82,1.5,2.11-1.44.72-19.04,14.71-19.83,13.13,5.62-5.65,11.93-10.54,18.33-15.24Z"/>
        <path class="cls-30" d="m177.3,32.31c.73,1.08,1.7,2.88,1.8,3.02-2.37,3.98-5.68,3.88-3.01,6.64-1.99.73-1.82.15-3.61.3-.76-1.43-.91-2.32-1.2-3.02,1.22-.3,2.25-.83,3.31-1.51,1.32-.84,2.55-1.75,3.31-3.17-2.46-2.86-4.05-6.11-5.41-9.51,1.79,2.29,3.19,4.84,4.81,7.24Z"/>
        <path class="cls-12" d="m181.2,38.04c-1.4,1-3.7,3.41-5.11,3.92-2.67-2.76.64-2.66,3.01-6.64.66.87,1.4,1.91,2.1,2.72Z"/>
        <path class="cls-17" d="m171.89,9.07c-.88,1.35-.85,2.3-.9,2.41-4.28.7-5.8,3.88-6.61,7.85-1.59,7.84-.45,16.34,3.61,23.24-6.94-7.92-9.67-25.84-3.31-30.78.31-.24,6.18-2.98,7.21-2.72Z"/>
        <path class="cls-24" d="m171.89,45.59c.3.2.59.41.9.6,5.32,3.29,13.74,7.18,19.83,4.53,1.74.37,2.4,1.07,2.1,2.72-.87.2-1.96.82-2.85.91-1.92.19-7.93-.17-9.77-.6-2.84-.67-6.9-3.09-9.02-5.13-.18-.17-2.63-3.26-3.01-3.92,1.16.93,1.72.85,1.8.91Z"/>
        <g>
          <path class="cls-6" d="m186.61,1.22c-4.61,1.12-8.98,3.51-12.62,6.64l-2.1,1.21c-1.03-.27-6.9,2.48-7.21,2.72l-4.21-4.83c5.04-3.21,10.54-5.9,16.53-6.64,3.96-.49,5.88-.58,9.62.91Z"/>
          <path class="cls-15" d="m214.56,42.27c-1.02,3.7-3.6,9.13-5.71,12.37-2.17,3.34-3.74,4.89-6.61,7.54-7.66,2.81-15.27,3.98-23.44,3.32.8-2.67,1.29-5.5,2.1-8.15.37-1.19,1.21-2.3,1.2-3.62,1.84.44,7.85.79,9.77.6.9-.09,1.98-.71,2.85-.91,11.15-2.57,18-11.43,19.08-11.77.58-.18.31.61.75.6Z"/>
          <path class="cls-21" d="m160.47,6.96l4.21,4.83c-6.36,4.94-3.63,22.86,3.31,30.78.63.72,1.35,1.51,2.1,2.11.38.66,2.83,3.75,3.01,3.92-.59,2.14-1.61,3.81-2.1,6.04-.81,3.66-.91,5.45.3,9.05-.09-.04-.22.04-.3,0-.94-.41-3.8-2.07-4.81-2.72-.52-.33-1.38-.82-1.5-.91-6.23-4.41-11.33-10.86-13.82-18.11-5.23-15.21-4.32-26.13,9.62-35.01Z"/>
          <path class="cls-15" d="m180.9,57.36c-.82,2.65-1.31,5.48-2.1,8.15-1.4-.11-2.54-.3-3.91-.6-.93-.21-3.29-.54-3.46-.6-.27-.1-.11-.59-.15-.6-1.21-3.61-1.11-5.39-.3-9.05,3.34,1.81,5.96,3.15,9.92,2.72Z"/>
          <path class="cls-23" d="m182.1,53.74c.01,1.32-.84,2.44-1.2,3.62-3.96.44-6.57-.91-9.92-2.72.49-2.23,1.52-3.9,2.1-6.04,2.12,2.04,6.18,4.46,9.02,5.13Z"/>
        </g>
        <path class="cls-11" d="m167.98,31.4c0,.32-.76.38-.6,1.96.68,2.78,1.17,2.13,1.2,2.26.43,1.92,1.1,7.48,2.4,8.15.25.62.64,1.19.9,1.81-.08-.06-.65.02-1.8-.91-.75-.61-1.47-1.39-2.1-2.11-4.05-6.9-5.2-15.4-3.61-23.24.94.09,2.53-1.6,4.81-3.32-1.16,6.03-1.34,9.37-1.2,15.39Z"/>
        <path class="cls-12" d="m171.89,23.26c.2.58.37,1.24.6,1.81,1.36,3.39,2.95,6.65,5.41,9.51-.75,1.42-1.99,2.33-3.31,3.17.05-1.3.07-2.33-.3-3.62-1.21-4.16-2.59-5.3-6.31-2.72-.14-6.02.04-9.37,1.2-15.39.03-.03.14-.55.6-.6-.08,2.56,1.28,5.51,2.1,7.85Z"/>
        <path class="cls-18" d="m169.78,15.41c-.47.05-.57.58-.6.6-2.28,1.72-3.87,3.41-4.81,3.32.81-3.97,2.33-7.15,6.61-7.85-.24.59-1.19,3.61-1.2,3.92Z"/>
        <path class="cls-29" d="m193.22,50.11s-.02.35-.6.6c-6.1,2.66-14.52-1.23-19.83-4.53l.3-2.11c2.56,2.66,16.05,5.59,20.13,6.04Z"/>
        <path class="cls-6" d="m172.49,42.27c.04.08-.48.68.6,1.81l-.3,2.11c-.31-.19-.6-.4-.9-.6-.26-.62-.65-1.19-.9-1.81-.49-1.22-1.55-1.24,1.5-1.51Z"/>
        <path class="cls-29" d="m174.59,37.74c-1.06.67-2.08,1.21-3.31,1.51-.47-1.12-1.47-2.32-1.5-3.62,1.5-.04,3.29-.57,4.51-1.51.37,1.29.35,2.32.3,3.62Z"/>
        <path class="cls-11" d="m169.78,35.63c.03,1.3,1.03,2.5,1.5,3.62.29.7.44,1.58,1.2,3.02-3.05.27-2,.29-1.5,1.51-1.31-.67-1.97-6.23-2.4-8.15.4,0,.8.01,1.2,0Z"/>
        <path class="cls-8" d="m174.29,34.12c-1.21.94-3,1.47-4.51,1.51-.4.01-.8,0-1.2,0-.03-.14-.52.52-1.2-2.26-.16-1.58.61-1.64.6-1.96,3.72-2.59,5.1-1.44,6.31,2.72Z"/>
      </g>
      <g>
        <path class="cls-11" d="m28.25,1.83c1.41.35,2.16-.32,5.71,1.21-.88.99-2.79-1.3-4.66-.6-2.5.93.87,2.12,1.65,2.41,2.36,4.41,4.95,9,6.01,13.88-4.2-2.42-8.44-4.78-12.62-7.24-.04-2.36-.11-4.74.9-6.94.04-.08-.04-.23,0-.3.37-.69,1.88-1.98,2.7-2.41.09.02.21-.02.3,0Z"/>
        <path class="cls-11" d="m18.33,63.09c3.64,1.62,5.5,2.33,9.62,2.72l-6.01,2.41c-3.9-1.84-7.59-4.64-10.52-7.85-.45-.5-.66-1.22-.9-1.51,2.76,1.11,5.09,3.01,7.81,4.23Z"/>
        <path class="cls-5" d="m56.19,21.75c.21,5.89,5.19,13.89,9.62,17.81-.07.55-.71,1.56-.9,2.11-1.12,3.35-2.85,6.36-5.11,9.05-3.79,4.54-12.22,10.81-17.73,12.98-5.09,2-8.63,2.63-14.12,2.11-4.12-.39-5.98-1.09-9.62-2.72-.12-2.48-2.11-10.6-3.01-12.68-.04-.08.03-.21,0-.3.95-.07.85-.31,1.8,0,1.43.46,3.78,2.76,6.76,3.62,21.88,6.3,38.38-17.85,28.1-34.4l1.8-3.32c.06.75,1.91,4.8,2.4,5.73Z"/>
        <path class="cls-11" d="m64.01,33.52c.03,1.82,1.88,3.73,1.8,5.73,0,.1.01.2,0,.3-4.42-3.92-9.41-11.92-9.62-17.81,1.14,2.13,6.02,8.69,7.81,11.77Z"/>
        <path class="cls-8" d="m42.07,7.86c1.77.83,3.66,1.25,5.41,2.11.05.07-.05.24,0,.3-.42-.15-3.01-.99-3.16-.91-.31,5.22,4.06,4.17,7.66,9.96,10.29,16.55-6.22,40.7-28.1,34.4-2.98-.86-5.34-3.17-6.76-3.62q3.91-3.92,7.81-7.85c.61.66.5,1.76,1.2,2.41-2.36,1.79-4.76,3.54-6.91,5.58,1.01.2,2,.57,3.01.75,4.22.75,7.98.42,12.02-.6,4.01-1.01,6.5-2.52,9.62-5.13,6.25-5.23,8.57-11.46,7.21-19.62-.53-3.15-4.5-10.94-5.56-10.56-.75.47-.32,1.2-.45,1.81-.42,2.02-.48,3.39-1.2,5.73-2.4-1.13-4.62-2.6-6.91-3.92-1.06-4.88-3.65-9.47-6.01-13.88,3.88.24,10.43,4.63,11.12,3.02Z"/>
        <path class="cls-11" d="m24.94,42.27q-3.91,3.92-7.81,7.85c-.96-.31-.85-.07-1.8,0-.63-1.31-12.21-11.56-13.07-11.47-.38.04-.87,1.53-1.05,1.81-.02.03-.47.27-.6.3,0-.04-.26.02-.6-.45.94-1.43,5.38-9.02,6.76-8.9,3.23,2.52,16.76,9.31,18.18,10.86Z"/>
        <path class="cls-17" d="m12.92,49.51c.12.04,1,.81,2.4.91.89,2.07,2.88,10.2,3.01,12.68-2.73-1.22-5.05-3.12-7.81-4.23-3.98-4.83-5.63-8.17-8.11-13.88,3.57,1.67,6.82,3.29,10.52,4.53Z"/>
        <path class="cls-6" d="m12.92,49.51c-3.7-1.23-6.95-2.86-10.52-4.53-.63-1.45-1.44-2.35-1.8-4.23.13-.03.58-.27.6-.3,1.31,2.43,11.61,7.87,12.17,8.45.41.43.05.71-.45.6Z"/>
        <path class="cls-26" d="m33.96,3.04c2.76,1.56,5.23,3.47,8.11,4.83-.69,1.61-7.24-2.78-11.12-3.02-.78-.3-4.15-1.48-1.65-2.41,1.87-.69,3.78,1.6,4.66.6Z"/>
        <path class="cls-11" d="m50.18,61.88c-2.27.38-6.15,3.55-8.11,1.81,5.51-2.17,13.94-8.44,17.73-12.98-1.74,4.8-6.08,7.83-9.62,11.17Z"/>
        <path class="cls-17" d="m47.48,10.28c.37.49.92.68,1.5.6,1.63.98,3.62,3.32,4.81,4.83,0,.1,0,.2,0,.3l-1.8,3.32c-3.6-5.79-7.97-4.74-7.66-9.96.15-.09,2.74.75,3.16.91Z"/>
        <path class="cls-1" d="m15.33,50.11c.03.09-.04.22,0,.3-1.41-.1-2.28-.86-2.4-.91.5.11.86-.18.45-.6-.56-.58-10.86-6.02-12.17-8.45.19-.28.67-1.77,1.05-1.81.87-.09,12.44,10.16,13.07,11.47Z"/>
        <g>
          <path class="cls-6" d="m39.97.62c.38.06,1.42.59,1.5.6,2.11,2.84,3.99,5.86,6.01,8.75-1.75-.86-3.64-1.28-5.41-2.11-2.88-1.36-5.36-3.27-8.11-4.83-3.55-1.53-4.3-.86-5.71-1.21C31.77-.5,36.09,0,39.97.62Z"/>
          <path class="cls-11" d="m56.49,9.37l-.3,1.06c3.21,4.8,5.42,10.73,8.41,15.24-.04,2.46-.04,4.94,0,7.39,0,.24-.6.12-.6.15-2.48-4.64-7.31-13.82-10.22-17.5l1.2-7.24c.07.05.23-.12,1.5.91Z"/>
          <path class="cls-34" d="m54.99,8.47l-1.2,7.24c-1.19-1.51-3.17-3.84-4.81-4.83-1.07-.65-.87-.37-1.5-.6-.05-.06.05-.23,0-.3-2.02-2.89-3.9-5.91-6.01-8.75,8.6,1.93,7.38,2.62,13.52,7.24Z"/>
          <path class="cls-16" d="m65.81,39.25c.07-2-1.78-3.91-1.8-5.73,0-.1,0-.2,0-.3,0-.03.61.09.6-.15-.04-2.46-.04-4.94,0-7.39.04-2.63-.07-5.23.3-7.85,3.83,6.79,3.31,14.12.9,21.43Z"/>
          <path class="cls-32" d="m64.91,17.82c-.37,2.61-.26,5.22-.3,7.85-3-4.51-5.2-10.44-8.41-15.24l.3-1.06c3.77,3.04,5.8,3.82,8.41,8.45Z"/>
          <path class="cls-4" d="m64.01,33.21c0,.1,0,.2,0,.3-1.79-3.08-6.67-9.64-7.81-11.77-.5-.93-2.35-4.99-2.4-5.73,0-.1,0-.2,0-.3,2.91,3.68,7.74,12.87,10.22,17.5Z"/>
          <path class="cls-27" d="m48.98,10.88c-.59.07-1.13-.11-1.5-.6.63.23.43-.04,1.5.6Z"/>
        </g>
        <path class="cls-6" d="m43.87,45.29c-1.35-.35-1.65,2.1-2.1-1.81,2.39-1.74,1.4-2,1.5-2.11,1.04-1.07,1.16-1.08,2.1-2.41.12-.17,1.2-.53,2.4-3.32.38-.88,0-.58,0-.6.5-1.46.71-1.58.9-3.32.06-.59.29-1.12.3-1.81,2.07-.74,1.2-3.14,2.1-4.23,1.36,8.16-.96,14.39-7.21,19.62Z"/>
        <path class="cls-6" d="m51.09,25.67c-.91,1.09-.04,3.48-2.1,4.23.08-3.59-1.63-10.59-3.91-12.98.13-.61-.3-1.34.45-1.81,1.05-.38,5.03,7.41,5.56,10.56Z"/>
        <g>
          <path class="cls-33" d="m39.37,33.82c.17,2.19-3.44,5.12-.75,7.24.91.72,1.29-.01,1.35,0,1.14.22,2.12.46,3.31.3-.1.11.89.37-1.5,2.11-1.12.81-6.77,3.29-8.41,3.92-3.6,1.39-7.61,1.95-11.12,3.62-1.01-.18-2-.55-3.01-.75,2.15-2.04,4.55-3.8,6.91-5.58,5.4-4.09,7.5-5.04,11.72-10.86.44.27,1.06.1,1.5,0Z"/>
          <path class="cls-31" d="m42.07,32.61c0,.19-.04.45,0,.6-.97-.09-1.8.4-2.7.6-.44.1-1.06.27-1.5,0,.82-1.14,1.69-2.41,2.4-3.62.23-.39.29-.28.3-.3,1.02.68.18,2.71,1.5,2.72Z"/>
          <path class="cls-33" d="m48.98,29.89c-.02.69-.24,1.22-.3,1.81-1.95-3.57-6.53-1.97-6.61.91-1.32,0-.48-2.04-1.5-2.72,1.26-2.19,2.55-4.82,3.31-7.24.73-2.34.78-3.71,1.2-5.73,2.28,2.38,3.99,9.39,3.91,12.98Z"/>
          <path class="cls-3" d="m41.77,43.48c.45,3.91.76,1.46,2.1,1.81-3.11,2.61-5.61,4.12-9.62,5.13-.4-.97-1.57-2-.9-3.02,1.64-.64,7.3-3.11,8.41-3.92Z"/>
          <path class="cls-20" d="m33.36,47.4c-.67,1.02.5,2.04.9,3.02-4.04,1.02-7.8,1.36-12.02.6,3.51-1.67,7.52-2.23,11.12-3.62Z"/>
          <path class="cls-16" d="m45.38,38.95c-.94,1.34-1.06,1.34-2.1,2.41-1.18.16-2.16-.08-3.31-.3-3.07-.85-.47-5.62-.15-5.73.31-.11,4.78,3.23,5.56,3.62Z"/>
          <path class="cls-2" d="m42.07,33.21c.35,1.32,4.16,3.24,5.41,2.11l.3.3c-1.21,2.79-2.29,3.15-2.4,3.32-.78-.39-5.25-3.73-5.56-3.62-.32.11-2.92,4.89.15,5.73-.07-.01-.44.72-1.35,0-2.69-2.12.92-5.05.75-7.24.91-.2,1.74-.7,2.7-.6Z"/>
          <path class="cls-16" d="m48.68,31.71c-.19,1.74-.4,1.86-.9,3.32-.37-.03-.28.29-.3.3-1.24,1.13-5.06-.79-5.41-2.11-.04-.15,0-.41,0-.6.08-2.88,4.66-4.47,6.61-.91Z"/>
          <path class="cls-19" d="m47.78,35.63l-.3-.3s-.07-.34.3-.3c0,.03.38-.27,0,.6Z"/>
        </g>
      </g>
      <g>
        <path class="cls-5" d="m39.67,155.14c7.82.45,19.3,9.6,22.54,16.3.15.3,1.77,5.31,2.1,6.34.17.53.6,2.72.9,3.92-1.29,5.16-2.55,10.68-5.71,15.09-1.79,2.5-4.97,4.94-7.51,6.64.39-1.72-.41-5.44-.3-6.64.23-2.6,4.04-9.31-.3-20.67-.38-1-2.29-5.24-3.01-4.68.02-2.55-.63-4.6-1.5-6.94-2.11-5.66-4.41-6.93-10.22-8.45.81-.52,2.07-.7,3.01-.91Z"/>
        <path class="cls-11" d="m59.8,208.25c-6.75,7.66-16.52,10.91-26.14,12.98-2.99.1-6.39-1.8-8.41-3.92.97-.89,2.19-1.44,3.31-2.11.31,1.65,7.81.21,10.07-.3,6.59-1.5,14.69-5.05,18.78-10.71,1.63-2.26,3.84-6.98,2.1-7.39,3.16-4.41,4.42-9.93,5.71-15.09.52,2.09,1.61,4.32,1.8,6.49.64,7.15-2.54,14.77-7.21,20.07Z"/>
        <path class="cls-8" d="m44.77,169.62c1.01.84,2.21,3.29,3.61,1.81.71-.56,2.62,3.68,3.01,4.68,4.34,11.36.53,18.08.3,20.67-2.9,5.45-3.75,5.2-6.61,7.24,0-.74.55-1.24.9-1.81,3.44-5.66,6.47-16.39,2.7-22.03.11-.5.63-.08.6-.75-.16-3.69-5.46-7.23-8.11-8.9-4.41-2.78-8.23-4.79-13.67-4.53-.52,1.62.16,2.58.15,2.72,0,.14-.51.29-.3,2.72-7.47,3.01-13.74,8.81-21.04,12.07-1.56-2.48-3.18-4.93-4.51-7.54,3.09-2.4,5.96-5.11,9.02-7.54,4.98-3.96,8.33-7.77,15.18-7.54,7.66.26,13.18,4.09,18.78,8.75Z"/>
        <path class="cls-33" d="m41.47,180.79c.89.58,2.78,2.3,3.91,2.41,2.16,7.03,2.11,11.89.6,19.01-.35.57-.89,1.07-.9,1.81-.12.09-.47.21-.6.3.14-4.44-2.4-9.98-2.4-10.56,0-.43.82-1.72.9-3.92.11-3.23-2.67-6.31-4.51-8.75,1.33-.47,1.38-1.49,1.65-1.51.09,0,1.09,1.04,1.35,1.21Z"/>
        <path class="cls-1" d="m10.82,168.42c-3.06,2.43-5.92,5.15-9.02,7.54-.27-.53-1.18-1.42-1.5-2.26-.02-.38.63-1.07.9-1.36.5-.53,3.54-2.13,4.36-3.62,4.15-.44,8.93-6.94,11.87-9.05-.29,1.44-2.42,1.74-1.2,3.77q-2.7,2.49-5.41,4.98Z"/>
        <g>
          <path class="cls-11" d="m42.67,205.54c-2.41,1.56-4.97,3.2-7.51,4.53-3.75,1.95-7.84,3.46-11.72,5.13q-.15-4.75-.3-9.51c5.24-3.57,10.58-7.01,15.93-10.41q1.8,5.13,3.61,10.26Z"/>
          <path class="cls-8" d="m42.07,193.77c0,.58,2.54,6.13,2.4,10.56-.61.42-1.18.81-1.8,1.21q-1.8-5.13-3.61-10.26c1.47-.94,2.53-2.03,3.01-1.51Z"/>
        </g>
        <path class="cls-26" d="m35.16,210.06l.9,1.21c-2.89,1.39-4.68,2.22-7.51,3.92-1.11.67-2.33,1.22-3.31,2.11-.65-.68-1.33-1.28-1.8-2.11,3.88-1.67,7.97-3.18,11.72-5.13Z"/>
        <path class="cls-9" d="m36.06,177.77c.14.15,1.9,2.65,2.4,3.32,1.84,2.44,4.62,5.52,4.51,8.75-.24-.74-.57-.86-.6-.91-3.1-4.94-6.26-9.91-10.22-14.18,1.31,1.02,2.72,1.8,3.91,3.02Z"/>
        <path class="cls-17" d="m46.88,164.49c-.45,1.7-.79,4.79-2.1,5.13-5.6-4.66-11.12-8.5-18.78-8.75-6.85-.23-10.2,3.59-15.18,7.54q2.7-2.49,5.41-4.98c-1.22-2.03.91-2.33,1.2-3.77,8.18-5.87,16.26-.91,17.58-1.51.12-.06.41-1.32,1.65-2.11,5.81,1.52,8.11,2.79,10.22,8.45Z"/>
        <path class="cls-14" d="m28.55,215.19c2.83-1.7,4.62-2.53,7.51-3.92,5.36-2.59,10.93-4.52,15.93-7.85,2.55-1.7,5.72-4.14,7.51-6.64,1.74.41-.47,5.13-2.1,7.39-4.09,5.66-12.19,9.22-18.78,10.71-2.25.51-9.76,1.95-10.07.3Z"/>
        <path class="cls-1" d="m51.99,203.42c-5,3.33-10.57,5.26-15.93,7.85l-.9-1.21c2.54-1.32,5.1-2.97,7.51-4.53.62-.4,1.2-.79,1.8-1.21.13-.09.48-.21.6-.3,2.86-2.04,3.71-1.79,6.61-7.24-.11,1.2.69,4.92.3,6.64Z"/>
        <path class="cls-1" d="m48.38,171.43c-1.4,1.48-2.6-.97-3.61-1.81,1.31-.34,1.65-3.43,2.1-5.13.87,2.34,1.52,4.39,1.5,6.94Z"/>
        <path class="cls-10" d="m39.97,172.34c-.5.89-1.85,4.5-2.1,4.83-.49.63-1.11.94-1.8.6-1.19-1.21-2.6-2-3.91-3.02-.82-.64-4.55-2.51-4.81-3.32-.21-2.42.29-2.58.3-2.72l12.32,3.62Z"/>
        <path class="cls-29" d="m45.98,202.22c1.51-7.12,1.56-11.98-.6-19.01,1.9.2,2.65-.83,3.31-2.41.05-.12-.04-.41,0-.6,3.77,5.64.73,16.37-2.7,22.03Z"/>
        <path class="cls-34" d="m41.17,170.53c.06.34-.12.65-.3.91-.15.21-.72.59-.9.91l-12.32-3.62c0-.14-.67-1.09-.15-2.72,5.44-.27,9.26,1.75,13.67,4.53Z"/>
        <path class="cls-34" d="m48.68,180.19c-.04.19.05.49,0,.6-.71-.86-2.87-2.85-3.01-3.02-.1-.12-.1-.37-1.8-2.41-1.05-1.26-1.98-2.64-3.01-3.92.18-.25.36-.56.3-.91,2.65,1.67,7.96,5.21,8.11,8.9.03.68-.49.25-.6.75Z"/>
        <path class="cls-12" d="m45.68,177.77l-4.21,3.02c-.26-.17-1.26-1.21-1.35-1.21-.27.02-.32,1.04-1.65,1.51-.51-.67-2.26-3.17-2.4-3.32.69.34,1.31.02,1.8-.6l6.01-1.81c1.7,2.04,1.71,2.3,1.8,2.41Z"/>
        <path class="cls-8" d="m48.68,180.79c-.65,1.59-1.4,2.61-3.31,2.41-1.13-.12-3.02-1.83-3.91-2.41l4.21-3.02c.14.16,2.29,2.16,3.01,3.02Z"/>
        <path class="cls-8" d="m43.87,175.36l-6.01,1.81c.26-.33,1.61-3.94,2.1-4.83.18-.31.75-.7.9-.91,1.02,1.28,1.96,2.67,3.01,3.92Z"/>
      </g>
      <g>
        <path class="cls-7" d="m143.94,72.75s.22.48.3.6c1.09,4.13-1.06,5.85.3,7.09-.98.94-1.71,1.92-2.7,2.87l.15-.91c-1.18.45-2.19.77-3.46.91-1.52.17-2.2.6-3.91,0,0-.54.69-.19.9-.3.13-.07.85.31,2.85-.91,1.69-1.03,5.91-6.27,4.66-8.45.1-.34.35-1.01.3-1.21.06.03.15-.1.6.3Z"/>
        <path class="cls-15" d="m143.34,72.45c.05.2-.2.86-.3,1.21-.61,2.09-5.76,7.43-7.51,9.36-.21.11-.9-.24-.9.3-3.66-1.28-2.84-5.55-1.5-8.15,2.01.29,5.58-5.45,10.22-2.72Z"/>
        <path class="cls-15" d="m143.34,72.45c-4.64-2.73-8.2,3.01-10.22,2.72,3.04-5.92,9.78-4.49,10.22-2.72Z"/>
        <path class="cls-15" d="m135.53,83.01c1.75-1.93,6.9-7.26,7.51-9.36,1.25,2.18-2.97,7.42-4.66,8.45-2,1.22-2.72.84-2.85.91Z"/>
      </g>
      <g>
        <path class="cls-33" d="m138.53,68.22c3.17-.27,3.24.38,5.41,1.81.29.81,1.21,2.21,0,2.72-.45-.4-.54-.27-.6-.3-.44-1.78-7.17-3.2-10.22,2.72-1.34,2.6-2.16,6.87,1.5,8.15-1.41,2.01-9.69,3.78-11.57,2.41-1.52.19-18.39,19.73-20.88,22.33-2.41,2.52-20.42,19.22-20.43,20.67-.01.83,1.85.67,2.1,1.36v.3c-7.33-3.18-13.88,8.13-7.21,12.07,1,.59,1.77,1.1,3.01.91-.81.29-1.76.15-1.5,1.21-4.94-.09-7.28-4.12-6.61-8.75.73-5.1,11.81-15.43,15.93-19.77,5.75-6.06,38.97-39.14,43.42-43.01,2.26-1.96,4.54-4.56,7.66-4.83Z"/>
        <path class="cls-24" d="m146.04,68.83c1.21,1.94,3.84,3.97,3.31,6.49-.11.5-.87.41-.9.45-1.06-2.94-2.05-4.11-4.51-5.73-2.17-1.44-2.24-2.08-5.41-1.81-.13-.75.57-.86.6-.91,2.44-.26,4.78.3,6.91,1.51Z"/>
        <path class="cls-29" d="m141.84,83.31c-2.86,2.73-6.27,5.09-9.17,7.85-5.31,5.06-10.67,10.27-15.78,15.54-8.95,9.24-26.4,30.09-33.06,36.37-1.76,1.13-3.29,1.18-5.71,1.51-.26-1.06.7-.92,1.5-1.21,4.46-1.59,9.57-5.13,6.61-10.56,14.73-12.02,26.11-27.32,40.12-40.14,1.34-1.23,8.63-8.14,9.32-8.45.69-.32,2.92.17,2.85-.91,1.27-.14,2.28-.46,3.46-.91l-.15.91Z"/>
        <path class="cls-26" d="m148.45,75.77c-.39.59-3.18,4.23-3.76,3.92.22-2.62,1.15-3.91-.45-6.34-.08-.12-.28-.58-.3-.6,1.21-.51.29-1.91,0-2.72,2.46,1.63,3.45,2.79,4.51,5.73Z"/>
        <path class="cls-13" d="m138.53,83.31c.07,1.07-2.16.59-2.85.91-.69.31-7.98,7.22-9.32,8.45-14,12.82-25.38,28.12-40.12,40.14-.27-.5-.58-.56-.9-.91-.31-.34-1.4-1.47-1.5-1.51v-.3c2.66-2.08,18.03-19.41,18.63-20.67.03-.06-.23-1.15-.3-1.36,2.49-2.61,19.37-22.15,20.88-22.33,1.87,1.37,10.16-.41,11.57-2.41,1.7.6,2.39.17,3.91,0Z"/>
        <path class="cls-22" d="m83.84,130.09c-.25-.69-2.11-.53-2.1-1.36.02-1.46,18.03-18.15,20.43-20.67.07.21.33,1.3.3,1.36-.6,1.26-15.98,18.59-18.63,20.67Z"/>
        <g>
          <path class="cls-7" d="m86.24,132.8c2.95,5.43-2.15,8.97-6.61,10.56-1.23.19-2.01-.32-3.01-.91,3.51-.45,10.1-7.67,8.71-10.56.32.35.63.4.9.91Z"/>
          <g>
            <path class="cls-15" d="m83.84,130.39c.1.04,1.19,1.17,1.5,1.51,1.38,2.89-5.2,10.11-8.71,10.56-6.67-3.94-.12-15.25,7.21-12.07Z"/>
            <path class="cls-15" d="m81.59,130.39c.96-.02,3.46,1.5,3.46,1.96,0,.64-8.23,9.24-8.86,9.2-1.57-.09-1.94-5.14-1.65-6.19.35-1.31,5.62-4.96,7.06-4.98Z"/>
          </g>
        </g>
      </g>
      <g>
        <path class="cls-1" d="m65.51,142.76c4.66.12,6.94,3.54,8.11,3.92,4.98,14.34-13.6,17.15-16.53,6.94-1.83-6.37,3.83-10.98,8.41-10.86Z"/>
        <g>
          <path class="cls-4" d="m64.16,143.97c9.55-1.51,11.15,11.88,3.01,13.28-10.41,1.79-11.17-11.99-3.01-13.28Z"/>
          <path class="cls-28" d="m69.57,146.08c1.33-.09,2.01,5.33-1.2,7.24-2.74,1.62-8.29.72-7.66-3.47.38-2.52,4.44-3.26,4.51-2.11.01.25-3.85,2.64-1.05,3.77,3.6,1.46,4.11-5.35,5.41-5.43Z"/>
        </g>
      </g>
    </g>
  </g>
</svg>