<?xml version="1.0" encoding="UTF-8"?>
<svg id="Camada_2" data-name="Camada 2" xmlns="http://www.w3.org/2000/svg" xmlns:xlink="http://www.w3.org/1999/xlink" viewBox="0 0 314.59 233.66">
  <defs>
    <style>
      .cls-1 {
        fill: #fdcc93;
      }

      .cls-1, .cls-2, .cls-3, .cls-4, .cls-5, .cls-6, .cls-7, .cls-8, .cls-9, .cls-10, .cls-11, .cls-12, .cls-13, .cls-14, .cls-15, .cls-16, .cls-17, .cls-18, .cls-19, .cls-20, .cls-21, .cls-22, .cls-23, .cls-24, .cls-25, .cls-26, .cls-27, .cls-28, .cls-29, .cls-30, .cls-31, .cls-32, .cls-33, .cls-34, .cls-35, .cls-36, .cls-37, .cls-38, .cls-39, .cls-40, .cls-41, .cls-42, .cls-43, .cls-44, .cls-45, .cls-46, .cls-47, .cls-48, .cls-49, .cls-50, .cls-51, .cls-52, .cls-53, .cls-54, .cls-55, .cls-56, .cls-57, .cls-58, .cls-59, .cls-60, .cls-61, .cls-62, .cls-63, .cls-64, .cls-65, .cls-66, .cls-67 {
        stroke-width: 0px;
      }

      .cls-2 {
        fill: #493b35;
      }

      .cls-3 {
        fill: #d7a416;
      }

      .cls-4 {
        fill: #e06813;
      }

      .cls-5 {
        fill: #c0be1b;
      }

      .cls-6 {
        fill: #6f7b7c;
      }

      .cls-7 {
        fill: #ccd5d6;
      }

      .cls-8 {
        fill: #aeafa9;
      }

      .cls-9 {
        fill: #5a5145;
      }

      .cls-10 {
        fill: #f8d9aa;
      }

      .cls-11 {
        fill: #e5cfbb;
      }

      .cls-12 {
        fill: #47412f;
      }

      .cls-13 {
        fill: #1d241d;
      }

      .cls-14 {
        fill: url(#Gradiente_sem_nome_465);
      }

      .cls-15 {
        fill: #495355;
      }

      .cls-16 {
        fill: #385c56;
      }

      .cls-17 {
        fill: #384655;
      }

      .cls-18 {
        fill: #6d3a35;
      }

      .cls-19 {
        fill: #9c9b97;
      }

      .cls-20 {
        fill: #3a3e3e;
      }

      .cls-21 {
        fill: url(#Gradiente_sem_nome_464);
      }

      .cls-22 {
        fill: #887256;
      }

      .cls-23 {
        fill: #5e6565;
      }

      .cls-24 {
        fill: #7f350a;
      }

      .cls-25 {
        fill: #413423;
      }

      .cls-26 {
        fill: url(#Gradiente_sem_nome_466);
      }

      .cls-27 {
        fill: #f8e9bf;
      }

      .cls-28 {
        fill: #605957;
      }

      .cls-29 {
        fill: #989183;
      }

      .cls-30 {
        fill: #253738;
      }

      .cls-31 {
        fill: #bc2214;
      }

      .cls-32 {
        fill: #f9b773;
      }

      .cls-33 {
        fill: #392f13;
      }

      .cls-34 {
        fill: #674c43;
      }

      .cls-35 {
        fill: #323032;
      }

      .cls-36 {
        fill: #513214;
      }

      .cls-37 {
        fill: #032f1e;
      }

      .cls-38 {
        fill: #31383f;
      }

      .cls-39 {
        fill: #a6b0b1;
      }

      .cls-40 {
        fill: #2c1507;
      }

      .cls-41 {
        fill: #818f95;
      }

      .cls-42 {
        fill: #061c0f;
      }

      .cls-43 {
        fill: #973e0b;
      }

      .cls-44 {
        fill: #4a4844;
      }

      .cls-45 {
        fill: #6d6a35;
      }

      .cls-46 {
        fill: #fd8e27;
      }

      .cls-47 {
        fill: #7b7b68;
      }

      .cls-48 {
        fill: #5a5c55;
      }

      .cls-49 {
        fill: #e4e2df;
      }

      .cls-50 {
        fill: #5c6e71;
      }

      .cls-51 {
        fill: #d05a11;
      }

      .cls-52 {
        fill: #090705;
      }

      .cls-53 {
        fill: #6a2907;
      }

      .cls-54 {
        fill: #2b4e4d;
      }

      .cls-55 {
        fill: #6a6f69;
      }

      .cls-56 {
        fill: #084336;
      }

      .cls-57 {
        fill: #ccc8c4;
      }

      .cls-58 {
        fill: #1a0f09;
      }

      .cls-59 {
        fill: #2d1e0d;
      }

      .cls-60 {
        fill: #3e1f09;
      }

      .cls-61 {
        fill: #1c1c19;
      }

      .cls-62 {
        fill: #1c2428;
      }

      .cls-63 {
        fill: #7f6e68;
      }

      .cls-64 {
        fill: #987d72;
      }

      .cls-65 {
        fill: #888d88;
      }

      .cls-66 {
        fill: #5b3f40;
      }

      .cls-67 {
        fill: #969b8e;
      }
    </style>
    <linearGradient id="Gradiente_sem_nome_464" data-name="Gradiente sem nome 464" x1="77.6" y1="27.72" x2="62.43" y2="42.59" gradientUnits="userSpaceOnUse">
      <stop offset="0" stop-color="#869494"/>
      <stop offset="1" stop-color="#424748"/>
    </linearGradient>
    <linearGradient id="Gradiente_sem_nome_466" data-name="Gradiente sem nome 466" x1="185.2" y1="63.35" x2="186.82" y2="130.31" gradientUnits="userSpaceOnUse">
      <stop offset="0" stop-color="#bea18f"/>
      <stop offset="1" stop-color="#7c5e53"/>
    </linearGradient>
    <linearGradient id="Gradiente_sem_nome_465" data-name="Gradiente sem nome 465" x1="285.28" y1="108.03" x2="280.32" y2="138.68" gradientUnits="userSpaceOnUse">
      <stop offset="0" stop-color="#64655f"/>
      <stop offset="1" stop-color="#494b4b"/>
    </linearGradient>
  </defs>
  <g id="Camada_1-2" data-name="Camada 1">
    <g>
      <g>
        <path class="cls-37" d="m7.72,204.25c.14,1.31-4,.48-1.02,2.45,2.33,1.55,45.46,12.16,53.51,16.34q17.46,1.43,34.92,2.86l3.68,1.63q-12.97,1.84-25.94,3.68c-9.38-3.25-18.9-6.05-28.39-8.99-6.39-1.98-35.19-11.02-37.17-11.85-3.89-1.62-2.62-1.81-2.86-2.04-1.28-3.64.7-3.48,3.27-4.08Z"/>
        <path class="cls-56" d="m44.48,213.24c7.67,7.02,18.81,2.79,27.98,1.63,6.97,4.57,15.98,7.19,22.67,11.03q-17.46-1.43-34.92-2.86c-8.05-4.18-51.17-14.79-53.51-16.34-2.98-1.97,1.16-1.14,1.02-2.45,5.55-1.31,15.07-1.55,21.24-3.27,4.18,4.14,10.24,9.73,15.52,12.25Z"/>
      </g>
      <g>
        <path class="cls-21" d="m90.22,40.06v.82c-4.49.05-8.99-.07-13.48,0-1.09.02-2.18-.02-3.27,0,0-.27.11-.7-.2-.82-5.14-1.82-17.18-1.04-23.49-1.63.47-3.32-1.37-8.75,1.84-10.62,1.58-.92,34.92-.29,36.15,2.65.42,6.51-1.5,10.66,2.45,9.6Z"/>
        <path class="cls-61" d="m73.48,40.87c-5.98.13-11.64-2.06-14.7,4.49l-3.27-.82c0-.54.02-1.09,0-1.63-.02-.69.2-3.39-.2-3.68-.76-.54-5.63.96-5.51-.82,6.31.59,18.34-.18,23.49,1.63.32.11.2.55.2.82Z"/>
      </g>
      <path class="cls-37" d="m149.45,228.76c-8.44,1.58-16.81,3.69-25.32,4.9-.74-2.24,10.14-7.64,12.66-8.58.67-.25,4.06-.3,5.72-2.04,2.85,1,5.56,2.91,6.94,5.72Z"/>
      <path class="cls-62" d="m310.38,116.84c-1.45.96-3.42.69-3.68,1.02l1.84,5.92c-2.07-2.05-4.24-3.19-7.15-3.27-1.02-.03-2.8.29-3.68.82-.08.05-.67-.21-1.23.61-.15,1.61-.53,3.24-1.23,4.7-2.91,6.08-4.4,7.17-9.39,11.44,3.76-5.88,8.25-14.39,9.39-21.24,3.67-.05,7.35.06,11.03,0,2.39-.04,4.24-.46,4.08,0Z"/>
      <path class="cls-15" d="m265.86,49.45v6.13c-1.95,3.82-2.89,1.27-6.13,2.04-1.07-.31-.71-1.02-.82-1.63-.36-2.02-.51-4.11-.82-6.13,2.58.03,5.19-.2,7.76-.41Z"/>
      <path class="cls-3" d="m274.84,48.63c-3.03,1.07-5.05,5.03-5.31,5.31-1.73,1.82-3.48,3.48-4.7,5.72l-1.84.41c-4.41.4-3.86-.79-4.08-.82-.79-.93-.22-1.39.82-1.63,3.24-.77,4.17,1.77,6.13-2.04,1.09-2.13,1.16-3.42.41-6.13,9.01-.8,7.54-1.97,7.96-2.04.07-.01.44.93.61,1.23Z"/>
      <path class="cls-12" d="m265.86,55.58v-6.13c.14-.01.27.01.41,0,.76,2.71.68,4-.41,6.13Z"/>
      <path class="cls-15" d="m230.32,49.04c.06,0,.87.31,1.23.41.59.17,1.48.04,2.04.61q-.2,3.88-.41,7.76c-.33.47-5.13.1-6.13.2-4.78.48-3.47.8-3.68.82-2.95.21-6.37-.02-9.39,0-2.22.01-5.52-.21-7.76-.41l-.41-5.72v-3.68c5.6-.04,21.69-.38,24.51,0Z"/>
      <path class="cls-7" d="m90.22,40.87h6.54l.2,5.31c-3.93-.77-8.12-.41-12.05-1.23-2.66-.56-6.65-1.83-8.17-4.08,4.49-.07,8.99.05,13.48,0Z"/>
      <g>
        <g>
          <path class="cls-6" d="m123.72,41.69c-.37.1-1.81,1.24-6.94,3.27-1.56.61-2.98,1.06-4.7.82-.29.13-.07.85-.61,1.63-2.12-3.5-3.52-7.35-5.31-11.03-2-4.1-4.71-7.56-3.68-8.58,6.27.02,12.41.55,18.58,1.63l2.65,12.25Z"/>
          <path class="cls-20" d="m102.48,27.8c-1.03,1.01,1.68,4.48,3.68,8.58-2.18.4-9.02,2.44-9.39,4.49h-6.54v-.82q.71-6.13,1.43-12.25c3.61,0,7.22-.01,10.82,0Z"/>
        </g>
        <path class="cls-48" d="m106.15,36.38c1.79,3.68,3.18,7.52,5.31,11.03-.55.8-.28,1.27-.41,1.63-.17.49-1.18.86-.82,2.04-1.1-.78-4.63,4.83-4.9,6.54-.09.02-1.24.78-1.63.82-5.65-5.28-11.69-10.28-18.79-13.48,3.93.82,8.12.46,12.05,1.23l-.2-5.31c.38-2.05,7.22-4.1,9.39-4.49Z"/>
      </g>
      <path class="cls-15" d="m123.31,55.58c-2.26.1-5.78.55-8.17.82-1.06-1.18-4.52-4.06-4.9-5.31-.36-1.18.65-1.56.82-2.04,9.46.39,9.51-2.49,12.25,6.54Z"/>
      <g>
        <path class="cls-20" d="m116.77,44.96c5.13-2.03,6.57-3.16,6.94-3.27.3-.08.84.21.82-.41,3.81,4.01,11.17,1.88,8.37,3.68-.73.47-7.37-.85-7.76-.82-2.23.2-7.47,3.73-8.37.82Z"/>
        <g>
          <path class="cls-6" d="m157.62,36.38c-.03,1.98-.41,3.08,0,2.86-1.03.74-2.06,1.98-3.27,2.65,2.76.12,1.91,1.02,2.04,1.02v.41c-1.44,1.25-4.87.88-7.35.82-.86-.97-2.92-7.71-3.27-7.96-1.79-1.31-5.51,3.07-6.13-7.56.46-.02.85.13.82-.41,1.77.11,13.58.74,14.09,1.23,1.26,1.18-2.02,8.2,3.06,6.94Z"/>
          <path class="cls-20" d="m140.46,28.21c.03.53-.36.39-.82.41-.61.02-2.52-.2-2.86.2-.2.24.56,3.97.82,6.33-9.94-.61-13.47,1.02-12.25-6.94,1.46-1.03,12.49-.17,15.11,0Z"/>
          <path class="cls-15" d="m139.65,28.62c.62,10.63,4.34,6.25,6.13,7.56.35.25,2.41,7,3.27,7.96-3.3-.08-6.67-.78-10.01-.41-.38-.21-1.31-7.48-1.43-8.58-.25-2.36-1.02-6.09-.82-6.33.34-.41,2.25-.18,2.86-.2Z"/>
        </g>
        <g>
          <path class="cls-20" d="m137.6,35.15c.12,1.1,1.05,8.37,1.43,8.58,3.34-.37,6.71.33,10.01.41,2.49.06,5.92.43,7.35-.82.99,1,.67,1.62.82,2.04h-8.58c-.27,0-.54,0-.82,0-1.26.02-8.7-.2-8.99.2q.2,4.6.41,9.19c-2.42.56-4.73,1.31-6.94,2.45-1.87-2.76-5.98-1.77-8.99-1.63-2.74-9.02-2.79-6.14-12.25-6.54.13-.36-.14-.83.41-1.63.54-.79.32-1.5.61-1.63,1.72.24,3.14-.2,4.7-.82.91,2.91,6.14-.62,8.37-.82.39-.03,7.03,1.28,7.76.82,2.8-1.79-4.57.34-8.37-3.68.39-4.28-.88-10.61.82-13.07-1.22,7.97,2.31,6.34,12.25,6.94Z"/>
          <path class="cls-41" d="m157.21,45.37c.94,2.8,1.48,5.23,1.63,8.17-3.56-.32-7.09.24-10.62.41-.54.03-1.09-.04-1.63,0-.04-.45.21-.35.41-.41,1.6-.45,2.23-6.38,1.63-8.17h8.58Z"/>
          <path class="cls-15" d="m147.81,45.37c-.55,2.79-1.35,5.36-.82,8.17-.2.06-.45-.05-.41.41-.98.07-1.88-.13-2.86,0-1.5.2-3.02.47-4.49.82q-.2-4.6-.41-9.19c.29-.41,7.73-.18,8.99-.2Z"/>
          <path class="cls-6" d="m148.63,45.37c.6,1.78-.03,7.71-1.63,8.17-.54-2.81.27-5.38.82-8.17.27,0,.54,0,.82,0Z"/>
        </g>
      </g>
      <path class="cls-49" d="m187.03,38.42c.25,1.51-.79,1.55-.82,1.63h-1.23c-.27-.02-.55.04-.82,0-3.86-.55-1.98-.99-2.04-3.68,1.67.66,4.91.54,4.9,2.04Z"/>
      <path class="cls-3" d="m186.21,40.06c-.48,1.74-.5,7.51-.82,10.21-.78.1-1.65-.04-2.45,0-1.27.06-1.45-.72-2.04.2v9.19c-2.49-1.04-2.32-1.18-2.45-1.23q.2-4.9.41-9.8c1.33-1.32,3.15-.7,4.9-.82l1.23-7.76h1.23Z"/>
      <path class="cls-49" d="m160.07,40.46c-.37.38-3.24,2.46-3.68,2.45-.13,0,.72-.9-2.04-1.02,1.2-.67,2.24-1.91,3.27-2.65.13-.09,1.16-.78,1.23-.82,3.27-1.89,3.74-.57,1.23,2.04Z"/>
      <g>
        <path class="cls-62" d="m164.56,54.76c-1.81-.32-3.94-1.07-5.72-1.23-.15-2.94-.69-5.37-1.63-8.17-.14-.42.18-1.04-.82-2.04v-.41c.44.01,3.31-2.07,3.68-2.45,3.62-2.06-.82,8.82.41,12.05.54,1.42,4.16.97,4.08,2.25Z"/>
        <g>
          <path class="cls-15" d="m164.15,28.21l-.2.82c5.81,1.79,13.69,2.36,18.18,6.13,0,.41,0,.82,0,1.23.06,2.68-1.81,3.13,2.04,3.68l-.41,7.76c-1.76.12-3.57-.5-4.9.82h-.41c.52-1.72,1.33-.9,1.63-2.25-1.47-.84-3.16-.46-3.68-.61-1.4-.42-12.76-4.82-13.27-5.31-1.37-1.31-1.84-6.77-4.29-2.04-.06.04-1.09.72-1.23.82-.41.22-.03-.88,0-2.86.1-5.74-.46-6.29,4.9-9.39.48.59.75,1.35,1.63,1.23Z"/>
          <path class="cls-41" d="m182.12,35.15c-4.49-3.77-12.36-4.33-18.18-6.13l.2-.82q9.09-.61,18.18-1.23c.54,2.74-.14,5.44-.2,8.17Z"/>
        </g>
        <path class="cls-20" d="m176.41,45.77c-4.65,1.81-3.74,3.88-4.08,4.49-1.12,1.96-3.35,4.55-1.23,6.13-2.19-.59-4.29-1.24-6.54-1.63.08-1.28-3.54-.82-4.08-2.25-1.23-3.23,3.21-14.11-.41-12.05,2.52-2.61,2.04-3.93-1.23-2.04,2.45-4.73,2.92.73,4.29,2.04.52.49,11.87,4.89,13.27,5.31Z"/>
        <path class="cls-20" d="m178.45,58.44c-2.29-.85-4.98-1.4-7.35-2.04-2.12-1.58.11-4.17,1.23-6.13,8.44,3.44,5.16,1.55,6.13-1.63h.41q-.2,4.9-.41,9.8Z"/>
        <path class="cls-23" d="m178.45,48.63c-.96,3.19,2.32,5.07-6.13,1.63.35-.61-.56-2.69,4.08-4.49.52.16,2.2-.23,3.68.61-.3,1.34-1.11.52-1.63,2.25Z"/>
        <path class="cls-33" d="m184.98,40.06l-1.23,7.76.41-7.76c.26.04.55-.02.82,0Z"/>
      </g>
      <path class="cls-20" d="m185.8,194.86c-2.08-.47,2.73,5.51,3.47,6.13.4.33,2.65-.66,1.23.82-.55.57-12.97,5.52-14.7,6.13-2.47.87-7.09.57-5.92,2.45-.4.05-.82-.03-1.23,0,0-.1.01-1.94,0-2.04-.86-6.52-3.12-9.28-9.8-7.76.03-1.31,3.13-1.53.82-2.04,4.4-.68,8.11-.79,12.25-2.45,6.31-2.54,3.85-3.21,6.94-7.56.23-.33,1.36,1.24,4.08-5.11.37,2.1,2.09,9.96,2.86,11.44Z"/>
      <g>
        <path class="cls-37" d="m225.01,203.84c1.07.08,3.25-.12,3.27,1.23-25.8-2.69-32.72,6.11-41.05,8.58-6.26,1.85-21,1.71-20.01,5.31,1.8-.13,17.43,1.64,14.7,3.27-1.3.77-25.68,5.35-29.61,6.13,2.82-1.07,2.41-4.15,2.45-6.94.06-.23,1.15-.8,1.23-.82,7.08-1.3,8.24-2.96,13.07-7.96-1.36-1.59-.43-1.87-.41-2.25.4-.03.83.05,1.23,0,3.26-.45,21.54-2.21,22.46-2.86l1.84,2.04c9.47-4.74,20.26-6.47,30.84-5.72Z"/>
        <path class="cls-56" d="m225.01,203.84c-10.58-.75-21.37.98-30.84,5.72l-1.84-2.04c.26-.18,1.72-3.84,1.63-4.29-.03-.15-1.69-1.82-2.04-2.25,3.47-2.18.97-3.98,4.29-4.08,1.82-.06,24.11,5.89,28.8,6.94Z"/>
      </g>
      <path class="cls-15" d="m185.8,194.86c.99,1.89,4.76,4.45,6.13,6.13.35.43,2.01,2.1,2.04,2.25.09.45-1.37,4.1-1.63,4.29-.93.65-19.2,2.41-22.46,2.86-1.16-1.88,3.45-1.58,5.92-2.45,1.73-.61,14.15-5.55,14.7-6.13,1.43-1.47-.82-.48-1.23-.82-.74-.62-5.55-6.6-3.47-6.13Z"/>
      <path class="cls-62" d="m136.79,187.1q9.29,6.33,18.58,12.66c2.18.36,4.07-1.19,4.29-1.23,2.31.51-.78.73-.82,2.04-4.43,1-8.68,3.3-13.07,4.49l-.82.2c.3,2.63-.59,7.39.41,9.6-1.39.18-2.49,1.01-2.86,2.45-3.58-1.3-7.34-1.97-11.03-2.86-3.5-8.63-10.65-15.08-15.52-22.87,6.95-1.45,13.99-2.51,20.83-4.49Z"/>
      <g>
        <path class="cls-6" d="m276.07,48.63c1.21,3.9,11.2,6.79,11.85,10.62-.38-.06-.43-.35-.82-.41-.06-.01-.77-.79-1.02-.82-1.96-.21-4.13-.27-6.13-.41-6.61-.46-7.06,2.8-10.01-3.68l5.31-5.31c.27-.02.55.03.82,0Z"/>
        <path class="cls-41" d="m289.14,50.27v8.99c-.16.06-.94.05-1.23,0-.65-3.83-10.64-6.72-11.85-10.62,2.69-.33,12.02-.71,13.07,1.63Z"/>
        <path class="cls-55" d="m289.95,58.44c-.15.48-.36.64-.82.82v-8.99c.33.74,1.03,7.49.82,8.17Z"/>
        <path class="cls-45" d="m274.84,48.63h.41l-5.31,5.31h-.41c.26-.28,2.28-4.24,5.31-5.31Z"/>
        <path class="cls-20" d="m269.94,53.94c2.95,6.48,3.4,3.22,10.01,3.68,2,.14,4.17.2,6.13.41.25.03.96.81,1.02.82-2.74,1.24-13.4-.13-14.09,0-2.29.43-4.96,7.66-10.01,1.23l1.84-.41c1.21-2.24,2.97-3.9,4.7-5.72h.41Z"/>
      </g>
      <g>
        <path class="cls-41" d="m257.28,48.63c.06.54.73.68.82,1.23.31,2.02.46,4.1.82,6.13-6.15-.31-12.07-2.8-17.97-4.49.03-.03.29-.56.41-.82.03-.06.15.38.41-1.23,2.18.36,4.41-.32,6.54-.41,2.99-.13,6.04.38,8.99-.41Z"/>
        <path class="cls-6" d="m240.94,51.49c5.9,1.7,11.82,4.18,17.97,4.49.11.62-.25,1.32.82,1.63-1.04.25-1.61.7-.82,1.63-3.77-.38-6.76-.75-10.62-.82.1-2.27-3.87-.74-5.92-1.23-10.14-2.4-1.8-5.32-1.43-5.72Z"/>
        <path class="cls-62" d="m241.35,50.68c-.12.26-.38.78-.41.82-.37.4-8.71,3.32,1.43,5.72,2.05.49,6.02-1.05,5.92,1.23-2.4-.04-4.59.29-6.94.41-1.76.09-3.55-.07-5.31,0,.65-3.67-4.1-7.13,5.31-8.17Z"/>
      </g>
      <g>
        <path class="cls-41" d="m298.53,77.22c5.98,2.92,6.36,4.83,9.39,2.86.24,1.95-1.38,3.38-1.23,5.31.03.33-.05.7,0,.82-.21.06-.78.38-.82.41.04-.5-.36-.37-.41-.41-2.2-1.49-5.1-3.01-6.54-4.08-7-5.23-2.9-3.88-.41-4.9Z"/>
        <path class="cls-15" d="m306.7,85.39c-.15-1.93,1.46-3.36,1.23-5.31.42-.28.21-1.4.82-1.02,1.92,1.21-.17,5.54-2.04,6.33Z"/>
        <path class="cls-15" d="m298.94,82.13c1.44,1.07,4.34,2.59,6.54,4.08-4.19,2.79-10.74-1.43-15.52-2.04-.39-1-.74-1.89-1.23-2.86,3.34.19,7.81,3.21,10.21.82Z"/>
        <path class="cls-20" d="m305.48,86.21c.05.04.45-.09.41.41-.61.61-2.06,3.13-2.65,3.27-.44.1-7.58-1.75-8.78-2.04-.14-.04-1.27-1.06-2.86-.82-.04-.16-1.06-1.4-1.63-2.86,4.78.61,11.33,4.84,15.52,2.04Z"/>
      </g>
      <g>
        <path class="cls-15" d="m298.53,77.22c-2.49,1.02-6.59-.33.41,4.9-2.4,2.4-6.87-.63-10.21-.82-.55-1.08-1.14-2.73-1.23-2.86,12.6-1.09,2.51-2.75-3.27-4.08-.42-.53-.8-1.13-1.23-1.63,6.83-.53,18.7,2.1,21.65-5.72,2.67,5.86.43,7.52-6.13,10.21Z"/>
        <path class="cls-39" d="m304.25,66.6s.15-.15.41.41c-2.94,7.82-14.82,5.19-21.65,5.72-1.82-2.13-4.56-3.89-6.33-6.13,9.14-.24,18.63,2.1,27.57,0Z"/>
        <path class="cls-61" d="m287.5,78.45c-.14-.22-2.61-3.25-3.27-4.08,5.77,1.33,15.87,2.99,3.27,4.08Z"/>
      </g>
      <g>
        <g>
          <path class="cls-37" d="m278.93,192.41c1-.21,1.29.38,1.63.41,3.38.3,6.61,1.78,10.01,2.04,1.05.73.48,2.06.61,3.27-.27,1.17-1.15,1.34-2.25,1.63-5.11,1.37-31.65,6.58-37.37,7.35-.36-2.31.62-3.75,1.63-5.72l1.84.41c6.71-2.43,13.33-5.13,20.01-7.35.36-.12.16-.8.2-.82,1.22-.39,2.39-1.02,3.68-1.23Z"/>
          <path class="cls-42" d="m253.19,201.39c-1.02,1.97-2,3.4-1.63,5.72-2.99.4-6.54,1.54-9.6,1.23-4.49-1.81-8.92-2.77-13.68-3.27-.02-1.34-2.2-1.15-3.27-1.23-4.69-1.05-26.98-7-28.8-6.94-3.32.1-.82,1.9-4.29,4.08-1.37-1.68-5.14-4.24-6.13-6.13-.77-1.47-2.49-9.34-2.86-11.44-.21-1.19-.25-2.48-.41-3.68q35.33,10.82,70.66,21.65Z"/>
        </g>
        <g>
          <path class="cls-62" d="m249.11,160.14c3.32,2.3,13.14,17.22,14.5,17.56,1.21.06,2.27-.34,3.47-.41-3.78,2.56-4.81-.47-5.11-.41-.35.07-2.14,4.66-2.25,5.31-.48,2.84-.1,4.89,1.23,7.56-14.27,4.68-14.94-20.09-15.52-29.61.79-.19,1.98-.71,2.65-1.23.25,1.74.83,1.09,1.02,1.23Z"/>
          <path class="cls-62" d="m278.93,192.41c-1.28.21-2.45.84-3.68,1.23-.39-.94-2.57.39-3.68-.82-.31-.33-2.12-6.01-2.04-6.33.18-.72,6.67-4.01,7.76-5.11.29.37,1.95,1.4,2.04,1.84l-.41,9.19Z"/>
          <path class="cls-15" d="m277.29,181.38c-1.09,1.09-7.58,4.39-7.76,5.11-.08.32,1.74,6,2.04,6.33.01,2.6-1.43,1.19-1.63,1.23-1.26-4.69-1.3-10.45-6.54-12.25,3.52-.98,6.8-2.8,10.21-4.08,1.37.89,2.66,2.39,3.68,3.68Z"/>
          <path class="cls-15" d="m273.62,177.7c-3.41,1.28-6.69,3.11-10.21,4.08-1.06.3-2.67.82-3.68.41.11-.65,1.89-5.24,2.25-5.31.29-.06,1.33,2.97,5.11.41,3.71-.2,3.07-1.84,6.54.41Z"/>
          <path class="cls-62" d="m231.55,163c1.07-.08,4.66.04,4.9,0-1.57,10.29,5.76,25.23,14.09,31.04,6.33,4.42,12.36,1.23,19.4,0,.21-.04,1.65,1.37,1.63-1.23,1.11,1.21,3.29-.12,3.68.82-.04.01.15.7-.2.82-6.69,2.22-13.31,4.92-20.01,7.35l-1.84-.41q-35.33-10.82-70.66-21.65c-.09-.69-1.01-2.42-.82-3.47.78-.55,1.62-.94,2.45-1.43,10.12-6.03,13.31,1.28,29-13.89,5.06,3.31,12.52,2.49,18.38,2.04Z"/>
          <path class="cls-38" d="m245.43,160.14c.58,9.52,1.25,34.29,15.52,29.61-1.33-2.66-1.7-4.71-1.23-7.56,1,.42,2.61-.11,3.68-.41,5.23,1.8,5.28,7.57,6.54,12.25-7.04,1.23-13.07,4.42-19.4,0-8.33-5.82-15.66-20.75-14.09-31.04.46-.08,4.19-1.7,8.99-2.86Z"/>
        </g>
      </g>
      <g>
        <path class="cls-62" d="m267.9,148.29c.79,3.5,8.44,1.59,7.76,4.08-3.89.82-13.62,3.06-16.75,4.49-4.75-1.34,3.88-4.38,8.58-9.39,0,.35.32.42.41.82Z"/>
        <g>
          <path class="cls-20" d="m305.88,133.18c1.25.67,1.65-1.05,1.63,2.04-.68,1.67-.46,4.17-2.45,1.84.16,12.57-7.42,11.92-17.56,13.68-.11.02-.38-.75-2.25-.41-3.23.59-6.39,1.36-9.6,2.04.68-2.5-6.97-.59-7.76-4.08,6.96-1.29,12.68-5.68,17.97-10.21,4.99-4.27,6.48-5.35,9.39-11.44,3.52,2.08,8.94,11.11,10.62,6.54Z"/>
          <g>
            <path class="cls-6" d="m301.39,120.52c6.85,5.4,10.04,5.16,6.13,14.7.01-3.09-.39-1.37-1.63-2.04-4.46-2.39-8.19-6.59-8.17-11.85.87-.52,2.66-.84,3.68-.82Z"/>
            <path class="cls-15" d="m297.72,121.34c-.02,5.26,3.71,9.46,8.17,11.85-1.68,4.57-7.1-4.45-10.62-6.54.7-1.46,1.08-3.09,1.23-4.7.55-.82,1.14-.56,1.23-.61Z"/>
          </g>
        </g>
        <g>
          <path class="cls-62" d="m287.5,150.75c0,7.77-7.23,16.98-13.68,8.17l-13.48,1.23c-2-1.31-2.11-2.74-2.25-2.86,1.17.86.73-.37.82-.41,3.13-1.43,12.86-3.67,16.75-4.49,3.2-.68,6.37-1.45,9.6-2.04,1.86-.34,2.13.43,2.25.41Z"/>
          <path class="cls-66" d="m279.95,155.24c.92.25.75,4.22.41,4.49-5.98-2.89-.79-4.6-.41-4.49Z"/>
        </g>
      </g>
      <path class="cls-3" d="m241.76,49.45c-.25,1.6-.38,1.17-.41,1.23-9.41,1.04-4.66,4.5-5.31,8.17l-.61,1.23-7.15-.41c.11-.14-.21-1.07.2-1.23,11.34,1.84-1.02-9.92,11.64-9.19-.13-9.89,2.79-7.05,1.63.2Z"/>
      <path class="cls-38" d="m154.35,188.73c2.85,4.63,2.4,2.31,9.19,1.63.62-.06,2.84,1.83,11.44-2.04.6.28-1.53,4.66.2,4.7l-3.27,3.06c-4.14,1.66-7.85,1.77-12.25,2.45-.22.03-2.11,1.58-4.29,1.23q-9.29-6.33-18.58-12.66c.2-.43.53-.86.82-1.23.08-.11.97-1.96,1.23-2.45,4.12,1.11,8.62,1.17,12.87.41.54.16,2.12,4.04,2.65,4.9Z"/>
      <path class="cls-41" d="m223.38,58.84c.1,2.21,2.49.93,3.68.82.38-.04.45.46.82.41-.08.43-.83.93-.2,1.63,1.27-.25,2.29.17,3.47.41-3.29.53-6.47.67-9.8.82-.16,0-1.07.2-1.23.41-1.98-1.96-4.13-2.79-6.13-4.49,3.03-.02,6.45.21,9.39,0Z"/>
      <path class="cls-5" d="m227.05,58.03v1.63c-1.19.12-3.58,1.4-3.68-.82.2-.01-1.11-.34,3.68-.82Z"/>
      <g>
        <path class="cls-42" d="m76.74,209.56c-7.11,8.3-1.37.64,6.94,2.45l24.1,8.58c-.28,2.22-1.57,8.47,2.25,7.76,1.17-.22,2.1-5.88,2.25-7.35,2.27.83,8.75,4.37,10.21,4.49,1.42.11,12.58-2.93,14.7-3.68l-.41,3.27c-2.52.93-13.4,6.33-12.66,8.58q-11.33-3.06-22.67-6.13h-2.65l-3.68-1.63c-6.69-3.83-15.7-6.46-22.67-11.03-9.16,1.15-20.31,5.39-27.98-1.63,10.85,5.19,23.1,4.15,32.27-3.68Z"/>
        <g>
          <path class="cls-38" d="m113.5,209.15c8.75,13.19,11.62,11.62,11.85,12.46l-2.86,3.88c-1.47-.12-7.94-3.66-10.21-4.49.16-1.62,1.14-7.22-1.43-7.35-2.29-.12-2.83,5.14-3.06,6.94l-24.1-8.58c-1.09-1.23,1.69-.89,2.86-1.23,6.42.46,12.81-2.19,18.99-3.68.33-2.91,1.72-5.46,2.65-8.17,1.54,1.75,1.35,4.57,2.45,6.74.6,1.19,2.6,3.08,2.86,3.47Z"/>
          <path class="cls-50" d="m131.48,214.46c3.69.89,7.45,1.56,11.03,2.86-.1.4.01,1.33,0,2.04-1.8.63-3.53,1.82-5.31,2.45-2.12.75-13.29,3.79-14.7,3.68l2.86-3.88c-.22-.84-3.09.73-11.85-12.46,4.64.5,4.11-3.09,6.33-6.54l5.51,10.42,1.02,1.02c1.33.13,4.06.15,5.11.41Z"/>
          <path class="cls-48" d="m142.5,219.37c-.02,1.22.02,2.45,0,3.68-1.65,1.74-5.04,1.79-5.72,2.04l.41-3.27c1.78-.63,3.51-1.82,5.31-2.45Z"/>
          <path class="cls-38" d="m115.96,191.59c4.87,7.79,12.02,14.24,15.52,22.87-1.05-.25-3.77-.28-5.11-.41l-1.02-1.02-5.51-10.42c-2.23,3.45-1.69,7.04-6.33,6.54-.26-.39-2.26-2.28-2.86-3.47-1.1-2.17-.91-4.99-2.45-6.74.73-2.12,1.71-4.21,1.63-6.54,1.91-.25,4.28-.43,6.13-.82Z"/>
        </g>
        <path class="cls-62" d="m109.83,192.41c.08,2.32-.9,4.41-1.63,6.54-.93,2.71-2.33,5.26-2.65,8.17-6.19,1.48-12.57,4.13-18.99,3.68,3.39-.97,7.96-2.39,10.82-4.49,5.08-3.74,8.61-13.94,12.46-13.89Z"/>
        <g>
          <path class="cls-29" d="m112.28,221c-.15,1.48-1.08,7.14-2.25,7.35-3.82.71-2.53-5.54-2.25-7.76.23-1.81.78-7.06,3.06-6.94,2.57.13,1.59,5.74,1.43,7.35Z"/>
          <g>
            <path class="cls-44" d="m110.85,218.14c.27.13.3,1.21.2,1.43-.25.57-5,3.01-.2-1.43Z"/>
            <path class="cls-12" d="m109.62,221.41c2.41-.42,1.55,1.71-.82.82-.51-.15.76-.81.82-.82Z"/>
            <path class="cls-44" d="m110.03,215.28c1.86-.37.87,1.51-.41.82-.39-.21.29-.79.41-.82Z"/>
            <path class="cls-12" d="m110.85,216.51c.26-.04.54-.05.61.2.35,1.18-2.46.05-.61-.2Z"/>
            <path class="cls-12" d="m109.22,217.73h.41l.2.2-.2.2-.2.2-.2.2-.2-.2v-.41l.2-.2Z"/>
          </g>
        </g>
      </g>
      <path class="cls-43" d="m132.29,75.18c.6.83.15.63,0,1.23-.57,2.21-1.57,4.27-2.04,6.54-1.45,1.51-1.42,3.82-1.63,5.31,0,.06-.62.76-.82.82-2.56-4.29-5.54-8.3-8.58-12.25,4.42,0,8.68-1.42,13.07-1.63Z"/>
      <g>
        <path class="cls-7" d="m132.29,57.21c.8,1.17.96,2.29.82,3.68-.04.36-.66,1.07-.82,1.63-1.78-6.01-1.03.4-3.88,1.23-1.3.38-15.42-.12-18.99.41h-1.02c-1.39-1.24-4.02-5.08-4.7-5.72.4-.04,1.54-.8,1.63-.82,2.65-.47,6.95-.9,9.8-1.23,2.39-.27,5.91-.71,8.17-.82,3-.14,7.11-1.12,8.99,1.63Z"/>
        <path class="cls-50" d="m132.29,62.52c-.22.78-.4,1.34-.82,2.04-.06.1.06.31,0,.41-.54.85-1.08,1.77-1.84,2.45l-17.77.41c-1.61-1.94-3.29-2.94-2.45-3.68,3.58-.53,17.69-.03,18.99-.41,2.85-.82,2.1-7.24,3.88-1.23Z"/>
      </g>
      <path class="cls-62" d="m110.24,51.08c.38,1.25,3.85,4.13,4.9,5.31-2.85.32-7.16.76-9.8,1.23.28-1.71,3.8-7.31,4.9-6.54Z"/>
      <g>
        <path class="cls-62" d="m274.43,23.72h2.86l-.61.82c-.87.07-1.79-.1-2.65,0-1.12.13-2.34-.09-3.47,0-4.79,4.07-5.89-2.25-14.09,7.96-.05.19.52.84.41,2.65-3.2.06-6.28,1.12-9.39,1.63-4.11.67-8.32,1.11-12.46,1.63-2.79,1.39,1.36,9.88-3.47,11.03-.35-.1-1.16-.4-1.23-.41-.43-4.36.85-9.94-.41-11.85l2.65-4.9c7.39-.42,14.47-2.41,21.65-4.08.92-.22,4.6.08,4.9,0,1.25-.35,2.65-2.28,3.68-2.86.77-.43,2.72,1.05,2.25-1.63h9.39Z"/>
        <path class="cls-43" d="m243.8.03c1.77,0,3.54-.01,5.31,0,.52,2.85-2.12,3.87-.41,4.9-.68,0-1.36,0-2.04,0-4.63,0-9.26,0-13.89,0-4.49,0-8.99,0-13.48,0V.03c8.17.02,16.34-.03,24.51,0Z"/>
        <path class="cls-67" d="m260.14,4.93c5.99,0,11.98,0,17.97,0,0,2.17.08,4.37,0,6.54-1.25.32-.82,2.88-1.23,4.49-.29-1.83.81-7.05-1.02-7.76h-22.26c0-.16-1.1-1.05,0-3.27,2.18,0,4.36,0,6.54,0Z"/>
        <path class="cls-46" d="m278.11,4.93c-5.99,0-11.98,0-17.97,0,2.48-.19.09-2.24,1.23-4.9,5.51.07,11.03-.05,16.54,0,1.47,1.53.2,4.65.2,4.9Z"/>
        <path class="cls-41" d="m278.11,11.46c-.16,4.09-.96,8.14-.82,12.25h-2.86q-5.82-.2-11.64-.41l-1.02-4.9,14.3-.41c1.24-1.17.55-.99.82-2.04.41-1.61-.02-4.18,1.23-4.49Z"/>
        <path class="cls-4" d="m261.36.03c-1.14,2.66,1.26,4.71-1.23,4.9-2.18,0-4.36,0-6.54,0-1.63,0-3.27,0-4.9,0-1.71-1.04.92-2.05.41-4.9,4.08.02,8.17-.05,12.25,0Z"/>
        <path class="cls-62" d="m184.98,22.9c1.47.44,2.98.6,4.49.82,9.27,1.31,18.87-.73,28.18,0-.23.08-3.43,2.03-4.08,2.65-1.33,1.27-4.05,6.24-5.72,7.96-4.16-6.58-12.21-5.18-18.79-4.7l-.41,5.31c1.7,1.94,4.36,1.12,6.54,1.02v.82l-8.17,1.63c0-1.5-3.23-1.38-4.9-2.04,0-.41,0-.82,0-1.23.06-2.73.75-5.43.2-8.17q-9.09.61-18.18,1.23c-.89.13-1.15-.63-1.63-1.23-.13-.16-1.62-2.93-2.04-3.68,1.57-1.84,1.72.28,2.65.41,5.54.75,14.48-.32,20.42.82l1.43-1.63Z"/>
        <path class="cls-62" d="m157.21,4.93h14.3v.41c-.68,1.22-1.96,5.14-2.04,6.13-.11,1.35-.3,3.39.61,4.49.53.63,14.12,6.71,14.91,6.94l-1.43,1.63c-5.94-1.13-14.89-.07-20.42-.82-.93-.13-1.09-2.25-2.65-.41-.93-1.63-2.45-3.32-3.27-5.11.73-5.06-1.04-8.97-.82-13.27h.82Z"/>
        <path class="cls-43" d="m187.84.03c-.16,7.38-3.23,2.15-6.54,4.9h-24.1c-1.22-1.86,11.43-.2,12.46-.82.81-.49-.95-2.79.2-4.08,5.99-.08,11.98.03,17.97,0Z"/>
        <path class="cls-46" d="m219.29.03v4.9c-1.63,0-3.27,0-4.9,0-3.95,0-7.9,0-11.85,0V.03c5.58-.01,11.16-.01,16.75,0Z"/>
        <path class="cls-4" d="m202.55.03v4.9c-2.72,0-5.45,0-8.17,0-4.36,0-8.71,0-13.07,0,3.3-2.75,6.37,2.48,6.54-4.9,4.9-.03,9.8.01,14.7,0Z"/>
        <path class="cls-43" d="m169.87.03c-1.16,1.29.61,3.6-.2,4.08-1.03.62-13.68-1.05-12.46.82h-.82c.04-.83-.21-4.6.2-4.9,4.42-.04,8.85.06,13.27,0Z"/>
        <path class="cls-16" d="m256.87,35.15c-.22,3.68-.02,9.78.41,13.48-2.95.79-6,.28-8.99.41l-.82-12.25c3.12-.51,6.19-1.58,9.39-1.63Z"/>
        <path class="cls-62" d="m250.34,23.72c4.88.24,9.82-.18,14.7,0,.47,2.69-1.48,1.2-2.25,1.63-1.03.58-2.42,2.51-3.68,2.86-.3.08-3.98-.22-4.9,0-7.18,1.68-14.26,3.67-21.65,4.08l-2.65,4.9q-5.11-6.74-10.21-13.48c8.24-.61,16.49,1.4,24.71,1.23,1.15-.02,6.33-.36,5.92-1.23Z"/>
        <path class="cls-30" d="m247.48,36.79l.82,12.25c-2.12.09-4.35.77-6.54.41,1.15-7.26-1.76-10.09-1.63-.2-12.66-.73-.3,11.03-11.64,9.19-.42.16-.09,1.08-.2,1.23-.02.02-.3-.15-.41.41-.37.05-.44-.45-.82-.41v-1.63c.99-.1,5.8.26,6.13-.2q.2-3.88.41-7.76c-.56-.58-1.45-.44-2.04-.61,4.83-1.15.68-9.64,3.47-11.03,4.14-.52,8.35-.96,12.46-1.63Z"/>
        <path class="cls-6" d="m261.77,18.41l1.02,4.9q5.82.2,11.64.41h-9.39c-4.88-.18-9.83.24-14.7,0-1.75-.09-3.76.35-5.31-.41,1.6-4.14,4.47-2.6,6.94-4.08.14,0,.27.01.41,0,.93-.07,3.99-1.38,9.39-.82Z"/>
        <path class="cls-15" d="m248.7,4.93c1.63,0,3.27,0,4.9,0-1.1,2.22,0,3.1,0,3.27-.03,1.57-.43,3.23-.41,4.9-4.44-.36-6.41,6.21-1.23,6.13-2.48,1.49-5.34-.06-6.94,4.08-5.99-2.12-17.29-5.32-17.15-13.07,6.22-1.87,22.22-3.04,18.79-5.31.68,0,1.36,0,2.04,0Z"/>
        <path class="cls-62" d="m232.77,4.93c-4.61.65-4.82.65-4.9,5.31-.13,7.75,11.17,10.95,17.15,13.07,1.55.76,3.56.32,5.31.41.41.86-4.77,1.2-5.92,1.23-8.22.18-16.48-1.84-24.71-1.23l-.82-.41.41-18.38c4.49,0,8.99,0,13.48,0Z"/>
        <path class="cls-20" d="m246.66,4.93c3.43,2.27-12.57,3.44-18.79,5.31.08-4.66.29-4.66,4.9-5.31,4.63,0,9.26,0,13.89,0Z"/>
        <g>
          <path class="cls-10" d="m276.88,15.96c-.27,1.05.42.87-.82,2.04h-22.46c.47-1.93-.41-4.66-.41-4.9-.02-1.68.38-3.34.41-4.9h22.26c1.83.71.73,5.93,1.02,7.76Z"/>
          <path class="cls-48" d="m276.07,18l-14.3.41c-5.4-.57-8.46.74-9.39.82,0-.56.99-.27,1.23-1.23h22.46Z"/>
        </g>
        <path class="cls-15" d="m181.31,4.93c4.36,0,8.71,0,13.07,0-.83,2.82,0,3.49,0,3.68-.06,1.59-1.1,7.91-.2,8.99,19.98,2.4,15.92-2.86,16.75-2.45.7.34-1.13,3.51,2.86,2.86.15-.94-1.73-1.08-.61-2.45.18.08.86-.19,1.63.41-.08.48-.33,2.16-.41,2.25-2.4,2.55-23.34-3.86-24.92,5.51-1.52-.21-3.02-.37-4.49-.82-.79-.24-14.38-6.31-14.91-6.94-.91-1.1-.72-3.14-.61-4.49,7.89-3.77,21.37-6.85,2.04-6.13v-.41h9.8Z"/>
        <path class="cls-6" d="m218.07,23.31c.04.48-.26.35-.41.41-9.32-.73-18.91,1.31-28.18,0,1.57-9.37,22.52-2.96,24.92-5.51.08-.08.33-1.77.41-2.25.05-.3.04-.45.41-.41.67,2.71,1.84,5.18,2.86,7.76Z"/>
        <path class="cls-62" d="m207.86,34.34l-.61.82c-.85.09-1.84-.13-2.65,0-1.3.21-3.69.23-5.31.41-1.4.15-2.65.34-4.08.41-2.18.1-4.84.92-6.54-1.02l.41-5.31c6.58-.48,14.63-1.88,18.79,4.7Z"/>
        <path class="cls-20" d="m169.46,11.46c.08-.99,1.36-4.91,2.04-6.13,19.33-.72,5.85,2.36-2.04,6.13Z"/>
        <path class="cls-15" d="m219.29,4.93l-.41,18.38h-.82c-1.02-2.58-2.19-5.05-2.86-7.76-.35-1.43-1.13-5.6-1.23-6.94-.09-1.28,0-2.45.41-3.68,1.63,0,3.27,0,4.9,0Z"/>
        <g>
          <path class="cls-30" d="m195.19,36.79v11.85c-1.3.06-8.39.22-8.78.41-.37.18-.16.81-.2.82-.08.02.67.22-.82.41.31-2.7.34-8.47.82-10.21.02-.09,1.06-.13.82-1.63l8.17-1.63Z"/>
          <path class="cls-16" d="m199.28,35.56q.61,6.74,1.23,13.48c-4.23.06-5.04-.42-5.31-.41v-12.66c1.43-.07,2.68-.26,4.08-.41Z"/>
          <path class="cls-54" d="m204.59,35.15v13.48c-3.41.03-3.88.41-4.08.41q-.61-6.74-1.23-13.48c1.62-.18,4.01-.2,5.31-.41Z"/>
        </g>
        <path class="cls-31" d="m253.19,13.1c0,.25.88,2.97.41,4.9-.23.95-1.23.67-1.23,1.23-.13.01-.27,0-.41,0-5.19.08-3.22-6.49,1.23-6.13Z"/>
        <g>
          <path class="cls-67" d="m202.55,4.93c3.95,0,7.9,0,11.85,0-.41,1.22-.5,2.4-.41,3.68h-19.61c0-.18-.83-.86,0-3.68,2.72,0,5.45,0,8.17,0Z"/>
          <g>
            <path class="cls-10" d="m209.9,8.61c.61,1.66,2.02,6.38,3.27,6.94-1.12,1.37.77,1.51.61,2.45-3.99.65-2.16-2.52-2.86-2.86-.83-.41,3.24,4.85-16.75,2.45-.89-1.07.14-7.4.2-8.99h15.52Z"/>
            <path class="cls-27" d="m213.98,8.61c.1,1.34.87,5.52,1.23,6.94-.36-.05-.36.11-.41.41-.78-.6-1.45-.33-1.63-.41-1.25-.56-2.65-5.28-3.27-6.94h4.08Z"/>
          </g>
        </g>
      </g>
      <path class="cls-62" d="m154.35,188.73c-.53-.86-2.11-4.74-2.65-4.9-4.24.76-8.75.7-12.87-.41.14-.28.73-2.06,1.23-3.27,9.2,2.35,19.58,2.63,28.59-.2.21-1.13-.34-1.47-.41-1.84.2-1.24,5.85-.95,6.13-.61-4.97,6.5-11.7,10.81-20.01,11.23Z"/>
      <g>
        <path class="cls-63" d="m143.73,53.94c-.95,2.36.35,4.33-1.23,5.31-3.25.03-6.29.81-9.39,1.63.15-1.39-.02-2.5-.82-3.68,2.21-1.14,4.53-1.89,6.94-2.45,1.48-.34,2.99-.62,4.49-.82Z"/>
        <path class="cls-38" d="m142.5,59.25c15.62-.13,31.77,10.59,41.25,22.46,11.13,13.94,15.71,33.13,15.52,50.65-.01,1.35.07,2.73,0,4.08-.3,5.36-.62,8.24-2.04,13.48-4.17,15.35-11.52,19.03-12.66,21.04-.22.39-.98,3.08-.41,3.88-.83.49-1.68.88-2.45,1.43-.19,1.05.72,2.78.82,3.47.16,1.19.2,2.48.41,3.68-2.72,6.34-3.85,4.78-4.08,5.11-3.09,4.35-.63,5.02-6.94,7.56l3.27-3.06c-1.74-.04.4-4.41-.2-4.7-8.6,3.88-10.82,1.98-11.44,2.04-6.79.67-6.34,3-9.19-1.63,8.31-.42,15.05-4.73,20.01-11.23-.28-.34-5.93-.62-6.13.61-.12-.6-.85-2.29-1.23-2.86,2.1-1.65-1.56-4.91-2.04-7.35-.15-1.24,3.88-4.07,6.13-5.72,10.1-7.37,15.45-11.68,17.56-25.12,2.45-15.57-5.68-35.46-17.36-45.95-1.86-1.67-4.22-4.08-5.51-3.68.26-.24,1.17-1.1,1.23-1.23.54-1.13.57-2.5.41-3.68.81-2.66,4.17-2.03,4.49-3.06.08-.26-3.24-4.14-3.47-4.29-2.85-1.8-10.65-1.98-14.3-2.04-.04-2.65-2.28-1.57-2.45-1.63-1.73-.66-6.57-3.41-10.21-4.49-3.22-.95-6.92-.49-10.01-2.45.42-.7.6-1.27.82-2.04.16-.56.78-1.27.82-1.63,3.1-.83,6.14-1.61,9.39-1.63Z"/>
        <path class="cls-2" d="m218.88,149.93c-1.32,3.08-5.51,7.86-4.49,9.39-.07.07-.34-.07-.41,0-1.27,1.27-.75,1.57-.82,1.63-15.69,15.17-18.88,7.85-29,13.89-.58-.8.19-3.49.41-3.88,1.14-2,8.49-5.68,12.66-21.04,3.01.6-1.86,3.8,6.74,3.68,7-.1,11.75-4.85,14.91-3.68Z"/>
        <path class="cls-35" d="m134.34,74.37c-.27.19-.84.32-.82.82-.41,0-.82-.02-1.23,0-4.39.21-8.65,1.63-13.07,1.63-2.34-3.04-4.9-6.03-7.35-8.99l17.77-.41c.76-.69,1.3-1.6,1.84-2.45,2.56,2.5,4.87,6.77,8.99,6.33-.12,1.1-7.37,1.17-6.13,3.06Z"/>
        <path class="cls-26" d="m158.84,53.53c1.78.16,3.91.91,5.72,1.23,2.25.4,4.34,1.04,6.54,1.63,2.37.64,5.07,1.19,7.35,2.04.13.05-.04.19,2.45,1.23,8.17,3.39,11.36,6.5,12.05,6.54.79.04,1.73-1.42,1.84-2.04h2.04c-.12.19-.96,3.6-1.63,4.29,1.34,1.69,1.96,1.34,2.04,1.43,8.9,9.82,14.18,15.53,19.61,28.18,1.65,3.86,3.06,7.77,4.08,11.85,1.11,4.42,2.19,8.92,2.45,13.48.15,2.6.16,6.81,0,9.39,0,.12-.31,1.47-.41,2.45.12-3.78-4.99-.59-14.5-1.23-3-.2-6.19-1.29-9.19-1.63.19-17.52-4.39-36.71-15.52-50.65,2.04-.49-3.19-8.26-4.49-10.01-7.44-10.02-18.73-16.23-31.04-17.77,3.53-.17,7.06-.73,10.62-.41Z"/>
        <path class="cls-64" d="m146.59,53.94c.54-.04,1.09.03,1.63,0,12.31,1.53,23.6,7.75,31.04,17.77,1.3,1.75,6.53,9.52,4.49,10.01-9.48-11.88-25.64-22.59-41.25-22.46,1.58-.98.28-2.95,1.23-5.31.98-.13,1.88.07,2.86,0Z"/>
        <path class="cls-35" d="m165.79,87.44c1.3-.41,3.66,2.01,5.51,3.68,11.68,10.49,19.81,30.38,17.36,45.95-2.12,13.44-7.47,17.75-17.56,25.12.16-.84-.34-1.25-.41-2.04-.13-1.61.09-3.28,0-4.9,1.31-.89,2.44-4.12,3.68-5.51-.13-.37-1.2-.95-1.23-1.02-.53-1.48-.71-2.99-2.04-4.08l5.31-8.58c10.48,4.19,10.24-10.49,6.94-15.11-3.46-4.85-6.04-.12-9.6,0-.08,0-.88-.7-1.43-.82l6.13-4.29c.27-1.84-.81-2.91-.82-3.06-.1-1.76-.13-3.13-.41-4.9-.02-.13.52-.46,0-2.65-1.18-.5-2.46-.66-3.68-1.02.84-5.33-1.89-4.28-6.13-1.23-1.45-.18-3.03-.33-4.49-.41-.02-.27.05-.56,0-.82-.1-.51-4.07-7.82-4.9-9.19,0-.68,2.25-1.9,3.27-2.65.92-.68,2.02-.99,2.86-1.63,1.3-.99,1.57-.76,1.63-.82Z"/>
        <path class="cls-2" d="m222.56,138.9c-.42,2.51-1.05,5.28-1.63,7.76-.14.59-1.94,1.07-1.23,3.27-.28-.03-.66.06-.82,0-3.15-1.17-7.9,3.58-14.91,3.68-8.6.12-3.73-3.07-6.74-3.68,1.42-5.24,1.74-8.12,2.04-13.48,5.31,3.5,13.62,5.14,19.81,3.68,1.17-.28,2.34-2.25,3.47-1.23Z"/>
        <path class="cls-62" d="m167.42,82.53c-.68-4.91-3.6-5.07-7.76-4.49-3.96.55-6.65,2.11-9.8,4.49-1.39-1.48-1.37-5.58-2.04-7.15-2.16-5.07-9.85-3.68-13.48-1.02-1.25-1.89,6.01-1.96,6.13-3.06-4.11.44-6.42-3.83-8.99-6.33.06-.1-.06-.31,0-.41,3.08,1.96,6.78,1.5,10.01,2.45,3.64,1.08,8.48,3.83,10.21,4.49.17.07,2.41-1.02,2.45,1.63,3.65.06,11.45.25,14.3,2.04.23.15,3.55,4.03,3.47,4.29-.33,1.03-3.68.4-4.49,3.06Z"/>
        <path class="cls-34" d="m222.97,135.22c-.12,1.17-.22,2.54-.41,3.68-1.13-1.03-2.31.95-3.47,1.23-6.19,1.47-14.5-.17-19.81-3.68.07-1.35-.01-2.73,0-4.08,3,.34,6.19,1.43,9.19,1.63,9.51.63,14.62-2.55,14.5,1.23Z"/>
      </g>
      <g>
        <path class="cls-42" d="m145.36,214.87c.46,1.02,6.3,4.7,7.56,6.13l1.84.41c-.04,2.79.37,5.88-2.45,6.94-.98.19-1.95.24-2.86.41-1.38-2.81-4.09-4.72-6.94-5.72.02-1.22-.02-2.45,0-3.68.01-.71-.1-1.64,0-2.04.37-1.44,1.47-2.27,2.86-2.45Z"/>
        <g>
          <path class="cls-20" d="m145.77,205.07c.69.98,2.62.19,3.68,0-1.08,2.02,3.57.76,6.54,2.25v13.27c-.07.01-1.17.58-1.23.82l-1.84-.41c-1.26-1.43-7.1-5.11-7.56-6.13-.99-2.21-.11-6.97-.41-9.6l.82-.2Z"/>
          <path class="cls-6" d="m168.65,208.34c-1.57.11-1.65-4.2-4.7-6.94-4.85,1.21-9.57,2.78-14.5,3.68-1.06.19-2.98.98-3.68,0,4.39-1.2,8.64-3.49,13.07-4.49,6.69-1.52,8.94,1.24,9.8,7.76Z"/>
          <g>
            <path class="cls-15" d="m168.65,208.34c.01.1,0,1.94,0,2.04-.02.38-.95.66.41,2.25-4.83,5-5.99,6.66-13.07,7.96v-13.27c-2.97-1.49-7.61-.23-6.54-2.25,4.93-.9,9.65-2.47,14.5-3.68,3.04,2.74,3.13,7.06,4.7,6.94Z"/>
            <path class="cls-61" d="m158.64,207.93l8.37.2c-.71,2.81-.82,8.32-4.29,9.19-5.96,1.49-4.25-2.33-4.08-9.39Z"/>
          </g>
        </g>
      </g>
      <path class="cls-7" d="m242.57,123.79c-.25-1.69.94-4.62.41-6.13-.73-2.08-4.2-.95-5.72-.41-.02-.57.03-1.09,0-1.63,7.42-4.14,12.72,4.23,5.31,8.17Z"/>
      <g>
        <path class="cls-7" d="m248.29,58.44c3.86.07,6.85.43,10.62.82.22.02-.32,1.21,4.08.82,5.05,6.44,7.72-.8,10.01-1.23.69-.13,11.35,1.24,14.09,0,.38.06.43.35.82.41.29.05,1.06.06,1.23,0,.46-.18.66-.34.82-.82,5.74.42,11.41,2.91,14.3,8.17-8.94,2.1-18.43-.24-27.57,0,1.78,2.24,4.51,4,6.33,6.13.43.5.81,1.1,1.23,1.63.66.83,3.13,3.86,3.27,4.08.08.13.68,1.78,1.23,2.86.49.96.83,1.86,1.23,2.86.57,1.46,1.59,2.7,1.63,2.86,1.41,5.31,1.75,11.73-5.92,10.21-1.32-.26-2.03-1.31-2.65-2.45-.98-1.77-2.93-11.75-9.19-19.2-.76,8.19,2.52,8.07-5.92,13.07-6.69-12.58-16.57-22.17-30.63-25.73-1.5-2.93,3.62-.5,4.08-4.08,2.35-.12,4.55-.45,6.94-.41Z"/>
        <path class="cls-2" d="m275.66,116.84c.42,10.26-.88,22.86-8.17,30.63-4.7,5.01-13.33,8.05-8.58,9.39-.08.04.36,1.27-.82.41-.6-.54-1.34-.97-1.84-1.63-3.51,2.45-8.39,2.81-7.15,4.49-.19-.13-.78.51-1.02-1.23-.67.51-1.86,1.03-2.65,1.23-4.79,1.16-8.52,2.78-8.99,2.86-.24.04-3.83-.08-4.9,0l.41-2.45c22.25-2.52,36.14-24.17,36.76-45.34,2.35.84,4.28,2,6.94,1.63Z"/>
        <path class="cls-28" d="m231.14,62.11c2.01.41,4.14.31,6.13.82,14.07,3.56,23.95,13.15,30.63,25.73.97,1.82,2.1,3.81,2.86,5.72.93,2.32,3.24,9.56,3.68,11.85.59,3.1,1.1,7.49,1.23,10.62-2.66.37-4.6-.79-6.94-1.63.42-14.54-5.19-31.18-16.95-40.44-15.93-12.53-28.16-1.67-30.43-11.85,3.33-.15,6.51-.28,9.8-.82Z"/>
        <path class="cls-7" d="m283.01,94.79l-7.15-1.23-5.11.82c-.76-1.9-1.89-3.9-2.86-5.72,8.44-5,5.16-4.88,5.92-13.07,6.26,7.45,8.21,17.43,9.19,19.2Z"/>
        <path class="cls-8" d="m241.35,58.84c-.46,3.58-5.59,1.16-4.08,4.08-1.99-.5-4.12-.41-6.13-.82-1.18-.24-2.2-.66-3.47-.41-.62-.71.12-1.2.2-1.63.11-.56.39-.39.41-.41l7.15.41.61-1.23c1.76-.07,3.55.09,5.31,0Z"/>
        <path class="cls-14" d="m295.67,105c-.21,3.05.03,9.25-.41,11.85-1.14,6.85-5.64,15.36-9.39,21.24-5.29,4.53-11.02,8.93-17.97,10.21-.09-.4-.41-.47-.41-.82,7.29-7.78,8.59-20.38,8.17-30.63-.13-3.13-.64-7.52-1.23-10.62,10.52-7.01,13.87,1.5,16.54,1.63.39.02,4.55-2.62,4.7-2.86Z"/>
        <path class="cls-62" d="m221.34,62.93c2.27,10.17,14.5-.69,30.43,11.85,11.76,9.25,17.37,25.9,16.95,40.44-.62,21.17-14.51,42.81-36.76,45.34-5.81.66-12.45,1.16-17.97-1.23.07-.07.34.07.41,0,2.33-2.36,4.36-4.86,6.54-7.35.21-.24,2.03-.48,3.27-4.08,2.14.09,5.12-1.48,6.74-2.86,5.76-4.89,6-13.09,6.33-20.01,4.85.5,5.06-1.09,5.31-1.23,7.41-3.94,2.11-12.31-5.31-8.17,0-.15-.8-2.65-.82-2.86-.28-3.06-.24-4.68-.82-8.17,1.97,2.1-.62,5.84,7.56.82,1.98-1.22,6.48-5.16,6.33-7.56-.03-.48-1.15-1.29-1.23-1.43-3.13-5.67-10.11-6.59-15.93-5.72-2.14-7.29-7.05-22.2-12.25-27.37.16-.21,1.07-.4,1.23-.41Z"/>
        <path class="cls-35" d="m231.95,160.55l-.41,2.45c-5.86.45-13.32,1.27-18.38-2.04.07-.06-.45-.37.82-1.63,5.52,2.38,12.16,1.89,17.97,1.23Z"/>
        <g>
          <path class="cls-8" d="m294.45,87.84q3.98,4.49,7.96,8.99c1.22-2.32,6.02.2,9.6-6.13,1.06,1.75,1.72,3.72,2.04,5.72-2.27,4.11-4.9,8-10.21,7.76-.61-.58-7.19-6.02-7.56-5.72-.63,1.58.16,5.01-.2,6.13,0,.03-.09-.11-.41.41-.14.23-4.31,2.88-4.7,2.86-2.67-.14-6.02-8.64-16.54-1.63-.44-2.28-2.75-9.53-3.68-11.85l5.11-.82,7.15,1.23c.63,1.14,1.34,2.19,2.65,2.45,7.67,1.52,7.34-4.91,5.92-10.21,1.59-.24,2.71.78,2.86.82Z"/>
          <path class="cls-48" d="m303.84,104.18c1.85,1.76,6.55,9.49,8.99,8.58-.54,1.32-1.2,3.26-2.45,4.08.15-.46-1.7-.04-4.08,0q-5.11-6.13-10.21-12.25c.37-1.12-.42-4.55.2-6.13.37-.3,6.94,5.13,7.56,5.72Z"/>
          <path class="cls-7" d="m312.01,90.7c-3.58,6.33-8.38,3.81-9.6,6.13q-3.98-4.49-7.96-8.99c1.2.3,8.34,2.14,8.78,2.04.59-.13,2.04-2.66,2.65-3.27.03-.03.61-.35.82-.41.48,1.08,3.22,1.07,5.31,4.49Z"/>
          <path class="cls-55" d="m312.83,112.76c-2.44.91-7.14-6.82-8.99-8.58,5.31.24,7.94-3.65,10.21-7.76.86,5.36.83,11.3-1.23,16.34Z"/>
          <path class="cls-20" d="m306.29,116.84c-3.67.06-7.35-.05-11.03,0,.43-2.6.19-8.79.41-11.85.32-.52.4-.38.41-.41q5.11,6.13,10.21,12.25Z"/>
        </g>
        <g>
          <path class="cls-20" d="m248.29,96.42c.08.14,1.2.95,1.23,1.43.15,2.39-4.35,6.34-6.33,7.56-8.18,5.02-5.59,1.28-7.56-.82-.6-3.66-1.11-7.44-2.04-11.03,4.41-2.15,10.87-.4,14.7,2.86Z"/>
          <path class="cls-19" d="m248.29,96.42c-3.83-3.26-10.29-5.01-14.7-2.86-.04-.15-.9-1.76-1.23-2.86,5.82-.87,12.8.05,15.93,5.72Z"/>
        </g>
      </g>
      <path class="cls-53" d="m242.98,117.66c.53,1.5-.66,4.44-.41,6.13-.25.14-.46,1.72-5.31,1.23.04-.82,0-2.28,0-3.27l5.72-4.08Z"/>
      <path class="cls-53" d="m219.7,149.93c.04.11,1.31.73,1.23,2.04-2.18,2.49-4.21,4.99-6.54,7.35-1.02-1.53,3.17-6.32,4.49-9.39.16.06.54-.03.82,0Z"/>
      <path class="cls-62" d="m222.97,147.07c.13.04,1.15.81,1.23.82-1.24,3.6-3.06,3.85-3.27,4.08.09-1.31-1.19-1.93-1.23-2.04-.72-2.2,1.09-2.67,1.23-3.27.61.26,1.69.28,2.04.41Z"/>
      <g>
        <path class="cls-20" d="m167.01,175.25c.38.57,1.1,2.26,1.23,2.86.07.36.62.71.41,1.84-9.01,2.83-19.39,2.56-28.59.2,1.29-3.15,1.58-3.09,1.63-3.27,6.52.56,9.11,2.96,8.99-3.27h15.73c.51.63.56,1.56.61,1.63Z"/>
        <path class="cls-62" d="m164.97,167.9c.48,2.44,4.14,5.7,2.04,7.35-.05-.07-.1-1-.61-1.63h-15.73c-.1-4.96-.71-2.89-3.27-2.86,1.57-.99,3.14-2.29,5.51-2.86h12.05Z"/>
        <path class="cls-44" d="m150.67,173.62c.13,6.22-2.46,3.83-8.99,3.27.04-.13-.61-.74,0-2.65.37-1.16,1.58-3.29,1.63-3.47,1.36-.01,2.72.01,4.08,0,2.55-.03,3.17-2.1,3.27,2.86Z"/>
      </g>
      <path class="cls-53" d="m177.63,112.76c0,.16,1.09,1.22.82,3.06l-6.13,4.29c-.75-.16-1.6.29-2.45-.41.14-.42-.1-1.56,0-2.45.09-.82.12-4,0-4.49h7.76Z"/>
      <path class="cls-49" d="m149.86,82.53v.41c-.5.1-1.11-.07-1.63,0h-.41l-3.88-7.35c-3.5-.05-6.91-.48-10.42-.41-.02-.5.55-.62.82-.82,3.63-2.66,11.32-4.05,13.48,1.02.67,1.57.65,5.67,2.04,7.15Z"/>
      <path class="cls-55" d="m133.52,75.18c3.51-.07,6.92.36,10.42.41l3.88,7.35c-1.33-.1-2.6,1.25-3.68,2.04-3.85,1.43,2.51-5.3-2.25-7.35-.2-.09-2.28-.14-3.47-.41-.98-.22-1.42-.3-2.45-.41-1.23-.13-2.46-.07-3.68-.41.15-.6.6-.39,0-1.23.41-.02.82,0,1.23,0Z"/>
      <path class="cls-60" d="m155.17,87.03c-1.04,4.67,2.36,4.03,6.13,2.86-1.02.75-3.26,1.98-3.27,2.65.83,1.37,4.8,8.68,4.9,9.19-1.44-.24-2.37-3.57-4.08-6.13-.12-.18-.2-2.02-1.84-2.86-3.25-.56-6.39-1.72-9.6-2.45,1.34-1,4.23-.71,5.51-1.63.96-.69.53-1.55.61-1.63.46-.46.5-.76.61-.82.09-.04.55.79,1.02.82Z"/>
      <path class="cls-44" d="m135.97,76.82c.06,2.2-1.07,9.71-.82,10.62l-5.51-.41c-.53-.33.47-3.38.61-4.08.47-2.26,1.47-4.32,2.04-6.54,1.22.34,2.45.28,3.68.41Z"/>
      <path class="cls-60" d="m135.15,87.44c.02.07.98.19.82,1.23-2.45-.19-4.87-.69-7.35-.41.21-1.49.18-3.8,1.63-5.31-.15.7-1.14,3.75-.61,4.08l5.51.41Z"/>
      <g>
        <path class="cls-51" d="m135.15,91.11c2.6.68,5.47.99,8.17,1.63,1.52,8.07,7.26,4.13,15.32,5.72,1.07-.24-.09-2.37-.2-2.45l.41-.41c1.71,2.56,2.64,5.89,4.08,6.13.05.26-.02.55,0,.82-3.58-.2-9.79-.27-12.66.82-.74-.18-1.68-.32-2.45-.41-1.04-.36-2.26-.4-3.27-.82-1.71-.7-2.8-2.16-4.49-2.86-2.1-.87-4.83-1.63-7.35-1.23-1.31-2.63-2.62-5.21-4.08-7.76,1.61-.26,2.62,4.82,3.47,4.9.27.03,3.94-3.3,3.06-4.08Z"/>
        <path class="cls-53" d="m147.81,102.96c.15.68-.41.89-.82,1.23-1.27,1.04-2.78,1.82-4.08,2.86-1.65,1.31-3.13,2.45-4.49,4.08-1.06-1.37-2.41-5.12-3.27-6.94,1.61,1.02,2.43-.14,3.68-.41,1.81-.39,4.28-.41,5.72-1.63,1.01.42,2.23.46,3.27.82Z"/>
        <path class="cls-43" d="m156.39,107.45c.18.03.91-.37,3.68,0,.46.74,1.22.23,1.23.61,0,.37-2.69.19-2.45,1.43-6.44,1.04-13.01,1.48-19.4,2.86-1.21-.06-.97-1.16-1.02-1.23,1.36-1.64,2.85-2.77,4.49-4.08,1.95,4.65,12.27,3.23,13.48.41Z"/>
        <path class="cls-53" d="m140.05,99.28l-1.23,4.49c-1.25.27-2.07,1.42-3.68.41-.92-1.96-1.5-4.22-2.45-6.13,2.53-.41,5.25.35,7.35,1.23Z"/>
        <path class="cls-51" d="m135.15,91.11c.88.78-2.79,4.11-3.06,4.08-.86-.09-1.87-5.16-3.47-4.9-.26-.44-.55-.79-.82-1.23.2-.06.81-.76.82-.82,1.84,1.45,4.33,2.28,6.54,2.86Z"/>
        <path class="cls-46" d="m135.97,88.66c1.52.12,2.98.2,4.49.41,1.3.18,1.81.37,2.04.41,1.56.25,3.39.47,4.9.82,3.2.73,6.34,1.89,9.6,2.45,1.64.83,1.72,2.68,1.84,2.86l-.41.41c-1.6-1.16-12.52-2.65-15.11-3.27-2.7-.64-5.56-.95-8.17-1.63-2.21-.58-4.69-1.41-6.54-2.86,2.49-.28,4.9.22,7.35.41Z"/>
        <path class="cls-4" d="m158.43,96.01c.11.08,1.27,2.21.2,2.45-8.06-1.59-13.8,2.35-15.32-5.72,2.59.62,13.51,2.11,15.11,3.27Z"/>
        <path class="cls-36" d="m150.26,103.37c2.96.73,5.98,1.12,8.99,1.63-.09.9.37,1.73.82,2.45-2.77-.37-3.49.03-3.68,0-3.09-.5-6.37-2.4-9.39-3.27.41-.33.97-.55.82-1.23.77.09,1.71.23,2.45.41Z"/>
        <path class="cls-43" d="m144.55,102.14c-1.43,1.23-3.91,1.24-5.72,1.63l1.23-4.49c1.69.7,2.79,2.16,4.49,2.86Z"/>
        <path class="cls-43" d="m156.39,107.45c-1.21,2.83-11.53,4.24-13.48-.41,1.31-1.04,2.82-1.82,4.08-2.86,3.02.87,6.31,2.77,9.39,3.27Z"/>
      </g>
      <g>
        <path class="cls-46" d="m206.22,58.44c2.24.19,5.54.42,7.76.41,2,1.7,4.15,2.53,6.13,4.49,5.2,5.17,10.11,20.07,12.25,27.37.32,1.1,1.19,2.71,1.23,2.86.93,3.58,1.44,7.37,2.04,11.03.57,3.49.54,5.11.82,8.17-.57-.34-1.12-.81-1.63-1.23-2.79-2.27-5.51-4.45-8.58-6.33-4.72-12.53-10.95-40.61-26.55-42.27-.41-.04-.45-.43-.82-.41,1.19-1.41,2.54-2.63,3.68-4.08,1.09.16,2.91-.07,3.68,0Z"/>
        <path class="cls-43" d="m236.45,112.76c.02.21.81,2.71.82,2.86.03.55-.02,1.06,0,1.63.05,1.49,0,3,0,4.49,0,.98.04,2.45,0,3.27-.33,6.93-.57,15.12-6.33,20.01-1.62,1.38-4.6,2.94-6.74,2.86-.07,0-1.1-.77-1.23-.82,2.66-8.26,8.21-17.88.41-14.3.16-2.59.15-6.79,0-9.39,6.09,1.89,5.56-4.17,4.49-8.17,2.73-.6,4.95-1.79,6.94-3.68.52.42,1.06.88,1.63,1.23Z"/>
        <path class="cls-43" d="m234.81,111.53c-2,1.89-4.22,3.07-6.94,3.68-.2-.74-.51-1.45-.41-2.25-.91-.36-1.65-.87-2.45-1.43,2.14-3.3-.77-8.19-1.23-12.05-6.34-6.84-6.36-15.24-8.17-10.82-3.28-9.23-14.29-18.47-15.52-20.22-.76-1.08.24-2.63-1.63-2.25.46-1.06,1.31-2.02,1.23-3.27,15.6,1.66,21.83,29.74,26.55,42.27,3.07,1.89,5.79,4.06,8.58,6.33Z"/>
        <path class="cls-4" d="m199.69,62.93c.09,1.25-.76,2.21-1.23,3.27-.52,1.19-1.25,2.31-1.23,3.68-.08-.09-.7.26-2.04-1.43.67-.68,1.51-4.09,1.63-4.29.07-.11.37.35,2.04-1.63.36-.02.41.36.82.41Z"/>
        <path class="cls-53" d="m215.62,88.66c1.08,3.03,2.35,7.67,1.23,9.39-5.43-12.66-10.71-18.36-19.61-28.18-.03-1.37.71-2.49,1.23-3.68,1.87-.39.88,1.17,1.63,2.25,1.23,1.75,12.24,10.99,15.52,20.22Z"/>
        <path class="cls-43" d="m225.01,111.53c-.9-.63-2.91-1.39-4.08-1.63-1.03-4.08-2.43-7.99-4.08-11.85,1.12-1.72-.15-6.37-1.23-9.39,1.81-4.41,1.83,3.99,8.17,10.82.45,3.86,3.37,8.75,1.23,12.05Z"/>
        <path class="cls-2" d="m225.01,111.53c.8.56,1.54,1.07,2.45,1.43-.11.79.21,1.51.41,2.25,1.07,4,1.6,10.05-4.49,8.17-.26-4.56-1.34-9.06-2.45-13.48,1.17.24,3.18,1.01,4.08,1.63Z"/>
        <path class="cls-53" d="m222.97,147.07c-.35-.12-1.44-.15-2.04-.41.58-2.49,1.22-5.25,1.63-7.76.19-1.14.29-2.51.41-3.68.1-.98.4-2.33.41-2.45,7.81-3.58,2.25,6.04-.41,14.3Z"/>
      </g>
      <g>
        <path class="cls-39" d="m200.5,49.04c.21,0,.68-.38,4.08-.41.06,0-.36.42,1.23.41v3.68l-19.2-2.45c-.05-.15.07-.45-.41-.41.04,0-.16-.64.2-.82.4-.19,7.48-.35,8.78-.41.27-.01,1.08.47,5.31.41Z"/>
        <path class="cls-6" d="m205.81,52.72l.41,5.72c-.77-.07-2.58.16-3.68,0-4.5-.48-8.48-3.53-12.46-5.72-.88-.48-2.27.85-3.47-2.45l19.2,2.45Z"/>
        <path class="cls-50" d="m186.62,50.27c1.21,3.3,2.59,1.97,3.47,2.45,3.98,2.18,7.96,5.24,12.46,5.72-1.14,1.45-2.48,2.67-3.68,4.08-1.68,1.99-1.97,1.52-2.04,1.63h-2.04c.22-1.3-1.33-.21-1.84-.41-1.42-.54-2.64-1.67-3.88-2.45.06-2.41-3.9-5.45-4.08-5.92-.83-2.18,2.04-2.71-2.45-3.47.03-.69-.04-1.01.41-1.63.8-.04,1.67.1,2.45,0,1.49-.19.74-.39.82-.41.48-.04.35.26.41.41Z"/>
        <path class="cls-20" d="m182.94,50.27c-.45.62-.38.94-.41,1.63-.07,1.56.05,3.14,0,4.7,2.75,1.09,2.69,2.29,6.54,4.7,1.24.78,2.46,1.91,3.88,2.45.51.19,2.05-.89,1.84.41-.1.62-1.05,2.08-1.84,2.04-.68-.03-3.88-3.14-12.05-6.54v-9.19c.59-.93.78-.14,2.04-.2Z"/>
        <path class="cls-20" d="m189.07,61.3c-3.85-2.41-3.79-3.61-6.54-4.7.05-1.56-.07-3.14,0-4.7,4.49.76,1.62,1.29,2.45,3.47.18.47,4.15,3.51,4.08,5.92Z"/>
      </g>
      <g>
        <path class="cls-35" d="m183.35,120.93c-2.37-1.11-5.93,8.63-9.39,13.07-.37-.03-.42.4-.82.41-.05,0-.32-.82-.61-.82-4.54.05-9.18-.37-13.68.41-.13-.02-.28.03-.41,0-.84-.19-1.21-4.04-13.48-2.04-.68-2.19-1.36-3.72-1.63-6.13-.05-.46-1.32-1.78.82-2.04,1.14.19,21.96-1.75,23.08-2.04.6-.16,2.41-1.32,2.65-2.04.85.7,1.7.25,2.45.41.55.12,1.35.82,1.43.82,3.56-.12,6.14-4.85,9.6,0Z"/>
        <path class="cls-20" d="m183.35,120.93c3.29,4.62,3.53,19.3-6.94,15.11-.48-.19-2.24-1.38-2.45-2.04,3.46-4.44,7.03-14.18,9.39-13.07Z"/>
      </g>
      <path class="cls-24" d="m159.66,80.9l4.49,7.35c-.84.64-1.94.96-2.86,1.63-3.77,1.17-7.17,1.81-6.13-2.86.21-.92,1.94-3.93,2.45-5.31.11-.03,1.2-.52,2.04-.82Z"/>
      <path class="cls-18" d="m173.55,104.18c-.47-.14-1.12-.28-1.63-.41-1.06-.26-3.4-.68-4.49-.82,4.24-3.05,6.97-4.11,6.13,1.23Z"/>
      <g>
        <path class="cls-6" d="m167.01,86.21c-.06.12-.96.99-1.23,1.23-.07.06-.34-.18-1.63.82l-4.49-7.35c.68-.24,1.79-1.04,2.86-1.23,2.95,1.77,3.5,3.3,4.49,6.54Z"/>
        <path class="cls-57" d="m167.42,82.53c.16,1.18.13,2.55-.41,3.68-.99-3.23-1.54-4.76-4.49-6.54-.14-.08-1.58-.22-2.86-1.63,4.16-.58,7.08-.42,7.76,4.49Z"/>
        <path class="cls-8" d="m159.66,78.04c1.28,1.41,2.72,1.55,2.86,1.63-1.07.19-2.18.98-2.86,1.23-.85.3-1.94.79-2.04.82-2.1.62-4.41.75-6.54,1.23-.37.08-.85-.08-1.23,0v-.41c3.15-2.38,5.84-3.94,9.8-4.49Z"/>
      </g>
      <path class="cls-40" d="m242.98,117.66l-5.72,4.08c0-1.49.05-3,0-4.49,1.52-.54,4.99-1.67,5.72.41Z"/>
      <path class="cls-53" d="m149.86,82.94c.38-.08.85.08,1.23,0l2.45,4.08c-.08.09.34.94-.61,1.63-1.28.93-4.17.64-5.51,1.63-1.51-.35-3.34-.57-4.9-.82,2.47-1.3,4.4-4.11,5.72-6.54.52-.07,1.14.1,1.63,0Z"/>
      <path class="cls-59" d="m147.81,82.94h.41c-1.32,2.42-3.25,5.24-5.72,6.54-.23-.04-.74-.23-2.04-.41v-.82c1.96.03,2.45-2.36,3.68-3.27,1.07-.8,2.34-2.14,3.68-2.04Z"/>
      <path class="cls-24" d="m144.14,84.99c-1.22.91-1.72,3.3-3.68,3.27-.41,0-1.42.16-1.63-.2-.28-.47-.19-9.33-.41-10.82,1.19.27,3.27.32,3.47.41,4.75,2.05-1.61,8.78,2.25,7.35Z"/>
      <path class="cls-53" d="m138.42,77.22c.21,1.5.13,10.36.41,10.82.22.37,1.22.2,1.63.2v.82c-1.51-.21-2.97-.29-4.49-.41.17-1.04-.8-1.15-.82-1.23-.25-.91.88-8.42.82-10.62,1.03.11,1.47.19,2.45.41Z"/>
      <path class="cls-13" d="m157.62,81.72c-.51,1.38-2.25,4.39-2.45,5.31-.47-.03-.93-.86-1.02-.82-.11.06-.16.35-.61.82l-2.45-4.08c2.13-.48,4.43-.6,6.54-1.23Z"/>
      <g>
        <path class="cls-53" d="m170.69,160.14c.06.79.57,1.21.41,2.04-2.25,1.64-6.27,4.48-6.13,5.72h-12.05c-2.37.57-3.95,1.87-5.51,2.86-1.36.01-2.72-.01-4.08,0,.13-.45.26-2.1.82-4.08.22-.78.12-2.97.82-4.49.13-.28-.3-1.08.61-1.63l25.12-.41Z"/>
        <path class="cls-53" d="m155.17,144.62c.22.8-.34,3.7.2,4.08,2.68.28,9.63-.38,10.82,0,.57.18.38.39.41.41.54.37,3.56,7.62,3.68-.41.95,0,1.91,0,2.86,0,.03.08,1.09.65,1.23,1.02-1.24,1.39-2.37,4.62-3.68,5.51-.49.33-.34.38-.61.82h-24.1c-.79-.35-1.02-15.23-1.02-17.15,0-.21.71-1.31.41-4.08.26.58.49.99.61,1.63,4.22-3.29,8.37,5.12,9.19,8.17Z"/>
        <path class="cls-9" d="m170.69,155.24c.09,1.62-.13,3.29,0,4.9l-25.12.41c-.91.55-.49,1.36-.61,1.63v-13.68c-.21-.4-.87-.11-1.23-.2,2.45-.79.75-5.85.82-9.39h.41c0,1.92.24,16.81,1.02,17.15h24.1c.28-.44.13-.49.61-.82Z"/>
        <path class="cls-53" d="m176.41,136.04l-5.31,8.58c-1.08-.06-2.19.09-3.27,0-.54-.04-1.09.03-1.63,0,.79-1.49-.88-2.13-1.63-3.27-2.08-3.13-1.12-2.72-1.23-2.86,7.25-.42,8.35,1.46,9.39-2.04.2-.65.46-1.34.41-2.04.4,0,.45-.44.82-.41.21.66,1.98,1.85,2.45,2.04Z"/>
        <path class="cls-55" d="m171.1,144.62c1.33,1.09,1.51,2.6,2.04,4.08-.95,0-1.91,0-2.86,0-1.23,0-2.55-.26-3.68.41-.02-.02.16-.22-.41-.41l1.63-4.08c1.08.09,2.19-.06,3.27,0Z"/>
        <path class="cls-43" d="m158.43,134c-1.25,2.3-7.1,2.07-4.08,6.33,1.89,2.67,7.2,1.09,10.21,1.02.76,1.14,2.43,1.78,1.63,3.27-3.66-.19-7.37.14-11.03,0-.82-3.05-4.97-11.46-9.19-8.17-.13-.64-.36-1.06-.61-1.63-.26-.58-.25-2.34-.41-2.86,12.27-2,12.64,1.85,13.48,2.04Z"/>
        <path class="cls-43" d="m161.29,136.45c2.01,2.48,1.96,1.93,2.04,2.04.1.14-.85-.27,1.23,2.86-3.02.07-8.32,1.65-10.21-1.02-3.01-4.26,2.83-4.03,4.08-6.33.13.03.28-.02.41,0,1.04.58,1.72,1.55,2.45,2.45Z"/>
        <path class="cls-47" d="m166.19,144.62c.54.03,1.09-.04,1.63,0l-1.63,4.08c-1.2-.38-8.14.28-10.82,0-.54-.38.01-3.29-.2-4.08,3.66.14,7.37-.19,11.03,0Z"/>
        <path class="cls-40" d="m170.28,148.7c-.11,8.03-3.14.78-3.68.41,1.12-.66,2.45-.4,3.68-.41Z"/>
      </g>
      <g>
        <path class="cls-65" d="m173.14,134.41c.06.7-.21,1.39-.41,2.04h-11.44c-.73-.9-1.41-1.87-2.45-2.45,4.5-.78,9.15-.36,13.68-.41.29,0,.56.82.61.82Z"/>
        <path class="cls-55" d="m172.73,136.45c-1.04,3.5-2.14,1.62-9.39,2.04-.09-.12-.03.44-2.04-2.04h11.44Z"/>
      </g>
      <g>
        <g>
          <path class="cls-15" d="m51.83,44.55c-1.14,9.47-9.35,14.06-.41,13.89-4.5,5.7.03,2.91,2.86,6.54-.8-.01-.94-.49-1.63-.41-7.53-4.46-16.12-4.26-24.1-.82,1.13-4.37,4.1-7.89,6.74-11.44,5.75-1.97,11.13-5.04,16.54-7.76Z"/>
          <path class="cls-20" d="m55.5,42.91c.02.54,0,1.09,0,1.63-.02,4.36-.51,8.96-1.23,13.27-.65.93-1.79.59-2.86.61-8.95.17-.73-4.42.41-13.89,1.16-.58,2.18-1.78,3.68-1.63Z"/>
          <path class="cls-55" d="m58.77,45.37c-.15.31-1.09,5.05-1.63,6.74,1.64-1.29,2.71-1.22,4.49-1.02,1.92,1.09-.93,6.59-.82,7.96.19,2.22,3.04,2.09,2.86,4.29-2.5.04-5.25.83-7.76,1.23-.87.14-1,.4-1.23.41-.13,0-.27,0-.41,0-2.83-3.62-7.36-.84-2.86-6.54,1.07-.02,2.21.32,2.86-.61.71-4.32,1.2-8.92,1.23-13.27l3.27.82Z"/>
        </g>
        <g>
          <path class="cls-44" d="m137.6,185.87c-.28.37-.61.8-.82,1.23-6.84,1.98-13.88,3.04-20.83,4.49-1.85.39-4.21.56-6.13.82-3.85-.05-7.37,10.15-12.46,13.89-2.87,2.11-7.43,3.52-10.82,4.49-1.17.33-3.95,0-2.86,1.23-8.31-1.81-14.05,5.85-6.94-2.45.15-.13,2.44-1.32,3.27-2.25.33-.74,1.14-2.54,1.23-2.65,3.22-4.44,6.64-10.16,8.99-15.11-1.46,4.32-4.21,7.5-1.02,7.35,3.79-.17,17.71-36.09,18.99-41.46,2.08-8.73,2.13-17.16.82-25.94l1.63-1.02c4.66,20.33,5.13,34.23-3.68,53.51,13.53-7.85,15.29,5.63,27.57,4.7.18-.01-.38-.78,3.06-.82Z"/>
          <path class="cls-7" d="m73.48,40.87c1.09-.02,2.18.02,3.27,0,1.51,2.26,5.5,3.53,8.17,4.08,7.1,3.2,13.14,8.2,18.79,13.48.68.64,3.31,4.48,4.7,5.72h1.02c-.84.74.84,1.74,2.45,3.68,2.46,2.95,5.01,5.95,7.35,8.99,3.04,3.95,6.02,7.97,8.58,12.25.26.44.56.78.82,1.23,1.47,2.55,2.78,5.13,4.08,7.76.95,1.91,1.53,4.17,2.45,6.13.86,1.82,2.21,5.58,3.27,6.94.05.06-.19,1.16,1.02,1.23,6.39-1.38,12.96-1.82,19.4-2.86,2.57-.42,5.22-.75,7.76-1.23.61,1.56,2.77,3.46,2.86,3.68-3.44,1.32-28.26,5.15-29.61,4.49-.44-.21-.42-2.26-2.04-3.68-1.27-1.1-9.72-4.3-12.25-6.13-5.79-4.18-22.39-25.3-24.1-25.73-.08-.02-.3.5-.61.41-8.2-12.02-28.58-29.06-39.21-30.23-1.78-.2-2.85-.27-4.49,1.02.54-1.69,1.49-6.43,1.63-6.74,3.06-6.55,8.73-4.36,14.7-4.49Z"/>
          <path class="cls-48" d="m100.84,81.31c7.32,10.74,14.46,27.57,17.56,40.23.65,1.32,1.43,1.52,2.04,2.25-.43,2.79,5.95,18.01,7.35,19.61-2.02,1.98,4.34,7.71,7.35,12.05,1.13,1.63,3.77,7.78,4.08,8.17,2.48,3.07,3.54.82,4.9,3.06-.56,1.99-.69,3.63-.82,4.08-.05.18-1.27,2.31-1.63,3.47-.61,1.92.04,2.53,0,2.65-.06.17-.35.12-1.63,3.27-.49,1.21-1.08,2.99-1.23,3.27-.25.49-1.14,2.34-1.23,2.45-3.44.04-2.89.8-3.06.82-12.28.93-14.04-12.55-27.57-4.7,8.81-19.27,8.34-33.17,3.68-53.51l-1.63,1.02c-.79-5.28-2.05-7.8-3.27-12.25-2.59-9.48-3.07-12.29-7.76-21.24-5.07-9.68-8.53-13.43-16.34-20.83-4.59-4.35-11.6-11.94-17.97-11.85.18-2.2-2.67-2.07-2.86-4.29-.11-1.37,2.74-6.87.82-7.96,10.63,1.17,31.01,18.2,39.21,30.23Z"/>
          <path class="cls-8" d="m169.46,111.94s.13-.3.41.82c.12.49.09,3.67,0,4.49h-.82c.15-.7.54-3.28-.2-2.86-3.42,1.98-10.16,1.72-12.05,5.72-2.14.24-18.45,2.72-12.66,3.68-2.14.26-.87,1.59-.82,2.04l-21.24-.82c-.23-.27-1.41-.96-1.63-1.23-.61-.73-1.39-.93-2.04-2.25-3.11-12.66-10.24-29.5-17.56-40.23.31.09.53-.43.61-.41,1.71.43,18.31,21.56,24.1,25.73,2.53,1.83,10.99,5.02,12.25,6.13,1.62,1.41,1.6,3.46,2.04,3.68,1.35.65,26.17-3.17,29.61-4.49Z"/>
          <path class="cls-55" d="m122.08,125.01c2.77,3.22,3.93,3.46,6.33,8.58l16.13,5.31c-.06,3.55,1.63,8.61-.82,9.39-2.72-.68-11.29.38-15.93-4.9-1.4-1.6-7.79-16.82-7.35-19.61.22.26,1.4.95,1.63,1.23Z"/>
          <path class="cls-48" d="m143.73,148.29c.36.09,1.01-.2,1.23.2v13.68c-.69,1.53-.6,3.71-.82,4.49-1.37-2.24-2.42.01-4.9-3.06-.31-.39-2.96-6.54-4.08-8.17-3.01-4.34-9.37-10.07-7.35-12.05,4.64,5.28,13.21,4.22,15.93,4.9Z"/>
          <path class="cls-19" d="m143.32,125.83c.27,2.4.95,3.93,1.63,6.13.16.52.15,2.28.41,2.86.3,2.78-.41,3.88-.41,4.08h-.41l-16.13-5.31c-2.4-5.12-3.56-5.36-6.33-8.58l21.24.82Z"/>
        </g>
        <g>
          <path class="cls-55" d="m169.05,107.86c-.22,2.98,4.51,0,8.17,0,.27,1.77.31,3.14.41,4.9h-7.76c-.28-1.12-.39-.77-.41-.82-.09-.22-2.25-2.11-2.86-3.68.83-.15,1.64-.23,2.45-.41Z"/>
          <path class="cls-25" d="m171.5,107.45c-.49.17-1.8.27-2.45.41-.81.18-1.63.26-2.45.41-2.55.47-5.19.81-7.76,1.23-.24-1.24,2.46-1.06,2.45-1.43-.01-.38-.77.13-1.23-.61-.45-.72-.91-1.55-.82-2.45,3.92.67,8.79,1.1,12.25,2.45Z"/>
          <g>
            <path class="cls-41" d="m169.87,117.25c-.1.89.14,2.04,0,2.45-.24.72-2.05,1.88-2.65,2.04-1.12.3-21.93,2.23-23.08,2.04-5.78-.95,10.53-3.43,12.66-3.68,8.81-1,11.18,2.2,12.25-2.86h.82Z"/>
            <path class="cls-19" d="m169.05,117.25c-1.08,5.06-3.45,1.86-12.25,2.86,1.89-4,8.63-3.74,12.05-5.72.74-.42.35,2.16.2,2.86Z"/>
          </g>
          <path class="cls-65" d="m162.93,102.55c1.47.08,3.04.23,4.49.41,1.09.13,3.44.56,4.49.82-1.23,1.3,2.09,1.31,2.04,2.25-.01.23-2.07,1.3-2.45,1.43-3.47-1.35-8.34-1.78-12.25-2.45-3-.51-6.02-.9-8.99-1.63,2.87-1.09,9.08-1.02,12.66-.82Z"/>
          <path class="cls-57" d="m173.55,104.18c1.22.36,2.5.52,3.68,1.02.52,2.19-.02,2.52,0,2.65-3.66,0-8.39,2.98-8.17,0,.65-.14,1.96-.24,2.45-.41.38-.13,2.44-1.2,2.45-1.43.05-.94-3.28-.94-2.04-2.25.51.12,1.16.27,1.63.41Z"/>
        </g>
        <g>
          <path class="cls-51" d="m54.28,64.97c.14,0,.27,0,.41,0,22.25,16.63,35.94,41.63,41.25,68.62.72,3.64,1.04,7.37,1.63,11.03.11,5.31.33,10.62,0,15.93-1.14,10.11-4.13,19.43-7.35,29-2.35,4.95-5.76,10.67-8.99,15.11-1.83,1.31-3.05,3.22-4.49,4.9-9.17,7.83-21.41,8.87-32.27,3.68-5.28-2.53-11.35-8.12-15.52-12.25-1.43-1.42-5.59-6.1-6.94-7.76-.28-.35-.54-.87-.82-1.23,3.95,1.69,4.81,7.5,9.39,6.94,2.17,2.1,9.8,8.17,12.25,9.39,3.17,9.76,28.97,4.26,17.97,2.86,14.61-2.17,22.97-16.46,27.77-29,1.98-5.18,3.15-8.26,4.08-13.89,2.42,4.57,2.89,1.6,3.68-3.47,5.11-32.74-14.36-82.89-43.7-100.27.69-.08.83.4,1.63.41Z"/>
          <path class="cls-4" d="m52.65,64.56c29.34,17.38,48.81,67.53,43.7,100.27-.79,5.07-1.25,8.04-3.68,3.47,4.44-26.76-2.64-54.83-17.56-77.2-2.11-3.17-4.03-6.71-6.54-9.6-20.57-23.65-47.06-19.41-59.23,9.39-13.53,32.03-4.08,83.53,21.24,108.04-4.58.56-5.44-5.25-9.39-6.94C4.59,170.78-1.65,142.41.36,115.82c1.34-17.74,10.51-44.46,28.18-52.08,7.98-3.44,16.57-3.64,24.1.82Z"/>
          <path class="cls-53" d="m75.11,91.11c-2.93,2.66-4.71-3.59-9.8-8.78-15.58-15.88-36.71-18.87-49.01,2.45-20.29,35.16-4.05,102.84,24.3,119.47,20.18,11.84,33.28,1.44,43.5-16.13,1.91-3.28,1.66-6.13,4.49-5.92-4.8,12.54-13.16,26.83-27.77,29-6.34.94-12.21.02-17.97-2.86-2.45-1.23-10.09-7.3-12.25-9.39C5.27,174.44-4.18,122.94,9.35,90.91c12.16-28.8,38.66-33.04,59.23-9.39,2.51,2.88,4.42,6.43,6.54,9.6Z"/>
          <path class="cls-39" d="m55.91,64.56c6.36,8.79,16.32,6.78,25.73,10.62,7.81,7.4,11.27,11.16,16.34,20.83,2.58,12.42.42,24.74-.82,37.17-.45.16-.66.56-1.23.41-5.31-26.99-19.01-51.99-41.25-68.62.22-.01.36-.27,1.23-.41Z"/>
          <path class="cls-55" d="m104.11,152.38c-4.44-.85-2.45,1.2-3.47,1.63-2.64,1.11-2.06-3.22-3.06-9.39-.59-3.66-.92-7.39-1.63-11.03.57.15.78-.25,1.23-.41,3.27-1.15,7.19-3.82,8.17-7.35,1.32,8.97.14,17.74-1.23,26.55Z"/>
          <path class="cls-48" d="m104.11,152.38c-1.41,9.13,1.43,8.88-6.54,9.8.04-.54-.03-1.09,0-1.63.33-5.31.11-10.62,0-15.93,1,6.17.42,10.5,3.06,9.39,1.03-.43-.97-2.49,3.47-1.63Z"/>
          <path class="cls-51" d="m60.81,211.2c11,1.4-14.8,6.91-17.97-2.86,5.76,2.88,11.63,3.8,17.97,2.86Z"/>
          <path class="cls-44" d="m97.57,162.18c-.74,9.5-3.26,18.75-7.35,27.37,3.23-9.57,6.21-18.89,7.35-29-.03.54.04,1.09,0,1.63Z"/>
          <path class="cls-42" d="m76.74,209.56c1.44-1.68,2.66-3.59,4.49-4.9-.09.12-.89,1.92-1.23,2.65-.83.93-3.12,2.12-3.27,2.25Z"/>
          <path class="cls-48" d="m109.01,129.51c1.32,8.77,1.27,17.21-.82,25.94-1.28,5.36-15.2,41.28-18.99,41.46-3.19.15-.43-3.03,1.02-7.35,4.09-8.61,6.61-17.86,7.35-27.37,7.97-.93,5.12-.67,6.54-9.8,1.36-8.81,2.54-17.58,1.23-26.55,1.22-4.42-.74-7.01.41-8.58,1.22,4.45,2.47,6.97,3.27,12.25Z"/>
          <path class="cls-41" d="m105.74,117.25c-1.15,1.57.81,4.15-.41,8.58-.98,3.54-4.9,6.2-8.17,7.35,1.23-12.43,3.39-24.75.82-37.17,4.69,8.95,5.17,11.76,7.76,21.24Z"/>
          <path class="cls-39" d="m81.65,75.18c-9.41-3.84-19.37-1.83-25.73-10.62,2.51-.39,5.26-1.19,7.76-1.23,6.37-.09,13.38,7.5,17.97,11.85Z"/>
          <g>
            <path class="cls-43" d="m75.11,91.11c14.93,22.37,22.01,50.43,17.56,77.2-.93,5.63-2.1,8.71-4.08,13.89-2.83-.21-2.58,2.64-4.49,5.92-10.22,17.57-23.32,27.97-43.5,16.13C12.25,187.62-4,119.95,16.29,84.78c12.31-21.32,33.43-18.33,49.01-2.45,5.1,5.2,6.87,11.44,9.8,8.78Z"/>
            <g>
              <path class="cls-52" d="m37.74,76.82c32.09-3.74,51.89,48.59,49.22,84.34-2.01,26.9-19.87,54.75-48.4,32.88-36.72-28.15-35.73-113.16-.82-117.23Z"/>
              <g>
                <g>
                  <path class="cls-62" d="m69.39,128.28c6.71,24.98-6.88,62.76-24.92,35.94.17.06.54-.03.82,0,1.86.26,12.76,5.84,13.48,4.7.3-1.69-.45-1.89-.82-2.65,8.51-10.35,8.92-24.59,6.13-37.17,1.78-.4,3.43-1.07,5.31-.82Z"/>
                  <path class="cls-17" d="m69.39,128.28c-1.88-.26-3.53.41-5.31.82-.24.05-.59-.06-.82,0-3.37-6.61-8.52-12.18-14.91-15.93-1.68-.37-2.13,1.17-2.25,1.23-5.09,2.71-2.6,3.01-10.62,2.04,5.53-4.56,11.73-7.94,18.18-11.03,1.02.74-2.14,5.52-3.06,6.33.85,1.08,13.41-3.47,18.79,16.54Z"/>
                  <path class="cls-61" d="m64.08,129.1c2.8,12.58,2.38,26.82-6.13,37.17-.22-.47-3.03-3.97-3.27-4.08,6.91-5.47,6.46-15.64,6.13-23.69-.1-2.33-.4-5.47-.82-7.76-.02-.13.03-.28,0-.41,1.07-.37,2.18-.93,3.27-1.23.22-.06.58.05.82,0Z"/>
                  <path class="cls-20" d="m54.69,162.18c.24.11,3.05,3.62,3.27,4.08.37.77,1.12.96.82,2.65-.72,1.14-11.62-4.43-13.48-4.7l7.96-2.45c.61-.16.95.18,1.43.41Z"/>
                  <path class="cls-62" d="m63.27,129.1c-1.09.3-2.2.85-3.27,1.23-1.62-7.97-6.71-12.64-13.89-15.93.11-.06.57-1.59,2.25-1.23,6.39,3.75,11.54,9.32,14.91,15.93Z"/>
                </g>
                <g>
                  <path class="cls-8" d="m60,130.32c.03.13-.02.28,0,.41l-8.17,11.03c-.4-11.47-9.98-31.46-22.06-19.2.1-.17.5-1.83.82-2.25,1.35-1.76,3.27-2.53,4.9-3.88,8.02.97,5.53.67,10.62-2.04,7.18,3.29,12.27,7.96,13.89,15.93Z"/>
                  <path class="cls-55" d="m60.81,138.49c-1.66-1.15-1.78,4.85-3.68,9.6-3.03,7.6-6.79,13.69-15.11,15.73-.55-.18-1.92-.22-2.45-.41,1.35-1.73,4.22-.18,7.35-4.29.36-.48-.43-.58-.41-.61,3.59-5.04,5.53-10.35,5.31-16.75l8.17-11.03c.42,2.29.72,5.43.82,7.76Z"/>
                  <path class="cls-20" d="m60.81,138.49c.33,8.05.78,18.22-6.13,23.69-.48-.23-.82-.57-1.43-.41l-7.96,2.45c-.27-.03-.64.06-.82,0-.17-.06-1.25-.02-2.45-.41,8.32-2.04,12.08-8.13,15.11-15.73,1.89-4.74,2.01-10.75,3.68-9.6Z"/>
                  <g>
                    <path class="cls-51" d="m51.83,141.76c.22,6.39-1.72,11.7-5.31,16.75-4.96,5.88-10.49,2.76-13.89-2.86-.86-1.43-3.98-9.74-4.49-11.64-1.05-3.88-.97-8.71-2.04-8.37-.01-1.22.31-2.16.41-3.27.65-1.38,1.99-5.03,1.23-6.13.48-1.31,1.32-2.49,2.04-3.68,12.07-12.27,21.65,7.73,22.06,19.2Z"/>
                    <path class="cls-32" d="m32.63,155.65l-.82.41c-3.44-7.48-5.63-11.89-5.72-20.42,1.07-.34.99,4.49,2.04,8.37.52,1.9,3.63,10.22,4.49,11.64Z"/>
                    <path class="cls-11" d="m46.52,158.51s.77.14.41.61c-3.13,4.11-6.01,2.56-7.35,4.29-3.73-1.31-6.04-4.35-8.58-7.15l.82-.2.82-.41c3.39,5.62,8.93,8.74,13.89,2.86Z"/>
                    <path class="cls-1" d="m26.5,132.37c.23-2.52.35-3.72,1.23-6.13.77,1.1-.57,4.75-1.23,6.13Z"/>
                    <path class="cls-53" d="m41.21,124.2c-10.91,7.28-10.19,27.57,4.08,29.82-12.62,17.32-25.92-40.78-4.08-29.82Z"/>
                    <g>
                      <path class="cls-58" d="m41.21,124.2c7.75,3.89,8.62,23.59,4.08,29.82-14.28-2.25-15-22.53-4.08-29.82Z"/>
                      <path class="cls-22" d="m45.7,148.7c-3.22,1.78-5.67-1.9-6.54-4.49,1.6,1.27,1.04-1.15,2.65-1.63,4.86-1.46,3.59,3.13,3.88,6.13Z"/>
                      <g>
                        <path class="cls-9" d="m45.7,148.7c-.29-3,.98-7.59-3.88-6.13-1.61.49-1.06,2.9-2.65,1.63-3.8-11.45,6.74-19.22,8.17-5.51.24,2.32.54,8.81-1.63,10.01Z"/>
                        <path class="cls-25" d="m43.05,135.63c3.39-.41,3.95,7.85-.82,5.31-2.2-1.17-1.33-5.05.82-5.31Z"/>
                      </g>
                    </g>
                  </g>
                </g>
              </g>
            </g>
          </g>
        </g>
      </g>
    </g>
  </g>
</svg>