<?xml version="1.0" encoding="UTF-8"?>
<svg id="Camada_2" data-name="Camada 2" xmlns="http://www.w3.org/2000/svg" viewBox="0 0 277.06 250.16">
  <defs>
    <style>
      .cls-1 {
        fill: #c7cac8;
      }

      .cls-1, .cls-2, .cls-3, .cls-4, .cls-5, .cls-6, .cls-7, .cls-8, .cls-9, .cls-10, .cls-11, .cls-12, .cls-13, .cls-14, .cls-15, .cls-16, .cls-17, .cls-18, .cls-19, .cls-20, .cls-21, .cls-22, .cls-23, .cls-24, .cls-25, .cls-26, .cls-27, .cls-28, .cls-29, .cls-30, .cls-31, .cls-32, .cls-33, .cls-34, .cls-35 {
        stroke-width: 0px;
      }

      .cls-2 {
        fill: #633e19;
      }

      .cls-3 {
        fill: #585655;
      }

      .cls-4 {
        fill: #99c4ba;
      }

      .cls-5 {
        fill: #352728;
      }

      .cls-6 {
        fill: #c36f2f;
      }

      .cls-7 {
        fill: #3c4055;
      }

      .cls-8 {
        fill: #b8ffff;
      }

      .cls-9 {
        fill: #2b1e0c;
      }

      .cls-10 {
        fill: #5a6177;
      }

      .cls-11 {
        fill: #867963;
      }

      .cls-12 {
        fill: #ffd8b0;
      }

      .cls-13 {
        fill: #181514;
      }

      .cls-14 {
        fill: #057770;
      }

      .cls-15 {
        fill: #c97c40;
      }

      .cls-16 {
        fill: #c59d78;
      }

      .cls-17 {
        fill: #82ada3;
      }

      .cls-18 {
        fill: #d1dcd2;
      }

      .cls-19 {
        fill: #bdc9bc;
      }

      .cls-20 {
        fill: #6b6e7b;
      }

      .cls-21 {
        fill: #2e2e30;
      }

      .cls-22 {
        fill: #2d2727;
      }

      .cls-23 {
        fill: #552709;
      }

      .cls-24 {
        fill: #2b2a58;
      }

      .cls-25 {
        fill: #92816b;
      }

      .cls-26 {
        fill: #7f8798;
      }

      .cls-27 {
        fill: #464981;
      }

      .cls-28 {
        fill: #513318;
      }

      .cls-29 {
        fill: #846d59;
      }

      .cls-30 {
        fill: #aaa399;
      }

      .cls-31 {
        fill: #585c84;
      }

      .cls-32 {
        fill: #261c18;
      }

      .cls-33 {
        fill: #c98023;
      }

      .cls-34 {
        fill: #6f798d;
      }

      .cls-35 {
        fill: #756b5f;
      }
    </style>
  </defs>
  <g id="Camada_1-2" data-name="Camada 1">
    <g>
      <path class="cls-26" d="m272.08,187.12l.29,1.61c3.6,3.99,3.56,9.45,2.93,14.51-.72-.66-1.2.75-2.2,1.47-5.7,4.1-15.28,5.18-22.14,6.74,1.59-4.49,2.23-7.82,1.47-12.61,2.39-1.47,9.38-7.17,8.5-9.82-1.42-4.3-12.74-10.29-20.82-10.12-.68-25.63-4.38-18.26,12.75-19.94,3.98-.39,8.96-1.68,12.9-2.64l.44,24.78q2.93,3.01,5.86,6.01Z"/>
      <path class="cls-9" d="m225.16,183.6c-5.53,2.8-7.12,4.86-11.14,9.38-4.13-5.77-2.96-6.55-11.29-2.93-2.56,1.11-4.89,3.01-7.48,4.11,2.5-3.98,4.75-8.04,5.57-12.75-1.45-9.66,2.38-20.93-2.64-28.59.1-.32.08-1.81.29-2.64.54-2.13,1.72-2.49,1.76-2.64l12.61.44c.64,12.45,4.57,20.33-4.11,31.08.54,1.37,14.14,3.16,16.27,3.96.23.09.15.39.15.59Z"/>
      <path class="cls-27" d="m10.82,139.91c-.42.67-4.58,4.6-4.4,1.47.04-.05.25.05.29,0,.65-.79,1.64-5.82,1.47-6.89-.21-1.32-8.1-10.42-7.04-25.22l3.81-.29c-8.18-12.53-6.44-25.18,6.74-32.99-.35,21.06-.32,42.13-.29,63.19-.28.2-.41.45-.59.73Z"/>
      <g>
        <path class="cls-27" d="m9.36,44.03c.11,1.4.29,3.38,2.05,3.52v12.61l-9.68-.15c-.82-.65-.04-13.97,0-15.98h7.62Z"/>
        <path class="cls-15" d="m9.65,35.23c-.05.27-.07.6.29.59-.39.73-.21.91-.29,1.47-.07.44-.32,6.41-.29,6.74H1.73c.11-5.64-1.96-9.62,1.91-9.68,1.47-.02,4.45,1.37,6.01.88Z"/>
      </g>
      <path class="cls-27" d="m10.82,149.88c-.08,6.32-.19,12.74,0,19.06l-2.64-4.11c.36-1.73-.55-4.49-.88-6.45-.62-3.77-.96-7.62-1.17-11.44l4.69,2.93Z"/>
      <path class="cls-13" d="m6.72,141.37s-.25-.05-.29,0c-.13.14-.46-.51-.59-.15-.46,1.34.21,4.25.29,5.72.21,3.81.55,7.67,1.17,11.44-1.18-.15-3.92.49-4.4-.73.6-7.68-2.13-21.75,3.81-16.27Z"/>
      <path class="cls-31" d="m263.13,67.19c3.53.83,4.01,12.76,3.67,15.69-.54,4.56-2.52,3.81-2.93,3.23-.55-.77-.07-16.47-.73-18.91Z"/>
      <path class="cls-15" d="m118.14,5.62c-.28.43-1.35,3.04-1.47,3.81-3.88.13-7.84-.02-11.73,0-.3-.65-.95-1.02-1.47-1.47,1.45-4.1,8.58-1.74,14.66-2.35Z"/>
      <g>
        <path class="cls-2" d="m204.93,68.66c-1.21,3.77,10.6,2.18,16.42,2.05,1.79-.04,3.74.47,5.57,0,.27,3.55.16,16.62,0,20.96-.12,3.18-1.44,6.81-1.47,9.97-.05,7.4,2.96,3.08-1.76,22.14-.89-.15-.6,1.31-1.03,1.47-1.2.43-19.3-1.98-22.43-2.64.04-3.42-.15-6.85.15-10.26h14.07c2.68-.84,8.3-22.28-.73-32.69-4.07-4.69-15.62-8.46-16.42-9.38q-1.91-6.23-3.81-12.46c1.65,1.81,9.89,10.34,11.44,10.85Z"/>
        <path class="cls-28" d="m212.85,67.78c1.54-.13,3.14.1,4.69,0,.87-.05,1.76.04,2.64,0l1.17,2.93c-5.82.12-17.63,1.71-16.42-2.05,2.74.74,3.73-.54,7.92-.88Z"/>
      </g>
      <path class="cls-13" d="m8.18,164.83l2.64,4.11c.08,2.59.43,6.22.59,9.09-.44.19-1.25-.14-2.05-.29-.05,0-.83-.59-.88-.59.33-3.59-2.23-13.62-.29-12.32Z"/>
      <g>
        <path class="cls-13" d="m213.73,194.45c-1.32,4.65-2.13,2.69-1.76,10.26-1.99-1.62-1.11,5.9-.88,10.41.01.24-.59.12-.59.15-6.39,2.1-6.24-1.21-6.45-6.6-.54-14.1,4.75-9.09,6.01-9.53.84-1.93,1.18-4.12,3.67-4.69Z"/>
        <path class="cls-23" d="m211.97,204.71c.12,2.43.4,3.28.59,4.98.34,3.12.61,6.26.88,9.38-1.38.05-2.01.48-2.35-.15.2-1.57-.56-3.25-.59-3.67,0-.03.6.09.59-.15-.23-4.51-1.11-12.03.88-10.41Z"/>
        <path class="cls-13" d="m219.59,218.78c-2.07-.2-4.14.22-6.16.29-.27-3.13-.54-6.26-.88-9.38,1.85,3.32,3.97,6.76,7.04,9.09Z"/>
      </g>
      <path class="cls-26" d="m267.97,122.9c.11,1.58-.32,3.69.29,4.98-1.47-.06-2.96-.25-4.4-.29v-4.11l4.11-.59Z"/>
      <path class="cls-26" d="m264.75,117.62c1.4,1.42,2.77.59,3.23,3.23-1.01,1.14-2.5.59-4.11.59.05-2.36-.37-4.64.88-3.81Z"/>
      <path class="cls-10" d="m267.97,120.85c.1.57-.04,1.4,0,2.05l-4.11.59c0-.68-.01-1.37,0-2.05,1.61,0,3.1.56,4.11-.59Z"/>
      <path class="cls-14" d="m264.31,89.47c2.2-.71,2.18,5.1,0,4.4-.67-.22-.67-4.18,0-4.4Z"/>
      <path class="cls-11" d="m197.89,29.66c0,.15.29,1.75.29,2.93-1.06-.05-2.08-1.93-2.64-2.35l2.35-.59Z"/>
      <path class="cls-13" d="m91.46,229.05c-.32,12.07,13.99,13.41,20.67,5.86,1.12-.12,2.66.17,3.67,0l-.29,6.74c-6.13-.02-12.22.55-18.33.88-4.35-.23-8.7-.61-13.05-.88-2.89-3.48-3.12-8.03-2.93-12.32,3.39-.02,6.85-.27,10.26-.29Z"/>
      <path class="cls-2" d="m10.82,149.88l-4.69-2.93c-.08-1.47-.75-4.37-.29-5.72.12-.36.46.29.59.15-.19,3.13,3.98-.79,4.4-1.47.43,3.29.04,6.67,0,9.97Z"/>
      <g>
        <path class="cls-13" d="m30.17,216.73c1.55,3.85,2.15,8.09,4.69,11.44-6.84-.4-16.19,2.71-24.04-8.8,1.05.19,1.83-.34,2.64-.88,2.71-1.79,3.49-4.5,5.57-6.45,2.73,3.52,6.71,5.56,11.14,4.69Z"/>
        <path class="cls-32" d="m9.36,177.73c-2.21,2.76,1.9,2.58,2.05,2.79,1.53,2.16-2.83,4.13-2.93,4.4-.1.26-.02,4.52,0,5.57,0,.21.59.4.59.44.25,9.43-.17,18.91,4.4,27.56-.81.54-1.59,1.07-2.64.88-6.99-10.23-4.31-17.17-5.86-28.3,4.07-1.83-.53-7.11,0-10.26.2-1.19,2.24-3.57,3.52-3.67.05,0,.83.58.88.59Z"/>
        <path class="cls-32" d="m11.7,190.63c1.09,1.27,2.33,2.36,3.52,3.52-.98,5.86.13,13.14,3.81,17.89-2.08,1.95-2.86,4.66-5.57,6.45-4.57-8.66-4.15-18.13-4.4-27.56l2.64-.29Z"/>
        <path class="cls-21" d="m9.36,177.73c.81.15,1.61.49,2.05.29.23,4.22.44,8.38.29,12.61l-2.64.29s-.58-.22-.59-.44c-.02-1.05-.1-5.31,0-5.57.11-.27,4.46-2.24,2.93-4.4-.15-.21-4.26-.03-2.05-2.79Z"/>
      </g>
      <path class="cls-13" d="m170.33,227.58c-1.07,2.4-11.35,3.9-11.73,3.37-.15-.21.28-1.42-.29-2.2,3.51-.16,7.48-1.23,11-1.76.95-.14.97.6,1.03.59Z"/>
      <g>
        <path class="cls-18" d="m97.61,9.72c2.45.05,4.87-.28,7.33-.29,3.89-.02,7.85.13,11.73,0,1.07-.04,2.17.09,3.23,0,.82-.07,1.67.05,2.49,0,1.07-.44,1.1-1.24,1.61-1.76l.44.88c9.22.51,54.45-.87,58.06-.29,6.99,1.13,8.98,11.61,7.77,3.23,2.39,5.52.53,11.78,3.23,12.32.72.14,3.14-.17,3.37,0,.66.47-.86,1.62,1.32,2.05v.29c-1.39.59-3.55-1.03-5.13-1.47-6.3-1.75-12.83-2.93-19.06-4.98-41.03.91-82.12.34-123.15,1.17-8.5.17-20.21.27-28.3.88-1.03.08-2.59.14-3.52-.29.24-8.09,4.16-6.4,5.86-8.65.58-2.69,3.5-6.38,6.3-6.89,3.79-.7,50.65.07,60.4-.29l3.81,4.4c.29.08.87-.32,2.2-.29Z"/>
        <g>
          <path class="cls-10" d="m17.27,22.62c-.1,2.55.21,15.39-.29,16.27-.34.59-1.58-.57-2.05-.44.01-.43.57-1.86.29-3.37-.84-4.68-5.1.4-5.28.73-.37,0-.35-.32-.29-.59.22-1.08,2.01-2.62,2.05-2.79.25-.91-.19-4.01,0-5.57.02-.17.77-1.37.88-2.2.99-.22,1.77-1.04,2.64-1.47,1.23-.6,1.8-.5,2.05-.59Z"/>
          <path class="cls-26" d="m22.55,21.74c1.17,6.98,1.61,14.05,1.76,21.11-1.78.28-4.27-.11-4.84,2.35h-5.13c.21-.68.16-3.51.29-4.69,0-.09.23-.3.29-1.76,0-.1,0-.2,0-.29.47-.13,1.72,1.03,2.05.44.5-.88.19-13.73.29-16.27.12-.04,2-.84,1.76-1.17.93.43,2.48.37,3.52.29Z"/>
          <g>
            <path class="cls-17" d="m198.19,26.14c.3,1.14-.28,2.45-.29,3.52l-2.35.59c-.22-.17-.96-.86-1.17-.44-.64,2.57,1.63,3.26,3.81,3.96,0,3.47,0,6.94,0,10.41-.72.49-1.36,1.08-2.05,1.61-4.53-2.41-9.5-3.88-14.51-4.69l-139.86.59c-5.78.63-11.69.26-17.45,1.17-.15-7.06-.59-14.13-1.76-21.11,8.08-.61,19.79-.71,28.3-.88,41.03-.83,82.12-.26,123.15-1.17,6.23,2.05,12.76,3.23,19.06,4.98,1.58.44,3.74,2.06,5.13,1.47Z"/>
            <path class="cls-5" d="m195.55,30.25c.56.42,1.58,2.3,2.64,2.35,0,.39,0,.78,0,1.17-2.18-.7-4.46-1.39-3.81-3.96.21-.42.95.27,1.17.44Z"/>
            <path class="cls-28" d="m73.42,35.23c5.44-1.62,4.47,7.59-.29,5.28-2.24-1.08-1.23-4.82.29-5.28Z"/>
            <path class="cls-26" d="m130.89,29.07c4.82-.67-1.27,3.16-1.03.73.01-.12.96-.72,1.03-.73Z"/>
          </g>
        </g>
      </g>
      <g>
        <path class="cls-27" d="m103.48,7.96c.52.45,1.16.81,1.47,1.47-2.46.01-4.88.35-7.33.29-.8-2.4-2.14-4.76-4.54-5.86-11.73.68-56.97-.9-63.04,0-6.31.94-7.13,6.95-8.06,8.06-.45.54-7.54,3.21-6.74,11.29-.87.42-1.65,1.25-2.64,1.47.03-.25-.62-2.13,0-5.13-.15-2.66,10.16-14.58,11.29-15.39,1.23-.89,4.74-2.44,6.16-2.64,3.14-.43,60.2-.48,63.33,0,3.19.49,7.63,4.3,10.12,6.45Z"/>
        <path class="cls-24" d="m97.61,9.72c-1.33-.03-1.91.37-2.2.29l-3.81-4.4c-9.75.36-56.61-.4-60.4.29-2.8.52-5.73,4.2-6.3,6.89-1.71,2.25-5.63.56-5.86,8.65.24.34-1.64,1.13-1.76,1.17-.25.08-.82-.01-2.05.59-.79-8.08,6.29-10.75,6.74-11.29.93-1.11,1.75-7.13,8.06-8.06,6.07-.9,51.31.68,63.04,0,2.4,1.1,3.74,3.46,4.54,5.86Z"/>
      </g>
      <g>
        <path class="cls-17" d="m252.43,198.84c-.79-4.92-3.96-10.05-8.06-12.9-2.93-2.03-10.17-5.23-12.75-2.35-1.65-.23-3.39-.13-4.98-.59,2.58-1.18,6.06-2.65,8.8-3.23,1.33-.28,3.4-.85,4.69-.88,8.08-.17,19.4,5.81,20.82,10.12.88,2.66-6.12,8.36-8.5,9.82Z"/>
        <g>
          <path class="cls-2" d="m231.61,183.6c18.47,2.61,23.61,26.8,7.33,35.92,5.5-.54,10.87-7.55,12.02-8.06,6.86-1.56,16.43-2.64,22.14-6.74,1-.72,1.48-2.13,2.2-1.47-.23,1.89-1.9,8.41-2.64,10.12-4.03,9.37-9.15,4.41-12.75,4.84-2.11.25-23.5,13.36-40.32.59-3.07-2.33-5.18-5.77-7.04-9.09-.19-1.71-.47-2.55-.59-4.98-.37-7.57.44-5.61,1.76-10.26.17-.58.98-.59.29-1.47,4.02-4.53,5.61-6.58,11.14-9.38.48-.24.98-.36,1.47-.59,1.6.46,3.34.35,4.98.59Z"/>
          <path class="cls-17" d="m252.43,198.84c.77,4.79.13,8.12-1.47,12.61-1.15.51-6.52,7.52-12.02,8.06,16.28-9.12,11.14-33.31-7.33-35.92,2.58-2.88,9.83.31,12.75,2.35,4.11,2.85,7.28,7.98,8.06,12.9Z"/>
        </g>
      </g>
      <g>
        <path class="cls-1" d="m250.96,78.04c.49,9.13,3.5,14.82,3.81,17.15.59,4.43-.53,25.07-.59,32.11-3.16-.04-6.47.32-9.68.29,0-2.65.31-8.61,0-10.7-.08-.56-.85-1.79-.88-1.91-.86-3.36-3.66-8.78-3.81-10.7,1.04-7.69.31-19.88,1.47-26.98,1.29-7.91,8.55-11.04.59-21.4-4.95-6.44-16.34-13.06-24.63-10.41.09-2.84-.03-7.24,0-7.62.03-.41-.06-.93.15-1.17l5.28-3.23c.21.17.52.59.59.59,8.55-.47,12.63,2.39,18.03,8.65,12.66,14.68,8.9,20.88,9.68,35.33Z"/>
        <path class="cls-12" d="m264.75,117.62c-1.25-.83-.83,1.45-.88,3.81-.01.68,0,1.37,0,2.05v4.11c-3.19-.1-6.49-.25-9.68-.29.06-7.04,1.18-27.68.59-32.11-.31-2.33-3.32-8.02-3.81-17.15,16.42-3.58,11.44-6.35,12.02,8.06,0,.22.58.07.59.29.38,10.05-.25,20.14,0,30.2,1.45.21,1.12.97,1.17,1.03Z"/>
        <path class="cls-30" d="m243.63,114.98c-13.04-7.93.87,1.81-10.26,12.32-.96-.01-2.15.31-3.23.29-2.39-.05-4.79.04-7.18,0l-.44-.44c.31-1.12.9-2.26,1.17-3.37,4.72-19.06,1.71-14.73,1.76-22.14.02-3.16,1.35-6.79,1.47-9.97.16-4.35.27-17.42,0-20.96-.1-1.29.62-3.23-1.17-3.37,2.75-11.57-7.79-6.89-8.5-8.5,0-3.86-.01-7.72,0-11.58,0-.58-.02-1.18,0-1.76,8.29-2.65,19.68,3.97,24.63,10.41,7.97,10.36.7,13.49-.59,21.4-1.15,7.09-.43,19.28-1.47,26.98.15,1.92,2.95,7.34,3.81,10.7Z"/>
        <path class="cls-1" d="m243.63,114.98c.03.12.8,1.34.88,1.91.31,2.09,0,8.05,0,10.7-3.72-.03-7.44-.25-11.14-.29,11.13-10.5-2.78-20.25,10.26-12.32Z"/>
      </g>
      <g>
        <path class="cls-13" d="m185.28,237.55c-2.14,2.53-4.21,4.64-7.04,6.45-4.17,2.67-8.9,4.53-13.78,5.28-1.22.19-2.48.23-3.67.59-26.5-1.06-78.65,1.78-101.6-.88-4.75-.55-11.91-1.41-15.83-4.4-4.22-3.21-6.13-10.77-4.98-15.83,3.69.18,7.45.5,11.14.59.13,8.7,19.37,11.29,26.39,12.02-3.37,2.18-14.69,1.07-19.5.59-5.87-.59-13.73-3.18-8.8,0,1.57,1.01,8.5,3.14,10.56,3.52,12.37,2.25,52.15.67,67.73.59,1.92-.01,4.23.59,6.16.59,15.98-.04,39.12,2.54,49.41-12.17-.04-.62-3.86-3.24-6.16-2.2,1.85-2.33,2.04-4.13,2.93-6.45.94-2.45,2.17-6.93,3.23-8.8.94-1.66,3.24-3.67,4.69-4.98,1.91,7.23,3.13,14.28.59,21.55-.5,1.42-2.94,4.08-1.47,3.96Z"/>
        <path class="cls-32" d="m187.63,210.87c5.26,10.43,5.23,17.72-2.35,26.68-1.48.13.97-2.54,1.47-3.96,2.54-7.27,1.32-14.32-.59-21.55.75-1.34,1.41-1.1,1.47-1.17Z"/>
        <path class="cls-32" d="m75.91,241.36c2.7.28,5.51.13,8.21.29,4.35.27,8.7.65,13.05.88,6.11-.33,12.2-.9,18.33-.88.58,0,.78.54,2.05,0,1.08,0,2.15,0,3.23,0,.13,0,.38.31,2.64.29,4.89-.03,9.8.32,14.66.29,11.03-.05,19.97.35,30.05-4.98,2.36-1.25,6.45-4.65,7.18-4.98,2.3-1.04,6.11,1.58,6.16,2.2-10.28,14.71-33.43,12.13-49.41,12.17-1.92,0-4.24-.6-6.16-.59-15.59.08-55.37,1.66-67.73-.59-2.06-.37-8.99-2.51-10.56-3.52-4.93-3.18,2.93-.59,8.8,0,4.81.48,16.13,1.59,19.5-.59Z"/>
      </g>
      <g>
        <path class="cls-2" d="m272.08,146.36v40.76q-2.93-3.01-5.86-6.01l-.44-24.78c-3.95.96-8.92,2.25-12.9,2.64-17.13,1.68-13.44-5.69-12.75,19.94-1.29.03-3.36.6-4.69.88-8.13-5.4-11.73-17.32-5.57-25.66,2.19-2.97,9.58-5.68,8.5-7.18,4.66-.09,32.07-.24,33.72-.59Z"/>
        <path class="cls-34" d="m256.1,147.24q5.42.15,10.85.29l.15,6.89-2.2,1.03c-19.03,2.5-20.34,7.33-8.8-8.21Z"/>
      </g>
      <g>
        <path class="cls-27" d="m198.77,10.31c.54,1.92.27,4.16.29,6.16,0,.12-.66.45-.15,2.35h11.44c.3-.21.11-2.13.15-2.64.13-1.94-.1-3.92,0-5.86.45-.05,1.14-1.38,1.47-.73.11,3.46-.15,6.95,0,10.41.07,1.6-.32,4.36.44,4.69.14.06,2.86.4,3.08-.15.43-1.08-.34-2.85-.29-3.96.16-3.95.6-8.08.59-12.02.37.18,2-.24,2.05-.15.08.15-1.24,1.83-1.47,2.2-.02.03-.27,0-.59.44.53.46.56-.14.59-.15,1.04-.19,1.55-.27,2.64-.29.11,2.16-.28,4.31.29,6.45.01.04-.68.4.15.88,21.77-1.5,27.93,9.66,29.61,9.97,1.08.2,3.2-1.14,3.37-1.17.33-.06.79.02,1.17,0,1.79-.11,2.4.26.59,1.47-.44.29-3.07,1.26-4.11,1.76-1.43.69-3.15.43-2.35,2.05-2.23-.87-4.17-1.43-6.6-1.17-6.68-8.46-12.45-7.44-22.28-7.33.61,6.34-3.44,2.82-4.25,3.96-.76,1.06,2.13,6.27-4.98,4.69l-.15-6.3c-.46-.33-9.55.35-11.29,0-2.18-.43-.66-1.59-1.32-2.05-.23-.17-2.66.14-3.37,0,1.32-2.35-.23-12.51-1.47-15.1-1.14-2.39-5.16-5.83-7.77-6.3-2.84-.52-48.39,1.42-57.76.29-2.53.5-5.7,4.29-6.6,6.74-1.06.09-2.16-.04-3.23,0,.11-.77,1.19-3.38,1.47-3.81,1.28-1.96,4.86-4.9,7.18-5.28,2.95-.48,56.85-.41,59.82,0,7.29,1.02,10.9,9.34,13.63,9.97Z"/>
        <path class="cls-15" d="m253.6,26.73c-.39.02-.84-.06-1.17,0-10.2-10.44-19.5-9.34-33.13-9.68-.58-2.14-.18-4.29-.29-6.45,14.07-.28,26.49,4.25,34.6,16.13Z"/>
        <path class="cls-31" d="m250.09,29.95c11.31,4.72,18.39,14.66,16.13,27.12l.88-.73c-.07.32-1.33,4.25-1.47,4.54-4.94,11.24-.15-4.39-3.23-13.49-1.82-5.38-9.4-13.33-14.66-15.39-.81-1.62.92-1.36,2.35-2.05Z"/>
        <path class="cls-15" d="m210.21,10.31c.1,0,.2.01.29,0-.1,1.94.13,3.93,0,5.86l-11.44.29c-.02-2,.25-4.24-.29-6.16,3.66-.22,7.85.3,11.44,0Z"/>
        <path class="cls-33" d="m215.78,8.55c.01,3.94-.42,8.07-.59,12.02l-3.23-.59c-.15-3.46.11-6.95,0-10.41-.33-.64-1.02.69-1.47.73-.1.01-.2,0-.29,0,3.25-3.11-2.05-8.63,5.57-6.3,0,1.51,0,3.03,0,4.54Z"/>
        <path class="cls-15" d="m254.19,28.19c9.38,7.87,15.63,15.09,12.9,28.15l-.88.73c2.27-12.46-4.82-22.41-16.13-27.12,1.04-.5,3.67-1.47,4.11-1.76Z"/>
        <path class="cls-16" d="m216.37,10.89s-.06.61-.59.15c.32-.44.57-.41.59-.44v.29Z"/>
        <path class="cls-7" d="m193.49,23.79c-2.7-.54-.83-6.8-3.23-12.32-1.12-2.59-4.59-6.26-7.48-6.74-4.68-.78-46.05.59-56.3,0-1.38,1.07-2.1,2.54-2.49,2.93-.52.52-.55,1.32-1.61,1.76-.82.05-1.67-.07-2.49,0,.9-2.46,4.07-6.24,6.6-6.74,9.38,1.13,54.92-.81,57.76-.29,2.61.48,6.63,3.91,7.77,6.3,1.24,2.59,2.78,12.75,1.47,15.1Z"/>
        <path class="cls-27" d="m252.43,26.73c-.18.03-2.3,1.37-3.37,1.17-1.69-.31-7.84-11.47-29.61-9.97-.82-.48-.14-.84-.15-.88,13.63.34,22.93-.76,33.13,9.68Z"/>
        <path class="cls-31" d="m199.07,16.46l11.44-.29c-.04.51.15,2.43-.15,2.64h-11.44c-.51-1.89.15-2.23.15-2.35Z"/>
        <path class="cls-31" d="m215.19,20.57c-.05,1.11.73,2.88.29,3.96-.22.55-2.94.21-3.08.15-.76-.34-.37-3.09-.44-4.69l3.23.59Z"/>
      </g>
      <g>
        <path class="cls-13" d="m213.14,39.04c-.23,1.16.09,5.62,0,7.92-.18,4.55,0,8.82,0,13.34,0,.23-.59,0-.59.44-1.73-.03-7.18,1.62-7.92-.73-.39-1.26.29-16.77,0-20.53l8.5-.44Z"/>
        <g>
          <path class="cls-27" d="m217.24,47.25c-.01,3.86,0,7.72,0,11.58.72,1.61,11.26-3.06,8.5,8.5,1.79.14,1.08,2.08,1.17,3.37-1.84.47-3.78-.04-5.57,0l-1.17-2.93c1.32.26,1.91-2.33,2.93-3.37-4.19-.36-6.28-1.84-5.57,3.37-1.55.1-3.15-.13-4.69,0,.31-2.32-.29-4.75-.29-7.04,0-.45.59-.21.59-.44,0-4.52-.18-8.79,0-13.34,1.46,1.43,2.52,1.77,4.11.29Z"/>
          <path class="cls-6" d="m217.24,37.87c-.03.38.09,4.79,0,7.62-.02.57,0,1.17,0,1.76-1.58,1.48-2.64,1.13-4.11-.29.09-2.3-.23-6.76,0-7.92.38-1.89.94-1,4.11-1.17Z"/>
          <path class="cls-8" d="m220.18,67.78c-.88.04-1.77-.05-2.64,0-.71-5.21,1.38-3.73,5.57-3.37-1.03,1.04-1.61,3.63-2.93,3.37Z"/>
        </g>
      </g>
      <g>
        <path class="cls-7" d="m177.95,225.82c-2.73,3.48-7.09,4.83-11.29,5.57-8.27,6.2-18.34,9.75-28.59,10.85-4.86.02-9.78-.33-14.66-.29,1.75-3.31,4.09-6.5,4.69-10.26,2.41-.23,4.81.26,7.18.59l6.89-3.81c4.96-.09,12.29.47,16.13.29.58.78.14,1.99.29,2.2.38.53,10.65-.97,11.73-3.37,2.02-.32,3.89-1.55,5.86-2.05.59.17,1.7-.31,1.76.29Z"/>
        <path class="cls-27" d="m128.11,231.68c-.6,3.76-2.94,6.95-4.69,10.26-2.26.01-2.51-.29-2.64-.29.44-1.82.94-5.21,1.76-6.74,1.16-2.17,3.23-3,5.57-3.23Z"/>
      </g>
      <g>
        <path class="cls-13" d="m122.54,234.91c-.82,1.54-1.32,4.92-1.76,6.74-1.08,0-2.15,0-3.23,0v-7.33c1.75-.1,3.24-.18,4.98.59Z"/>
        <path class="cls-23" d="m117.55,234.32v7.33c-1.28.54-1.47,0-2.05,0l.29-6.74c.09-.02.92-.54,1.76-.59Z"/>
      </g>
      <g>
        <path class="cls-20" d="m10.82,36.7c1.46,1.9,2.83,6.48,3.81,3.81-.13,1.18-.09,4.01-.29,4.69-.02.05-.45.66-.59.88-.61,1-1.18,1.56-2.35,1.47-1.76-.14-1.94-2.11-2.05-3.52-.03-.34.23-6.3.29-6.74.71-.64,1.12-.55,1.17-.59Z"/>
        <path class="cls-19" d="m14.93,38.46c0,.1,0,.2,0,.29-1.95-2.74-.55-4.44-4.11-2.05-.05.04-.46-.05-1.17.59.08-.56-.09-.73.29-1.47.18-.34,4.44-5.41,5.28-.73.27,1.51-.28,2.94-.29,3.37Z"/>
        <path class="cls-29" d="m14.93,38.75c-.06,1.46-.28,1.67-.29,1.76-.98,2.66-2.35-1.91-3.81-3.81,3.55-2.38,2.16-.69,4.11,2.05Z"/>
      </g>
      <g>
        <path class="cls-2" d="m223.7,123.78c-.28,1.12-.86,2.25-1.17,3.37l.44.44c2.39.04,4.79-.05,7.18,0-1.42,2.47-3.15,4.76-4.4,7.33-1.37-.17-2.77,3.17-3.81,4.54-.82,1.09-6.07,6.86-6.16,7.33-.2,1.05,3.75.43,5.28.44,5.79.04,11.52-.18,17.3-.29,1.08,1.5-6.31,4.21-8.5,7.18-6.15,8.33-2.56,20.25,5.57,25.66-2.74.58-6.22,2.04-8.8,3.23-.49.23-.99.34-1.47.59,0-.2.08-.5-.15-.59-2.14-.8-15.74-2.59-16.27-3.96,8.68-10.75,4.75-18.63,4.11-31.08l-12.61-.44c.34-1.2-.04-21.29,0-24.92,3.13.65,21.23,3.07,22.43,2.64.43-.15.14-1.62,1.03-1.47Z"/>
        <g>
          <path class="cls-10" d="m225.75,134.92c-1.59,3.27-3.45,8.73-4.69,12.32-1.53-.01-5.48.61-5.28-.44.09-.47,5.34-6.24,6.16-7.33,1.04-1.37,2.44-4.72,3.81-4.54Z"/>
          <g>
            <path class="cls-26" d="m244.51,127.59c3.21.03,6.51-.34,9.68-.29,3.19.04,6.48.19,9.68.29,1.44.05,2.93.23,4.4.29.83.04,5.35-.16,5.57.15.69,7.47-2.19,13.6,3.23,14.66.15.45-4.42,3.55-4.98,3.67-1.65.34-29.06.5-33.72.59-5.78.11-11.51.34-17.3.29,1.24-3.59,3.1-9.04,4.69-12.32,1.25-2.57,2.98-4.86,4.4-7.33,1.08.02,2.26-.3,3.23-.29,3.7.04,7.43.26,11.14.29Z"/>
            <g>
              <path class="cls-22" d="m244.07,131.4c5.73-.48,4.24,9.96-1.47,6.74-2.84-1.6-1.75-6.47,1.47-6.74Z"/>
              <path class="cls-26" d="m242.02,133.75c1.25-.51,2.15,1.93,2.64,2.35.2.17,3.54,1.04,0,1.17-1.93.07-4.13-2.91-2.64-3.52Z"/>
            </g>
          </g>
        </g>
      </g>
      <g>
        <path class="cls-26" d="m193.49,57.81q1.91,6.23,3.81,12.46c.8.92,12.35,4.69,16.42,9.38,9.04,10.41,3.41,31.85.73,32.69h-14.07c-.3,3.41-.11,6.84-.15,10.26-.04,3.64.34,23.72,0,24.92-.04.15-1.22.51-1.76,2.64-.85-.97-4.42,2.37-4.84,2.05-.13-1.59-.21-3.1-.44-4.69,0-.04.35.11,0-.88,8.14-.89,7.12-12.15-.73-7.04l-.44-3.81v-2.05c4.95-.64,5.71-3.51,5.28-8.06l-4.84,1.61-1.32-4.54c.16-1.12,6.72-2.68,5.57-9.38-.44-1.08-4.6,2.09-7.04-2.93,8.2-2.73,9.33-13.98-1.32-8.06-.36-4.39,5.57-7.28,6.3-8.36,2.73-4.02-.89-7.49-4.84-4.84-6.87-5.38,3.78-2.42,4.84-9.24.89-5.71-1.32-5.19-5.42-2.79-.57-.09-1.25-2.39-1.32-2.93-.07-.57.05-1.18,0-1.76,4.36-.69,6.19-5.76,4.98-7.48-.51-.72-9.37-2.48-9.09,1.32-.41-1.71-1.29-3.41-2.05-4.98,1.97-.87,3.27-3.18,4.69-4.69.2-.21.39-.38.59-.59.49-.51,1.19-.77,1.76-1.47.26-.32.35-.82.59-1.17.58.78,2.96,3.14,4.11,4.4Z"/>
        <path class="cls-9" d="m196.13,45.79c-1.72,1.33-6.25,3.34-8.5,4.84-.17.4,1.43,2.35,1.76,2.79-.23.35-.33.86-.59,1.17-2.74-5.13-10.76-9.08-16.27-9.68-9.95-1.08-51.25,2.54-66.12,1.76-1.11-.51-3.27-.31-4.69-.29-16.99.22-48.43-.6-62.6.29-6.83.43-13.54,1.9-19.79,4.69-3.74-1.26-3.75-2.17-5.57-5.28.13-.22.57-.83.59-.88h5.13c.57-2.45,3.06-2.06,4.84-2.35,5.76-.91,11.67-.55,17.45-1.17l139.86-.59c5.02.82,9.99,2.28,14.51,4.69Z"/>
        <path class="cls-2" d="m19.32,51.36l-7.33,8.8h-.59v-12.61c1.16.09,1.74-.47,2.35-1.47,1.82,3.11,1.83,4.02,5.57,5.28Z"/>
        <path class="cls-2" d="m106.41,46.67c.51,7.56-1.9,9.78,3.23,9.68h-4.69c.16-1.31-3.01.03-3.52-.73l.29-9.24c1.42-.02,3.58-.22,4.69.29Z"/>
        <path class="cls-28" d="m26.65,59.27c-.13.15-.81,2.18-2.64,2.93-6.27,2.58-7.04-5.9-2.79-6.74,4.94-.98,1.44,4.1,5.42,3.81Z"/>
        <path class="cls-10" d="m188.8,54.58c-.57.69-1.27.96-1.76,1.47-5.89-8.43-8.15-3.32-7.04-.44.61,1.57,5.08.2,6.45,1.03-1.43,1.51-2.72,3.82-4.69,4.69-.36-.74-.74-1.36-1.17-2.05-.07-.11-.37-1.34-.59-1.61-2.4-2.99-8.63-3.09-12.17-3.96q-29.1,1.32-58.2,2.64c-5.12.11-2.72-2.11-3.23-9.68,14.87.78,56.17-2.84,66.12-1.76,5.52.6,13.53,4.54,16.27,9.68Z"/>
        <path class="cls-22" d="m187.04,56.05c-.2.21-.39.38-.59.59-1.37-.82-5.84.54-6.45-1.03-1.12-2.88,1.14-7.99,7.04.44Z"/>
        <g>
          <path class="cls-26" d="m195.25,194.15c-.1.51-.84.83-.88.88-.1.12-1.29.25-2.64,1.91-3.73,4.58-9.48,14.58-10.26,20.09-1.05,1.87-2.28,6.35-3.23,8.8h-.29c-.06-.6-1.17-.12-1.76-.29-1.71-.5-5.52-2.37-7.62-3.08-1.56-4.44-2.04-9.24-1.47-13.93,5.33-.65,10.38-5.66,11.73-10.85.45.02.22-.4.29-.59l7.04-8.8c10.35-2.81,5-7.64,7.62-13.63,1.32-3.02,6.07-1.5,4.69-11.14l-.44-.44-4.98,2.35c-.27-.21-.17-3.26-.15-3.81.02-.34.47-.26,0-.88,4.8-3.25,4.29-4.6,5.28-7.92,5.02,7.66,1.19,18.93,2.64,28.59-.82,4.71-3.07,8.77-5.57,12.75Z"/>
          <path class="cls-2" d="m194.37,195.03c-.76,2.74-6,14.81-6.74,15.83-.06.08-.71-.16-1.47,1.17-1.45,1.31-3.75,3.32-4.69,4.98.78-5.5,6.54-15.5,10.26-20.09,1.35-1.66,2.53-1.78,2.64-1.91Z"/>
          <path class="cls-10" d="m186.16,188.29l-7.04,8.8c.21-.58.97-4.85,2.35-7.92,1.83-.4,4.22-.75,4.69-.88Z"/>
        </g>
        <g>
          <path class="cls-2" d="m101.72,46.37l-.29,9.24c.51.76,3.68-.57,3.52.73-1.07,0-2.15-.01-3.23,0-23.95.29-48.02-.6-71.98-.59-1.65.79-2.02,2.38-2.49,2.93-.15.18-.43.41-.59.59-3.99.29-.48-4.79-5.42-3.81-4.26.84-3.49,9.33,2.79,6.74v6.16c-2.69-.81-3.18-2-3.37-2.05-5.22-1.4-5.51,7.75,2.2,7.92-.04,1.39.31,2.12-.59,3.23-1.4,1.75-8.41,1.94-4.11,8.06,1.15,1.64,2.67,2.47,4.69,2.49-.1,1.31.41,2.08-.59,2.93-1.05.9-5.65.66-5.86,1.32,1.55,2.81,2.71,7.64,6.45,8.06.79,1.62-.01,2.23,0,2.35-9.85-1.81-8.1,8.19,0,8.8.3.94-.3,3.06-.29,3.23-8.53.16-7.34,9.54.29,9.97.8,1.68-.02,2.51,0,2.64l-7.33,1.32c-.58.7,2.92,7.65,6.74,8.36.18.03.4-.02.59,0-.41.91-.81,3.04-1.76,2.93-7.09-5.23-11.09,6.77,0,8.5.21,1.7-.76,1.39-.88,1.47-1.25.8-5.73,1.71-6.16,3.08-.92,2.93,5.2,7.68,7.92,8.06.09.58-1.42,1.16-2.05,1.47-9.73,4.69-3.61,9.94.29,10.85-.8.56-.82.61-1.17,1.47-1.79,4.32-.09,10.88,4.54,12.9,2.04.89,4.45.86,6.6,1.17.87,3.35,2.46,6.36,4.11,9.38,2.22,4.07,5.98,10.91,11,11.73,5.21.85,45.66-.75,55.86-.88,1.27-.02,2.54.02,3.81,0,9.83-.13,59.08-.21,62.16-.59-.58,4.69-.09,9.49,1.47,13.93,2.1.71,5.91,2.58,7.62,3.08-1.98.51-3.84,1.73-5.86,2.05-.06,0-.08-.73-1.03-.59-3.52.53-7.48,1.6-11,1.76-3.84.17-11.17-.39-16.13-.29-16.89.32-33.84.5-50.73.59-3.42.02-6.87.28-10.26.29-10.53.05-21.14.25-31.67,0-3.69-.09-7.45-.4-11.14-.59-.44-.02-.19-.41-.44-.59-1.04-.01-2.03.06-3.08,0-2.54-3.34-3.14-7.58-4.69-11.44-.09-.21.44-.38.29-.73-.44-1.03-11.03-18.19-11.73-19.06-1.32-1.65-3.2-2.47-3.52-2.79-1.19-1.16-2.43-2.25-3.52-3.52.15-4.22-.07-8.39-.29-12.61-.15-2.87-.51-6.5-.59-9.09-.19-6.32-.08-12.74,0-19.06.04-3.3.43-6.68,0-9.97.18-.28.31-.53.59-.73-.03-21.06-.05-42.13.29-63.19.09-5.27.54-10.55.29-15.83l7.33-8.8c6.25-2.79,12.96-4.26,19.79-4.69,14.17-.89,45.61-.07,62.6-.29Z"/>
          <path class="cls-22" d="m123.42,217.61s-.97-.12-.44.59c.63.11.4-.56.44-.59,4.27-2.9.24,3.23-.73,3.52-4.38,1.29-5.84-5.33-2.35-7.33,2.26-1.3,4.04-.09,3.96.73-.05.48-7.44,7.14.15.73,1.13.21-.21.96-1.03,2.35Z"/>
          <path class="cls-3" d="m123.42,217.61s.19.7-.44.59c-.53-.71.42-.55.44-.59Z"/>
        </g>
        <g>
          <path class="cls-25" d="m100.55,190.93c.1,0,.2,0,.29,0v10.85c-10.71.14-48.12,1.92-54.1,1.17-2.92-.37-9.37-3.42-12.46-4.69-1.64-3.02-3.23-6.03-4.11-9.38,14.25,2.05,53.08,1.73,70.37,2.05Z"/>
          <path class="cls-25" d="m24.02,173.63c20.15,2.49,55.37,1.76,76.82,1.76.02,3.21.11,6.47,0,9.68-9.75-.08-60.55-1.53-65.83-2.35-6.01-.92-11.76-3.49-15.98-7.92.35-.86.38-.91,1.17-1.47.86.2,2.81.17,3.81.29Z"/>
          <path class="cls-12" d="m100.55,156.62c0,2.05,0,4.11,0,6.16-26.2-.2-52.39-2.54-78.58-1.76-2.72-.39-8.84-5.13-7.92-8.06.43-1.37,4.91-2.28,6.16-3.08,1.79,4.46,7.46,3.77,11.29,4.69q34.53,1.03,69.05,2.05Z"/>
          <path class="cls-25" d="m101.42,111.47c.1,0,.2,0,.29,0v7.62c-13.59-2.66-70.9,1.08-75.21.29-2.38-.44-3.83-2.4-3.96-4.69,0-.16.59-2.29.29-3.23,2.38-.45,5.34-.4,7.77-.29,23.59,1.08,47.19.39,70.81.29Z"/>
          <path class="cls-12" d="m100.84,185.06c-.07,1.93-.55,3.9-.29,5.86-17.29-.32-56.12,0-70.37-2.05-2.15-.31-4.56-.28-6.6-1.17-4.63-2.03-6.33-8.58-4.54-12.9,4.22,4.42,9.98,6.99,15.98,7.92,5.28.81,56.07,2.26,65.83,2.35Z"/>
          <path class="cls-25" d="m101.72,124.95c0,2.35,0,4.69,0,7.04q-36.8-.59-73.6-1.17c-2.27.06-4.91-.99-5.28-3.52-.02-.13.8-.95,0-2.64,26.22-1.47,52.6.23,78.88.29Z"/>
          <path class="cls-25" d="m100.55,162.78c0,2.05-.01,4.11,0,6.16-15.09-.06-61.38.59-72.86-1.76-1.74-.36-4.59-1.25-6.01-2.35-.41-.32-1.51-1.73-1.76-2.35.63-.3,2.14-.89,2.05-1.47,26.2-.78,52.38,1.56,78.58,1.76Z"/>
          <path class="cls-25" d="m101.42,74.23c.11,2.54-.02,5.08,0,7.62-7.54-.02-15.18-.81-22.72-.88-9.3-.94-48.81,1.39-51.61.88-2.2-.4-3.81-2.56-4.84-4.4.89-1.11.54-1.83.59-3.23,5.99-1.02,12.41.43,18.33.59,20.08.51,40.17-1.27,60.26-.59Z"/>
          <path class="cls-12" d="m22.26,90.94c1.63,1.45,2.28,1.98,4.54,2.35l74.62.29v5.86c-26.21.5-52.39-.34-78.58.88-3.74-.42-4.9-5.25-6.45-8.06.21-.66,4.81-.42,5.86-1.32Z"/>
          <path class="cls-12" d="m101.42,81.85c.01,1.96-.15,3.92.29,5.86-.1,0-.2,0-.29,0-23.69.24-47.42-.95-71.1-.59-1.96.03-6.5.89-7.48.88-2.02-.02-3.54-.85-4.69-2.49-4.31-6.12,2.7-6.32,4.11-8.06,1.03,1.84,2.64,3.99,4.84,4.4,2.8.51,42.3-1.82,51.61-.88,7.55.07,15.19.86,22.72.88Z"/>
          <path class="cls-25" d="m101.42,99.44v6.45c-21.37-.83-48.85,2.11-69.35.88-3.46-.21-8.76.33-9.24-4.11-.01-.12.79-.72,0-2.35,26.19-1.22,52.37-.38,78.58-.88Z"/>
          <path class="cls-12" d="m178.83,197.67c-1.35,5.19-6.39,10.2-11.73,10.85-3.09.38-52.34.46-62.16.59q.15-3.81.29-7.62h.29c12.46-.3,24.93.45,37.38.29,9.78-.13,30.58.4,35.92-4.11Z"/>
          <path class="cls-25" d="m100.55,149v7.62q-34.53-1.03-69.05-2.05c-3.83-.92-9.5-.23-11.29-4.69.12-.08,1.09.24.88-1.47l79.46.59Z"/>
          <path class="cls-12" d="m22.55,114.69c.13,2.29,1.58,4.26,3.96,4.69,4.31.79,61.62-2.95,75.21-.29,0,1.95,0,3.91,0,5.86-26.28-.06-52.66-1.76-78.88-.29-7.64-.43-8.82-9.81-.29-9.97Z"/>
          <path class="cls-12" d="m24.02,68.36c6.21,1.86,19.21.05,26.24,0,17.15-.12,34.31.09,51.46,0v5.86h-.29c-20.09-.69-40.18,1.1-60.26.59-5.92-.15-12.34-1.61-18.33-.59-7.71-.17-7.42-9.32-2.2-7.92.19.05.68,1.25,3.37,2.05Z"/>
          <path class="cls-12" d="m21.08,139.91c.18.14,1.46,2.33,2.2,2.64,2.51,1.04,47.57,1.2,54.24,1.17,7.94-.03,15.95-.44,23.9-.59-.07,1.93-.74,3.91,0,5.86-.29,0-.59,0-.88,0l-79.46-.59c-11.09-1.73-7.09-13.73,0-8.5Z"/>
          <path class="cls-25" d="m101.72,61.91v6.45c-17.15.09-34.31-.12-51.46,0-7.03.05-20.03,1.86-26.24,0v-6.16c1.83-.76,2.51-2.78,2.64-2.93.16-.18.43-.41.59-.59,1.54,2.17,11.19,4.45,13.63,4.69,3.45.34,49.97-1.27,60.84-1.47Z"/>
          <path class="cls-25" d="m101.42,137.56c.1,0,.2,0,.29,0-.57,1.71-.23,3.76-.29,5.57-7.95.14-15.96.55-23.9.59-6.67.03-51.74-.14-54.24-1.17-.74-.3-2.02-2.5-2.2-2.64.95.1,1.35-2.02,1.76-2.93,26.19.09,52.39,1.01,78.58.59Z"/>
          <path class="cls-12" d="m101.72,56.34v5.57c-10.87.2-57.39,1.8-60.84,1.47-2.45-.24-12.09-2.52-13.63-4.69.47-.55.84-2.14,2.49-2.93,23.96-.02,48.03.88,71.98.59Z"/>
          <path class="cls-25" d="m101.42,87.72v5.86l-74.62-.29c-2.26-.37-2.92-.9-4.54-2.35,1-.85.48-1.62.59-2.93.97.01,5.52-.85,7.48-.88,23.68-.36,47.41.83,71.1.59Z"/>
          <path class="cls-12" d="m22.84,102.67c.47,4.44,5.78,3.9,9.24,4.11,20.5,1.23,47.98-1.71,69.35-.88v5.57c-23.62.09-47.22.78-70.81-.29-2.43-.11-5.39-.15-7.77.29-8.1-.61-9.85-10.6,0-8.8Z"/>
          <path class="cls-12" d="m100.84,201.78c.1,0,.2,0,.29,0v7.33c-10.2.13-50.65,1.73-55.86.88-5.01-.82-8.78-7.66-11-11.73,3.1,1.28,9.54,4.33,12.46,4.69,5.98.75,43.39-1.03,54.1-1.17Z"/>
          <path class="cls-12" d="m101.72,131.99c0,1.79.23,3.89-.29,5.57-26.19.42-52.39-.5-78.58-.59-.19-.02-.4.03-.59,0,9.22-.41,2.47-.54,5.86-6.16q36.8.59,73.6,1.17Z"/>
          <path class="cls-12" d="m28.12,130.82c-3.39,5.61,3.36,5.75-5.86,6.16-3.82-.7-7.32-7.65-6.74-8.36l7.33-1.32c.36,2.53,3.01,3.57,5.28,3.52Z"/>
          <path class="cls-12" d="m19.91,162.49c.25.61,1.35,2.03,1.76,2.35-2.54,1.77,5.12,6.83,2.35,8.8-1.01-.12-2.95-.09-3.81-.29-3.9-.91-10.02-6.16-.29-10.85Z"/>
          <path class="cls-4" d="m105.24,201.48q-.15,3.81-.29,7.62c-1.27.02-2.54-.02-3.81,0v-7.33l4.11-.29Z"/>
          <path class="cls-4" d="m104.94,56.34h1.17v5.57c-1.47.03-2.93-.03-4.4,0v-5.57c1.07-.01,2.15,0,3.23,0Z"/>
          <path class="cls-12" d="m192.03,133.75c-28.67.31-57.25,3.23-85.91,3.81.04-1.87.53-3.7,0-5.57h.29l79.9-4.4c2.63-.32,3.81-3.1,4.54-5.42-28.19-.53-56.27,2.87-84.45,2.79v-6.16q39.22-1.17,78.44-2.35c3.01-.56,6.74-5.94,2.93-6.16-4.41-.25-15.27.81-20.82.88-20.17.26-40.37.19-60.55.29-.1,0-.2,0-.29,0l.29-5.57c21.17-.09,42.33-1.33,63.48-2.05,8.95-.31,15.01,2.68,20.09-6.89-27.88-.3-55.7,1.85-83.57,2.49-.1,0-.2,0-.29,0l.29-5.57q38.92-1.61,77.85-3.23c2.3-.8,3.25-2.78,3.08-5.13-26.98-1.17-53.94,1.78-80.93,2.2-.1,0-.2,0-.29,0,.25-1.96.01-3.92,0-5.86,26.58-.04,53.41-2.56,79.9-4.11l1.91-3.52c.07.54.75,2.84,1.32,2.93,4.11-2.4,6.31-2.92,5.42,2.79-1.06,6.81-11.71,3.85-4.84,9.24,3.94-2.65,7.57.82,4.84,4.84-.73,1.08-6.67,3.97-6.3,8.36,10.65-5.92,9.52,5.33,1.32,8.06,2.44,5.02,6.6,1.85,7.04,2.93,1.15,6.7-5.41,8.26-5.57,9.38l1.32,4.54,4.84-1.61c.43,4.55-.33,7.42-5.28,8.06Z"/>
          <path class="cls-12" d="m198.48,150.17c-.21.83-.2,2.32-.29,2.64-.99,3.32-.48,4.67-5.28,7.92-29.03-.81-58.08.83-87.09,2.05.01-2.05-.02-4.11,0-6.16h10.41c11.6-1.98,67.7-2.39,73.3-4.98,1.7-.79,2.35-3.04,3.67-4.11.23,1.59.31,3.1.44,4.69.41.32,3.99-3.03,4.84-2.05Z"/>
          <path class="cls-25" d="m193.2,146.65c.35.99,0,.84,0,.88-1.32,1.07-1.96,3.32-3.67,4.11-5.6,2.59-61.71,3-73.3,4.98h-10.41c.02-2.54-.04-5.08,0-7.62,10.61-.09,21.21.11,31.81-.29,13.62-.52,33.57-2.79,44.57-2.93,3.46-.04,9.12,1.09,11,.88Z"/>
          <path class="cls-12" d="m192.03,135.8l.44,3.81c7.85-5.11,8.87,6.15.73,7.04-1.88.21-7.53-.92-11-.88-11,.14-30.94,2.41-44.57,2.93-10.61.4-21.21.2-31.81.29.03-1.93.25-3.91.29-5.86,26.74-.53,53.46-1.88,80.19-2.64,3.21-.58,3.44-3.47,5.72-4.69Z"/>
          <path class="cls-12" d="m187.92,72.47c-27.18.93-54.32,2.12-81.51,2.35-.04,0-.15-.59-.59-.59.53-1.79.29-3.98.29-5.86,0-.1,0-.2,0-.29,25.9-1.29,51.83.56,77.7-1.76-.28-3.8,8.58-2.04,9.09-1.32,1.21,1.72-.62,6.79-4.98,7.48Z"/>
          <path class="cls-25" d="m192.03,133.75v2.05c-2.27,1.22-2.51,4.12-5.72,4.69-26.73.75-53.45,2.11-80.19,2.64.04-1.86-.04-3.72,0-5.57,28.66-.58,57.24-3.5,85.91-3.81Z"/>
          <path class="cls-25" d="m187.92,72.47c.05.58-.07,1.19,0,1.76l-1.91,3.52c-26.49,1.54-53.32,4.06-79.9,4.11-.01-2.3-.23-4.79.29-7.04,27.2-.23,54.34-1.41,81.51-2.35Z"/>
          <path class="cls-25" d="m181.77,61.33c.77,1.57,1.65,3.28,2.05,4.98-25.87,2.32-51.81.47-77.7,1.76,0-2.05,0-4.11,0-6.16,12.64-.22,28.11.57,40.02,0,10.71-.51,23.04-2.92,34.45-2.64.43.69.81,1.32,1.17,2.05Z"/>
          <path class="cls-12" d="m186.16,188.29c-.48.13-2.87.48-4.69.88-7.99,1.74-16.05,2.54-24.19,3.23-17.16-.6-34.29-1.19-51.46-1.47v-5.86c13.11.07,50.06-.38,60.84-1.76,8.8-1.13,17.87-3.66,25.07-8.94-9.17-.43-18.73.88-28,1.03-19.26.31-38.64-.32-57.91-.29,0-2.05,0-4.11,0-6.16,20.58.03,41.16.46,61.72-.29,8.74-1.14,17.34-3.33,25.36-7.04-.03.56-.12,3.6.15,3.81l4.98-2.35.44.44c1.38,9.64-3.37,8.12-4.69,11.14-2.62,6,2.72,10.82-7.62,13.63Z"/>
          <path class="cls-25" d="m181.47,189.17c-1.37,3.06-2.13,7.34-2.35,7.92-.07.19.16.6-.29.59-5.34,4.5-26.14,3.98-35.92,4.11-12.46.16-24.92-.6-37.38-.29v-10.56c.1,0,.2,0,.29,0,17.17.28,34.3.86,51.46,1.47,8.14-.68,16.2-1.49,24.19-3.23Z"/>
          <path class="cls-25" d="m192.91,160.73c.47.62.02.54,0,.88-8.02,3.7-16.62,5.9-25.36,7.04-20.56.75-41.14.32-61.72.29,0-2.05-.01-4.11,0-6.16,29-1.22,58.05-2.86,87.09-2.05Z"/>
          <path class="cls-35" d="m105.53,190.93v10.56h-.29l-4.11.29c-.1,0-.2,0-.29,0v-10.85c1.56.03,3.13-.03,4.69,0Z"/>
          <path class="cls-4" d="m105.82,185.06v5.86c-.1,0-.2,0-.29,0-1.56-.03-3.13.03-4.69,0-.1,0-.2,0-.29,0-.26-1.96.23-3.94.29-5.86,1.66.01,3.32,0,4.98,0Z"/>
          <path class="cls-12" d="m100.55,168.94c.01,2.15.28,4.34.29,6.45-21.45,0-56.67.73-76.82-1.76,2.77-1.96-4.89-7.02-2.35-8.8,1.42,1.09,4.27,1.99,6.01,2.35,11.49,2.35,57.77,1.7,72.86,1.76Z"/>
          <path class="cls-35" d="m105.82,175.39v9.68c-1.66,0-3.32.01-4.98,0,.11-3.21.02-6.47,0-9.68h4.98Z"/>
          <path class="cls-4" d="m105.82,156.62c-.02,2.05.01,4.11,0,6.16h-5.28c0-2.05,0-4.11,0-6.16h5.28Z"/>
          <path class="cls-35" d="m106.12,111.47c.1,0,.2,0,.29,0l-.29,7.33h-4.4v-7.33c1.47,0,2.93,0,4.4,0Z"/>
          <path class="cls-4" d="m106.12,118.8h.29v6.16h-4.69c0-1.95,0-3.91,0-5.86v-.29h4.4Z"/>
          <path class="cls-4" d="m106.12,105.9c.1,0,.2,0,.29,0l-.29,5.57c-1.47,0-2.93,0-4.4,0-.1,0-.2,0-.29,0v-5.28c1.36-.52,3.19-.28,4.69-.29Z"/>
          <path class="cls-35" d="m106.41,124.95v7.04h-4.69c0-2.35,0-4.69,0-7.04h4.69Z"/>
          <path class="cls-35" d="m105.82,162.78c-.01,2.05,0,4.11,0,6.16-1.76,0-3.52,0-5.28,0-.01-2.05,0-4.11,0-6.16h5.28Z"/>
          <path class="cls-35" d="m105.82,74.23c.44,0,.54.59.59.59-.52,2.25-.31,4.74-.29,7.04-1.56,0-3.13,0-4.69,0-.02-2.54.11-5.08,0-7.62h.29c1.37,0,2.74.01,4.11,0Z"/>
          <path class="cls-35" d="m106.12,87.72c.1,0,.2,0,.29,0l-.29,5.86-4.69.29v-6.16c.1,0,.2,0,.29,0,1.47-.02,2.93.02,4.4,0Z"/>
          <path class="cls-4" d="m106.12,93.58l.29.29-.29,5.57c-1.56.04-3.13-.03-4.69,0v-5.57l4.69-.29Z"/>
          <path class="cls-4" d="m106.12,81.85c.01,1.95.25,3.91,0,5.86-1.47.02-2.93-.02-4.4,0-.45-1.94-.28-3.9-.29-5.86,1.56,0,3.13,0,4.69,0Z"/>
          <path class="cls-35" d="m106.12,99.44c.1,0,.2,0,.29,0l-.29,6.45c-1.5,0-3.34-.22-4.69.29v-6.74c1.56-.03,3.13.04,4.69,0Z"/>
          <path class="cls-35" d="m101.42,149c1.47,0,2.93.01,4.4,0-.04,2.54.02,5.08,0,7.62h-5.28v-7.62c.29,0,.59,0,.88,0Z"/>
          <path class="cls-4" d="m106.12,68.36c0,1.88.23,4.08-.29,5.86-1.37.01-2.74,0-4.11,0v-6.16l4.4.29Z"/>
          <path class="cls-4" d="m106.12,143.13c-.04,1.95-.26,3.94-.29,5.86-1.47.01-2.93,0-4.4,0-.74-1.96-.07-3.93,0-5.86,1.56-.03,3.13.03,4.69,0Z"/>
          <path class="cls-35" d="m106.12,61.91c0,2.05,0,4.11,0,6.16,0,.1,0,.2,0,.29l-4.4-.29v-6.16c1.47-.03,2.93.03,4.4,0Z"/>
          <path class="cls-35" d="m106.12,137.56c-.04,1.86.04,3.72,0,5.57-1.56.03-3.13-.03-4.69,0,.06-1.81-.27-3.86.29-5.57,1.47-.02,2.93.03,4.4,0Z"/>
          <path class="cls-4" d="m106.12,131.99c.53,1.87.04,3.7,0,5.57-1.46.03-2.93-.02-4.4,0-.1,0-.2,0-.29,0,.52-1.68.29-3.79.29-5.57h4.4Z"/>
          <path class="cls-12" d="m180.59,59.27c-11.41-.28-23.74,2.13-34.45,2.64-11.91.57-27.38-.22-40.02,0v-5.57h3.52q29.1-1.32,58.2-2.64c3.53.87,9.77.97,12.17,3.96.22.27.52,1.5.59,1.61Z"/>
          <path class="cls-25" d="m106.41,105.9c-.1,0-.2,0-.29,0l.29-6.45c27.87-.64,55.69-2.79,83.57-2.49-5.07,9.57-11.14,6.58-20.09,6.89-21.15.73-42.31,1.96-63.48,2.05Z"/>
          <path class="cls-25" d="m106.41,118.8h-.29l.29-7.33c20.17-.1,40.38-.03,60.55-.29,5.55-.07,16.41-1.13,20.82-.88,3.81.21.08,5.6-2.93,6.16q-39.22,1.17-78.44,2.35Z"/>
          <path class="cls-25" d="m106.41,131.99v-7.04c28.18.09,56.26-3.32,84.45-2.79-.74,2.33-1.92,5.11-4.54,5.42l-79.9,4.4Z"/>
          <path class="cls-25" d="m106.41,93.87l-.29-.29.29-5.86c26.99-.42,53.95-3.37,80.93-2.2.17,2.35-.78,4.33-3.08,5.13q-38.92,1.61-77.85,3.23Z"/>
          <path class="cls-25" d="m105.82,185.06v-9.97c19.27-.03,38.65.6,57.91.29,9.27-.15,18.84-1.45,28-1.03-7.2,5.28-16.27,7.81-25.07,8.94-10.78,1.38-47.73,1.83-60.84,1.76Z"/>
          <path class="cls-4" d="m105.82,168.94c0,2.05,0,4.11,0,6.16v.29h-4.98c-.01-2.11-.28-4.3-.29-6.45,1.76,0,3.52,0,5.28,0Z"/>
        </g>
      </g>
    </g>
  </g>
</svg>