<?xml version="1.0" encoding="UTF-8"?>
<svg id="Camada_2" data-name="Camada 2" xmlns="http://www.w3.org/2000/svg" xmlns:xlink="http://www.w3.org/1999/xlink" viewBox="0 0 385.86 342.67">
  <defs>
    <style>
      .cls-1 {
        fill: #ffdc8d;
      }

      .cls-1, .cls-2, .cls-3, .cls-4, .cls-5, .cls-6, .cls-7, .cls-8, .cls-9, .cls-10, .cls-11, .cls-12, .cls-13, .cls-14, .cls-15, .cls-16, .cls-17, .cls-18, .cls-19, .cls-20, .cls-21, .cls-22, .cls-23, .cls-24, .cls-25, .cls-26, .cls-27, .cls-28, .cls-29, .cls-30, .cls-31, .cls-32, .cls-33, .cls-34, .cls-35, .cls-36, .cls-37, .cls-38, .cls-39, .cls-40, .cls-41, .cls-42, .cls-43, .cls-44, .cls-45, .cls-46, .cls-47, .cls-48, .cls-49, .cls-50, .cls-51, .cls-52, .cls-53, .cls-54, .cls-55, .cls-56, .cls-57, .cls-58, .cls-59, .cls-60, .cls-61, .cls-62, .cls-63, .cls-64, .cls-65, .cls-66, .cls-67, .cls-68, .cls-69, .cls-70, .cls-71, .cls-72, .cls-73, .cls-74, .cls-75, .cls-76, .cls-77, .cls-78, .cls-79, .cls-80, .cls-81, .cls-82, .cls-83, .cls-84, .cls-85, .cls-86, .cls-87, .cls-88, .cls-89 {
        stroke-width: 0px;
      }

      .cls-2 {
        fill: #b87250;
      }

      .cls-3 {
        fill: #ffefd5;
      }

      .cls-4 {
        fill: #fee6c5;
      }

      .cls-5 {
        fill: #b5441a;
      }

      .cls-6 {
        fill: #bccbce;
      }

      .cls-7 {
        fill: #907b6d;
      }

      .cls-8 {
        fill: #806867;
      }

      .cls-9 {
        fill: #552523;
      }

      .cls-10 {
        fill: #ffa66d;
      }

      .cls-11 {
        fill: url(#Gradiente_sem_nome_460);
      }

      .cls-12 {
        fill: #0d0d12;
      }

      .cls-13 {
        fill: #292b2c;
      }

      .cls-14 {
        fill: url(#Gradiente_sem_nome_455);
      }

      .cls-15 {
        fill: #ffdb5e;
      }

      .cls-16 {
        fill: #5f3833;
      }

      .cls-17 {
        fill: #5d585f;
      }

      .cls-18 {
        fill: #ffae3a;
      }

      .cls-19 {
        fill: #3f4550;
      }

      .cls-20 {
        fill: #aa9a93;
      }

      .cls-21 {
        fill: #f2a868;
      }

      .cls-22 {
        fill: #1f1e26;
      }

      .cls-23 {
        fill: #b2713e;
      }

      .cls-24 {
        fill: #ced1cd;
      }

      .cls-25 {
        fill: #da8a47;
      }

      .cls-26 {
        fill: #c82a19;
      }

      .cls-27 {
        fill: #9c7a51;
      }

      .cls-28 {
        fill: #faeadf;
      }

      .cls-29 {
        fill: #9e2209;
      }

      .cls-30 {
        fill: url(#Gradiente_sem_nome_459);
      }

      .cls-31 {
        fill: url(#Gradiente_sem_nome_457);
      }

      .cls-32 {
        fill: #9a7359;
      }

      .cls-33 {
        fill: #d77351;
      }

      .cls-34 {
        fill: #be6518;
      }

      .cls-35 {
        fill: #5c3035;
      }

      .cls-36 {
        fill: #512c18;
      }

      .cls-37 {
        fill: #703405;
      }

      .cls-38 {
        fill: #f6a05d;
      }

      .cls-39 {
        fill: #392525;
      }

      .cls-40 {
        fill: #c67231;
      }

      .cls-41 {
        fill: #ffe8bc;
      }

      .cls-42 {
        fill: #e4742e;
      }

      .cls-43 {
        fill: #ffc875;
      }

      .cls-44 {
        fill: #c45a3d;
      }

      .cls-45 {
        fill: #e39e48;
      }

      .cls-46 {
        fill: #e2e5e1;
      }

      .cls-47 {
        fill: #353b46;
      }

      .cls-48 {
        fill: #e3c7a9;
      }

      .cls-49 {
        fill: #1f252f;
      }

      .cls-50 {
        fill: #da8a40;
      }

      .cls-51 {
        fill: url(#Gradiente_sem_nome_456);
      }

      .cls-52 {
        fill: #efa96e;
      }

      .cls-53 {
        fill: #56719d;
      }

      .cls-54 {
        fill: #c1794b;
      }

      .cls-55 {
        fill: #f6875f;
      }

      .cls-56 {
        fill: #2d2e30;
      }

      .cls-57 {
        fill: #782a27;
      }

      .cls-58 {
        fill: #9f2b1d;
      }

      .cls-59 {
        fill: #fcc7b4;
      }

      .cls-60 {
        fill: #864601;
      }

      .cls-61 {
        fill: #ada9a6;
      }

      .cls-62 {
        fill: #251f1d;
      }

      .cls-63 {
        fill: #c8976e;
      }

      .cls-64 {
        fill: #9b6b48;
      }

      .cls-65 {
        fill: #8f491b;
      }

      .cls-66 {
        fill: #322d33;
      }

      .cls-67 {
        fill: #544e4e;
      }

      .cls-68 {
        fill: #ae6d24;
      }

      .cls-69 {
        fill: #f6b092;
      }

      .cls-70 {
        fill: #23272c;
      }

      .cls-71 {
        fill: #f8be90;
      }

      .cls-72 {
        fill: #36191c;
      }

      .cls-73 {
        fill: #a73903;
      }

      .cls-74 {
        fill: #e49146;
      }

      .cls-75 {
        fill: #2e2821;
      }

      .cls-76 {
        fill: url(#Gradiente_sem_nome_458);
      }

      .cls-77 {
        fill: #292f39;
      }

      .cls-78 {
        fill: #daac6b;
      }

      .cls-79 {
        fill: #f8693e;
      }

      .cls-80 {
        fill: #302215;
      }

      .cls-81 {
        fill: #ef9a1c;
      }

      .cls-82 {
        fill: #341e0e;
      }

      .cls-83 {
        fill: #ffb75b;
      }

      .cls-84 {
        fill: #ffe5a2;
      }

      .cls-85 {
        fill: #a7b2b4;
      }

      .cls-86 {
        fill: #664d26;
      }

      .cls-87 {
        fill: #271d1e;
      }

      .cls-88 {
        fill: #4a5c7a;
      }

      .cls-89 {
        fill: #ffa948;
      }
    </style>
    <linearGradient id="Gradiente_sem_nome_460" data-name="Gradiente sem nome 460" x1="-5685.06" y1="-4179.25" x2="-5746.66" y2="-4009.06" gradientTransform="translate(2942.84 2181.41) scale(.5)" gradientUnits="userSpaceOnUse">
      <stop offset="0" stop-color="#5e6774"/>
      <stop offset="1" stop-color="#a8938c"/>
    </linearGradient>
    <linearGradient id="Gradiente_sem_nome_459" data-name="Gradiente sem nome 459" x1="-5731.27" y1="-4153.7" x2="-5731.97" y2="-4039.71" gradientTransform="translate(2942.84 2181.41) scale(.5)" gradientUnits="userSpaceOnUse">
      <stop offset="0" stop-color="#ad9f99"/>
      <stop offset="1" stop-color="#bfc8c9"/>
    </linearGradient>
    <linearGradient id="Gradiente_sem_nome_458" data-name="Gradiente sem nome 458" x1="-5802.69" y1="-4137.92" x2="-5800.55" y2="-4037.95" gradientTransform="translate(2942.84 2181.41) scale(.5)" gradientUnits="userSpaceOnUse">
      <stop offset="0" stop-color="#a79992"/>
      <stop offset="1" stop-color="#b2bdbe"/>
    </linearGradient>
    <linearGradient id="Gradiente_sem_nome_457" data-name="Gradiente sem nome 457" x1="-5457.26" y1="-4205.07" x2="-5455.97" y2="-4175.09" gradientTransform="translate(2942.84 2181.41) scale(.5)" gradientUnits="userSpaceOnUse">
      <stop offset="0" stop-color="#4f5663"/>
      <stop offset="1" stop-color="#a28374"/>
    </linearGradient>
    <linearGradient id="Gradiente_sem_nome_456" data-name="Gradiente sem nome 456" x1="-5542.69" y1="-4105" x2="-5341.08" y2="-4092.37" gradientTransform="translate(2942.84 2181.41) scale(.5)" gradientUnits="userSpaceOnUse">
      <stop offset="0" stop-color="#a5b1b3"/>
      <stop offset="1" stop-color="#beced1"/>
    </linearGradient>
    <linearGradient id="Gradiente_sem_nome_455" data-name="Gradiente sem nome 455" x1="-5607.43" y1="-4190.34" x2="-5607.1" y2="-4167.34" gradientTransform="translate(2942.84 2181.41) scale(.5)" gradientUnits="userSpaceOnUse">
      <stop offset="0" stop-color="#454b55"/>
      <stop offset="1" stop-color="#8c6855"/>
    </linearGradient>
  </defs>
  <g id="Camada_1-2" data-name="Camada 1">
    <g>
      <path class="cls-26" d="m170.77,260.17c4.16.05,8.34-.07,12.5,0,9.2.16,18.33-.42,27.5-.5.2,0,2.9,1.37,4,0,3.18,1.31,9.12,1.52,12.5.5-.6,1.48.03,2.09.75,3.5,14.58-1.84,106.14,2.04,111.5.5.28-.08,3.24-3.06,4.75-3.5,1.23-.11,1.47-.23,2.5-.5,7.54,1.99,15.3.08,23,.5,0,5.14,1.04,10.35-.5,15.5-.58,0-1.04,1-1.25,1-65.08-.35-130.17.26-195.25,0-.12-1.03-.51.06-1,0-1.19-.15-2.77-.72-4-1-.08-.02-.9-.33-1.5-.5-1.22-.36-7.19-1.84-7.5-2.25-2.78-8.6-2.85-31.34-16.75-28.25-8.04,1.79-11.78,26.56-12.25,33.5-1.33-.11-3.27-1.43-3.5-1.5,4.65-35.81,24.92-52.69,33.5-15.75,1.46,6.28.66,16.19,4,10.75.17.55-.3,1.51.25,2,1.9.12,10.66,2.75,11.25.25-1.84-4.07-1.6-12.94-2-13.5-1.4-1.96-5.4,7.07-5.5-20.5-.6-2.25-5.35-2.79-5-5.25,1.97,1.62,4.23,2.88,6,4.75.54,3.26.18,19.69,2,20.25Z"/>
      <path class="cls-43" d="m31.27,101.67c-.74,4.91-1.29,17.22-2,24.5-1.42,14.48-5.03,50.21-5,61.5,0,.79-.23,4.16.25,4.5,7.24-.87,14.51-2.19,21.75-3,.79,2.54,9.63,17.43,10.5,18l-12,1.25c.87-28.74-3.04-20.98-8,1.5-3.37.5-9.46.24-10,2.25-1.44.08-2.09.12-3.5.5-.2-1.09-2.5-.04-3-.75-.87-1.25,1.07-22.3.5-26l8.5-84.25c.66.06,1.34-.04,2,0Z"/>
      <path class="cls-84" d="m313.27,88.17c5.22,27.02,11.1,53.92,16,81-2.33,4.95-2.15-.6-3.5-3.5-.12-.27.13-.42-1.5-3-1.42-13.39-6.82-26.53-7-40.25-.08-.41-.92-.09-1-.5-1.17-5.89-2.14-12.04-3-18-1.55-.87-.95-4.25-1-4.5-.62-3.02-4.19-9.81-1.5-11.75.89.13,1.59-.24,2.5.5Z"/>
      <path class="cls-43" d="m29.27,225.17c0,7.98-1.18,16.03-1.5,24h-10.5c.74-6.41,1.03-12.83,1.5-19.25.14-1.96,1.48-3.82,1.5-4.25,2.97-.36,6.04-.26,9-.5Z"/>
      <path class="cls-65" d="m311.27,73.67c1.31,3.41,1.25,10.63,2,14.5-.91-.74-1.61-.37-2.5-.5-1.21-.17-2.34-.84-3.5,0-1.37-5.2-3.14-10.3-4.5-15.5,2.5.18,5.23.07,7.75,0,.3,1.73.72,1.42.75,1.5Z"/>
      <path class="cls-43" d="m14.27,262.17h19c-.17,1.12-.36,2.39-.5,3.5-3.59-.41-6.17.49-6.5.5-3.11.08-6.37-.43-9.5,0h-3c.03-.19-.84-1.11-.5-3.75.08-.42.99-.2,1-.25Z"/>
      <g>
        <path class="cls-43" d="m363.27,211.17c3.32,5.39,5.23,14.45,5.5,20.5-5.33.09-10.67-.13-16,0,.44-3.96-.22-6.76-1-10.5-1.05-5.06-3-9.31-5-14,7.34-.05,10.58-.97,16.5,4Z"/>
        <path class="cls-84" d="m363.27,211.17c-5.92-4.97-9.16-4.05-16.5-4-.02-.05-.2-.33-.5-1-.07-.17-.38-2.12-1-3.5,8.54.34,13.39,1.02,18,8.5Z"/>
      </g>
      <path class="cls-33" d="m16.77,266.17c-.05.42.12.47.5.5,3.02,11.89-.35,6.51-2,8.5-.99.04-2.01-.07-3,0-1.99-2.26,1.06-6.45,1.5-9h3Z"/>
      <g>
        <path class="cls-67" d="m344.77,157.17c-.14,4.28-.72,8.71-1,13l-2-1c.21-5.7-.69-36.94,0-38.75.46-1.23,2.91-.17,3,0,.6,1.19.11,23.45,0,26.75Z"/>
        <g>
          <path class="cls-62" d="m350.27,168.17c3.65.42,7.25.08,10,1.5,3.77,1.94.77,5.79-6.5,6.25,10.39,1.67-18.51,7.12-19.75,6.75-5.72-1.69,5.59-4.57,7.25-4.75.9-1.04.43-6.93.5-8.75l2,1c-.14,2.12-.52,4.65-1,6.75,4.12,1.14,4.13-5.75,2-6-.23-2.43.5-3.09.5-3.25,1.65.29,3.36.31,5,.5Z"/>
          <path class="cls-77" d="m360.27,169.67c-2.75-1.42-6.35-1.08-10-1.5.9-6.17-2.58-8.6,0-15.5,14.59-7.8,10.72,8.02,10,17Z"/>
          <path class="cls-67" d="m350.27,152.67c-2.58,6.9.9,9.33,0,15.5-1.64-.19-3.35-.21-5-.5-.09-3.53-.19-6.97,0-10.5,1.53-2.56,2.53-3.18,5-4.5Z"/>
          <path class="cls-61" d="m345.27,167.67c0,.16-.73.82-.5,3.25,2.13.25,2.12,7.14-2,6,.48-2.1.86-4.63,1-6.75.28-4.29.86-8.72,1-13h.5c-.19,3.53-.09,6.97,0,10.5Z"/>
        </g>
      </g>
      <path class="cls-26" d="m352.27,231.67c-.33,0-.67,0-1,0-4.43.09-9.07.29-13.5.5-3.23.15-6.5-.58-7.5.75.61,7.46-1.56,16.55,0,23.75.23,1.06,1.03,2.47,1.5,3.5-3.66-.99,1.92-2.74-7-1.5l-.75-26h-39c.62,3.73-.1,7.32-.25,11h-6c-.04-1.55.26-10.64-.25-11-13.23-.67-26.55.73-39.75.5-.25,0-3.47-1.38-5,0-1.6-.85-3.69-.48-5.5-.5-4.07-.05-8.05-.92-12-1-.04-.4.06-.89,0-1,23.52-1.47,47.17-1.14,70.75-1,13.5.08,48.27-.22,57.5.5,2.39.19,5.27,1.36,7.75,1.5Z"/>
      <path class="cls-1" d="m170.27,83.17c-2.29,8.88-4.22,34.86-5,45.5-.92,12.57-1.14,25.21-2.5,37.75l6.5.25c.38,1.29-8.36,1.95-9,.25.88-5.15.41-10.35.5-15.5,0-.53,3.7-3.01-2.5-1.75l2.5-67.5c3.2.4,6.36.34,9.5,1Z"/>
      <path class="cls-43" d="m329.27,174.67c.05,1.25-.03,1.97-.75,3-37.79-.56-75.71,3.05-113.5,1.5-5.25-.22-25.86-.59-24.75-4.5,46.33-.08,92.67.06,139,0Z"/>
      <path class="cls-81" d="m329.27,174.67c-46.33.06-92.67-.08-139,0-2.83,0-5.67,0-8.5,0-4,.01-8.06.47-12,.5-5.39.04-11.06-.67-16.5-.5-.01-.5-.02-1,0-1.5l175.75-1c.96,1.89.24,2.27.25,2.5Z"/>
      <path class="cls-81" d="m164.27,178.17c.44,6.37,3.87,13.2,4.5,20-4.17.26-8.34.68-12.5,1l-16-12c4.27-.04,18.54-.49,19.5-5,.06-.29,0-.68,0-1,2.62-.93,3.66-.29,2.5-3.5.78,0,.09-1,1.25-1,.5,0-.17,1.21.75,1.5Z"/>
      <path class="cls-43" d="m160.77,82.17l-2.5,67.5c-1.47,6.44-1.01,3.1-2-1.5.04-2-.04-4,0-6,.32-17.71-.87-43.27,2-60,.82.07,1.69-.1,2.5,0Z"/>
      <g>
        <path class="cls-84" d="m181.77,211.17l6.5,20.5c-.8.17-2.24,1.14-2.5,2-1.6-1.31-6.6-2.71-7-3.25-.59-.78-3.37-16.77-3.5-19.25,2.14-.18,4.36.16,6.5,0Z"/>
        <path class="cls-84" d="m176.77,197.67c-1.89.08-3.67.4-5.5.5-.19-1.38.59-1.66.5-2.25-.41-2.84-2.5-8.22-2.5-11.75.89,0,6.22-1.63,13,.25,1.67,5.14-3.69,8.73-5.5,13.25Z"/>
      </g>
      <path class="cls-83" d="m167.27,183.17c.61.76.25,1,2,1,0,3.53,2.09,8.91,2.5,11.75.09.59-.69.87-.5,2.25-.83.05-1.67-.05-2.5,0-.63-6.8-4.06-13.63-4.5-20,.13.04.33,0,.5,0,1.03,1.59,1.29,3.51,2.5,5Z"/>
      <path class="cls-43" d="m181.77,174.67c1.26,1.29-2.14,6.35-2.75,6.5-.56.14-9.89-3.85-9.25-6,3.94-.03,8-.49,12-.5Z"/>
      <g>
        <path class="cls-43" d="m158.27,149.67c6.2-1.26,2.51,1.22,2.5,1.75-.09,5.15.38,10.35-.5,15.5.64,1.7,9.38,1.04,9-.25,42.57-1.25,85.16-1.54,127.75-2,8.88-.1,20.82-.71,28.75,1,1.35,2.9,1.17,8.45,3.5,3.5l2,11.25,14,22.25c.62,1.38.93,3.33,1,3.5l-12.25-17-99-.5-.75,11c-1.06.03-5.62-.25-6,.25l6.75,8.25c.57.06,1.19-.09,1.75,0l-1,1c-.36-.35-2.59-1.56-2.5,0l-8.75-11c-1.57-.08-3.18.11-4.75,0-5.58-.4-19.27-1.29-20.5,6.25-1.15,7.07,14.99,22.77,17,26.25.06.11-.04.6,0,1-4.71-.1-26.53-.31-28,0l-6.5-20.5c3.51-.25,6.95-.87,10.5-1,.17,0,.33,0,.5,0,.28,0,4.11,1.53,5.5-.25l-3.5-12c-.97-1.3-4.25-.62-7.5-.75-3.59-.14-6.96.35-10.5.5,1.81-4.52,7.17-8.11,5.5-13.25-6.78-1.88-12.11-.25-13-.25-1.75,0-1.39-.24-2-1l7.5-1.75c-9.77-6.5-9.41-3.22-10-3.25-.17,0-.37.04-.5,0-.92-.29-.25-1.5-.75-1.5-1.16,0-.47,1.01-1.25,1-1.05-.01-1.97,0-3,0-.66,0-1.34.01-2,0-.2,0-1.1-1.35-4,0-.18-2.18.01-2.53,0-3,5.44-.17,11.11.54,16.5.5-.64,2.15,8.69,6.14,9.25,6,.61-.15,4.01-5.21,2.75-6.5,2.83,0,5.67,0,8.5,0-1.11,3.91,19.5,4.28,24.75,4.5,37.79,1.55,75.71-2.06,113.5-1.5.72-1.03.8-1.75.75-3,0-.23.71-.61-.25-2.5l-175.75,1c0-.08-1.32.48-1-1.25.3-.39.97-.71,1-1.25,3.25,1.6,2.82-14.56,3-22.5.99,4.6.53,7.94,2,1.5Z"/>
        <path class="cls-84" d="m189.02,177.17c2.92-.52,11.86,14.01,14.25,16.25-21.13,1.5-17.8-15.61-14.25-16.25Z"/>
        <path class="cls-43" d="m167.27,183.17c-1.21-1.49-1.47-3.41-2.5-5,.59.03.23-3.25,10,3.25l-7.5,1.75Z"/>
      </g>
      <path class="cls-41" d="m162.27,177.67c1.16,3.21.12,2.57-2.5,3.5,0-1.29-.08-2.29-.5-3.5,1.03,0,1.95-.01,3,0Z"/>
      <path class="cls-44" d="m284.77,243.67c-.02.54,0,1.42,0,2,0,1,0,2,0,3,.02,1.77-.51,10.44.75,11h39c.42-.05.2-.99.25-1,8.92-1.24,3.34.51,7,1.5.57.15,9.78.56,11.5.5.33-.01.67.03,1,0-1.51.44-4.47,3.42-4.75,3.5-5.36,1.54-96.92-2.34-111.5-.5-.72-1.41-1.35-2.02-.75-3.5.37-.11.66-.32,1-.5,1.13,1.32,3.33.07,4.5,0,1.82-.11,3.68.03,5.5,0,13.41-.23,26.84.17,40.25,0,.36-5.31.38-10.69.25-16h6Z"/>
      <path class="cls-43" d="m175.27,211.17c.13,2.48,2.91,18.47,3.5,19.25.4.54,5.4,1.94,7,3.25-.27.89.95,15.35.75,18.5h22.25c0,1.55.47,1.65.5,2,.15,1.57-.72,3.43,1.5,5.5-9.17.08-18.3.66-27.5.5-1.52-15.47-6.89-30.01-10.5-45-.24-1.01-.68-1.91-.5-3,.09,0,.72-.93,1.5-1,.49-.04,1.01.04,1.5,0Z"/>
      <path class="cls-81" d="m172.27,212.17c-.18,1.09.26,1.99.5,3-5.34-.17-2.01,2.48-2,2.75.28,7.14-1.03,9.02-1,9.5.14,2.57,3.98,16.87,4,22.5.02,3.91.2,8.09-3,10.25-1.82-.56-1.46-16.99-2-20.25-1.77-1.87-4.03-3.13-6-4.75-.43-.35-1.05-.67-1.5-1,2.22-4.29-1.64-14.35-2-21,4.37-.43,8.65-.64,13-1Z"/>
      <path class="cls-81" d="m172.77,215.17c3.61,14.99,8.98,29.53,10.5,45-4.16-.07-8.34.05-12.5,0,3.2-2.16,3.02-6.34,3-10.25-.02-5.63-3.86-19.93-4-22.5-.03-.48,1.28-2.36,1-9.5-.01-.27-3.34-2.92,2-2.75Z"/>
      <g>
        <path class="cls-2" d="m381.77,294.17l-.75-5.5c-69.32-1.1-138.67-.03-208-1l-.25-10.5c65.08.26,130.17-.35,195.25,0,.21,0,.67-1,1.25-1,14.96.09,17.11,1.82,16.5,17.25-.86,1.25-2.47.62-4,.75Z"/>
        <path class="cls-88" d="m172.77,277.17l.25,10.5c69.33.97,138.68-.1,208,1l.75,5.5c-8.67.74-26.62-.33-38,0-.77.02-.36.99-.75,1-14.8.42-29.69.79-44.5,1-20.8.3-56.25,1.07-75,.5-.77-.02-1.39-1.5-1.5-1.5-6.29-.21-12.71-.08-19,0-.19,0-.81,1-1,1-5.93.06-26.14-.43-28.25,0v-.5c-1.73-6-1.96-12.26-2-18.5.49.06.88-1.03,1,0Z"/>
        <path class="cls-15" d="m171.77,277.17c.04,6.24.27,12.5,2,18.5-3.92,1.59-8.5-5.22-8-12.25.1-1.39,1.67-5.2,2-7.25,1.23.28,2.81.85,4,1Z"/>
        <g>
          <path class="cls-88" d="m29.27,293.67c-6.3-.53-19.83.71-24,0-.05-.83.08-1.68,0-2.5,3.56-1.75,5.34-.14,9-2,.87-.44,14.74-11.59,12.5-14,.88.17,1.74.09,2.5.75v17.75Z"/>
          <path class="cls-2" d="m8.77,275.17c-2.23,8.27-4.59,4.51-3.5,16,.08.82-.05,1.67,0,2.5-8.01-1.37-6.93-16.67,3.5-18.5Z"/>
          <path class="cls-46" d="m12.27,275.17c.99-.07,2.01.04,3,0-.71.85-.9,11.43-2.5,13.5-2.31-.39-6.19,1.59-4-8.25.39-1.75,2.04-3.52,2.5-5.25.33-.03.67.02,1,0Z"/>
          <path class="cls-53" d="m11.27,275.17c-.46,1.73-2.11,3.5-2.5,5.25-2.19,9.84,1.69,7.86,4,8.25.08.01-.23.73,1.5.5-3.66,1.86-5.44.25-9,2-1.09-11.49,1.27-7.73,3.5-16,.74-.13,1.69.08,2.5,0Z"/>
          <path class="cls-2" d="m20.27,275.17c1.92.08,4.25-.21,6,0,.16.02.34-.03.5,0,2.24,2.41-11.63,13.56-12.5,14-1.73.23-1.42-.49-1.5-.5,1.6-2.07,1.79-12.65,2.5-13.5,1.64-.07,3.36-.07,5,0Z"/>
        </g>
      </g>
      <path class="cls-29" d="m32.77,265.67c-.3,2.46,0,6.66-.5,9.5-1.57-.2-4.24-.2-6-.5v-8.5c.33,0,2.91-.91,6.5-.5Z"/>
      <path class="cls-26" d="m26.27,266.17v9c-1.75-.21-4.08.08-6,0-2.21-1.66.48-.51,1-1.25.35-.49-1.44-4.32,2-7-.42-.54-4.89-.17-6-.25-.38-.03-.55-.08-.5-.5,3.13-.43,6.39.08,9.5,0Z"/>
      <g>
        <path class="cls-12" d="m337.77,303.67c-3.95,6.8-2.13,16.34-7.5,26.5-1,1.9-6.97,10.06-8.75,10.5-5.21-.37-22.22,1.45-25.5.5-.87-.25-3.63-4.48-5.25-5-.51-1.29-3.77-5.86-5-7.5l-6-16.5c1.47.53.97.91,1.25,1,2.09.69,36.93-.52,44,0,1.62-3.5-.74-7.58,2.5-10,2.5-1.87,10.9-2.21,10.25.5Z"/>
        <g>
          <path class="cls-62" d="m337.77,303.67c.65-2.71-7.75-2.37-10.25-.5-3.24,2.42-.88,6.5-2.5,10-7.07-.52-41.91.69-44,0-.28-.09.22-.47-1.25-1-.1-.04.24-1.27-.25-1.5-1.16-.55-5.95,1.08-5.75-4,0-.16,1.83-1.6,1.5-2.75-.56-1.98-18.77-2.01-19.75-1.75-.5.13,0,1.38-.5,1.5-3.09.74-6.44,2.37-8-1.5-.27,1.43-5.14,1.08-7.25,1-2.48-.09-15.98-.16-16.75-.5-1.56-.69-.18-4.92-1-5.5-.8-.56-18.7-.56-19.5,0-.72.51.22,3.99-.5,4.5-.55.39-6.95-.41-8,0-.17.07-.57,1.31-2.25,3-.83-3.54-14.07-2.59-20-7.25-.31-.58,1.8-1.21,2-1.25,2.11-.43,22.32.06,28.25,0,.19,0,.81-1,1-1,6.29-.08,12.71-.21,19,0,.11,0,.73,1.48,1.5,1.5,18.75.57,54.2-.2,75-.5,14.81-.21,29.7-.58,44.5-1,.39-.01-.02-.98.75-1-.44,4.15-5.57,8.76-6,9.5Z"/>
          <path class="cls-62" d="m273.77,306.67c-6.35-2.4-27.76.02-33.25-2-.46-.17-.9-.94-.75-1.5,2.11.08,6.98.43,7.25-1,1.56,3.87,4.91,2.24,8,1.5.49-.12,0-1.37.5-1.5.98-.26,19.19-.23,19.75,1.75.33,1.15-1.49,2.59-1.5,2.75Z"/>
        </g>
      </g>
      <path class="cls-81" d="m66.77,187.17l8,15.25c-2.33,2.02-6.46,4.11-9.5,4.75-2.5.52-4.96.61-7.5.5-.34-.08-.72-.32-1-.5-.87-.57-9.71-15.46-10.5-18,6.8-.76,13.71-1.1,20.5-2Z"/>
      <path class="cls-43" d="m56.77,207.17c.28.18.66.42,1,.5l-.5,1c-2.47.25-5.05.24-7.5.5-2.82.3-5.67.68-8.5,1-3.93.44-8.2.83-12,2-.17-.01-.33,0-.5,0-.66-.03-1.34-.03-2,0,.54-2.01,6.63-1.75,10-2.25,4.96-22.48,8.87-30.24,8-1.5l12-1.25Z"/>
      <path class="cls-43" d="m310.77,87.67c-2.69,1.94.88,8.73,1.5,11.75.05.25-.55,3.63,1,4.5.86,5.96,1.83,12.11,3,18,.08.41.92.09,1,.5.18,13.72,5.58,26.86,7,40.25-.05-.08-1.2-.86-1.5-1-.21-.88-1.82-1.75-2-2.25-.63-1.71-4.27-29.77-5.5-36-2.36-11.89-4.91-24.03-8-35.75,1.16-.84,2.29-.17,3.5,0Z"/>
      <path class="cls-1" d="m113.27,73.17c-1.41.29-2.05.51-3.5.25.53,9.38-1.12,18.68-1.5,28-.34,8.36.41,27.38,0,31-.1.89-3.11,1.87-.5,4-3.9,1.42,2.2,4.57-6.5,5.25.11-8.35-.02-53.01.5-55.75.94-4.9,5.75-2.13,6-6.25.03-.57.16-1.66-.25-2-25.68,5.61-52.86,12.28-79.25,18v-3c.59-.21,1.01-1.75,1.75-2,7.47-2.56,59.03-15.54,67.25-17,5.41-.96,10.82-2.66,16-.5Z"/>
      <g>
        <path class="cls-25" d="m27.27,249.17l-.5,13h-12.5c.82-4.18.03-9.4,3-13h10Z"/>
        <path class="cls-29" d="m31.27,249.17h4.5c-.18.64-2.29,11.56-2.5,13h-6.5l.5-13h4Z"/>
      </g>
      <path class="cls-83" d="m33.27,225.17l-2,24h-3.5c.32-7.97,1.5-16.02,1.5-24,3.72-.3,3.8.02,4,0Z"/>
      <g>
        <path class="cls-43" d="m369.27,252.67c0,.06.99.38,1,.75.05,2.44-.5,4.95-.5,7.25-7.7-.42-15.46,1.49-23-.5.55-.15,1.59-.17,2.5-.5-.07.75,1.14.49,2.5.5,6.11.05,5.7-1.95,7.5-7.5,3.28.29,6.7-.21,10,0Z"/>
        <path class="cls-50" d="m355.27,250.17c.32-.04.68-.03,1,0,0,.36-1.07,1.21-.25,2.5,1.07.07,2.18-.09,3.25,0-1.8,5.55-1.39,7.55-7.5,7.5,2.88-2.08,4.68-4.92,0-2.5-.12-1.2,1.46-2.84,1.5-3-.83,3.28,4.52-1.84,0-2.5.13-1.07.47-1.17.5-1.5.62-.37.79-.42,1.5-.5Z"/>
        <path class="cls-34" d="m351.77,260.17c-1.36-.01-2.57.25-2.5-.5,1.13-.4,2.36-1.93,2.5-2,4.68-2.42,2.88.42,0,2.5Z"/>
      </g>
      <path class="cls-52" d="m107.77,79.67c-.92-.12-1.62.32-2.5.5-24.36,4.99-48.42,11.4-72.75,16.5-.64.83-.68,1.85-.75,2-.95-1.48-1.83-.95-3.5-1-.09-.65.06-1.34,0-2,26.39-5.72,53.57-12.39,79.25-18,.41.34.28,1.43.25,2Z"/>
      <path class="cls-74" d="m31.77,98.67c-.05.12-.42,2.02-.5,2.5-1.04-.81-2.33-.1-3-1.25-.15-.26.11-1.43,0-2.25,1.67.05,2.55-.48,3.5,1Z"/>
      <path class="cls-44" d="m20.27,275.17c-1.64-.07-3.36-.07-5,0,1.65-1.99,5.02,3.39,2-8.5,1.11.08,5.58-.29,6,.25-3.44,2.68-1.65,6.51-2,7-.52.74-3.21-.41-1,1.25Z"/>
      <path class="cls-57" d="m238.77,233.17c-.19,3.83.09,7.67,0,11.5-.03,1.17.03,2.34,0,3.5-.11,3.79-.94,7.66-.5,11.5-1.82.03-3.68-.11-5.5,0,1.76-5.34,4.6-15.65-.5-19,0-.17,0-.33,0-.5,0-.38,1.34-.22,1.5-7,1.53-1.38,4.75,0,5,0Z"/>
      <path class="cls-72" d="m233.77,233.17c-.16,6.78-1.5,6.62-1.5,7h-.5c-.97-2.63-3.86-4.11-6-5.5-3.17-2.07-4.17-.55,2.5-2,1.81.02,3.9-.35,5.5.5Z"/>
      <path class="cls-43" d="m140.27,187.17l16,12c-.5.04-1-.04-1.5,0-1.5.12-2.97.38-4.5.5-1.82.15-3.67.35-5.5.5-3.17.27-6.32.73-9.5,1-.97-1.24-5.4.1-6-.75-.5-.71-.28-15.96,1.75-16.75,5.04-.36,11.97.92,11.75-1,.26.02,1.83.86,5.25.5v1c-2.48.71-16.76-.1-17.25,1.25-.85,2.36,6.78,1.78,9.5,1.75Z"/>
      <g>
        <path class="cls-35" d="m216.27,231.67c3.95.08,7.93.95,12,1-6.67,1.45-5.67-.07-2.5,2-5.32-.32-9.43.21-13,4.5-1.23,1.48-2.48,4.14-3,6-.7,2.49-1,4.4-1,7h-22.25c.2-3.15-1.02-17.61-.75-18.5.26-.86,1.7-1.83,2.5-2,1.47-.31,23.29-.1,28,0Z"/>
        <path class="cls-29" d="m213.27,235.67c-8.24,7.31-3.61,16.17-11.25,11.5-1.22-.75-7.51-8.54-8.5-8l.75,9.75c-.41,1.48-4.62,1.08-6,1.25-.23-.83.49-1.01.5-1.5,5.39-3.99,2.77-8.82,3.75-10,8.21-.73,10.19-2.9,10.75-3,1.92-.35,8.76-1.17,10,0Z"/>
        <path class="cls-57" d="m188.27,250.17c1.38-.17,5.59.23,6-1.25l-.75-9.75c.99-.54,7.28,7.25,8.5,8,7.64,4.67,3.01-4.19,11.25-11.5,1.15,2.04-1.93,2.4-4,7.25-1,2.34-1,7.17-1.75,7.75l-19.5.5.25-1Z"/>
        <path class="cls-59" d="m203.27,235.67c-.56.1-2.54,2.27-10.75,3-.98,1.18,1.64,6.01-3.75,10,.06-2.14-.59-13.14.75-14,5.46,1.32,13.33-1.47,13.75,1Z"/>
      </g>
      <path class="cls-1" d="m131.27,71.17c.14.82-2.19,2.21-4,3.5-2.64,1.88-6.21,2.64-4,7-.49.14-1.04.77-2.75.5l-.75,1.25c-.57,13.59-1.36,27.17-2,40.75-.71,15.08-1.48,30.41-1.5,45.5,0,3.75,0,7.5,0,11.25,4.22-.23,8.26.89,12,1.25,2.02,4.42-4.36,4.03-12.5,3-2.61-4.82.92-12.83-2.5-13.25-.75-31.17-1.2-58.3,2-89.5.27-2.66,1.02-8.57,2-9.75.27-.07,3.72-2.05,5-2.5,1.06,1.4,6.73,1.22,9,1Z"/>
      <g>
        <path class="cls-62" d="m324.77,258.67c-.05,0,.17.95-.25,1h-39c-1.26-.56-.73-9.23-.75-11,4.32-1.34,8.68.01,9.25,0,.16,0,2.84-1,3-1,3.45-.02,25.46,1.81,26.75.25.18-.22-.58-3.66-.75-3.75-1.55-.81-30.6,1.14-35-.5l-3.25,2c0-.58-.02-1.46,0-2,.15-3.68.87-7.27.25-11h39l.75,26Z"/>
        <path class="cls-62" d="m284.77,248.67c0-1,0-2,0-3l3.25-2c4.4,1.64,33.45-.31,35,.5.17.09.93,3.53.75,3.75-1.29,1.56-23.3-.27-26.75-.25-.16,0-2.84,1-3,1-.57.01-4.93-1.34-9.25,0Z"/>
      </g>
      <g>
        <path class="cls-3" d="m232.27,240.17c0,.17,0,.33,0,.5,3.8,5.11,1.64,16.13-4,19-.34.18-.63.39-1,.5-3.38,1.02-9.32.81-12.5-.5-2.38-.98-4.18-3.39-5.5-5.5-.03-.35-.5-.45-.5-2,0-2.6.3-4.51,1-7,6.49-2.18,18.49,13.88,22,5,.02-.06.87.19,1-.25.27-3.6.12-6.36-1-9.75h.5Z"/>
        <path class="cls-47" d="m214.77,259.67c-1.1,1.37-3.8,0-4,0-2.22-2.07-1.35-3.93-1.5-5.5,1.32,2.11,3.12,4.52,5.5,5.5Z"/>
        <path class="cls-41" d="m225.77,234.67c2.14,1.39,5.03,2.87,6,5.5,1.12,3.39,1.27,6.15,1,9.75-.13.44-.98.19-1,.25,2.06-4.46-11.73-2.21-19-11,3.57-4.29,7.68-4.82,13-4.5Z"/>
        <path class="cls-43" d="m231.77,250.17c-3.51,8.88-15.51-7.18-22-5,.52-1.86,1.77-4.52,3-6,7.27,8.79,21.06,6.54,19,11Z"/>
        <path class="cls-72" d="m232.77,259.67c-1.17.07-3.37,1.32-4.5,0,5.64-2.87,7.8-13.89,4-19,5.1,3.35,2.26,13.66.5,19Z"/>
      </g>
      <g>
        <path class="cls-25" d="m141.77,231.17c3.65,2.14,3.46,3.35,3.75,7.5,10.53-.65,9.56,11.02,13.25,7.5,1.16,6.44,3.5,21.18,5,26-3.34,5.44-2.54-4.47-4-10.75-8.58-36.94-28.85-20.06-33.5,15.75-1.16-.36-4.77-1.03-6-1,.67-14.94,4.81-40.18,21.5-45Z"/>
        <path class="cls-26" d="m161.27,234.17c.45.33,1.07.65,1.5,1-.35,2.46,4.4,3,5,5.25.1,27.57,4.1,18.54,5.5,20.5.4.56.16,9.43,2,13.5-.59,2.5-9.35-.13-11.25-.25-.55-.49-.08-1.45-.25-2-1.5-4.82-3.84-19.56-5-26-.93-5.18-1.63-10.41-3-15.5,2.9,1.29,3.15,1.79,5.5,3.5Z"/>
        <path class="cls-38" d="m153.27,229.17c2.04.13,2.37,1.44,2.5,1.5,1.37,5.09,2.07,10.32,3,15.5-3.69,3.52-2.72-8.15-13.25-7.5-.29-4.15-.1-5.36-3.75-7.5,4.08-1.18,7.49-1.01,11.5-2Z"/>
      </g>
      <path class="cls-81" d="m159.27,213.17c.36,6.65,4.22,16.71,2,21-2.35-1.71-2.6-2.21-5.5-3.5-.13-.06-.46-1.37-2.5-1.5.52-6.12-1.35-14.02,1.5-15.5,1.47-.14,3-.35,4.5-.5Z"/>
      <g>
        <path class="cls-65" d="m180.77,69.17c-6.85,1.1-8.87,7.67-10.5,14-3.14-.66-6.3-.6-9.5-1-.81-.1-1.68.07-2.5,0,.65-3.77,1.08-4.07,2-7,.24-.77.3-1.68,1-2.25-10.69,3.07-21.91,5.91-33,8.25l-1-6.5c1.81-1.29,4.14-2.68,4-3.5,5.27-.51,11.83-1.74,17-2,10.79-.54,21.71-1.01,32.5,0Z"/>
        <path class="cls-81" d="m127.27,74.67l1,6.5c-1.28.27-3.6.09-5,.5-2.21-4.36,1.36-5.12,4-7Z"/>
      </g>
      <g>
        <path class="cls-57" d="m103.77,69.67c-.02.1,1.23,1.11.25,2-.94.86-5.48.67-6.75,2-8.22,1.46-59.78,14.44-67.25,17-.74.25-1.16,1.79-1.75,2-.82.3-.32.81-.75,1l-12.75,2.5c-.31-.74-.44-1.69-.5-2.5,8.32-3.39,17.39-3.1,25.25-7.5,7.78-.2,15.18-4.05,23-5,1.08-1.69.95-3.87,1.25-5,.04-.16-.04-.34,0-.5l40-6Z"/>
        <g>
          <path class="cls-71" d="m66.77,67.17c-2.99.37-1.94,5.18-2,5.5-.03.16-.74,1.88-1,3-.04.16.04.34,0,.5-6.52,3.61-45.87,10.74-48,12-3.34-9.02,38.61-19.14,47.25-21l.5-1c.61.03,3.08,1.03,3.25,1Z"/>
          <path class="cls-26" d="m14.27,93.67c-.19-2.41-.52-4.31,1.5-5.5,2.13-1.26,41.48-8.39,48-12-.3,1.13-.17,3.31-1.25,5-7.82.95-15.22,4.8-23,5-7.86,4.4-16.93,4.11-25.25,7.5Z"/>
          <path class="cls-9" d="m28.27,95.67c.06.66-.09,1.35,0,2,.11.82-.15,1.99,0,2.25.67,1.15,1.96.44,3,1.25,0,.02.1-.14,0,.5-.66-.04-1.34.06-2,0-3.8-.32-13.04-1.97-14.5-5.5l12.75-2.5c.43-.19-.07-.7.75-1v3Z"/>
        </g>
        <path class="cls-26" d="m103.77,69.67l-40,6c.26-1.12.97-2.84,1-3,12.95-2.66,27.19-2.67,39.5-7.5-.04,1.69-.23,2.86-.5,4.5Z"/>
        <path class="cls-9" d="m123.77,49.67c2.49-.32,16.52-.7,17.5,1.5-14.74,1.4-20.66-8.04-19,15.5v3.5c-1.28.45-4.73,2.43-5,2.5-1.43.36-3.1.31-4,.5-5.18-2.16-10.59-.46-16,.5,1.27-1.33,5.81-1.14,6.75-2,.98-.89-.27-1.9-.25-2,.27-1.64.46-2.81.5-4.5.08-3.28-.43-5.11-.5-7,0-.07.98-.54,0-1.5,5.99-1.99,13.92-6.22,20-7Z"/>
        <g>
          <path class="cls-54" d="m103.77,58.17c.07,1.89.58,3.72.5,7-12.31,4.83-26.55,4.84-39.5,7.5.06-.32-.99-5.13,2-5.5,4.51-.83,9.02-2.49,13.5-3.5.32-.05.67.02,1,0l22.5-5.5Z"/>
          <path class="cls-16" d="m103.77,56.67c.98.96,0,1.43,0,1.5l-22.5,5.5c7.35-2.76,15.06-4.53,22.5-7Z"/>
          <path class="cls-71" d="m84.52,65.17c5.84-.74.7,1.54-7.75,2.25-.12-.5,7.16-2.18,7.75-2.25Z"/>
        </g>
        <g>
          <path class="cls-26" d="m167.77,49.67c6.65.2,13.35,1.3,20,0,2.68.59,4,.26,6,.5,3.64.44,6.9.31,10.5.5,4.84.25,9.28-.1,14,0,27.26.6,72.54-.71,92.5.5-.69,15.5-4.48,21.26,14,19,.15,1.58.87,2.65.25,3-.63.35-3.41-.61-3.75.5-3.32-.05-6.71-.93-10,0-.03-.08-.45.23-.75-1.5-2.52.07-5.25.18-7.75,0-.23-.02-1.45-.85-4.5-.5-4.28-.94-29.65-1.22-37.5-1.5-4.82-.17-9.68.13-14.5,0-12.52-.33-56.94-2.37-65.5-1-10.79-1.01-21.71-.54-32.5,0-3.12-2.47-5.45-2.07-9.25-2,.99-1.37,3.77.73,3.25-2,4.78-.45,10.65,1.83,7.5-7.75-1.21-3.68-5.17-3.04-.75-6.25,1.27-.92,3.24.29,2.75-2,5.35.2,10.65.34,16,.5Z"/>
          <path class="cls-57" d="m313.27,51.67c-.45,2.91.96,2.42,1,3,.06.78-1.7,6.68.5,10.25,1.58,2.55,5.65,3.31,7.5.75.05-.06.73.19.5-1.5.09.33,1.38-.75,2,6-18.48,2.26-14.69-3.5-14-19,1.34.08,2.54-.31,2.5.5Z"/>
          <path class="cls-71" d="m149.77,49.17c.66.04,1.34-.02,2,0,.49,2.29-1.48,1.08-2.75,2-4.42,3.21-.46,2.57.75,6.25,3.15,9.58-2.72,7.3-7.5,7.75-1.68.16-4.66.47-6,0v-10.5c2.66-.37,6.73.3,8.5-1.5,1.09-2.09,2.59-3.62,5-4Z"/>
          <path class="cls-5" d="m142.27,65.17c.52,2.73-2.26.63-3.25,2,3.8-.07,6.13-.47,9.25,2-5.17.26-11.73,1.49-17,2-2.27.22-7.94.4-9-1v-3.5c4.08,1.02,3.57-.53,4-.5.05,0-.16.98.25,1,4.26.2,10.67.18,9.75-2,1.34.47,4.32.16,6,0Z"/>
          <g>
            <path class="cls-55" d="m321.27,73.67c.34-1.11,3.12-.15,3.75-.5.62-.35-.1-1.42-.25-3-.62-6.75-1.91-5.67-2-6-.83-2.93-2.27-13.56-7.5-10-.27.18-.67.42-1,.5-.04-.58-1.45-.09-1-3,12.94-1.12,11.13,12.31,13.5,21.75-.21.99-4.54.26-5.5.25Z"/>
            <path class="cls-71" d="m322.27,65.67c-1.85,2.56-5.92,1.8-7.5-.75-2.2-3.57-.44-9.47-.5-10.25.33-.08.73-.32,1-.5,1.14,3.98,4.48,10.06,6.25,8,1.8,1.44-.17,3.48.75,3.5Z"/>
            <path class="cls-28" d="m322.77,64.17c.23,1.69-.45,1.44-.5,1.5-.92-.02,1.05-2.06-.75-3.5-1.77,2.06-5.11-4.02-6.25-8,5.23-3.56,6.67,7.07,7.5,10Z"/>
          </g>
          <path class="cls-18" d="m141.27,51.17c.33-.03.69.06,1,0l2.5,2c-1.77,1.8-5.84,1.13-8.5,1.5-2.6.37-5.61.19-8,1-.52.17-1.74-.3-2,.25v10.25c-.43-.03.08,1.52-4,.5-1.66-23.54,4.26-14.1,19-15.5Z"/>
          <path class="cls-64" d="m149.77,49.17c-2.41.38-3.91,1.91-5,4l-2.5-2c.96-.18,3.8-2.11,4.75-3,1.92-.31,2.6.99,2.75,1Z"/>
          <path class="cls-57" d="m128.27,55.67c-5.58,5.72,4.53,2.17,8,3.5v6c.92,2.18-5.49,2.2-9.75,2-.41-.02-.2-1-.25-1v-10.25c.26-.55,1.48-.08,2-.25Z"/>
          <path class="cls-58" d="m136.27,54.67v4.5c-3.47-1.33-13.58,2.22-8-3.5,2.39-.81,5.4-.63,8-1Z"/>
        </g>
      </g>
      <path class="cls-43" d="m117.27,251.17c-.07-3.55,3.45-3.73-7.5-3.5,0-.17,0-.33,0-.5.4-8.07.2-21.07,0-29.5,1.17.12,3.48-.18,3.75,0,1.71,1.18,1.91,25.93,4.75,29.25-.14,2.53.58,4.64-1,4.25Z"/>
      <g>
        <path class="cls-43" d="m126.27,277.17c.23.07,2.17,1.39,3.5,1.5-.4,5.92,1.65,17.78-.5,20.5-3.67.05-7.34-.06-11,0l-3-21.5c1.6-.23.82-.95,1.25-1,.78-.09,1.5.59,3.5.5.41-.02.2-1,.25-1,1.23-.03,4.84.64,6,1Z"/>
        <g>
          <path class="cls-81" d="m115.27,277.67l3,21.5c-3.16.05-6.34-.07-9.5,0v-1c8.31,2.35,3.95-8.64,4-20.5.78-.13,1.71.12,2.5,0Z"/>
          <path class="cls-42" d="m112.77,277.67c-.05,11.86,4.31,22.85-4,20.5v-20.25c.4-.57,3.15-.11,4-.25Z"/>
        </g>
      </g>
      <path class="cls-1" d="m107.27,274.17c.02.16,1.19-.81,1.25,2.5-6.67-.72-29.43.83-31,.5-4.41-.93-3.09-2.79,1.25-3h28.5Z"/>
      <path class="cls-81" d="m109.77,217.17c0,.17,0,.33,0,.5.2,8.43.4,21.43,0,29.5-.82.07-1.69-.11-2.5,0l-.5-30c1.37-.02,2.57.25,2.5-.5,0,.04.48-.16.5.5Z"/>
      <g>
        <path class="cls-43" d="m153.77,213.67c.33-.03.67.03,1,0-2.85,1.48-.98,9.38-1.5,15.5-4.01.99-7.42.82-11.5,2-16.69,4.82-20.83,30.06-21.5,45-.05,0,.16.98-.25,1-2,.09-2.72-.59-3.5-.5-.43.05.35.77-1.25,1-.79.12-1.72-.13-2.5,0-.85.14-3.6-.32-4,.25v21.25c-.17,0-.33,0-.5,0-7.33.16-25.25,1.41-31,0-.56-.14-1.64.28-2-.25.63-6.54-.38-18.21-1.5-24.75h5c-4.34.21-5.66,2.07-1.25,3,1.57.33,24.33-1.22,31-.5-.06-3.31-1.23-2.34-1.25-2.5-.33-3.07.73-8.34-.75-9-3.53-.64-28.4.94-29.25-.25-.11-.16-.31-3.28.75-3.75,1.32-.58,23.61.13,28.75,0,.67-.02,1.34.03,2,0,1.34-.05,7.5.29,8-.25.52-3.25.57-6.47.5-9.75,1.58.39.86-1.72,1-4.25-2.84-3.32-3.04-28.07-4.75-29.25-.27-.18-2.58.12-3.75,0,0-.17,0-.33,0-.5,8.63-1.03,17.36-1.07,26-2,2.72-.29,6.5-.49,9-1,1.87.41,3.72-.34,5.5-.5,1.15-.1,2.35.11,3.5,0Z"/>
        <path class="cls-26" d="m109.02,265.17c.32-.22,7.52-.07,7.75.25.47.66,1.77,13.5-8,8.5.22-1.36-.4-8.29.25-8.75Z"/>
      </g>
      <g>
        <path class="cls-12" d="m155.77,275.17c2.37,6.91,3.4,18.07,4.25,18.5.8-.38,5.63-3.91,5.75-4.25.24-.66-1.89-4.34.5-13.75.6.17,1.42.48,1.5.5-.33,2.05-1.9,5.86-2,7.25-.5,7.03,4.08,13.84,8,12.25v.5c-.2.04-2.31.67-2,1.25,5.93,4.66,19.17,3.71,20,7.25-.28.28-1.76,3.47-5.5,5.75.17,6.23-1.69,12.04-4,17.75-.03.06-.8-.2-1,.25-.24.54-.23,4.27-2.5,7.25-6.69,8.79-24.43,6.58-33.25,2.5-12.76-5.91,12.31-.71,14.75-30.25.54-6.5.74-13.81-3-11.75.38-14.02-2.33-18.19-2.5-19.75-.1-.92-.12-1.42,1-1.25Z"/>
        <path class="cls-62" d="m166.27,275.67c-2.39,9.41-.26,13.09-.5,13.75-.12.34-4.95,3.87-5.75,4.25-.85-.43-1.88-11.59-4.25-18.5-1.84-5.38-5.63-14.72-13-12.5-10.85,3.27-9.73,28.02-9,36.5.71,8.27,1.49,17.32,9,22.5-9.94-1.96-9.99-24.3-11-31.75h-1v9l-1.5.25c2.15-2.72.1-14.58.5-20.5.47-6.94,4.21-31.71,12.25-33.5,13.9-3.09,13.97,19.65,16.75,28.25.31.41,6.28,1.89,7.5,2.25Z"/>
        <g>
          <path class="cls-28" d="m155.77,275.17c-1.12-.17-1.1.33-1,1.25.17,1.56,2.88,5.73,2.5,19.75-.22,8.19-2.65,27.83-14.5,25.5-7.51-5.18-8.29-14.23-9-22.5,3.59-1.49,1.86.88,4.5,3.5.07.07.92.42,1,.5,9.37,8.9,10.79-6.08,6-12-5.51-6.8-7.41,3.4-9-2.25-.16-.56.76-10.29,1-11.5.82-4.11,2.63-6.06,3-7,.22-.57-.52-.95-.5-1,.15-.36,2.93-1.31,3-6.75,7.37-2.22,11.16,7.12,13,12.5Z"/>
          <path class="cls-28" d="m145.27,291.17c-1.33-1-2.72-1.91-4.5-1.5-3.87.9-4.06,9.9-2.5,13-2.64-2.62-.91-4.99-4.5-3.5-.73-8.48-1.85-33.23,9-36.5-.07,5.44-2.85,6.39-3,6.75-.02.05.72.43.5,1-.37.94-2.18,2.89-3,7-.24,1.21-1.16,10.94-1,11.5,1.59,5.65,3.49-4.55,9,2.25Z"/>
          <path class="cls-18" d="m139.27,303.17c-.08-.08-.93-.43-1-.5-1.56-3.1-1.37-12.1,2.5-13,4.49,4.31,7.21,13.21-1.5,13.5Z"/>
          <path class="cls-73" d="m145.27,291.17c4.79,5.92,3.37,20.9-6,12,8.71-.29,5.99-9.19,1.5-13.5,1.78-.41,3.17.5,4.5,1.5Z"/>
        </g>
      </g>
      <g>
        <path class="cls-12" d="m108.27,299.17c.65,3.15-1.34,4.79-3,7-1.43-4.36-8.12-1.82-1,.5-.1.14-1.58,3.44-.5,3.5-1.26,4.93-2.66,14.84-4.5,19-.92,2.07-6.78,9.56-9,11.75.23,1.62,12.82-.91,15,1.75-18-.51-36.02-.85-54-2l7.75-1c-7.36-8.79,2.4-4.92,9.75-15.25,6.02-8.47,6.37-22.29,7-24,.2-.53,1.83.28,1.5-1.25,5.75,1.41,23.67.16,31,0Z"/>
        <path class="cls-60" d="m105.27,306.17s-.97.46-1,.5c-7.12-2.32-.43-4.86,1-.5Z"/>
        <g>
          <path class="cls-22" d="m70.77,261.67c1.4,3.88,2.3,8.43,3,12.5,1.12,6.54,2.13,18.21,1.5,24.75.36.53,1.44.11,2,.25.33,1.53-1.3.72-1.5,1.25-.63,1.71-.98,15.53-7,24-7.35,10.33-17.11,6.46-9.75,15.25l-7.75,1c-8.6-.55-20.06-.94-28.25-2-5.48-.71-18.66-2.57-5-5,8.32-1.48,33.51-2.07,33.75-3.75-5.86-6.67-7.39-16.33-7.5-25-.41-.8-9.85-1.39-13.5-11l-1.5-.25v-17.75c-.76-.66-1.62-.58-2.5-.75-.16-.03-.34.02-.5,0v-.5c1.76.3,4.43.3,6,.5,1.41.18,2.5.47,4,.5.87.02,2.78,1.11,5,.25-.11-7.17-.43-18.47,3.5-24.75,5.33-8.52,18.77-9.56,26,10.5Z"/>
          <g>
            <path class="cls-28" d="m57.52,262.17c16.84-3.5,18.65,44.87,7.75,56.25-19.17,20.02-25.3-52.61-7.75-56.25Z"/>
            <path class="cls-68" d="m53.27,303.67c6.46-5.13,4.86-7.16,2-14,9.9-1.34,7.98,22.85-2,14Z"/>
            <path class="cls-83" d="m55.27,289.67c2.86,6.84,4.46,8.87-2,14-5.36-4.75-2.03-13.46,2-14Z"/>
          </g>
        </g>
      </g>
      <path class="cls-43" d="m102.27,232.67c-.73,4.51-.73,9.11-2.25,13.5-2.47-.29-7.6.4-9,0-.65-.19-9.62-8.22-11-8-1.68.27.27,2.62-1.75,2.5-.19-1.7.67-2.19-.25-3.5-.47-.66-12.6-8.2-13.75-8.5-3.67-.95-7.3-.34-11-.5.05-.02-.18-.9.25-1,16.29.31,32.36,4.36,48.75,5.5Z"/>
      <path class="cls-83" d="m106.27,217.17c.16-.01.33,0,.5,0l.5,30c-1.39.18-.94.5-1,.5-6.26.41-21.93-1.84-27-.5-1.88.43-.61-3.04-1-6.5,2.02.12.07-2.23,1.75-2.5,1.38-.22,10.35,7.81,11,8,1.4.4,6.53-.29,9,0,1.52-4.39,1.52-8.99,2.25-13.5.83-5.16,1.05-10.44,2.5-15.5.5-.04,1,.04,1.5,0Z"/>
      <g>
        <path class="cls-44" d="m107.27,247.17c.81-.11,1.68.07,2.5,0,0,.17,0,.33,0,.5,0,.05-.98-.16-1,.25-.27,4.39.2,8.86,0,13.25-.66.03-1.33-.02-2,0,.36-2-4.08-.37-8-1.25v-11.75c1.05-.06,6.93-.17,7.25,0,.24.12,1.22,4.33.25-.5.06,0-.39-.32,1-.5Z"/>
        <path class="cls-44" d="m109.77,247.67c10.95-.23,7.43-.05,7.5,3.5.07,3.28.02,6.5-.5,9.75-.5.54-6.66.2-8,.25.2-4.39-.27-8.86,0-13.25.02-.41,1-.2,1-.25Z"/>
        <path class="cls-26" d="m106.27,247.67c.97,4.83-.01.62-.25.5-.32-.17-6.2-.06-7.25,0-.92.05-4.64-.26-5,.25l-.75,11.75h-15l-.75-12.25c2.01-.2,1.9-.72,2-.75,5.07-1.34,20.74.91,27,.5Z"/>
      </g>
      <path class="cls-43" d="m104.77,217.17c-1.45,5.06-1.67,10.34-2.5,15.5-16.39-1.14-32.46-5.19-48.75-5.5-.43.1-.2.98-.25,1-1.18.38-2.43.91-3.5,1.5-1.73-2.38,1.14-5.39-1-6.5,3.04-.32,2.37-.49,2.5-.5,4.99-.53,10.01-.98,15-1.5,4-.41,8-1.09,12-1.5,1.5-.15,3.01-.35,4.5-.5,7.28-.72,14.71-1.44,22-2Z"/>
      <path class="cls-50" d="m38.77,224.17c7.8-.11,1.58,6.85,5,10.5-3.65,3.97-6.51,9.36-8,14.5h-4.5l2-24c1.46-.13,3.41-.8,5.5-1Z"/>
      <path class="cls-83" d="m48.77,223.17c2.14,1.11-.73,4.12,1,6.5-2.94,1.64-3.85,2.67-6,5-3.42-3.65,2.8-10.61-5-10.5,1.02-.1,2.1-.41,3-.5,2.3-.24,4.71-.26,7-.5Z"/>
      <g>
        <path class="cls-26" d="m78.27,240.67c.39,3.46-.88,6.93,1,6.5-.1.03.01.55-2,.75l.75,12.25h15l.75-11.75c.36-.51,4.08-.2,5-.25v11.75c3.92.88,8.36-.75,8,1.25-5.14.13-27.43-.58-28.75,0-1.06.47-.86,3.59-.75,3.75.85,1.19,25.72-.39,29.25.25,1.48.66.42,5.93.75,9h-33.5c-.7-4.07-1.6-8.62-3-12.5,4.17,1.83,1.59-.63.5-7-.05-.31,1.03.03-.5-6.25-1.62-6.67-4.64-13.14-6.5-19.75,1.15.3,13.28,7.84,13.75,8.5.92,1.31.06,1.8.25,3.5Z"/>
        <path class="cls-38" d="m53.27,228.17c3.7.16,7.33-.45,11,.5,1.86,6.61,4.88,13.08,6.5,19.75,1.53,6.28.45,5.94.5,6.25-1.4-2.28-2.87-4.57-4-7-.27-.58-.46-7.71-7.75-9-4.11-.73-10.71,1.12-11.75,5-2.36,1.34-3.63,3.81-5,6-4.96,7.94-6.06,16.82-6.5,26-1.5-.03-2.59-.32-4-.5.5-2.84.2-7.04.5-9.5.14-1.11.33-2.38.5-3.5.21-1.44,2.32-12.36,2.5-13,1.49-5.14,4.35-10.53,8-14.5,2.15-2.33,3.06-3.36,6-5,1.07-.59,2.32-1.12,3.5-1.5Z"/>
        <path class="cls-26" d="m67.27,247.67c1.13,2.43,2.6,4.72,4,7,1.09,6.37,3.67,8.83-.5,7-7.23-20.06-20.67-19.02-26-10.5l-2-1.5c1.37-2.19,2.64-4.66,5-6,6.95-3.94,14.51-1.93,19.5,4Z"/>
        <path class="cls-29" d="m44.77,251.17c-3.93,6.28-3.61,17.58-3.5,24.75-2.22.86-4.13-.23-5-.25.44-9.18,1.54-18.06,6.5-26l2,1.5Z"/>
        <path class="cls-54" d="m67.27,247.67c-4.99-5.93-12.55-7.94-19.5-4,1.04-3.88,7.64-5.73,11.75-5,7.29,1.29,7.48,8.42,7.75,9Z"/>
      </g>
      <path class="cls-43" d="m117.27,72.67c-.98,1.18-1.73,7.09-2,9.75-3.2,31.2-2.75,58.33-2,89.5,3.42.42-.11,8.43,2.5,13.25-2.11-.27-6.16-1.13-8-2-.62-.29-1.5-.63-2-1-5.94-4.37.72-14.83-4.5-15,.12-8.5-.11-17,0-25.5,8.7-.68,2.6-3.83,6.5-5.25-2.61-2.13.4-3.11.5-4,.41-3.62-.34-22.64,0-31,.38-9.32,2.03-18.62,1.5-28,1.45.26,2.09.04,3.5-.25.9-.19,2.57-.14,4-.5Z"/>
      <g>
        <path class="cls-43" d="m233.27,19.67c-2.37-.25-.36,12.01-1,18.5-2.12,2.27-2.27,1.34-2.5,1.5-3.33-.05-6.67.07-10,0,2.68-3.02,10.16,2.5,6.75-6.5h-14.25c-.09-3.09-.2-7.6-1-10.5-.07-.26.04-.68,0-1l.75,1c28.87,1.24,25.05-4.47-1.25-2-.48-1.1-.3-1.28-.5-2-1.52-5.62-1.82-12.24-3-18l26.25-.5c.22,6.5-.19,13-.25,19.5Z"/>
        <path class="cls-24" d="m150.77,34.17c.06.27,2.98,2.9,2.5,4.5-2.16,2.99-24.61,9.74-29.5,11-6.08.78-14.01,5.01-20,7-7.44,2.47-15.15,4.24-22.5,7-.33.02-.68-.05-1,0-.45.06-3.8-.52-4-.5-.32-2.99.44-11.26,0-12.5l5-2c-.05,11.51-2.79,12.61,4,10,.36-.14,2.3-.15,4-1.25v-11.25c1.58-.79,1.42-.96,1.5-1,2.53-.18,1.13,3.73,1.5,7.5.09.9-.06,1.84,0,2.75.63,1.36,12.24-3.01,14.5-3.75,1.53-.5,1.41-.97,1.5-1,.51-.16,1.01-.34,1.5-.5,4.81-1.57,36.25-11.19,37.75-12.5,1.58-1.38-.36-4.08,3.25-3.5Z"/>
        <path class="cls-24" d="m159.27,10.67c-.58.51-1.32,1.38-2,2-.2.18-.33.34-.5.5-1.32,1.28-1.4.58-3,3-.41.62-2.45,3.77-2.5,4-1.52-.2-3.36-2.42-5-2-1.29.33-.96,2.2-2.5,3-1.84.96-11.27,4.13-15,5.5-1.04.38-2.66-1.39-3.5,0-4.91,2.39-14.21,7.28-18.75,6.5-3.13,1.7-2.57,2.91-2.75,3-5.67,2.85-15.41,5.6-22,8l6.75-4.5,9-2.5-1.25-3c.97-.24,14.19-6.47,18.25-8,10.45-3.94,36.48-11.76,43.75-16.5l1,1Z"/>
        <path class="cls-57" d="m92.27,52.67c-.37-3.77,1.03-7.68-1.5-7.5,11.15-5.97-2.65-2.79-9.5,3.5l-5,2c-.04-.11-.62.44-1.75-1.5-.99.31-1.64,1.47-1.75,1.5-.26.07-.93-1.23-3,.25.74,2.63,2.53,15.54-1.5,13.25-.48-1.37.35-11.34,0-14.75.57-1.69,11.22-4.42,13.5-5.25,6.59-2.4,16.33-5.15,22-8,4.72-2.22-4.8,11.31-7,17.75-5.36,3.02-2.27-.93-4.5-1.25Z"/>
        <g>
          <path class="cls-57" d="m166.27,2.17c-.37,1.06-6.76,6.69-8,7.5-7.27,4.74-33.3,12.56-43.75,16.5-4.06,1.53-17.28,7.76-18.25,8-5.26,1.3-1.93-3.96-1.5-5.5,13.53-4.29,61.83-25.56,69.75-27,.68-.12,1.82-.15,1.75.5Z"/>
          <path class="cls-24" d="m166.27,2.17c.07-.65-1.07-.62-1.75-.5-7.92,1.44-56.22,22.71-69.75,27,.03-.11-.63-2.05-.5-2.25,15.45-6.23,49.88-21.05,63.75-24.25.41-.1.09-.91.5-1,.45-.09,10.69-.48,7.75,1Z"/>
        </g>
        <path class="cls-57" d="m207.27.67c1.18,5.76,1.48,12.38,3,18l-14.5-.5c-.01-2.41.41-4.67.5-7,2.89-1.85,7.12-7.56,9-9,.76-.58.72-1.71,2-1.5Z"/>
        <path class="cls-67" d="m219.77,39.67c3.33.07,6.67-.05,10,0-.11.07.48.9-1.75,2-2.24,1.1-7.1,2.27-9.75,3-7.84,2.16-11.91,1.77-12.5,2v-1c2.26-1.38,3.42-5.73,5.5-6.5.45.04.51-.49,1-.5.41-.01-2.64.8,7.5,1Z"/>
        <path class="cls-78" d="m218.27,44.67v6c-4.72-.1-9.16.25-14,0,.66-1.39.88-3.36,1-3.5.08-.09-.16-.24.5-.5.59-.23,4.66.16,12.5-2Z"/>
        <path class="cls-71" d="m205.27,2.17c-1.88,1.44-6.11,7.15-9,9,.14-3.65-.1-7.34,0-11,3.55.11,7.31-.64,9,2Z"/>
        <path class="cls-57" d="m76.27,50.67c.44,1.24-.32,9.51,0,12.5-.43.04-.36.67-2.5,1-2.79-2.94.64-9.71-1-13.5.11-.03.76-1.19,1.75-1.5,1.13,1.94,1.71,1.39,1.75,1.5Z"/>
        <path class="cls-57" d="m72.77,50.67c1.64,3.79-1.79,10.56,1,13.5-1.76.27-3.33,1.41-5.25,1-.45-.23-.15-.73-.25-1,4.03,2.29,2.24-10.62,1.5-13.25,2.07-1.48,2.74-.18,3-.25Z"/>
        <path class="cls-27" d="m233.27,19.67c-.06,6.25.04,12.5,0,18.75-.93.79-.96-.29-1-.25.64-6.49-1.37-18.75,1-18.5Z"/>
        <path class="cls-9" d="m205.77,45.67v1c-.66.26-.42.41-.5.5-7.9.5-12.77-1.81-11.5,3-2-.24-3.32.09-6-.5-6.2-1.37-8.27-5.18-21.5-3.5l13.75-4,6.25-4c.43,0,.51-.39,1-.5-.19,2.31,6.11-.17,7,1.75l.25,6.75,10,.5c.34-.47.77-.7,1.25-1Z"/>
        <path class="cls-78" d="m187.77,49.67c-6.65,1.3-13.35.2-20,0,.29-1.45-.51-1.81-1.5-2.5v-1c13.23-1.68,15.3,2.13,21.5,3.5Z"/>
        <path class="cls-63" d="m205.27,47.17c-.12.14-.34,2.11-1,3.5-3.6-.19-6.86-.06-10.5-.5-1.27-4.81,3.6-2.5,11.5-3Z"/>
        <path class="cls-9" d="m202.77,32.17c8.42.91,9.02-1.08,8.5,7-2.08.77-3.24,5.12-5.5,6.5-.48.3-.91.53-1.25,1l-10-.5-.25-6.75c-.89-1.92-7.19.56-7-1.75,1.51-.35,7.83.76,8.5-.75l.5-8.75c.2,1.05-.54,3.43.75,4,1.89.15,3.87-.2,5.75,0Z"/>
        <path class="cls-8" d="m180.27,38.17h6l-6.25,4-13.75,4v1c-.76-.54-2.09.3-2.5-1.75l8-7.75,8.5.5Z"/>
        <path class="cls-69" d="m210.27,18.67c.2.72.02.9.5,2,.12.28-.28,1.03.5,1,.04.32-.07.74,0,1h-.5c-.83,0-1.67,0-2.5,0-4.14-.04-8.31-.91-12.5-.5-.06-1.33,0-2.67,0-4l14.5.5Z"/>
        <path class="cls-25" d="m208.27,22.67c-.6,4.13-11.47,5.02-12,5.5-.47-2.44-.39-3.67-.5-6,4.19-.41,8.36.46,12.5.5Z"/>
        <g>
          <path class="cls-81" d="m172.77,32.67c4.99.15,10.02-.2,15,0,1.1.04,6-.18,6.25,0,.41.29.41,3.71,0,4-.63.45-13.49.18-15.5.5l1.75,1-8.5-.5v-5h1Z"/>
          <path class="cls-43" d="m187.77,32.67c-4.98-.2-10.01.15-15,0,.15-.66-1.1-2.03-.25-2.5,1.28-.71,35.62-.06,15.25,2.5Z"/>
          <g>
            <path class="cls-43" d="m196.27.17c-.1,3.66.14,7.35,0,11-.09,2.33-.51,4.59-.5,7,0,1.33-.06,2.67,0,4,.11,2.33.03,3.56.5,6l-.5,8.75c-.67,1.51-6.99.4-8.5.75-.49.11-.57.5-1,.5h-6l-1.75-1c2.01-.32,14.87-.05,15.5-.5.41-.29.41-3.71,0-4-.25-.18-5.15.04-6.25,0,20.37-2.56-13.97-3.21-15.25-2.5-.85.47.4,1.84.25,2.5h-1c.41-4.52-.37-9.02-.5-13.5-.18-6.05.43-13.04-1-18.5.79-1.04,23.2-.59,26-.5Z"/>
            <path class="cls-4" d="m181.02,25.17c5.3-2.02,5.42,3.43.5,2-1.42-.41-1.64-1.57-.5-2Z"/>
          </g>
        </g>
        <path class="cls-81" d="m219.77,39.67c-10.14-.2-7.09-1.01-7.5-1-.04-1.83.05-3.67,0-5.5h14.25c3.41,9-4.07,3.48-6.75,6.5Z"/>
        <path class="cls-57" d="m212.27,33.17c.05,1.83-.04,3.67,0,5.5-.49.01-.55.54-1,.5.52-8.08-.08-6.09-8.5-7,1.83-4.01,8.34-4.46,8-9.5h.5c.8,2.9.91,7.41,1,10.5Z"/>
        <path class="cls-43" d="m211.27,21.67c-.78.03-.38-.72-.5-1,26.3-2.47,30.12,3.24,1.25,2l-.75-1Z"/>
        <path class="cls-9" d="m151.27,29.67c.11,2.59-.64,3.84-.5,4.5-3.61-.58-1.67,2.12-3.25,3.5-1.5,1.31-32.94,10.93-37.75,12.5,1.75-1.54,1.33-5.47,1.5-8,2.23-.41,6.4-4.97,10.25-8,.56-.44,4.64-2.01,4.75-2.25.14-.3.73-6.81-1-5.25.84-1.39,2.46.38,3.5,0-5.67,6.62,14.69-2.14,15.25-3,.73-1.12-.35-1.5-.25-2.5,1.54-.8,1.21-2.67,2.5-3,.32,3.83-.6,14.3.5,16.75,1.27,2.83.88-.4,1-.5,1.21-1.01,2.04-.68,2.5-1.5.42-.76-.87-3.61,1-3.25Z"/>
        <path class="cls-57" d="m111.27,42.17c.11-1.59,1.04-6.19.5-7.25-.08-.16-3.11-.22-3.5.25-.99,1.19-1.5,13.75-1.5,16.5-2.26.74-13.87,5.11-14.5,3.75-.06-.91.09-1.85,0-2.75,2.23.32-.86,4.27,4.5,1.25,2.2-6.44,11.72-19.97,7-17.75.18-.09-.38-1.3,2.75-3,4.54.78,13.84-4.11,18.75-6.5,1.73-1.56,1.14,4.95,1,5.25-.11.24-4.19,1.81-4.75,2.25-3.85,3.03-8.02,7.59-10.25,8Z"/>
        <path class="cls-57" d="m90.77,45.17c-.08.04.08.21-1.5,1-.06.03.23-.72-1.25-.5l-1.75,1.25-1,11.75c-6.79,2.61-4.05,1.51-4-10,6.85-6.29,20.65-9.47,9.5-3.5Z"/>
        <path class="cls-57" d="m111.27,42.17c-.17,2.53.25,6.46-1.5,8-.49.16-.99.34-1.5.5v-15.5c.39-.47,3.42-.41,3.5-.25.54,1.06-.39,5.66-.5,7.25Z"/>
        <path class="cls-9" d="m89.27,46.17v11.25c-1.7,1.1-3.64,1.11-4,1.25l1-11.75,1.75-1.25c1.48-.22,1.19.53,1.25.5Z"/>
        <path class="cls-32" d="m108.27,50.67c-.09.03.03.5-1.5,1,0-2.75.51-15.31,1.5-16.5v15.5Z"/>
        <path class="cls-9" d="m151.27,20.17c-.23,1.18-.09,7.35,0,9.5-1.87-.36-.58,2.49-1,3.25-.46.82-1.29.49-2.5,1.5-.12.1.27,3.33-1,.5-1.1-2.45-.18-12.92-.5-16.75,1.64-.42,3.48,1.8,5,2Z"/>
        <path class="cls-57" d="m128.77,26.67c3.73-1.37,13.16-4.54,15-5.5-.1,1,.98,1.38.25,2.5-.56.86-20.92,9.62-15.25,3Z"/>
        <g>
          <path class="cls-54" d="m163.77,14.67c-2.22-1-3.93-2.48-6.5-2,.68-.62,1.42-1.49,2-2,1.23-1.08,6.68-3.62,11-8.5-.37,2.26.27,6.14,0,8.75-.88,1.24-14.44-1.67-6.5,3.75Z"/>
          <path class="cls-44" d="m171.27,19.17h-.5c-.28-1.53-4.62-3.42-7-4.5-7.94-5.42,5.62-2.51,6.5-3.75.27-2.61-.37-6.49,0-8.75.08-.48-.05-1.01,0-1.5,1.43,5.46.82,12.45,1,18.5Z"/>
          <path class="cls-9" d="m170.77,19.17h.5c.13,4.48.91,8.98.5,13.5v5l-8,7.75c.41,2.05,1.74,1.21,2.5,1.75.99.69,1.79,1.05,1.5,2.5-5.35-.16-10.65-.3-16-.5-.66-.02-1.34.04-2,0-.15,0-.83-1.31-2.75-1-.95.89-3.79,2.82-4.75,3-.31.06-.67-.03-1,0-.98-2.2-15.01-1.82-17.5-1.5,4.89-1.26,27.34-8.01,29.5-11,.04-.05.46-.01,1-.75-.69-3.08.88-20.02.5-21-.17-.43-1.06-.01-1-.75,1.6-2.42,1.68-1.72,3-3,3.35,4.11,9.54,4.42,13.75,7.5l.25-1.5Z"/>
          <path class="cls-29" d="m153.27,38.67c.48-1.6-2.44-4.23-2.5-4.5-.14-.66.61-1.91.5-4.5-.09-2.15-.23-8.32,0-9.5.05-.23,2.09-3.38,2.5-4-.06.74.83.32,1,.75.38.98-1.19,17.92-.5,21-.54.74-.96.7-1,.75Z"/>
          <path class="cls-57" d="m163.77,14.67c2.38,1.08,6.72,2.97,7,4.5l-.25,1.5c-4.21-3.08-10.4-3.39-13.75-7.5.17-.16.3-.32.5-.5,2.57-.48,4.28,1,6.5,2Z"/>
        </g>
        <path class="cls-58" d="m210.77,22.67c.34,5.04-6.17,5.49-8,9.5-1.88-.2-3.86.15-5.75,0-1.29-.57-.55-2.95-.75-4,.53-.48,11.4-1.37,12-5.5.83,0,1.67,0,2.5,0Z"/>
      </g>
      <g>
        <path class="cls-26" d="m362.27,243.17c.08,0-.51.36,1.5.5.75,1.8,4.43,4.04,6,3,.16,3.29-.51,3.8-.5,4-4.36-.14-8.63-.15-13-.5.03-1.96.36-4.74,0-6.5,1.86,1.24,3.99-.56,6-.5Z"/>
        <path class="cls-35" d="m352.27,231.67c.17,0,.33,0,.5,0,5.33-.13,10.67.09,16,0,.06.82-.08,1.68,0,2.5-.57.85-4.09.5-7,.5-2.98,0-6.03-.15-9,0,.52-2.82-3.66.24-1.5-3,.33,0,.67,0,1,0Z"/>
        <path class="cls-29" d="m364.27,238.17c1.44.57,3.11.72,4.5,1.5.11,1.28.41,2.63.5,4-1.38,1.33-4.14.09-5.5,0-2.01-.14-1.42-.5-1.5-.5-.93-4.73,4.97-.98-1.5-6.25.97-1.44,1.09.29,3.5,1.25Z"/>
        <path class="cls-9" d="m369.27,250.67c.02.74-.02,1.35,0,2-3.3-.21-6.72.29-10,0-1.07-.09-2.18.07-3.25,0-.82-1.29.24-2.14.25-2.5,4.37.35,8.64.36,13,.5Z"/>
        <path class="cls-71" d="m368.77,239.67c-1.39-.78-3.06-.93-4.5-1.5l-2.5-3.5c2.91,0,6.43.35,7-.5.3,2.91-.12,4.09,0,5.5Z"/>
        <path class="cls-33" d="m369.27,243.67c0,.15.32-.68.5,3-1.57,1.04-5.25-1.2-6-3,1.36.09,4.12,1.33,5.5,0Z"/>
        <path class="cls-29" d="m352.77,234.67c2.97-.15,6.02,0,9,0l2.5,3.5c-2.41-.96-2.53-2.69-3.5-1.25,6.47,5.27.57,1.52,1.5,6.25-2.01-.06-4.14,1.74-6,.5-.51-2.48-3.24-6.86-5.5-8-1.06-1.47.39-.92,2-1Z"/>
        <path class="cls-72" d="m352.77,234.67c-1.61.08-3.06-.47-2,1-1.99-1-7.18-1.39-9.5-1-.47-1.88-2.82,1.56-3.5-2.5,4.43-.21,9.07-.41,13.5-.5-2.16,3.24,2.02.18,1.5,3Z"/>
        <path class="cls-87" d="m337.77,232.17c.68,4.06,3.03.62,3.5,2.5-4.11.69-7.34,3.16-9,7-2.47,5.71-1.71,7.24.5,13-.59-.3-1.66-1.07-1.75-1-.71.55.34,2.81-.75,3-1.56-7.2.61-16.29,0-23.75,1-1.33,4.27-.6,7.5-.75Z"/>
        <path class="cls-62" d="m332.77,254.67c1.55.79,3.48,4.65,10.5,6-1.72.06-10.93-.35-11.5-.5-.47-1.03-1.27-2.44-1.5-3.5,1.09-.19.04-2.45.75-3,.09-.07,1.16.7,1.75,1Z"/>
        <g>
          <path class="cls-3" d="m353.27,252.17c-.11.86.15,1.94,0,2.5-.04.16-1.62,1.8-1.5,3-.14.07-1.37,1.6-2.5,2-.91.33-1.95.35-2.5.5-1.03.27-1.27.39-2.5.5-.33.03-.67-.01-1,0-7.02-1.35-8.95-5.21-10.5-6-2.21-5.76-2.97-7.29-.5-13,8-.94,9.59,6.02,14.75,9,4.71,2.73,5.7,1.42,6.25,1.5Z"/>
          <path class="cls-3" d="m350.77,235.67c2.26,1.14,4.99,5.52,5.5,8,.36,1.76.03,4.54,0,6.5-.32-.03-.68-.04-1,0,.18-3.02-1.37-5.67-2-1.5-1.76.6-3.67-2.68-6.25-4.5-3-2.11-6.52-3.54-9.75-5.25.32-3.03,4.63-1.74,4-4.25,2.32-.39,7.51,0,9.5,1Z"/>
          <path class="cls-1" d="m353.27,248.67c-.21,1.39.53,1.66.5,2-.03.33-.37.43-.5,1.5-.55-.08-1.54,1.23-6.25-1.5-5.16-2.98-6.75-9.94-14.75-9,1.66-3.84,4.89-6.31,9-7,.63,2.51-3.68,1.22-4,4.25,3.23,1.71,6.75,3.14,9.75,5.25,2.58,1.82,4.49,5.1,6.25,4.5Z"/>
          <path class="cls-48" d="m353.27,254.67c.15-.56-.11-1.64,0-2.5,4.52.66-.83,5.78,0,2.5Z"/>
          <path class="cls-86" d="m355.27,250.17c-.71.08-.88.13-1.5.5.03-.34-.71-.61-.5-2,.63-4.17,2.18-1.52,2,1.5Z"/>
        </g>
      </g>
      <g>
        <path class="cls-79" d="m219.77,198.17c-1.49,2.46,4.7,6.41,5,10-5.45-.3-11.05.01-16.5.25-.84,11.72,19.34,10.91,13.75,8.75-1.56-.6-10.59-1.51-7.25-4.5h22c19.67.39,39.33-.29,59-.5,7.5-.08,15,.09,22.5,0,9.17-.11,18.33-.31,27.5-.5,2.02,3.13,3.62,6.59,6,9.5.78,3.74,1.44,6.54,1,10.5-.17,0-.33,0-.5,0-2.48-.14-5.36-1.31-7.75-1.5-9.23-.72-44-.42-57.5-.5-23.58-.14-47.23-.47-70.75,1-2.01-3.48-18.15-19.18-17-26.25,1.23-7.54,14.92-6.65,20.5-6.25Z"/>
        <path class="cls-10" d="m346.27,206.17c.3.67.48.95.5,1,2,4.69,3.95,8.94,5,14-2.38-2.91-3.98-6.37-6-9.5-2.62-4.06-3.82-4.74-4-5-1.03-1.52-2.77-6.3-4.75-8.5-15.02.37-29.99-.98-45,0v1l28.25.5c-10.67-.02-21.33.02-32,0-.58,0-2.88-1.88-4-1-1.79-1.35-1.44,1-4,1-15.3.01-30.72-.45-46,0l.75-11,99,.5,12.25,17Z"/>
        <path class="cls-12" d="m234.27,199.67c15.28-.45,30.7.01,46,0,2.19,1.97,4.78,7.47,5.5,8-9.99.04-42.12,1.61-49,.5-.56-.09-1.18.06-1.75,0l-6.75-8.25c.38-.5,4.94-.22,6-.25Z"/>
        <path class="cls-10" d="m291.77,207.67c.17,0,.33,0,.5,0l3.5,4.5c-19.67.21-39.33.89-59,.5.92-.98-.13-2.65-1-3.5l1-1c6.88,1.11,39.01-.46,49-.5,3.47,2.59,5.65,0,6,0Z"/>
        <path class="cls-68" d="m233.27,209.17c.84,1.02-2.4.36-6.5,0-.62-.05-.63-.93-2-1-.3-3.59-6.49-7.54-5-10,1.57.11,3.18-.08,4.75,0l8.75,11Z"/>
        <path class="cls-83" d="m235.77,209.17c.87.85,1.92,2.52,1,3.5h-22c3.31-2.97,16.04,1.66,12-3.5,4.1.36,7.34,1.02,6.5,0-.09-1.56,2.14-.35,2.5,0Z"/>
        <path class="cls-89" d="m297.27,208.17c10.67.05,21.33-.04,32,0,0,.16-1.12,2.91-1.25,3-.98.67-9.81-1.2-9.75,1-7.5.09-15-.08-22.5,0l-3.5-4.5c1.67.02,1.27.48,5,.5Z"/>
        <path class="cls-83" d="m341.77,206.67c.18.26,1.38.94,4,5-9.17.19-18.33.39-27.5.5-.06-2.2,8.77-.33,9.75-1,.13-.09,1.26-2.84,1.25-3-.02-.39-1.58-1.93-2-2.5l14.5,1Z"/>
        <path class="cls-43" d="m224.77,208.17c1.37.07,1.38.95,2,1,4.04,5.16-8.69.53-12,3.5-3.34,2.99,5.69,3.9,7.25,4.5,5.59,2.16-14.59,2.97-13.75-8.75,5.45-.24,11.05-.55,16.5-.25Z"/>
        <path class="cls-79" d="m341.77,206.67l-14.5-1c-1.3-1.74-4.86-5.38-7-6l-28.25-.5v-1c15.01-.98,29.98.37,45,0,1.98,2.2,3.72,6.98,4.75,8.5Z"/>
        <path class="cls-40" d="m284.27,198.67l7.5,9c-.35,0-2.53,2.59-6,0-.72-.53-3.31-6.03-5.5-8,2.56,0,2.21-2.35,4-1Z"/>
        <g>
          <path class="cls-62" d="m320.27,199.67c2.14.62,5.7,4.26,7,6,.42.57,1.98,2.11,2,2.5-10.67-.04-21.33.05-32,0-2.99.52-6.34-5.56-9-8.5,10.67.02,21.33-.02,32,0Z"/>
          <path class="cls-43" d="m288.27,199.67c2.66,2.94,6.01,9.02,9,8.5-3.73-.02-3.33-.48-5-.5-.17,0-.33,0-.5,0l-7.5-9c1.12-.88,3.42,1,4,1Z"/>
          <path class="cls-22" d="m290.52,200.67c6.1.5,28.2-.67,30.5,0,.41.12,6.02,5.92,5.75,6.25-5.22-.05-28.52.9-30.75.25-.53-.15-5.22-5.2-5.5-6.5Z"/>
        </g>
      </g>
      <g>
        <path class="cls-62" d="m278.77,243.67c.13,5.31.11,10.69-.25,16-13.41.17-26.84-.23-40.25,0-.44-3.84.39-7.71.5-11.5h38.75c.33-.23.4-2.9.25-3.25-.78-1.79-34.35.23-39-.25.09-3.83-.19-7.67,0-11.5,13.2.23,26.52-1.17,39.75-.5.51.36.21,9.45.25,11Z"/>
        <path class="cls-62" d="m238.77,248.17c.03-1.16-.03-2.33,0-3.5,4.65.48,38.22-1.54,39,.25.15.35.08,3.02-.25,3.25h-38.75Z"/>
      </g>
      <g>
        <path class="cls-25" d="m26.77,212.17c.66-.03,1.34-.03,2,0,.02,4-.03,8,0,12,0,.48.5.53.5,1-2.96.24-6.03.14-9,.5,0-.05-1.02.15-1-.25.18-3.82-.13-7.68,0-11.5.37-.85,2.25-.78,4-1.25,1.41-.38,2.06-.42,3.5-.5Z"/>
        <path class="cls-38" d="m187.27,197.17v.5l5,12.5c-3.55.13-6.99.75-10.5,1-2.14.16-4.36-.18-6.5,0-.49.04-1.01-.04-1.5,0-1.36-4.25-1.88-8.61-2.5-13,1.83-.1,3.61-.42,5.5-.5,3.54-.15,6.91-.64,10.5-.5Z"/>
        <path class="cls-44" d="m192.77,210.17c2.73-2.5-.2-4.96-1-7.25-1.07-3.04,1.22-6.5-4.5-5.25v-.5c3.25.13,6.53-.55,7.5.75l3.5,12c-1.39,1.78-5.22.24-5.5.25Z"/>
        <path class="cls-54" d="m192.77,210.17c-.17,0-.33,0-.5,0l-5-12.5c5.72-1.25,3.43,2.21,4.5,5.25.8,2.29,3.73,4.75,1,7.25Z"/>
        <path class="cls-29" d="m41.27,210.17l.5,13.5c-.9.09-1.98.4-3,.5-2.09.2-4.04.87-5.5,1-.2.02-.28-.3-4,0,0-.47-.5-.52-.5-1,7.05.49,4.59-4.29,5-11.75-.37-.52-3.62-.18-4.5-.25,3.8-1.17,8.07-1.56,12-2Z"/>
        <path class="cls-44" d="m28.77,224.17c-.03-4,.02-8,0-12,.17,0,.33-.01.5,0,.88.07,4.13-.27,4.5.25-.41,7.46,2.05,12.24-5,11.75Z"/>
        <path class="cls-26" d="m168.77,198.17c.83-.05,1.67.05,2.5,0,.62,4.39,1.14,8.75,2.5,13-.78.07-1.41.99-1.5,1-4.35.36-8.63.57-13,1-1.5.15-3.03.36-4.5.5-.33.03-.67-.03-1,0,.24-.78-.44-.97-.5-1.5,5.42,1.41,2.26-5.51,1.5-13,.5-.04,1,.04,1.5,0,4.16-.32,8.33-.74,12.5-1Z"/>
        <path class="cls-44" d="m133.27,201.17c-1.46,2.86-5.46-2.06-6,5.75-.69,10.01,1.92,7.38,6.5,7.75,1.04.08,2.03-.3,2,.5-8.64.93-17.37.97-26,2-.02-.66-.5-.46-.5-.5-.13-4.33.09-8.67,0-13,7.99-.75,16.01-1.81,24-2.5Z"/>
        <path class="cls-38" d="m144.77,200.17c4.11.65,1.08,9.51,3.5,13.25-1.19.1-2.36.52-3.5.75-2.5.51-6.28.71-9,1,.03-.8-.96-.42-2-.5v-13.5c.49-.04,1.01.04,1.5,0,3.18-.27,6.33-.73,9.5-1Z"/>
        <path class="cls-25" d="m150.27,199.67v14c-1.78.16-3.63.91-5.5.5,1.14-.23,2.31-.65,3.5-.75-2.42-3.74.61-12.6-3.5-13.25,1.83-.15,3.68-.35,5.5-.5Z"/>
        <path class="cls-54" d="m153.27,212.17c.06.53.74.72.5,1.5-1.15.11-2.35-.1-3.5,0v-13.5c3.13-1.43,2.14,4.35,3,12Z"/>
        <path class="cls-21" d="m65.27,207.17l1,1c-.66.07-1.34-.07-2,0-2.3.23-4.68.26-7,.5l.5-1c2.54.11,5,.02,7.5-.5Z"/>
        <path class="cls-25" d="m64.27,208.17c.6,4.92-.57,12.3,2,13-4.99.52-10.01.97-15,1.5-1.07-1.25-5.89.11-6.5-.75-.32-.45-.26-10.52,0-11,.61-1.13,5.46.01,5-1.75,2.45-.26,5.03-.25,7.5-.5,2.32-.24,4.7-.27,7-.5Z"/>
        <path class="cls-26" d="m49.77,209.17c.46,1.76-4.39.62-5,1.75-.26.48-.32,10.55,0,11,.61.86,5.43-.5,6.5.75-.13.01.54.18-2.5.5-2.29.24-4.7.26-7,.5l-.5-13.5c2.83-.32,5.68-.7,8.5-1Z"/>
        <path class="cls-44" d="m154.77,199.17c.76,7.49,3.92,14.41-1.5,13-.86-7.65.13-13.43-3-12v-.5c1.53-.12,3-.38,4.5-.5Z"/>
        <path class="cls-54" d="m92.27,205.17l10.5.25-.5,11-19.5,2.25c-.19-5.75,1.19-12.65-2.5-12.5,3.97-.39,8.02-.62,12-1Z"/>
        <path class="cls-45" d="m75.77,207.17c3.61-1.05,2.53,9.11,2.5,12.5-4,.41-8,1.09-12,1.5-2.57-.7-1.4-8.08-2-13,.66-.07,1.34.07,2,0,.49-.05,2.37-1.65,9.5-1Z"/>
        <path class="cls-26" d="m106.27,204.17v13c-.5.04-1-.04-1.5,0-7.29.56-14.72,1.28-22,2v-.5l19.5-2.25.5-11-10.5-.25c4.63-.45,9.38-.56,14-1Z"/>
        <path class="cls-54" d="m133.77,214.67c-4.58-.37-7.19,2.26-6.5-7.75.54-7.81,4.54-2.89,6-5.75.17-.01.33.01.5,0v13.5Z"/>
        <path class="cls-25" d="m80.27,206.17c3.69-.15,2.31,6.75,2.5,12.5v.5c-1.49.15-3,.35-4.5.5.03-3.39,1.11-13.55-2.5-12.5,1.22-1.09,3.05-.86,4.5-1Z"/>
        <path class="cls-57" d="m109.27,203.67c.09,4.33-.13,8.67,0,13,.07.75-1.13.48-2.5.5-.17,0-.34-.01-.5,0v-13c1.06-.1,1.94-.4,3-.5Z"/>
      </g>
      <g>
        <path class="cls-43" d="m105.77,182.17c-1.96-.12-1.55,15.06,1.5,10.75.28-.4-.18-8.15.5-9.75,1.84.87,5.89,1.73,8,2,8.14,1.03,14.52,1.42,12.5-3,4.83.47,9.72.11,14.5.5.22,1.92-6.71.64-11.75,1-2.03.79-2.25,16.04-1.75,16.75.6.85,5.03-.49,6,.75-.49.04-1.01-.04-1.5,0-.17.01-.33-.01-.5,0-7.99.69-16.01,1.75-24,2.5-1.06.1-1.94.4-3,.5-4.62.44-9.37.55-14,1-3.98.38-8.03.61-12,1-1.45.14-3.28-.09-4.5,1-7.13-.65-9.01.95-9.5,1l-1-1c3.04-.64,7.17-2.73,9.5-4.75l-8-15.25c11.43-1.51,22.84-3.38,34.25-5,.55-.66.22-12.85.25-15,5.22.17-1.44,10.63,4.5,15Z"/>
        <path class="cls-49" d="m101.02,194.67c1.22.21,6.8-.39,7.25.25,2.49,3.51-3.15,15.62-7.25-.25Z"/>
        <path class="cls-83" d="m105.77,182.17c.5.37,1.38.71,2,1-.68,1.6-.22,9.35-.5,9.75-3.05,4.31-3.46-10.87-1.5-10.75Z"/>
      </g>
      <g>
        <path class="cls-80" d="m125.77,180.17c1.4.13,1.57.99,1.75,1,3,.23,5.87-.4,8.75-.5.41-.01,3.18,1.74,7.5-1,1.55,1.24,3.32-.48,3.5-.5,1.99-.24,4.23.17,6.25,0,.74-.64-.21-.96-.25-1.5,2.9-1.35,3.8,0,4,0-.18,9.72,1.33,2.49,2.5,4.5-.96,4.51-15.23,4.96-19.5,5-2.72.03-10.35.61-9.5-1.75.49-1.35,14.77-.54,17.25-1.25v-1c-3.42.36-4.99-.48-5.25-.5-4.78-.39-9.67-.03-14.5-.5-3.74-.36-7.78-1.48-12-1.25,0-3.75,0-7.5,0-11.25l.5,10.25c3.79,1.06,7.09.07,9,.25Z"/>
        <path class="cls-7" d="m159.27,177.67c.42,1.21.51,2.21.5,3.5,0,.32.06.71,0,1-1.17-2.01-2.68,5.22-2.5-4.5.66.01,1.34,0,2,0Z"/>
        <g>
          <path class="cls-66" d="m143.77,179.67c-4.32,2.74-7.09.99-7.5,1-.86-2.44,2.77-4.95-1-6.25,2.49-1.71.49-2.68.5-3,.09-3.22,2.88-8.52,1-11.5.42-1.14,6.56-1.78,7-1.75,5.18.41.88,10.76,2,20.75-1.8-.68-1.61.5-2,.75Z"/>
          <path class="cls-62" d="m143.77,157.17v1c-.44-.03-6.58.61-7,1.75,1.88,2.98-.91,8.28-1,11.5,0,.32,1.99,1.29-.5,3,3.77,1.3.14,3.81,1,6.25-2.88.1-5.75.73-8.75.5-.18-.01-.35-.87-1.75-1v-2c.17,0,.33,0,.5,0,10.55-.2,4.43-.68,5.5-2.75.19-.37,1.82-.13,2-1,.04-.21-1.8-1.3-1.5-2,.16-.36,1.82-.13,2-1,.03-.17-1.47-1.26-1.5-1.5-.16-1.34,1.93-.91,1.5-2.5-.24-.88-3.1-.48.5-3-4.82-8.62,3.48-7.12,9-7.25Z"/>
          <path class="cls-72" d="m147.27,157.67c-.47,6.96-.61,14.52,0,21.5-.18.02-1.95,1.74-3.5.5.39-.25.2-1.43,2-.75-1.12-9.99,3.18-20.34-2-20.75v-1c.78-.02,1.53.22,1.5-.5.76.27.22,1.35,2,1Z"/>
          <path class="cls-17" d="m141.27,155.67c1.1.14,2.91.61,4,1,.03.72-.72.48-1.5.5-5.52.13-13.82-1.37-9,7.25-3.6,2.52-.74,2.12-.5,3,.43,1.59-1.66,1.16-1.5,2.5.03.24,1.53,1.33,1.5,1.5-.18.87-1.84.64-2,1-.3.7,1.54,1.79,1.5,2-.18.87-1.81.63-2,1-1.07,2.07,5.05,2.55-5.5,2.75.06-.61-.48-.47-.5-.5-.93-1.03.49-15.29,1.5-16.5,4.37-1.02,3.88-5.39,9-5.5l.5-.5c.12,1.02,2.46.24,4.5.5Z"/>
          <path class="cls-39" d="m142.27,147.17c-1.57,4.98,1.31,8.07-1,8.5-2.04-.26-4.38.52-4.5-.5-.15-1.45.39-6.54-.5-7.25-.66-.52-4.31-.23-5.5-.25-2.64-.05-5.02.33-5-.5,15.49,1.1,10.12-2.43,11.5-3.75,3.33-3.2.62,4.06,5,3.75Z"/>
        </g>
      </g>
      <g>
        <path class="cls-75" d="m105.27,80.17c2.48,1.55-4.38,3.12-7,4-9.06,3.03-18.5,4.71-27.75,7-1.51,1.03-.22,7.13-.25,7.5-.02.24-.39.43-.5,2-4.22,3.29-1.21,9.09-3.5,9,.35-5.74,1.02-11.51,1.5-17.25-1.98-.83-1.9.24-2,.25-6.16.31-22.45,6.16-30.75,7-1.49,1.16-.41,4.2-.75,6.5-.26,1.75-.81,3.74-1,5.5-.11.98.1,2.02,0,3-1.55-.36-.88,1.5-1,3.75-3.1-1.17-.66,7.52-3,7.75.71-7.28,1.26-19.59,2-24.5.1-.64,0-.48,0-.5.08-.48.45-2.38.5-2.5.07-.15.11-1.17.75-2,24.33-5.1,48.39-11.51,72.75-16.5Z"/>
        <path class="cls-56" d="m107.77,79.67c-.25,4.12-5.06,1.35-6,6.25-.52,2.74-.39,47.4-.5,55.75-.11,8.5.12,17,0,25.5-.03,2.15.3,14.34-.25,15-11.41,1.62-22.82,3.49-34.25,5-6.79.9-13.7,1.24-20.5,2-7.24.81-14.51,2.13-21.75,3-.48-.34-.25-3.71-.25-4.5,1.36,2.63-.86,2.95,2.75,3,2.31.03,30.92-3.61,37.75-4.5,4.67-.61,32.18-3.85,33.75-4.5,4.03-1.66.75-3.23.75-3.5.44-31.26,1.84-62.5,1-93.75l-2-.25c2.62-.88,9.48-2.45,7-4,.88-.18,1.58-.62,2.5-.5Z"/>
        <path class="cls-81" d="m66.27,109.67c-1.36,22.11-2.7,44.47-5,66.5-.23,2.22.15,4.53-.5,6.75-.47.55-1.45.07-2,.25.97-2.3.11-2.83,0-4,.76.08.49-1.37.5-3,.06-11.22,1.73-22.27,2-33.5,1.27-6.09,1.07-12.34,1-18.5l3.5-31.5c.1,0,.02-1.08,2-.25-.48,5.74-1.15,11.51-1.5,17.25Z"/>
        <path class="cls-70" d="m69.77,100.67c-.03.5.03,1,0,1.5-1.52,22.03-4.13,43.99-5.5,66-.29,4.64-.44,9.35-.5,14-.51-.43-1.97,3.56-2.5-6,2.3-22.03,3.64-44.39,5-66.5,2.29.09-.72-5.71,3.5-9Z"/>
        <path class="cls-70" d="m99.27,178.17c0,.27,3.28,1.84-.75,3.5-1.57.65-29.08,3.89-33.75,4.5.09-.92-.14-3-.5-3.5l35-4.5Z"/>
        <g>
          <path class="cls-11" d="m99.27,178.17l-35,4.5s-.45-.46-.5-.5c.06-4.65.21-9.36.5-14,4.68-.62,15.93-1.86,18-6.25,1.35-2.86,7.31-57.34,7.5-62.75.08-2.29,1.09-3.13-.25-4l-19.25,3.5c.03-.37-1.26-6.47.25-7.5,9.25-2.29,18.69-3.97,27.75-7l2,.25c.84,31.25-.56,62.49-1,93.75Z"/>
          <g>
            <path class="cls-85" d="m89.77,99.17l-20,3c.03-.5-.03-1,0-1.5.11-1.57.48-1.76.5-2l19.25-3.5c1.34.87.33,1.71.25,4Z"/>
            <path class="cls-30" d="m89.77,99.17c-.19,5.41-6.15,59.89-7.5,62.75-2.07,4.39-13.32,5.63-18,6.25,1.37-22.01,3.98-43.97,5.5-66l20-3Z"/>
          </g>
        </g>
        <g>
          <path class="cls-13" d="m33.27,114.67c-1.79,17.61-3.31,35.34-4.5,53-.14,2.02-.38,3.99-.5,6-.11,1.84-1.29,13.55-.75,14,7.7-1.66,26.39-2.94,31.25-4.5.55-.18,1.53.3,2-.25.65-2.22.27-4.53.5-6.75.53,9.56,1.99,5.57,2.5,6,.05.04.48.47.5.5.36.5.59,2.58.5,3.5-6.83.89-35.44,4.53-37.75,4.5-3.61-.05-1.39-.37-2.75-3-.03-11.29,3.58-47.02,5-61.5,2.34-.23-.1-8.92,3-7.75.12-2.25-.55-4.11,1-3.75Z"/>
          <path class="cls-76" d="m55.27,107.67c.08,2.02.1,3.49,0,5.5-.18,3.83-.74,7.69-1,11.5-.34,4.99-1.82,35.04-2.5,36.75-1.17,2.96-4.78,1.81-5,2-.19.16-.13,1.75-1.5,4.75l-16.5-.5c1.19-17.66,2.71-35.39,4.5-53,.1-.98-.11-2.02,0-3,1.53.34.73-1.34,1.25-1.5,1.28-.39,16.33-1.97,20.75-2.5Z"/>
          <path class="cls-2" d="m61.27,142.67c-.27,11.23-1.94,22.28-2,33.5-.66-.11-.63,1.62-.5,3,.11,1.17.97,1.7,0,4-4.86,1.56-23.55,2.84-31.25,4.5-.54-.45.64-12.16.75-14l15.25-2.5c2.36-.93,1.19-1.77,1.75-3,1.37-3,1.31-4.59,1.5-4.75.22-.19,3.83.96,5-2,.68-1.71,2.16-31.76,2.5-36.75,1.31.67,6.65.25,7,.75.73,1.04.06,14.67,0,17.25Z"/>
          <path class="cls-85" d="m45.27,168.17c-.56,1.23.61,2.07-1.75,3l-15.25,2.5c.12-2.01.36-3.98.5-6l16.5.5Z"/>
          <path class="cls-53" d="m65.77,92.67l-3.5,31.5c-.1-8.21,3.26-9.83-7-11,.1-2.01.08-3.48,0-5.5,0-.2,1.11-1.67.25-4l-21.25,2.5c.34-2.3-.74-5.34.75-6.5,8.3-.84,24.59-6.69,30.75-7Z"/>
          <path class="cls-85" d="m55.27,107.67c-4.42.53-19.47,2.11-20.75,2.5-.52.16.28,1.84-1.25,1.5.19-1.76.74-3.75,1-5.5l21.25-2.5c.86,2.33-.26,3.8-.25,4Z"/>
          <path class="cls-2" d="m62.27,124.17c.07,6.16.27,12.41-1,18.5.06-2.58.73-16.21,0-17.25-.35-.5-5.69-.08-7-.75.26-3.81.82-7.67,1-11.5,10.26,1.17,6.9,2.79,7,11Z"/>
          <path class="cls-23" d="m58.77,179.17c-.13-1.38-.16-3.11.5-3,0,1.63.26,3.08-.5,3Z"/>
        </g>
      </g>
      <g>
        <path class="cls-62" d="m167.27,133.17c-.24,3.44-2.72,30.91-1.25,31.5l73-4c13.39-.62,26.89.62,40.25.5,11.91-.1,23.82-1.31,35.75-1-2.81-4.48-6.77-8.08-10.25-12-1.81-2.04-3.7-3.96-5.5-6,9.66,8.16,1.83-1.45,8.5,2,2.51,1.3,8.08,8.91,10,11.5.85,1.14,1.6,1.28,2.5,2.25-.97,1.72,1.24,4.99,2.5,3.75.3.14,1.45.92,1.5,1,1.63,2.58,1.38,2.73,1.5,3-7.93-1.71-19.87-1.1-28.75-1-42.59.46-85.18.75-127.75,2l-6.5-.25c1.36-12.54,1.58-25.18,2.5-37.75v13.75c1.87-2.52-.13-8.85,2-9.25Z"/>
        <path class="cls-70" d="m246.27,70.17c.28,6.03,6.94,12.59,6,17.5-5.83-6.66-8.94-9.38-18.25-11-5.15-.89-47.11-1.51-53-1-.29.03-1.82,1.2-5.75,1.25-1.7,7.09-3.88,14.02-5,21.25-1.5,9.73-2.27,24.71-3,35-2.13.4-.13,6.73-2,9.25v-13.75c.78-10.64,2.71-36.62,5-45.5,1.63-6.33,3.65-12.9,10.5-14,8.56-1.37,52.98.67,65.5,1Z"/>
        <path class="cls-70" d="m298.27,71.67c1.2.26,3.22.4,4,1.25,3.71,11.12,5.46,22.6,8,34,.09.41.91.09,1,.5.1.47.57,7.38,1,9.5.03.16,1.18,1.38,1.5,3,.02.1-.81.38-.5,2,.08.41.92.09,1,.5.11.57-.1,3.4,0,4,.04.24.96.76,1,1,.35,2.07,1.73,12,0,11.75-2.73-14.82-4.95-29.45-9-44-.82-2.94-3.78-16.07-5.75-17-15.14-2.58-30.39-3.34-45.75-2-3.42-6.34-5.74-4.74,6-6,7.85.28,33.22.56,37.5,1.5Z"/>
        <path class="cls-36" d="m302.77,72.17c1.36,5.2,3.13,10.3,4.5,15.5,3.09,11.72,5.64,23.86,8,35.75,1.23,6.23,4.87,34.29,5.5,36,.18.5,1.79,1.37,2,2.25-1.26,1.24-3.47-2.03-2.5-3.75-.9-.97-1.65-1.11-2.5-2.25,1.94,1.66-1.48-10.96-2.5-16.5,1.73.25.35-9.68,0-11.75-.04-.24-.96-.76-1-1-.1-.6.11-3.43,0-4-.08-.41-.92-.09-1-.5-.31-1.62.52-1.9.5-2-.32-1.62-1.47-2.84-1.5-3-.43-2.12-.9-9.03-1-9.5-.09-.41-.91-.09-1-.5-2.54-11.4-4.29-22.88-8-34-.78-.85-2.8-.99-4-1.25,3.05-.35,4.27.48,4.5.5Z"/>
        <path class="cls-6" d="m306.27,95.17c4.05,14.55,6.27,29.18,9,44,1.02,5.54,4.44,18.16,2.5,16.5-1.92-2.59-7.49-10.2-10-11.5-12.71-16.2-27.27-30.9-39.5-47.5-.14-.19-.36-.81-.5-1l38.5-.5Z"/>
        <path class="cls-85" d="m304.77,148.17c3.48,3.92,7.44,7.52,10.25,12-11.93-.31-23.84.9-35.75,1-5.99-17.9-12.44-35.62-18.5-53.5,1.14.24,2.11-.86,3.25-.5,2.06.64,23.9,29.72,26.75,33.75,5.31,7.5,10.25,18.31,11.25,18.75.36.16,3.54.07,3.75-.25.33-.5-2.53-10.79-1-11.25Z"/>
        <g>
          <path class="cls-62" d="m260.77,70.17c-11.74,1.26-9.42-.34-6,6,3.77,6.99,8.34,13.11,13,19.5.14.19.36.81.5,1-2.92-.48-5.45-.82-7.5,2-.28-.32-.66-.61-1-1-2.71-3.14-4.76-6.87-7.5-10,.94-4.91-5.72-11.47-6-17.5,4.82.13,9.68-.17,14.5,0Z"/>
          <path class="cls-62" d="m268.27,96.67c12.23,16.6,26.79,31.3,39.5,47.5-6.67-3.45,1.16,6.16-8.5-2-12.82-14.51-25.83-28.86-38.5-43.5,2.05-2.82,4.58-2.48,7.5-2Z"/>
        </g>
        <path class="cls-20" d="m259.77,97.67c.34.39.72.68,1,1,12.67,14.64,25.68,28.99,38.5,43.5,1.8,2.04,3.69,3.96,5.5,6-1.53.46,1.33,10.75,1,11.25-.21.32-3.39.41-3.75.25-1-.44-5.94-11.25-11.25-18.75-2.85-4.03-24.69-33.11-26.75-33.75-1.14-.36-2.11.74-3.25.5-1.05-3.1-2.81-6.2-3.5-9.5.29,0,.87-.79,2.5-.5Z"/>
        <path class="cls-31" d="m252.27,87.67c2.74,3.13,4.79,6.86,7.5,10-1.63-.29-2.21.5-2.5.5-29.01-.31-57.99-1.12-87,0,1.12-7.23,3.3-14.16,5-21.25,3.93-.05,5.46-1.22,5.75-1.25,5.89-.51,47.85.11,53,1,9.31,1.62,12.42,4.34,18.25,11Z"/>
        <path class="cls-53" d="m306.27,95.17l-38.5.5c-4.66-6.39-9.23-12.51-13-19.5,15.36-1.34,30.61-.58,45.75,2,1.97.93,4.93,14.06,5.75,17Z"/>
        <g>
          <path class="cls-51" d="m257.27,98.17c.69,3.3,2.45,6.4,3.5,9.5,6.06,17.88,12.51,35.6,18.5,53.5-13.36.12-26.86-1.12-40.25-.5l-73,4c-1.47-.59,1.01-28.06,1.25-31.5.73-10.29,1.5-25.27,3-35,29.01-1.12,57.99-.31,87,0Z"/>
          <path class="cls-80" d="m226.52,150.67c11.26.53,21.4,5.76,32.25,8.25-.46,2.71-29.81-6.19-32.25-8.25Z"/>
        </g>
        <g>
          <path class="cls-37" d="m156.27,142.17c-.04,2,.04,4,0,6-.18,7.94.25,24.1-3,22.5.14-2.66.39-5.31.5-8,.24-5.69.37-11.31.5-17,0-.33,0-.67,0-1,1.23-.86-.55-2.95,2-2.5Z"/>
          <path class="cls-82" d="m120.27,125.17c-.15,3.18-.39,6.31-.5,9.5-.14,4.18-.38,8.32-.5,12.5-.28,10.08-.28,20.19-1,30.25.42,1.23,5.09.69,7.5.75v2c-1.91-.18-5.21.81-9-.25l-.5-10.25c.02-15.09.79-30.42,1.5-45.5l.75,5c1.83-.29-.43-4.29,1.75-4Z"/>
          <g>
            <path class="cls-19" d="m160.27,75.17c-.92,2.93-1.35,3.23-2,7-2.87,16.73-1.68,42.29-2,60-2.55-.45-.77,1.64-2,2.5.08-3.33-.09-6.67,0-10,.29-10.44-.08-21.1.5-31.5.26-4.59.85-9.13.5-13.75,2.47-1.77.88-5.2,1.5-7.75.36-1.47,2.26-6.25,3.5-6.5Z"/>
            <path class="cls-6" d="m154.27,134.67c-.09,3.33.08,6.67,0,10,0,.33,0,.67,0,1-3.63-1.2-5.64.16-8.5.5-3.55.42-3.32.99-3.5,1-4.38.31-1.67-6.95-5-3.75-1.38,1.32,3.99,4.85-11.5,3.75l-.5.5-6-.5c.12-4.18.36-8.32.5-12.5h34.5Z"/>
            <path class="cls-70" d="m160.27,75.17c-1.24.25-3.14,5.03-3.5,6.5-1.24.29-4.51-1.01-4.75-1-2.38.11-21.98,5.34-29.5,6-1.81,1.5-.6,14-.75,16.5-.44,7.34-1.16,14.62-1.5,22-2.18-.29.08,3.71-1.75,4l-.75-5c.64-13.58,1.43-27.16,2-40.75l.75-1.25c1.71.27,2.26-.36,2.75-.5,1.4-.41,3.72-.23,5-.5,11.09-2.34,22.31-5.18,33-8.25-.7.57-.76,1.48-1,2.25Z"/>
            <path class="cls-6" d="m154.77,103.17c-.58,10.4-.21,21.06-.5,31.5h-34.5c.11-3.19.35-6.32.5-9.5.34-7.38,1.06-14.66,1.5-22h33Z"/>
            <path class="cls-14" d="m156.77,81.67c-.62,2.55.97,5.98-1.5,7.75.35,4.62-.24,9.16-.5,13.75h-33c.15-2.5-1.06-15,.75-16.5,7.52-.66,27.12-5.89,29.5-6,.24-.01,3.51,1.29,4.75,1Z"/>
          </g>
          <g>
            <path class="cls-25" d="m153.77,162.67c-.11,2.69-.36,5.34-.5,8-.03.54-.7.86-1,1.25-.32,1.73,1,1.17,1,1.25-.02.5-.01,1,0,1.5.01.47-.18.82,0,3,.04.54.99.86.25,1.5-2.02.17-4.26-.24-6.25,0-.61-6.98-.47-14.54,0-21.5.05-.76.17-.88.5-1.5,2.15,2.03,4.43,3.94,6,6.5Z"/>
            <path class="cls-25" d="m154.27,145.67c-.13,5.69-.26,11.31-.5,17-1.57-2.56-3.85-4.47-6-6.5-.69-.65-1.95-.27-2.5-1.25l.5-8.75c2.86-.34,4.87-1.7,8.5-.5Z"/>
            <path class="cls-44" d="m145.77,146.17l-.5,8.75c.55.98,1.81.6,2.5,1.25-.33.62-.45.74-.5,1.5-1.78.35-1.24-.73-2-1-1.09-.39-2.9-.86-4-1,2.31-.43-.57-3.52,1-8.5.18-.01-.05-.58,3.5-1Z"/>
            <path class="cls-71" d="m125.27,147.67c-.54,4.66-1.02,9.33-1.5,14-1.05,10.29-2.99,18.3,2,16,.02.03.56-.11.5.5-.17,0-.33,0-.5,0-2.41-.06-7.08.48-7.5-.75.72-10.06.72-20.17,1-30.25l6,.5Z"/>
            <path class="cls-26" d="m130.77,147.67v9.25c1.17.8,1.31-2.97,5.5-1.25-5.12.11-4.63,4.48-9,5.5.77-2.97-1.5,2.32-3.5.5.48-4.67.96-9.34,1.5-14l.5-.5c-.02.83,2.36.45,5,.5Z"/>
            <path class="cls-54" d="m127.27,161.17c-1.01,1.21-2.43,15.47-1.5,16.5-4.99,2.3-3.05-5.71-2-16,2,1.82,4.27-3.47,3.5-.5Z"/>
            <path class="cls-26" d="m136.77,155.17l-.5.5c-4.19-1.72-4.33,2.05-5.5,1.25v-9.25c1.19.02,4.84-.27,5.5.25.89.71.35,5.8.5,7.25Z"/>
          </g>
        </g>
      </g>
    </g>
  </g>
</svg>