<?xml version="1.0" encoding="UTF-8"?>
<svg id="Camada_2" data-name="Camada 2" xmlns="http://www.w3.org/2000/svg" xmlns:xlink="http://www.w3.org/1999/xlink" viewBox="0 0 415.92 328.04">
  <defs>
    <style>
      .cls-1 {
        fill: #54ab9f;
      }

      .cls-1, .cls-2, .cls-3, .cls-4, .cls-5, .cls-6, .cls-7, .cls-8, .cls-9, .cls-10, .cls-11, .cls-12, .cls-13, .cls-14, .cls-15, .cls-16, .cls-17, .cls-18, .cls-19, .cls-20, .cls-21, .cls-22, .cls-23, .cls-24, .cls-25, .cls-26, .cls-27, .cls-28, .cls-29, .cls-30, .cls-31, .cls-32, .cls-33, .cls-34, .cls-35, .cls-36, .cls-37, .cls-38, .cls-39, .cls-40, .cls-41, .cls-42, .cls-43, .cls-44, .cls-45, .cls-46, .cls-47, .cls-48, .cls-49, .cls-50, .cls-51, .cls-52, .cls-53, .cls-54, .cls-55, .cls-56, .cls-57, .cls-58, .cls-59, .cls-60, .cls-61, .cls-62, .cls-63, .cls-64 {
        stroke-width: 0px;
      }

      .cls-2 {
        fill: #0e2b29;
      }

      .cls-3 {
        fill: #fac877;
      }

      .cls-4 {
        fill: #896033;
      }

      .cls-5 {
        fill: #2e5b50;
      }

      .cls-6 {
        fill: #faac4c;
      }

      .cls-7 {
        fill: #5b5209;
      }

      .cls-8 {
        fill: #192021;
      }

      .cls-9 {
        fill: #8a563a;
      }

      .cls-10 {
        fill: #ba4b27;
      }

      .cls-11 {
        fill: #99a69a;
      }

      .cls-12 {
        fill: #f7e4ca;
      }

      .cls-13 {
        fill: #be733a;
      }

      .cls-14 {
        fill: #a0d2c0;
      }

      .cls-15 {
        fill: #edb060;
      }

      .cls-16 {
        fill: #5b8580;
      }

      .cls-17 {
        fill: #43776e;
      }

      .cls-18 {
        fill: #6ca08e;
      }

      .cls-19 {
        fill: #e18746;
      }

      .cls-20 {
        fill: url(#Gradiente_sem_nome_485);
      }

      .cls-21 {
        fill: #74a982;
      }

      .cls-22 {
        fill: #162e2b;
      }

      .cls-23 {
        fill: #ee7c38;
      }

      .cls-24 {
        fill: #0d1614;
      }

      .cls-25 {
        fill: #f4c591;
      }

      .cls-26 {
        fill: #456135;
      }

      .cls-27 {
        fill: #803a0f;
      }

      .cls-28 {
        fill: #457767;
      }

      .cls-29 {
        fill: #f9c17a;
      }

      .cls-30 {
        fill: #0f1f20;
      }

      .cls-31 {
        fill: #c9b29a;
      }

      .cls-32 {
        fill: #95885b;
      }

      .cls-33 {
        fill: #090908;
      }

      .cls-34 {
        fill: #79bfa3;
      }

      .cls-35 {
        fill: #434a3d;
      }

      .cls-36 {
        fill: #d6df98;
      }

      .cls-37 {
        fill: #ee9541;
      }

      .cls-38 {
        fill: #5b3a0a;
      }

      .cls-39 {
        fill: #b68f6f;
      }

      .cls-40 {
        fill: #262c2d;
      }

      .cls-41 {
        fill: #b08a55;
      }

      .cls-42 {
        fill: url(#Gradiente_sem_nome_487);
      }

      .cls-43 {
        fill: #98724d;
      }

      .cls-44 {
        fill: #d2a067;
      }

      .cls-45 {
        fill: #834a0d;
      }

      .cls-46 {
        fill: #d4c6ae;
      }

      .cls-47 {
        fill: #965632;
      }

      .cls-48 {
        fill: #b16631;
      }

      .cls-49 {
        fill: #fff3dd;
      }

      .cls-50 {
        fill: #bd8254;
      }

      .cls-51 {
        fill: #dda270;
      }

      .cls-52 {
        fill: #003a41;
      }

      .cls-53 {
        fill: #262719;
      }

      .cls-54 {
        fill: #dbffe8;
      }

      .cls-55 {
        fill: #eb773a;
      }

      .cls-56 {
        fill: #a2a85b;
      }

      .cls-57 {
        fill: url(#Gradiente_sem_nome_486);
      }

      .cls-58 {
        fill: #ec9c63;
      }

      .cls-59 {
        fill: #1b6b68;
      }

      .cls-60 {
        fill: #2e4324;
      }

      .cls-61 {
        fill: #dcd4cb;
      }

      .cls-62 {
        fill: #492910;
      }

      .cls-63 {
        fill: #466173;
      }

      .cls-64 {
        fill: #ffa94d;
      }
    </style>
    <linearGradient id="Gradiente_sem_nome_487" data-name="Gradiente sem nome 487" x1="-4886.38" y1="-4369.47" x2="-4958.72" y2="-4280.08" gradientTransform="translate(2741.64 2436.03) scale(.5)" gradientUnits="userSpaceOnUse">
      <stop offset="0" stop-color="#d27b43"/>
      <stop offset="1" stop-color="#a9763f"/>
    </linearGradient>
    <linearGradient id="Gradiente_sem_nome_486" data-name="Gradiente sem nome 486" x1="-5094.84" y1="-4477.53" x2="-5263.45" y2="-4420.48" gradientTransform="translate(2741.64 2436.03) scale(.5)" gradientUnits="userSpaceOnUse">
      <stop offset=".43" stop-color="#904a12"/>
      <stop offset="1" stop-color="#c1710d"/>
    </linearGradient>
    <linearGradient id="Gradiente_sem_nome_485" data-name="Gradiente sem nome 485" x1="-5269.96" y1="-4451.1" x2="-5369.61" y2="-4442.69" gradientTransform="translate(2741.64 2436.03) scale(.5)" gradientUnits="userSpaceOnUse">
      <stop offset="0" stop-color="#68b9a9"/>
      <stop offset="1" stop-color="#579d91"/>
    </linearGradient>
  </defs>
  <g id="Camada_1-2" data-name="Camada 1">
    <g>
      <path class="cls-61" d="m213.92,93.54c-6.4.57-12.16.66-18.5,1-.51-1.45-.02-3.05,0-4.5,6.08.91,12.16,1.72,18.25,2.5l.25,1Z"/>
      <g>
        <path class="cls-50" d="m50.42,255.54c-.22,5.57-.25,11.46.5,17-9.95,2.37-36.97-.78-49,.5-.45-1.29-.27-2.84-1.5-2.5-2.02-12.09,3.94-14.66,4-15.5l46,.5Z"/>
        <path class="cls-55" d="m102.92,269.04c.08,0-.44.51,1.5.5.04,2.39-1.67,4.5,0,6.5-1.24.01-4.55.31-4.5,1.5-1.67,0-3.33,0-5,0-.48,0-.55.54-1,.5-25.63-1.9-51.4,1.06-77,.5-4.28-.09-8.67-.96-13-.5-1.34.07-3.31-6.35-3.5-7.5,1.23-.34,1.05,1.21,1.5,2.5.42,1.21.93,3.57,2.25,4h47.5c6.52-4.37,9.38-7.63,17.75-7.5,6.13.49,22.42-.6,33.5-.5Z"/>
        <path class="cls-6" d="m50.92,251.54c-.07,1.95-.46,2.92-.5,4l-46-.5c0-.17,0-.33,0-.5,1.88-1.62,3.39-3.2,6-3.5,3.57-.41,31.36,1.33,40.5.5Z"/>
        <path class="cls-3" d="m110.42,168.04c2.5,4.15,1.67,3.25,2,7.5.19,2.46-.07,5.02,0,7.5.67,22.81-.92,45.69.5,68.5-3.44.16-13.22-.39-12.5,4-3.68,0-24.53-.42-25.75,0-.38.13-.25.65-.25,1-6.76-.12-13.49-.55-20.25-.5l-.25,16.25c-.41.58-2.28.08-3,.25-.75-5.54-.72-11.43-.5-17,.04-1.08.43-2.05.5-4,.63-18.67-.02-51.63,1.5-65.5.11-.98-.07-2.01,0-3,.38-.03.55-.08.5-.5-.73,6.87-.57,24.02-.5,31.75,0,.18,1,3.08,1,3.25.2,11.5-.36,23.01.25,34.5l43.75-.5c3.58,1.68,11.1-.35,12-2.75.08-.22-.07-3.87,0-4.75,1.19-5.5.12-11.22.5-16.75.03-.46,1.47-.04,1.5-.5.33-5.47.37-43.31,0-47-.04-.4-1.55.83-1-7.5-1.02-3.07-19.27-2.59-20.25-2.25-.38.13-.25.65-.25,1-1.5,0-3,0-4.5,0v-1.5c.26-.1,3.6-3.15,4-4,6.95.37,15.51-1.41,21,2.5Z"/>
        <path class="cls-48" d="m98.42,150.54l7.5,1.25c-3.68,2.08-7.7,3.43-11.5,5.25-4.11,1.97-7.34.84-4.75,7.5,5.82.47,12.82-1.06,18.25,1,1.1.42,2.27.69,3,1.75-.15.18-.66.49-.5.75-5.49-3.91-14.05-2.13-21-2.5-4.98-.27-9.94-1.62-15-1h-8c.05-.09.42-1.69.5-2h.5l-.25,1c5.24,1.21,4.74-2.2,8.75-11,1.73.24,3.33-.27,5-.5,5.89-.79,11.58-1.18,17.5-1.5Z"/>
        <path class="cls-48" d="m74.42,256.54c3.96.07,27.2.2,28.5,1.5-11.44,1.33-23.05-.07-34.5.5-.17,0-.33-.01-.5,0-2.76.17-5.55-.58-6.5.75v8.5c.68,1,1.34.68,1.5.75,1.06.49,5,.88,6.5,1-8.37-.13-11.23,3.13-17.75,7.5H4.17c-1.32-.43-1.83-2.79-2.25-4,12.03-1.28,39.05,1.87,49-.5.72-.17,2.59.33,3-.25l.25-16.25c6.76-.05,13.49.38,20.25.5Z"/>
        <path class="cls-33" d="m93.92,278.04c-.33,13.1-6.42,30.44-15.5,40-8.35,8.79-17.58,9.16-29.5,8-4.7-.46-8.57-1.98-12.5-4.5-12.95-8.32-19.87-28.12-19.5-43,25.6.56,51.37-2.4,77-.5Z"/>
        <path class="cls-50" d="m179.42,256.04c.12.04.2.54,2.25,1-.58,1.72-8.06,16.72-9,17l-57,.5c-2.87,3.61-7.48,1.46-11.25,1.5-1.67-2,.04-4.11,0-6.5,1.75,0,3.5,0,5.25,0,.88-3.23-.25-3.8-.25-4,.02-2.25.17-4.79,0-7-.08-1.01-.78-1.75-.5-3,9.31,0,67.18-.67,70.5.5Z"/>
        <path class="cls-33" d="m99.92,277.54c14.03.03,27.97.22,42,.5-8.62,14.35-6.71,8.97-18.75,8-13.22-1.06-24.95,1.14-28.25-8.5,1.67,0,3.33,0,5,0Z"/>
        <path class="cls-48" d="m145.42,278.04c-1.17-.03-2.33.02-3.5,0-14.03-.28-27.97-.47-42-.5-.05-1.19,3.26-1.49,4.5-1.5,3.77-.04,8.38,2.11,11.25-1.5l57-.5c.94-.28,8.42-15.28,9-17-2.05-.46-2.13-.96-2.25-1l.5-.5c1.9,1.12,3.63.96,3.5,2.25-5.11,6.24-7.85,13.7-10.25,21.25-9.23-.3-18.52-.79-27.75-1Z"/>
        <path class="cls-38" d="m102.92,268.04v1c-11.08-.1-27.37.99-33.5.5-1.5-.12-5.44-.51-6.5-1,1.76.35,3.34-.26,5-.5,1.39-.21.94-.49,1-.5,11.06-1.09,22.89.45,34,.5Z"/>
        <path class="cls-10" d="m104.42,269.54c-1.94.01-1.42-.5-1.5-.5v-1c4.32.02,7.14.81,6.5-2.5,0,.2,1.13.77.25,4-1.75,0-3.5,0-5.25,0Z"/>
        <path class="cls-47" d="m365.92,223.54c-1.22-.38-2.62-1.13-4.5-1.5-1.28-.25-6.12-.97-7-1-25.17-.8-37.3,20.64-42,42.5h-10.5c0-6.45-.5-13.01-.5-19.5,3.53-.41,9.46-10.11,14.5-15,11.34-11,24.26-18.12,40.25-12.5,2.09.73,9.87,4.75,9.75,7Z"/>
        <path class="cls-50" d="m300.92,99.04c3.88.28,7.66.24,11.5.5,1.04.07,4.11.71,8.5,1,2.59,3.27,6.41,1.95,9.75,2.5,6.31,1.05,12.79,3.55,19.25,2,3.07,2.84,5.98,5.8,8,9.5l-60.25-2-7.75-13.5c4.59.36,5.22-.52,5.5-.5,1.82.13,3.65.37,5.5.5Z"/>
        <path class="cls-47" d="m315.92,229.04c-5.04,4.89-10.97,14.59-14.5,15,0-13.5,0-27,0-40.5.61-.03.55-.75,1-.25,1.28,1.44,10.13,21.78,13.5,25.75Z"/>
        <g>
          <path class="cls-48" d="m370.92,104.54c6.9,1.04,11.3,1.73,17,6-1.12,1.72,4.28,2.26,3,6-1.16-.44-1.78-1.9-2.75-2.5-5.72-3.55-23.08-4.95-30.75-5.5-.56-.77-3.54-3.33-4.5-5,6.08.43,11.87.07,18,1Z"/>
          <path class="cls-50" d="m390.92,116.54c-1.02,2.99-3.02-.07-7.25-.5-7.51-.76-15.2-.86-22.75-1-.71-1.59-2.59-5.26-3.5-6.5,7.67.55,25.03,1.95,30.75,5.5.97.6,1.59,2.06,2.75,2.5Z"/>
          <path class="cls-47" d="m352.92,103.54c.96,1.67,3.94,4.23,4.5,5,.91,1.24,2.79,4.91,3.5,6.5.03.06-.96.08-.5,1.25.26.66,6.24,11.56,2.75,10.75-.93-.22-4.4-10.94-5.25-12.5-2.02-3.7-4.93-6.66-8-9.5-.52-.48-1.51-1.61-2-2,3.69-.64,4.74.48,5,.5Z"/>
        </g>
        <path class="cls-42" d="m354.42,221.04c.43,1.4-4,.79-8.25,2.5-7.63,3.08-13.59,10.94-17.25,18-6.95,13.41-7.71,26.98-7,42-3.11.29-5.86.53-9,.5-.18,0-.5-.46-3.5-.5-25.42-.35-51.14-2.21-76.5-2v-10.5c4.6-.7,34.21.91,35.75,0,.51-.3.15-1.45.25-2,6.12,2.41,12.28,4.95,19,5,4.5.02,9-.02,13.5,0,3.13.01,6.54,1.02,9.75.5.62-.44.94-9.58,1.25-11,4.7-21.86,16.83-43.3,42-42.5Z"/>
        <path class="cls-48" d="m346.42,102.04c.47.32,1.43.94,1.5,1,.49.39,1.48,1.52,2,2-6.46,1.55-12.94-.95-19.25-2-3.34-.55-7.16.77-9.75-2.5,8.5.55,16.99,1.18,25.5,1.5Z"/>
        <path class="cls-48" d="m218.42,107.04c.34,1.18,1.86,7.86,2.25,8,.31.11,4.24-2.51,6.25-2,.07.26-.04.68,0,1-9.23,1.03-9.82,6.57-11.5,14.5-.63,2.95-3.21,23.07-3,24.75.35,2.85,2.56,5.92,5.5,6.75,6.26,1.76,13.54-.53,20,1-1.26,1.85-2.73,4.89-4,6.5h-29c.52-11.49,1.55-22.63,3.5-34l2.25-.5c.65,6.04,1.94-7.53,3.75-14.75.92-3.68,2.08-7.24,3-11,.09-.37.66-.25,1-.25Z"/>
        <path class="cls-47" d="m217.92,94.54c.37.64.82.45,1.5,1.5.96,1.47,7.04,15.39,7.5,17-2.01-.51-5.94,2.11-6.25,2-.39-.14-1.91-6.82-2.25-8-.94-3.27-2.15-10.45-3.5-12.5.99-.07,2.02.11,3,0Z"/>
        <path class="cls-45" d="m208.42,133.54c-1.95,11.37-2.98,22.51-3.5,34,0,.18-.8-.3-.5,3.5h-1.5c.64-9.06.48-18.24,2-27.25.67-3.99,2.6-8.6,3-10.5.24-1.16-.52-1.42-.5-1.5.05-.23,1.88-3.75,2-4.25.13,2.06-.66,4.02-1,6Z"/>
        <g>
          <path class="cls-50" d="m214.92,94.54c1.35,2.05,2.56,9.23,3.5,12.5-.34,0-.91-.12-1,.25-.92,3.76-2.08,7.32-3,11-1.81,7.22-3.1,20.79-3.75,14.75l-2.25.5c.34-1.98,1.13-3.94,1-6,1.64-7.05,5.22-20.64,1.5-17.5.52-3.18,1.5-6.16-2.75-7-3.54-.7-63.11,2.86-72,3.5-7.94.57-35.23,1.94-40,5-6.15,3.94-16.38,32.5-20.25,41-4.01,8.8-3.51,12.21-8.75,11l.25-1c2.6-3.66,4.08-7.56,4.5-12,7.65-14.76,14.93-51.64,36-52.5.06,0,.4,1.01.75,1,3.81-.14,7.71.27,11.5,0,7.08-.5,12.58-1.96,13.25-2,12.32-.69,24.71,0,37-1.5,2.38,1.45,18.76.25,23.25,0,.2-.01,1.65-.99,1.75-1,6.34-.34,12.1-.43,18.5-1,.09.78.96.94,1,1Z"/>
          <path class="cls-10" d="m128.67,104.04c4.39-.2,12.92-.25,10,1.5-1.52.91-30.81,1.73-35.25,2.25-.68-1.09,23.55-3.67,25.25-3.75Z"/>
        </g>
        <path class="cls-5" d="m233.92,93.54c-.05,0,.16,1-.25,1-5.28.02-10.46-.58-15.75,0-.98.11-2.01-.07-3,0-.04-.06-.91-.22-1-1,3-.27,6.71.61,9.5-.5l10.5-5c.71,1.49,1.12,4.86,0,5.5Z"/>
        <g>
          <path class="cls-3" d="m379.92,75.04c-1.76-.83-3.31-2.07-5-3,1.93-8.86-4.84-16.04-10-5-8.93-3.98-18.4-6.54-27.5-10-.41-.82,1.46-1.45,1.75-1.5,1.55-.25,29.96-.32,31.5,0,4.6.96,11.87,9.81,9.25,19.5Z"/>
          <path class="cls-17" d="m374.92,72.04c-3.19-1.76-6.67-3.52-10-5,5.16-11.04,11.93-3.86,10,5Z"/>
        </g>
        <g>
          <path class="cls-6" d="m393.42,255.54c1.94,9.65,1.8,19.76,1.5,29.5-2.85.29-5.61.82-8.5.5,2.09-12.28-.64-32.24-8.5-42.25-7.1-9.04-19.62-12.24-30-7.25-5.33,2.56-6.72,5.11-9.5,10-9.59,16.88-4.44,34.21-11.75,37.5-3.02,1.36-4.51-.02-4.75,0-.71-15.02.05-28.59,7-42,3.31,1,3.41-2.47,5-4.25,5.92-6.61,12.53-11.04,21.5-11.75,3.63-.29,6.14-.21,9.75,1,11.31,3.8,15.57,14.33,21,13,4.26,5.24,4.39,13.9,7.25,16Z"/>
          <path class="cls-64" d="m365.92,223.54c15.7,4.96,24.3,16.05,27.5,32-2.86-2.1-2.99-10.76-7.25-16-5.43,1.33-9.69-9.2-21-13-3.61-1.21-6.12-1.29-9.75-1-.76-3.38,2.65-.87,6-3.5,1.88.37,3.28,1.12,4.5,1.5Z"/>
          <path class="cls-6" d="m361.42,222.04c-3.35,2.63-6.76.12-6,3.5-8.97.71-15.58,5.14-21.5,11.75-1.59,1.78-1.69,5.25-5,4.25,3.66-7.06,9.62-14.92,17.25-18,4.25-1.71,8.68-1.1,8.25-2.5.88.03,5.72.75,7,1Z"/>
        </g>
        <path class="cls-57" d="m195.42,204.54c-17.23-8.68-40.21-16.04-59-8.5-2.6,1.04-6.77,3.72-9,5.5-2.53,2.01-8.88,8.05-8,10-4.08,4.78-5.92,15.15-.5,19,.01.08.1.02.5,1.5.04.16-.05.35,0,.5,7.62,25.26,37.47,4.74,20-13,.05-.15-.05-.35,0-.5.05-.14-.03-.33,0-.5,10.46,3.48,13.44,23.5,5,31.75,5.27-.24,12.08,2.44,15-2.75-.55,1.32-.49,2.98-1.75,4-14.87.5-29.89-.67-44.75,0-1.42-22.81.17-45.69-.5-68.5h83.75l-.75,21.5Z"/>
        <path class="cls-48" d="m201.42,175.54c-.6,10.77.44,21.71,0,32.5-.24-.16-.75-.34-1-.5-3.24-2.07-5.29-2.29-5-3l.75-21.5h-83.75c-.07-2.48.19-5.04,0-7.5h89Z"/>
        <path class="cls-37" d="m100.42,255.54c2.83,0,5.67,0,8.5,0-.28,1.25.42,1.99.5,3h-6.5v-.5c-1.3-1.3-24.54-1.43-28.5-1.5,0-.35-.13-.87.25-1,1.22-.42,22.07,0,25.75,0Z"/>
        <path class="cls-54" d="m89.42,165.54c-.4.85-3.74,3.9-4,4-4.58,1.82-4.33-.5-7-2-.2-.11-1.12-2.17-3.75-1-.75.33.14,1,.25,1.5-1.93.11-.71-2.31-.5-3.5,5.06-.62,10.02.73,15,1Z"/>
        <path class="cls-48" d="m94.42,157.04c3.54,5.65,13.59,5.64,13.5,8.5-5.43-2.06-12.43-.53-18.25-1-2.59-6.66.64-5.53,4.75-7.5Z"/>
        <g>
          <g>
            <path class="cls-18" d="m250.42,64.04l-.5,31c-3.31-.27-6.61-1.67-10-1.5v-33c3.43,1.29,7.05,2.2,10.5,3.5Z"/>
            <path class="cls-17" d="m239.92,60.54v33c-2,0-4,0-6,0,1.12-.64.71-4.01,0-5.5l1-1.25v-28.25c1.69.64,3.33,1.37,5,2Z"/>
          </g>
          <path class="cls-18" d="m312.42,88.04v11.5c-3.84-.26-7.62-.22-11.5-.5l.5-15.5c3.69,1.45,7.33,3.04,11,4.5Z"/>
          <path class="cls-17" d="m301.42,83.54l-.5,15.5c-1.85-.13-3.68-.37-5.5-.5v-17c1.94.75,4.05,1.23,6,2Z"/>
          <g>
            <path class="cls-5" d="m207.92,33.04l171.5,68-1,2c-2.88-.57-4.99-.38-7.5,1.5-6.13-.93-11.92-.57-18-1-.26-.02-1.31-1.14-5-.5-.07-.06-1.03-.68-1.5-1-9.81-6.74-22.84-9.57-34-14-3.67-1.46-7.31-3.05-11-4.5-1.95-.77-4.06-1.25-6-2-15.02-5.84-29.91-11.8-45-17.5-3.45-1.3-7.07-2.21-10.5-3.5-1.67-.63-3.31-1.36-5-2-6.51-2.45-12.99-5.03-19.5-7.5-3.45-1.31-7.08-2.19-10.5-3.5-1.67-.64-3.33-1.35-5-2-7.91-3.08-15.64-6.78-23.5-10,6.98-.45,26.27-.09,31.5-2.5Z"/>
            <path class="cls-22" d="m337.42,57.04c9.1,3.46,18.57,6.02,27.5,10,3.33,1.48,6.81,3.24,10,5,1.69.93,3.24,2.17,5,3-.34,1.25-2.92,4.24-3,4.5-1.96-.66-4.1-1.22-6-2-10.65-4.36-21.3-8.31-32-12.5-.83-.32-1.66-.67-2.5-1-24.11-9.47-48.14-19.4-72-29.5-1.65-.7-3.33-.93-3.5-1-2.16-.92-4.3-2.06-6.5-3-.82-.35-1.69-.65-2.5-1-6.48-2.79-13.06-5.62-19.5-8.5-1.49-.67-3.02-1.32-4.5-2-2.66-1.22-5.35-2.72-8-4-1.8-.87-3.54-2-5.5-2.5-.17-.81-5.3-6.61-1-7.5,29.04,8.82,70.63,32.12,100.75,44,7.63,3.01,15.62,5.1,23.25,8Z"/>
            <path class="cls-43" d="m218.92,30.54c2.75,1.12,5.3,2.35,8,3.5,1.98.85,4.01,1.67,6,2.5,5.94,2.48,12.05,4.57,18,7,.59.24.98.59,2,1,1.82.74,3.73,1.28,5.5,2,3.17,1.28,6.31,2.71,9.5,4,18.92,7.63,37.79,15.47,56.75,23,.52.21,6.41,1.27,10.75,3,.83.33,1.66.67,2.5,1,9.24,3.68,18.94,6.99,28,11,2.77,1.22,5.74,2.69,8.5,4,14.6,6.93,17.07,6.82,15,11.5l-10-3L207.92,33.04c.76-.35,5.14-4.8,5.5-5.5,1.2,1.54,3.72,2.28,5.5,3Z"/>
            <path class="cls-18" d="m376.92,79.54c-1.29,4.19-1.98,8.65-2.5,13-2.76-1.31-5.73-2.78-8.5-4l5-11c1.9.78,4.04,1.34,6,2Z"/>
            <path class="cls-7" d="m389.42,104.04c-.11.25-.13,1.99-.5,2.25-1.94,1.38-8.41-2.84-10.5-3.25l1-2,10,3Z"/>
            <path class="cls-17" d="m336.42,64.04l-1,12.5c-4.34-1.73-10.23-2.79-10.75-3-18.96-7.53-37.83-15.37-56.75-23-4.51-2.26-3.09-10.42-3.5-16,23.86,10.1,47.89,20.03,72,29.5Z"/>
            <path class="cls-17" d="m370.92,77.54l-5,11c-9.06-4.01-18.76-7.32-28-11l1-12.5c10.7,4.19,21.35,8.14,32,12.5Z"/>
            <path class="cls-17" d="m251.92,29.54l-1,14c-5.95-2.43-12.06-4.52-18-7l-.5-15.5c6.44,2.88,13.02,5.71,19.5,8.5Z"/>
            <path class="cls-17" d="m227.92,19.04l-1,15c-2.7-1.15-5.25-2.38-8-3.5l1-15.5c2.65,1.28,5.34,2.78,8,4Z"/>
            <path class="cls-17" d="m260.92,33.54l-2.5,13c-1.77-.72-3.68-1.26-5.5-2l1.5-14c2.2.94,4.34,2.08,6.5,3Z"/>
            <path class="cls-16" d="m232.42,21.04l.5,15.5c-1.99-.83-4.02-1.65-6-2.5l1-15c1.48.68,3.01,1.33,4.5,2Z"/>
            <path class="cls-16" d="m264.42,34.54c.41,5.58-1.01,13.74,3.5,16-3.19-1.29-6.33-2.72-9.5-4l2.5-13c.17.07,1.85.3,3.5,1Z"/>
            <path class="cls-16" d="m219.92,15.04l-1,15.5c-1.78-.72-4.3-1.46-5.5-3,1.96-3.81,1.87-10.8,1-15,1.96.5,3.7,1.63,5.5,2.5Z"/>
            <path class="cls-18" d="m254.42,30.54l-1.5,14c-1.02-.41-1.41-.76-2-1l1-14c.81.35,1.68.65,2.5,1Z"/>
            <path class="cls-18" d="m338.92,65.04l-1,12.5c-.84-.33-1.67-.67-2.5-1l1-12.5c.84.33,1.67.68,2.5,1Z"/>
          </g>
          <g>
            <path class="cls-24" d="m213.42,5.04c-4.3.89.83,6.69,1,7.5.87,4.2.96,11.19-1,15-.36.7-4.74,5.15-5.5,5.5-5.23,2.41-24.52,2.05-31.5,2.5-2.83.18-12.1,4.45-20.75-1.5-14.86-10.22-5.18-40.47,22-27.5,5.2-6.28,12.75-7.41,20.5-6,.78.14,12.82,3.76,15.25,4.5Z"/>
            <g>
              <g>
                <path class="cls-3" d="m183.92,27.54c-8.38-5.85-5.6-20.03,3.5-22.5,13.48,1.77,11.82,28-3.5,22.5Z"/>
                <path class="cls-58" d="m197.92,8.04c.41,1.61,1.35,2.82,1.5,3.5,3.18,14.96-7.09,21.87-15.5,16,15.32,5.5,16.98-20.73,3.5-22.5,4.8-1.3,6.97-.2,10.5,3Z"/>
              </g>
              <g>
                <path class="cls-36" d="m164.42,32.04c-11.36-.27-12.33-21.57-2-23.5,8.09,6.15,10.03,16.32,2,23.5Z"/>
                <path class="cls-64" d="m164.42,32.04c8.03-7.18,6.09-17.35-2-23.5,13.75-2.57,15.22,23.82,2,23.5Z"/>
              </g>
              <path class="cls-22" d="m199.42,11.54c-.15-.68-1.09-1.89-1.5-3.5-.38-1.52-1.17-1.71-1-2.25,7.2-2.11,13.41,11.31,10,16.5-3.73,5.66-2.72-12.72-7.5-10.75Z"/>
            </g>
          </g>
          <g>
            <path class="cls-17" d="m204.92,47.54v38.5c-1.78-.53-3.69-.96-5.5-1.5.66-.88.46-1.53.5-2.5.48-12.13-.36-24.36,0-36.5,1.67.65,3.33,1.36,5,2Z"/>
            <path class="cls-16" d="m199.92,82.04c-.04.97.16,1.62-.5,2.5-2.43-.72-3.2-2.33-4,0-.02-.83.04-1.67,0-2.5h4.5Z"/>
            <path class="cls-18" d="m215.42,51.04l-.5,38c-3.2-1.11-6.73-2.03-10-3v-38.5c3.42,1.31,7.05,2.19,10.5,3.5Z"/>
            <path class="cls-28" d="m199.42,84.54c1.81.54,3.72.97,5.5,1.5,3.27.97,6.8,1.89,10,3,2.41.84,6.22,2.68,8.5,4-2.79,1.11-6.5.23-9.5.5l-.25-1c-6.09-.78-12.17-1.59-18.25-2.5.03-1.83.05-3.67,0-5.5.8-2.33,1.57-.72,4,0Z"/>
          </g>
        </g>
        <g>
          <path class="cls-45" d="m71.92,150.54c-.42,4.44-1.9,8.34-4.5,12h-.5c.45-1.78,1.76-1.87.25-3-2.82-.47-20.62.62-21.5,0-.64-.45-.04-6.26-.25-7.5.08,0-.23-.74,1.5-.5.5.15.6.48,1,.5-4.77,6.86,12.33,4.61,22,3.75l-1-26.75c-.56-1.33-13.55-4.51-14.5-2.75-.07,1.07.1,2.18,0,3.25-.52,5.84.39,13.19,0,19.25-.9,1.45-2.12,1.62-3.5,2.25-2.26-7.9-.19-17.82-1.5-26.5.91-.07,2.31,1.03,3.25.5.31-.18.46-2.23,1-2.5,1.94-.95,15.89,1.82,17.75,5.25-.04,7.47,1.2,15.3.5,22.75Z"/>
          <g>
            <path class="cls-48" d="m45.42,125.04c1.9,1.31.49,1.42.5,1.5-6.46-.07-3.12,10.52.5,3.5.47,5.71,1.91,17.04-1.5,20.25,2.31.55,1.89,1.22,2,1.25-1.73-.24-1.42.5-1.5.5-7.32-.04-6.23-14.63-5.5-19.75.56-3.89,1.57-6.12,5.5-7.25Z"/>
            <path class="cls-47" d="m49.42,124.54c1.31,8.68-.76,18.6,1.5,26.5-.48.22-2.84,1.01-3,1-.4-.02-.5-.35-1-.5-.11-.03.31-.7-2-1.25,3.41-3.21,1.97-14.54,1.5-20.25-.11-1.28-.32-2.27-.5-3.5-.01-.08,1.4-.19-.5-1.5,1.82-.52,2.33-.37,4-.5Z"/>
            <path class="cls-15" d="m45.92,126.54c.18,1.23.39,2.22.5,3.5-3.62,7.02-6.96-3.57-.5-3.5Z"/>
          </g>
        </g>
        <g>
          <path class="cls-20" d="m109.42,174.04c1.02,3.35.54,62.96,0,70-.07.88.08,4.53,0,4.75-.9,2.4-8.42,4.43-12,2.75-2.52-1.18-36.9-29.29-44-34,0-.17-1-3.07-1-3.25-.07-7.73-.23-24.88.5-31.75.5-4.73,1.18-5.3,3-9l53.5.5Z"/>
          <path class="cls-59" d="m85.42,171.04c1.5,0,3,0,4.5,0,5.17.01,18.02-1.86,19.5,3l-53.5-.5c.16-.32.32-.71.5-1,1.77-1.6,5.04-.96,8-1,3.55-.05,7.32.57,10.75.5,3.37-.07,6.74-.99,10.25-1Z"/>
          <path class="cls-12" d="m74.42,164.54c-.21,1.19-1.43,3.61.5,3.5.1.46-.06,1.02,0,1.5-3.81,1.74-2.82.39-6,.5l-4-4c.77-.4.42.46,1.5-1.5h8Z"/>
          <path class="cls-25" d="m64.92,166.04l4,4c-1.21.04-4.56.35-4.5,1.5-2.96.04-6.23-.6-8,1,4.59-7.33,5.76-5.06,8.5-6.5Z"/>
          <path class="cls-17" d="m97.42,251.54l-43.75.5c-.61-11.49-.05-23-.25-34.5,7.1,4.71,41.48,32.82,44,34Z"/>
          <path class="cls-36" d="m109.42,244.04c.54-7.04,1.02-66.65,0-70-1.48-4.86-14.33-2.99-19.5-3,0-.35-.13-.87.25-1,.98-.34,19.23-.82,20.25,2.25-.55,8.33.96,7.1,1,7.5.37,3.69.33,41.53,0,47-.03.46-1.47.04-1.5.5-.38,5.53.69,11.25-.5,16.75Z"/>
          <path class="cls-32" d="m85.42,169.54v1.5c-3.51,0-6.88.93-10.25,1-3.43.07-7.2-.55-10.75-.5-.06-1.15,3.29-1.46,4.5-1.5,3.18-.11,2.19,1.24,6-.5.35-.16.39-1.27,3.5-2,2.67,1.5,2.42,3.82,7,2Z"/>
          <path class="cls-35" d="m78.42,167.54c-3.11.73-3.15,1.84-3.5,2-.06-.48.1-1.04,0-1.5-.11-.5-1-1.17-.25-1.5,2.63-1.17,3.55.89,3.75,1Z"/>
        </g>
        <g>
          <path class="cls-64" d="m207.92,215.54c9.22,3.14,18.06,13.51,21.5,22.5.99,2.6,2.01,6.27,2.5,9,.52,2.95.27,6.04.5,9,.23,2.91.43,5.57.5,8.5.05,2.16-.04,4.33,0,6.5v10.5c-2.09.02-4.25.76-6.5.5.24-14.16,2.15-33.85-5-46.5-1.68-2.96-6.11-7.94-8.75-10-23.09-17.96-44.81,2.79-49.75,26.25.73,1.83,6.23-.22,10.5.75,2.34.53,4.46,1.8,6.5,3l-.5.5c-3.32-1.17-61.19-.51-70.5-.5-2.83,0-5.67,0-8.5,0-.72-4.39,9.06-3.84,12.5-4,14.86-.67,29.88.5,44.75,0,1.26-1.02,1.2-2.68,1.75-4,2.19-5.29,3.37-10.66,7-16.25,9.04-13.91,25.36-21.25,41.5-15.75Z"/>
          <path class="cls-6" d="m221.42,235.54c-2.93.63.28,2.2-5.5,2-7.52-9.85-18.45-12.12-29-5.5-3.6,2.26-4.95,3.52-7.5,7-1.79,2.45-2.74,4.79-4,7.5-.7,1.5-2.8,3.93-2,6-4.27-.97-9.77,1.08-10.5-.75,4.94-23.46,26.66-44.21,49.75-26.25,2.64,2.06,7.07,7.04,8.75,10Z"/>
          <path class="cls-58" d="m221.42,235.54c7.15,12.65,5.24,32.34,5,46.5-.72-.08-2.63.27-3-.25,1.11-13.62,1.23-32.82-7.5-44.25,5.78.2,2.57-1.37,5.5-2Z"/>
        </g>
        <path class="cls-15" d="m67.92,258.54v9.5c-1.66.24-3.24.85-5,.5-.16-.07-.82.25-1.5-.75v-8.5c.95-1.33,3.74-.58,6.5-.75Z"/>
        <path class="cls-9" d="m102.92,258.54v.5c-7.48-.19-27.44,1.92-33.5.5-.47-.11-.95-.49-1-1,11.45-.57,23.06.83,34.5-.5v.5Z"/>
        <path class="cls-41" d="m69.42,259.54l-.5,8c-.06,0,.39.29-1,.5v-9.5c.17-.01.33,0,.5,0,.05.51.53.89,1,1Z"/>
        <path class="cls-15" d="m109.42,258.54c.17,2.21.02,4.75,0,7,.64,3.31-2.18,2.52-6.5,2.5v-9.5h6.5Z"/>
        <path class="cls-11" d="m102.92,259.04v9c-11.11-.05-22.94-1.59-34-.5l.5-8c6.06,1.42,26.02-.69,33.5-.5Z"/>
        <path class="cls-47" d="m239.92,93.54c3.39-.17,6.69,1.23,10,1.5,1.09.09,1.91.41,3,.5,3.16,4.67,10.47,11.15,13,16,.1.19-.1.8,0,1-3.08,4.23-11.08-15.15-20.75-17.5-1.89-.46-23.8-.35-25,0-.42.12-.02,1.07-.75,1-.68-1.05-1.13-.86-1.5-1.5,5.29-.58,10.47.02,15.75,0,.41,0,.2-1,.25-1,2,0,4,0,6,0Z"/>
        <path class="cls-13" d="m312.42,263.54c-.31,1.42-.63,10.56-1.25,11-3.21.52-6.62-.49-9.75-.5-.53-3.46.5-7.12.5-10.5h10.5Z"/>
        <path class="cls-47" d="m265.92,112.54c8.26,16.9,5.4,34.02,6,35.75.14.39.67.25,1,.25-.03,9.5.09,19,0,28.5-.07,7.66-.51,15.32-.5,23,0,14.17.97,28.35,0,42.5-.77-1.52-1.31-2.92-2.75-4-1.57-.58-3.16-.35-4.75-.5.5-17.16,1.36-34.33,1.5-51.5.02-1.86,1.56-11.7-.25-12.5-6.43-.54-21.27.73-25.25,0-.07-.01.22-1.37-.25-1.5-6.73.97-4.84-.55,1.25-10,.58-.9.45-1.44.5-1.5,4.35-1.3,14.83,1.01,17-4.25.7-1.71,1.01-34.23.5-37-1.61-8.78-13.66-7.76-20.25-7.25-.41.03-.2,1-.25,1-.71.05-1,1.32-2,1-2.64-.66-7.88-.79-10.5-.5-.04-.32.07-.74,0-1-.46-1.61-6.54-15.53-7.5-17,.73.07.33-.88.75-1,1.2-.35,23.11-.46,25,0,9.67,2.35,17.67,21.73,20.75,17.5Z"/>
        <g>
          <path class="cls-37" d="m294.92,113.54c5.84,19.02,5.52,63.14,6,85l-15-.25c-1.08-4.45.22-16.41,0-18.5-.04-.39-1.09-.03-1-.75,1.62-.38,3.56-1.33,4.5-2.75,3.2-4.82,1.12-32.75-.5-39.25-.57-2.27-.46-4.99-3-6.5,6.31-9.65-1.85-18.31,9-17Z"/>
          <path class="cls-19" d="m301.42,202.54c0,.33,0,.67,0,1,0,13.5,0,27,0,40.5,0,6.49.5,13.05.5,19.5,0,3.38-1.03,7.04-.5,10.5-4.5-.02-9,.02-13.5,0l-.5-47c1.14.18,5.76.24,6.5-.5.95-.94.39-2.75.5-4,.89-.57,5.82-1.49,6-1.75.8-1.16-1.34-17.05,1-18.25Z"/>
          <path class="cls-37" d="m286.92,98.04c3.23,5.17,4.96,8.26,7,14l-28-.5c-2.53-4.85-9.84-11.33-13-16,11.33.9,22.67,1.64,34,2.5Z"/>
          <path class="cls-55" d="m293.92,112.04c.23.64.8.86,1,1.5-10.85-1.31-2.69,7.35-9,17-4.63-2.76-11.04-.61-12,8.5-1.77-1.29-.98,3.28-1,9.5-.33,0-.86.14-1-.25-.6-1.73,2.26-18.85-6-35.75-.1-.2.1-.81,0-1l28,.5Z"/>
          <path class="cls-13" d="m273.92,177.54c3.65,1.32,7.2,2.4,11,1.5-.09.72.96.36,1,.75.22,2.09-1.08,14.05,0,18.5l15,.25c.01.67-.01,1.33,0,2-4.5-.09-9.01.12-13.5,0-4.97-.14-9.99-.93-15-.5,0-7.68.43-15.34.5-23,.4.04.57.34,1,.5Z"/>
          <path class="cls-37" d="m300.92,200.54c0,.1.45-.57.5,2-2.34,1.2-.2,17.09-1,18.25-.18.26-5.11,1.18-6,1.75.24-2.63-.17-5.36,0-8l-.25-1c-2.08.22-4.83-.3-6.75,0v-13c4.49.12,9-.09,13.5,0Z"/>
          <path class="cls-55" d="m287.42,200.54v13c-.94.15-1.79-.38-2.5.75v12c.71,1.13,1.56.6,2.5.75l.5,47c-6.72-.05-12.88-2.59-19-5,.23-1.24-.16-3.11,0-4.5,1.15-.08,7.18-.54,7.5-1.25.42-3.52-.48-6.41-.5-6.75-.07-1.58.38-3.3,0-5-.1-.47-3.27-8.55-3.5-9,.97-14.15,0-28.33,0-42.5,5.01-.43,10.03.36,15,.5Z"/>
          <g>
            <path class="cls-33" d="m287.42,213.54c1.92-.3,4.67.22,6.75,0l.25,1c-3.72-2.34-3.58,11.87-.5,12-.74.74-5.36.68-6.5.5-.94-.15-1.79.38-2.5-.75v-12c.71-1.13,1.56-.6,2.5-.75Z"/>
            <path class="cls-22" d="m294.42,214.54c-.17,2.64.24,5.37,0,8-.11,1.25.45,3.06-.5,4-3.08-.13-3.22-14.34.5-12Z"/>
          </g>
          <g>
            <path class="cls-26" d="m288.92,137.04c1.62,6.5,3.7,34.43.5,39.25-.94,1.42-2.88,2.37-4.5,2.75-3.8.9-7.35-.18-11-1.5-.48-10.09-.83-28.58,0-38,1.48-5.21,2.05-2.87,2.25-3,3.79-2.48,11.69-4.92,12.75.5Z"/>
            <path class="cls-60" d="m285.92,130.54c2.54,1.51,2.43,4.23,3,6.5-1.06-5.42-8.96-2.98-12.75-.5-.2.13-.77-2.21-2.25,3,.01-.17-.02-.34,0-.5.96-9.11,7.37-11.26,12-8.5Z"/>
            <path class="cls-51" d="m273.92,139.04c-.02.16.01.33,0,.5-.83,9.42-.48,27.91,0,38-.43-.16-.6-.46-1-.5.09-9.5-.03-19,0-28.5.02-6.22-.77-10.79,1-9.5Z"/>
          </g>
        </g>
        <path class="cls-4" d="m268.92,264.54c-.16,1.39.23,3.26,0,4.5-.1.55.26,1.7-.25,2-1.54.91-31.15-.7-35.75,0-.04-2.17.05-4.34,0-6.5,10.82-1.37,25.37.75,36,0Z"/>
        <g>
          <path class="cls-55" d="m209.42,127.54c-.12.5-1.95,4.02-2,4.25-.02.08.74.34.5,1.5-.4,1.9-2.33,6.51-3,10.5-1.52,9.01-1.36,18.19-2,27.25-.51,7.29-1.48,4.21-1.5,4.5h-89c-.33-4.25.5-3.35-2-7.5-.16-.26.35-.57.5-.75-.73-1.06-1.9-1.33-3-1.75.09-2.86-9.96-2.85-13.5-8.5,3.8-1.82,7.82-3.17,11.5-5.25l-7.5-1.25c.33-.02.67.02,1,0,3.86-.19,7.63-.37,11.5-.5,17.21-.56,34.55.03,51.75-.5.21,0,.66-.98,1.25-1,8.48-.26,17.02.32,25.5,0,3.54-.14,7.4,1.15,11-5.25.85-1.52,10.22-31.53,10.5-33.25,3.72-3.14.14,10.45-1.5,17.5Z"/>
          <path class="cls-48" d="m172.42,158.04c1.6,2.44,2.44,4.29,5,6,.77.51.36,1.23,1.5,1-1.38.24-12.14.26-12.5-.25-.17-.24-.12-5.73,0-6,.53-1.2,4.78-.75,6-.75Z"/>
          <path class="cls-2" d="m178.92,165.04c-1.14.23-.73-.49-1.5-1l-1.5-5c.07.03.46-1.1,1.5-.25.81.66,2.1,4.94,3.5,6-.32.5-1.44.15-2,.25Z"/>
          <path class="cls-6" d="m175.92,159.04l1.5,5c-2.56-1.71-3.4-3.56-5-6,3.99-.01,2.6.66,3.5,1Z"/>
        </g>
        <path class="cls-47" d="m233.92,167.54c-.84,1.07-1.55,2.33-2.25,3.5h-27.25c-.3-3.8.49-3.32.5-3.5h29Z"/>
        <path class="cls-2" d="m226.92,114.04c2.62-.29,7.86-.16,10.5.5.39,1.25-.03,1.75.5,3-3.96.42-11.93-.96-15,1-6.73-2.87-4.71,8.16-7.5,10,1.68-7.93,2.27-13.47,11.5-14.5Z"/>
        <g>
          <path class="cls-50" d="m52.42,183.04c-.07.99.11,2.02,0,3-2.9-5.64-.71,11.58-1.75,19.5-7.86-6.1-17.29-10.35-24.25-17.5,8.65-5.3,16.55-4.28,26-5Z"/>
          <g>
            <path class="cls-50" d="m52.42,186.04c-1.52,13.87-.87,46.83-1.5,65.5-9.14.83-36.93-.91-40.5-.5.85-18.83-2.56-51.62,16-63,6.96,7.15,16.39,11.4,24.25,17.5,1.04-7.92-1.15-25.14,1.75-19.5Z"/>
            <g>
              <g>
                <path class="cls-48" d="m16.42,230.54c1,.27,1.36,1.39,2,2h-.5c-1.15,12.8,17.09,16.43,21.5,5l2.5,1c-4.19,11.27-7.71,13.9-19.25,12.5-4.39-6.08-6.63-12.89-7.25-20.25-.03-.4,1-.2,1-.25Z"/>
                <path class="cls-47" d="m41.92,238.54l-2.5-1c.92-2.39-.03-2.38,0-2.5,1.8-7.06,3.14-12.7-3-18v-1.5c8.17,7.21,9.22,12.99,5.5,23Z"/>
                <path class="cls-45" d="m39.42,235.04c-.03.12.92.11,0,2.5-4.41,11.43-22.65,7.8-21.5-5,5.7,9.45,13.76,10.54,21.5,2.5Z"/>
              </g>
              <g>
                <path class="cls-25" d="m36.42,215.54v1.5c-.17-.15-2.7-.5-4-2.25-.07-.82.12-2.09,0-2.25-5.76-7.8-16.14-1.84-17,7.5-.52,5.66.97,8.22,1,9,0,.33-.02.67,0,1-14.36-21.49,20-33.93,20-14.5Z"/>
                <path class="cls-45" d="m32.42,212.54c.12.16-.07,1.43,0,2.25,1.3,1.75,3.83,2.1,4,2.25,6.14,5.3,4.8,10.94,3,18-7.74,8.04-15.8,6.95-21.5-2.5h.5c2.55,2.44,5.93,4.49,9.5,4.5,3.18,0,7.29-1.73,9-4.5,8.37-13.53-12.97-23.97-19.5-13-1.75,2.94-2,5.78-.5,9l-.5.5c-.03-.78-1.52-3.34-1-9,2.73-2.12,4.09-6.33,7.75-7.5,6.86-2.2,8.48,3.3,9.25,0Z"/>
                <path class="cls-47" d="m32.42,212.54c-.77,3.3-2.39-2.2-9.25,0-3.66,1.17-5.02,5.38-7.75,7.5.86-9.34,11.24-15.3,17-7.5Z"/>
                <g>
                  <path class="cls-31" d="m34.42,228.54c-.13.38.14,1.21,0,1.5-2.57,5.53-4.95,3.9-6.5,7-3.57,0-6.95-2.06-9.5-4.5-.64-.61-1-1.73-2-2-.01-.17.01-.33,0-.5-.02-.33,0-.67,0-1l.5-.5c.3.64,5.26,5.79,6.75,6,6.03.84,14.46-6.33,1-9,1.84-3.11,7.17,1.9,9.75,3Z"/>
                  <path class="cls-49" d="m34.42,228.54c-2.58-1.1-7.91-6.11-9.75-3,13.46,2.67,5.03,9.84-1,9-1.49-.21-6.45-5.36-6.75-6-1.5-3.22-1.25-6.06.5-9,8.2-4.89,20.6-3.76,18,8.25-.09.43-.98.69-1,.75Z"/>
                  <path class="cls-12" d="m36.92,232.54l-2.5-2.5c.14-.29-.13-1.12,0-1.5.02-.06.91-.32,1-.75,2.6-12.01-9.8-13.14-18-8.25,6.53-10.97,27.87-.53,19.5,13Z"/>
                  <path class="cls-12" d="m36.92,232.54c-1.71,2.77-5.82,4.51-9,4.5,1.55-3.1,3.93-1.47,6.5-7l2.5,2.5Z"/>
                </g>
              </g>
            </g>
          </g>
        </g>
        <path class="cls-50" d="m171.92,213.54c9.35-5.5,17.58-8.38,28.5-6,.25.16.76.34,1,.5.63.42,1.14,1.1,2,1-.05.79.87.39,1,.5,1.32,1.11,5.48,6.05,3.5,6-16.14-5.5-32.46,1.84-41.5,15.75-3.63,5.59-4.81,10.96-7,16.25-2.92,5.19-9.73,2.51-15,2.75,8.44-8.25,5.46-28.27-5-31.75,2.4-12.27-13.35-14.81-20-7-.88-1.95,5.47-7.99,8-10,11.37-.95,17.56,6.24,26.25,11,16.84,9.24,14.46,3.23,18.25,1Z"/>
        <g>
          <path class="cls-55" d="m195.42,204.54c-.29.71,1.76.93,5,3-10.92-2.38-19.15.5-28.5,6-11.23-3.7-19.31-14.22-31.25-16.5-2.3-.44-3.4,1.85-4.25-1,18.79-7.54,41.77-.18,59,8.5Z"/>
          <path class="cls-50" d="m171.92,213.54c-3.79,2.23-1.41,8.24-18.25-1-8.69-4.76-14.88-11.95-26.25-11,2.23-1.78,6.4-4.46,9-5.5.85,2.85,1.95.56,4.25,1,11.94,2.28,20.02,12.8,31.25,16.5Z"/>
        </g>
        <path class="cls-45" d="m119.42,232.54c4.96,4.29,5.53,9.46,14.75,8,2.78-.44,6.23-2.11,4.25-5.5,5.04-3.73,4.25-10.71.5-15-.05-.62.49-.47.5-.5,17.47,17.74-12.38,38.26-20,13Z"/>
        <path class="cls-47" d="m254.92,238.04c-8.49-.21-17.01.15-25.5,0-3.44-8.99-12.28-19.36-21.5-22.5,1.98.05-2.18-4.89-3.5-6,1.68.44-.41-2.29,1.75-1.5,1.71.62,25.51,17.18,30.5,20,6.14,3.47,18.01,7.35,18.25,10Z"/>
        <g>
          <path class="cls-55" d="m254.92,238.04c3.18.08,7.03-.28,10,0,1.59.15,3.18-.08,4.75.5,1.44,1.08,1.98,2.48,2.75,4,.23.45,3.4,8.53,3.5,9-14.76.33-29.43-2.28-44-4.5-.49-2.73-1.51-6.4-2.5-9,8.49.15,17.01-.21,25.5,0Z"/>
          <path class="cls-47" d="m275.92,256.54c.02.34.92,3.23.5,6.75-.32.71-6.35,1.17-7.5,1.25-10.63.75-25.18-1.37-36,0-.07-2.93-.27-5.59-.5-8.5l43.5.5Z"/>
          <path class="cls-48" d="m275.92,251.54c.38,1.7-.07,3.42,0,5l-43.5-.5c-.23-2.96.02-6.05-.5-9,14.57,2.22,29.24,4.83,44,4.5Z"/>
        </g>
        <g>
          <path class="cls-47" d="m193.92,77.04c-2.1,13.04,3.6,14.31-8,13.5h-1c.12-1.43.24-11.65-.25-12h-12.25c1.06-.86,1.24-.94,2.5-1.5,2.61-.23,16.81-.26,19,0Z"/>
          <path class="cls-2" d="m195.42,82.04c.04.83-.02,1.67,0,2.5.05,1.83.03,3.67,0,5.5-.02,1.45-.51,3.05,0,4.5-.1,0-1.55.99-1.75,1-4.49.25-20.87,1.45-23.25,0-3.8-2.31-4.21-17.12.75-18.5.72-.2,2.48.11,3.75,0-1.26.56-1.44.64-2.5,1.5-3.75,3.03-5.12,15.56,3.25,16.5,2.47.28,5.61-.98,8.5-.5,1.25-.86.62-2.47.75-4h.5c-2.63,7.28,12.14,3.26,8.25.5-.66-.47-6.2.73-7.75-.5,11.6.81,5.9-.46,8-13.5.51.06.58-1.04,1.5.25.06,1.58-.08,3.17,0,4.75Z"/>
          <path class="cls-8" d="m185.42,90.54h.5c1.55,1.23,7.09.03,7.75.5,3.89,2.76-10.88,6.78-8.25-.5Z"/>
          <g>
            <path class="cls-23" d="m184.92,90.54c-.13,1.53.5,3.14-.75,4-2.89-.48-6.03.78-8.5.5-8.37-.94-7-13.47-3.25-16.5h12.25c.49.35.37,10.57.25,12Z"/>
            <path class="cls-64" d="m174.67,81.04c.33-.15,6.76-.36,7.25.75.32,4.94,1.31,14.38-6.75,11.25-2.03-.79-1.55-11.53-.5-12Z"/>
          </g>
        </g>
        <g>
          <path class="cls-2" d="m109.42,79.04v2c-2.16,1.27-3.09,14.25,1.75,15.5,1.65.43,7.23-.31,10,0,1.13-.78.7-1.92.75-3,2.83-.07,5.67.1,8.5,0,.98-.03,1.62.16,2.5-.5.02,1.35-.3,2.76.5,4-.67.04-6.17,1.5-13.25,2-3.79.27-7.69-.14-11.5,0-.35.01-.69-1-.75-1-2.51-4.16-4.16-17.14,1.5-19Z"/>
          <path class="cls-38" d="m132.92,93.04c-.88.66-1.52.47-2.5.5,1.24-17.87,2.11-13.14-8.5-13-2.67.03-10.86-.46-12.5.5v-2c6.37-2.09,16.48.52,23.25-.5.59.42.22,12.56.25,14.5Z"/>
          <path class="cls-47" d="m130.42,93.54c-2.83.1-5.67-.07-8.5,0,.21-4.17-1.32-8.74,0-13,10.61-.14,9.74-4.87,8.5,13Z"/>
          <g>
            <path class="cls-23" d="m121.92,80.54c-1.32,4.26.21,8.83,0,13-.05,1.08.38,2.22-.75,3-2.77-.31-8.35.43-10,0-4.84-1.25-3.91-14.23-1.75-15.5,1.64-.96,9.83-.47,12.5-.5Z"/>
            <path class="cls-64" d="m111.67,83.54c.35-.18,6.59.96,7.75.75l-.25,9.25c-.7.5-11.71,3.15-8.75-9.25.6-.17.98-.62,1.25-.75Z"/>
          </g>
        </g>
        <path class="cls-48" d="m216.92,176.04c1.08,3.22,4.74,7,7.5,9,.11.08,1,1.51,1.75,2,1.74-.24,3.53-.73,5.25-1-.03.31.59.96.75,1,1.67.37,28.67-1.3,34.25-.5-.14,17.17-1,34.34-1.5,51.5-2.97-.28-6.82.08-10,0-.24-2.65-12.11-6.53-18.25-10-4.99-2.82-28.79-19.38-30.5-20-2.16-.79-.07,1.94-1.75,1.5-.13-.11-1.05.29-1-.5,1.24-10.87.15-21.81.5-32.75.38-.53,11.23-.19,13-.25Z"/>
        <path class="cls-48" d="m266.42,186.54c-5.58-.8-32.58.87-34.25.5-.16-.04-.78-.69-.75-1,8.51-1.35,6.63-1.2,9.5-12,3.98.73,18.82-.54,25.25,0,1.81.8.27,10.64.25,12.5Z"/>
        <g>
          <path class="cls-47" d="m289.92,99.04l7.75,13.5,60.25,2c.85,1.56,4.32,12.28,5.25,12.5,3.49.81-2.49-10.09-2.75-10.75-.46-1.17.53-1.19.5-1.25,7.55.14,15.24.24,22.75,1,4.23.43,6.23,3.49,7.25.5,1.28-3.74-4.12-4.28-3-6,18.69,14.02,18.08,60.51,19.5,82.25l8.5,1v8.5l-8.5,1c-.92,14.89,1.23,57.73,0,66.5-.43,3.08-5.86,14.79-8.75,15.75-3.6.33-3.56-.52-3.75-.5.3-9.74.44-19.85-1.5-29.5-3.2-15.95-11.8-27.04-27.5-32,.12-2.25-7.66-6.27-9.75-7-15.99-5.62-28.91,1.5-40.25,12.5-3.37-3.97-12.22-24.31-13.5-25.75-.45-.5-.39.22-1,.25,0-.33,0-.67,0-1-.05-2.57-.5-1.9-.5-2-.01-.67.01-1.33,0-2-.48-21.86-.16-65.98-6-85-.2-.64-.77-.86-1-1.5-2.04-5.74-3.77-8.83-7-14,.47.04,2.53.96,3,1Z"/>
          <g>
            <path class="cls-2" d="m313.17,135.04c3.6-.77,28.73,1.37,32,3,10.27,5.11,10.79,39.11,10.25,41.25-.14.56-2.25,3.03-2.75,3.25-1.65.72-33.92-.58-36-1-4.53-.92-8.49-5.21-9.25-9.75-.26-1.55-.36-29.97,0-31.5.38-1.62,4.13-4.9,5.75-5.25Z"/>
            <path class="cls-3" d="m350.42,153.04c.86,4.48,1.5,15.6,1.5,20.5l-42.5-1.5c-1-4.02-.97-14.25-1-19h42Z"/>
            <path class="cls-1" d="m350.42,153.04h-42c-.03-4.23-2.18-13.91,4.25-15.5,2.95-.73,28.24,1.48,31,3,3.77,2.08,5.97,8.44,6.75,12.5Z"/>
            <path class="cls-44" d="m351.92,173.54c0,.38,1.64,5.39-1.25,7-2.21,1.23-34.25-.6-37-2-1.76-.9-3.77-4.59-4.25-6.5l42.5,1.5Z"/>
          </g>
          <g>
            <path class="cls-40" d="m377.42,136.04c-.13,1.57,11.13,1.57,11,0,4.08.47,8.68,2.27,10.5,6.25,1.34,2.93,5.49,34.22,4.5,36.5-.62,1.44-3.77,2.99-5.25,3.25-4.09.72-29.38.45-32-2-2.05-1.92-6.5-34.89-6.25-36.75,1.16-8.68,11.29-7.12,17.5-7.25Z"/>
            <g>
              <path class="cls-2" d="m388.42,136.04c.13,1.57-11.13,1.57-11,0,3.03-.06,8.58-.28,11,0Z"/>
              <g>
                <path class="cls-1" d="m394.42,141.54c-.34,4.48-2.87,14.13-7,16.5-.22-1.63-.52-3.27-1.75-4.5-18.2-.81-19.4-3.17-19.25,9l-1.5.5c-.79-5.19-4.27-21.71,1.25-24,1.55-.64,21.25-.88,23.5-.5,1.58.26,3.67,1.68,4.75,3Z"/>
                <path class="cls-1" d="m397.42,179.54l-9.25-.5c.25-1.61-.09-2.93-.25-4.5-.52-5.09-.02-12.89-.5-16.5,4.13-2.37,6.66-12.02,7-16.5,3.3,4.03,6.26,34.57,5.5,36.25-.41.91-1.58,1.42-2.5,1.75Z"/>
                <path class="cls-56" d="m366.42,162.54c.03,2.15.81,11.15,2.25,12h19.25c.16,1.57.5,2.89.25,4.5l9.25.5c-1.28.46-25.94.36-27.25,0-4.06-1.11-4.5-11.62-5.25-16.5l1.5-.5Z"/>
                <path class="cls-39" d="m387.42,158.04c.48,3.61-.02,11.41.5,16.5h-19.25c-1.44-.85-2.22-9.85-2.25-12-.15-12.17,1.05-9.81,19.25-9,1.23,1.23,1.53,2.87,1.75,4.5Z"/>
              </g>
            </g>
          </g>
        </g>
        <g>
          <path class="cls-22" d="m347.92,236.04c5.46.91,11.47,6.66,15.5,10.75-3.97.02-23.16.8-24.75.25-.38-.13-.25-.65-.25-1,2.78-4.89,4.17-7.44,9.5-10Z"/>
          <g>
            <path class="cls-33" d="m386.42,285.54c-.14.81-4.37,12.24-5,15.75-3.75,7.4-7.33,14.5-14,19.75-.94.74-5.82,4.4-6.25,4.5-14.12-1.2-23.79,2.16-34.25-8.5-8.51-8.68-13.43-20.93-14-33,3.14.03,5.89-.21,9-.5.24-.02,1.73,1.36,4.75,0,7.31-3.29,2.16-20.62,11.75-37.5,0,.35-.13.87.25,1,1.59.55,20.78-.23,24.75-.25-4.03-4.09-10.04-9.84-15.5-10.75,10.38-4.99,22.9-1.79,30,7.25,7.86,10.01,10.59,29.97,8.5,42.25Z"/>
            <path class="cls-44" d="m355.92,260.54l4,16.5c-7.47-1.08-9.17,16.2,2,11.5-1.36,5.68-4.21,10.96-3.5,17-19.71,2.9-22.92-44.2-2.5-45Z"/>
            <path class="cls-41" d="m358.42,305.54c-.71-6.04,2.14-11.32,3.5-17,.67-2.8,3.45-10.71-2-11.5l-4-16.5c20.13-.79,23.35,41.93,2.5,45Z"/>
            <g>
              <path class="cls-30" d="m359.92,277.04c5.45.79,2.67,8.7,2,11.5-11.17,4.7-9.47-12.58-2-11.5Z"/>
              <path class="cls-52" d="m358.92,284.04c3.01-.45,2.61-4.14-.5-4,3.1-4.79,5.95,5.7,2.75,8-4.06,2.92-2.14-2.47-2.25-4Z"/>
              <path class="cls-21" d="m358.92,284.04c-.02-.22-2-1.68-.5-4,3.11-.14,3.51,3.55.5,4Z"/>
            </g>
          </g>
        </g>
        <g>
          <path class="cls-38" d="m241.92,162.54c-6.09,9.45-7.98,10.97-1.25,10,.47.13.18,1.49.25,1.5-2.87,10.8-.99,10.65-9.5,12-1.72.27-3.51.76-5.25,1-.75-.49-1.64-1.92-1.75-2l5-9.25c-.79-1.01-10.76.19-12.5.25-1.77.06-12.62-.28-13,.25-.35,10.94.74,21.88-.5,32.75-.86.1-1.37-.58-2-1,.44-10.79-.6-21.73,0-32.5.02-.29.99,2.79,1.5-4.5h28.75c.7-1.17,1.41-2.43,2.25-3.5,1.27-1.61,2.74-4.65,4-6.5,2.36.56,1.59,1.86,4,1.5Z"/>
          <path class="cls-27" d="m224.42,185.04c-2.76-2-6.42-5.78-7.5-9,1.74-.06,11.71-1.26,12.5-.25l-5,9.25Z"/>
        </g>
        <g>
          <path class="cls-40" d="m210.92,110.04c-.28,1.72-9.65,31.73-10.5,33.25-3.6,6.4-7.46,5.11-11,5.25,4.22-1.07,7.69-4.82,9.5-8.75,1.47-3.2,8.01-26.39,9.5-32.5-11.84-.44-23.69.62-35.5,1.25-17.94.96-36.11,1.91-54,3.5-7.88.7-18.93-.56-24,6.25-1.95,2.62-12.7,28.2-14,33.75-1.67.23-3.27.74-5,.5,3.87-8.5,14.1-37.06,20.25-41,4.77-3.06,32.06-4.43,40-5,8.89-.64,68.46-4.2,72-3.5,4.25.84,3.27,3.82,2.75,7Z"/>
          <path class="cls-34" d="m118.92,112.04c-6.44,12.49-12.95,24.81-19,37.5-.02.05-.68-.17-.5,1-.33.02-.67-.02-1,0-5.92.32-11.61.71-17.5,1.5,1.3-5.55,12.05-31.13,14-33.75,5.07-6.81,16.12-5.55,24-6.25Z"/>
          <path class="cls-34" d="m189.42,148.54c-8.48.32-17.02-.26-25.5,0,1.48-3.59-8.59-1.23-16.5-2.5.21-.19-1.29-.84.25-2,3.1-.98,6.34-2.28,8.25-4.5,1.77-2.06,14.41-25.58,17-31,11.81-.63,23.66-1.69,35.5-1.25-1.49,6.11-8.03,29.3-9.5,32.5-1.81,3.93-5.28,7.68-9.5,8.75Z"/>
          <path class="cls-53" d="m155.92,139.54c-1.91,2.22-5.15,3.52-8.25,4.5-1.54,1.16-.04,1.81-.25,2-1.27,1.15-1.4,1.46-1.5,1.5l-6.25-3.5c-7.76,2.47-22.18,2.72-28,4-2.5.55-.29.88-.25,1,.12.39-.58.57-.5,1-3.87.13-7.64.31-11.5.5-.18-1.17.48-.95.5-1,18.2-5.34,37.12-8.28,56-10Z"/>
          <path class="cls-2" d="m163.92,148.54c-.59.02-1.04.99-1.25,1-17.2.53-34.54-.06-51.75.5-.08-.43.62-.61.5-1,8.29-1.59,28.42.85,34.5-1.5.1-.04.23-.35,1.5-1.5,7.91,1.27,17.98-1.09,16.5,2.5Z"/>
          <path class="cls-14" d="m172.92,108.54c-2.59,5.42-15.23,28.94-17,31-18.88,1.72-37.8,4.66-56,10,6.05-12.69,12.56-25.01,19-37.5,17.89-1.59,36.06-2.54,54-3.5Z"/>
          <path class="cls-34" d="m145.92,147.54c-6.08,2.35-26.21-.09-34.5,1.5-.04-.12-2.25-.45.25-1,5.82-1.28,20.24-1.53,28-4l6.25,3.5Z"/>
        </g>
        <g>
          <path class="cls-29" d="m139.42,218.54c-.03.17.05.36,0,.5-.57-.57-2.43-1.37-2.5-1.5-.39-.72-1.72-10.7-12.25-6-7.02,3.13-6.94,12.78-5.75,19-5.42-3.85-3.58-14.22.5-19,6.65-7.81,22.4-5.27,20,7Z"/>
          <path class="cls-47" d="m136.92,217.54l-.5.5c-4.4-2.13-11.11-2.83-14.5,1.5-2.38,3.05-1.71,3.72-2,7-.14,1.56.26,2.92,0,4.5-.08.47.22,1.03-.5,1-.4-1.48-.49-1.42-.5-1.5-1.19-6.22-1.27-15.87,5.75-19,10.53-4.7,11.86,5.28,12.25,6Z"/>
          <g>
            <path class="cls-38" d="m130.92,237.04c2.6.04,5.3-.38,7.5-2,1.98,3.39-1.47,5.06-4.25,5.5-9.22,1.46-9.79-3.71-14.75-8-.05-.15.04-.34,0-.5.72.03.42-.53.5-1,3.48,3.68,5.57,5.92,11,6Z"/>
            <path class="cls-39" d="m139.42,219.04c-.05.15.05.35,0,.5-.01.03-.55-.12-.5.5-.06-.07-1.03-.65-1.5-1-.06-.04-.04-.54-1-1l.5-.5c.07.13,1.93.93,2.5,1.5Z"/>
            <path class="cls-49" d="m137.42,219.04c.47.35,1.44.93,1.5,1,3.75,4.29,4.54,11.27-.5,15-2.2,1.62-4.9,2.04-7.5,2,3.58-1.23,11.6-8.38,5.75-11.5-8.63-4.61-3.56,5.27-3.75,6.25-.72,3.78-9.18,5.44-13-5.25.29-3.28-.38-3.95,2-7,6.42-2.27,9.16-1.37,15.5-.5Z"/>
            <path class="cls-46" d="m130.92,237.04c-5.43-.08-7.52-2.32-11-6,.26-1.58-.14-2.94,0-4.5,3.82,10.69,12.28,9.03,13,5.25.19-.98-4.88-10.86,3.75-6.25,5.85,3.12-2.17,10.27-5.75,11.5Z"/>
            <path class="cls-46" d="m136.42,218.04c.96.46.94.96,1,1-6.34-.87-9.08-1.77-15.5.5,3.39-4.33,10.1-3.63,14.5-1.5Z"/>
          </g>
        </g>
        <g>
          <g>
            <path class="cls-24" d="m202.42,239.54c2.2,2.74,2.83,4.43,4.5,7.75-3.77.77-29.82,1.42-31.25.75-.45-.21-.2-1.06-.25-1.5,1.26-2.71,2.21-5.05,4-7.5,7.56,1.27,15.32.41,23,.5Z"/>
            <path class="cls-22" d="m186.92,232.04c-1.15,2.93,2.36.14,4.75.5,4.89.75,7.76,3.27,10.75,7-7.68-.09-15.44.77-23-.5,2.55-3.48,3.9-4.74,7.5-7Z"/>
          </g>
          <g>
            <path class="cls-33" d="m215.92,237.54c8.73,11.43,8.61,30.63,7.5,44.25.37.52,2.28.17,3,.25,2.25.26,4.41-.48,6.5-.5,25.36-.21,51.08,1.65,76.5,2-.4,10.79-3.71,26.82-13,33.5-1.06.76-.92.71-1.25,2-3.41.08-6.84-.1-10.25,0-3.46.1-7.04.11-10.5,0-2.68-.09-6.18.28-8.5,0-.89-.11-1.85.07-2.75,0-1.76-1.55-3.85-2.64-5.75-4-10.36-7.42-12.73-18.03-12.5-30.25l-17.75-.75c-2.12,12.52-4.81,21.09-12.25,31.5-5.47,7.66-7.29,10.1-17.25,12.5-19.36-4.03-29.85,1.32-40.25-11-8.94-10.6-12.98-25.37-12-39,9.23.21,18.52.7,27.75,1,2.4-7.55,5.14-15.01,10.25-21.25.13-1.29-1.6-1.13-3.5-2.25-2.04-1.2-4.16-2.47-6.5-3-.8-2.07,1.3-4.5,2-6,.05.44-.2,1.29.25,1.5,1.43.67,27.48.02,31.25-.75-1.67-3.32-2.3-5.01-4.5-7.75-2.99-3.73-5.86-6.25-10.75-7-2.39-.36-5.9,2.43-4.75-.5,10.55-6.62,21.48-4.35,29,5.5Z"/>
            <path class="cls-41" d="m195.42,306.54c16.95-27.1,2.55-26.57-1-46,24.88-2.25,22.76,47.38,1,46Z"/>
            <g>
              <path class="cls-44" d="m194.42,260.54c3.55,19.43,17.95,18.9,1,46-18.4-1.17-21.96-44.11-1-46Z"/>
              <g>
                <path class="cls-30" d="m195.17,277.04c8.29-1.57,7.62,15.4-1,11.5-4.31-1.95-3.36-10.68,1-11.5Z"/>
                <path class="cls-63" d="m196.67,279.04c2.82-.57,2.83,6.5,0,6.5-2.81,0-1.87-6.12,0-6.5Z"/>
              </g>
            </g>
          </g>
        </g>
        <g>
          <path class="cls-62" d="m249.42,158.54c-.34.09,1.53,1.48-6.25,1-.79.01-.7,1.43-.75,1.5-.05.06.08.6-.5,1.5-2.41.36-1.64-.94-4-1.5-6.46-1.53-13.74.76-20-1,2.81.27,2.37-.49,2.5-.5,5.57-.6,14.72.72,18.25.5.38-.02.69-.99.75-1,2.44-.2,5.59-.95,8-1,.37,0,.75.76,2,.5Z"/>
          <path class="cls-40" d="m242.42,161.04c.05-.07-.04-1.49.75-1.5,7.78.48,5.91-.91,6.25-1,.83-.23,6.06-.11,7-3.75.43-1.67.31-32.8,0-34.5-.17-.96-1.29-2.46-2-3.25-.17-.19.51-2-4.25-2-.54-4.46-16.44-1.39-7.75.5-1.89-.72.78,4.34,2,7.5-2.35-.62-4.46-6.94-5-9.5.05,0-.16-.97.25-1,6.59-.51,18.64-1.53,20.25,7.25.51,2.77.2,35.29-.5,37-2.17,5.26-12.65,2.95-17,4.25Z"/>
          <path class="cls-45" d="m244.42,123.04c.03.07.73-.21.5,1.5-.57-.42-1.47-.55-2-1-.1-.09-1.28.26-2.5-1-.19-.2-2.23-4.37-2.5-5-.53-1.25-.11-1.75-.5-3,1,.32,1.29-.95,2-1,.54,2.56,2.65,8.88,5,9.5Z"/>
          <g>
            <path class="cls-53" d="m222.92,118.54c-3.57,2.28-8.03,33.42-8,35.25.06,3.34,2.06,5.8,5.5,5.75-.13.01.31.77-2.5.5-2.94-.83-5.15-3.9-5.5-6.75-.21-1.68,2.37-21.8,3-24.75,2.79-1.84.77-12.87,7.5-10Z"/>
            <path class="cls-34" d="m237.92,117.54c.27.63,2.31,4.8,2.5,5-1.83,1.98-7.26,1.4-9.5,4.25-2.42,3.08-.92,6.04-1,9.25-.39,15.12-2.42,23.5,9.5,23-.06,0-.37.98-.75,1-3.53.22-12.68-1.1-18.25-.5-3.44.05-5.44-2.41-5.5-5.75-.03-1.83,4.43-32.97,8-35.25,3.07-1.96,11.04-.58,15-1Z"/>
            <path class="cls-34" d="m242.42,115.54c3.08.67,8.76-1.31,12,1.5.71.79,1.83,2.29,2,3.25.31,1.7.43,32.83,0,34.5-.94,3.64-6.17,3.52-7,3.75-1.25.26-1.63-.51-2-.5.41-5.35,1.08-27.85.5-30.25-.26-1.07-2.06-2.55-3-3.25.23-1.71-.47-1.43-.5-1.5-1.22-3.16-3.89-8.22-2-7.5Z"/>
          </g>
          <path class="cls-22" d="m254.42,117.04c-3.24-2.81-8.92-.83-12-1.5-8.69-1.89,7.21-4.96,7.75-.5,4.76,0,4.08,1.81,4.25,2Z"/>
          <g>
            <path class="cls-48" d="m244.92,124.54c.94.7,2.74,2.18,3,3.25.58,2.4-.09,24.9-.5,30.25-2.41.05-5.56.8-8,1-11.92.5-9.89-7.88-9.5-23,2.69,2.12-.75,19.29,2.25,20.5l11-.5-.25-32.5c.53.45,1.43.58,2,1Z"/>
            <path class="cls-50" d="m242.92,123.54l.25,32.5-11,.5c-3-1.21.44-18.38-2.25-20.5.08-3.21-1.42-6.17,1-9.25,2.24-2.85,7.67-2.27,9.5-4.25,1.22,1.26,2.4.91,2.5,1Z"/>
          </g>
        </g>
      </g>
    </g>
  </g>
</svg>