<?xml version="1.0" encoding="UTF-8"?>
<svg id="Camada_2" data-name="Camada 2" xmlns="http://www.w3.org/2000/svg" viewBox="0 0 170.57 254.04">
  <defs>
    <style>
      .cls-1 {
        fill: #1d4253;
      }

      .cls-1, .cls-2, .cls-3, .cls-4, .cls-5, .cls-6, .cls-7, .cls-8, .cls-9, .cls-10, .cls-11, .cls-12, .cls-13, .cls-14, .cls-15, .cls-16, .cls-17, .cls-18, .cls-19, .cls-20, .cls-21, .cls-22, .cls-23, .cls-24, .cls-25, .cls-26, .cls-27, .cls-28, .cls-29, .cls-30, .cls-31, .cls-32, .cls-33, .cls-34, .cls-35, .cls-36, .cls-37, .cls-38, .cls-39, .cls-40, .cls-41, .cls-42, .cls-43, .cls-44, .cls-45, .cls-46, .cls-47, .cls-48, .cls-49, .cls-50, .cls-51, .cls-52, .cls-53, .cls-54, .cls-55, .cls-56, .cls-57, .cls-58, .cls-59, .cls-60, .cls-61, .cls-62, .cls-63 {
        stroke-width: 0px;
      }

      .cls-2 {
        fill: #442616;
      }

      .cls-3 {
        fill: #00482d;
      }

      .cls-4 {
        fill: #2f1806;
      }

      .cls-5 {
        fill: #67716c;
      }

      .cls-6 {
        fill: #2c9ca7;
      }

      .cls-7 {
        fill: #dcd4b9;
      }

      .cls-8 {
        fill: #602809;
      }

      .cls-9 {
        fill: #dddac6;
      }

      .cls-10 {
        fill: #2f1d12;
      }

      .cls-11 {
        fill: #c1b593;
      }

      .cls-12 {
        fill: #efecd9;
      }

      .cls-13 {
        fill: #231518;
      }

      .cls-14 {
        fill: #ffa853;
      }

      .cls-15 {
        fill: #4c504d;
      }

      .cls-16 {
        fill: #c2b49c;
      }

      .cls-17 {
        fill: #f1efde;
      }

      .cls-18 {
        fill: #a6948a;
      }

      .cls-19 {
        fill: #236175;
      }

      .cls-20 {
        fill: #f0f0ec;
      }

      .cls-21 {
        fill: #004418;
      }

      .cls-22 {
        fill: #7c8243;
      }

      .cls-23 {
        fill: #a06c2d;
      }

      .cls-24 {
        fill: #7d3400;
      }

      .cls-25 {
        fill: #bb7057;
      }

      .cls-26 {
        fill: #402001;
      }

      .cls-27 {
        fill: #858680;
      }

      .cls-28 {
        fill: #989d74;
      }

      .cls-29 {
        fill: #7d6b5e;
      }

      .cls-30 {
        fill: #6d3f13;
      }

      .cls-31 {
        fill: #8c442a;
      }

      .cls-32 {
        fill: #172025;
      }

      .cls-33 {
        fill: #141313;
      }

      .cls-34 {
        fill: #c5997c;
      }

      .cls-35 {
        fill: #fe994d;
      }

      .cls-36 {
        fill: #e08b36;
      }

      .cls-37 {
        fill: #2e312f;
      }

      .cls-38 {
        fill: #252a2a;
      }

      .cls-39 {
        fill: #007637;
      }

      .cls-40 {
        fill: #ff9c61;
      }

      .cls-41 {
        fill: #d07c3b;
      }

      .cls-42 {
        fill: #aab1a4;
      }

      .cls-43 {
        fill: #2e3d44;
      }

      .cls-44 {
        fill: #9b5d38;
      }

      .cls-45 {
        fill: #773b00;
      }

      .cls-46 {
        fill: #2a2d31;
      }

      .cls-47 {
        fill: #a97b39;
      }

      .cls-48 {
        fill: #ca6e00;
      }

      .cls-49 {
        fill: #e9e6d2;
      }

      .cls-50 {
        fill: #69584b;
      }

      .cls-51 {
        fill: #973c0d;
      }

      .cls-52 {
        fill: #c2ada0;
      }

      .cls-53 {
        fill: #af7000;
      }

      .cls-54 {
        fill: #d38c5d;
      }

      .cls-55 {
        fill: #fd8b49;
      }

      .cls-56 {
        fill: #263539;
      }

      .cls-57 {
        fill: #453527;
      }

      .cls-58 {
        fill: #ac450a;
      }

      .cls-59 {
        fill: #e8d8c9;
      }

      .cls-60 {
        fill: #4c2e18;
      }

      .cls-61 {
        fill: #beac96;
      }

      .cls-62 {
        fill: #212b30;
      }

      .cls-63 {
        fill: #dde0cd;
      }
    </style>
  </defs>
  <g id="Camada_1-2" data-name="Camada 1">
    <g>
      <g>
        <path class="cls-62" d="m73.48,218.87c9.57-.21,19.2-.06,28.77.27-.32.35-2.04,3.33-2.93,4.53-2.68,3.58-5.28,7.38-7.72,11.05.38.31.63.74.8,1.2,1.43,3.95,6.28,5.86,9.19,8.79,8.09.7,15.81,3.65,21.71,9.32-19.18,0-38.36.01-57.53,0-.19-11.96.99-24.21,6.13-35.16,1.01.33,1.5,0,1.6,0Z"/>
        <g>
          <path class="cls-62" d="m139.81,221.8c.35-.23,1.04,1.12,1.07,1.2,3.54,9.92,3.22,20.64,3.2,31.03-6.93,0-13.85,0-20.78,0-5.9-5.67-13.61-8.62-21.71-9.32-2.91-2.93-7.75-4.84-9.19-8.79,3.7-.05,7.7-1.62,11.45-2.4q2.26-3.6,4.53-7.19c.33-.05.76-.83,1.2-.53.62.42-3.53,9.72-3.33,11.32.31.61,4.29,1.01,5.06,1.2,9.11,2.27,3.27,1.75,10.92-6.93-.39,1.18-.95,2.29-1.33,3.46-.28.85-.78,2.02-.8,2.13-.5,2.9.31,3.44,2.8,4.79,2.23-4.25,7.86-5.6,4.13-10.65-.03-.04.5-.63-.13-.8-.05-.01-.23.44-.93.27-2.3-.57-.39-1.49-.8-4.53h7.86v-.53c-2.15-.29-4.39-.08-6.53-.27,0-.18.01-.36,0-.53l6.79.27.4-.4c-.29-.61-.48-1.84-.53-2.53,2.19-.08,4.48-.07,6.66-.27Z"/>
          <path class="cls-51" d="m140.87,221.8c4.18,10.19,6.63,21.18,6.39,32.23-1.07,0-2.13,0-3.2,0,.02-10.39.35-21.11-3.2-31.03-.03-.08-.71-1.43-1.07-1.2.58-.05.96.01,1.07,0Z"/>
        </g>
      </g>
      <path class="cls-9" d="m72.95,156.28c-.69,6.85-2.46,9.48-2.4,9.99,0,.04.76.14.8.13-1.04.64-.74,1.03-.8,1.07-.49.28-.76.33-1.33.27-2.36-.24-12.84-6.36-14.12-8.79-.02-.04-.23-.66-.27-.8-.03-.1.12-1.49.27-2.13,1.18-5.18,8.16-14.36,12.12-18.11,2.51-2.38,5.58-4.14,8.12-6.39-.6,3.42-2.22,6.8-2.66,10.25-.39,2.99-.28,11.49.27,14.52Z"/>
      <path class="cls-9" d="m91.33,119.52c.03,1.25,2.04,9.83,2.66,14.92.2,1.66.67,3.39.8,5.06-3.24-3.77-7.13-7.52-10.12-11.45-.16-.21.42-.71-2.93-4.13,1.03-.78,7.89-5.41,8.39-5.46,1.24-.12.15,1.15,1.2,1.07Z"/>
      <path class="cls-62" d="m78.55,188.24c1.54.58.6,1.73.27,2.93-.44,1.59-1.22,3.53-1.86,5.06-1.16,2.76-2.53,5.45-4.53,7.72h-1.07l-3.46-.4c2.22-5.44,3.93-11.11,4.79-16.91.34.25,5.22,1.54,5.86,1.6Z"/>
      <path class="cls-61" d="m94.79,139.5c.12,1.49-.07,3.03,0,4.53-4.47-2.42-8.01-6.45-12.25-9.32.11-.63.41-1.18.27-1.86.53-1.6,1.05-3.21,1.6-4.79h.27c2.99,3.94,6.88,7.68,10.12,11.45Z"/>
      <path class="cls-12" d="m159.25,161.87c-.33-.8-.44-1.73-.8-2.53l-.4-.4c-.2.23-.38.4-.67.53-.94-5.68-2.59-8.38-5.33-13.05-2.89-4.93-8.04-12.12-12.39-15.72-3.53-2.92-7.24-4.14-10.79-6.39-.09-.06-.52-.4-.53-.53.87.44,2.71.63,3.06.8,1.43.69,1.25.49,1.33.53,1.94.96,3.79,2.21,5.86,2.93,3.51,2.37,6.8,5.08,9.46,8.39,5.72,7.11,6.59,11.78,9.32,19.71.56,1.64,2.54,4.67,1.86,5.73Z"/>
      <path class="cls-12" d="m75.35,131.51c-2.55,2.26-5.62,4.02-8.12,6.39-3.96,3.75-10.94,12.93-12.12,18.11-3.23,3.4,1.77-6.68,3.46-9.46,5.09-8.36,11.44-12.84,19.31-18.25.72.38-2.03,2.75-2.53,3.2Z"/>
      <path class="cls-27" d="m92.66,118.46l1.6,4.26c.05,2.08.12,4.05.27,6.13.27,3.8,1,6.63,1.07,7.46-1.13.01-.36-2.65-1.6-1.86-.62-5.09-2.64-13.66-2.66-14.92-.01-.65-.61-.79.13-1.33.76-.14,1,.25,1.2.27Z"/>
      <path class="cls-31" d="m72.42,203.96c-.55,1.62.91,9.8,1.07,12.25,0,.13-.62.21,0,2.66-.1,0-.59.33-1.6,0-.18-4.23-1.95-12.83-.53-14.92h1.07Z"/>
      <path class="cls-16" d="m75.08,157.08c-.51,1.96-1.08,3.91-1.6,5.86-.39,1.47-1.28,3.28-1.33,3.46-.03-.48-.15-.03-.8,0-.04,0-.79-.09-.8-.13-.06-.51,1.71-3.14,2.4-9.99.04-.35-.03-.71,0-1.07l2.13,1.86Z"/>
      <path class="cls-15" d="m94.26,118.46c0,1.42-.04,2.84,0,4.26l-1.6-4.26c.55.04,1.46-.08,1.6,0Z"/>
      <path class="cls-39" d="m83.07,126.18h-.27l-2.13.8c.31-1.37-.7-4.09,2.4-.8Z"/>
      <path class="cls-38" d="m123.56,119.25l-1.33-.27c.27-.52.69-1,.8-1.6.33.83.31.44.53,1.86Z"/>
      <path class="cls-51" d="m132.88,219.67c0,.09,0,.18,0,.27.04.74.21,1.45.27,2.13.05.69.24,1.92.53,2.53l-.4.4-6.79-.27c-.13-1.83.03-3.51,0-5.33.89.21.41-.95.53-2.4.04-.43.25-3.09.4-3.2h4.79c.5,2.52-.46,5.95.67,5.86Z"/>
      <g>
        <path class="cls-47" d="m120.63,216.21c-1.23.22-8.88,4.22-11.32,5.06-.55.43-2.23,3.36-3.06,4.26-3.1,3.36-6.17,6.78-10.39,8.79-1.24-3.46,5.72-7.29,3.46-10.65.89-1.2,2.61-4.18,2.93-4.53.31-.34.81-.59,1.07-1.07q6.73-3.33,13.45-6.66l3.86,4.79Z"/>
        <path class="cls-54" d="m95.86,234.32c.08.22-.45.36-.13.53.62.23,6.57-1.93,8.12-1.33-3.75.77-7.76,2.34-11.45,2.4-.16-.45-.42-.89-.8-1.2,2.44-3.67,5.05-7.48,7.72-11.05,2.26,3.36-4.7,7.2-3.46,10.65Z"/>
        <path class="cls-44" d="m120.63,216.21c.4-.07.91.05,1.33,0l.27.27c.31,1.96.77,3.96,1.33,5.86-.56,1.45-.81,1.15-2.13,1.86-1,.54-2.68.86-3.46,1.73-.47.52-5.45,10.47-6.66,12.39-.77-.19-4.75-.59-5.06-1.2-.2-1.6,3.95-10.9,3.33-11.32-.44-.29-.87.48-1.2.53-1.96.3-.54-.69-2.13-.8.83-.9,2.51-3.83,3.06-4.26,2.44-.84,10.09-4.84,11.32-5.06Z"/>
        <path class="cls-24" d="m121.43,224.2c4.25,2.19,1.35,5.55.8,7.19-7.65,8.68-1.81,9.2-10.92,6.93,1.21-1.92,6.19-11.86,6.66-12.39.78-.87,2.47-1.19,3.46-1.73Z"/>
        <path class="cls-23" d="m108.38,226.33q-2.26,3.6-4.53,7.19c-1.56-.6-7.51,1.56-8.12,1.33-.32-.17.21-.31.13-.53,4.22-2.01,7.29-5.43,10.39-8.79,1.59.11.17,1.1,2.13.8Z"/>
      </g>
      <path class="cls-62" d="m126.49,219.4c.03,1.81-.13,3.5,0,5.33.01.18,0,.36,0,.53-.11,0-.61-.43-1.86-.27-.13-.48-.52-.83-1.07-2.66-.56-1.9-1.02-3.9-1.33-5.86,1.01.2,4.22.31,4.53,1.2.16.82-.27,1.28-.27,1.73Z"/>
      <g>
        <path class="cls-51" d="m120.1,236.98c2.05-.59,7.39-4.29,6.93-5.86,3.73,5.05-1.89,6.4-4.13,10.65-2.48-1.35-3.29-1.9-2.8-4.79Z"/>
        <path class="cls-51" d="m124.62,225s-.45-.05-.27.67c.07.29.73-.09.8.4.41,3.04-1.5,3.96.8,4.53-1.39,1.34-3.77,4.06-5.06,4.26.38-1.17.94-2.29,1.33-3.46.55-1.64,3.45-5-.8-7.19,1.32-.71,1.57-.41,2.13-1.86.54,1.83.94,2.18,1.07,2.66Z"/>
        <path class="cls-44" d="m127.02,231.12c.47,1.57-4.88,5.27-6.93,5.86.02-.11.52-1.28.8-2.13,1.29-.21,3.67-2.92,5.06-4.26.7.17.89-.28.93-.27.63.17.1.76.13.8Z"/>
      </g>
      <path class="cls-11" d="m126.49,225.26c2.14.19,4.38-.02,6.53.27v.53h-7.86c-.07-.49-.73-.11-.8-.4-.18-.71.28-.63.27-.67,1.25-.17,1.75.26,1.86.27Z"/>
      <g>
        <path class="cls-39" d="m99.85,21.5c2.9.68,5.75,1.76,8.66,2.4.46.31.59.32.93.8.08.11.78,2.4.8,2.53,1.02,8.86-7.97,8.46-13.85,11.32-1.29-.58-9.55-3.46-10.25-2.93l-.93,7.32c-.38.32-1.16.02-1.6.13-.08.02-.18-.02-.27,0q.33-3.86.67-7.72c-6.29-.04-14.62,2.51-19.58,6.39-.23-6.15,4.63-12.27,9.46-15.72,9.55-6.81,18.63-5.06,20.38-5.86,1.33.77,3.93.94,5.59,1.33Z"/>
        <path class="cls-21" d="m135.28,44.94c-.35.27-.92.88-1.33,1.2,3.18,3.38,2.59,6.67,5.06,10.12.45,3.9.09,8.25-1.6,11.85-2.15,4.6-7.46,9-12.79,7.72.01-.26-.46-2.85-.53-3.73-.67-8.06-2.54-12.85-7.99-18.91,11.49-6.05,9.18-11.6,6.13-22.64,5.24,3.74,9.59,8.92,13.05,14.38Z"/>
        <g>
          <path class="cls-33" d="m151.79,21.24c0,.58-.02.93-.27,1.46-5.29,5.29-8.72-1.44-13.72,6.26-5.01-1.11-10.09-.76-15.18-.8-3.19-4.13-4.61-3.09-5.46-9.06-.13-.43-.32-1.44-.67-1.6-1.19-.23-1.39.47-1.73.53-2.84.53-3.92,1.05-4.13,1.07-2.12.2-3.65-1.77-10.79,2.4-1.66-.39-4.26-.57-5.59-1.33.21-.1,2.67-2.77,3.46-3.06-2.26-7.66,2.64-13.2,9.72-15.32.63-.19,3.63.19,6.93-1.6,6.14-.76,13.18.61,17.05,5.86,11.42-1.31,19.45,2.54,19.84,14.78,0,.2.53.37.53.4Z"/>
          <path class="cls-33" d="m151.79,21.24c8.53,4.47,2.4,10.93,2.13,11.59-.26.63-1.52,8.11-8.12,10.25-4.22,1.37-7.07-.76-10.52,1.86-3.46-5.47-7.81-10.65-13.05-14.38-.16-.11-1.06-1.17-1.33-1.33,3.42-1.52-2.52-3.74-3.2-5.46-.28-.71-.25-3.72-.53-4.66.85,5.97,2.27,4.92,5.46,9.06,5.09.04,10.18-.31,15.18.8,5-7.7,8.42-.97,13.72-6.26.24-.54.27-.88.27-1.46Z"/>
        </g>
        <path class="cls-33" d="m111.84,96.61c0-1.71-.43-3.78.53-5.46l-.53-.4-1.86-1.07c.4-1.23.46-2.29.93-3.2,3.82,4.45,8.3,3.44,6.53-1.2,4.28-1.34,7-4.98,7.19-9.46,5.32,1.28,10.63-3.12,12.79-7.72,6.12,16.75-8.19,32.91-25.57,28.5Z"/>
        <g>
          <path class="cls-48" d="m114.77,18.04l1.07,8.39c-.6.43-.78-.22-1.6-.4-2.3-.51-3.58-1.59-4.79-1.33-.34-.48-.47-.49-.93-.8-2.91-.64-5.76-1.71-8.66-2.4,7.14-4.17,8.67-2.2,10.79-2.4.21-.02,1.29-.53,4.13-1.07Z"/>
          <path class="cls-51" d="m117.17,19.1c.28.94.25,3.95.53,4.66.68,1.72,6.61,3.94,3.2,5.46-1.94-1.16-5.06-1.71-6.66-3.2.81.18,1,.83,1.6.4l-1.07-8.39c.34-.06.55-.76,1.73-.53.34.16.54,1.17.67,1.6Z"/>
        </g>
        <path class="cls-33" d="m96.39,38.55c5.16,2.33,15.88,10.39,19.71,14.65,5.45,6.06,7.33,10.85,7.99,18.91-3.5-4.46-8.51.31-9.86,4.13-.39,1.11-.2,3.35-1.33,5.73-.57,1.2-1.18,2.05-2.4,2.66-.49-5.79,4.24-5.29,1.33-6.66-.27-.13-1.1.19-1.33-.13-.15-.21.12-2.53,0-3.2-2.11-11.44-5.07-19.33-14.65-26.24-1.14-.82-2.22-1.73-3.46-2.4-2.81-1.5-5.59-2.55-8.79-2.93.44-.12,1.22.19,1.6-.13l.93-7.32c.7-.53,8.97,2.35,10.25,2.93Z"/>
        <path class="cls-39" d="m114.24,26.03c1.6,1.48,4.72,2.03,6.66,3.2.27.16,1.17,1.22,1.33,1.33,3.05,11.05,5.37,16.59-6.13,22.64-3.83-4.26-14.55-12.32-19.71-14.65,5.88-2.86,14.87-2.46,13.85-11.32-.02-.13-.72-2.42-.8-2.53,1.21-.26,2.49.83,4.79,1.33Z"/>
        <g>
          <path class="cls-33" d="m83.34,43.08c-9.58,2.24-14.46,4.1-18.11,14.25.86,1.17,4.39-3.56,6.66,3.06-4.68-.99-8.41-.15-8.79,5.19-.46,6.47,1.27-1.74,6.66,1.46,1.9,2.23,4.31,3.98,5.59,6.79-.34.43-.54-.17-.8-.13l-3.86-4.53c.49,4.33-.43,4.09-2.53,4.79-2.86.96-2.79.24-2.93.27l-.13-4.79c-1.88.76-.81,3.28-.93,4.79-.03,0,.06.03-.53.27-12.39-18.9-1.29-27.08-1.33-28.63-.02-.89-2.36-.61,2.13-4.13,4.95-3.88,13.29-6.44,19.58-6.39q-.33,3.86-.67,7.72Z"/>
          <path class="cls-12" d="m74.55,73.71c-1.84.24-4.64.69-6.39.27,2.1-.7,3.02-.46,2.53-4.79l3.86,4.53Z"/>
          <path class="cls-12" d="m65.23,74.24c-1.03.22-.97-.02-1.07,0,.12-1.52-.95-4.03.93-4.79l.13,4.79Z"/>
          <path class="cls-20" d="m69.36,68.91c.59-.17.94,1.02.53,1.33-.42.32-1.25-1.12-.53-1.33Z"/>
        </g>
      </g>
      <path class="cls-6" d="m69.22,167.73l-2.13,5.06c-.08-.02-.19.03-.27,0-6.23-2.03-13.65-6.12-11.72-13.85,1.27,2.43,11.75,8.55,14.12,8.79Z"/>
      <g>
        <path class="cls-1" d="m54.84,158.14c.04.14.25.76.27.8-1.93,7.73,5.49,11.82,11.72,13.85q-2.26,3.86-4.53,7.72c-2.18-.58-5.87-2.88-7.72-4.26-4.71-3.5-5.66-4.13-4.26-10.39.45-2,4.08-10.57,4.53-7.72Z"/>
        <path class="cls-32" d="m70.29,173.59c-.38,1.97-.68,2.85-.53,5.06.08,1.17-.01,1.27,0,1.33-.64,1.2-1.57,2.15-2.4,3.2l-5.06-2.66q2.26-3.86,4.53-7.72c.08.03.19-.02.27,0,1.05.32,1.95,1.11,3.2.8Z"/>
        <path class="cls-19" d="m71.62,169.33c-.36,1.39-1.03,2.69-1.33,4.26-1.25.31-2.14-.48-3.2-.8l2.13-5.06c.57.06.84,0,1.33-.27l1.07,1.86Z"/>
      </g>
      <path class="cls-46" d="m72.15,166.4c-.2.77-.3,2.04-.53,2.93l-1.07-1.86c.06-.03-.24-.42.8-1.07.65-.03.77-.48.8,0Z"/>
      <g>
        <g>
          <path class="cls-31" d="m124.09,72.11c.07.88.54,3.47.53,3.73-.19,4.47-2.91,8.12-7.19,9.46,1.78,4.63-2.71,5.65-6.53,1.2-.47.91-.53,1.97-.93,3.2-2.98,9.11-6.88,12.59-15.58,16.25-.24.1-.1.52-.13.53-4.53,1.83-12.78,3.63-17.31,2.13.49-.53,1.55-.38,2.13-.53,1.63-.43,7.68-2.9,9.32-3.73,1,1.32,5.24-1.24,6.79-2.13,7.25-4.14,12.78-11.1,13.72-19.58.9-.81,3.64-3.41,2.93-4.66,2.9,1.37-1.82.87-1.33,6.66.05.59-.65.78.13,1.33.85.23,4.25,3.16,4.53,3.2,2.44.33,2.34-3.9,1.73-4.93-.12-.21-3.64-2.84-4-2.26,1.13-2.38.94-4.61,1.33-5.73,1.35-3.82,6.35-8.59,9.86-4.13Z"/>
          <path class="cls-8" d="m120.5,72.91c.57-.02,1.62.51,2,.93,2.55,2.83-.65,3.54-.8,3.73-1.06,1.32-3.42,6.05-5.06,1.86-1.03-2.63,1.46-6.43,3.86-6.53Z"/>
        </g>
        <path class="cls-51" d="m110.51,84.63c1.22-.62,1.83-1.47,2.4-2.66.35-.58,3.87,2.05,4,2.26.61,1.03.71,5.25-1.73,4.93-.27-.04-3.68-2.97-4.53-3.2-.78-.55-.08-.74-.13-1.33Z"/>
      </g>
      <path class="cls-24" d="m88.67,165.6c-.22,2.05.17,4.1.27,6.13.03.62-.03,1.25,0,1.86.09,2.11.07,5.81.27,7.46.72,6.07,4.28,8.41,10.52,7.99,6.74-.45,5.62-5.08,5.73-7.99.09-2.45-.35-5.05-.27-7.46,0-.11.17-.55.27-2.13.12-1.95.76-3.87.53-5.86l.53.4c.05,1.64-.07,3.29,0,4.93.08,1.9-.06,3.82,0,5.73.01.22.53.11.53.13.31,5.69,2.09,12.69-5.46,13.85-7.58,1.16-12.08-3.27-12.79-3.2-2.67,1.94-6.83,4-9.99,3.73.34-1.2,1.28-2.35-.27-2.93,11.38,1.1,9.35-5.28,9.32-11.19-.02-3.69-.32-7.36-.27-11.05.36-.56.69-.33,1.07-.4Z"/>
      <path class="cls-50" d="m95.59,136.3c.25,3.17.77,6.41.8,9.59.03,3.36-.45,11.28-1.33,8.26-.17-3.36-.11-6.76-.27-10.12-.07-1.5.12-3.04,0-4.53-.13-1.67-.59-3.4-.8-5.06,1.23-.79.47,1.88,1.6,1.86Z"/>
      <path class="cls-51" d="m118.77,177.59c1.05,2.87,1.59,3.68,3.2,6.13,3.48,5.32,8.53,9.63,8.79,10.25.55,1.32.32,5.63,0,7.32-.51.09-1.49-.12-1.73,0-.15.07-1.15,2.44-1.86,2.66-1.72.54-14.52-.71-17.98-.27.05-1.72-.58-3.69-.27-5.46-.5-.7-1.86-.31-3.2-.4-6.07-.4-12.29.23-18.38,0-1.84-.07-4.94.19-5.99,0-.76-.14-3.53-2.23-4.39-1.6.64-1.53,1.42-3.48,1.86-5.06,3.16.28,7.32-1.79,9.99-3.73.71-.07,5.2,4.36,12.79,3.2,7.55-1.16,5.77-8.16,5.46-13.85,2.42-.37,6.14.39,8.26.27,2.08,6.46,7.11,15.92,13.72,18.38-1.38-1.86-3.46-3.14-4.93-4.93-3.05-3.72-5.44-9.32-7.46-13.72.97-.23,1.19-.14,1.6-1.07.2.62.3,1.22.53,1.86Z"/>
      <g>
        <path class="cls-41" d="m103.32,218.07c-.25.47-.75.72-1.07,1.07-9.57-.33-19.2-.48-28.77-.27-.62-2.45,0-2.53,0-2.66,3.59.65,28.23-.84,29.43,0,.33.23-.12,1.19.4,1.86Z"/>
        <path class="cls-35" d="m87.33,197.83c.18.9.61.65.8,1.86.22,1.39-.4,8.25.4,8.52h20.24c-.01-1.48.36-3.08.4-4.53,3.46-.44,16.26.81,17.98.27.71-.22,1.72-2.59,1.86-2.66.24-.12,1.22.09,1.73,0,.82-.15,1.98-.55,2.13,0,.3,3.98-.29,8.03-.27,11.99h-5.19l-.27-4.26c-1.82.06-3.65-.08-5.46,0-.56.02-.73-.12-1.2-.27-1.28.49,1.7,6.19,1.46,7.46-.42.05-.93-.07-1.33,0l-3.86-4.79q-6.73,3.33-13.45,6.66c-.52-.67-.07-1.63-.4-1.86-1.21-.84-25.85.65-29.43,0-.16-2.46-1.61-10.63-1.07-12.25,2-2.27,3.36-4.97,4.53-7.72.86-.64,3.63,1.46,4.39,1.6,1.06.19,4.15-.07,5.99,0Z"/>
      </g>
      <g>
        <path class="cls-32" d="m10.62,108.87c.06.02.59.58,1.07.8.19.09.35.18.53.27-.63.72,3.7,2.26,3.73,2.53.03.22-3.05,1.18-.8,3.46-.91.71-.76,1.08-.8,1.2-.35.97-.87,1.76-1.33,2.66-.37.73-.28,1.23-.27,2-1.31.23-2.11,1.47-3.2,2-.34.17-1.88,1.06-2,1.07-.43.01-5.3-2.57-3.46-4,.32-.25,4,2.76,4.13,1.46-.54-.77-3.84-2.19-4-2.66-.2-.61.46-3.04,1.07-2.26.46.61,4.84,3.82,5.06,2.26.13-.9-5.12-3.23-5.33-4-.11-.42.85-2.7,1.2-2.8.72-.2,7.61,5.62,5.59,1.86-.14-.26-4.27-2.53-4.66-3.46.79-.87,1.54-1.73,2.26-2.66.24-.08.85.17,1.2.27Z"/>
        <path class="cls-59" d="m5.3,117.39c-.22-.29.28-.63.27-.67-.53-1.07-2.89-.52,1.6-5.46.39.94,4.52,3.21,4.66,3.46,2.02,3.76-4.88-2.06-5.59-1.86-.35.09-1.31,2.38-1.2,2.8.21.77,5.46,3.1,5.33,4-.23,1.55-4.6-1.66-5.06-2.26Z"/>
        <path class="cls-12" d="m14.09,108.87c.2.35.26.25.27.27.64,1.13,1.5,2.12,1.2,2.4-.48.25-2.48-1.2-3.33-1.6-.19-.09-.35-.18-.53-.27l2.4-.8Z"/>
      </g>
      <g>
        <path class="cls-61" d="m122.76,116.59c-1.17,1.03-2.44,2.53-3.46,3.73q-4.79-.53-9.59-1.07c.8-1.05,1.57-2.17,2.4-3.2.98-1.22,2.28-2.26,2.93-3.73,2.06.4,3.97,1.12,5.99,1.6.8.74,1.24,1.72,1.73,2.66Z"/>
        <path class="cls-22" d="m122.76,116.59c.29.55.25.76.27.8-.11.6-.53,1.07-.8,1.6-1.04,1.98-2.18,3.87-3.2,5.86-.31-.1-.72-.5-.8-.8-.14-.54.23-1.26-.27-1.86.07-.09.47-.85,1.33-1.86,1.02-1.2,2.29-2.7,3.46-3.73Z"/>
        <path class="cls-3" d="m115.04,112.33c-.65,1.47-1.95,2.51-2.93,3.73v-4.26c.95.32,1.97.35,2.93.53Z"/>
        <path class="cls-9" d="m111.57,146.96c-.14.87.32,1.21.27,1.6-.13.97-1.46,3.94-1.33,8.26-2.44-.23-10.88,1.01-13.85-.27.47-.73.79-7.2,1.07-8.79.28-1.59.75-3.2,1.07-4.79.33-.19.41-.23.8-.27,4.36-.43,8.73-.85,13.05-1.6-.45,1.94-.76,3.89-1.07,5.86Z"/>
        <path class="cls-9" d="m119.3,120.32c-.86,1.02-1.26,1.78-1.33,1.86-5.74,6.66-11.99,12.89-18.64,18.64,2.52-11.31,3.32-12.37,10.39-21.57q4.79.53,9.59,1.07Z"/>
        <path class="cls-5" d="m118.23,124.05c-5.13,7.35-11.68,13.11-18.64,18.64-.39.04-.47.08-.8.27.22-1.09.4-1.52.53-2.13,6.66-5.75,12.9-11.99,18.64-18.64.5.6.13,1.33.27,1.86Z"/>
        <path class="cls-61" d="m119.03,124.85c-2.11,4.12-4.31,8.87-5.59,13.32-.27.92-.59,2.01-.8,2.93-4.32.75-8.7,1.16-13.05,1.6,6.97-5.53,13.52-11.3,18.64-18.64.08.3.49.7.8.8Z"/>
      </g>
      <path class="cls-9" d="m94.79,144.03c.16,3.36.1,6.76.27,10.12v2.66c-4.39.48-9.04.36-13.45.27-.11,0-.35-.52-.67-.53-.11-3.02-.42-6.03-.27-9.06.16-3.07,1.26-9.43,1.86-12.79,4.24,2.87,7.79,6.9,12.25,9.32Z"/>
      <g>
        <path class="cls-9" d="m152.06,146.42c2.74,4.67,4.39,7.37,5.33,13.05-.68.33-.75.77-.8.8-4.57,2.9-9.15,5.95-13.58,9.06-2.59,1.81-5.06,3.84-7.86,5.33-.65.18.04,1.36.4,1.6-1.3.44-.88-2.01-1.86-1.33-2.43-.95-4.84-2.13-6.93-3.73-2.71-2.09-5.33-5.26-6.39-8.52-.64-1.96-.85-4.34-1.07-6.39-.24-2.34.04-4.86-.53-7.19,1.28-3.91,1.96-7.99,2.93-11.99,9.97,3.59,19.89,7.46,30.36,9.32Z"/>
        <g>
          <path class="cls-28" d="m128.35,123.78c.02.14.44.48.53.53-1.43,3.02-3.52,5.71-5.06,8.66-.64,1.23-1.04,3.85-1.86,3.06.16-.63.37-1.19.27-1.86,1.36-3.81,3.6-7.16,5.06-10.92.35.19.71.35,1.07.53Z"/>
          <path class="cls-61" d="m152.06,146.42c-10.48-1.87-20.4-5.73-30.36-9.32.09-.36.17-.7.27-1.07.83.78,1.22-1.83,1.86-3.06,1.54-2.95,3.64-5.64,5.06-8.66,3.55,2.26,7.25,3.47,10.79,6.39,4.35,3.6,9.49,10.78,12.39,15.72Z"/>
        </g>
      </g>
      <g>
        <path class="cls-48" d="m82.81,126.18c-1.85,7-3.9,14.03-4.26,21.31-1.49.22-3.91-.16-5.59,0,1.04-19.6,7.59-18.68,7.99-20.11.01-.05-.32-.18-.27-.4l2.13-.8Z"/>
        <path class="cls-51" d="m79.88,149.62c-.32,2.1-.34,5.06,0,7.19-.8-.03-1.53.07-2.4,0,.87-1.88.28-5.57-2.4-3.86-.46.29.56,1.95.27,3.86-.03.2-.03.3-.27.27l-2.13-1.86c.15-1.99.14-3.89.27-5.86,2.24,0,4.55-.72,6.66.27Z"/>
        <path class="cls-58" d="m84.41,128.04c-.55,1.59-1.07,3.2-1.6,4.79-.23.71-.62,1.58-1.33,2-.52,4.19-1.65,8.25-1.6,12.52-.19.27-.98.08-1.33.13.36-7.28,2.42-14.31,4.26-21.31h.27c.49.52,1.32,1.33,1.33,1.86Z"/>
        <path class="cls-57" d="m82.54,134.7c-.61,3.36-1.7,9.71-1.86,12.79-.26.6-.71,1.55-.8,2.13-2.11-.99-4.42-.27-6.66-.27,0-.09-.44-.59-.27-1.86,1.68-.16,4.11.22,5.59,0,.35-.05,1.14.14,1.33-.13-.05-4.27,1.07-8.33,1.6-12.52.71-.42,1.1-1.29,1.33-2,.14.68-.15,1.23-.27,1.86Z"/>
        <path class="cls-19" d="m77.48,156.81c-.7-.06-1.43.04-2.13,0,.29-1.91-.72-3.57-.27-3.86,2.68-1.71,3.27,1.98,2.4,3.86Z"/>
        <path class="cls-37" d="m80.94,156.54c-.05,0-.04.3-1.07.27-.34-2.13-.32-5.09,0-7.19.09-.59.54-1.53.8-2.13-.16,3.02.16,6.04.27,9.06Z"/>
      </g>
      <g>
        <path class="cls-31" d="m166.18,186.91c3.19,6.32,6.86,15.81,2.13,22.24-4.06,5.51-20.58,11.79-27.43,12.65-.11.01-.49-.05-1.07,0-2.18.2-4.46.18-6.66.27-.05-.68-.23-1.39-.27-2.13,3.51-3.04,10.55-4.3,15.58-6.93,6.21-3.24,13.86-10.47,13.98-17.85.06-3.43-2.04-5.54-5.06-6.93,1.5-.36,6.94-2.44,7.32-2.4.82.09.42,1.38,1.46,1.07Z"/>
        <path class="cls-30" d="m164.05,182.65c.43,1.52,1.42,2.85,2.13,4.26-1.05.31-.64-.97-1.46-1.07-.38-.04-5.83,2.04-7.32,2.4-.79.19-1.59.34-2.4.53.5-.86-.52-1.18-.27-1.73.06-.13,1.24-.52,2.4-1.2.81-.47,1.55-.92,2.4-1.33,1.42-.69,3.07-1.09,4.53-1.86Z"/>
        <path class="cls-31" d="m162.45,195.17c-.13,7.38-7.78,14.61-13.98,17.85-5.03,2.63-12.08,3.88-15.58,6.93,0-.09,0-.18,0-.27-.09-2.11-.25-4.29-.27-6.39-.02-3.96.57-8.01.27-11.99l.53-.53c3.48-.67,14.1-5.42,15.18-5.59,2.46-.4,10.21.29,13.85,0Z"/>
        <path class="cls-44" d="m157.39,188.24c3.02,1.39,5.12,3.49,5.06,6.93-3.64.29-11.39-.4-13.85,0-.73-1.55-1.57-3.03-2.4-4.53,2.91-.66,5.89-1.16,8.79-1.86.8-.2,1.61-.34,2.4-.53Z"/>
        <path class="cls-31" d="m157.12,185.84c-1.16.68-2.34,1.07-2.4,1.2-.25.55.77.87.27,1.73-2.9.7-5.88,1.2-8.79,1.86-.26-.47-.47-.91-.8-1.33.02,0-.1-.2.27-.27,3.92-.73,7.57-2.36,11.45-3.2Z"/>
      </g>
      <path class="cls-34" d="m121.69,209.02c.27,1.09,1.32,6.23,1.6,6.53.82.88,3.64-.08,3.73,1.46-.12,1.45.36,2.6-.53,2.4,0-.45.43-.91.27-1.73-.3-.89-3.51-1-4.53-1.2l-.27-.27c.23-1.27-2.75-6.97-1.46-7.46.47.14.64.29,1.2.27Z"/>
      <path class="cls-45" d="m132.62,213.28c.01,2.11.18,4.28.27,6.39-1.12.09-.16-3.34-.67-5.86h-4.79c-.14.1-.36,2.77-.4,3.2-.09-1.54-2.91-.58-3.73-1.46-.27-.3-1.33-5.43-1.6-6.53,1.81-.08,3.64.06,5.46,0l.27,4.26h5.19Z"/>
      <path class="cls-29" d="m133.68,174.92l-2.4,14.25c1.05,3.84,1.89,7.6,2.13,11.59l-.53.53c-.15-.55-1.31-.15-2.13,0,.32-1.69.55-6,0-7.32-.26-.62-5.3-4.94-8.79-10.25,3.16-4.17,7.91-6.72,4.79-12.52,2.08,1.6,4.5,2.78,6.93,3.73Z"/>
      <g>
        <path class="cls-53" d="m105.98,165.6c.22,1.99-.42,3.91-.53,5.86l-16.51.27c-.09-2.03-.48-4.07-.27-6.13,2.13-.42,13.25.32,17.31,0Z"/>
        <path class="cls-35" d="m105.18,173.59c-.09,2.4.36,5.01.27,7.46h-16.25c-.19-1.65-.17-5.35-.27-7.46h16.25Z"/>
        <path class="cls-41" d="m105.45,181.05c-.11,2.92,1.02,7.54-5.73,7.99-6.24.42-9.81-1.92-10.52-7.99h16.25Z"/>
        <path class="cls-36" d="m105.45,171.46c-.09,1.58-.26,2.02-.27,2.13h-16.25c-.03-.62.03-1.25,0-1.86l16.51-.27Z"/>
      </g>
      <g>
        <path class="cls-30" d="m33.53,131.51c-1.44.36-2.87.81-4.26,1.33-3.85-2.95-3.28-2.32-7.99-1.33-.08-.75.12-1.77,0-2.4,3.06-.95,10.2-1.25,9.86-4.26.79.32,1.43,1.93,1.86,3.06.53,1.4.49,3.41.53,3.6Z"/>
        <path class="cls-31" d="m19.15,121.65c.69,1.18,1.34,1.53.8,2.13-5.78,2.7-4.08,2.79,1.86,3.73-.75.15-1.77.52-1.86.53-2.55.35-4.82.59-7.19-.53-.06-1.39,1.79,1.52,2.4-.67.51-1.83-1.45-5.29-2.13-7.06.46-.91.98-1.69,1.33-2.66,1.16-1.62,3.68,2.63,4.79,4.53Z"/>
        <path class="cls-30" d="m12.76,127.51c-1.57-.74-2.57-2.19-3.2-3.73,1.09-.53,1.88-1.77,3.2-2-.01-.77-.1-1.27.27-2,.68,1.77,2.64,5.23,2.13,7.06-.61,2.19-2.46-.73-2.4.67Z"/>
        <path class="cls-23" d="m29.27,132.84c-2.45.91-4.99,2.08-7.72,2.4-.08-1.28-.13-2.45-.27-3.73,4.71-.99,4.14-1.62,7.99,1.33Z"/>
        <g>
          <path class="cls-51" d="m43.12,152.02c-1.3-.39-3.31-6.69-4.53-9.46-.34-.32-2.27,1.66-2.4,1.73-2.51,1.33-5.75,2.54-8.52,3.2,1.57-2.05.12-3.8,0-6.26.92-.56,2.11-.38,4-1.2,1.72-.75,3.44-1.71,5.06-2.66,1.74,4.46,4.36,10.23,6.39,14.65Z"/>
          <path class="cls-58" d="m31.67,140.03c-1.89.82-3.07.64-4,1.2.12,2.46,1.57,4.21,0,6.26-.96.23-.76.26-.8.27-1.4.28-3.09.39-4.53.53-.26-2.5-.34-4.96-.53-7.46,1.72.18,3.36-.12,5.06-.27,1.62-.14,3.2-.17,4.79-.53Z"/>
          <path class="cls-51" d="m33.53,131.51c.03.11,1.34,1.03,1.07,2-.09.29-4.92,2.61-5.46,2-1.79,1.16-6.21,2.12-7.59.53-.02-.26.02-.53,0-.8,2.74-.32,5.27-1.49,7.72-2.4,1.4-.52,2.82-.97,4.26-1.33Z"/>
          <g>
            <path class="cls-62" d="m36.73,137.37c-1.63.95-3.34,1.92-5.06,2.66-1.6.36-3.18.39-4.79.53.23-4.11,1.26-3.19-1.33-3.2l9.86-3.46c.43,1.14.89,2.33,1.33,3.46Z"/>
            <path class="cls-1" d="m26.87,140.56c-1.7.15-3.34.44-5.06.27-.08-1.05-.21-2.16-.27-3.2,1.36,0,2.63-.27,4-.27,2.59,0,1.56-.91,1.33,3.2Z"/>
          </g>
        </g>
        <path class="cls-8" d="m31.13,124.85c.35,3.01-6.79,3.31-9.86,4.26-.13-.65.2-1.2-1.33-1.07.1-.01,1.11-.38,1.86-.53,2.43-.48,4.83-1.39,7.19-2.13.55-.17,1.33-.63,1.73-1.07.57-.11.37.52.4.53Z"/>
        <g>
          <path class="cls-31" d="m35.4,133.9l-9.86,3.46c-1.36,0-2.64.27-4,.27-.03-.53.03-1.07,0-1.6,1.38,1.59,5.8.63,7.59-.53.54.61,5.37-1.71,5.46-2,.27-.96-1.04-1.89-1.07-2-.04-.18,0-2.2-.53-3.6-.43-1.13-1.08-2.74-1.86-3.06-.03-.01.17-.64-.4-.53-.4.43-1.19.89-1.73,1.07-.26-.68-1.21-3.95-1.33-4.13-.19-.27-.75-.07-.8-.13-.64-.84-1.4-1.64-2.13-2.4,4.69-2.43,1.97-4.37-.27-6.66-.02-.02.54-.13.27-.4-2.63-2.55-5.82-2.27-9.32-2.53-1.91-4.82-5.36-8.96-8.52-13.05-1.95-2.53-3.53-5.19-6.13-7.19,2.26-1.35,10.31,6.95,11.99,8.92,3.14,3.7,5.25,8.34,8.92,11.59,11.6,4.29,9.41,12.72,9.72,13.98.13.55,3.32,8.72,4,10.52Z"/>
          <path class="cls-8" d="m6.9,96.08c3.16,4.09,6.61,8.23,8.52,13.05-.64-.05-.98-.57-1.07,0,0-.02-.07.08-.27-.27-.51-.9-1.06-1.78-1.6-2.66-1.58-2.61-4.34-7.38-6.13-9.59l.53-.53Z"/>
          <path class="cls-30" d="m6.9,96.08l-.53.53c-3.56-4.38-8.22-6.15-5.59-7.72,2.59,2,4.17,4.66,6.13,7.19Z"/>
        </g>
        <path class="cls-25" d="m14.09,108.87l-2.4.8c-.48-.22-1-.78-1.07-.8l1.86-2.66c.54.89,1.08,1.76,1.6,2.66Z"/>
        <g>
          <path class="cls-31" d="m43.12,152.02c2.18,4.73,4.42,9.44,7.19,13.85-1.39,6.26-.45,6.88,4.26,10.39-.42,2.38,7.23,4.1,6.39,6.53-1.31,3.8-14.75,12.08-18.78,12.92-.14.03-2.25-.58-2,.27-.75-.42-.94-.58-1.6-1.07-.03-.25.06-.58,0-.8l8.26-4.93c-.88-3.84-1.67-7.67-2.13-11.59-.48-4.11-.14-8.3-1.07-12.39-.76-3.35-5.67-14.66-7.19-19.31-.14-.43-.01-1.14-.27-1.6.13-.07,2.05-2.05,2.4-1.73,1.21,2.77,3.23,9.06,4.53,9.46Z"/>
          <path class="cls-54" d="m36.19,144.29c.26.46.12,1.17.27,1.6.54,5.77-2.53,10.98-3.2,16.65-.98,8.36-.33,15.7,4,23.04-.85,4.33.95,7.07,1.33,8.52.06.22-.03.55,0,.8-7.94-5.81-11.82-18.62-13.32-27.97.06.17,1.12.87,1.33,3.06,2.57,2.22.84-1.71,2.13-3.2-1.49-.15-.32-.76-.53-2.66-.11-.99-1.21-4.77-1.6-8.52-.31-2.98-.8-8.14.27-7.86.04,0-.16-.04.8-.27,2.77-.66,6.01-1.86,8.52-3.2Z"/>
          <path class="cls-31" d="m62.3,180.52l5.06,2.66c-6.54,8.27-15.89,19.04-27.17,12.79-.25-.85,1.86-.24,2-.27,4.03-.84,17.47-9.12,18.78-12.92.84-2.43-6.82-4.14-6.39-6.53,1.85,1.38,5.54,3.69,7.72,4.26Z"/>
          <path class="cls-54" d="m26.87,147.75c-1.06-.28-.58,4.88-.27,7.86.39,3.75,1.49,7.54,1.6,8.52.22,1.9-.96,2.51.53,2.66-1.29,1.48.44,5.42-2.13,3.2-.21-2.19-1.27-2.89-1.33-3.06-.87-2.57-2.56-15.04-2.93-18.64,1.43-.14,3.13-.25,4.53-.53Z"/>
          <path class="cls-47" d="m44.72,177.59c-2.58,2.45-6.75,4.37-7.46,7.99-4.33-7.34-4.98-14.68-4-23.04.66-5.67,3.74-10.87,3.2-16.65,1.53,4.65,6.43,15.96,7.19,19.31.92,4.08.58,8.28,1.07,12.39Z"/>
          <path class="cls-44" d="m38.59,194.1c-.38-1.45-2.18-4.19-1.33-8.52.71-3.62,4.87-5.55,7.46-7.99.46,3.91,1.25,7.75,2.13,11.59l-8.26,4.93Z"/>
        </g>
        <path class="cls-31" d="m26.87,121.12c.05.07.61-.14.8.13.12.18,1.07,3.44,1.33,4.13-2.36.74-4.76,1.65-7.19,2.13-5.94-.94-7.64-1.03-1.86-3.73,2.18-1.02,4.63-1.89,6.93-2.66Z"/>
        <path class="cls-33" d="m15.42,109.13c3.5.26,6.7-.02,9.32,2.53.28.27-.28.38-.27.4-2.1-.21-4.8,1.28-5.06,1.33-.52.11-1.08.17-1.6.27-.14.03-2.05-.85-2.93.13-1.36,1.51,1.71,1.94,1.86,2l2.4,5.86c-1.11-1.9-3.63-6.15-4.79-4.53.04-.12-.11-.49.8-1.2-2.25-2.28.83-3.24.8-3.46-.03-.27-4.36-1.81-3.73-2.53.85.4,2.85,1.85,3.33,1.6.31-.28-.56-1.27-1.2-2.4.08-.57.42-.05,1.07,0Z"/>
        <path class="cls-8" d="m17.28,115.79c1.6.63,3.3,1.89,5.06,1.07,1.33,1.32,2.29,1.76,2.4,1.86.73.76,1.49,1.56,2.13,2.4-2.29.77-4.74,1.64-6.93,2.66.54-.6-.11-.95-.8-2.13l-2.4-5.86c.12.05.41-.05.53,0Z"/>
        <path class="cls-23" d="m24.47,112.06c2.23,2.28,4.95,4.23.27,6.66-.11-.11-1.07-.54-2.4-1.86-1.06-1.06-1.98-2.3-2.93-3.46.26-.05,2.96-1.54,5.06-1.33Z"/>
        <path class="cls-31" d="m19.41,113.39c.95,1.16,1.87,2.41,2.93,3.46-1.76.83-3.47-.43-5.06-1.07l.53-2.13c.52-.09,1.08-.16,1.6-.27Z"/>
        <path class="cls-40" d="m17.82,113.66l-.53,2.13c-.12-.05-.41.05-.53,0-.15-.06-3.22-.48-1.86-2,.88-.98,2.79-.11,2.93-.13Z"/>
      </g>
      <g>
        <path class="cls-7" d="m109.18,203.69c-.04,1.45-.41,3.05-.4,4.53h-20.24c-.79-.28-.18-7.13-.4-8.52.99-2.69,2.05,3.34,3.06,3.73h14.38l.13-5.59c1.34.09,2.7-.3,3.2.4-.32,1.77.31,3.74.27,5.46Z"/>
        <path class="cls-52" d="m105.71,197.83l-.13,5.59h-14.38c-1.02-.39-2.08-6.42-3.06-3.73-.19-1.22-.62-.97-.8-1.86,6.09.23,12.31-.4,18.38,0Z"/>
      </g>
      <path class="cls-18" d="m120.36,162.67c1.06,3.27,3.68,6.44,6.39,8.52,3.12,5.8-1.63,8.35-4.79,12.52-1.6-2.44-2.15-3.26-3.2-6.13,6.03-1.83,2.87-4.87.27-14.38l1.33-.53Z"/>
      <path class="cls-9" d="m119.03,163.2c2.6,9.52,5.77,12.56-.27,14.38-.23-.64-.34-1.24-.53-1.86-.52-1.66-.96-3.36-1.33-5.06-.46-2.07-2.1-10.98-1.86-12.25.08-.41,1.63-2.19,2.13-2.66-.1,2.64,1.19,5,1.86,7.46Z"/>
      <path class="cls-24" d="m115.84,176.79c.26-.03.57.05.8,0,2.02,4.4,4.41,10,7.46,13.72,1.46,1.79,3.55,3.07,4.93,4.93-6.61-2.46-11.64-11.92-13.72-18.38.03,0-.2-.19.53-.27Z"/>
      <g>
        <path class="cls-41" d="m87.87,177.05c.03,5.91,2.05,12.29-9.32,11.19-.64-.06-5.52-1.34-5.86-1.6-.67-.82-2.87-6.3-2.93-6.66-.01-.07.08-.16,0-1.33l.4-1.6h17.71Z"/>
        <path class="cls-14" d="m95.06,156.81c.07,0,.2.46,1.46.27l.13-.53c2.97,1.27,11.41.03,13.85.27.34.03,1.78.57,2.4.8-.26,2.12.45,4.57.8,6.93,1.04,3.42-6.67,2.89-6.93,2.53-.13-.19.13-1.35,0-1.6-.45-.83-16.62-.53-18.78-.4-.32.02-.73,1.06-.8,1.07-4.48.29-9.31-.56-13.85,0-.8-.31.32-2.43.13-3.2.52-1.95,1.09-3.9,1.6-5.86.24.03.24-.07.27-.27.7.04,1.43-.06,2.13,0,.86.07,1.6-.03,2.4,0,1.03.03,1.01-.27,1.07-.27.32,0,.55.53.67.53,4.41.1,9.06.22,13.45-.27Z"/>
        <g>
          <path class="cls-35" d="m113.7,164.54c.11.77,1.21,6.22.93,6.39h-8.12c-.07-1.64.05-3.29,0-4.93l-.53-.4c-4.06.32-15.19-.42-17.31,0-.37.07-.71-.16-1.07.4-.05,3.69.25,7.36.27,11.05h-17.71l-.4,1.6c-.15-2.21.15-3.09.53-5.06.3-1.57.97-2.88,1.33-4.26.23-.89.33-2.16.53-2.93.05-.18.94-2,1.33-3.46.19.77-.94,2.88-.13,3.2,4.54-.56,9.37.29,13.85,0,.07,0,.48-1.05.8-1.07,2.16-.13,18.33-.43,18.78.4.13.25-.13,1.41,0,1.6.25.36,7.96.89,6.93-2.53Z"/>
          <path class="cls-55" d="m72.55,170.66c.71-.17,12.42.53,14.65.27l.13,5.73q-8.46.07-16.91.13c-.32-.22-.16-5.59,2.13-6.13Z"/>
        </g>
        <path class="cls-36" d="m115.04,158.41c-.24,1.27,1.41,10.18,1.86,12.25-3.18.1-1.24,1.49-1.07,6.13-.74.08-.5.26-.53.27-2.12.12-5.84-.64-8.26-.27,0-.03-.52.09-.53-.13-.06-1.9.08-3.82,0-5.73h8.12c.27-.17-.82-5.63-.93-6.39-.35-2.35-1.05-4.81-.8-6.93.71.26,1.39.63,2.13.8Z"/>
        <path class="cls-53" d="m116.9,170.66c.38,1.7.81,3.4,1.33,5.06-.41.92-.63.84-1.6,1.07-.23.05-.54-.03-.8,0-.17-4.64-2.12-6.02,1.07-6.13Z"/>
      </g>
      <path class="cls-42" d="m119.3,156.28c.21,2.06.43,4.43,1.07,6.39l-1.33.53c-.67-2.46-1.96-4.81-1.86-7.46-.01-.6.53-1.51.53-1.6l1.6,2.13Z"/>
      <path class="cls-56" d="m118.77,149.09c.58,2.33.29,4.85.53,7.19l-1.6-2.13c.12-1.71-.07-3.37.53-5.06h.53Z"/>
      <g>
        <path class="cls-62" d="m159.25,161.87c2.64,6.45,4.23,13.66,6.79,19.98-.08.12-1.72.65-2,.8-1.45.78-3.11,1.17-4.53,1.86-.06-.77.5-.19.53-1.2.12-3.89-.83-9.46-1.33-13.45-.04-.31.41-.83.27-2l-2.4-7.59s.12-.47.8-.8c.29-.14.47-.3.67-.53l.4.4c.35.8.47,1.73.8,2.53Z"/>
        <path class="cls-1" d="m158.72,169.86c.5,3.99,1.45,9.56,1.33,13.45-.03,1.01-.59.42-.53,1.2-.85.41-1.59.86-2.4,1.33-3.88.84-7.54,2.46-11.45,3.2q-.53-6.53-1.07-13.05c.64-.11,1.25-.38,1.86-.53,4.41-1.07,8.46-3.13,12.25-5.59Z"/>
        <g>
          <path class="cls-6" d="m156.59,160.27l2.4,7.59c.14,1.17-.31,1.69-.27,2-3.79,2.46-7.84,4.52-12.25,5.59l-3.46-6.13c4.44-3.11,9.01-6.15,13.58-9.06Z"/>
          <path class="cls-19" d="m146.47,175.46c-.62.15-1.23.42-1.86.53-1.59.28-7.65.88-8.79.53-.37-.11-.25-.26-.27-.27-.36-.23-1.05-1.42-.4-1.6,2.8-1.49,5.27-3.51,7.86-5.33l3.46,6.13Z"/>
        </g>
        <path class="cls-56" d="m144.6,175.99q.53,6.53,1.07,13.05c-.37.07-.25.26-.27.27-.63.09-1.28.32-1.46.27-2.91-4.16-5.69-8.55-8.12-13.05,1.14.34,7.2-.25,8.79-.53Z"/>
      </g>
      <g>
        <path class="cls-47" d="m92.4,46.01l-.8.93c3.37,2.54,3.97,6.04,4.79,4.39.33,1.75,1.08,4.52.27,5.86-6.93-3.38-12.52,1.04-11.45,4.79.53,1.85,2.67-.1,4,.93-1.73,1.93-1.75,3.54-2.4,5.73-.45,1.51-1.11,2.95-1.33,4.53-.08,0-.82.66-1.6.53-.56-2.47-2.48-4.05-4.93-2.66-3.33,1.89-2.28,8.43-2.53,11.59.2.27,1.22.1,1.6.13,4.86.42.7.84-.93.53-1.49-.28-7.82-5.75-3.33.27-.47-.14-2.19.02-2.66-.4-4.02-8.17.02-8.84-7.32-8.39-.47,1.25.04,1.75.93,2.53-2.05,1.57-.55,4.54-2.4,7.19,1.55.64,1.57,1.98,2,2.26.09.06.44-.16,2,.53,1.34,1.08,3.16,2.4,4.79,2.93h-.27c-.82-.38.56,2.52.8,5.19.39,1.04,1.97,3.11,2.93,3.6-.38,3.15,5.26,3.23,4.53,9.06-.58.15-1.64,0-2.13.53-5.1-1.68-12.58-11.94-14.38-16.91-1.41-3.88-3.85-15.21,1.07-17.18.59-.24.5-.26.53-.27.1-.02.04.22,1.07,0,.14-.03.07.69,2.93-.27,1.75.42,4.55-.03,6.39-.27.26-.03.46.56.8.13-1.28-2.81-3.69-4.56-5.59-6.79-1.04-1.22-3.14-2.86-2.66-4.66.57-2.14,5.96-1.17,4.79-2-2.27-6.62-5.8-1.89-6.66-3.06,3.65-10.15,8.53-12.01,18.11-14.25.08-.02.18.02.27,0,3.2.38,5.98,1.43,8.79,2.93Z"/>
        <path class="cls-47" d="m88.4,104.34c-1.64.83-7.69,3.3-9.32,3.73.73-5.83-4.91-5.91-4.53-9.06,7.04,3.55,13.99-4.55,16.78-10.12.27-.53.53-1.06.8-1.6,4.16,2.67,8.6,3.21,13.32,4.13.25,1.86-14.69,11.73-17.05,12.92Z"/>
        <path class="cls-23" d="m96.12,73.97c-.11.88,1.46,1.15,1.33,2-.13.86-12.54,10.37-13.05,11.45-.07.14.61.07.53.4-1.82.04-13.13-.62-13.72-.27-.49.29.97,2.35-4.93-.27-1.56-.69-1.91-.48-2-.53-.42-.28-.45-1.62-2-2.26,1.85-2.66.35-5.62,2.4-7.19-.89-.78-1.4-1.28-.93-2.53,7.35-.45,3.31.22,7.32,8.39.47.41,2.19.26,2.66.4,3.24.98,7.87,1.97,9.86-1.86.02-.04.2-.05.53-.67-.47-2.09.21-5.22-.27-7.32.77.12,1.51-.53,1.6-.53.64.01,4,2.23,10.65.8Z"/>
        <path class="cls-13" d="m96.66,57.19c.38.18,3.67,2.36,2.53,2.93-5.13-1.72-9.61-1.33-13.98,1.86-1.07-3.75,4.52-8.17,11.45-4.79Z"/>
        <path class="cls-44" d="m71.89,60.39c1.16.83-4.22-.14-4.79,2-.48,1.8,1.62,3.44,2.66,4.66-5.39-3.21-7.12,5-6.66-1.46.38-5.35,4.11-6.18,8.79-5.19Z"/>
        <path class="cls-26" d="m78.01,82.76c-.77-1.27.28-1.41,1.33-1.6.52-.1,1.94-.03,2.66,0,.6.02,1.34-.24,1.6.53-1.98,3.84-6.62,2.85-9.86,1.86-4.49-6.02,1.84-.55,3.33-.27,1.63.31,5.8-.12.93-.53Z"/>
        <path class="cls-23" d="m95.86,48.4c.16.98.35,1.96.53,2.93-.82,1.65-1.42-1.86-4.79-4.39l.8-.93c1.25.67,2.32,1.58,3.46,2.4Z"/>
        <g>
          <path class="cls-8" d="m111.84,96.61c0,1.72-.04,3.33,0,5.06l-.8-.67c.11,9.91-3.35,9.72-11.72,11.59-1.59-.62-3.25-1.19-4.53-2.4-.97-3,5.35-2.42,11.19-8.92,3.23-3.6,4.01-6.74,5.86-10.52l.53.4c-.96,1.68-.53,3.75-.53,5.46Z"/>
          <path class="cls-31" d="m111.84,101.68c.08,3.38.31,6.74.27,10.12v4.26c-.83,1.02-1.59,2.15-2.4,3.2-7.06,9.2-7.87,10.26-10.39,21.57-.14.61-.31,1.04-.53,2.13-.32,1.59-.79,3.2-1.07,4.79-.67-.19-.49-.73-.53-.8,2.02-8.18,2.6-16.03,8.26-22.77-.42-2.9.15-6.79-.8-7.32.22-.84.63-1.63.53-2.53-.17-.22-2.02-.19-2.66-.4-1.11-.35-2.13-.92-3.2-1.33,8.37-1.86,11.83-1.67,11.72-11.59l.8.67Z"/>
          <path class="cls-47" d="m99.32,112.6c1.06.42,2.08.98,3.2,1.33-1,3.75-2.15,7.55-2.13,11.45-.85.68-4.77,3.19-5.59,2.93.04-1.13-.1-9.62-.53-9.86,0-2.74.4-5.48.27-8.26h.27c1.28,1.21,2.93,1.78,4.53,2.4Z"/>
          <path class="cls-4" d="m111.84,90.75c-1.85,3.78-2.63,6.92-5.86,10.52-5.84,6.5-12.16,5.93-11.19,8.92h-.27c0-.19-.49-1.77-.27-3.73.03-.01-.11-.43.13-.53,8.7-3.65,12.6-7.13,15.58-16.25l1.86,1.07Z"/>
          <path class="cls-31" d="m97.19,146.96c-.18-.33-.53-.78-.8-1.07-.02-3.18-.55-6.42-.8-9.59-.06-.82-.8-3.66-1.07-7.46.35.02.26-.23.27-.53.83.26,4.75-2.25,5.59-2.93.09-.07.41.56,1.6-1.46.58-2.42,2.04-4.67,2.66-7.06.95.54.38,4.42.8,7.32-5.66,6.74-6.24,14.6-8.26,22.77Z"/>
          <path class="cls-44" d="m104.65,116.86c-.62,2.39-2.08,4.64-2.66,7.06-1.19,2.02-1.5,1.39-1.6,1.46-.02-3.9,1.13-7.7,2.13-11.45.65.21,2.5.18,2.66.4.09.9-.32,1.69-.53,2.53Z"/>
          <path class="cls-2" d="m97.19,146.96c.04.07-.13.61.53.8-.28,1.59-.6,8.06-1.07,8.79l-.13.53c-1.26.19-1.39-.27-1.46-.27v-2.66c.89,3.02,1.36-4.9,1.33-8.26.27.28.62.74.8,1.07Z"/>
          <path class="cls-60" d="m94.79,128.31c-.01.3.08.55-.27.53-.15-2.08-.21-4.05-.27-6.13-.04-1.42,0-2.84,0-4.26.43.24.57,8.72.53,9.86Z"/>
        </g>
        <g>
          <path class="cls-31" d="m111.84,77.97c.71,1.25-2.03,3.85-2.93,4.66-.93,8.48-6.47,15.44-13.72,19.58-1.55.89-5.79,3.45-6.79,2.13,2.36-1.19,17.3-11.05,17.05-12.92-4.72-.92-9.16-1.46-13.32-4.13l.27-.4-.67-.4c-.88.54-2.99,1.5-3.86,1.6-.15.02-2.09-.28-2.93-.27.08-.33-.6-.26-.53-.4.51-1.08,12.92-10.6,13.05-11.45.13-.85-1.44-1.12-1.33-2,1.2-.26,2.68-.92,3.73-1.6.07-.04.7.24,1.33-.67.16-.75-5.27-6.59-10.92-5.73-1.14.17-1.42.72-2.13,1.33-.52.45-.82.9-1.33,1.33.65-2.19.67-3.8,2.4-5.73-1.32-1.03-3.47.92-4-.93,4.38-3.19,8.85-3.59,13.98-1.86,1.14-.57-2.15-2.75-2.53-2.93.81-1.34.07-4.11-.27-5.86-.19-.97-.37-1.95-.53-2.93,9.58,6.91,12.54,14.8,14.65,26.24.12.67-.15,2.99,0,3.2.23.32,1.06,0,1.33.13Z"/>
          <path class="cls-31" d="m102.65,79.3c1.47-.26,3.45.23,4.13,1.73,2.06,4.56-2.58,6.22-6.26,4.93-2.84-1-3.01-5.75,2.13-6.66Z"/>
          <path class="cls-4" d="m99.85,72.38c-1.33-1.52-2.89-2.58-4.53-3.73-2.15-1.51-2-2.51-5.06-2.66,5.65-.87,11.08,4.97,10.92,5.73-.63.9-1.27.62-1.33.67Z"/>
        </g>
        <g>
          <path class="cls-51" d="m91.33,88.89c-2.79,5.57-9.74,13.67-16.78,10.12-.96-.48-2.54-2.55-2.93-3.6-.24-2.68-1.62-5.57-.8-5.19,3.8,9.04,14.94,4.64,19.44-1.33.05-.01.04-.64,1.07,0Z"/>
          <path class="cls-17" d="m90.26,88.89c-4.5,5.97-15.65,10.37-19.44,1.33h.27c5.8,1.87,11.35.63,17.05-.8.71-.18,1.42-.37,2.13-.53Z"/>
          <path class="cls-31" d="m84.94,87.82c.84-.02,2.78.28,2.93.27l.27,1.33c-5.69,1.43-11.25,2.66-17.05.8-1.63-.53-3.45-1.85-4.79-2.93,5.9,2.61,4.44.56,4.93.27.59-.35,11.89.3,13.72.27Z"/>
          <path class="cls-4" d="m92.13,87.29c-.26.53-.53,1.07-.8,1.6-1.02-.64-1.01-.01-1.07,0-.71.17-1.42.35-2.13.53l-.27-1.33c.87-.09,2.98-1.06,3.86-1.6l.67.4-.27.4Z"/>
        </g>
        <g>
          <path class="cls-44" d="m83.87,73.71c.48,2.1-.2,5.23.27,7.32-.34.62-.51.63-.53.67-.26-.78-1-.51-1.6-.53-.57-1.85,1-2,.8-3.86-.39-3.51-7.13-2.56-3.46,3.86-1.05.19-2.1.33-1.33,1.6-.38-.03-1.4.13-1.6-.13.25-3.15-.8-9.7,2.53-11.59,2.45-1.39,4.36.19,4.93,2.66Z"/>
          <path class="cls-44" d="m82.01,81.17c-.72-.03-2.14-.1-2.66,0-3.67-6.42,3.08-7.37,3.46-3.86.2,1.86-1.37,2.02-.8,3.86Z"/>
        </g>
        <g>
          <path class="cls-10" d="m88.13,69.18c-.45,1.41-2.31,4.05.53,3.73.43.6,1.37.98,2.13,1.07,2.85.32,6.22-1.32,9.06-1.6-1.05.68-2.53,1.34-3.73,1.6-6.65,1.43-10.02-.79-10.65-.8.22-1.57.88-3.02,1.33-4.53.51-.43.81-.88,1.33-1.33.58.53.2,1.24,0,1.86Z"/>
          <path class="cls-33" d="m95.33,68.65c.15,1.23-.11,2.18-.8,3.2-.04-1.28.94-2.09,0-3.2-1.54-1.8-.53.17-.53.27.04,4.39-3.25,3.24-1.86,4.53-.4.13-1.08.13-1.33.53-.76-.09-1.71-.46-2.13-1.07-.91-1.29-.68-2.36,0-3.86l-.53.13c.2-.62.58-1.34,0-1.86.71-.61.99-1.16,2.13-1.33,3.06.15,2.91,1.15,5.06,2.66Z"/>
          <path class="cls-12" d="m99.85,72.38c-2.83.27-6.2,1.92-9.06,1.6.25-.4.94-.4,1.33-.53,1.12-.37,1.69-.57,2.4-1.6.69-1.02.95-1.97.8-3.2,1.64,1.15,3.2,2.21,4.53,3.73Z"/>
          <path class="cls-49" d="m88.67,72.91c-2.84.32-.98-2.32-.53-3.73l.53-.13c-.68,1.5-.91,2.57,0,3.86Z"/>
          <path class="cls-43" d="m94.53,71.84c-.7,1.03-1.28,1.22-2.4,1.6-1.39-1.29,1.9-.14,1.86-4.53l.53-.27c.94,1.1-.04,1.91,0,3.2Z"/>
          <path class="cls-63" d="m94.53,68.65l-.53.27c0-.1-1.01-2.06.53-.27Z"/>
        </g>
      </g>
      <g>
        <path class="cls-24" d="m123.56,119.25c0,.05.64.04,0,1.07-2.19-2.18-.05,1.73,1.6,2,.3.86-7.03,14.33-9.32,15.32-.79.19-1.58.47-2.4.53,1.28-4.45,3.49-9.2,5.59-13.32,1.02-1.99,2.16-3.88,3.2-5.86l1.33.27Z"/>
        <path class="cls-51" d="m123.56,120.32c1.2,1.19,2.25,2.11,3.73,2.93-1.46,3.76-3.7,7.11-5.06,10.92-1.46,4.08-2.34,8.3-2.93,12.65-.91.94-1.77.13-1.86.13.91-3.33,1.69-6.61,3.2-9.72-1.64-.4-3.21.03-4.79.4,2.29-.99,9.63-14.46,9.32-15.32-1.64-.27-3.79-4.18-1.6-2Z"/>
        <path class="cls-48" d="m117.43,146.96c-1.95.04-3.91-.03-5.86,0,.31-1.97.62-3.92,1.07-5.86.21-.92.53-2.01.8-2.93.82-.06,1.6-.35,2.4-.53,1.58-.37,3.15-.8,4.79-.4-1.5,3.11-2.28,6.39-3.2,9.72Z"/>
        <path class="cls-60" d="m121.96,136.03c-.09.36-.18.7-.27,1.07-.97,4-1.65,8.07-2.93,11.99h-.53q-3.2-.27-6.39-.53c.05-.39-.4-.73-.27-1.6,1.95-.03,3.91.04,5.86,0,.09,0,.96.81,1.86-.13.59-4.35,1.47-8.57,2.93-12.65.1.67-.11,1.24-.27,1.86Z"/>
        <g>
          <path class="cls-51" d="m118.23,149.09c-.6,1.69-.41,3.35-.53,5.06,0,.08-.55,1-.53,1.6-.5.48-2.05,2.25-2.13,2.66-.74-.17-1.42-.54-2.13-.8-.62-.23-2.05-.77-2.4-.8-.12-4.32,1.2-7.29,1.33-8.26q3.2.27,6.39.53Z"/>
          <path class="cls-19" d="m114.77,152.82c-.46,1.7-.23,3.87-1.33,3.46-2.04-.88-2.64-3.75,1.33-3.46Z"/>
          <path class="cls-33" d="m113.44,156.28c1.1.41.87-1.76,1.33-3.46.57.04,1.16-.03,1.73,0-.98,3.48-1.21,4.26-3.06,3.46Z"/>
        </g>
      </g>
    </g>
  </g>
</svg>