<?xml version="1.0" encoding="UTF-8"?>
<svg id="Camada_2" data-name="Camada 2" xmlns="http://www.w3.org/2000/svg" viewBox="0 0 201.17 254.74">
  <defs>
    <style>
      .cls-1 {
        fill: #c89c77;
      }

      .cls-1, .cls-2, .cls-3, .cls-4, .cls-5, .cls-6, .cls-7, .cls-8, .cls-9, .cls-10, .cls-11, .cls-12, .cls-13, .cls-14, .cls-15, .cls-16, .cls-17, .cls-18, .cls-19, .cls-20, .cls-21, .cls-22, .cls-23, .cls-24, .cls-25, .cls-26, .cls-27, .cls-28, .cls-29, .cls-30, .cls-31, .cls-32, .cls-33, .cls-34, .cls-35, .cls-36, .cls-37, .cls-38, .cls-39, .cls-40, .cls-41, .cls-42 {
        stroke-width: 0px;
      }

      .cls-2 {
        fill: #221c1f;
      }

      .cls-3 {
        fill: #bcd3c7;
      }

      .cls-4 {
        fill: #f9e1ab;
      }

      .cls-5 {
        fill: #bacbe2;
      }

      .cls-6 {
        fill: #ff9142;
      }

      .cls-7 {
        fill: #f0dbc1;
      }

      .cls-8 {
        fill: #f5a767;
      }

      .cls-9 {
        fill: #131010;
      }

      .cls-10 {
        fill: #bd9174;
      }

      .cls-11 {
        fill: #4d6573;
      }

      .cls-12 {
        fill: #3f180c;
      }

      .cls-13 {
        fill: #c37734;
      }

      .cls-14 {
        fill: #d7ceb7;
      }

      .cls-15 {
        fill: #3b4358;
      }

      .cls-16 {
        fill: #7b6352;
      }

      .cls-17 {
        fill: #8f7649;
      }

      .cls-18 {
        fill: #e8dfce;
      }

      .cls-19 {
        fill: #201813;
      }

      .cls-20 {
        fill: #323d50;
      }

      .cls-21 {
        fill: #786950;
      }

      .cls-22 {
        fill: #4e8b96;
      }

      .cls-23 {
        fill: #b0efd4;
      }

      .cls-24 {
        fill: #dedbd5;
      }

      .cls-25 {
        fill: #90846f;
      }

      .cls-26 {
        fill: #12323e;
      }

      .cls-27 {
        fill: #1c2220;
      }

      .cls-28 {
        fill: #f9cfa5;
      }

      .cls-29 {
        fill: #afc0ff;
      }

      .cls-30 {
        fill: #debe87;
      }

      .cls-31 {
        fill: #1e2838;
      }

      .cls-32 {
        fill: #c3895e;
      }

      .cls-33 {
        fill: #6b5135;
      }

      .cls-34 {
        fill: #f6c578;
      }

      .cls-35 {
        fill: #c2987b;
      }

      .cls-36 {
        fill: #04492f;
      }

      .cls-37 {
        fill: #394c66;
      }

      .cls-38 {
        fill: #b3bfd7;
      }

      .cls-39 {
        fill: #303935;
      }

      .cls-40 {
        fill: #1a1911;
      }

      .cls-41 {
        fill: #0d5560;
      }

      .cls-42 {
        fill: #1b1a1e;
      }
    </style>
  </defs>
  <g id="Camada_1-2" data-name="Camada 1">
    <g>
      <path class="cls-18" d="m3.1,213.96c.47.91,2.23,2.34,3.08,3.08,5.84,7.25,13.69,12.25,21.56,16.94,2.39,1.43,3.91,2.38,6.47,3.7,10.26,5.27,18.96,8.37,30.19,11.09,2.94.71,5.94,1.67,8.93,2.16,8.63,1.41,17.48,1.54,26.18,1.54,1.54,0,3.08.03,4.62,0,24.46-.53,40.9-4.37,62.53-15.71,5.52-2.9,12.12-6.47,17.1-10.16,1.84-1.37,13.45-11.68,14.02-12.63,1.53-.14.46.4.92,1.23-9.94,11.91-32.78,25.34-47.28,30.8-36.58,13.78-84.9,11.24-119.52-7.39-7.93-4.27-25.33-16.55-30.34-23.72l1.54-.92Z"/>
      <path class="cls-18" d="m36.68,48.86c-.27,1.08-.75,1.45-.62,2.77.04.35.75,1.3.92,1.85-.05,0,.3.82-.77.62-3.37-4.53.2-5.01.46-5.24Z"/>
      <g>
        <path class="cls-24" d="m71.49,145.89l-19.1,8.01c-.48.08-1.53.19-1.85.31-4.91,1.8-9.87,3.43-14.79,5.24-.09.03-.22-.03-.31,0-2.77,1.02-5.56,2.04-8.32,3.08-1,.38-1.17.59-1.23.62-.19.07-2.24.27-4,1.08-.06.57.09,1.38,0,1.54-8.45,14.91-14.6,30.71-19.41,47.13,0,.47.41.68.62,1.08l-1.54.92c-.31-.45-1.77-.99-1.54-2,4.8-17.98,9.41-33.98,20.02-49.59,14.92-11.7,33.52-16.23,51.44-21.1,0,1.23,0,2.46,0,3.7Z"/>
        <path class="cls-24" d="m198.7,215.19c-.46-.83.6-1.37-.92-1.23.5-.84.68-1.3.62-2.31-.17-2.61-7.55-23.24-9.24-27.11-2.83-6.48-9.56-17.48-9.86-18.48-.15-.49.73-.7.62-1.23-.28-.79-3.08-.58-3.7-.77-3.06-.92-5.98-2.5-8.93-3.7-1.16-.47-1.76-.58-1.85-.62-5-2.03-10.14-4.05-15.09-6.16-5.02-2.14-9.88-4.77-15.09-6.47-1.26-.79-1.31-2.83-1.54-4.31,12.35,2.85,38.36,11.62,46.82,20.48,10.01,10.48,16.62,35.05,20.64,48.98-.09.92-1.94,2.3-2.46,2.93Z"/>
        <path class="cls-20" d="m71.49,145.89c0,1.13-.05,2.25,0,3.39-.94-1.13-1.99,3.02-2.16,4.47-.28,2.37.66,18.96,1.54,20.33,7.75,2.66,27.65,16.02,29.26,16.48-.03.25-.21.37-.31.62-.29-.05-.63.05-.92,0-3.04-.53-6.53-1.65-9.55-2.46-2.09-.57-4.08-1.26-6.16-1.85-.09-.43.19-.82-.46-1.23-13.4.13-26.8-.17-40.2,0-1.6-1.53-7.64.04-9.55-.92-1.78-7.44-3.86-14.79-5.85-22.18,2.76-1.04,5.55-2.06,8.32-3.08-.1,5.41,2.4,10.48,3.08,15.86.43.71,1.17.14,1.23.15,2.02.39,15.4,1.39,14.17-1.54.27.76.34,1.76.46,1.85.15.11,3.54.1,3.7,0,.94-.63-5.05-19.52-5.7-21.87l19.1-8.01Z"/>
        <path class="cls-42" d="m135.25,147.12c5.21,1.7,10.07,4.33,15.09,6.47q-2.62,10.86-5.24,21.72c.41,1.13,13.37.16,15.09.15,1.12,0,2.26,0,3.39,0,1.03,0,2.05.1,3.08.15q-.77,4.85-1.54,9.7c-1.71-.61-31.83.31-36.35.31-7.17,1.99-14.37,3.9-21.25,6.78-1.65-1.33-2.32-.59-2.77-.62-1.38-.06-2.87-.36-4.31-.31-.27,0-.31-.26-.62-.31.1-.25.28-.37.31-.62,1.19.34,5.25.54,6.31.31,1.48-.32,17.7-13.02,26.03-15.25.65-5.62,1.54-11.29,1.85-16.94.25-4.61-.77-12.11.92-11.55Z"/>
        <path class="cls-37" d="m25.9,163.14c-.27.5-.77.07-.62,1.39.28,2.43,6.83,21.33,8.01,26.49.77.75.84-1.04.92-1.69h.92c.02.72,0,1.44,0,2.16.01,1.23.02,2.47,0,3.7-.72.18-1.15,1.44-1.23,2-.81,5.57-.96,11.36-1.85,16.94-.95,5.95-2.42,11.82-3.7,17.71-7.82-4.3-14.93-9.6-22.18-14.79-.85-.74-2.61-2.17-3.08-3.08-.21-.4-.62-.61-.62-1.08,4.81-16.42,10.95-32.22,19.41-47.13.09-.16-.06-.97,0-1.54,1.76-.81,3.81-1,4-1.08Z"/>
        <path class="cls-41" d="m27.13,162.52c2,7.39,4.07,14.73,5.85,22.18.36,1.48.24,3.18,1.54,3.23.12.45-.23.76-.31,1.39-.08.65-.15,2.45-.92,1.69-1.17-5.16-7.73-24.06-8.01-26.49-.15-1.31.35-.89.62-1.39.06-.02.23-.24,1.23-.62Z"/>
        <g>
          <path class="cls-16" d="m53.93,173.92c1.23,2.93-12.15,1.93-14.17,1.54l-4-16.02c4.92-1.81,9.88-3.44,14.79-5.24,1.45,5.13,2.01,15.87,3.39,19.71Z"/>
          <path class="cls-42" d="m52.39,153.89c.65,2.35,6.64,21.24,5.7,21.87-.15.1-3.54.11-3.7,0-.12-.09-.19-1.08-.46-1.85-1.37-3.85-1.94-14.58-3.39-19.71.32-.12,1.36-.23,1.85-.31Z"/>
          <path class="cls-31" d="m39.76,175.46c-.06-.01-.8.56-1.23-.15-.68-5.38-3.18-10.45-3.08-15.86.09-.03.22.03.31,0l4,16.02Z"/>
        </g>
        <path class="cls-42" d="m197.78,213.96c-.56.95-12.17,11.26-14.02,12.63-4.98,3.69-11.57,7.27-17.1,10.16-.7-.08,0-.27,0-.31,1.03-1.96,3.77-3.61,4-5.39-.9-11.83-2.23-23.65-3.08-35.42-.02-.22-.94.03-.31-4.16,1.97-9.41,5.45-18.49,8.93-27.41.62.19,3.42-.02,3.7.77.11.53-.76.74-.62,1.23.3,1,7.03,12,9.86,18.48,1.69,3.86,9.07,24.49,9.24,27.11.07,1.01-.12,1.47-.62,2.31Z"/>
        <g>
          <path class="cls-39" d="m165.44,159.75q-2.62,7.85-5.24,15.71c-1.72,0-14.69.97-15.09-.15q2.62-10.86,5.24-21.72c4.95,2.11,10.09,4.13,15.09,6.16Z"/>
          <path class="cls-27" d="m167.28,160.36l-3.7,15.09c-1.13,0-2.27,0-3.39,0q2.62-7.85,5.24-15.71c.09.04.69.15,1.85.62Z"/>
        </g>
        <path class="cls-2" d="m34.22,237.68c-2.55-1.31-4.07-2.27-6.47-3.7,1.06-.64.43-1.3.62-2.16,1.27-5.89,2.74-11.76,3.7-17.71.89-5.58,1.03-11.37,1.85-16.94.08-.56.52-1.82,1.23-2-.25,14.17-2.28,28.31-.92,42.51Z"/>
        <path class="cls-42" d="m28.36,231.83c-.18.85.44,1.52-.62,2.16-7.87-4.69-15.72-9.69-21.56-16.94,7.24,5.18,14.35,10.48,22.18,14.79Z"/>
        <g>
          <path class="cls-42" d="m133.71,142.81c.23,1.48.28,3.52,1.54,4.31-1.7-.56-.68,6.94-.92,11.55-.3,5.65-1.19,11.32-1.85,16.94-8.33,2.23-24.55,14.93-26.03,15.25-1.06.23-5.13.03-6.31-.31-1.62-.46-21.51-13.82-29.26-16.48-.88-1.37-1.82-17.96-1.54-20.33.17-1.45,1.22-5.59,2.16-4.47.35,8.09,1.39,16.16,2.46,24.18.79.72,5.52-4.54,6.62-5.08.35-.04,4.38,2.35,5.08,2.77,1.41.85,6.77,4.74,8.01,5.85,4.8,4.31,8.1,10.57,8.78,10.47,1.05-1.2,1.29-2.36,1.39-2.46,5.41-6.41,11.55-12.34,19.41-15.71q3.31,2.31,6.62,4.62c1.17-4.89,2.82-28.82,2-31.57-.31-1.03-1.34-.85-1.85-1.39,1.53.36,3.29-.25,3.7,1.85Z"/>
          <path class="cls-11" d="m77.03,140.65c.03.46.35,1.2.62,1.54-.91.33.58,2.16.92,3.23,2.67,8.41,4.12,17.37,7.08,25.72-.7-.42-4.74-2.81-5.08-2.77-1.1.55-5.83,5.81-6.62,5.08-1.07-8.02-2.12-16.09-2.46-24.18-.05-1.13,0-2.26,0-3.39,0-1.23,0-2.46,0-3.7,2.39-.65,1.69-1.07,5.54-1.54Z"/>
          <path class="cls-26" d="m130.01,140.96c.51.54,1.54.36,1.85,1.39.82,2.75-.83,26.68-2,31.57q-3.31-2.31-6.62-4.62c.76-7.43,1.32-15.03.62-22.49,1.51-3.07.78-1.63.92-4.31.03-.54-.16-2.21.15-2.46,1.71.28,3.39.53,5.08.92Z"/>
          <path class="cls-12" d="m81.34,143.42c.02.8.11,1.17-.62,1.69.01.23.6.43.62.46.96,3.16,10.5,16.36,12.94,20.64,1.46,2.57,5.49,10.3,6.16,12.63.05.16-.02.42,0,.62-3.64-7.59-8.19-14.45-12.63-21.56-2.68-4.29-7.53-12.32-10.16-15.71-.27-.34-.59-1.08-.62-1.54,2.73-.33,4.24-2.57,4.31,2.77Z"/>
          <path class="cls-2" d="m123.85,146.81c-.79,1.61-3.87,5.33-5.24,7.08,1.99-3.6,3.55-7.6,5.85-11.09,0-.1,0-.21,0-.31h.31c-.15,2.68.59,1.24-.92,4.31Z"/>
          <path class="cls-11" d="m123.24,169.3c-7.85,3.37-13.99,9.3-19.41,15.71-1.8.92-1.47-.62-1.23-1.85.8-4.04,5.43-10.88,7.08-15.09.04-.04.73-.16.62-.92.19-.34.42-.58.62-.92.33-.59.6-1.27.92-1.85.62-1.11,4.71-5.51,5.24-8.01.77-.66,1.08-1.62,1.54-2.46,1.37-1.76,4.45-5.48,5.24-7.08.7,7.45.14,15.06-.62,22.49Z"/>
          <path class="cls-37" d="m87.81,157.9c-4.35,2.69-2.27,1.79,0,5.39,2.94,4.67,11.17,16.94,5.85,13.71-1.24-1.11-6.59-5-8.01-5.85-2.96-8.35-4.41-17.31-7.08-25.72-.34-1.08-1.84-2.91-.92-3.23,2.64,3.39,7.49,11.42,10.16,15.71Z"/>
          <path class="cls-37" d="m87.81,157.9c4.44,7.11,8.99,13.97,12.63,21.56.48,1,.62,3.95,2.16,3.7-.24,1.22-.57,2.76,1.23,1.85-.09.11-.34,1.26-1.39,2.46-.68.1-3.97-6.17-8.78-10.47,5.31,3.24-2.92-9.03-5.85-13.71-2.27-3.61-4.35-2.7,0-5.39Z"/>
          <path class="cls-36" d="m102.6,183.16c-1.53.26-1.68-2.7-2.16-3.7-.02-.2.05-.46,0-.62,1.82,1.33,4.42-4.96,5.85-6.93.48-.66,1.01-.25,1.54-.92.11-.14-.25-.79,1.85-2.93-1.65,4.21-6.29,11.05-7.08,15.09Z"/>
        </g>
        <g>
          <path class="cls-39" d="m176.22,164.06c-3.48,8.93-6.96,18.01-8.93,27.41-.12.55-.64,1.73-.92,2.31.44,2.02,1.01,4.42.92,6.47,0,.24-.61.07-.62.31-.17,4.21-.25,8.56-.31,12.78l-.31,22.95c-.46,1.39-18.14,8.48-20.48,9.09-.38.1-1.43.1-1.39-.31,3.54-1.34,6.89-2.54,9.24-5.7.05-1.07-.07-2.16,0-3.23.14-2.1.54-17.87,0-18.64-.33-.47-1.48-.34-1.85.77q-14.4-.15-28.8-.31l-.15,13.86-1.54.31c.25-1.66-.21-3.31-.31-4.93-.24-3.89,0-7.78-.31-11.71,3.2-.15,6.36.09,9.55.31.03,0-.11.5.15.62,2.24.14,17.21.16,18.17,0,.14-.02-.24-.92,2.46-.62l.15-.62c.93.17,5.09.83,5.54-.15,1.53-3.31-3.79,1.08-5.24-1.08.22-1.31-.16-3.56,0-5.08,2.02-.4.86-1.22.92-1.39.11-.3,1.61-.82,2.16-5.7-1.1.56-1.97,3.79-3.23,3.85-2.39.11-.94-3.6-2.93-4-.2-.01-.42.03-.62,0,.07-.64,1.22-.05,1.54-.46.52-.68-13.37-8.44-14.48-9.09,0-.21-.07-.56.15-.62,2.13-.51,24.92.28,30.49.31q.39-3,.77-6.01c-.31-.13-.61-.35-.92-.46q.77-4.85,1.54-9.7c-1.03-.06-2.05-.16-3.08-.15l3.7-15.09c2.96,1.19,5.88,2.78,8.93,3.7Z"/>
          <path class="cls-33" d="m89.35,188.7c-1.2,2.6,5.4,3.6,9.7,7.39l-.15-4.93c.29.05.63-.05.92,0-1.12,2.85.22,53.31-.31,61.3-8.71,0-17.56-.13-26.18-1.54-.1-1.31,3.82-3.29,6.31-5.54.9-.82,5.54-5.36,5.7-6.01.53-3.01-.73-19.99-.31-20.95.35-.79,1.58-.23,1.85-.62.43-.62-.33-13.11,0-15.09-.62-.52-4.26-1.82-4.62-1.23l-.46,13.09c-8.77.12-17.56-.16-26.34,0,1.09-3.15,1.59-5.92.92-9.24-.1-.49.76.23-.92-1.85-.46-.56-.85-1.22-1.54-1.54-.06-.08-.26-.57-.31-.62,16.88-7.36.65-4.93-.15-5.24-.24-.09-.15-.41-.15-.62,1.3-1.54,4.84-5.24.62-2.16l.92-1.54c9.29,0,18.58,0,27.88,0,.65-.29.6-4.26.46-4.93,2.08.59,4.07,1.28,6.16,1.85Z"/>
          <path class="cls-33" d="m54.85,191.78l-.92,1.54c-.81.59-2.4,2.03-3.08,2.77-.03.03-.59.24-.62.46-.09.79.35.19.62.15.3-.04.62.02.92,0-.08.09.48.42-.92,1.54h-.92c-.06-.03.33-.58-1.08-.92-2.77-.68-2.47.48-2.62,1.54-.04.3.04.62,0,.92-.09.72-.69,4.84-.62,5.08.04.12.81.43,1.85,1.69.37.46.68,1,.92,1.54-.42.9-.98-2.1-2.46-1.39.74.89.76,7.33,1.08,7.55.31.21,4.28.08,2-5.54,3.93,2.47,5.76.3,7.39-3.39.67,3.33.17,6.09-.92,9.24-1.12.02-8.08-.19-8.32.15-.09.13-.05,3.09.15,3.23.32.23,4.76-.3,5.08.15.32,4.16-.58,8.67.31,12.78.1.45-.08,1.01.31,1.69,1.41,1.53,3.01,2.86,4.62,4.16.76.62,2.47,2.83,3.54,3.08,6.82-.62,15.11,2,14.94-3.08l5.85-3.7c0,.3,1.38.71.31,5.7-17.98,18.28-28.72-4.93-31.57-3.23,2.36,6.33,8.68,9.37,13.71,13.25-11.23-2.72-19.93-5.82-30.19-11.09-1.35-14.2.67-28.34.92-42.51.02-1.23.01-2.47,0-3.7,6.54.56,13.15.31,19.71.31Z"/>
          <path class="cls-39" d="m107.83,213.34c1.33,1.78,11.21,14.72,12.17,14.79.85.06.83-.06.77-.92.1,1.62.56,3.27.31,4.93,0,.61.53,1.14.92,1.54-2.15,1.04,8.91,11.24,10.47,11.4-.35,1.78-.13,5.38,1.39,2.77,3.31-.47,7.19-1.59,10.32-2.77-.05.4,1.01.41,1.39.31,2.34-.61,20.02-7.7,20.48-9.09l.31-22.95c-.11,7.64-.27,15.48.31,23.1,0,.04-.7.23,0,.31-21.63,11.34-38.06,15.18-62.53,15.71-.12-.73.3-.58.31-.62.41.39,2.38-.04,2.46-.15,1.1-1.56-.67-34.07.31-38.2.05-.23.41-.16.62-.15Z"/>
          <path class="cls-39" d="m73.33,250.92c-2.99-.49-5.99-1.44-8.93-2.16-5.03-3.87-11.35-6.92-13.71-13.25,2.85-1.7,13.59,21.51,31.57,3.23,1.07-4.99-.31-5.4-.31-5.7.02-1.81.79-14.64.15-15.09h-28.95q-.23,6.47-.46,12.94c-.88-4.11.02-8.62-.31-12.78-.32-.46-4.76.08-5.08-.15-.21-.15-.25-3.1-.15-3.23.24-.34,7.2-.13,8.32-.15,8.77-.16,17.56.12,26.34,0l.46-13.09c.36-.59,4,.71,4.62,1.23-.33,1.98.43,14.47,0,15.09-.26.38-1.5-.18-1.85.62-.42.96.84,17.94.31,20.95-.16.65-4.8,5.19-5.7,6.01-2.5,2.26-6.42,4.24-6.31,5.54Z"/>
          <path class="cls-32" d="m42.53,185.62c13.39-.17,26.8.13,40.2,0,.65.41.38.8.46,1.23.13.67.18,4.64-.46,4.93-9.29,0-18.58,0-27.88,0-6.56,0-13.17.26-19.71-.31,0-.72.02-1.44,0-2.16-.03-.92-.67-3.59-.46-3.7,2.62-.02,5.24.03,7.85,0Z"/>
          <path class="cls-16" d="m98.9,191.17l.15,4.93c-4.31-3.79-10.9-4.79-9.7-7.39,3.02.82,6.51,1.93,9.55,2.46Z"/>
          <path class="cls-31" d="m42.53,185.62c-2.62.03-5.24-.02-7.85,0-.21.11.44,2.78.46,3.7h-.92c.08-.62.43-.93.31-1.39-1.3-.05-1.18-1.75-1.54-3.23,1.91.96,7.95-.6,9.55.92Z"/>
          <path class="cls-33" d="m134.63,192.09c1.11.65,15,8.41,14.48,9.09-.32.41-1.47-.18-1.54.46-1.52-.22-29.4-.89-30.65,0-.25.18-.25,1.98,0,2.16.14.1,1.78-.04,2.31,0,.52,3.51.31,7.1.62,10.63,0,.06.59.77.62,1.08.3,3.93.07,7.81.31,11.71.06.86.08.98-.77.92-.96-.07-10.84-13.01-12.17-14.79l-.62-1.08.31-19.87c6.88-2.88,14.08-4.79,21.25-6.78-2.72,4.02,4.57,5.72,5.85,6.47Z"/>
          <path class="cls-33" d="m165.13,185.31c.32.11.61.33.92.46q-.39,3-.77,6.01c-5.57-.02-28.36-.81-30.49-.31-.23.05-.16.41-.15.62-1.28-.75-8.57-2.45-5.85-6.47,4.52,0,34.63-.92,36.35-.31Z"/>
          <g>
            <path class="cls-17" d="m100.44,191.47c.58,2.32,2.06,7.17,4,8.01-.11,7.69.53,49.8,0,52.36,0,.03-.42-.11-.31.62-1.54.03-3.08,0-4.62,0,.53-7.98-.81-58.45.31-61.3.31.05.35.32.62.31Z"/>
            <path class="cls-39" d="m107.53,192.4l-.31,19.87.62,1.08c-.21,0-.56-.07-.62.15-.98,4.13.8,36.64-.31,38.2-.08.12-2.06.55-2.46.15.53-2.56-.11-44.67,0-52.36.04-2.58.07-5.13.31-7.7.45.02,1.13-.71,2.77.62Z"/>
            <path class="cls-33" d="m104.75,191.78c-.24,2.57-.27,5.12-.31,7.7-1.94-.84-3.42-5.69-4-8.01,1.44-.05,2.93.24,4.31.31Z"/>
          </g>
          <path class="cls-27" d="m166.67,236.45c-.58-7.62-.41-15.46-.31-23.1.06-4.22.13-8.57.31-12.78,0-.24.61-.07.62-.31.08-2.05-.49-4.45-.92-6.47.28-.58.81-1.76.92-2.31-.64,4.19.29,3.94.31,4.16.85,11.77,2.18,23.59,3.08,35.42-.24,1.78-2.97,3.43-4,5.39Z"/>
          <path class="cls-30" d="m151.57,218.27c-.35,1.05.26,10.87,0,13.71-.17.51-6.32,4.04-6.93,4.16-5.06.97-17.69-.04-22.02-4.31l.15-13.86q14.4.15,28.8.31Z"/>
          <path class="cls-33" d="m142.95,203.8c-3.91,4.29-8.38,8.71-12.94,12.01-3.19-.22-6.34-.46-9.55-.31-.02-.3-.61-1.02-.62-1.08-.3-3.53-.09-7.11-.62-10.63,6.59.53,16.59-.4,23.72,0Z"/>
          <path class="cls-39" d="m153.42,236.14c-6.69,3.56-13.39,7.52-20.95,8.93.48-2.44,2.71-1.89,2.77-2.62.1-1.1-12.69-8.21-13.25-8.78-.39-.4-.92-.93-.92-1.54l1.54-.31c4.34,4.27,16.97,5.28,22.02,4.31.61-.12,6.76-3.64,6.93-4.16.26-2.83-.35-12.66,0-13.71.37-1.11,1.52-1.24,1.85-.77.54.76.14,16.54,0,18.64Z"/>
          <path class="cls-36" d="m147.26,203.8c.14,1.45.51,3.43,1.85,3.7l-.31,7.55c.25.35,1.67.06,2.16.15l-.15.62c-2.7-.31-2.32.59-2.46.62-.97.16-15.94.14-18.17,0-.27-.11-.12-.61-.15-.62,4.56-3.3,9.03-7.72,12.94-12.01h4.31Z"/>
          <path class="cls-27" d="m144.18,245.07c-3.13,1.18-7.01,2.3-10.32,2.77-1.52,2.61-1.74-1-1.39-2.77,7.56-1.41,14.26-5.37,20.95-8.93-.07,1.07.05,2.16,0,3.23-2.35,3.16-5.7,4.36-9.24,5.7Z"/>
          <path class="cls-27" d="m147.57,201.64c.2.03.41-.01.62,0-1.64.77-1.03,1.09-.92,2.16h-4.31c-7.13-.4-17.13.53-23.72,0-.53-.04-2.17.1-2.31,0-.25-.18-.25-1.98,0-2.16,1.25-.89,29.13-.22,30.65,0Z"/>
          <path class="cls-19" d="m152.19,207.49c-.94-.11-2.28.16-3.08,0-1.34-.26-1.71-2.25-1.85-3.7-.1-1.07-.72-1.38.92-2.16,1.98.4.54,4.11,2.93,4,1.27-.06,2.14-3.29,3.23-3.85-.55,4.88-2.04,5.4-2.16,5.7Z"/>
          <path class="cls-3" d="m152.19,207.49c-.06.16,1.09.99-.92,1.39-.16,1.52.22,3.78,0,5.08-.01.06-.47-.17-.31,1.23-.49-.09-1.91.19-2.16-.15l.31-7.55c.8.16,2.14-.11,3.08,0Z"/>
          <path class="cls-1" d="m150.96,215.19c-.16-1.4.3-1.17.31-1.23,1.45,2.16,6.77-2.23,5.24,1.08-.46.99-4.61.33-5.54.15Z"/>
          <path class="cls-34" d="m81.96,233.06l-5.85,3.7h-18.48c-1.62-1.3-3.21-2.63-4.62-4.16-.39-.68-.21-1.25-.31-1.69q.23-6.47.46-12.94h28.95c.63.45-.14,13.28-.15,15.09Z"/>
          <path class="cls-39" d="m76.11,236.75c.18,5.08-8.12,2.46-14.94,3.08-1.07-.25-2.78-2.46-3.54-3.08h18.48Z"/>
          <path class="cls-16" d="m48.38,208.11c.27,0,.31.25.62.31v.31c2.28,5.63-1.69,5.75-2,5.54-.32-.21-.34-6.66-1.08-7.55,1.48-.71,2.05,2.28,2.46,1.39Z"/>
          <g>
            <path class="cls-27" d="m53.62,201.33c-1.63-1.61-5.06-3.23-7.39-2.46.15-1.06-.15-2.22,2.62-1.54,1.41.34,1.01.89,1.08.92.03.02,0,.28.46.62.45-.33.43-.59.46-.62,1.41-1.12.84-1.45.92-1.54.39-.42,1.18-.8,1.54-1.23,0,.21-.09.53.15.62.81.3,17.03-2.12.15,5.24Z"/>
            <path class="cls-38" d="m53.31,195.48c-.36.43-1.15.81-1.54,1.23-.3.02-.63-.04-.92,0v-.62c.68-.74,2.27-2.18,3.08-2.77,4.23-3.08.68.61-.62,2.16Z"/>
            <g>
              <path class="cls-37" d="m53.62,201.33s.24.54.31.62c.07.08.14,1.35,1.54,1.54.29.76-2.36,4.46-4.47,4.93-3-.75-1.88.03-2,0-.3-.06-.35-.31-.62-.31-.24-.54-.55-1.08-.92-1.54,2.69,1.82.88-3.17,2.46-5.08l-3.7-1.69c.04-.3-.04-.63,0-.92,2.33-.77,5.76.85,7.39,2.46Z"/>
              <path class="cls-26" d="m56.39,205.34c-1.63,3.69-3.46,5.86-7.39,3.39v-.31c.13.03-1-.75,2,0,2.11-.47,4.76-4.17,4.47-4.93,1.68,2.08.83,1.36.92,1.85Z"/>
              <path class="cls-26" d="m55.47,203.49c-1.4-.19-1.47-1.46-1.54-1.54.69.32,1.09.98,1.54,1.54Z"/>
              <path class="cls-22" d="m47.46,206.57c-1.04-1.27-1.81-1.57-1.85-1.69-.07-.25.52-4.36.62-5.08l3.7,1.69c-1.59,1.91.22,6.9-2.46,5.08Z"/>
              <path class="cls-5" d="m50.85,198.25s-.01.29-.46.62c-.46-.34-.43-.6-.46-.62h.92Z"/>
            </g>
            <path class="cls-29" d="m50.85,196.71c-.27.04-.71.64-.62-.15.02-.22.59-.43.62-.46v.62Z"/>
          </g>
          <path class="cls-36" d="m132.48,245.07c-1.56-.16-12.63-10.35-10.47-11.4.56.57,13.35,7.67,13.25,8.78-.07.73-2.29.18-2.77,2.62Z"/>
        </g>
      </g>
      <g>
        <path class="cls-24" d="m125.7,124.63c2.51-1.41,4.93-3.31,7.08-5.24,6.77-6.06,8.44-12.14,9.24-21.1,9.52-1.7,12.74-13.19,7.39-19.56-.24-.29-1.43-1.8-1.54-1.85,1.41-4.13,1.45-8.55,2.16-12.78.14-.82.91-1.45.92-1.54.01-.06-.48-.21-.31-1.23.61-3.54,1.22-7.09,1.85-10.63.01-.08.14.2.31-1.54,0-.08.75-.52.62-1.39-2.09-1.41-1.75-1.62-1.85-1.69,1.44-5.74-.86-15.7-3.7-20.95-1.42-2.63-3.41-5.02-5.54-7.08.9-.18,2.48,2.04,2.62,2.16.23.19,1.6-.34,4.16,3.85,3.16,5.18,4.64,13.71,3.39,19.71,4.82,3.86-2.09,24.63-2.77,32.96,7.51,7.1,4.2,20.36-6.16,22.49-1.36,9.49-2.93,15.52-10.63,21.72-1.19.96-6.72,4.96-7.24,3.7Z"/>
        <path class="cls-24" d="m58.55,57.48c.1,2.5.97,4.3,2.46,6.31-1.23,1.9.75,6.83,1.54,12.17-1.32.86-1.18.27-1.23.31-.97-6.11-3.61-13.45-3.39-19.25l.62.46Z"/>
        <g>
          <path class="cls-37" d="m70.56,20.52c-.32,1.41-1.2,12.6-.46,12.94,7.32-1.21,14.65-.96,22.02-.62-1.51,6.06-3.22,12.16-5.85,17.87-16.77-1.32-33.51-1.27-50.21.92-.13-1.32.35-1.69.62-2.77,7.46-6.4,12.71-9.74,22.33-12.32.27-.07.12-.61.15-.62,8.84-2.15,9.74,6.03,10.16-2.31-1.13-.81-8.4.67-10.16,1.08-.83-7.85,2.37-12.51,7.08-18.17-.08,1.52,2.9,3.26,4.31,4Z"/>
          <path class="cls-9" d="m149.11,49.47c1.16.39,2.26.76,3.39,1.23-.63,3.54-1.24,7.08-1.85,10.63-.18,1.02.32,1.17.31,1.23-.02.09-.79.72-.92,1.54-.71,4.23-.75,8.65-2.16,12.78-5.73-2.35-8.74,2.08-8.01,7.39-.86,1.18-1.35,2.69-2.46,3.7-.07-3.47,0-20.65-.31-21.72-.2-.69-3.2-2.46-3.39-3.08-.41-1.35.7-11.31.62-14.17-.59-1.03-9.76,5.36-22.49,7.24-14.08,2.08-26.55-2.27-40.35-3.08-1.33-.08-2.65-.62-4-.15.88,7.88,3.7,7.41-2.77,13.25.14,9.37-.2,18.83.31,28.18-.63-.54-.52-1.45-.62-2.16-.72-5.42-1.04-10.92-1.85-16.33-.79-5.33-2.77-10.27-1.54-12.17-1.5-2.01-2.36-3.81-2.46-6.31-.04-.95.34-3.67.62-4.62.23-.77.04-1.38.46-1.54,4.87.18,9.63.67,14.48,1.23,23.09,2.68,32.32,7.29,55.45-2.16,1.25-.51,3.31-2.4,5.39-2.16,4.06,3.89,8.49,7.46,12.78,11.09l1.39-8.47q-3.85-1.69-7.7-3.39c.15-1.02,6.65,1.65,7.7,2Z"/>
          <path class="cls-37" d="m103.21,2.34c.36.62.98.08,1.23.46.39.58-8.26,10.08-8.01,11.4.1.51,1.67.89,2.16.77v.31c-.08,0-.35.1-1.54,0-4.89-.42-22.74-1.18-25.57,2.77q-1.85-1.69-3.7-3.39c10-10.46,21.71-11.21,35.42-12.63.04.09-.04.23,0,.31Z"/>
          <path class="cls-42" d="m134.94,48.24c-2.08-.25-4.14,1.65-5.39,2.16-23.13,9.45-32.35,4.84-55.45,2.16-4.85-.56-9.61-1.05-14.48-1.23-.42.16-.24.77-.46,1.54-.16-.6-.54-.64-1.08-.62-5.44.28-14.76,1.77-18.48,1.85-2,.04-2.29-.55-2.62-.62-.17-.55-.89-1.5-.92-1.85,16.7-2.2,33.44-2.24,50.21-.92.03,0-.1.59.15.62,3.53.41,6.98,1.49,10.47,1.85,13.16,1.37,24.48-1.09,35.73-8.01.67.8,1.92,2.71,2.31,3.08Z"/>
          <path class="cls-42" d="m109.07,2.34c10.54.55,25.67,8.38,33.27,15.71,2.13,2.06,4.12,4.46,5.54,7.08l-.31.77c2.6,5.03,3.97,11.24,3.7,16.94-3.05.78-1.81-4.66-2.16-6.47-2.67-14.04-10.6-19.94-22.64-26.34-.74.05-1.75-.92-1.69.31-1.08-1.66-2.86-2.74-4.62-3.7-5.06-2.75-6.95-2.04-12.01-3.39.02-.04-.04-.46.31-.92.2,0,.41-.01.62,0Z"/>
          <path class="cls-41" d="m59.17,35.92v-1.23c1.76-.41,9.03-1.89,10.16-1.08-.43,8.34-1.33.16-10.16,2.31Z"/>
          <path class="cls-41" d="m71.49,18.05c-.08.11-.88,2.27-.92,2.46-1.41-.74-4.39-2.48-4.31-4,.56-.67.9-1.18,1.54-1.85q1.85,1.69,3.7,3.39Z"/>
          <path class="cls-1" d="m109.07,2.34c-.2-.01-.41,0-.62,0-1.74-.05-3.49.04-5.24,0-.04-.07.04-.22,0-.31-1.56-3.3,8.28-2.14,5.85.31Z"/>
          <path class="cls-42" d="m97.05,33.15c5.08.43,8.21.78,13.25,1.85,9.45,2.01,20.52,6.44,29.57,10.16,3.1,1.28,6.18,2.93,9.24,4.31-1.05-.35-7.55-3.03-7.7-2q3.85,1.69,7.7,3.39l-1.39,8.47c-4.3-3.63-8.72-7.2-12.78-11.09-.39-.37-1.64-2.28-2.31-3.08-11.26,6.92-22.57,9.38-35.73,8.01-3.49-.36-6.95-1.44-10.47-1.85-.26-.03-.12-.61-.15-.62,2.63-5.7,4.34-11.81,5.85-17.87,1.68.08,3.25.17,4.93.31Z"/>
          <path class="cls-26" d="m120.16,6.66c-.55.87.45,2.01,1.54,4-2.8,2.98-6.12,5.59-9.55,7.7-.84-.61-11.87-2.9-13.55-3.08v-.31c.73-.18,8.83-10.43,9.55-11.71,5.07,1.34,6.96.63,12.01,3.39Z"/>
          <path class="cls-15" d="m108.45,2.34c-.35.47-.28.88-.31.92-.72,1.27-8.82,11.52-9.55,11.71-.49.12-2.06-.26-2.16-.77-.25-1.31,8.4-10.82,8.01-11.4-.25-.38-.87.15-1.23-.46,1.74.04,3.49-.05,5.24,0Z"/>
          <path class="cls-42" d="m147.88,25.14c2.84,5.25,5.13,15.21,3.7,20.95-1.89-1.42-18.32-8.06-21.41-8.93-3.42-.97-14.39-3.17-17.4-3.08v-1.23c1.47,1.25,5.43.91,7.24,1.23,2.1.37,6.42,1.56,9.09,2.16.89.2,3.42,1.74,3.39.15-.04-1.82-6.07-23.54-7.7-26.03-.06-1.23.95-.25,1.69-.31,12.04,6.4,19.97,12.29,22.64,26.34.34,1.81-.89,7.25,2.16,6.47.27-5.71-1.09-11.91-3.7-16.94l.31-.77Z"/>
          <g>
            <path class="cls-33" d="m152.81,49.17c-.17,1.74-.29,1.46-.31,1.54-1.13-.47-2.23-.84-3.39-1.23-3.06-1.38-6.14-3.04-9.24-4.31,4.45-.17,8.6,2.9,12.94,4Z"/>
            <path class="cls-25" d="m112.76,34.07c3.01-.09,13.98,2.11,17.4,3.08,3.09.87,19.52,7.51,21.41,8.93.1.08-.25.28,1.85,1.69.13.86-.61,1.31-.62,1.39-4.34-1.11-8.49-4.17-12.94-4-9.05-3.73-20.12-8.16-29.57-10.16.02-.99,1.65-.9,2.46-.92Z"/>
          </g>
          <path class="cls-31" d="m124.78,10.35c1.63,2.48,7.66,24.21,7.7,26.03.03,1.59-2.49.04-3.39-.15-1.23-8.71-3.18-17.87-7.39-25.57-1.09-2-2.09-3.13-1.54-4,1.76.96,3.54,2.04,4.62,3.7Z"/>
          <g>
            <path class="cls-7" d="m98.59,15.28c1.68.18,12.71,2.47,13.55,3.08.06.05.88,1.08.92,1.23q-8.16-.92-16.33-1.85c.02-.89-.08-1.6.31-2.46,1.19.1,1.46,0,1.54,0Z"/>
            <path class="cls-34" d="m113.07,19.59q-.15,6.62-.31,13.25v1.23c-.81.03-2.45-.06-2.46.92-5.04-1.07-8.16-1.42-13.25-1.85.21-.78-.59-.56-.62-.77-.09-.73.26-12.33.31-14.63q8.16.92,16.33,1.85Z"/>
            <g>
              <path class="cls-7" d="m97.05,15.28c-.39.86-.29,1.57-.31,2.46-.05,2.3-.4,13.91-.31,14.63.03.21.82,0,.62.77-1.68-.14-3.25-.23-4.93-.31-7.38-.35-14.7-.6-22.02.62-.74-.34.14-11.52.46-12.94.04-.2.85-2.36.92-2.46,2.83-3.95,20.67-3.19,25.57-2.77Z"/>
              <path class="cls-30" d="m71.79,26.68c.81-1.57,2.58,1.22,5.08,2.16,1.13-5.31-6.97-5.03,1.69-7.7,11.19-1.84,16.83,4.16,12.48,8.01-3.91,3.45-20.39,5.06-19.25-2.46Z"/>
              <path class="cls-30" d="m78.57,21.13c-8.66,2.68-.56,2.39-1.69,7.7-2.5-.94-4.28-3.72-5.08-2.16.33-2.2,1.31-2.45,1.39-4.62,2.03-.91,4.1-.71,5.39-.92Z"/>
            </g>
          </g>
          <path class="cls-26" d="m129.09,36.23c-2.67-.59-6.99-1.78-9.09-2.16-1.8-.32-5.76.02-7.24-1.23q.15-6.62.31-13.25c-.04-.15-.86-1.19-.92-1.23,3.43-2.11,6.75-4.72,9.55-7.7,4.21,7.69,6.17,16.86,7.39,25.57Z"/>
        </g>
        <g>
          <path class="cls-13" d="m132.78,119.4c-2.15,1.93-4.57,3.83-7.08,5.24-1.11.63-1.16.89-1.23.92-2.31,1.17-4.9,1.82-7.39,2.46-7.18,1.85-14.49,2.37-21.87,1.54-.11-2.31,3.41-1.85,3.08-3.7.1.01.21-.01.31,0,.03,0-.1.59.15.62,10.56,1.08,21.47-2.84,29.57-9.55,4.58-3.79,8.23-8.27,9.39-14.17,1.09-.2.58,3.89.31,5.08-.64,2.85-3.95,6.09-4,6.47-.42,2.73,3.53-.27-1.23,5.08Z"/>
          <g>
            <path class="cls-1" d="m64.4,92.29c.09.7-.01,1.61.62,2.16.09,1.73.17,3.51.31,5.24-.63-.89-1.73-2.15-2.16-3.08-1.44-3.14-5.19-11.17-3.7-14.17,2.52-5.05,2.99,7.81,4.93,9.86Z"/>
            <path class="cls-34" d="m64.4,92.29c-1.94-2.04-2.41-14.91-4.93-9.86-1.58-1.45-1.24.3-2,1.54l-.15-1.54c.55-2.13,2.27-4.65,4-6.16.05-.04-.09.55,1.23-.31.8,5.41,1.12,10.9,1.85,16.33Z"/>
            <path class="cls-34" d="m59.47,82.43c-1.5,3,2.26,11.03,3.7,14.17-4.89-2.76-7.22-8.87-5.85-14.17l.15,1.54c.76-1.24.43-2.99,2-1.54Z"/>
          </g>
          <path class="cls-4" d="m67.48,109.23c1.68,8.4,6.65,12.7,13.55,16.94v.31c-12.21-4.45-14.78-15.11-15.71-26.8,1.33,1.77-.26,4.18,2.16,9.55Z"/>
          <path class="cls-10" d="m137.4,87.98c.07,3.09.93,6.47.92,9.55,0,2.68-.16,2.93-.62,5.24-1.16,5.9-4.82,10.38-9.39,14.17-8.1,6.71-19.01,10.63-29.57,9.55-.26-.03-.12-.61-.15-.62,2.58-1.07,4.78-2.79,7.08-4.31,7.28-4.82,15.27-10.6,18.79-18.94,4.85-11.47,1.17-21.73,1.54-29.11.05-.94.52-1.79.92-2.62-.4-1.97-18.86-1.46-19.41-4.16,4.83-2.23,15.42-.2,20.48,2.16.33-.23.07-.9.15-1.23,2.15-8.18-10.76-5.72-17.1-7.08l.77-4.31c12.72-1.88,21.89-8.26,22.49-7.24.09,2.85-1.02,12.82-.62,14.17.19.62,3.19,2.39,3.39,3.08.31,1.07.23,18.24.31,21.72Z"/>
          <path class="cls-8" d="m71.49,53.17c-.06.64-1.24.13-1.85.31-2.34.69.88,4.78,1.69,6.47,1.72.08,9.95-.89,10.47-.62.53.28-.25,1.09,0,1.23.57.31,2.82-.44,3.85.31-3.99.15-15.58.48-17.25,4.77-.71,1.83.08,2.8,0,3.85-1.02,13.43,1.51,23.29,2.77,36.19.65,2.97,3.18,9.02,1.23,10.01-1.96-1.85-3.81-3.98-4.93-6.47-2.41-5.37-.83-7.78-2.16-9.55-.14-1.72-.21-3.51-.31-5.24-.51-9.36-.17-18.82-.31-28.18,6.47-5.83,3.66-5.36,2.77-13.25,1.35-.47,2.67.08,4,.15Z"/>
          <path class="cls-1" d="m111.84,56.25l-.77,4.31c6.33,1.37,19.25-1.09,17.1,7.08,1.42-7.03-10.62-5.51-20.33-6.47-.04,0,.02-.26-.46-.62-8.22-.5-16.43-1.03-24.64-1.54-1.97-.79-3.86-2.06-5.85-2.77-3.03-1.08-8.44-1.59-7.24-2.77.61-.18,1.78.33,1.85-.31,13.8.81,26.28,5.16,40.35,3.08Z"/>
          <path class="cls-1" d="m72.41,115.7c6.68,6.31,17.01,9.04,25.87,10.16.33,1.84-3.19,1.38-3.08,3.7-6.18-.69-12.42-3.33-13.09-3.39-.51-.05-.51.17-.46.62-.41-.24-.21-.36-.62-.62-6.91-4.25-11.87-8.55-13.55-16.94,1.12,2.48,2.96,4.61,4.93,6.47Z"/>
          <g>
            <path class="cls-8" d="m81.65,126.79c5.62,3.27,11.66,5.48,18.17,5.85q.15,15.86.31,31.73c-2-.06-4.01.05-6.01,0q-6.39-9.39-12.78-18.79s-.6-.24-.62-.46c.72-.52.64-.9.62-1.69-.17-5.63.39-11.32-.31-16.94v-.31c.41.25.21.38.62.62Z"/>
            <path class="cls-21" d="m124.47,128.64c-.62,3.72.14,12.29,0,13.86,0,.1,0,.21,0,.31-.99-.28-2.07,1.07-2.46,1.69-.56.89-3.2,7.24-4,8.93-.15.31-.56.54-.92.46.68-7.76-.06-15.36,0-23.1,2.47-.61,4.85-1.77,7.39-2.16Z"/>
            <path class="cls-33" d="m124.47,125.56v3.08c-2.55.38-4.92,1.55-7.39,2.16v-2.77c2.49-.64,5.09-1.3,7.39-2.46Z"/>
            <path class="cls-13" d="m117.07,130.79c-.06,7.74.68,15.35,0,23.1-.07.81.05,1.65,0,2.46-.53,2.49-4.61,6.89-5.24,8.01-3.9-.09-7.81.12-11.71,0q-.15-15.86-.31-31.73c5.78.33,11.63-.46,17.25-1.85Z"/>
            <path class="cls-21" d="m95.2,129.56c7.38.83,14.69.31,21.87-1.54v2.77c-5.62,1.39-11.47,2.18-17.25,1.85-6.52-.37-12.56-2.59-18.17-5.85-.05-.44-.05-.66.46-.62.68.06,6.91,2.7,13.09,3.39Z"/>
            <path class="cls-17" d="m100.13,164.37c3.89.12,7.81-.09,11.71,0-.32.57-.59,1.26-.92,1.85h-16.63c-2.43-4.28-11.98-17.48-12.94-20.64q6.39,9.39,12.78,18.79c2,.05,4.01-.06,6.01,0Z"/>
            <path class="cls-33" d="m124.47,142.81c-2.3,3.49-3.87,7.49-5.85,11.09-.46.84-.77,1.81-1.54,2.46.05-.81-.07-1.65,0-2.46.37.08.78-.15.92-.46.8-1.69,3.44-8.04,4-8.93.4-.63,1.48-1.98,2.46-1.69Z"/>
            <path class="cls-13" d="m110.91,166.22c-.19.34-.42.59-.62.92-.03.05-.74.16-.62.92-2.1,2.14-1.74,2.79-1.85,2.93-.53.67-1.06.26-1.54.92-1.44,1.97-4.03,8.26-5.85,6.93-.67-2.33-4.7-10.06-6.16-12.63h16.63Z"/>
            <path class="cls-36" d="m109.68,168.06c-.13-.76.59-.88.62-.92.12.76-.58.88-.62.92Z"/>
          </g>
          <path class="cls-1" d="m126.01,73.5c-.37,7.38,3.31,17.64-1.54,29.11-3.52,8.34-11.51,14.13-18.79,18.94-.23-2.47,2.04-4.49,3.08-6.62,1.17-2.39,4.19-9.24,3.7-10.94.44-.82.66-1.88.92-2.77,4.42-.56,2.1-4.84,3.08-8.01,8.81,1.08,14.29-7.5,2.46-7.39-1.01-.62.75-1.02,1.85-2.77.14-.23.6-.87.62-.92.07-.19.95-.63.62-3.85q2-2.39,4-4.77Z"/>
          <path class="cls-9" d="m128.16,67.65c-.09.34.18,1-.15,1.23-5.07-2.36-15.65-4.39-20.48-2.16l.31-5.54c9.71.96,21.75-.57,20.33,6.47Z"/>
          <g>
            <path class="cls-13" d="m147.88,76.89c.11.05,1.3,1.56,1.54,1.85-2.57.06.7,2.79.92,5.7.39,4.98-3.2,10.25-7.7,12.17-1.9.19-.89-3.04-.92-3.7,9.13-4.06,2.09-16.32,0-9.55-.95-1.91-.41-.02-.62.15-.34.3-.24-.6-1.23.77-.73-5.31,2.28-9.75,8.01-7.39Z"/>
            <path class="cls-13" d="m141.72,83.36c-.83,2.69-.16,6.75,0,9.55.04.66-.98,3.89.92,3.7-1.54.66-2.44,1.2-4.31.92,0-3.08-.86-6.45-.92-9.55,1.11-1.01,1.61-2.51,2.46-3.7.99-1.37.89-.47,1.23-.77.2-.18-.34-2.07.62-.15Z"/>
            <path class="cls-21" d="m149.42,78.74c5.34,6.37,2.13,17.86-7.39,19.56-.8,8.96-2.47,15.04-9.24,21.1,4.76-5.35.81-2.35,1.23-5.08.06-.38,3.36-3.62,4-6.47.27-1.19.79-5.28-.31-5.08.45-2.31.61-2.55.62-5.24,1.87.28,2.77-.27,4.31-.92,4.5-1.92,8.09-7.18,7.7-12.17-.23-2.9-3.5-5.64-.92-5.7Z"/>
            <path class="cls-39" d="m141.72,92.91c-.16-2.8-.83-6.85,0-9.55,2.09-6.78,9.13,5.49,0,9.55Z"/>
          </g>
          <path class="cls-35" d="m118.92,85.82c11.83-.11,6.35,8.47-2.46,7.39-7.33-.9-7.4-7.3,2.46-7.39Z"/>
          <g>
            <path class="cls-9" d="m85.66,60.87c.53.39.98,5.12.92,5.85-6.57-.89-12.13-1.15-17.87,2.77h-.31c.08-1.05-.71-2.02,0-3.85,1.67-4.29,13.26-4.62,17.25-4.77Z"/>
            <path class="cls-1" d="m86.58,66.72c-.23,2.99-3.62,1.56-8.16,2.16-3.6.47-9.46,2.1-9.7.62,5.74-3.92,11.3-3.66,17.87-2.77Z"/>
          </g>
          <path class="cls-1" d="m105.37,110.46c-.1.14-.14,1.4-2,2.77-3.95,2.93-11.04,2.3-13.4-2.16,3.18,1.25,5.56,1.35,8.93,1.23,1.85-.06,3.01.4,6.47-1.85Z"/>
          <g>
            <path class="cls-8" d="m69.64,53.48c-1.2,1.19,4.21,1.69,7.24,2.77,1.99.71,3.88,1.98,5.85,2.77,8.22.51,16.43,1.04,24.64,1.54.48.35.42.61.46.62l-.31,5.54c.55,2.7,19,2.19,19.41,4.16-.4.83-.88,1.67-.92,2.62q-2,2.39-4,4.77c.33,3.22-.54,3.66-.62,3.85,1.5-6.95-3.37-10.93-6.16-6.62-2.84,4.39.69,12.64,5.54,7.55-1.09,1.75-2.86,2.16-1.85,2.77-9.86.09-9.8,6.5-2.46,7.39-.98,3.16,1.34,7.45-3.08,8.01-.05,0,.22-.39-.92-.31-8.5.57-19.52-.91-28.65,0-.68-1.93-1.86-2.54-4-2.62,1.38.86,2.77,7.42,3.08,7.7.52.47,3.28-.08,4.16.15.19.05,1.23,1.24,1.69,1.54.07.04.86,1.19.92,1.23-1.27.49-.06,1.47.31,2.16,2.36,4.45,9.45,5.08,13.4,2.16,1.86-1.38,1.9-2.64,2-2.77,1.19-1.57,2.45-2.84,2.77-4.93,3.55-.38,2.93,1.03,4.31-1.54.49,1.69-2.53,8.54-3.7,10.94-1.04,2.14-3.31,4.15-3.08,6.62-2.31,1.53-4.5,3.24-7.08,4.31-.1-.01-.21.01-.31,0-8.87-1.13-19.19-3.86-25.87-10.16,1.95-.99-.58-7.04-1.23-10.01-1.26-12.9-3.8-22.76-2.77-36.19h.31c.24,1.48,6.1-.15,9.7-.62,4.54-.59,7.93.84,8.16-2.16.06-.73-.39-5.47-.92-5.85-1.03-.75-3.28,0-3.85-.31-.25-.14.53-.95,0-1.23-.53-.27-8.75.7-10.47.62-.82-1.69-4.03-5.78-1.69-6.47Z"/>
            <g>
              <path class="cls-6" d="m74.41,86.13c11.72-1.86,16.3,5.25,8.62,6.47-11.14,1.77-17.21-5.11-8.62-6.47Z"/>
              <path class="cls-9" d="m80.27,73.5c4.35-.61,5.72,10.18,1.54,11.09-5.35,1.16-5.22-10.58-1.54-11.09Z"/>
              <path class="cls-40" d="m83.81,100.91c.08.21-.33,0,0,.92.01.04-.44-.14-.31.77,1.27,1.68,3.33,1.85,5.24,2.31-.05,1.69,1.1,3.04,0,2.77-.47-.3-1.5-1.49-1.69-1.54-.88-.24-3.64.32-4.16-.15-.31-.28-1.7-6.84-3.08-7.7,2.14.07,3.32.69,4,2.62Z"/>
              <g>
                <path class="cls-2" d="m96.44,87.05c-.83.25-1.17-.32-1.23-.31-.52-20.51,1.8-19.95,1.23.31Z"/>
                <g>
                  <path class="cls-33" d="m96.44,87.05v.31c-.09.02-1.62.56-1.69.62-.71.5-.73.77-.77,1.54-.2,3.6,5.4,4.73,8.93,1.54.03,3.99-8.05,4.99-10.16.77-1.41-2.82.93-4.9,2.46-5.08.06,0,.4.56,1.23.31Z"/>
                  <path class="cls-1" d="m101.37,88.9c.83.66,1.53.9,1.54,2.16-3.54,3.19-9.13,2.06-8.93-1.54,3.37,1.07,4.26,1.66,7.39-.62Z"/>
                  <path class="cls-8" d="m101.37,88.9c-3.13,2.28-4.02,1.69-7.39.62.04-.77.06-1.04.77-1.54.07-.05,1.61-.6,1.69-.62,1.66-.33,3.66.53,4.93,1.54Z"/>
                </g>
              </g>
            </g>
          </g>
          <g>
            <path class="cls-9" d="m121.39,82.12c-.02.05-.47.7-.62.92-4.86,5.1-8.39-3.16-5.54-7.55,2.79-4.3,7.66-.33,6.16,6.62Z"/>
            <path class="cls-23" d="m119.69,76.27c.89-.19,1,1.45.31,1.54-.28.04-1.27-1.33-.31-1.54Z"/>
          </g>
          <g>
            <path class="cls-21" d="m108.14,105.53c-.32,2.09-1.59,3.36-2.77,4.93-3.46,2.25-4.62,1.79-6.47,1.85,6.74-1.61.1-.16-3.23-.62-2.04-.28-3.99-1.74-5.7-2.77l-.46-3.39c6.12,1.7,12.42.67,18.64,0Z"/>
            <path class="cls-17" d="m112.45,100.91c-.38.93-1.26,1.14-1.85,1.54-8.89,1.29-17.93.65-26.8-.62-.33-.92.08-.71,0-.92,9.13-.91,20.15.57,28.65,0Z"/>
            <path class="cls-2" d="m113.38,101.22c-.26.89-.49,1.96-.92,2.77-1.38,2.57-.76,1.16-4.31,1.54-6.21.67-12.51,1.7-18.64,0l.46,3.39c-.08-.05-.23.05-.31,0-.07-.04-.86-1.19-.92-1.23,1.1.27-.05-1.08,0-2.77,6.52,1.59,16.14,1.44,21.87-2.46.58-.4,1.47-.61,1.85-1.54,1.15-.08.88.31.92.31Z"/>
            <path class="cls-28" d="m89.97,108.92c1.71,1.03,3.66,2.49,5.7,2.77,3.33.45,9.97-.99,3.23.62-3.37.11-5.75.02-8.93-1.23-.37-.69-1.58-1.67-.31-2.16.07.05.23-.05.31,0Z"/>
            <path class="cls-14" d="m110.61,102.45c-5.73,3.91-15.35,4.05-21.87,2.46-1.9-.46-3.97-.63-5.24-2.31-.14-.91.32-.73.31-.77,8.87,1.27,17.91,1.91,26.8.62Z"/>
          </g>
        </g>
      </g>
    </g>
  </g>
</svg>