<?xml version="1.0" encoding="UTF-8"?>
<svg id="Camada_2" data-name="Camada 2" xmlns="http://www.w3.org/2000/svg" xmlns:xlink="http://www.w3.org/1999/xlink" viewBox="0 0 199.09 248.16">
  <defs>
    <style>
      .cls-1 {
        fill: #39b398;
      }

      .cls-1, .cls-2, .cls-3, .cls-4, .cls-5, .cls-6, .cls-7, .cls-8, .cls-9, .cls-10, .cls-11, .cls-12, .cls-13, .cls-14, .cls-15, .cls-16, .cls-17, .cls-18, .cls-19, .cls-20, .cls-21, .cls-22, .cls-23, .cls-24, .cls-25, .cls-26, .cls-27, .cls-28, .cls-29, .cls-30, .cls-31, .cls-32, .cls-33, .cls-34, .cls-35, .cls-36, .cls-37, .cls-38, .cls-39, .cls-40, .cls-41, .cls-42, .cls-43, .cls-44, .cls-45, .cls-46, .cls-47 {
        stroke-width: 0px;
      }

      .cls-2 {
        fill: #ffcf67;
      }

      .cls-3 {
        fill: #870113;
      }

      .cls-4 {
        fill: #ff8a39;
      }

      .cls-5 {
        fill: #00ab85;
      }

      .cls-6 {
        fill: #8e5977;
      }

      .cls-7 {
        fill: #231924;
      }

      .cls-8 {
        fill: #54cca4;
      }

      .cls-9 {
        fill: #475056;
      }

      .cls-10 {
        fill: #d29e34;
      }

      .cls-11 {
        fill: #ffefd9;
      }

      .cls-12 {
        fill: #0c2e29;
      }

      .cls-13 {
        fill: #b33b02;
      }

      .cls-14 {
        fill: #ff9db5;
      }

      .cls-15 {
        fill: #73766a;
      }

      .cls-16 {
        fill: #b9250f;
      }

      .cls-17 {
        fill: #f24402;
      }

      .cls-18 {
        fill: #a60045;
      }

      .cls-19 {
        fill: #171215;
      }

      .cls-20 {
        fill: #352c00;
      }

      .cls-21 {
        fill: #ffa626;
      }

      .cls-22 {
        fill: #b60;
      }

      .cls-23 {
        fill: #b6828f;
      }

      .cls-24 {
        fill: #00928b;
      }

      .cls-25 {
        fill: #26343a;
      }

      .cls-26 {
        fill: #ffe688;
      }

      .cls-27 {
        fill: #ffe275;
      }

      .cls-28 {
        fill: #a2738e;
      }

      .cls-29 {
        fill: #de2b59;
      }

      .cls-30 {
        fill: #ffce3a;
      }

      .cls-31 {
        fill: #9e180e;
      }

      .cls-32 {
        fill: #16252b;
      }

      .cls-33 {
        fill: url(#Gradiente_sem_nome_514);
      }

      .cls-34 {
        fill: #f7b134;
      }

      .cls-35 {
        fill: #ff8e25;
      }

      .cls-36 {
        fill: #003d38;
      }

      .cls-37 {
        fill: #2a1b1d;
      }

      .cls-38 {
        fill: #d03712;
      }

      .cls-39 {
        fill: #006f6f;
      }

      .cls-40 {
        fill: #003d26;
      }

      .cls-41 {
        fill: #ffe499;
      }

      .cls-42 {
        fill: #f0bf83;
      }

      .cls-43 {
        fill: #ee6800;
      }

      .cls-44 {
        fill: #0adcae;
      }

      .cls-45 {
        fill: #ffbf55;
      }

      .cls-46 {
        fill: #e7b7c1;
      }

      .cls-47 {
        fill: #c2003d;
      }
    </style>
    <linearGradient id="Gradiente_sem_nome_514" data-name="Gradiente sem nome 514" x1="-5911.61" y1="-2014.59" x2="-5805.77" y2="-1935.4" gradientTransform="translate(3010 1081.12) scale(.5)" gradientUnits="userSpaceOnUse">
      <stop offset="0" stop-color="#19161e"/>
      <stop offset="1" stop-color="#142303"/>
    </linearGradient>
  </defs>
  <g id="Camada_1-2" data-name="Camada 1">
    <g>
      <path class="cls-30" d="m105.1,4.2c-1.56-.16-3.26-.04-4.84,0-2.37.07-4.67-.5-5.16.97-.84-.27-.99-.32-1.93-.32-.11-.41-.5-.56-.64-.97-1.94-5.33,13.19-5.11,12.57.32Z"/>
      <g>
        <path class="cls-22" d="m184.41,162.82h-1.61s-.47-.47-.64-.64c3.64-1.09,2.24.47,2.26.64Z"/>
        <path class="cls-34" d="m23.54,158.31c-1.13.8-1.67,1.96-2.58,2.58-.99-1.36,1.22-3.82,2.58-2.58Z"/>
        <g>
          <path class="cls-21" d="m68.03,84.8c-.1,3.06-.02,5.45-3.22,7.09-1.83.94-3.45,1.11-5.48.97-1.29-.09-.92-.31-.97-.32-5.01-3.53-8.49-10.98-7.09-17.09,1.04-4.53,5.93-6.24,10.16-5.48,6.23,1.12,6.77,9.86,6.61,14.83Z"/>
          <path class="cls-43" d="m58.35,92.54c-7.89-1.48-9.1-10.47-7.42-17.09h.32c-1.4,6.11,2.09,13.56,7.09,17.09Z"/>
          <path class="cls-17" d="m63.19,89.31c-.89-2.16-2.03-9.3-2.58-10.16-2.11-3.31-4.85.88-6.13-.16.28-2.61,1.92-4.83,4.67-5.16,7.6-.9,7.84,6.21,8.22,11.77-.15.7-3.43,3.37-4.19,3.71Z"/>
          <path class="cls-35" d="m63.19,89.31c-5.36,2.38-9.22-5.55-8.7-10.32,1.28,1.04,4.01-3.15,6.13.16.55.86,1.69,8,2.58,10.16Z"/>
        </g>
        <g>
          <path class="cls-25" d="m69.32,22.9c.02,7.15-.95,14.51,2.1,21.28h20.47c-16.46,3.91-14.37,4.66-33.21,4.84-2.01.02-6.06-.2-7.09,0-1.74.38-.78-2.22-.64-4.19.5-7.43,2.52-15.05,6.77-21.28,3.29-4.83,10.64-11,15.8-13.86-2.69,5.67-5.79,12.68-6.77,18.86-.26,1.65-1.33,22.13.64,16.44.36-1.05-.64-12.72,1.93-22.08Z"/>
          <path class="cls-24" d="m92.53,3.88c.15.41.54.55.64.97-3.52,0-12.94,3.11-15.96,5.16-4.55,3.09-6.55,8-7.9,12.9-2.57,9.37-1.57,21.03-1.93,22.08-1.97,5.69-.9-14.8-.64-16.44.98-6.18,4.08-13.19,6.77-18.86,6.14-3.41,12.03-5.18,19.02-5.8Z"/>
          <path class="cls-8" d="m162.49,57.4c.02-.41-.17-1.32-.32-1.61-1.57-2.97-6.14-5.04-9.03-6.45-11.47-5.58-22.58-6.99-34.82-3.22-.87.27-2.02,1-2.9,1.29-1.69-1.65,6.92-5.1,8.22-5.48,1.73-.51,14.97-2.55,16.6-2.58,13.73-.23,35.81,11.59,22.25,18.05Z"/>
          <path class="cls-1" d="m50.94,44.82c-.13,1.97-1.1,4.57.64,4.19-.07.01-1.24.49-.97.97-.99-.09-2.83-.56-3.87-.81-1.33-3.46.58-5.22,4.19-4.35Z"/>
          <path class="cls-39" d="m58.68,49.01v.97c-1.59-.06-3.17-.47-3.71-.32l-.48.64c-1.16-.63-2.61-.2-3.87-.32-.28-.48.9-.95.97-.97,1.03-.2,5.08.02,7.09,0Z"/>
          <path class="cls-5" d="m100.27,4.2c8.68,10.76,14.89,22.97,20.96,35.3-.19.69-11.03,1.04-14.19,1.45-.77-7.84-1.66-14.92-4.19-22.41-1.15-3.38-4.61-12.36-7.74-13.38.49-1.47,2.78-.9,5.16-.97Z"/>
          <g>
            <path class="cls-1" d="m105.1,4.2c8.37.85,17.96,4.92,24.18,10.64,4.46,4.1,6.38,7.79,8.7,12.73-.55.84.89,3.21.97,3.55.47,2.17.14,6.77,1.29,8.22-1.63.03-14.87,2.07-16.6,2.58-1.31.38-9.91,3.83-8.22,5.48-14.88,4.89-19.67,8.07-39.01,5.8-.71-.13-1.46-.5-2.26-.64-5.19-.95-10.14-2.36-15.48-2.58v-.97c18.84-.18,16.75-.92,33.21-4.84,5.98-1.42,8.44-2.35,15.15-3.22,3.16-.41,14-.76,14.19-1.45-6.07-12.33-12.27-24.54-20.96-35.3,1.58-.04,3.27-.16,4.84,0Z"/>
            <path class="cls-1" d="m123.48,21.61c.81-2.03-2.66-1.65-1.29.97-2.38-.1-6.91-9.26-8.54-11.28.46-.75,5.69,3.53,6.77,4.19,2.56,1.57,5.24,2.97,7.9,4.35l.81,9.19c-2.09-1.71-4.26-8.08-5.64-7.42Z"/>
            <path class="cls-42" d="m123.48,21.61c-.12.3-.86.99-1.29.97-1.37-2.62,2.1-3,1.29-.97Z"/>
          </g>
          <g>
            <path class="cls-39" d="m162.49,57.4c-6.28,3-16.86,2.77-23.86,4.51,0-.49-.31-.72-.32-1.61,7.95-1.4,16.23-1.69,23.86-4.51.15.29.34,1.2.32,1.61Z"/>
            <path class="cls-15" d="m153.14,49.34c2.89,1.4,7.46,3.48,9.03,6.45-7.62,2.82-15.9,3.12-23.86,4.51-.1-4.97-.28-9.94-1.29-14.83,5.67.33,10.78,2.15,16.12,3.87Z"/>
          </g>
          <path class="cls-40" d="m153.14,49.34c-5.34-1.72-10.45-3.53-16.12-3.87-6.25-.37-12.46.8-18.7.64,12.24-3.76,23.35-2.36,34.82,3.22Z"/>
          <g>
            <path class="cls-9" d="m93.17,4.85c.94,0,1.1.05,1.93.32,3.12,1.01,6.59,10,7.74,13.38,2.54,7.49,3.42,14.57,4.19,22.41-6.71.88-9.17,1.8-15.15,3.22h-20.47c-3.05-6.77-2.07-14.12-2.1-21.28,1.34-4.9,3.35-9.81,7.9-12.9,3.02-2.05,12.44-5.15,15.96-5.16Z"/>
            <path class="cls-6" d="m93.66,5.81c1.47,1.18,1.28-1.01,2.74.81.27.27,3.23,5.99,3.55,6.77.71,1.75.81,5.45,2.26,6.13-1.5,2.37,2.33,9.26,1.45,9.83-2.01,1.31-6.7-11.07-6.13-11.61.23-.22,1.16,1.7.81-.81-.32-2.28-3.76-8.22-5.16-10.64l.48-.48Z"/>
            <path class="cls-6" d="m91.4,20.32c.19,0,.25,1.18.16,1.45-.62,1.9-.58-1.45-.16-1.45Z"/>
          </g>
        </g>
        <g>
          <path class="cls-9" d="m134.44,133.81l-1.61.16c1.02,2.47-.22,7.74,4.03,5.96,4.03-1.69-1.6-3.71-2.1-5.8,2.25,1.94,4.49,3.71,6.29,6.13,8.42,2.83,16.27,7.01,24.34,10.64-5.59,15.72-6.68,32.44-9.99,48.68-8.32-.34-16.66.66-24.99.32-1.21,2.39-4.72,4.95-5,5.8-.03.09.02.21,0,.32-4.18-.96-2.53,1.99-2.58,2.26-.09.52-.62.22-.64.48-.9,8.83.42,27.62.32,37.56-4.85.88-9.34,1-14.19,1.29l-.97-29.66c2.13-.35,1.58-8.39,1.13-8.38-.86,2.62-1.95,5.34-2.42,8.06-1.38,8.02-1.02,21.27-1.93,29.98-.42-.04-1.38.16-1.61-.16.95-8.67.48-17.44.97-26.11.11-1.93,1.13-6.79.81-6.93-.65-.29-.2,2.36-1.45-1.93-3.53-12.07-15.82-26.8-24.5-36.11l2.42-10.64c.79-.4,3.3,6.27,4.19,6.45,3.61.73-2.76-6.81-3.71-11.45-.78-1.05-1.46-.09-1.61-.16-.95-.45-1.95-.83-2.9-1.29-1.02-.5-5.18-2.82-5.48-2.9-.12-.45.2-.62.32-.97.57-1.63,2.91-9.64,2.9-10.64l.97.32c-.06,1.52,3.57,9.16,4.51,11.28,5.85,13.22,12.98,25.89,18.38,39.33,2.33,5.81,5.07,11.47,5.48,17.89l.64.16c.81.02,4.14-9.51,6.77-14.67,2.56-5.02,5.79-9.81,8.38-14.83,3.59-6.95,7.87-18.38,12.25-24.02-.45,1.26,3.8,9.3,4.19,9.67-11.64,10.67-19.9,24.75-27.4,38.53l.48.16c5.13-6.44,10.97-15.38,16.28-21.28q.24,8.38.48,16.76c4.4-2.62,1.67-13.43,2.42-19.67,4.9-4.57,10.62-7.95,15.8-12.09-.54-1.65-1.26-1.67-1.29-1.77-.13-.39.14-1.27,0-1.61l9.67-5c-5.67-2.38-10.95-5.4-15.8-9.19-1.02-3.31-2.4-5.94-3.87-11.93-1-4.05-1.72-8.12-2.26-12.25,1.57,1.08,2.48,2.02,3.87,3.22Z"/>
          <path class="cls-9" d="m44.49,164.76c3.84.96,10.33,2.12,14.51,2.9l-1.29,6.61c21.69,8.6,26.87,24.72,34.5,45.14l.32,28.53c-6.97-.43-13.55-1.55-20.31-3.22,2.48-.89,4.01-1.13,5.8-3.22,4.6-5.37,1.04-21.48,2.26-28.69.04-.26,1.5-2.4,1.93-4.84.24-1.36.3-1.49,0-2.9-.45-2.07-1.81-4.45-3.71-5.48-6.06.43-26.13-.57-28.85,0-.16-1.02-.7-1.91-.97-2.9-3.38-12.56-6.47-25.16-10.96-37.4.82,1.54,1.2,3.19,2.42,4.51,1.43.43,2.91.61,4.35.97Z"/>
          <path class="cls-9" d="m36.43,228.27c-9.93-7.08-19.08-15.37-26.76-24.82,1.09-5.26,1.82-10.34,3.55-15.48l2.58.16-2.26-.81c3.22-8.99,8.84-16.97,16.12-23.05,3.71,12.07,7.47,24.64,7.09,37.4-.09,2.93-.97,3.04-.97,3.22-.07,7.78.45,15.59.64,23.37Z"/>
          <path class="cls-25" d="m102.85,212.47c1.25,4.29.8,1.64,1.45,1.93.32.14-.7,5-.81,6.93-.49,8.68-.02,17.45-.97,26.11.23.32,1.19.12,1.61.16,1.65.15,3.42-.33,3.55.32-5.23.26-9.92.33-15.15,0l-.32-28.53c-7.63-20.41-12.81-36.54-34.5-45.14l1.29-6.61c.2.04,3.5-.26,4.03.32.33.37-.8,1.9.32,3.55.37.55,4.61,2.55,5.48,3.22,8.66,6.7,15.97,15.11,22.73,23.7,2.06,2.61,9.59,14.53,10.48,14.67.11.02.42-.63.81-.64Z"/>
          <path class="cls-25" d="m125.41,208.28h.64c.12,1.59,1.95,4.79,3.55,5.16v4.51c1.09,10.47-4.34,22.13,9.35,23.86-5.4,1.83-10.82,3.49-16.44,4.51.1-9.94-1.22-28.73-.32-37.56.03-.26.56.04.64-.48h2.58Z"/>
          <g>
            <path class="cls-29" d="m172.81,155.41c-.04.51-1.2,4.99-1.93,9.99-4.06,27.7-4.72,30.16-1.61,60.29-1.21.93-2.3,1.71-3.55,2.58-.75-13.19-2.88-26.26-2.26-39.49q2.26-18.46,4.51-36.91c2.19.98,5.04.58,4.84,3.55Z"/>
            <path class="cls-18" d="m167.97,151.86q-2.26,18.46-4.51,36.91c-.62,13.24,1.51,26.3,2.26,39.49-2.36,1.66-4.6,3.06-7.09,4.51.9-5.37-.48-15.08.64-19.67.22-.89,1.9-3.05,2.26-4.84.24-1.18.08-1.44,0-2.58-.28-4.18-1.06-4.17-1.29-5.16-.19-.82-.95-1.35-.64-3.71,2.64-15.2,3.29-30.73,6.13-45.94.75.34,1.51.63,2.26.97Z"/>
          </g>
          <path class="cls-25" d="m174.74,221.18c-1.92,1.67-3.45,2.96-5.48,4.51-3.1-30.13-2.45-32.59,1.61-60.29,1.28,9.33-.3,19,.32,28.53.49,7.53,2.83,19.07,3.55,27.24Z"/>
          <path class="cls-25" d="m53.2,213.12c-.46,1.87-.75,6.33.32,6.77.02,5.23.54,14.71,2.26,19.34-2.3-.97-4.55-2.09-6.77-3.22.74-5.02.12-10.12.32-15.15.08-1.87-.17-4,0-5.8.01-.15.53,1.55.97-2.26.97.34,1.89.37,2.9.32Z"/>
          <path class="cls-25" d="m159.27,213.12c-1.13,4.59.26,14.29-.64,19.67-1.09.64-2.08,1.33-3.22,1.93q.16-8.38.32-16.76v-4.84h3.55Z"/>
          <path class="cls-25" d="m160.23,200.54c-1.42-1.16-3.17-.9-4.84-.97,3.31-16.24,4.4-32.96,9.99-48.68.09.04.23-.04.32,0-2.83,15.21-3.48,30.74-6.13,45.94-.3,2.36.45,2.88.64,3.71Z"/>
          <path class="cls-12" d="m128.64,128.97c.78.15,1.83,1.54,1.93,1.61.54,4.13,1.26,8.2,2.26,12.25-.32-1.06-3.7,3.99-4.19,4.84-1.68-1.16-3.2-2.68-4.84-3.87.51-7.34-2.34-11.47,4.84-14.83Z"/>
          <path class="cls-6" d="m134.44,133.81c.23.2.31.31.32.32.5,2.09,6.13,4.11,2.1,5.8-4.25,1.78-3.01-3.5-4.03-5.96l1.61-.16Z"/>
          <path class="cls-25" d="m74.47,144.77c0,1-2.33,9.01-2.9,10.64-3.11-.38-4.9,5.9-6.29,8.7-2.84,0-18.71-.55-19.67-.32-.07.02-.01.49-1.13.97-1.44-.36-2.92-.54-4.35-.97-1.21-1.32-1.6-2.97-2.42-4.51-.58-1.1-.83-1.84-1.29-2.9-.75-1.72-1.37-3.5-2.26-5.16,8.37-4.07,16.9-8.04,25.63-11.28,3.65-5.23,7.79-10.15,12.73-14.19,0,4.23-.69,9.62,0,13.7.08.47,1.92,3.31,1.93,5.32Z"/>
          <path class="cls-32" d="m30.31,158.95c-6.33,2.29-7.69,3.13-13.38,6.45-.23.13-1.22-.13-1.45,0,0-3.13,2.18-2.25,5.48-4.51.91-.62,1.45-1.78,2.58-2.58.43-.3,3.86-1.51,4.35-1.93,1.26-1.09.36-1.08.48-1.29,1.08.45,1.44,2.65,1.93,3.87Z"/>
          <path class="cls-20" d="m7.42,174.75c-1.45,2.09-2.16,2.74-2.26,2.9-1.35-2.16-.28-3.26,2.26-2.9Z"/>
          <path class="cls-25" d="m132.83,142.83c1.47,5.99,2.85,8.62,3.87,11.93.06.21-.98-.49.64,3.55-.37-.55-.87-2.35-1.77-2.26-1.47,1.23-2.54,2.69-3.71,4.19-4.38,5.64-8.66,17.07-12.25,24.02-2.59,5.02-5.82,9.81-8.38,14.83-2.63,5.16-5.96,14.69-6.77,14.67,1.83-7.64,3.61-15.45,6.13-22.89,4.24-12.51,10.59-24.36,15.15-36.75v-.64c1.39-1.68,1.84-3.98,2.9-5.8.49-.85,3.87-5.9,4.19-4.84Z"/>
          <path class="cls-25" d="m71.57,155.41c-.12.35-.44.52-.32.97-.39-.1-.75-.2-1.13-.32-1.01.31-6.05,12.12-6.93,14.02,11.2,2.42,7.31.13,12.57-8.54-.22.84.34,1.07.32,1.13-.16.45-4.52,6.12-3.55,8.38.19.38.52-.34.64-.16,1.57,2.3,3.34,3.53,5.16,5.48,8.68,9.31,20.97,24.04,24.5,36.11-.38.02-.7.66-.81.64-.89-.14-8.42-12.06-10.48-14.67-6.76-8.59-14.06-17-22.73-23.7-.87-.68-5.11-2.68-5.48-3.22-1.12-1.65,0-3.18-.32-3.55-.53-.59-3.83-.29-4.03-.32-4.18-.78-10.66-1.94-14.51-2.9,1.12-.48,1.06-.95,1.13-.97.96-.22,16.82.33,19.67.32,1.38-2.8,3.18-9.08,6.29-8.7Z"/>
          <path class="cls-25" d="m136.05,169.91c1.42,1.33,4.67.36,6.77.64.03.1.75.12,1.29,1.77-5.18,4.14-10.9,7.52-15.8,12.09-1.15,1.08-1.83,1.71-2.9,2.9-5.31,5.9-11.15,14.84-16.28,21.28l-.48-.16c7.5-13.78,15.77-27.86,27.4-38.53Z"/>
          <g>
            <path class="cls-29" d="m137.34,158.31c.77,1.17,5.03,9.48,5.48,10.64.14.35-.13,1.22,0,1.61-2.1-.29-5.35.68-6.77-.64-.4-.37-4.64-8.41-4.19-9.67,1.16-1.5,2.24-2.96,3.71-4.19.9-.09,1.41,1.7,1.77,2.26Z"/>
            <path class="cls-25" d="m142.82,168.95c-.45-1.16-4.71-9.47-5.48-10.64-1.63-4.03-.58-3.34-.64-3.55,4.85,3.79,10.13,6.81,15.8,9.19l-9.67,5Z"/>
          </g>
          <path class="cls-6" d="m78.34,176.36c-1.82-1.95-3.59-3.18-5.16-5.48l6.45-10.32c.15.07.83-.89,1.61.16.95,4.64,7.32,12.17,3.71,11.45-.89-.18-3.41-6.84-4.19-6.45l-2.42,10.64Z"/>
          <path class="cls-25" d="m128.32,184.42c-.75,6.24,1.98,17.04-2.42,19.67q-.24-8.38-.48-16.76c1.07-1.19,1.75-1.82,2.9-2.9Z"/>
          <g>
            <path class="cls-29" d="m71.25,156.37c.3.08,4.46,2.4,5.48,2.9-.67.57-.77,1.48-.97,2.26-5.26,8.68-1.37,10.96-12.57,8.54.89-1.9,5.92-13.72,6.93-14.02.38.13.74.22,1.13.32Z"/>
            <path class="cls-25" d="m79.63,160.57l-6.45,10.32c-.12-.18-.46.54-.64.16-.97-2.26,3.38-7.93,3.55-8.38.02-.06-.54-.29-.32-1.13.2-.78.29-1.69.97-2.26.95.46,1.95.84,2.9,1.29Z"/>
          </g>
          <g>
            <path class="cls-6" d="m107.36,217.95l.97,29.66s.22.28-.64.32c-.13-.65-1.89-.17-3.55-.32.91-8.72.55-21.96,1.93-29.98.81-.18,1.09.36,1.29.32Z"/>
            <path class="cls-28" d="m107.36,217.95c-.2.03-.48-.5-1.29-.32.47-2.72,1.55-5.44,2.42-8.06.45,0,1,8.03-1.13,8.38Z"/>
          </g>
          <g>
            <path class="cls-9" d="m182.16,162.18c.17.18.61.61.64.64.11.12-.54,2.36,1.61,1.61.22.62,6.87,8.34,8.06,10.32.53.87,1.13,1.99,1.61,2.9,1.15,2.19,2.1,4.75,2.9,7.09.81,2.38,2.67,6.81,1.93,9.19-6.63,10.3-14.95,19.24-24.18,27.24-.71-8.17-3.06-19.72-3.55-27.24-.62-9.54.96-19.2-.32-28.53.73-5.01,1.9-9.48,1.93-9.99,2.09,1.5,8.05,5.45,9.35,6.77Z"/>
            <g>
              <path class="cls-22" d="m194.09,177.65c-.48-.91-1.08-2.03-1.61-2.9,2.69-.35,2.3.66,1.61,2.9Z"/>
              <g>
                <path class="cls-37" d="m184.41,162.82c.07.82-.03,1.54,0,1.61-2.15.75-1.5-1.49-1.61-1.61h1.61Z"/>
                <g>
                  <path class="cls-6" d="m179.74,169.59c.85,2.23,1.32,4.9,1.45,7.25.7,12.86-2.27.08-2.26-3.87,0-1.73.26-1.87.81-3.39Z"/>
                  <path class="cls-6" d="m176.84,162.82c2.36-.96,2.85,5.02,2.26,5.48-.44.35-.55-.88-.97-.97-.13-.03-.59,1.02-1.13.48-.18-.18-1.02-4.65-.16-5Z"/>
                  <path class="cls-28" d="m187.48,175.07c.3,1.61,1.41,3.11,1.77,4.67,1.73,7.49-2.96-4.47-1.77-4.67Z"/>
                </g>
              </g>
            </g>
          </g>
          <path class="cls-14" d="m13.22,187.97c.09-.26.23-.39.32-.64l2.26.81-2.58-.16Z"/>
          <g>
            <path class="cls-25" d="m30.31,158.95c4.34,10.74,8.71,22.23,10.64,33.69.37,2.22,0,7.52,1.61,8.54-1.43-.36-2.92-.6-4.35-.97-.76.58-.5,2.87-.48,4.84,0,.15-.97,1.86.16,2.9h3.06c-.34,2.34.32,4.8.32,7.09,0,5.34-.67,10.76-.32,16.12-1.53-.98-3.02-1.83-4.51-2.9-.19-7.78-.71-15.59-.64-23.37,0-.18.88-.3.97-3.22.38-12.76-3.38-25.33-7.09-37.4-7.28,6.08-12.9,14.07-16.12,23.05-.09.25-.24.39-.32.64-1.72,5.13-2.46,10.21-3.55,15.48-5.23-6.44-5.71-7.6-9.67-14.51,1.3-3.96,3.01-7.72,5.16-11.28.09-.16.8-.81,2.26-2.9,2.11-3.04,4.86-7.5,8.06-9.35.23-.13,1.22.13,1.45,0,5.69-3.31,7.05-4.15,13.38-6.45Z"/>
            <path class="cls-36" d="m37.24,208.28c3.4-1.88,3.65,3.26,2.9,3.87-1.21.97-3.79-3.38-2.9-3.87Z"/>
          </g>
          <g>
            <path class="cls-9" d="m155.72,217.95q-.16,8.38-.32,16.76c-5.59,2.98-10.44,5.06-16.44,7.09-13.69-1.72-8.25-13.38-9.35-23.86h26.11Z"/>
            <path class="cls-9" d="m155.72,213.12v4.84h-26.11v-4.51l26.11-.32Z"/>
          </g>
          <g>
            <path class="cls-29" d="m49.33,220.85c-.2,5.03.42,10.14-.32,15.15-2.04-1.04-3.84-2.05-5.8-3.22,3.43-5.91.37-14.52,6.13-11.93Z"/>
            <path class="cls-46" d="m48.68,196.67c.27.99.8,1.88.97,2.9-.69.15-.83.25-1.29.81.38.26.42.75.32,1.13-1.23-1.05-3.1-6.39,0-4.84Z"/>
            <g>
              <path class="cls-3" d="m34.17,151.22c.88,1.66,1.5,3.44,2.26,5.16-1.01.6-2.72.5-2.58,1.61-1.3-1.27-1.83.34-3.55.97-.49-1.22-.86-3.41-1.93-3.87.12-.19-.34-.81.48-1.61.55-.53,4.28-1.75,5.32-2.26Z"/>
              <path class="cls-29" d="m36.43,156.37c.46,1.06.71,1.8,1.29,2.9,4.49,12.24,7.58,24.84,10.96,37.4-3.1-1.55-1.23,3.78,0,4.84-.08.29.02.65-.32,1.61-.44-.04-.86-.21-1.29-.32-2.41-1.45-1.29-3.56-1.61-5-.99-4.48-10.12-38.37-11.61-39.82-.14-1.12,1.57-1.01,2.58-1.61Z"/>
              <path class="cls-18" d="m33.85,157.99c1.48,1.45,10.62,35.34,11.61,39.82.32,1.43-.8,3.54,1.61,5-.66-.17-1.42-.26-1.61-.32-.72-.23-2.27-1.13-2.9-1.29-1.62-1.02-1.24-6.32-1.61-8.54-1.93-11.46-6.3-22.95-10.64-33.69,1.72-.62,2.25-2.24,3.55-.97Z"/>
            </g>
            <g>
              <path class="cls-18" d="m49.33,215.05c-.17,1.81.08,3.93,0,5.8-5.76-2.59-2.7,6.02-6.13,11.93-1.82-1.09-2.14-1.54-2.26-1.61-.35-5.36.32-10.78.32-16.12h8.06Z"/>
              <path class="cls-47" d="m43.36,215.7c1.03.13,4.91-.17,5.16,0,2.34,1.65-4.77,5.73-5.16,0Z"/>
            </g>
          </g>
          <g>
            <path class="cls-29" d="m123.8,143.8c1.64,1.19,3.16,2.71,4.84,3.87-1.06,1.82-1.51,4.12-2.9,5.8-.8-1.51-4.36-7.85-4.51-8.54-.3-1.37.33-2.3.32-2.42.8.55,2.15,1.21,2.26,1.29Z"/>
            <g>
              <path class="cls-16" d="m74.47,119.3c1.21,1.3,2.57,2.54,3.55,4.03-.8,7.21-.22,14.87-2.58,21.76l-.97-.32c-.02-2.01-1.85-4.85-1.93-5.32-.69-4.08,0-9.48,0-13.7,0-2.4.67-4.97.32-7.42,1-.24,1.11.43,1.61.97Z"/>
              <path class="cls-38" d="m87.37,129.94c-.57,4.1.47,8.23.97,12.25.7,5.61,1.53,11.17,2.26,16.76-3.71-.35-7.02-1.92-10.64-2.58-.94-2.13-4.57-9.76-4.51-11.28,2.36-6.9,1.78-14.55,2.58-21.76-.98-1.49-2.34-2.73-3.55-4.03,4.56,3.19,8.54,7.22,12.9,10.64Z"/>
              <path class="cls-21" d="m121.55,142.51c0,.12-.62,1.05-.32,2.42.15.7,3.71,7.04,4.51,8.54v.64c-1.58.71-3.22,1.32-4.84,1.93-1.21-.81-6.72,2.49-7.58,2.26q-4.92-6.61-9.83-13.22c5.29-.42,11.96-4.4,14.83-9.03.27-.09,2.91-2.04,3.22-1.45-.17,2.69-.16,5.2,0,7.9Z"/>
              <path class="cls-17" d="m118.32,136.06c-2.87,4.63-9.54,8.6-14.83,9.03-5.26.42-10.17-1.62-15.15-2.9-.5-4.02-1.54-8.15-.97-12.25,9.72,7.62,15.03,11.52,30.95,6.13Z"/>
              <path class="cls-35" d="m103.49,145.09q4.92,6.61,9.83,13.22c.86.24,6.37-3.07,7.58-2.26-1.25.47-6.87,2.84-7.25,2.9-2.41.41-20.06.29-23.05,0-.73-5.6-1.56-11.16-2.26-16.76,4.99,1.29,9.9,3.32,15.15,2.9Z"/>
            </g>
            <g>
              <path class="cls-27" d="m110.58,190.87c-4.65.1-8.17,3.11-12.25,4.84-5.4-13.45-12.52-26.12-18.38-39.33,3.62.66,6.93,2.23,10.64,2.58,2.99.29,20.64.41,23.05,0,.39-.06,6.01-2.43,7.25-2.9,1.62-.61,3.25-1.23,4.84-1.93-4.56,12.39-10.92,24.24-15.15,36.75Z"/>
              <g>
                <path class="cls-2" d="m110.58,190.87c-2.52,7.44-4.29,15.25-6.13,22.89l-.64-.16c-.41-6.43-3.15-12.08-5.48-17.89,4.08-1.73,7.6-4.73,12.25-4.84Z"/>
                <path class="cls-34" d="m99.46,196.03l6.61,8.22-2.1,7.25c-.49-5.47-2.97-10.28-4.51-15.48Z"/>
              </g>
            </g>
          </g>
          <g>
            <g>
              <path class="cls-44" d="m155.4,199.58c1.66.07,3.42-.19,4.84.97.23.99,1.01.98,1.29,5.16h-36.11c.28-.86,3.78-3.42,5-5.8,8.33.34,16.67-.66,24.99-.32Z"/>
              <path class="cls-41" d="m161.52,205.7c.08,1.13.24,1.4,0,2.58h-36.11c.08-.71-.12-1.59,0-2.26.02-.11-.03-.23,0-.32h36.11Z"/>
              <path class="cls-10" d="m125.41,206.02c-.12.67.08,1.55,0,2.26h-2.58c.04-.27-1.6-3.22,2.58-2.26Z"/>
              <path class="cls-39" d="m161.52,208.28c-.36,1.79-2.04,3.95-2.26,4.84h-3.55l-26.11.32c-1.6-.37-3.42-3.57-3.55-5.16h35.46Z"/>
            </g>
            <g>
              <path class="cls-44" d="m49.65,199.58c2.73-.57,22.79.43,28.85,0,1.9,1.03,3.26,3.41,3.71,5.48-11.43-.7-23.46,1.08-34.82-.32.33-.54.75-1,.97-1.61.35-.96.25-1.32.32-1.61.1-.38.06-.87-.32-1.13.46-.56.6-.66,1.29-.81Z"/>
              <path class="cls-39" d="m82.21,207.96c-.43,2.44-1.89,4.58-1.93,4.84-9.04-.02-18.04-.12-27.08.32-1.01.05-1.93.02-2.9-.32.17-1.52-.12-3.28,0-4.84,3.77.64,24.73-.48,31.92,0Z"/>
              <path class="cls-26" d="m47.39,204.73c11.36,1.4,23.39-.37,34.82.32.3,1.41.24,1.54,0,2.9-7.19-.48-28.14.64-31.92,0-.05,0,.15-.47-.97-.32l2.26-.48c-1.95-1.92-2.74-1.42-5.48-1.77-.04-.29.35-.35.32-.64.69.53.65-.04.97,0Z"/>
              <path class="cls-44" d="m49.33,207.64c1.11-.15.92.31.97.32-.12,1.55.17,3.32,0,4.84-.43,3.81-.95,2.1-.97,2.26h-8.06c0-2.29-.67-4.75-.32-7.09l8.38-.32Z"/>
              <path class="cls-27" d="m46.1,205.38c2.74.36,3.53-.14,5.48,1.77l-2.26.48-8.38.32h-3.06c-1.13-1.04-.16-2.75-.16-2.9,2.84.01,5.54-.05,8.38.32Z"/>
              <path class="cls-44" d="m42.56,201.19c.63.16,2.18,1.06,2.9,1.29-.05.75.93,1.79.97,2.26.03.3-.36.35-.32.64-2.84-.37-5.54-.31-8.38-.32-.02-1.97-.27-4.26.48-4.84,1.43.36,2.92.61,4.35.97Z"/>
              <path class="cls-11" d="m47.07,202.8c.43.11.85.28,1.29.32-.22.61-.64,1.07-.97,1.61-.31-.04-.28.53-.97,0-.04-.47-1.02-1.51-.97-2.26.19.06.95.15,1.61.32Z"/>
            </g>
          </g>
          <g>
            <path class="cls-25" d="m59,219.56h.32c.32,5.68-.5,11.79,2.26,16.93,4.3,8.03,13.13,7.19,15.8,3.39l.64,1.61c-1.8,2.1-3.33,2.33-5.8,3.22-5.69-1.41-11.05-3.21-16.44-5.48-1.72-4.64-2.23-14.11-2.26-19.34,0-.11,0-.21,0-.32h5.48Z"/>
            <path class="cls-25" d="m80.28,212.79c-1.22,7.21,2.35,23.33-2.26,28.69l-.64-1.61c2.44-3.49,1.12-15.74.97-20.31,0-.29.77-3.46.16-5.8-6.5-.64-13-.11-19.51,0-.81.01-5.01-.83-5.48-.16,0,1.99,0,3.98,0,5.96,0,.11,0,.21,0,.32-1.07-.44-.78-4.9-.32-6.77,9.04-.44,18.04-.34,27.08-.32Z"/>
            <g>
              <path class="cls-6" d="m78.34,219.56h-19.34v-5.8c6.5-.11,13-.64,19.51,0,.61,2.35-.17,5.51-.16,5.8Z"/>
              <path class="cls-9" d="m59,213.76v5.8h-5.48c0-1.99,0-3.98,0-5.96.48-.67,4.67.17,5.48.16Z"/>
              <g>
                <path class="cls-9" d="m78.34,219.56c.16,4.57,1.47,16.83-.97,20.31-2.66,3.8-11.49,4.65-15.8-3.39-2.75-5.14-1.94-11.25-2.26-16.93h19.02Z"/>
                <path class="cls-23" d="m71.73,224.72c.58.11,2.47-.22,2.74.16.22.32.84,6.55-2.74-.16Z"/>
              </g>
            </g>
          </g>
        </g>
        <g>
          <path class="cls-21" d="m137.34,78.35c1.16,8.97,3.38,12.19-3.55,19.99-.07-.06-.43.13-1.61-.97-1.03-6.52-4.4-2.41-5.32-2.26-.2.03-2.22-.28-4.03-.32-4.33-.1-8.71-.93-13.06-.97-2.64-4.3.21-3.36,5-4.51.13.37.03.78.64.64,1.69-.11,9.93,3.27,10.48,3.22,4.13-.37-3.34-3.87-4.35-4.03-.28-3.48-.38-7-.64-10.48,2.24-.48,2.77,6.03,9.51,4.84,3.3-.59,4.42-4.16,6.61-6.13l.32.97Z"/>
          <path class="cls-16" d="m119.61,48.69c-.03.31.13.77-.16.97-.9.6-18.65,6.08-20.63,6.45-7.57,1.42-18.36,1.8-25.95.64.4-1.41.85-2.8,1.29-4.19.79.14,1.54.51,2.26.64.73.13,1.8.49,2.42.97,12.66.58,25.57-.63,37.08-6.13,1.2.45,2.45.53,3.71.64Z"/>
          <path class="cls-38" d="m133.8,58.04c-9.82-5.29-22.4,1.72-30.31,2.58-5.17.56-12.77-1.64-16.44,2.9-1.13-.7-3.82-.05-6.77,0-3.02.06-6.02.03-9.03-.32.44-2.17,1.01-4.32,1.61-6.45,7.59,1.16,18.38.77,25.95-.64,1.98-.37,19.74-5.84,20.63-6.45.3-.2.13-.66.16-.97,3.54.33,7.18,1.23,10.8,1.29,2.3,2.19,2.48,5.41,3.39,8.06Z"/>
          <path class="cls-43" d="m80.28,63.52c-2.88,12.11-.53,23.92,5.16,34.82-15.95-6.02-17.18-20.43-14.19-35.14,3,.35,6.01.38,9.03.32Z"/>
          <path class="cls-43" d="m114.77,89.31c-4.78,1.16-7.64.21-5,4.51,4.34.04,8.73.87,13.06.97-10.34,5.28-11.03,0-12.41,0-.3,0-2.03,1.64-2.74,1.93-4.27,1.75-4.69-1.42-7.74-3.55,10.59-4.83,3.17-14.91,8.87-15.8,4.89-.76,5.73,11.25,5.96,11.93Z"/>
          <path class="cls-7" d="m103.49,60.62c.51,10-.12,4.36-10.16,6.13-8.04,1.41-10.7,8.04-8.54,1.13.27-.85,1.66-3.62,2.26-4.35,3.67-4.54,11.27-2.34,16.44-2.9Z"/>
          <path class="cls-45" d="m119.93,60.62c-.39.6-1.16,3.42-.97,4.35l.97.48c.32.02.65-.03.97,0-1.18,2.42-.32,8.99,0,13.22.27,3.48.36,7,.64,10.48,1.01.16,8.48,3.66,4.35,4.03-.55.05-8.79-3.34-10.48-3.22,1.14-4,3.14-1.1,4.19-2.1-.39-4.47-2.16-25.29-.64-27.73.29-.46.94.1.97.48Z"/>
          <path class="cls-19" d="m120.9,65.46c-.32-.03-.65.02-.97,0-1.39-10.65,15.83-6.99,14.51,1.77-4.69-1.63-8.86-1.36-13.54-1.77Z"/>
          <g>
            <path class="cls-21" d="m137.02,77.06v.32c-2.19,1.96-3.31,5.54-6.61,6.13-6.74,1.2-7.28-5.32-9.51-4.84-.32-4.22-1.18-10.8,0-13.22,4.68.42,8.85.15,13.54,1.77,1.32-8.76-15.9-12.43-14.51-1.77l-.97-.48c-.2-.93.58-3.75.97-4.35,1.43-2.23,5.55-2.62,7.9-2.26,10.46,1.61,6.92,14.28,9.19,18.7Z"/>
            <path class="cls-19" d="m130.57,73.52c-4.08-2.73-3.51,4.65,0,2.58-.76,6.65-8.22,3.26-7.09-2.42.55-2.75,5.55-5.27,7.09-.16Z"/>
            <path class="cls-11" d="m130.57,73.52c.52,1.72.06,2.06,0,2.58-3.51,2.07-4.08-5.31,0-2.58Z"/>
          </g>
          <path class="cls-4" d="m88.02,100.6c-.67.53-1.23,1.14-1.93,1.61,0-.11-.01-.22,0-.32.14-1.36-.68-2.36.16-2.58.16-.04,3.54.3,1.77,1.29Z"/>
          <g>
            <path class="cls-35" d="m133.8,58.04c2.59,7.58,3.13,9.91,3.55,18.38l-.32.64c-2.27-4.42,1.27-17.09-9.19-18.7-2.35-.36-6.46.03-7.9,2.26-.03-.38-.68-.95-.97-.48-1.52,2.44.25,23.25.64,27.73-1.05,1-3.05-1.9-4.19,2.1-.61.13-.51-.27-.64-.64-.24-.68-1.07-12.69-5.96-11.93-5.7.88,1.73,10.97-8.87,15.8-.72.33-1.85.32-2.58.64-1.44.64-3.85,1.18-4.03,1.29-.29.18-2.74,3.24-3.71,4.19-2.23.32-3.43-.68-4.19-.97-5.69-10.89-8.04-22.71-5.16-34.82,2.96-.05,5.64-.7,6.77,0-.59.73-1.99,3.5-2.26,4.35-2.16,6.91.5.29,8.54-1.13,10.04-1.76,10.66,3.87,10.16-6.13,7.9-.86,20.49-7.87,30.31-2.58Z"/>
            <path class="cls-21" d="m87.69,77.71c.83-.44,4.2-.55,4.84-1.61.66,1.91.92,4.87,3.39,5.48,5.87,1.44,5.81-5.85,8.38-1.61.18.3.61-.52.81-.16.69,1.53-4.71,8.59-14.99,2.74-2.97-1.69-5.48-3.21-2.42-4.84Z"/>
            <path class="cls-21" d="m92.53,76.1c-.63,1.06-4.01,1.17-4.84,1.61-.12-2.34,7.04-7.41,7.58-7.42,2.43,0-1.53,1.63-2.74,5.8Z"/>
            <g>
              <path class="cls-19" d="m96.56,71.58c5.89-1.33,8.07,7.62,2.58,8.7-6.24,1.24-6.62-7.79-2.58-8.7Z"/>
              <path class="cls-11" d="m99.14,73.84c2.32-.79,3.69,3.25,1.93,3.87-2.18.77-3.89-3.21-1.93-3.87Z"/>
            </g>
          </g>
        </g>
        <g>
          <path class="cls-19" d="m109.94,134.45c13.66-1.33,25.77-16.02,28.05-29.02,2.11,2.01-2.23,10.54-2.26,11.12,0,.21.39.18.64.16-3.24,7.39-7.77,11.11-8.06,11.77-.02.05.39.24.32.48-7.17,3.36-4.32,7.49-4.84,14.83-.11-.08-1.46-.74-2.26-1.29-.16-2.7-.17-5.21,0-7.9-.32-.59-2.95,1.36-3.22,1.45-15.92,5.4-21.23,1.5-30.95-6.13-4.36-3.42-8.34-7.45-12.9-10.64-.5-.54-.61-1.21-1.61-.97v-.81c-7.38-7.06-12.7-14.18-13.54-24.66,2.03.14,3.66-.03,5.48-.97.19.96-.92.74-.97,1.45-.04.62,4.02,10.65,4.51,11.61,1.93,3.73,7.36,10.31,10.48,13.38,8.24,8.12,19.04,17.3,31.11,16.12Z"/>
          <path class="cls-19" d="m137.02,45.47c1.01,4.89,1.19,9.86,1.29,14.83.02.89.32,1.12.32,1.61,0,4.87-.78,9.68-1.29,14.51-.42-8.46-.96-10.79-3.55-18.38-.9-2.65-1.08-5.87-3.39-8.06-3.62-.06-7.26-.96-10.8-1.29-1.26-.12-2.51-.2-3.71-.64-11.5,5.5-24.42,6.7-37.08,6.13-.62-.48-1.69-.83-2.42-.97,19.34,2.26,24.13-.92,39.01-5.8.88-.29,2.03-1.02,2.9-1.29,6.24.15,12.45-1.01,18.7-.64Z"/>
          <path class="cls-19" d="m58.68,49.98c5.33.22,10.28,1.63,15.48,2.58-.44,1.39-.89,2.79-1.29,4.19-.6,2.13-1.17,4.27-1.61,6.45-2.99,14.72-1.77,29.12,14.19,35.14.76.29,1.97,1.29,4.19.97-.66.64-.98.78-1.61,1.29,1.77-.99-1.61-1.33-1.77-1.29-.84.22-.02,1.21-.16,2.58-1.41-5.07-8.22-5.42-12.57-11.45-2.3-3.19-4.73-11.6-4.84-15.48-.14-5.13,3.33-12.69.32-17.09-4.76-6.97-13.57,9.22-15.48,12.57,11.42-4.67,16.05,3.77,14.51,14.35.16-4.97-.38-13.71-6.61-14.83-4.23-.76-9.12.96-10.16,5.48h-.32c-2.67-6.26-.99-13.01-1.29-19.51l4.84-5.64.48-.64c.54-.15,2.12.26,3.71.32Z"/>
          <path class="cls-33" d="m86.08,101.89c-.01.11,0,.22,0,.32-.25,4.83,2.44,8.68,5.16,12.73,4.51,6.75,11.99,14.84,18.7,19.51-12.07,1.18-22.87-8-31.11-16.12-3.12-3.07-8.55-9.65-10.48-13.38-.49-.96-4.55-10.99-4.51-11.61.05-.71,1.16-.49.97-1.45,3.21-1.65,3.13-4.04,3.22-7.09,1.55-10.57-3.09-19.02-14.51-14.35,1.9-3.35,10.71-19.54,15.48-12.57,3.01,4.4-.46,11.96-.32,17.09.11,3.87,2.54,12.29,4.84,15.48,4.35,6.03,11.16,6.37,12.57,11.45Z"/>
          <path class="cls-37" d="m97.69,105.43c.3-.04.28.1.32.32.01.06-.64.46-.32,1.13.67,1.42,1.74,2.71,2.58,4.03,2.53,3.96,3.29,5.65,8.38,6.77,2.93,1.82-5.06,2.95-1.61,8.54,2.95,4.79,10.59,2.05,9.67-4.19-.26-1.8-2.41-2.47-1.29-4.35,2.12-.5,5.3-1.02,4.84-3.87,3.13-1.75,5.83-7.45,6.45-10.96,3.75-.07,8.24.34,11.45-.97.43.34-.05,2.89-.16,3.55-2.28,13-14.39,27.68-28.05,29.02-6.71-4.66-14.19-12.76-18.7-19.51-2.71-4.06-5.4-7.9-5.16-12.73.7-.48,1.27-1.08,1.93-1.61,4.32,6.98,4.79,3.44,5.64,3.55.22.03,1.3,1.99,4.03,1.29Z"/>
          <g>
            <path class="cls-7" d="m136.38,116.72c-.26.02-.65.04-.64-.16.03-.58,4.36-9.11,2.26-11.12.12-.66.59-3.2.16-3.55-3.2,1.31-7.7.89-11.45.97-1.61.03-3.23-.03-4.84,0-3.16.06-22.32-.18-23.37.32-.6.28-.55,1.63-.81,2.26-2.73.7-3.81-1.26-4.03-1.29-.86-.1-1.33,3.43-5.64-3.55.64-.5.95-.65,1.61-1.29.97-.95,3.42-4.01,3.71-4.19.18-.11,2.59-.65,4.03-1.29.84,1.48,5.09,8.33,5.96,8.7.19.08,4.24.19,3.55-.97,3.74,1.88,2.1-.59,4.35-2.74l-3.55-2.1c.71-.29,2.44-1.93,2.74-1.93,1.38,0,2.07,5.28,12.41,0,1.81.04,3.83.36,4.03.32.92-.16,4.29-4.26,5.32,2.26.06.35-1.88,3.07,4.51,3.71-1.48-.91-2.75-2.61-2.9-2.74,6.93-7.8,4.71-11.02,3.55-19.99,4.35,11.47,3.95,27.16-.97,38.37Z"/>
            <path class="cls-19" d="m99.94,93.18c3.05,2.12,3.47,5.29,7.74,3.55l3.55,2.1c-2.25,2.15-.62,4.62-4.35,2.74.7,1.16-3.35,1.05-3.55.97-.88-.38-5.12-7.23-5.96-8.7.73-.32,1.86-.32,2.58-.64Z"/>
            <path class="cls-13" d="m133.8,98.34c.15.13,1.42,1.83,2.9,2.74-6.4-.64-4.46-3.36-4.51-3.71,1.18,1.09,1.54.91,1.61.97Z"/>
          </g>
          <path class="cls-7" d="m115.42,117.69c-1.12,1.89,1.03,2.55,1.29,4.35.92,6.24-6.72,8.98-9.67,4.19-3.45-5.6,4.55-6.73,1.61-8.54,1.91.42,2.62.84,5,.64.09,0,1.37-.55,1.77-.64Z"/>
        </g>
        <g>
          <path class="cls-35" d="m126.7,102.86c-.62,3.51-3.32,9.21-6.45,10.96-5.54,3.09-12.71,1.6-17.73-1.61.07-5.99,1.11-2.2,4.51-2.58,3.89,1.2,9.35,1.83,13.22.32,1.91-.75,8.46-7.53,4.19-6.45l-2.58-.64c1.61-.03,3.23.03,4.84,0Z"/>
          <path class="cls-17" d="m121.87,102.86l2.58.64c-.61,1.76-2.84,1.22-3.55,2.9-7.06,1.46-13.94.11-20.96-.64h-1.93c-.05-.22-.02-.36-.32-.32.26-.63.21-1.97.81-2.26,1.06-.5,20.21-.26,23.37-.32Z"/>
          <path class="cls-31" d="m102.52,112.21c5.02,3.21,12.19,4.7,17.73,1.61.47,2.85-2.71,3.37-4.84,3.87-.4.09-1.68.64-1.77.64-2.38.19-3.08-.22-5-.64-5.09-1.12-5.85-2.81-8.38-6.77.71.45,1.56.85,2.26,1.29Z"/>
          <path class="cls-43" d="m99.94,105.76c1.66,1.79,4.75,3.15,7.09,3.87-3.4.38-4.45-3.41-4.51,2.58-.7-.44-1.55-.84-2.26-1.29-.84-1.32-1.91-2.61-2.58-4.03-.32-.67.33-1.07.32-1.13h1.93Z"/>
          <path class="cls-11" d="m120.9,106.4c-.31.74-.23,2.47-.64,3.55-3.87,1.51-9.33.88-13.22-.32-2.34-.72-5.43-2.08-7.09-3.87,7.01.75,13.9,2.1,20.96.64Z"/>
          <path class="cls-31" d="m120.26,109.95c.42-1.08.33-2.8.64-3.55.71-1.68,2.94-1.14,3.55-2.9,4.27-1.09-2.28,5.7-4.19,6.45Z"/>
        </g>
      </g>
    </g>
  </g>
</svg>