<?xml version="1.0" encoding="UTF-8"?>
<svg id="Camada_2" data-name="Camada 2" xmlns="http://www.w3.org/2000/svg" xmlns:xlink="http://www.w3.org/1999/xlink" viewBox="0 0 139.47 279.24">
  <defs>
    <style>
      .cls-1 {
        fill: #f6a750;
      }

      .cls-1, .cls-2, .cls-3, .cls-4, .cls-5, .cls-6, .cls-7, .cls-8, .cls-9, .cls-10, .cls-11, .cls-12, .cls-13, .cls-14, .cls-15, .cls-16, .cls-17, .cls-18, .cls-19, .cls-20, .cls-21, .cls-22, .cls-23, .cls-24, .cls-25, .cls-26, .cls-27, .cls-28, .cls-29, .cls-30, .cls-31, .cls-32, .cls-33, .cls-34, .cls-35, .cls-36, .cls-37, .cls-38, .cls-39, .cls-40, .cls-41, .cls-42, .cls-43, .cls-44, .cls-45, .cls-46, .cls-47, .cls-48, .cls-49, .cls-50, .cls-51, .cls-52, .cls-53, .cls-54, .cls-55, .cls-56, .cls-57, .cls-58, .cls-59, .cls-60 {
        stroke-width: 0px;
      }

      .cls-2 {
        fill: #9b9f93;
      }

      .cls-3 {
        fill: #393428;
      }

      .cls-4 {
        fill: #f9c671;
      }

      .cls-5 {
        fill: url(#Gradiente_sem_nome_476);
      }

      .cls-6 {
        fill: #151c17;
      }

      .cls-7 {
        fill: #9e6745;
      }

      .cls-8 {
        fill: #fbe6ce;
      }

      .cls-9 {
        fill: #f6f5f5;
      }

      .cls-10 {
        fill: #645450;
      }

      .cls-11 {
        fill: #c8bcb7;
      }

      .cls-12 {
        fill: #1d0602;
      }

      .cls-13 {
        fill: #432a19;
      }

      .cls-14 {
        fill: #542512;
      }

      .cls-15 {
        fill: #474d3a;
      }

      .cls-16 {
        fill: #4e3f2f;
      }

      .cls-17 {
        fill: #e0d5ba;
      }

      .cls-18 {
        fill: #2e1810;
      }

      .cls-19 {
        fill: #bd342b;
      }

      .cls-20 {
        fill: #e3642d;
      }

      .cls-21 {
        fill: #74321b;
      }

      .cls-22 {
        fill: #141414;
      }

      .cls-23 {
        fill: #441b11;
      }

      .cls-24 {
        fill: #f7894c;
      }

      .cls-25 {
        fill: #5c5f5b;
      }

      .cls-26 {
        fill: #48442f;
      }

      .cls-27 {
        fill: #e98e41;
      }

      .cls-28 {
        fill: #f7d379;
      }

      .cls-29 {
        fill: #c7672e;
      }

      .cls-30 {
        fill: #330e0a;
      }

      .cls-31 {
        fill: #ec772f;
      }

      .cls-32 {
        fill: #3a3b38;
      }

      .cls-33 {
        fill: #dbe3d9;
      }

      .cls-34 {
        fill: #da2016;
      }

      .cls-35 {
        fill: #f7eac6;
      }

      .cls-36 {
        fill: #fdf6e1;
      }

      .cls-37 {
        fill: #dc5229;
      }

      .cls-38 {
        fill: #3e453d;
      }

      .cls-39 {
        fill: #662827;
      }

      .cls-40 {
        fill: #b1512d;
      }

      .cls-41 {
        fill: #262b25;
      }

      .cls-42 {
        fill: #666f57;
      }

      .cls-43 {
        fill: #201917;
      }

      .cls-44 {
        fill: #abb58c;
      }

      .cls-45 {
        fill: #a5231f;
      }

      .cls-46 {
        fill: #e9ae54;
      }

      .cls-47 {
        fill: url(#Gradiente_sem_nome_478);
      }

      .cls-48 {
        fill: #29352a;
      }

      .cls-49 {
        fill: #b7a89f;
      }

      .cls-50 {
        fill: #959a9e;
      }

      .cls-51 {
        fill: #757268;
      }

      .cls-52 {
        fill: #f4ece2;
      }

      .cls-53 {
        fill: #e1a688;
      }

      .cls-54 {
        fill: #af7539;
      }

      .cls-55 {
        fill: #c38953;
      }

      .cls-56 {
        fill: #97462f;
      }

      .cls-57 {
        fill: #a1938a;
      }

      .cls-58 {
        fill: #887a73;
      }

      .cls-59 {
        fill: url(#Gradiente_sem_nome_477);
      }

      .cls-60 {
        fill: #e9ceba;
      }
    </style>
    <linearGradient id="Gradiente_sem_nome_476" data-name="Gradiente sem nome 476" x1="-4562.23" y1="-4720" x2="-4569.71" y2="-4618.65" gradientTransform="translate(2310.03 2404.52) scale(.5)" gradientUnits="userSpaceOnUse">
      <stop offset="0" stop-color="#e89342"/>
      <stop offset="1" stop-color="#fab45d"/>
    </linearGradient>
    <linearGradient id="Gradiente_sem_nome_477" data-name="Gradiente sem nome 477" x1="-4395.67" y1="-4718.26" x2="-4401.36" y2="-4611.91" gradientTransform="translate(2310.03 2404.52) scale(.5)" gradientUnits="userSpaceOnUse">
      <stop offset="0" stop-color="#e79041"/>
      <stop offset="1" stop-color="#faae57"/>
    </linearGradient>
    <linearGradient id="Gradiente_sem_nome_478" data-name="Gradiente sem nome 478" x1="-4475.15" y1="-4368.07" x2="-4482.61" y2="-4347.82" gradientTransform="translate(2310.03 2404.52) scale(.5)" gradientUnits="userSpaceOnUse">
      <stop offset="0" stop-color="#1d1b18"/>
      <stop offset="1" stop-color="#444835"/>
    </linearGradient>
  </defs>
  <g id="Camada_1-2" data-name="Camada 1">
    <g>
      <path class="cls-35" d="m121.81,26.51c-.46-5.28-.5-3.67-5.92-4.18-.68-.06-1.03-.48-1.74-.35,3.19-.69,4.2-.05,7.48.35.64.45.26,3.46.17,4.18Z"/>
      <g>
        <path class="cls-5" d="m44.9,43.22c.37,1.82-.35,3.82-.35,5.57-.75.54-4.37,1.87-4.52,2.26-.2.5-.32,10.18.7,10.27-3.39,7.42,6,7.12,2.09,10.44-.3.26-2.33,1.14-3.83,2.61l-.35,24.36,4.52.17c-.02,1.51.03,3.02,0,4.52l-5.92,1.57c-.26,6.44-.25,12.87-.35,19.32-.39.23-.86.28-1.04.7-.86-.28-.99-.66-1.04-.7q.17-4.44.35-8.87c-.22-.39-1.18-.04-1.39-.17-2.55-1.6-3.65-1.63-3.83-1.74-.96-.56-2.16-1.97-3.13-2.44.92-2.2-.11-2.93,1.04-5.92q3.22,3.48,6.44,6.96c1.06-.18.28-10.32.52-12.01-.24-.33-2.58-.17-3.13-.17-1.25-.01-4.48.27-6.26.35,9.51-8.26,11-20.92.35-28.89-6.78-5.07-9.01-4.3-17.05-4.87,5.39-1.81,8.44,2.97,8.35-5.22,1.07.07,5.37.29,5.92-.52.51-5.84,2.3-11.81,2.09-17.58,6.53-.07,13.13-.55,19.66-.7.28,0,.14.7.17.7Z"/>
        <path class="cls-59" d="m115.9,44.96c-.03,4.8,1.48,10.59,1.74,15.49.61.87,2.39.45,4.18.52l2.09,4.7c.45.79.8.05,2.09.17l-.35,1.39c-7.3,1.76-15.98,4.64-18.45,12.7-2.46,8.07.4,14.45,6.26,20.01-9.02,3.23-6.02,2.56-6.26,8-.01.23,0,.46,0,.7-.04,2.26-.69,4.65-.35,6.96-.34-.05-.37-.32-.7-.35-2.64-.22-2.67.94-2.96.7-.62-.51.51-3.04-.87-2.78-.33-7.57,1.7-10.37-3.48-13.4.57-.64,1.91-1.7,2.09-2.44.3-1.22-.01-21.34,0-25.23,0-1.21.83-5.51.35-6.44-9.8-3.29.4-1.18,1.04-2.09.87-10.75-1.91-10.07-2.09-10.62-1.03-3.13-1.13-6.76-2.78-9.74.04,0-.11-.69.17-.7,2.05-.07,16.69-.15,17.4.35.55.39-.42,2.36.87,2.09Z"/>
        <path class="cls-22" d="m127.38,43.22q-.35,8.61-.7,17.23c-.36.82-4.02.55-4.87.52-1.78-.07-3.57.35-4.18-.52-.26-4.89-1.77-10.69-1.74-15.49,0-1.21-.76-1.45.17-2.09,3.75-.37,7.59.35,11.31.35Z"/>
        <g>
          <path class="cls-1" d="m29.58,30.69c1.26-.1,2.56.07,3.83,0l.52,1.04c8.73-.86,64.66,1.12,67.87,0,.27-.09.18-.45.17-.7.02.05.31-.16.52,1.04h31.85s.66-.12.7.17c1.67,13.3-1.32,10.97-7.66,10.96-3.72,0-7.56-.72-11.31-.35-.93.63-.17.88-.17,2.09-1.29.27-.32-1.7-.87-2.09-.71-.5-15.35-.42-17.4-.35-.29,0-.14.69-.17.7-1.83.09-3.41-.02-5.22-.35-.06-.01.01-.97-.52-1.04-2.19-.31-37.01-.13-43.5,0-.8.02-2.97,1.38-3.31,1.39-.04,0,.11-.7-.17-.7-6.53.14-13.14.63-19.66.7-4.28.05-8.6.1-12.88,0-1.58-.04-7.61.38-8-.52q.26-5.66.52-11.31c4.49-.58,20.56.94,23.14-.7.18.82.92.06,1.74,0Z"/>
          <path class="cls-36" d="m121.46,28.6c2.48,2.14,11.79.29,13.57,2.96-.22.27-.81.09-.7.52h-31.85c-.21-1.21-.5-.99-.52-1.04-.07-.2.05-.68,0-1.04,3.48.75,6.96.31,10.44,0,.23-.02.47.02.7,0,1.22-.1,2.71-.6,3.83-.7,1.55-.13,3.01-.41,4.52-.7Z"/>
        </g>
        <path class="cls-54" d="m113.81,111.43c-.94.76-1.75,2.76-2.78,2.78q-1.91-2.78-3.83-5.57c0-.23-.01-.46,0-.7,5.69-3.43,4.77-2.42,6.61,3.48Z"/>
        <path class="cls-28" d="m121.81,26.51c-.03.21-.55.7-.35,2.09-1.52.29-2.98.56-4.52.7-.98-2.32.44-4.97-1.04-6.96,5.42.5,5.46-1.1,5.92,4.18Z"/>
        <path class="cls-46" d="m114.16,21.99c.71-.13,1.06.29,1.74.35,1.49,1.99.07,4.64,1.04,6.96-1.12.1-2.61.59-3.83.7v-8c.25-.08.73.07,1.04,0Z"/>
        <path class="cls-54" d="m113.11,21.99v8c-.23.02-.47-.02-.7,0-1.95.29-.89-7.74-.52-8,.37-.06.93.1,1.22,0Z"/>
        <g>
          <path class="cls-22" d="m25.06,43.22c.21,5.77-1.58,11.73-2.09,17.58-.55.81-4.84.6-5.92.52-.61-.04-2.88.18-3.13-.17-.34-5.19.74-16.16-1.74-17.92,4.28.1,8.6.05,12.88,0Z"/>
          <path class="cls-49" d="m24.71,21.99c-.39,2.82.58,4.83-1.74,6.61-1.26-.09-2.1-.19-2.78-1.39-.86-1.52.19-3.25-.7-5.22,1.01-.15,3.92-.07,5.22,0Z"/>
          <path class="cls-58" d="m28.54,29.99c.04.42-.3.32-.35.35-2.36-.76-4.9-.31-7.31-.35-.39-1.23-1.22-.43-.7-2.78.68,1.2,1.53,1.3,2.78,1.39,6.47.49,1.85-2.7,2.78-5.05.3-.74,2.52.28,2.09-1.57.19.07.54-.14.7.17.05,2.01-.96,6.14,0,7.83Z"/>
          <path class="cls-10" d="m19.49,21.99c.89,1.97-.16,3.7.7,5.22-.52,2.35.3,1.55.7,2.78-4.31-.06-11.75-.13-3.13-.87v-6.96c.25-.36,1.29-.11,1.74-.17Z"/>
          <path class="cls-57" d="m27.84,21.99c.43,1.85-1.79.82-2.09,1.57-.94,2.35,3.69,5.53-2.78,5.05,2.32-1.79,1.35-3.79,1.74-6.61.99.05,2.74-.14,3.13,0Z"/>
        </g>
        <path class="cls-12" d="m29.58,30.69c-.82.06-1.56.82-1.74,0,.02-.01-.07-.08.35-.35.05-.03.39.08.35-.35.03.05.8-.2,1.04.7Z"/>
        <path class="cls-9" d="m43.16,98.9l-4.52-.17.35-24.36c1.5-1.47,3.53-2.35,3.83-2.61-2.02,2.96-.34,4.59,1.04,7.48-3.51,5.47-1.29,13.84-.7,19.66Z"/>
        <path class="cls-52" d="m34.8,124.31c.05.03.19.42,1.04.7-3.13,6.94,3.3,7.54-1.74,8.35-.3-.84-1.87-1.24-2.78-1.39.06-.4.12-1.06-.35-1.04,1.29-2.16,1.63-2.81,2.44-5.22.57-1.7-.49-2.5,1.39-1.39Z"/>
        <path class="cls-22" d="m34.8,124.31c-1.88-1.11-.83-.3-1.39,1.39-.89-.55-.11-3.57-1.39-8l1.74-2.44c.21.13,1.17-.22,1.39.17q-.17,4.44-.35,8.87Z"/>
        <path class="cls-27" d="m106.15,115.26c-.49,2.63-.53,6.38-.35,9.05.1,1.52-.65,1.22,1.04,3.13-.55-.03-.34,1.67-.35,3.48,0,2.99-.06,6.07,0,9.05h-.35c-.99-.96-2.14-2.35-3.48-1.74.11-8.37.01-16.69-.35-25.06,1.38-.25.25,2.28.87,2.78.29.24.32-.91,2.96-.7Z"/>
        <path class="cls-36" d="m111.02,114.22c.23,1.2-.29,1.36-.7,2.09-1.03-.32-2.09-.47-3.13-.7-.11-.02-.23.02-.35,0-.34-2.31.31-4.7.35-6.96q1.91,2.78,3.83,5.57Z"/>
        <path class="cls-14" d="m106.85,115.61c.11.02.24-.02.35,0-.28,2.43.21,2.05,1.39,3.48-.34.8-1.24,4.73-1.74,6.26-.1-.17-.88-.72-1.04-1.04-.18-2.67-.14-6.42.35-9.05.32.03.36.3.7.35Z"/>
        <g>
          <path class="cls-48" d="m49.42,20.59c1.31.19,2.81.21,4.18.35,1.25.13,2.57-.1,3.83,0,6.89.52,13.27.81,20.19.7,7.04-.11,13.88-.76,20.88-1.39,1.05-.09,2.16.28,3.13-.35.15,3.23-.05,6.97.35,10.09.05.36-.07.85,0,1.04,0,.24.09.6-.17.7-3.2,1.12-59.14-.86-67.87,0l-.52-1.04c1.53-5.27-2.19-11.77,3.83-10.79.26.04-.07,1.28,4.7,1.74,1.72.16,7.7.41,7.48-1.04Z"/>
          <g>
            <path class="cls-11" d="m72.39.06c-.13,3.03-.86,5.61-1.39,8.7-.95.07-2.56.1-3.48,0q-.17-4.35-.35-8.7c.91-.07,4.64-.09,5.22,0Z"/>
            <path class="cls-58" d="m74.13,6.67c-.06.5.19,1.83-.17,2.09-.98.05-1.98-.07-2.96,0,.53-3.1,1.26-5.67,1.39-8.7.65.1,1.25-.26,1.74.52-.16,1.93.22,4.23,0,6.09Z"/>
            <path class="cls-58" d="m67.17.06q.17,4.35.35,8.7c-.83-.09-1-.14-1.74-.35q-.17-4.18-.35-8.35c.42-.1,1.14.05,1.74,0Z"/>
            <path class="cls-10" d="m65.43.06q.17,4.18.35,8.35c-.38-.11-1.07.07-1.57,0-.36-.26-.1-1-.17-1.39-.28-1.5.2-4.56,0-6.44.48-.74.95-.42,1.39-.52Z"/>
          </g>
          <g>
            <path class="cls-9" d="m101.28,11.2h-2.78c-14.86,1.25-29.66,1.05-44.55.7-1.97-.05-3.95.05-5.92,0-3.49-.09-6.95-.38-10.44-.35.11-.68.08-1.22,0-1.91,8.69-1.3,17.62-2.02,26.45-2.61.07.39-.19,1.13.17,1.39.49.07,1.18-.11,1.57,0,.74.21.91.26,1.74.35.92.1,2.53.07,3.48,0,.98-.07,1.98.05,2.96,0,.36-.25.12-1.59.17-2.09q13.49,1.22,26.97,2.44c1.16.93.15,1.89.17,2.09Z"/>
            <path class="cls-22" d="m48.03,11.89c-4.19.33-2.88.75-4.18,6.44l.87,1.57c1.6-.09,3.15.47,4.7.7.22,1.46-5.76,1.21-7.48,1.04-4.77-.46-4.44-1.7-4.7-1.74-.03-2.85-.11-5.51.35-8.35,3.49-.03,6.95.26,10.44.35Z"/>
            <path class="cls-2" d="m101.28,11.2c.39,3.04.21,5.7.35,8.7-.98.63-2.09.25-3.13.35v-9.05h2.78Z"/>
            <path class="cls-25" d="m98.49,11.2v9.05c-7,.63-13.85,1.28-20.88,1.39,5.44-5.09-3.25-6.16-6.44-8.7-16.67.41-11.64-3.76-13.75,8-1.26-.1-2.58.13-3.83,0q.17-4.52.35-9.05c14.89.35,29.69.55,44.55-.7Z"/>
            <path class="cls-25" d="m77.61,21.64c-6.91.11-13.3-.18-20.19-.7,2.1-11.76-2.92-7.59,13.75-8,3.19,2.55,11.87,3.61,6.44,8.7Z"/>
            <path class="cls-32" d="m53.95,11.89q-.17,4.52-.35,9.05c-1.37-.14-2.87-.16-4.18-.35-1.55-.23-3.1-.79-4.7-.7l-.87-1.57c1.3-5.69,0-6.11,4.18-6.44,1.97.05,3.95-.05,5.92,0Z"/>
          </g>
        </g>
        <g>
          <path class="cls-1" d="m130.16,66.19c-1.5.18-3.06.69-4.52,1.04l.35-1.39c1.13.11,3.1-.5,4.18.35Z"/>
          <g>
            <path class="cls-19" d="m113.46,99.95c-5.87-5.56-8.73-11.95-6.26-20.01,2.46-8.06,11.14-10.95,18.45-12.7,1.47-.35,3.03-.87,4.52-1.04.34-.04,1.17-.96,2.09.17-1.22,6.38,3.77,5.49,6.61,10.09,2.82,24.75-5.12,14.53-7.13,24.54-6.12-.16-12.3.58-18.27-1.04Z"/>
            <path class="cls-27" d="m119.03,78.37c-10.36,9.99,5.08,20.05,9.74,10.44,1.35.34,1.33,1.93,1.74,3.13-8.28,11.04-24.83-2.13-15.31-12.18,1.66-.02,2.21-.99,3.83-1.39Z"/>
            <path class="cls-31" d="m130.51,91.94c-.41-1.2-.39-2.79-1.74-3.13,2.37-4.88.57-13.01-9.74-10.44-1.62.4-2.17,1.37-3.83,1.39,9.45-9.98,23.15,1.73,15.31,12.18Z"/>
          </g>
        </g>
        <path class="cls-12" d="m30.98,139.27c.99.65,2.05,1.84,3.13,2.09,0,1.9,1.73,4.91-1.74,4.18-1.48-3.82-5.61-6.78-3.13-7.31.57.36,1.17.67,1.74,1.04Z"/>
        <path class="cls-24" d="m31.32,131.97c-.4,2.5-.42,4.8-.35,7.31-.57-.37-1.17-.68-1.74-1.04-1.29-.82-2.87-.78-2.78-1.57,1.59-1.84,3.27-3.64,4.52-5.74.47-.02.41.65.35,1.04Z"/>
        <path class="cls-53" d="m111.72,134.4c-.97,2.69-3.38,4.42-2.44,5.57-.46.35-.89.75-1.39,1.04.05-3.52-.81-7.23-.35-10.79.04-.03.17-.65.7-.7.98,1.75,2.39,3.17,3.48,4.87Z"/>
        <path class="cls-31" d="m112.76,137.53c-1.13.43-2.45,1.64-3.48,2.44-.94-1.15,1.47-2.88,2.44-5.57.07.11,1.2,1.27,1.74,1.91.13.55-.63.73-.7,1.22Z"/>
        <path class="cls-56" d="m110.33,116.3c-.91,1.62-1.68,2.63-1.74,2.78-1.18-1.43-1.67-1.05-1.39-3.48,1.05.23,2.1.38,3.13.7Z"/>
        <path class="cls-13" d="m107.54,127.79c.22.53.43,1.27.7,1.74-.53.05-.66.66-.7.7-.25.24-.72.52-1.04.7,0-1.81-.2-3.51.35-3.48.03.03-.1.48.7.35Z"/>
        <path class="cls-36" d="m106.85,125.35c.63,1.03.62,2.25.7,2.44-.8.13-.67-.32-.7-.35-1.69-1.91-.94-1.62-1.04-3.13.17.32.94.88,1.04,1.04Z"/>
        <path class="cls-52" d="m103.37,191.48c-.63.48-1.4,1.02-2.09,1.39-1.72.95-3.52,1.79-5.22,2.78-.17-5.58.6-11.17.35-16.71,7.27,5.48-6.81,2.92,6.96,12.53Z"/>
        <g>
          <path class="cls-27" d="m37.59,159.46c-4.09,4.11-9.77,7.92-15.66,8.35-.82.06-1.7.13-2.44-.35.35-.28.83-.46.7-1.04,10.37-.22,16.26-10.37,12.18-20.88,3.47.73,1.75-2.27,1.74-4.18,0-1.66.16-7.54,0-8,5.04-.81-1.39-1.41,1.74-8.35.19-.42.65-.47,1.04-.7-.13,9.09-.07,18.23,0,27.32,0,.4.64,1.41.7,7.83Z"/>
          <path class="cls-1" d="m37.24,187.65l-8,4.52c-1.76.2-13.62-8.21-15.31-10.62-4.67-6.62-1.24-8.38.7-10.27-3.45,21.8,24.24,6.26,7.31-3.48,5.89-.44,11.57-4.25,15.66-8.35.07,7.58.48,21.41-.35,28.19Z"/>
          <path class="cls-52" d="m21.93,167.81c16.93,9.74-10.76,25.28-7.31,3.48,2.13-2.07,3.22-2.47,4.87-3.83.74.48,1.62.41,2.44.35Z"/>
          <g>
            <path class="cls-40" d="m20.19,166.42c.13.58-.35.76-.7,1.04-1.65,1.36-2.74,1.76-4.87,3.83-1.94,1.89-5.36,3.65-.7,10.27,1.69,2.4,13.55,10.81,15.31,10.62.51,1.62.74,1.22,0,2.78-.15.11-2.48,2.14-2.78,2.44-6.57-5.27-12.76-6.79-18.45-13.57,1.31.58-.9-1.9-1.74-5.05-1.49-5.6-2.14-17.47-.7-22.8,2.11,5.97,8.19,10.58,14.62,10.44Z"/>
            <path class="cls-29" d="m5.57,155.98c-1.45,5.33-.8,17.2.7,22.8.84,3.15,3.05,5.63,1.74,5.05-1.75-2.09-3.46-3.36-4.18-7.13-.78-4.13-.02-19.11.7-23.84.54.92.68,2.09,1.04,3.13Z"/>
            <path class="cls-29" d="m35.5,191.83l-.7-.35c-1.67,1.4-3.84,2.22-5.57,3.48.74-1.57.51-1.16,0-2.78l8-4.52c-.27,2.19.84,2.65-1.74,4.18Z"/>
          </g>
        </g>
        <path class="cls-32" d="m99.19,53.31c.65.84.19,1.9.35,2.26.89,2.01,6.1,2.26-7.83,2.61-.42-.3.18-3.17.17-3.83,2.44.14,4.93-.6,7.31-1.04Z"/>
        <path class="cls-52" d="m34.11,133.36c.16.46,0,6.35,0,8-1.08-.25-2.14-1.44-3.13-2.09-.08-2.51-.05-4.81.35-7.31.91.15,2.49.55,2.78,1.39Z"/>
        <path class="cls-1" d="m106.15,139.97c-2.26,1.48-2.29,5.01-.7,6.96-1.21,2.18-2.66,3.63-2.78,3.83v-12.53c1.34-.61,2.49.78,3.48,1.74Z"/>
        <path class="cls-35" d="m106.5,139.97c0,.26,1.07-.49.7,4.87-.48.7-1.35,1.39-1.74,2.09-1.59-1.95-1.56-5.48.7-6.96h.35Z"/>
        <path class="cls-7" d="m107.89,141.01c-.02,1.38.09,2.8,0,4.18l-.7-.35c.37-5.36-.69-4.61-.7-4.87-.06-2.98,0-6.06,0-9.05.32-.17.79-.46,1.04-.7-.46,3.56.4,7.27.35,10.79Z"/>
        <g>
          <path class="cls-45" d="m8.7,66.53c8.04.57,10.28-.2,17.05,4.87l-6.79-3.13c-2.74,1.63-7.12-.19-11.14.35-.41.29.16.99-.52,1.74-.18-5,.13-3.41,1.39-3.83Z"/>
          <g>
            <path class="cls-19" d="m25.75,71.41c10.65,7.97,9.17,20.62-.35,28.89-5.94.27-11.9,1.21-17.92.7-.32-5.4-3.57-5.16-7.48-8.53v-16.01c2.15-2.37,5.16-3.73,7.31-6.09.69-.75.11-1.45.52-1.74,4.02-.53,8.4,1.28,11.14-.35l6.79,3.13Z"/>
            <path class="cls-19" d="m26.1,80.46c-1.25-2.28-3.52-4.25-5.22-2.09-2.27-1.12-5.88-.88-8,.35-1.34-2.11-1.96.25-2.09.35-6.1,4.42-4.45,10.91.35,15.66-.09-.03.27.47-1.91,0-9.34-6.88-4.61-16.06,1.39-23.67,3.1-1.03,18.64,4.05,15.49,9.4Z"/>
            <path class="cls-27" d="m11.49,80.11c-6.58,8,5.25,17.22,11.14,10.09,1.07,2.75,2.1,1.54,1.04,3.48-4.97,4.2-8.79,2.2-12.53,1.04-4.79-4.75-6.45-11.24-.35-15.66l.7,1.04Z"/>
            <path class="cls-20" d="m26.1,80.46c2.52,4.61,1.59,9.83-2.44,13.23,1.06-1.94.02-.73-1.04-3.48,2.58-3.12,2.13-9.91-1.74-11.83,1.7-2.16,3.97-.19,5.22,2.09Z"/>
            <path class="cls-37" d="m12.88,78.72c-.09.05-1.28,1.25-1.39,1.39l-.7-1.04c.13-.1.75-2.46,2.09-.35Z"/>
          </g>
        </g>
        <g>
          <path class="cls-40" d="m107.89,153.54c1.82,14.81,20.24,14.25,26.45,4.87.68,7.56.67,15.18-.7,22.62-5.98,8.58-20.14,14.75-20.53,16.01-.91-.16-1.83-2.11-3.48-3.13,4.26-3.78,13.96-8.99,17.05-13.05,3.92-5.15,3.18-5.81-2.09-4.7-.03-7.24-9.26-8.91-12.18-3.48-1.54-.05-1.25,2.21-1.57,2.44-.95.7-7.68-3.47-8.18-7.48-.18-1.43,4-16.69,4.87-19.66.78,1.25.13,3.82.35,5.57Z"/>
          <path class="cls-27" d="m133.65,181.04c1.36-7.44,1.38-15.06.7-22.62.13-.19,1.28-3.3,1.39-3.83,1.17,3.72.96,21.09,0,23.84-.47,1.02-1.63,1.95-2.09,2.61Z"/>
          <path class="cls-1" d="m107.89,145.19c-.06.97.05,1.84-.35,2.78-.87,2.98-5.05,18.23-4.87,19.66.5,4.01,7.23,8.18,8.18,7.48.31-.23.02-2.49,1.57-2.44-6.43,11.92,12.23,15.56,12.18,3.48,5.26-1.12,6.01-.45,2.09,4.7-3.09,4.06-12.79,9.27-17.05,13.05-.29-.18-5.37-2.4-6.26-2.44-13.77-9.61.31-7.05-6.96-12.53-.29-6.46-2.7-9.01-1.74-17.05,2.52,0,6.27-8.24,8-11.14.12-.2,1.58-1.65,2.78-3.83.39-.7,1.26-1.38,1.74-2.09l.7.35Z"/>
          <g>
            <path class="cls-36" d="m124.6,176.17c.05,12.08-18.61,8.44-12.18-3.48,2.92-5.43,12.15-3.76,12.18,3.48Z"/>
            <path class="cls-22" d="m117.46,171.29c6.05-.31,6.37,8.37,2.09,9.4-6.99,1.68-8.4-9.07-2.09-9.4Z"/>
          </g>
        </g>
        <g>
          <path class="cls-48" d="m5.57,130.22c-.49-1.44-1.94-3.62-2.09-5.74-.35-5.11,2.74-10.54,6.96-13.4,2.15-.24-.95,2.01-1.74,3.31-5.26,8.59-1.87,12.33-1.74,13.57.01.11-.69.56-.7.7,0,.17,1.6,2.43-.7,1.57Z"/>
          <g>
            <path class="cls-48" d="m26.8,111.08c.97.47,2.18,1.88,3.13,2.44,1.13,1.39,1.59,2.46,2.09,4.18,1.28,4.44.5,7.45,1.39,8-.81,2.42-1.15,3.06-2.44,5.22-1.26,2.1-2.93,3.9-4.52,5.74-.09.78,1.49.74,2.78,1.57-2.48.52,1.65,3.49,3.13,7.31,4.08,10.51-1.82,20.66-12.18,20.88-6.43.14-12.51-4.47-14.62-10.44-.37-1.04-.5-2.21-1.04-3.13.2-1.3.36-2.55.7-3.83,1.08-4.13,3.91-6.71,2.78-13.4-.27-1.6-1.8-3.52-2.44-5.39,2.29.86.69-1.4.7-1.57,0-.13.71-.58.7-.7-.13-1.24-3.52-4.98,1.74-13.57.79-1.29,3.89-3.55,1.74-3.31,6.23-4.22,10.05-3.06,16.36,0Z"/>
            <path class="cls-50" d="m33.76,115.26l-1.74,2.44c-.49-1.72-.95-2.78-2.09-4.18.18.11,1.27.14,3.83,1.74Z"/>
            <g>
              <path class="cls-22" d="m17.92,140.32c14.34-1.14,16.99,21.53,3.83,23.67-16.2,2.63-18.61-22.5-3.83-23.67Z"/>
              <path class="cls-55" d="m22.62,155.98c-.26-.59-1.42.99-1.74-1.39,4.66-5.82-7.75-8.06-4.52-.7-1.36,1.22-.74,2.03.35,3.13-5.92-2.31-3.18-9.66.52-10.44,5.44-1.14,9.85,5.27,5.39,9.4Z"/>
              <path class="cls-54" d="m20.88,154.59c.32,2.39,1.48.8,1.74,1.39-2.17,2.01-3.25,2.09-5.92,1.04-1.09-1.1-1.71-1.91-.35-3.13.85,1.95,3.38,2.12,4.52.7Z"/>
              <path class="cls-26" d="m20.88,154.59c-1.14,1.43-3.67,1.25-4.52-.7-3.23-7.37,9.18-5.13,4.52.7Z"/>
            </g>
            <g>
              <path class="cls-22" d="m16.18,111.08c5.41-.82,12.38,4.26,13.05,9.92,1.88,15.93-22.05,20.21-22.27.35,1.13-2.42,1.46-5.22,3.65-7.13.39-.34,5.25-3.08,5.57-3.13Z"/>
              <path class="cls-55" d="m23.67,122.22l-.52.7c-.15-2.4-.77-2.21-1.91-.35-.1-2.97-5.16-5.52-5.92,1.74-.12,1.16-.32,1.95,0,3.13-4.72-2.47-2.58-11.33,4.7-9.74,1.62.35,3.51,2.83,3.65,4.52Z"/>
              <path class="cls-54" d="m23.67,122.22c.4,4.57-4.38,7.3-8.35,5.22-.32-1.18-.12-1.97,0-3.13,2,2.89,6.04,1.93,5.92-1.74,1.14-1.86,1.76-2.05,1.91.35l.52-.7Z"/>
              <path class="cls-3" d="m21.23,122.57c.12,3.67-3.92,4.63-5.92,1.74.75-7.26,5.82-4.71,5.92-1.74Z"/>
            </g>
          </g>
        </g>
        <g>
          <path class="cls-12" d="m112.76,137.53c-.6,4.2-5.65,9.28-4.87,16.01-.21-1.75.43-4.32-.35-5.57.4-.94.29-1.81.35-2.78.09-1.38-.02-2.79,0-4.18.5-.29.94-.69,1.39-1.04,1.03-.8,2.35-2.01,3.48-2.44Z"/>
          <g>
            <path class="cls-48" d="m135.73,154.24c-.02.11.02.24,0,.35-.11.52-1.26,3.63-1.39,3.83-6.21,9.38-24.63,9.93-26.45-4.87-.78-6.73,4.28-11.81,4.87-16.01.07-.49.82-.67.7-1.22-.54-.64-1.67-1.81-1.74-1.91-1.09-1.7-2.51-3.12-3.48-4.87-.26-.47-.48-1.21-.7-1.74-.08-.18-.07-1.41-.7-2.44.5-1.54,1.4-5.47,1.74-6.26.06-.15.83-1.17,1.74-2.78.41-.72.92-.89.7-2.09,1.04-.02,1.84-2.02,2.78-2.78,9.74-7.87,24.55,1.61,23.32,13.4-.39,3.7-3.45,7.28-4.18,10.79-1.87,9.04,4.13,10.13,2.78,18.62Z"/>
            <g>
              <path class="cls-22" d="m119.9,111.43c9.25-1.43,18.41,9.88,11.66,18.97-6.72,9.03-22.35,4.76-20.19-9.74.51-3.43,5.27-8.72,8.53-9.22Z"/>
              <g>
                <path class="cls-55" d="m121.64,117.7c8.29-1.44,8.83,10.16,2.44,11.14-7.69,1.18-8.54-10.07-2.44-11.14Z"/>
                <path class="cls-3" d="m119.72,125c2.76-2.05,1.01-3.41,5.92-3.83,3.14,4.83-4.27,8.5-5.92,3.83Z"/>
                <path class="cls-16" d="m125.64,121.18c-4.91.42-3.16,1.77-5.92,3.83-1.63-4.6,3.91-6.91,5.92-3.83Z"/>
              </g>
            </g>
            <g>
              <path class="cls-22" d="m118.51,140.67c15.62-2.62,19.23,19.56,5.57,22.62-15.6,3.5-18.59-20.44-5.57-22.62Z"/>
              <g>
                <path class="cls-55" d="m120.59,146.58c9.7-1.2,7.25,14.59-1.74,10.09-4.31-2.16-2.98-9.51,1.74-10.09Z"/>
                <path class="cls-26" d="m120.59,148.67c5.34-1.16,5.31,8.07,0,6.96-3.09-.64-3.01-6.3,0-6.96Z"/>
              </g>
            </g>
          </g>
        </g>
        <g>
          <path class="cls-43" d="m69.26,180.34c-.39,1.56-.35,3.61-.7,5.22-4.06,2.52-8.75,3.15-13.05,5.22,1.71-4.15.55-8.57,1.22-13.05,5.71.29,12.96-.87,12.53,2.61Z"/>
          <path class="cls-14" d="m42.81,127.79c-.02-2.36-.27-5.02.35-7.31.12.47.91.41,1.04.87.49,1.7.96,6.02-1.39,6.44Z"/>
          <g>
            <path class="cls-22" d="m92.23,42.87c-.61,3.78-.36,7.68-.35,11.49,0,.66-.59,3.53-.17,3.83,13.94-.35,8.73-.6,7.83-2.61-.16-.37.3-1.42-.35-2.26.38-.07.54-.51,1.04-.35.18.55,2.96-.13,2.09,10.62-.65.91-10.84-1.21-1.04,2.09.49.93-.34,5.22-.35,6.44-6.07-2.45-5.98,1.86-3.83,7.48-1.12,3.32.2,17.88,0,18.79-.08.39-2.17,1.68-2.09,2.44.05.5,2.37,1.68,2.44,2.09.09.61-1.7,1.97-1.39,2.78.27.7,1.45.34,1.74,1.04.59,1.43-.45,26.73,0,30.98-3.54,1.2,1.15,11.56-.35,16.71-.28.98-3.76,1.38-2.78,7.48-.96,8.04,1.45,10.6,1.74,17.05.25,5.54-.51,11.13-.35,16.71,0,.32-.51.47-.35,1.04-4.04-3.43-9.6-5.27-14.27-7.66-.27-3.73-.38-7.4-.52-11.14l-11.14.35c-.88.53-.35,1.4-.52,2.09.43-3.48-6.82-2.32-12.53-2.61-.67,4.48.49,8.9-1.22,13.05,4.3-2.07,8.99-2.7,13.05-5.22-.34,1.57-1.09,3.96-2.09,5.22.1-.9-.17-1.68.35-2.61-9.47,1.28-18.52,5.98-25.75,12.36v-.35c4.91-4.66-1.71-1.86-7.66-2.44-.28-.03-1.99-.87-2.09-1.39,1.26-1.56,3.44-3.12,3.48-4.87l.7.35,8.35,3.65q-.17-8.35-.35-16.71c-6.11-7.78-3.27-8.13-.35-17.4-1.28-5.09,1.92-10.26,1.74-10.79-.33-.96-1.91.12-2.44-1.39-.69-1.97.67-6.26.7-8.35.06-4.37-.3-8.68-.35-13.05,2.35-.42,1.88-4.74,1.39-6.44-.13-.46-.92-.4-1.04-.87-.1-.41-.88-.31-.7-3.83,2.72-.63.76-3.11.7-3.48-1.01-5.94-.08-5.09,0-9.74.03-1.51-.02-3.02,0-4.52-.6-5.83-2.81-14.19.7-19.66-1.38-2.89-3.07-4.53-1.04-7.48,3.91-3.32-5.48-3.02-2.09-10.44.36-.78,4.04-3.25,4.18-3.65.6-1.81-.35-6.8-.35-8.87,0-1.75.72-3.75.35-5.57.34,0,2.51-1.38,3.31-1.39,6.5-.13,41.31-.31,43.5,0,.54.08.46,1.03.52,1.04Z"/>
            <g>
              <path class="cls-30" d="m83.88,71.41c-.1,2.37-.96,3.05.7,5.22-.44.13-.95.23-1.39.35-.96.26-2.64,1.01-2.78,1.04-1.47.32-4.51.49-6.26.7-4.01.46-7.85.44-11.83.7-2.49.16-4.98.45-7.48.35v5.22c8.61-.48,17.09-.38,25.58-2.09,1.12-.22,2.4-.38,3.48-.7.11,4.54-4.34,5.94,5.92,3.31-.61,3-.95,3.61-3.13,5.39-.81-5.65-1.55-3.35-4.18-2.78-1.26.27-2.63.84-3.83,1.04-6.52,1.12-13.27.81-19.84,1.39-4.68.41-6.53-1.32-5.39,4.87,1.68.04,3.37-.05,5.05,0,6.7.21,13.59-.03,20.19-1.39.98-.2,1.82-.41,2.78-.7.93-.28,2.65-.64,2.78-.7-1.33,2.73-2.03,5.15,1.74,4.52-.58.29-1.17.45-1.74.7-2.58,1.12-2.84,1.38-5.92,2.09-7.36,1.69-12.78,1.12-19.84,1.74-4.3.38-4.88-.97-7.66,4,.11,1.18,5.72,1.19,6.96,1.22,5.95.14,14.67-.56,20.53-1.74,2.25-.45,4.43-1.01,6.61-1.74.09,2.01-.84,2.95.35,4.87-1.12.56-.99.67-1.04.7-9.84,4.38-20.11,3.23-30.63,4l.17,4.7c10.26.22,20.51.06,30.45-2.78-.58.87-1.21,4.23,0,4.87-.2.1-1.25.99-1.39,1.04-.53.21-1.23.54-1.74.7-.9.28-2.18.49-3.13.7-7.44,1.57-12.81.94-19.14,1.39-3.35.24-4.02-.69-6.96,2.09-.09-.52-.89-1.38-1.22-1.39-1.1-.06-8.72,5.54.52-8.53-9.27-1.52-1.13-7.02-1.04-9.05.04-1.12-1.51-1.94-2.09-3.48,1.72-7.65-2.19-16.97,4.18-22.97-9.03,0-4.9-3.03-2.09-7.48,2.92,1.78,6.53.72,9.74.7,7.14-.06,11.57.26,19.14-1.04.93-.16,1.87-.49,2.78-.7.32-.07,1-.05,2.09-.35Z"/>
              <path class="cls-30" d="m84.57,131.27c-.73.31-1.61,1.12-2.44,1.39-.74.24-1.43.27-1.74.35-10.58,2.79-22.53,1.41-23.49,2.09-.19.14-.65,4.5-.52,4.7.68,1.02,18.98-.03,24.36-1.22.78-.17,1.66-.46,2.44-.7-1.88,7.36,1.53,4.1,7.66,1.91v6.96c-2.02,1.17-4.36,1.36-4.87,1.57.26-8.95-1.08-5.23-3.83-4.52-.62.16-1.45.21-2.09.35-.33.07-.65.21-1.39.35-.71.13-1.37.24-2.09.35-5.54.86-9.66.72-14.97,1.04-3.13.19-7.35-.78-9.74,1.74-1.14-1.7-6.52,3.1-4.18-3.65.38-1.09,2.35-3.93,3.13-5.05-.2.97,3.24,1.26,3.83.52.76-.96,1.74-5.99-1.39-4-2.1-1.28-4.62,1.45-5.22-.52-.22-.73,1.52-5.77,2.09-6.79,2.64.56,5.33.33,8,.35.46,0,.93,0,1.39,0,6.67,0,13.25-.11,19.84-1.39.49-.09.91-.24,1.39-.35.92-.21,1.55-.42,2.44-.7.18,1.9-1.61,4.72,1.39,5.22Z"/>
              <path class="cls-43" d="m81.09,57.49c-.34.05-.71-.04-1.04,0-9.02,1.2-14.95,1.33-24.01.35-2.1-.23-1.65-.34-1.74-.35l2.26-12.53h22.27c1.46,1.06-3.59,11.42,2.26,12.53Z"/>
              <path class="cls-30" d="m83.18,149.37c-.42.61-.22,4.88.7,5.22-.39.11-.72.26-1.04.35-2.56.67-5.03,1.06-7.66,1.39-9.28,1.16-18.85.55-19.84.7-.93.14-2.06.8-2.78,1.39,0-.23.1-.6-.17-.7-1.54-.57-7.54,4.95-1.91-6.96,2.73,1.22,5.55.38,8.35.35,7.96-.08,13.88-.05,21.93-1.39.82-.14,1.53-.54,2.44-.35Z"/>
              <path class="cls-30" d="m84.57,160.16c-.83,2.2-1.42,4.37,1.74,4.52-.03.16-.65.68-.7.7-1.25.46-4.67,1.5-5.92,1.74-1.71.33-5.29.52-7.31.7-2.84.25-5.52.25-8.35.35-1.16.04-2.32-.02-3.48,0-1.28.02-2.55-.02-3.83,0-1.24.02-1.53-.22-3.13,0-.35.05-.18-.52-1.04,0-1.41-3.45-4.39-.02-2.09-6.26,1.82.51,3.69.63,5.57.7,5.41.19,12.35-.13,17.75-.7,3.05-.32,6.06-.66,9.05-1.39.57-.14,1.41-.25,1.74-.35Z"/>
              <path class="cls-39" d="m80.05,57.49l.35,5.92c-1.14.24-2.33.53-3.48.7-5.02.72-12.59,1.02-17.75,1.04-1.04,0-2.09.03-3.13,0v-7.31c9.06.98,14.99.85,24.01-.35Z"/>
              <path class="cls-30" d="m76.92,64.1c-.04,5.35-2.91,2.04-5.22,4.18-4.07.37-8.1.36-12.18.35-2.32,0-4.64-.07-6.96,0l.17-.7c3.36.09,7.89,2.08,6.44-2.78,5.16-.02,12.73-.33,17.75-1.04Z"/>
              <path class="cls-30" d="m80.4,63.4l-.35-5.92c.34-.04.71.05,1.04,0,2.73-.4,5.52-1.33,8.18-2.09,2.15,5.87-.84,6.33-8.87,8Z"/>
              <path class="cls-30" d="m54.29,57.49c.09.01-.36.12,1.74.35v7.31c-1.83-.04-6.99.36-7.31-.52v-8c1.86.37,3.68.65,5.57.87Z"/>
              <g>
                <path class="cls-46" d="m76.57,67.58c2.15,1.29.17,2.75,1.57,4.52,1.18-6.91,2.61-4.69.87.35-7.57,1.31-12,.99-19.14,1.04.65-1.67.57-3.49-.35-4.87,4.08.01,8.11.02,12.18-.35,1.64-.15,3.25-.44,4.87-.7Z"/>
                <path class="cls-14" d="m83.88,71.41c-1.09.3-1.77.28-2.09.35q-.35-2.44-.7-4.87c3.19-.74,6.29-2.3,9.4-3.31-.17,1.39.24,4.59,0,5.22-.31.81-5.55,2.31-6.61,2.61Z"/>
                <path class="cls-40" d="m59.51,68.62c.92,1.39,1,3.21.35,4.87-3.22.03-6.83,1.08-9.74-.7.85-1.34,1.45-2.91,2.44-4.18,2.32-.07,4.64,0,6.96,0Z"/>
                <path class="cls-29" d="m81.09,66.88q.35,2.44.7,4.87c-.92.21-1.85.54-2.78.7,1.74-5.04.31-7.26-.87-.35-1.4-1.78.58-3.23-1.57-4.52,1.48-.24,3.06-.36,4.52-.7Z"/>
              </g>
              <path class="cls-9" d="m94.49,122.57c1.71-.89,3.32,2.31.35,1.74-1.1-.21-.6-1.61-.35-1.74Z"/>
              <path class="cls-56" d="m42.46,116.65c.08-1.41.56-2.19.7-3.48.06.37,2.03,2.85-.7,3.48Z"/>
              <g>
                <path class="cls-27" d="m84.92,103.08c0,.12,0,.23,0,.35-2.18.73-4.36,1.29-6.61,1.74,1-1.33.15-3.49,0-5.22,3.07-.7,3.33-.97,5.92-2.09.31,1.65.63,3.55.7,5.22Z"/>
                <path class="cls-14" d="m84.92,103.08c-.07-1.67-.39-3.57-.7-5.22.57-.25,1.16-.41,1.74-.7,1.33-.66,2.92-1.75,4-2.78,1.14.24-.65,8.47-5.05,8.7Z"/>
                <path class="cls-46" d="m78.31,105.17c-5.87,1.18-14.58,1.88-20.53,1.74,1.13-1.8,1.04-3.24.7-5.22,7.06-.62,12.48-.05,19.84-1.74.15,1.73,1,3.89,0,5.22Z"/>
                <path class="cls-40" d="m58.47,101.69c.35,1.98.44,3.42-.7,5.22-1.24-.03-6.85-.04-6.96-1.22,2.78-4.97,3.36-3.62,7.66-4Z"/>
              </g>
              <g>
                <path class="cls-21" d="m86.66,90.9c-.71.58-1.61,1.37-2.44,1.74-.13.06-1.86.42-2.78.7.06-.26-.37-.5-.35-.52.48-.45,1.95.67,1.39-4.7,2.63-.57,3.37-2.87,4.18,2.78Z"/>
                <path class="cls-46" d="m78.66,89.16c.29,1.6.93,3.66,0,4.87-6.6,1.36-13.48,1.6-20.19,1.39,1.2-1.46.05-3.13.35-4.87,6.57-.58,13.31-.27,19.84-1.39Z"/>
                <path class="cls-29" d="m58.82,90.55c-.3,1.74.85,3.41-.35,4.87-1.68-.05-3.37.04-5.05,0-1.14-6.19.71-4.46,5.39-4.87Z"/>
                <path class="cls-27" d="m82.48,88.11c.56,5.37-.91,4.25-1.39,4.7-.02.02.41.27.35.52-.96.29-1.81.49-2.78.7.93-1.22.29-3.27,0-4.87,1.19-.21,2.57-.77,3.83-1.04Z"/>
              </g>
              <g>
                <path class="cls-14" d="m88.05,80.8c-.72.37-3.14,1.09-4.18,1.39,0-.28-1.31-3.71-.7-5.22.44-.12.95-.21,1.39-.35.95-.29,2.19-1.11,3.13-1.39q.17,2.78.35,5.57Z"/>
                <path class="cls-23" d="m88.05,80.8q-.17-2.78-.35-5.57c.36-.11,1.92-.85,2.09-.52-.17,1.38.24,4.63,0,5.22-.2.5-1,.49-1.74.87Z"/>
                <path class="cls-1" d="m80.4,78.02v4.87c-8.49,1.7-16.97,1.61-25.58,2.09v-5.22c2.5.1,4.99-.19,7.48-.35l-.17,4.52c9.68-1.18,12.73,2.21,12.01-5.22,1.75-.2,4.79-.38,6.26-.7Z"/>
                <path class="cls-4" d="m74.13,78.72c.73,7.43-2.32,4.04-12.01,5.22l.17-4.52c3.98-.26,7.83-.24,11.83-.7Z"/>
                <path class="cls-29" d="m83.88,82.2c-1.08.31-2.36.47-3.48.7v-4.87c.15-.03,1.82-.78,2.78-1.04-.62,1.51.69,4.94.7,5.22Z"/>
              </g>
              <g>
                <path class="cls-21" d="m87.7,136.14c-.88.49-3.44,1.42-4.52,1.74-1.06-1.79-2.26-3.19-1.04-5.22.83-.27,1.71-1.09,2.44-1.39.89-.37,1.52-.59,2.44-1.04l.7,5.92Z"/>
                <path class="cls-14" d="m87.7,136.14l-.7-5.92c.96-.47,1.93-.84,2.61-1.74l.52.52c1.06,3,.17,5.68-2.44,7.13Z"/>
                <path class="cls-14" d="m50.81,138.93c.61-.87,1.45-2.86,2.44-3.48,3.13-1.98,2.16,3.04,1.39,4-.59.74-4.03.45-3.83-.52Z"/>
                <path class="cls-1" d="m80.74,138.58c-5.38,1.19-23.69,2.24-24.36,1.22-.13-.2.33-4.56.52-4.7.97-.68,12.91.7,23.49-2.09-.93,1.3.29,3.57.35,5.57Z"/>
                <path class="cls-29" d="m82.14,132.66c-1.21,2.03-.02,3.43,1.04,5.22-.78.23-1.65.52-2.44.7-.05-2-1.28-4.26-.35-5.57.32-.08,1-.1,1.74-.35Z"/>
              </g>
              <g>
                <path class="cls-40" d="m58.82,123.61v1.04c-.23,2.24,1.09,2.44-.7,3.83-2.67-.02-5.36.21-8-.35.34-.62,1.28-2,1.74-2.44,2.94-2.78,3.61-1.85,6.96-2.09Z"/>
                <path class="cls-21" d="m87.01,118.74c1.25,1.08-.24,3.68.35,5.57-2.19,1.44-2.72,1.24-3.13,1.39-.45-1.25.05-2.15-1.39-2.26-.37-.84,1.71-1.04,0-2.61.14-.06,1.19-.95,1.39-1.04.13-.06,1.79-.46,2.78-1.04Z"/>
                <path class="cls-14" d="m87.36,124.31c-.59-1.89.9-4.49-.35-5.57,3.95-2.3,2.57-4.73,2.78,4-1.21,1.55-2.32,1.49-2.44,1.57Z"/>
                <path class="cls-56" d="m82.83,120.83c1.71,1.57-.37,1.77,0,2.61,1.44.11.94,1.02,1.39,2.26-.4.15-.65.22-1.04.35-.88.28-1.51.48-2.44.7l.35-5.22c.51-.16,1.21-.49,1.74-.7Z"/>
                <path class="cls-46" d="m77.96,122.22c-.17,1.81-.58,4.37,1.39,4.87-6.59,1.28-13.17,1.39-19.84,1.39,2.29-.97,2.26-6.19-.7-3.83v-1.04c6.33-.45,11.7.18,19.14-1.39Z"/>
                <path class="cls-1" d="m81.09,121.52l-.35,5.22c-.48.11-.91.25-1.39.35-1.97-.5-1.56-3.07-1.39-4.87.95-.2,2.23-.41,3.13-.7Z"/>
                <path class="cls-1" d="m59.51,128.48c-.46,0-.93,0-1.39,0,1.79-1.39.46-1.59.7-3.83,2.96-2.36,2.99,2.86.7,3.83Z"/>
              </g>
              <g>
                <path class="cls-40" d="m61.6,145.89c-.78,3.13.92,4.84-2.78,5.22-2.8.03-5.62.88-8.35-.35.4-.85.75-2.46,1.39-3.13,2.4-2.52,6.62-1.55,9.74-1.74Z"/>
                <path class="cls-21" d="m85.96,148.32c-.88.35-2.33.63-2.44.7.18-2.23-1.02-3.96-1.39-5.22,2.75-.7,4.09-4.42,3.83,4.52Z"/>
                <path class="cls-40" d="m82.14,143.8c.37,1.26,1.57,2.99,1.39,5.22-.26.16-.2.13-.35.35-.9-.19-1.61.21-2.44.35l-.7-5.57c.63-.14,1.46-.19,2.09-.35Z"/>
                <path class="cls-1" d="m80.74,149.71c-8.05,1.34-13.97,1.31-21.93,1.39,3.7-.38,2-2.09,2.78-5.22,5.31-.32,9.43-.18,14.97-1.04-.03.95-.46,5.79,1.57,4.52.37-.23-.47-3.56.52-4.87.74-.14,1.06-.28,1.39-.35l.7,5.57Z"/>
                <path class="cls-40" d="m78.66,144.49c-1,1.31-.15,4.64-.52,4.87-2.03,1.26-1.59-3.57-1.57-4.52.71-.11,1.38-.22,2.09-.35Z"/>
              </g>
              <g>
                <path class="cls-14" d="m87.01,107.6c1.43-.2.14,2.74,1.04,5.22-1.42.99-3,1.29-3.13,1.39-.19-1.93.05-5.1-.7-5.22.06-.03-.08-.14,1.04-.7,1.01-.5,1.66-.65,1.74-.7Z"/>
                <path class="cls-23" d="m88.05,112.82c-.91-2.48.39-5.42-1.04-5.22.78-.44,2.01-1.89,2.78-2.26v6.61c-.64.8-1.66.81-1.74.87Z"/>
                <g>
                  <path class="cls-1" d="m84.22,108.99c.74.12.51,3.29.7,5.22-.22.16-.53.45-.7.7-9.94,2.84-20.19,3.01-30.45,2.78l-.17-4.7c10.52-.78,20.79.38,30.63-4Z"/>
                  <path class="cls-56" d="m83.01,111.78c.33-.2.69.08.35.7-.48.87-.82-.41-.35-.7Z"/>
                </g>
              </g>
              <g>
                <path class="cls-1" d="m79.7,167.12v.35c-.53.95-.89,5.18.7,3.83v.7c-7.85,1.47-12.66,1.4-20.53,1.39,2.2-.62,1.62-3.65.7-5.22,1.16-.02,2.32.04,3.48,0-.25,3.76-.48,5.39,4,4.87,3.46-.4,1.24-3.49,2.26-4.35.65-.55,2.31.41,2.09-.87,2.02-.18,5.6-.37,7.31-.7Z"/>
                <path class="cls-56" d="m85.62,165.38c1.23.89.74,3.85.35,5.57-2.61.89-4.56.86-5.57,1.04v-.7c-.64-2.08.39-4.15-.7-3.83v-.35c1.24-.24,4.66-1.28,5.92-1.74Z"/>
                <path class="cls-14" d="m85.96,170.94c.39-1.72.88-4.68-.35-5.57.05-.02.66-.53.7-.7,1.55.07,4.1-1.61,4.7-1.39.71,5.88.24,5.86-5.05,7.66Z"/>
                <path class="cls-29" d="m60.56,168.16c.92,1.57,1.5,4.6-.7,5.22-3.16,0-3.64.35-3.83.35q.35-2.78.7-5.57c1.28-.02,2.55.02,3.83,0Z"/>
                <path class="cls-14" d="m56.73,168.16q-.35,2.78-.7,5.57c-.69,0-1.41.06-2.09,0-.8-1.85-1.01-3.54-.35-5.57,1.6-.22,1.89.02,3.13,0Z"/>
                <path class="cls-18" d="m53.6,168.16c-.67,2.03-.45,3.71.35,5.57-.54-.04-2.56-.1-2.78-.52-.74-1.38-.09-4.15,1.39-5.05.86-.52.7.05,1.04,0Z"/>
                <path class="cls-28" d="m72.39,167.81c.22,1.28-1.43.32-2.09.87-1.03.86,1.19,3.95-2.26,4.35-4.48.51-4.25-1.12-4-4.87,2.83-.1,5.51-.1,8.35-.35Z"/>
                <path class="cls-31" d="m80.4,171.29c-1.58,1.35-1.23-2.88-.7-3.83,1.08-.32.06,1.75.7,3.83Z"/>
              </g>
              <g>
                <path class="cls-21" d="m87.7,153.2l.35,5.57c-1.04.52-2.38,1.05-3.48,1.39-.33.1-1.17.21-1.74.35v-5.57c.32-.08.66-.24,1.04-.35,1.27-.37,2.55-.97,3.83-1.39Z"/>
                <path class="cls-14" d="m55.34,157.02l.7,5.57c-1.88-.07-3.75-.18-5.57-.7.11-.29-.08-1.72,2.09-3.48.73-.59,1.85-1.25,2.78-1.39Z"/>
                <path class="cls-14" d="m88.05,158.76l-.35-5.57c.1-.03,1.12-.81,1.91-1.04l.52.52c-.12,5.47.28,4.9-2.09,6.09Z"/>
                <path class="cls-29" d="m82.83,154.94v5.57c-2.99.73-6,1.07-9.05,1.39-4.19-1.26,1.14-.09,1.39-1.22-1.27-1.09-.81-3.09,0-4.35,2.63-.33,5.09-.72,7.66-1.39Z"/>
                <g>
                  <path class="cls-1" d="m75.18,156.33c-.81,1.26-1.27,3.26,0,4.35-.25,1.12-5.58-.04-1.39,1.22-5.4.56-12.34.89-17.75.7l-.7-5.57c.98-.15,10.56.46,19.84-.7Z"/>
                  <path class="cls-21" d="m55.86,158.07c.52-.21.76.53.35.7-.52.21-.76-.53-.35-.7Z"/>
                </g>
              </g>
            </g>
          </g>
        </g>
        <g>
          <path class="cls-22" d="m96.75,264.22c-9.51,3.74-14.77,11.56-13.92,5.39-3.51-1.48-1.48,3.47-4.52,6.79-.78.85-2.16,1.23-3.13,1.74-.38-.18-1.4-.33-1.74-.35,1.57.04,1.29-4.88.52-5.22-1.73-.12-10.77-.76-7.48,3.13.04.05.32.34.35.35l-.35,1.04c-1.45-1.05.02-3.56-1.22-4.52-.27-.21-6.67-1.46-5.74.35-.22-.65-.06-2.78-.87-3.13-1.26-.55-1.29,2.08-2.78,2.09-.78,0-10.52-7.17-13.4-8,1-1.25,2.98-5.07,3.48-5.57,11.96,10.43,31.03,10.86,44.37,2.78,3.07-1.86,4.21-2.18,3.31-4.52l3.13,7.66Z"/>
          <path class="cls-22" d="m66.47,277.1c.05.04-.14.6.17.7,2.26.07,4.53-.1,6.79,0,.34.02,1.36.16,1.74.35-.02.01.08.39-.35.35-.98.1-2.69,1-6.26.7-2.93-.25-4.67-1.55-7.31-2.44-1.45-.85-1.22-2.31-1.74-3.83-.92-1.81,5.47-.56,5.74-.35,1.24.96-.23,3.47,1.22,4.52Z"/>
          <path class="cls-48" d="m62.3,197.05c-3.01,2.75-13.79,8.12-14.97,9.74-3.4,7.89-4.15,16.57-4.52,25.06,1.62,6.37,4.39,12.63,9.05,17.4.43.44.89.55,1.04.7,11.81,11.13,20.15,9.93,33.41,1.57-.29-.28-.55-.47-.7-.87.67-.51,1.26-.28,1.39-.35,4.12-2.02,17.71-27.82,4.87-40.37-.08-.19-.15-.56-.35-1.04-.1-.26.46-1.94-2.09-4.87,10.16,8.53,10.76,17.04,11.49,18.45-.67-.3-.93,1.22-1.04,1.91-.89,5.43-.34,9,.7,14.27.38,1.92-.99,1.8,1.39,4.7,2.81,10.13-3.1,9.84,5.92,14.27l.35-.35c1.48.85.15,5.62-.17,7.66-2-.49-9.44-3.54-10.27-.7-.67-.45-.48-.22-1.04,0l-3.13-7.66c-2.42.22-5.33,3.1-8.18,4.18-1.53.58-6.04,1.75-7.66,1.74.05.83-2.84.56-5.57.7-.27.01-.08.69-.35.7-1.69.05-12.9-1.48-14.97-2.09-3.55-1.04-8.55-4.46-9.05-4.52-1.16-.14-1.2.34-1.91,1.04-.5.5-2.48,4.32-3.48,5.57h-.35l-6.79-.7c.01,3.9-1.25,10.1-4,3.65.87-3.91-.48-7.34-.35-11.31,1.21.61,2.12.87,3.48,1.04.54.07.78.97,1.04.52.61-4.38,1.32-5.19.35-9.57.5-1.25,2.04-2.45,2.09-2.96.07-.76-3.94-12.43-4.18-14.79-.07-.75-.02-1.67,0-2.44.02-.59.56-4.1.7-4.52.02-.06.84.09,1.04-.52,1.58-4.73,4.07-11.33,7.31-15.14,2.49-2.93,15.17-11.98,18.79-13.92.92-.49,3.44-.88,4.52-2.09h.35c-.43,2.04-2.58,4.46-4.18,5.92Z"/>
          <path class="cls-41" d="m116.59,234.29c-.12,0-1.94-.71-2.26-1.04l-.87.52c-1.03,5.24-2.08,10.44-3.13,15.66,3.62,1.94-4.26,3.94-3.83-1.74.09-1.18,4.96-11.22,4.18-23.14,3.02.07,1.88,2.11,5.22.35.07.79.3,1.74.35,2.44.04.59-3.47,4.88,6.09,3.83.25-2.62.56-5.62-.52-5.22,2.65-1.23.59-2.31,1.39-4.52,1.25.09,2.53-.35,3.13.52v11.83c-.41.57-8.51.62-9.74.52Z"/>
          <path class="cls-48" d="m114.5,207.49c-1.18,2.66.82,10.71,1.39,17.4-3.34,1.77-2.2-.28-5.22-.35-.9-13.69-8.27-9.8,3.48-17.75,0,.04.17-.28.35.7Z"/>
          <path class="cls-48" d="m109.63,193.92c1.65,1.02,2.57,2.97,3.48,3.13-.03.09,0,.23,0,.35-.06,1.14,3.6,6.1-.87,4.18-.36-.15-2.58-2.54-3.31-3.13-1.33-1.1-3.78-4.21-7.66-5.57.69-.38,1.46-.91,2.09-1.39.89.04,5.98,2.26,6.26,2.44Z"/>
          <g>
            <path class="cls-48" d="m28.89,209.92c1.25.84,2.48,1.74,3.83,2.44-1.35,2.94-2.31,5.92-3.13,9.05-.2.76-1.66,5.06-1.39,5.39.18.22,4.79.55,5.57.52-.02.77-.07,1.68,0,2.44h-.35c-1.08.07-4.58,1.59-5.22,2.09-9.31-1.55-10.79,2.68-10.09-5.57,1.24.39,9.11.55,9.4.17-.6-8.27-3.26-3.31-4.87-6.09.24-4.29,1.97-8.39,2.78-12.53,1.46.17,2.36,1.33,3.48,2.09Z"/>
            <path class="cls-22" d="m16.01,221.76c.03,2.37-.57,3.69,2.09,4.52-.7,8.25.78,4.02,10.09,5.57-.38.3-1.35,1.08-1.39,1.57,1.28,1.61,5.99,16.26,5.57,17.05-1.44,2.71-5.34-.71-6.26-2.26-.84-4.52-2.12-8.92-3.13-13.4l-9.4-.7v-12.18c.25-.36,1.9-.12,2.44-.17Z"/>
            <path class="cls-22" d="m18.1,226.28c-2.66-.83-2.06-2.15-2.09-4.52,1.89-.18,6.17.66,6.61-1.39,1.61,2.78,4.27-2.18,4.87,6.09-.28.37-8.16.21-9.4-.17Z"/>
          </g>
          <path class="cls-22" d="m24.71,199.14c-.24.49-1.19,1.36,1.04,3.48,2.42,2.3,3.05.07,5.92.7-.63,1.67-1.17,3.18-1.74,4.87-.53,1.58-.7.6-1.04,1.74-1.12-.76-2.02-1.92-3.48-2.09.1-.53.72-2.81.7-2.96-.3-1.75-7.07-3.18-1.39-5.74Z"/>
          <path class="cls-48" d="m31.32,196.35c-2.91,3.6-4.77,7.42-5.57,6.26-2.23-2.13-1.28-2.99-1.04-3.48.39-.82,1.14-1.16,1.74-1.74.3-.29,2.64-2.33,2.78-2.44,1.73-1.26,3.9-2.08,5.57-3.48-.04,1.76-2.22,3.31-3.48,4.87Z"/>
          <path class="cls-19" d="m93.62,256.56c.91,2.34-.23,2.66-3.31,4.52-13.35,8.08-32.41,7.64-44.37-2.78.71-.7.75-1.18,1.91-1.04.5.06,5.5,3.48,9.05,4.52,2.07.61,13.28,2.14,14.97,2.09.26,0,.08-.68.35-.7,2.73-.13,5.62.13,5.57-.7,1.62.01,6.13-1.16,7.66-1.74,2.85-1.08,5.76-3.96,8.18-4.18Z"/>
          <path class="cls-15" d="m73.44,277.79c-2.25-.1-4.53.07-6.79,0-.31-.09-.12-.66-.17-.7l.35-1.04c.29.11,5.84.18,6.09,0,2.83-2-7.54-2.92-6.44-.35-3.29-3.89,5.76-3.26,7.48-3.13.77.34,1.04,5.26-.52,5.22Z"/>
          <path class="cls-44" d="m66.82,276.05s-.3-.3-.35-.35c-1.1-2.57,9.26-1.65,6.44.35-.25.18-5.81.11-6.09,0Z"/>
          <path class="cls-48" d="m63.34,198.44c1.62.77,15.04.4,18.1,0,.17.78.41.72,1.04,1.04,1.16.59,4.82,2.27,5.05,2.44.73.53,1.34,1.61,1.91,2.09,2.54,2.93,1.98,4.62,2.09,4.87-3.99-4.79,1.68,4.85-11.66,1.39-1.96-1.15-1.05-6.7-.17-8.53-.48-1.39-5.6.03-6.61.17-.75.11-1.73.2-2.44.35-3.31.7-8.09,2.09-10.44,3.83-.09.05-.27-.05-.35,0-.09.07-.61-.14-.7.17-.12.45,2.93,3.03-5.57,5.74h-.7c-.09-1.68-3.7-3.69-4.87-4.52-.04-.03-.15-.64-.7-.7,1.17-1.62,11.95-7,14.97-9.74.31.41.69,1.23,1.04,1.39Z"/>
          <path class="cls-34" d="m66.47,190.78c-.01.11.02.24,0,.35h-.35c-1.9.35-3.78,1.02-5.57,1.74-6.91,2.78-13.48,6.2-18.45,11.83-2.04,2.32-3.41,4.24-4.87,6.96-.66-.4-4.52-2.13-4.52-2.61,0-.6,7.36-7.65,8.35-8.53,7.24-6.38,16.28-11.07,25.75-12.36-.52.93-.25,1.71-.35,2.61Z"/>
          <path class="cls-22" d="m87.01,250.3c-.14-5.11,4.03-14.55-.7-11.14.53-.62,1.33-1.31,1.39-1.39,5.54,3.55,6.33,2.62,2.09-2.44.17-.32,1.36-2.96,1.39-3.13,1.01-.52,4.47.04,4.87-.87.25-.55,0-3.99.7-4.87l-5.22.17c-2.19-.83-2.96-4.68-1.74-6.61,2.84-4.48,4.18,2.73,6.96,2.61.18-4.77-3.06-8.55-4.87-12.7,12.84,12.55-.75,38.35-4.87,40.37Z"/>
          <path class="cls-42" d="m102.32,216.89c.91,2.43,1.53,4.78,2.09,7.31-1.31-.17-2.09.94-3.48-1.74-.73-1.4-1.32-9.92-11.49-18.45-.57-.48-1.19-1.56-1.91-2.09-.23-.17-3.89-1.85-5.05-2.44-.86-1.15,0-1.65,0-1.74,7.87-4.87,17.65,13.31,19.84,19.14Z"/>
          <path class="cls-15" d="m100.93,222.45c1.39,2.68,2.18,1.57,3.48,1.74.66.09,1.43-.1,2.09,0,.31,2.2.52,4.42,0,6.61-.38.15-.58.71-.7,1.04-1.11,3.1-3.71,8.22-3.83,11.14v.35c-2.38-2.89-1.02-2.78-1.39-4.7-1.03-5.27-1.59-8.84-.7-14.27.11-.69.38-2.21,1.04-1.91Z"/>
          <path class="cls-18" d="m41.07,200.18v.35c-1,.88-8.36,7.93-8.35,8.53,0,.48,3.87,2.21,4.52,2.61-.52.96-1.67,2.97-1.74,3.13-.56-5.43-4.9,8.38-4.35,8.7.33.2,1.41-.22,1.91-.35.48-.12.91-.3,1.39-.35-.13.43-.68,3.94-.7,4.52-.77.03-5.39-.3-5.57-.52-.27-.33,1.19-4.63,1.39-5.39.98,2.48,4.49-8.19,3.13-9.05-1.35-.7-2.58-1.59-3.83-2.44.34-1.14.51-.16,1.04-1.74,1.07,2.03,7.33-4.39,11.14-8Z"/>
          <path class="cls-22" d="m49.07,239.51c.18.04.48.02.7,0,.82,3.26,2.68,6.38,2.09,9.74-4.66-4.77-7.42-11.03-9.05-17.4,1.95,1.45,5.11.2,5.92.87,2.62,2.19-2.37,6.15.35,6.79Z"/>
          <path class="cls-22" d="m91.53,208.88c.2.49.27.86.35,1.04-.37-.36-.95-.3-1.04-.35-.07-.04.17-.88-.17-1.04l-.87.52q-1.83,2.87-3.65,5.74c-2.77-2.13-9-3.51-7.66-7.31-8.79.08-1.96-4.54-5.39-5.57,1.01-.15,6.14-1.56,6.61-.17-.87,1.83-1.78,7.38.17,8.53,13.34,3.45,7.67-6.18,11.66-1.39Z"/>
          <path class="cls-34" d="m35.85,247.51c-1.66-7.53-8.44-15.41-2.44-17.75h.35c.23,2.36,4.25,14.03,4.18,14.79-.05.5-1.59,1.71-2.09,2.96Z"/>
          <path class="cls-33" d="m61.6,193.22c-3.63,1.94-16.3,10.99-18.79,13.92-.51-1.08-1.22-1.17-.7-2.44,4.96-5.63,11.53-9.05,18.45-11.83l1.04.35Z"/>
          <path class="cls-41" d="m57.77,244.03q-2.44,2.96-4.87,5.92c-.16-.15-.62-.26-1.04-.7.59-3.36-1.26-6.48-2.09-9.74.17-.02,2.51-1.15,3.13-1.39.21.42,4.53,5.65,4.87,5.92Z"/>
          <path class="cls-48" d="m87.01,250.3c-.13.06-.72-.17-1.39.35-.33-.88-3.08-5.38-4.18-5.92.68-.46,3.89-4.42,4.87-5.57,4.72-3.41.56,6.03.7,11.14Z"/>
          <path class="cls-17" d="m42.81,207.14c-3.24,3.81-5.73,10.41-7.31,15.14-.2.61-1.03.47-1.04.52-.49.04-.92.23-1.39.35,0-1.73,1.75-6.82,2.44-8.35.07-.16,1.22-2.17,1.74-3.13,1.46-2.72,2.83-4.64,4.87-6.96-.53,1.26.19,1.36.7,2.44Z"/>
          <path class="cls-60" d="m66.13,191.13c-1.09,1.21-3.61,1.6-4.52,2.09l-1.04-.35c1.79-.72,3.67-1.39,5.57-1.74Z"/>
          <path class="cls-34" d="m95.71,196.7c.3.26,3.91,5.03,5.22,5.92.46,1.75,3.01,4.61,3.13,4.87.07.57.99,2.69,1.39,2.78,5.23,11.96,3.68,22.96-.35,34.98l-.52.52c-.6-.86-2.12-1.84-2.61-2.44v-.35c1.54-2.54,4.08-8.74,3.83-11.14.12-.34.31-.89.7-1.04,1.61-1.88.71-4.31,1.39-6.44-.23-.35-1-.11-1.39-.17-1.05-7.44-3.9-13.23-8.35-19.14-5.12-6.79-8.22-8.79-16.36-11.83-.18-1.61-.23-2.56-.35-4.18,4.67,2.38,10.23,4.23,14.27,7.66Z"/>
          <path class="cls-48" d="m107.89,199.14c-.38,1.38.05,11.72-2.44,11.14-.47-1.07-.91-1.8-1.39-2.78-.13-.26-2.68-3.12-3.13-4.87-.73-2.81-.08-5.86-.87-8.7l7.83,5.22Z"/>
          <path class="cls-41" d="m101.28,192.87c3.88,1.36,6.32,4.47,7.66,5.57-.46.28-.93.28-1.04.7l-7.83-5.22c.79,2.84.14,5.89.87,8.7-1.31-.88-4.92-5.66-5.22-5.92-.17-.58.36-.72.35-1.04,1.7-1,3.5-1.84,5.22-2.78Z"/>
          <g>
            <path class="cls-22" d="m114.16,206.79c-11.75,7.95-4.38,4.06-3.48,17.75.78,11.92-4.09,21.96-4.18,23.14-.43,5.68,7.45,3.68,3.83,1.74,1.05-5.22,2.1-10.42,3.13-15.66l.87-.52c.32.34,2.14,1.03,2.26,1.04l-4.87,18.27c2.36,9.77-1.79,21.52-13.92,17.75.19-1.71-.27-5.16,0-6.09.82-2.85,8.26.21,10.27.7.32-2.04,1.65-6.81.17-7.66,1.68-5.93-1.82-5.5-.35.35-9.02-4.43-3.11-4.14-5.92-14.27.49.6,2.01,1.58,2.61,2.44l.52-.52c4.03-12.02,5.58-23.02.35-34.98,2.48.58,2.05-9.76,2.44-11.14.11-.41.59-.41,1.04-.7.72.6,2.95,2.98,3.31,3.13,4.47,1.92.81-3.04.87-4.18,7.62,5.58.72,5.25.35,7.48-.02.1.37.17.7,1.91Z"/>
            <path class="cls-52" d="m108.24,257.26l-.35.35c-1.47-5.84,2.03-6.28.35-.35Z"/>
            <path class="cls-51" d="m101.1,264.22l6.26.7c1.62,4.08-10.04.55-6.26-.7Z"/>
          </g>
          <g>
            <path class="cls-22" d="m123.2,221.41c-.8,2.21,1.26,3.29-1.39,4.52-.26.12-3.81.53-5.57,1.39-.04-.7-.28-1.65-.35-2.44-.57-6.69-2.57-14.75-1.39-17.4.84,4.57,2.08,9.08,2.44,13.75.38.4,5.23.1,6.26.17Z"/>
            <path class="cls-38" d="m121.81,225.93c1.08-.4.77,2.6.52,5.22-9.56,1.05-6.05-3.24-6.09-3.83,1.76-.86,5.31-1.27,5.57-1.39Z"/>
          </g>
          <g>
            <path class="cls-22" d="m33.41,229.76c-6,2.34.77,10.21,2.44,17.75.97,4.38.26,5.19-.35,9.57-.27.45-.5-.45-1.04-.52l-3.31-2.78c-1.24.14-.17,1.65-.17,1.74-.13,3.97,1.21,7.41.35,11.31,2.75,6.44,4.01.25,4-3.65l6.79.7c-.02,1.18.16,6.08-.52,6.61-.3.24-6.47.57-7.66.35-6.45-1.19-8.4-13.38-6.44-18.62-.66-.67-1.21-3.02-1.39-4,.92,1.55,4.83,4.98,6.26,2.26.42-.8-4.29-15.44-5.57-17.05.04-.48,1.01-1.27,1.39-1.57.64-.5,4.14-2.02,5.22-2.09Z"/>
            <path class="cls-52" d="m34.46,256.56c-1.36-.17-2.27-.43-3.48-1.04,0-.09-1.07-1.6.17-1.74l3.31,2.78Z"/>
            <path class="cls-52" d="m37.07,264.22c1.23-1.01,2.48,2.41,1.39,2.78-2.26.77-1.69-2.54-1.39-2.78Z"/>
          </g>
          <path class="cls-22" d="m29.58,221.41c.82-3.12,1.79-6.11,3.13-9.05,1.36.86-2.15,11.53-3.13,9.05Z"/>
          <path class="cls-48" d="m41.07,200.18c-3.81,3.62-10.07,10.04-11.14,8,.57-1.69,1.11-3.21,1.74-4.87.67-1.77,1.3-3.72,1.74-5.57,5.95.57,12.56-2.22,7.66,2.44Z"/>
          <path class="cls-41" d="m33.41,197.74c-.44,1.85-1.07,3.8-1.74,5.57-2.86-.63-3.5,1.61-5.92-.7.8,1.15,2.66-2.66,5.57-6.26.1.52,1.81,1.37,2.09,1.39Z"/>
          <path class="cls-35" d="m98.15,205.05c.36,2.74,8.02,10.97,4.18,11.83-2.19-5.83-11.97-24.01-19.84-19.14-.04-1.05-.56-3.35-.7-4.52,8.14,3.04,11.24,5.04,16.36,11.83Z"/>
          <g>
            <path class="cls-48" d="m81.44,189.04c.12,1.61.17,2.57.35,4.18.13,1.17.65,3.47.7,4.52,0,.09-.86.59,0,1.74-.64-.32-.88-.26-1.04-1.04l-.52-.7c-3.36.3-16.25-.4-17.4,0-.27.09-.18.45-.17.7-.35-.17-.74-.98-1.04-1.39,1.6-1.46,3.75-3.87,4.18-5.92.02-.11-.01-.23,0-.35,1-1.26,1.75-3.65,2.09-5.22.35-1.61.31-3.67.7-5.22.17-.69-.36-1.55.52-2.09l11.14-.35c.14,3.73.25,7.4.52,11.14Z"/>
            <path class="cls-48" d="m81.44,198.44c-3.05.4-16.48.77-18.1,0,0-.24-.09-.6.17-.7,1.15-.4,14.04.3,17.4,0l.52.7Z"/>
          </g>
          <g>
            <path class="cls-22" d="m57.77,244.03c.47.37,6.49,3.29,7.31,3.48q-.35,2.87-.7,5.74c8.11,2.13,6.89,1.02,5.92-5.39,2.41-.16,9.17-1.82,11.14-3.13,1.1.54,3.85,5.04,4.18,5.92.15.4.41.59.7.87-13.26,8.37-21.61,9.57-33.41-1.57q2.44-2.96,4.87-5.92Z"/>
            <path class="cls-41" d="m78.13,246.82c4.89,5.92-1.92,6.06-6.79,5.39-1.23-5.2,1.38-2.48,6.79-5.39Z"/>
            <path class="cls-41" d="m62.12,246.82c1.58-.48,1.17,8.49-1.39,7.66-1.12-.36,1.01-7.54,1.39-7.66Z"/>
          </g>
          <path class="cls-60" d="m106.5,224.19c-.65-.1-1.42.09-2.09,0-.56-2.52-1.18-4.88-2.09-7.31,3.84-.87-3.81-9.1-4.18-11.83,4.45,5.91,7.31,11.7,8.35,19.14Z"/>
          <path class="cls-8" d="m101.97,242.99c.12-2.92,2.72-8.03,3.83-11.14.25,2.4-2.29,8.6-3.83,11.14Z"/>
          <path class="cls-18" d="m106.5,230.81c.52-2.19.31-4.41,0-6.61.4.06,1.16-.17,1.39.17-.69,2.13.22,4.56-1.39,6.44Z"/>
          <path class="cls-19" d="m35.5,214.8c-.69,1.53-2.44,6.63-2.44,8.35-.51.12-1.58.55-1.91.35-.54-.32,3.79-14.13,4.35-8.7Z"/>
          <path class="cls-14" d="m105.45,210.27c-.4-.09-1.33-2.21-1.39-2.78.48.99.92,1.72,1.39,2.78Z"/>
          <g>
            <path class="cls-18" d="m48.03,207.49c-.1,1.91-4.13,11.03-2.61,11.83.38.06.9-.09,1.22,0-3.45,5.99.58,7.42,1.74,4,.12-.35-.1-3.08-.35-3.65.4.1,1.01-.11,1.39,0,.38.11.89.41,1.74.52-1.02,2.98.26,5.23-3.48,5.74-.4.05-1.86-.79-3.48-.17.07,4.88-2.46,7.71,4.52,6.09.06.26,1.21,1.43,1.39,4.87-1.11.48-1.7,1.64-1.04,2.78-2.72-.63,2.28-4.59-.35-6.79-.81-.67-3.96.58-5.92-.87.38-8.49,1.13-17.17,4.52-25.06.54.06.66.67.7.7Z"/>
            <path class="cls-27" d="m73.09,201.92c3.43,1.03-3.39,5.65,5.39,5.57-1.34,3.8,4.89,5.18,7.66,7.31q1.83-2.87,3.65-5.74l.87-.52c.35.17.1,1,.17,1.04-.49.73-2.76,4.76-2.78,5.05-.14,1.46,1.57,3.76,1.74,5.39-1.22,1.93-.45,5.78,1.74,6.61-.87,1.71.02,3.85-.35,5.57-.04.17-1.22,2.81-1.39,3.13-.4.74-1.33,1.17-1.74,1.74-2.14.15-9.32,11.68-9.4,6.26,1.93-1.17,8.65-8.56,9.05-10.62.57-3-.86-12.4-2.44-14.97-.57-.92-8.35-5.98-8.87-6.09-.9-.19-11.22.12-12.18.35-.99.24-7.82,4.52-8.53,5.39-.41.5-4.48,9.87-4.52,10.44-.05.62,1.68,7.8,2.09,8.53-.29,0-.36.26-.7.35-2.07.56-2.32-.05-2.44,0-.18-3.44-1.33-4.62-1.39-4.87-.41-1.67-.43-4.23-1.04-5.92,3.74-.52,2.46-2.76,3.48-5.74-.85-.12-1.36-.42-1.74-.52q1.74-3.83,3.48-7.66h.7c-.13.59,1.76,2.43,1.91,2.44.28.01,4.72-2.55,4.87-2.78.74-1.19-.65-4.13-.52-5.57.07-.05.25.05.35,0,6.64-3.5,4.92,1.19,6.09,1.74.22.1,3.69-.22,3.83-.35.25-.23.57-4.41.52-5.22.71-.15,1.69-.24,2.44-.35Z"/>
            <path class="cls-19" d="m52.9,212.01q-1.74,3.83-3.48,7.66c-.38-.11-1,.1-1.39,0-.44-.11-.98-.23-1.39-.35-.32-.09-.84.06-1.22,0-1.52-.8,2.51-9.92,2.61-11.83,1.17.83,4.78,2.84,4.87,4.52Z"/>
            <path class="cls-22" d="m70.65,202.27c.05.81-.27,4.99-.52,5.22-.14.13-3.61.45-3.83.35-1.17-.55.55-5.24-6.09-1.74,2.35-1.74,7.13-3.13,10.44-3.83Z"/>
            <path class="cls-6" d="m59.86,206.1c-.12,1.44,1.27,4.38.52,5.57-.15.24-4.59,2.8-4.87,2.78-.15,0-2.05-1.85-1.91-2.44,8.5-2.71,5.45-5.29,5.57-5.74.08-.31.6-.11.7-.17Z"/>
            <path class="cls-31" d="m78.66,243.34c.08,5.42,7.25-6.12,9.4-6.26-.1.14-.25.56-.35.7-.06.08-.87.77-1.39,1.39-.98,1.15-4.19,5.11-4.87,5.57-1.97,1.32-8.73,2.97-11.14,3.13-1.76.12-3.49.06-5.22-.35-.82-.19-6.84-3.11-7.31-3.48-.34-.27-4.66-5.49-4.87-5.92-.09-.17-.27-1.02-.35-1.39.33-.09.4-.34.7-.35.21.38,5.73,6.02,6.09,6.26,5.31,3.68,13.73,4.09,19.32.7Z"/>
            <path class="cls-34" d="m70.3,247.86c.98,6.42,2.2,7.52-5.92,5.39q.35-2.87.7-5.74c1.73.41,3.46.47,5.22.35Z"/>
            <path class="cls-19" d="m91.88,209.92c1.81,4.15,5.05,7.93,4.87,12.7-2.78.12-4.12-7.09-6.96-2.61-.17-1.64-1.88-3.94-1.74-5.39.03-.29,2.3-4.32,2.78-5.05.1.05.68,0,1.04.35Z"/>
            <path class="cls-34" d="m91.18,232.2c.36-1.72-.53-3.86.35-5.57l5.22-.17c-.71.88-.45,4.32-.7,4.87-.4.91-3.86.35-4.87.87Z"/>
            <path class="cls-19" d="m87.7,237.77c.1-.13.25-.56.35-.7.41-.57,1.34-1,1.74-1.74,4.24,5.06,3.45,5.98-2.09,2.44Z"/>
            <path class="cls-19" d="m52.55,236.72c.08.38.26,1.22.35,1.39-.62.24-2.96,1.38-3.13,1.39-.21.02-.51.04-.7,0-.66-1.14-.07-2.3,1.04-2.78.11-.05.36.56,2.44,0Z"/>
            <path class="cls-19" d="m47.68,225.93c.61,1.69.64,4.25,1.04,5.92-6.99,1.62-4.46-1.21-4.52-6.09,1.62-.62,3.08.23,3.48.17Z"/>
            <path class="cls-12" d="m48.03,219.67c.25.58.47,3.3.35,3.65-1.16,3.42-5.19,1.99-1.74-4,.42.12.95.23,1.39.35Z"/>
            <g>
              <path class="cls-40" d="m78.66,243.34c-5.59,3.39-14.01,2.98-19.32-.7-.36-.25-5.88-5.88-6.09-6.26-.41-.73-2.14-7.9-2.09-8.53.04-.57,4.12-9.94,4.52-10.44.71-.87,7.54-5.16,8.53-5.39.96-.23,11.28-.54,12.18-.35.53.11,8.31,5.17,8.87,6.09,1.57,2.56,3.01,11.97,2.44,14.97-.39,2.06-7.12,9.44-9.05,10.62Z"/>
              <g>
                <path class="cls-27" d="m67,214.45c13.24-2.08,21.99,11.33,14.1,21.75-9.35,12.33-28.38,3.97-25.06-11.14.98-4.48,6.38-9.89,10.96-10.62Z"/>
                <path class="cls-47" d="m67.34,216.54c16.54-2.63,17.9,20.68,3.83,22.27-15.1,1.72-16.09-20.32-3.83-22.27Z"/>
              </g>
            </g>
          </g>
        </g>
      </g>
    </g>
  </g>
</svg>