<?xml version="1.0" encoding="UTF-8"?>
<svg id="Camada_2" data-name="Camada 2" xmlns="http://www.w3.org/2000/svg" xmlns:xlink="http://www.w3.org/1999/xlink" viewBox="0 0 269.38 200.19">
  <defs>
    <style>
      .cls-1 {
        fill: #808170;
      }

      .cls-1, .cls-2, .cls-3, .cls-4, .cls-5, .cls-6, .cls-7, .cls-8, .cls-9, .cls-10, .cls-11, .cls-12, .cls-13, .cls-14, .cls-15, .cls-16, .cls-17, .cls-18, .cls-19, .cls-20, .cls-21, .cls-22, .cls-23, .cls-24, .cls-25, .cls-26, .cls-27, .cls-28, .cls-29, .cls-30, .cls-31, .cls-32, .cls-33, .cls-34, .cls-35, .cls-36, .cls-37, .cls-38, .cls-39, .cls-40, .cls-41, .cls-42, .cls-43, .cls-44, .cls-45, .cls-46, .cls-47, .cls-48, .cls-49, .cls-50, .cls-51, .cls-52, .cls-53, .cls-54, .cls-55, .cls-56, .cls-57, .cls-58, .cls-59, .cls-60, .cls-61, .cls-62 {
        stroke-width: 0px;
      }

      .cls-2 {
        fill: #403f39;
      }

      .cls-3 {
        fill: url(#Gradiente_sem_nome_520);
      }

      .cls-4 {
        fill: #d5d5cb;
      }

      .cls-5 {
        fill: #fe9328;
      }

      .cls-6 {
        fill: #667f8f;
      }

      .cls-7 {
        fill: #4c4c5a;
      }

      .cls-8 {
        fill: #1d1b11;
      }

      .cls-9 {
        fill: #fb8836;
      }

      .cls-10 {
        fill: #c4a68c;
      }

      .cls-11 {
        fill: #d75f18;
      }

      .cls-12 {
        fill: #7e7666;
      }

      .cls-13 {
        fill: #2d120a;
      }

      .cls-14 {
        fill: #a09e8e;
      }

      .cls-15 {
        fill: #a94615;
      }

      .cls-16 {
        fill: #3e494d;
      }

      .cls-17 {
        fill: #5e6d6e;
      }

      .cls-18 {
        fill: #292d35;
      }

      .cls-19 {
        fill: #cac1b1;
      }

      .cls-20 {
        fill: #35312a;
      }

      .cls-21 {
        fill: #692006;
      }

      .cls-22 {
        fill: #706858;
      }

      .cls-23 {
        fill: #201a1b;
      }

      .cls-24 {
        fill: #7a675b;
      }

      .cls-25 {
        fill: #b3bcb8;
      }

      .cls-26 {
        fill: #0c130f;
      }

      .cls-27 {
        fill: #ede3d3;
      }

      .cls-28 {
        fill: #b2b3b5;
      }

      .cls-29 {
        fill: #4e5c5d;
      }

      .cls-30 {
        fill: #1d4246;
      }

      .cls-31 {
        fill: #3d1302;
      }

      .cls-32 {
        fill: #f6f6f6;
      }

      .cls-33 {
        fill: #5f4d42;
      }

      .cls-34 {
        fill: #a1957f;
      }

      .cls-35 {
        fill: #b1624a;
      }

      .cls-36 {
        fill: #3e3331;
      }

      .cls-37 {
        fill: #b53713;
      }

      .cls-38 {
        fill: #192f3f;
      }

      .cls-39 {
        fill: #392d1d;
      }

      .cls-40 {
        fill: #9fbac3;
      }

      .cls-41 {
        fill: #172e34;
      }

      .cls-42 {
        fill: #91290c;
      }

      .cls-43 {
        fill: #4f0f08;
      }

      .cls-44 {
        fill: #ca5319;
      }

      .cls-45 {
        fill: #8f8778;
      }

      .cls-46 {
        fill: #575b4e;
      }

      .cls-47 {
        fill: #2e3538;
      }

      .cls-48 {
        fill: #383f4c;
      }

      .cls-49 {
        fill: #575149;
      }

      .cls-50 {
        fill: #4e7882;
      }

      .cls-51 {
        fill: #97a2a1;
      }

      .cls-52 {
        fill: #1b2227;
      }

      .cls-53 {
        fill: #dce0df;
      }

      .cls-54 {
        fill: #231711;
      }

      .cls-55 {
        fill: #b3ac98;
      }

      .cls-56 {
        fill: #74817f;
      }

      .cls-57 {
        fill: #b6b3aa;
      }

      .cls-58 {
        fill: #8a9599;
      }

      .cls-59 {
        fill: #686b65;
      }

      .cls-60 {
        fill: #0b0a0b;
      }

      .cls-61 {
        fill: #feab56;
      }

      .cls-62 {
        fill: #b38f77;
      }
    </style>
    <linearGradient id="Gradiente_sem_nome_520" data-name="Gradiente sem nome 520" x1="-5001.38" y1="-4406.51" x2="-4984.28" y2="-4389.08" gradientTransform="translate(2690.15 2254.71) scale(.5)" gradientUnits="userSpaceOnUse">
      <stop offset="0" stop-color="#889593"/>
      <stop offset="1" stop-color="#697879"/>
    </linearGradient>
  </defs>
  <g id="Camada_1-2" data-name="Camada 1">
    <g>
      <path class="cls-32" d="m168.01,123.59c.44.31,1.53,1.72,1.7,2.37.1.39-.06,1.11,0,1.7-12.32,1.46-17.05,2.38-3.9-5.09.55-.06,1.74.68,2.2,1.02Z"/>
      <g>
        <path class="cls-32" d="m266.7,152.08c-2.65-.32-5.81,0-8.48.34-.66.08-1.37-.06-2.03,0-.03-.34-1-.08-.68-2.37,1.81-.9,3.58-.63,5.43-1.02.69-.14,1.51-.11,2.2-.34l.51-.85.68-9.33c2.62,3.23,2.2,9.42,2.37,13.57Z"/>
        <path class="cls-59" d="m106.28,191.76c.9,0,1.81-.03,2.71,0,5.36.21,10.76.84,16.11,1.02,3.95.13,16.94-.33,18.31,0,.25.06.17.45.17.68-12.91.56-25.76.05-38.66.34,0-.09-.29-1.62-.34-1.7-.05-.51.77-.33,1.7-.34Z"/>
        <path class="cls-40" d="m115.1,185.66c-.11.82.16,2.11,0,2.71-.03.11.04.24,0,.34l-8.82.34c-.12-.71-.46-1.35-.68-2.03,2.61.33,2.4-.63,2.71-.68.34-.05,2.25.12,6.78-.68Z"/>
      </g>
      <g>
        <path class="cls-32" d="m6.56,148.69h7.29l.51.68c-1.59.04-1.34,2.97-4.41,3.39-.49.07-7.23-.99-9.84,0,.54-1.52,3.54-.12,4.07-.85.43-.58-1.34-12.49-.68-14.41.11.02.23-.02.34,0,3.48,4.55.21,12.14,2.71,11.19Z"/>
        <path class="cls-53" d="m210.74,42.87c-13.82,6.85-27.79,15.7-43.75,14.92-15.37-.75-20.1-7.2-10.51,3.05.34.36.7.68,1.02,1.02,2.33,2.47,4.63,4.82,6.78,7.46-1.17.09-4.84-3.29-7.29-4.75-3.41-2.03-11.51-5.99-15.26-6.44-12.28-1.49-20.05.81-29.68,8.14-2.46,1.87-3.14,2.85-5.09,4.75-1.06,1.03-4.06,3.61-4.41,4.07,1.8-5.67,6.96-11.15,10.85-15.6.89-1.02,1.87-1.88,2.71-3.05.52,2.58,6.68-2.48,6.78-2.88.11-.41-1.33-1.87-1.87-1.87-.25,0-3.8,2.04-4.41,2.37-.34.19-.09.98-.17,1.02-17.09,8.94-39.04-2.35-54.94-9.16-.03-.01.05-.05-.68-.34-1.2-.48-1.53-1.59-2.71-.34,1.7-3.08,2.21-2.45,2.37-2.71.68.34,1.36.68,2.03,1.02.71.36.97.32,1.02.34,2.9,1.35,5.15,2.28,8.14,3.39,12.45,4.65,23.64,9.35,37.14,5.43,4.6-1.34,12.43-5.91,14.75-10.17,1.31.41,2.61-.75,3.39,1.02-.65.7-5.4,6.84-5.43,7.29-.03.5,1.21,1.32,1.36,1.53.7.99.97,1.82,2.2,2.37,5.52-1.15,16.56.94,20.52-1.36,3.52-2.04,1.34-1.89-.68-11.53,10.33,14.25,26.9,13.87,42.23,8.48,4.97-1.75,10.27-5.21,10.85-5.09.34.07.05,1.43,1.53,1.02.47-.13,7.21-4,8.48-4.75.33-.2.87-.25,1.02-.68.07.11.83.54,1.7,2.03Z"/>
        <path class="cls-3" d="m210.74,42.87c1.51,2.6,2.97,5.67,4.07,8.48-2.52,1.15-4.93,2.61-7.46,3.73-6.66,2.96-14.3,5.32-20.35,9.5-4.8-1.54-11.79-1.87-16.28-3.39-1.67-.57-2.68-2.25-3.73-2.37v-1.02c15.96.78,29.93-8.07,43.75-14.92Z"/>
        <path class="cls-47" d="m84.91,133.77c-1.52.61-3.19,2.62-3.73,4.07-.33.87-.54,2.4-.68,3.39-.12.9-.06,3.03,0,4.07,0,.11-.82.41,0,2.2.38.84,7.09,7.2,8.48,8.99.3.38.74.81.68,1.36-1,.41-1.37,1.41-1.7,2.37-2.05-2.13-3.72-4.66-5.77-6.78-2.63-2.73-.76,4.2-3.56,2.37-.96-.63.44-.56-1.19-1.7-2.1-1.46-7.83-5.26-10.17-5.43.45-2.35-2.76-2.57-4.75-3.39-1.02-.42-1.93-1.17-3.05-1.36-.19-3.11-.42-6.39-.68-9.5,1.31.16,3.33-.22,4.41,0,2.75.55,3.59,11.26,5.26,13.91,1.54-1.9,2.7-4.22,4.24-6.1,1.69-2.07,5.83-6.61,7.97-7.8,3.33-1.85,3.18-.45,4.24-.68Z"/>
        <path class="cls-52" d="m116.45,2.17c.27,1.53,1.22,2.8,2.03,4.07.89,1.37,1.8,3.11,2.71,4.41-.98.43-6.22,4.44-6.61,4.41-.24-.02-2.77-3-3.05-3.05-.25-.05-2.95.89-3.05,1.02-1.31,1.72,4.83,4.8-4.92,6.95l-1.02-4.07c-8.69,3.15-2.73,5.36-3.05,6.78-.1.45-4.54,3.87-8.14.85.15-.14-.36-.49-.34-.51.5-.52,3.73-2.99,3.73-3.39,0-.27-2.06-2.18-2.37-2.54-.05-.06-.65-1.12-.68-1.36.36.1.46.43.85.34,5.42-3.58,11.55-5.87,17.47-8.48,4.09-1.8,8.61-1.97,5.09-5.43.4-.1.95.09,1.36,0Z"/>
        <path class="cls-52" d="m178.52,12.35c.16.09.34.15.68.34-1.05,1.08-1.49,2.11-1.7,2.37-.34.42-.59.48-1.36,1.7-.07.12-1.05.92-1.7,2.2l5.09,3.39c-.34.46-.88.6-1.36.85-5.15,2.69-11.37,1.48-6.78-4.92-.74-.46-1.36-.98-2.03-1.53-2.1-1.7-2.56-.87-2.88-1.02-2.64-1.21-3.26-1.49-5.94-2.37-1.3-.43-2.4-2.66-4.41-.68-.23-2.08-4.46-2.11-6.44-3.73.51-1.25.88-2.5,1.36-3.73.01-.04.04.1.34-.68,5.35,1.92,10.84,3.61,16.11,5.77,7.76,3.17,9.16,6.71,11.02,2.03Z"/>
        <path class="cls-52" d="m218.88,66.95c-1.04-.53-2.8.12-4.07.34-.49.08-.87.25-1.36.34-.43.07-.92-.06-1.36,0-.56.08-1.91.64-3.05.68-1.2.05-1.45.7-2.03-.17.04-1.7-.13-3.99.34-5.6,1.07-3.63,2.94.53,0-7.46,2.53-1.12,4.94-2.58,7.46-3.73,2,5.08,3.31,10.19,4.07,15.6Z"/>
        <path class="cls-29" d="m204.63,127.32c.58.59.96.27,1.02.34.33.37.89,1.22,1.02,1.7-1.36,0-.32.78-.34.85-.26.9-1.99,3.47-2.71,5.26-11.2.04-10.59-.24-18.99-5.77,1.35-1.07,2.44.12,4.92,0,3.81-.18,11.13-1.47,15.09-2.37Z"/>
        <path class="cls-18" d="m209.04,40.84c-.14.43-.68.48-1.02.68.21-1.46-1.17.4-1.53.34-1.4-.25-13.75-17.32-20.52-19.67.34-.44.67-.93,1.02-1.36.53-.65,1.28-1.27,1.7-2.03,8.3,6.31,14.73,13.28,20.35,22.05Z"/>
        <path class="cls-1" d="m254.15,86.62c-.77.62-1.24,2-1.36,2.88-.67,5.26.39,22.48,0,29.85-1.55-1.32-1.69-3.23-3.39-4.92,1.44-2.45-2.33-35.11,4.75-27.81Z"/>
        <path class="cls-42" d="m218.88,66.95c1.07,7.57,1.34,15.13.34,22.72-1.52.19-2.93-.16-4.41-.34,1.45-7.28,1.41-14.75,0-22.05,1.27-.22,3.03-.87,4.07-.34Z"/>
        <path class="cls-48" d="m178.52,12.35c-1.86,4.67-3.27,1.13-11.02-2.03-5.27-2.15-10.76-3.84-16.11-5.77.3-.79.77-1.55,1.02-2.37,9.39,2.06,17.75,5.53,26.12,10.17Z"/>
        <path class="cls-7" d="m80.16,19.13l3.05,2.37c-.05.17.02.46,0,.68-.11.02-.23-.02-.34,0-.9.18-.64-.71-.85-.68-2.57.41-2.21,5.22-7.46,6.1-3.15,4.22-11.97,11.62-12.04,15.94-.68-.34-1.36-.68-2.03-1.02.12-.19-.36-.48-.34-.51,5.28-8.31,12.36-16.65,20.01-22.89Z"/>
        <path class="cls-21" d="m211.42,115.79c-1.73,4.06-3.45,8.1-5.77,11.87-.06-.06-.44.25-1.02-.34-1.19-1.21-2.5-2.6-3.73-3.73,2-2.41,2.82-5.37,4.07-8.14.03-.07.88-.12.68-1.36,1.89.64,3.8,1.32,5.77,1.7Z"/>
        <path class="cls-7" d="m110.01,7.6c1.96-1.4-2.66-1.07-2.88-1.02-.71.16-11.67,5.28-12.89,6.44-1.92-1.87-3.5,3.77-4.24-.68,6.43-3.6,18.02-8.46,25.1-10.17,3.52,3.46-.99,3.62-5.09,5.43Z"/>
        <path class="cls-47" d="m54.73,134.11c-.02,2.76.16,6.04.34,8.82l-8.48-3.05c-.1-1.8-1.12-4.49.34-5.77,1.18.31,5.72-.23,7.8,0Z"/>
        <path class="cls-9" d="m128.32.14v4.07c-3.33.36-6.58,1.31-9.84,2.03-.82-1.27-1.76-2.54-2.03-4.07,3.74-.84,7.8-1.79,11.87-2.03Z"/>
        <path class="cls-58" d="m141.21.14c-.42,2.22-.07,3.05,0,4.07-.11,0-.23,0-.34,0-4.31-.31-7.88-.44-12.21,0-.11.01-.23-.01-.34,0V.14c2.71-.17,10.35-.2,12.89,0Z"/>
        <path class="cls-48" d="m110.01,7.6c-5.92,2.61-12.05,4.9-17.47,8.48-.39.09-.49-.24-.85-.34-.2-.06-.53-.23-.68-.34-.36-.27-1.63-2.06-1.7-2.71.2-.12.47-.22.68-.34.74,4.45,2.32-1.19,4.24.68,1.22-1.16,12.18-6.28,12.89-6.44.23-.05,4.84-.38,2.88,1.02Z"/>
        <path class="cls-9" d="m152.4,2.17c-.25.82-.71,1.58-1.02,2.37-.3.78-.33.64-.34.68-3.31-.03-6.55-.76-9.84-1.02-.07-1.02-.42-1.85,0-4.07,2.36.19,8.45,1.43,11.19,2.03Z"/>
        <path class="cls-21" d="m218.2,94.76c-.45,2.31-1.08,4.85-1.7,7.12-1.55.3-2.67-.57-3.73-.68-.38-.65-1.27-.63-1.36-.68l1.36-6.44c.28.04,1.99-.69,5.43.68Z"/>
        <path class="cls-42" d="m214.47,107.65c-.49,1.46-.8,2.94-1.36,4.41-2.09-.17-3.89-1.3-5.77-2.03.22-.09,2.3-4.16,2.37-4.41,2.29.54,5.3.83,4.75,2.03Z"/>
        <g>
          <path class="cls-62" d="m231.09,111.38c.55,3.35-1.06,3.3,1.7,3.73.05,4.41-.07,8.82,0,13.23-2.4-1.61-1.15,5.52-2.71,6.78-.05-7.79.18-15.61,0-23.4.05-.01-.35-.16,1.02-.34Z"/>
          <path class="cls-36" d="m242.96,115.11c-.42,9-1.86,16.19,3.39,10.51-.01,1.7.46,3.75.34,3.9-.43.52-3.71-.18-4.07.34-.34.48.05,10.09,0,11.7l-.85-5.43c-5.33,4.3-4.55-.25-8.31,7.12-2.14,4.19-2.8,8.76-2.71-.68.03-3.7.17-11.12,1.19-2.71,2.32-1.94.94-5.59.85-11.53-.07-4.41.05-8.82,0-13.23,2.35.37,7.27-.27,10.17,0Z"/>
          <path class="cls-36" d="m242.28,151.06c-.09-3.12.25-6.36.34-9.5.05-1.61-.34-11.22,0-11.7.36-.52,3.64.18,4.07-.34.13-.15-.35-2.2-.34-3.9.02-3.5-.49-10.01-.34-10.51.04-.13,1.52-1.02,1.36-.51-.58,6.89,1.12,21.48.34,26.45-.12.78-5.25,13.17-5.77,11.87.3-.68.36-1.12.34-1.87Z"/>
          <path class="cls-23" d="m242.62,141.57c-.09,3.14-.43,6.38-.34,9.5-1.7-.16-1.15,1.43-2.37.51-2.56-1.94-1.59-9.6-6.1-6.27.08-.94.11-2.11-.34-2.03,3.76-7.37,2.98-2.82,8.31-7.12l.85,5.43Z"/>
          <g>
            <path class="cls-5" d="m266.7,152.08c.39.05,2.18.26,2.37.51.69,1.26-.01,1.49,0,2.2h-.68l-10.17-.34v-2.03c2.66-.33,5.83-.66,8.48-.34Z"/>
            <path class="cls-31" d="m268.4,154.8q-.08,3.39-.17,6.78h-9.84l-.17-7.12,10.17.34Z"/>
          </g>
          <path class="cls-24" d="m246.01,115.11c-.15.5.36,7.01.34,10.51-5.25,5.68-3.81-1.51-3.39-10.51h3.05Z"/>
          <path class="cls-23" d="m230.75,142.59c-.09,9.44.58,4.87,2.71.68.45-.07.42,1.1.34,2.03-.13,1.48-1.33,11.87-1.7,12.38-2.78,3.91-2.02-13.13-2.03-15.09h.68Z"/>
          <path class="cls-33" d="m232.79,128.34c.09,5.94,1.47,9.6-.85,11.53-1.02-8.41-1.15-.99-1.19,2.71h-.68c-.02-2.49.02-4.97,0-7.46,1.56-1.27.31-8.39,2.71-6.78Z"/>
          <g>
            <path class="cls-31" d="m268.74,131.05c.05.55.02,1.14,0,1.7-.8.6-.06,2.97-.34,3.56-.1.21-2.73,1.2-2.88,1.19-1.31-.09-2.69-2.7-3.56-3.73,1.83-.57,7.12-1.1,6.44-3.39h.34c.03.22-.02.46,0,.68Z"/>
            <path class="cls-5" d="m268.74,130.38h-.34l-7.46,2.03c-.91-1.24-1.74-2.54-2.71-3.73,3.33-.66,6.66-.22,10.01-.34.82.53.4,1.32.51,2.03Z"/>
            <path class="cls-44" d="m264.33,138.52l-.68,9.33-.51.85c-.7.23-1.52.2-2.2.34-.32-3.17,1.47-7.2,1.7-10.68.87-.57,1.56.22,1.7.17Z"/>
            <path class="cls-42" d="m268.4,130.38c.68,2.29-4.61,2.82-6.44,3.39-.35-.42-.69-.91-1.02-1.36l7.46-2.03Z"/>
          </g>
          <g>
            <path class="cls-60" d="m258.22,128.68c.97,1.2,1.8,2.49,2.71,3.73.33.45.66.94,1.02,1.36.87,1.03,2.25,3.64,3.56,3.73.16.01,2.78-.98,2.88-1.19.28-.59-.46-2.96.34-3.56-.04,1.41.03,2.83,0,4.24-2.27.25-3.83,1.31-4.41,1.53-.14.05-.82-.74-1.7-.17-.22,3.48-2.01,7.51-1.7,10.68-1.85.39-3.62.12-5.43,1.02-.28.14-1.17-.22-1.36.17-1,12.17,2.67,9.59,2.03,2.2.67-.06,1.38.08,2.03,0v2.03l.17,7.12h9.84q.08-3.39.17-6.78h.68c.04,2.35-.37,4.61-.34,6.95-.24.34-4,.14-4.75.17-1.29.05-9.22-.22-9.5.17.34,9.02-.59,20.39-7.12,27.3-.92.97-1.62,2.1-2.88,2.71-4.68-.34-15.7.44-19.16-2.03-.65-.47-1.73-1.2-1.7-2.03v-23.91c-.32-.22-.47-.54-.68-.85,1.08-2.54.02-7.05,0-9.84-.02-3.14,0-6.34,0-9.5,0-3.27-.06-6.56,0-9.84.2-10.51-1.35-20.44,7.12-22.38.18,7.8-.05,15.61,0,23.4.02,2.49-.02,4.97,0,7.46.02,1.97-.74,19,2.03,15.09.36-.51,1.56-10.9,1.7-12.38,4.51-3.32,3.55,4.34,6.1,6.27,1.22.93.67-.67,2.37-.51.02.75-.04,1.18-.34,1.87.51,1.29,5.64-11.09,5.77-11.87.78-4.97-.92-19.56-.34-26.45.17-.51-1.32.38-1.36.51h-3.05c-2.91-.27-7.83.37-10.17,0-2.75-.43-1.14-.38-1.7-3.73,5.04-.65,14.53-.69,18.31,3.05,1.7,1.68,1.84,3.6,3.39,4.92.39-7.36-.67-24.59,0-29.85.11-.88.59-2.27,1.36-2.88.06.06.55-.14.68.17.84,2.06-.64,38.65,0,44.43l.68.34c1.63-4.46,2.44-2.83,2.71-2.88Z"/>
            <path class="cls-41" d="m255.17,139.53c.18.12.46.28.68.34.16,3.19.56,11.83-1.87,9.84-.44-.36-.78-11.95,1.19-10.17Z"/>
            <path class="cls-50" d="m255.51,150.05c-.33,2.29.65,2.03.68,2.37.63,7.39-3.04,9.97-2.03-2.2.18-.39,1.08-.03,1.36-.17Z"/>
            <path class="cls-25" d="m255.85,139.87c-.22-.06-.5-.22-.68-.34-1.74-1.19-1.14-5.44-.51-5.43,1.78,1.95,1.07,3.33,1.19,5.77Z"/>
          </g>
        </g>
        <g>
          <g>
            <path class="cls-21" d="m9.62,155.47c-.07,2.15.27,4.33-.34,6.44-1.89-.06-3.87-.08-5.77,0-.76.03-1.65-.1-2.37,0-.7-2.1-.62-4.28-.68-6.44h9.16Z"/>
            <path class="cls-5" d="m9.96,152.76c-.37.92-.31,1.75-.34,2.71H.46c0-.14-.74-1.58-.34-2.71,2.61-.99,9.35.07,9.84,0Z"/>
          </g>
          <path class="cls-60" d="m36.07,111.38c.03,4.51-4.03.93-8.82,2.37-.23-.61-3.87-3.16-5.09,2.03-.49,2.08-.45,4.89-.68,7.12-.39,3.81-.5,8.33-.68,12.21-.11,2.47-.3,5-.34,7.46-.05,3.16-.54,17.61,1.02,19.16,2.12,2.11,1.58-7.96,5.09-11.53-.05-6.05.21-12.1.34-18.15.09-4.35.56-12.89.34-15.6h.68c-.3.64,0,9.42,0,11.19,0,4.01.33,8.03,0,12.04,3.74,1.13,3.57-2.19,6.1-1.19-.04,1.92-.31,3.82-.34,5.77-.25,16.35.51,17.99,3.73,1.02.36-5.08.4-10.17.68-15.26.21-3.85.4-7.68.68-11.53.14-2.01.03-5.44,1.02-6.44,3.14,1.12,3.44,1.82,4.75,4.75-.68.13-.82-.55-1.02-.17-1.2,2.34.65,32.26,0,37.99-1.5,8.13,0,32.15-.34,34.93-.02.19-.96-.03-.68,1.19-.92.38-1.76.49-2.71.68-4.63.94-9.38.92-14.08,1.02-1.96-.95-2.84-1.82-4.24-3.39-5.88-6.58-7.02-18.45-7.12-26.96-.24-.34-4.3-.14-5.09-.17.61-2.11.27-4.3.34-6.44,1.02.08.09,2.67.85,3.05.21.11,3.75.05,3.9-.17.26-.37-.2-7.66,0-8.99l-.51-.68h-7.29c.43-1.56,2.91-2.62,2.71-4.24-.05-.41-4.03-6.78-4.41-6.95-.18-.87.66-1.57,1.36-2.37.2-.23,1.17-.79,1.36-1.02,2.85,1.65,4.13,4.35,6.1,6.78.71-1.61.52-3.4.68-5.09.06-.67-.06-1.37,0-2.03.31-3.29.52-7.42,1.02-10.51,2.14-13.33,8.38-12.87,20.69-11.87Z"/>
          <path class="cls-52" d="m44.55,116.81c3.3,7.38-.4,16.56,2.37,17.3-1.46,1.28-.44,3.97-.34,5.77.15,2.65.27,5.32.34,7.97,7.67-2.26,0,2.3,1.7,5.09,1.65-.03,4.11-.94,5.77-1.53,1.41,9.81-5.19,5.22-7.63,5.77-.11.02-1.13.68-1.19.85l-.34,4.75c.23.43.75-.17,1.7-.51-.09.51-.97.97-1.02,1.19-.64,3.05.61,22.33,0,24.59-.23.86-1.91,1.93-2.71,2.37-.22.12-.44.24-.68.34-.28-1.21.66-1,.68-1.19.34-2.79-1.16-26.8.34-34.93.65-5.72-1.2-35.64,0-37.99.2-.38.34.3,1.02.17Z"/>
          <path class="cls-6" d="m14.36,149.37c-.2,1.33.26,8.62,0,8.99-.16.22-3.69.28-3.9.17-.75-.38.17-2.97-.85-3.05.03-.96-.03-1.79.34-2.71,3.06-.42,2.82-3.35,4.41-3.39Z"/>
          <g>
            <path class="cls-24" d="m39.8,112.06c-.99,1.01-.87,4.43-1.02,6.44-2.89-.44-1.27,3.48-2.37,7.46-2.89.22-.74-5.51-1.02-10.51.61-2.13,4.36.8,3.39-3.73,1.28.27.97.32,1.02.34Z"/>
            <path class="cls-36" d="m38.78,111.72c.97,4.53-2.78,1.6-3.39,3.73-2.31-1.66-3.82.61-6.95-.34-.76.46-.41,1.14-.51,1.36h-.68c-.08-.91.13-2.36,0-2.71,4.79-1.45,8.85,2.13,8.82-2.37,1.09.09,1.61.11,2.71.34Z"/>
            <path class="cls-36" d="m35.39,115.45c.28,5.01-1.87,10.74,1.02,10.51-.18,2.23,1.45.06,1.7,4.07-.28,5.09-.31,10.18-.68,15.26-.53-2.43-1.5-.33-3.73-1.02.03-1.95.3-3.85.34-5.77.08-3.57.32-7.11.34-10.68l-6.44-.17c0-1.77-.3-10.56,0-11.19.1-.22-.25-.9.51-1.36,3.13.95,4.64-1.32,6.95.34Z"/>
            <path class="cls-23" d="m26.91,132.07c-.13,6.05-.39,12.09-.34,18.15-3.51,3.57-2.97,13.64-5.09,11.53-1.56-1.55-1.07-16-1.02-19.16,3.52.22,3.83-10.05,6.44-10.51Z"/>
            <path class="cls-36" d="m27.25,113.76c.13.35-.08,1.8,0,2.71.22,2.71-.25,11.25-.34,15.6-2.62.46-2.93,10.74-6.44,10.51.04-2.46.23-4.99.34-7.46,1.64-2.81,2.52-6.69,4.07-10.34.19-1.92,1.47-10.38,0-10.34-2.32.06-.95,1.44-2.71,1.36,1.21-5.19,4.85-2.64,5.09-2.03Z"/>
            <path class="cls-23" d="m34.04,138.52c-2.54-1.01-2.36,2.31-6.1,1.19.33-4.01,0-8.03,0-12.04l6.44.17c-.02,3.57-.26,7.11-.34,10.68Z"/>
            <path class="cls-33" d="m20.81,135.12c.18-3.88.28-8.4.68-12.21,2.83,3.18.28-1.48,3.39-8.48,1.47-.04.19,8.42,0,10.34-1.55,3.65-2.43,7.53-4.07,10.34Z"/>
            <path class="cls-23" d="m37.43,145.3c-3.22,16.97-3.98,15.33-3.73-1.02,2.23.68,3.2-1.41,3.73,1.02Z"/>
            <path class="cls-33" d="m38.78,118.51c-.27,3.85-.47,7.68-.68,11.53-.24-4.01-1.88-1.84-1.7-4.07,1.1-3.98-.52-7.91,2.37-7.46Z"/>
            <path class="cls-24" d="m24.88,114.44c-3.11,7-.56,11.66-3.39,8.48.23-2.23.19-5.04.68-7.12,1.76.08.39-1.29,2.71-1.36Z"/>
          </g>
          <g>
            <path class="cls-21" d="m1.82,131.73c.93,3.7,1.68,2.73,4.41,3.39-.7.8-1.54,1.5-1.36,2.37-.18-.08-.68.06-1.02,0-.11-.02-.23.02-.34,0-.77-.16-2.23.18-2.71,0-.27-1.94.22-3.86.34-5.77h.68Z"/>
            <path class="cls-23" d="m14.36,133.77c-.06.67.06,1.37,0,2.03-2.14-3.54-2.43,1.87-.68,5.09-1.97-2.44-3.25-5.14-6.1-6.78.07-.09.94-1.95,1.02-2.03.41-.48,2.9-2.07,3.05-3.39.34.03.6-.51.85-.68l.51.51,1.36,5.26Z"/>
            <path class="cls-5" d="m11.65,128.68c-.15,1.32-2.64,2.91-3.05,3.39l-6.78-.34h-.68c.01-.17-1.05-2.31.17-3.39,3.48-.15,6.87.06,10.34.34Z"/>
            <path class="cls-44" d="m4.87,137.5c.38.17,4.36,6.54,4.41,6.95.2,1.62-2.29,2.68-2.71,4.24-2.51.95.77-6.65-2.71-11.19.34.06.84-.08,1.02,0Z"/>
            <path class="cls-21" d="m8.6,132.07c-.07.09-.94,1.95-1.02,2.03-.19.22-1.16.79-1.36,1.02-2.73-.66-3.48.31-4.41-3.39l6.78.34Z"/>
            <path class="cls-32" d="m14.36,135.8c-.16,1.69.03,3.47-.68,5.09-1.75-3.22-1.46-8.63.68-5.09Z"/>
          </g>
        </g>
        <path class="cls-17" d="m164.27,69.33c.18.22.45.38.68.68,8.83,21.51,1.92,28.24-9.16,45.79-.27-.09-.53.6-.68.17-.09-2.48.33-5.82-1.36-7.63,2.21-1.37,4.1-3.61,4.41-6.1,2.12-.54,3.48-5.12,3.39-7.12-.16-3.64-3-3.8-4.41-6.78.3-.27,1.49-.77,2.03-1.19.1-5.34-2.88-9.59-5.77-13.74-2.99-4.31-1.09-5.4-8.48-4.07-3.11-3.89-7.07-5.35-12.04-4.41-.45.09-7.69,4.02-8.14,4.41-3.1,2.71-2.16,6.18-4.92,4.92,4.41-7.81-.24-3.81-3.9-.51-2.03,1.83-3.96,3.89-5.26,6.27-.26,2.45.34,4.23.34,4.58-.03,2.66.02,5.31,0,7.97l3.05-1.19c-1.19,1.34-3.26,2.35-4.41,3.9.14,2.44,1.15,4.66,1.7,6.95.69,2.9,1.15,6.14,3.05,8.48-.85,1.62-1.53,3.47-2.37,5.09-5.06-4.41-7.65-11.91-8.48-18.48-1.97-15.66,2.75-20.02,3.73-23.57,2.59-2.91,7.26-7.34,4.75-7.46,9.63-7.33,17.4-9.63,29.68-8.14,3.75.45,11.85,4.41,15.26,6.44,2.46,1.46,6.12,4.84,7.29,4.75Z"/>
        <path class="cls-51" d="m107.3,73.74c-.98,3.55-5.7,7.92-3.73,23.57.82,6.57,3.42,14.07,8.48,18.48-.43.81-.93,1.58-1.36,2.37-1.75-2.82-4.63-4.86-6.44-7.63-2.3-3.52-3.21-7.99-4.75-8.99.02-.99,1.07-2.09,1.02-2.2-.24-.55-1.5,2.95-4.41-7.29-.61.09.34-.93,0-2.03,2.49-4.84,3.09-10.54,6.44-14.92.35-.46,3.35-3.04,4.41-4.07.86.9.67,1.52.34,2.71Z"/>
        <path class="cls-52" d="m171.06,62.54c2.01,3.39,5.07,6.44,7.12,9.84.39.65.81,1.33,1.36,1.87-3.28,3.62-4.48,8.85-8.14,12.04-.15-7.5-2.09-10.73-6.44-16.28-.23-.3-.5-.46-.68-.68-2.16-2.64-4.45-4.99-6.78-7.46l13.57.68Z"/>
        <path class="cls-52" d="m83.55,22.18c1.26,1.57,2.5,2.9,3.39,4.75.4.82.85,2.79,1.7,4.24-7.95,6.17-5.34-1.33-7.29-1.53-6.04,4.43-.36,5.23-.85,7.63-.07.33-4.24,4.91-4.58,4.92-.96.01-1.18-3.2-1.7-3.39-.62-.23-5.09,5.58-2.54,8.48-2.99-1.12-5.24-2.04-8.14-3.39,5.7-7.91,12.78-14.54,19.33-21.71.11-.02.23.02.34,0,.11-.02.23.02.34,0Z"/>
        <path class="cls-52" d="m208.03,41.52c-1.27.75-8.01,4.62-8.48,4.75-1.59-2.43-1.76-5.93-4.07-7.8,1.29.13-3.03-5.73-4.41-5.43.23-1.36-2.32-3.07-2.54-3.05-1.97.14-.97,7.47-7.63.51.62-1.27,2.08-2.95,1.36-3.9l1.02-.17c.35-.96,1.05-2.1,1.7-2.88.35-.43.68-.91,1.02-1.36,6.77,2.35,19.12,19.42,20.52,19.67.35.06,1.74-1.8,1.53-.34Z"/>
        <path class="cls-18" d="m82.88,22.18c-6.55,7.16-13.63,13.8-19.33,21.71-.05-.02-.31.02-1.02-.34.07-4.32,8.89-11.72,12.04-15.94,5.25-.88,4.9-5.69,7.46-6.1.21-.03-.05.86.85.68Z"/>
        <path class="cls-58" d="m166.99,57.8v1.02c-3.56.81-6.84,2.18-10.51,2.03-9.59-10.26-4.86-3.8,10.51-3.05Z"/>
        <path class="cls-16" d="m166.99,58.81c1.06.12,2.06,1.81,3.73,2.37.08.4.3,1.3.34,1.36l-13.57-.68c-.32-.34-.68-.65-1.02-1.02,3.67.15,6.96-1.23,10.51-2.03Z"/>
        <path class="cls-25" d="m116.11,56.44c.61-.85,1.54-1.45.34-1.36.08-.04-.17-.83.17-1.02.61-.34,4.16-2.37,4.41-2.37.54,0,1.97,1.45,1.87,1.87-.11.41-6.26,5.46-6.78,2.88Z"/>
        <path class="cls-56" d="m107.3,73.74c.33-1.19.52-1.81-.34-2.71,1.95-1.9,2.63-2.88,5.09-4.75,2.51.13-2.16,4.55-4.75,7.46Z"/>
        <path class="cls-16" d="m207.35,55.08c2.94,7.99,1.07,3.83,0,7.46-.25.07-.46-.36-.51-.34-9.86,4.32-22.12,11.74-29.34,19.67-2.26,2.49-5.46,3.53-3.39,7.63.65,1.29.5-1.54,1.7,2.54.41,1.41,1.19,5.05,1.36,6.44.11.96.02,5.12,0,6.78l-6.78-7.46c.43-1.76.85-8.99,1.02-11.53,3.66-3.19,4.86-8.42,8.14-12.04-.54-.54-.96-1.22-1.36-1.87,2.64-1.82,6.75-6.37,8.82-7.8,6.05-4.18,13.69-6.54,20.35-9.5Z"/>
        <path class="cls-29" d="m187,64.58c-2.07,1.43-6.18,5.98-8.82,7.8-2.05-3.4-5.11-6.44-7.12-9.84-.04-.06-.26-.95-.34-1.36,4.49,1.52,11.48,1.86,16.28,3.39Z"/>
        <path class="cls-60" d="m175.81,143.6c.01.05.09-.31.34,1.02.51,2.74-1.08,5.42,4.92,4.41.39-.19-1.02-2.19,7.46-2.71.46.43-.59.2-.51.68l-5.6,1.02c-1.13.56-.68.56-.85,1.36-.2.97.05,4.5,0,6.44-.04,1.59.36,3.27.34,4.75-.05,4.16-.43,8.37-.34,12.55.01.64-.03,1.41,0,2.03-3.45-.85-7.04-.26-10.51-.34-1.63-.04-3.4-.67-5.09-.34-.22-.46-.33-.32-.34-.34.44-.84.02-1.54,0-2.37l4.75-.17c.04-2.99-.05-5.99,0-8.99.02-1.24-.03-2.49,0-3.73l.85-4.75c1.35-.09,9.65-.06,10.01-.85.11-.25-.39-2.44-.51-2.54-.52-.45-4.84.04-5.94,0-1.27-.04-2.72-.66-4.07-.34-.11-.38.18-.41-.34-.68-.15-1.08.36-1.5,1.36-1.36.17-4.62,1.5-2.64,1.7-4.41.12,0,.77-.56,2.37-.34Z"/>
        <path class="cls-16" d="m176.82,113.08c-.25,1.06-2.69,6.07-3.39,7.97,3.43,3.28,7.23,6.04,11.19,8.65,8.4,5.53,7.79,5.81,18.99,5.77-.73,1.78-1.29,3.61-2.03,5.43l-6.44.34c-.81-.85-5.47-5.23-5.94-5.43-.13-.05-1.27.08-2.54-.34-1.27-.41-4.33.36-5.26-2.37-.85-.1-1.64-.73-2.54-.68-1.37-1.02-2.73-1.98-4.07-3.05-2.09-1.69-4.31-4.34-5.09-3.39-.16-.65-1.26-2.06-1.7-2.37,2.33-5.74,7.74-10.49,9.16-16.96-.1,2.12.17,4.31-.34,6.44Z"/>
        <path class="cls-21" d="m174.79,129.36c-1.99-.9-1.12,1.25-.68,4.41.16,1.1.52,2.04.68,3.05.34,2.11.64,4.85,1.02,6.78-1.61-.22-2.25.34-2.37.34-.19,0-2.55-.53-3.73-.51-.05-2.09.07-4.19,0-6.27-.09-2.88.22-5.99,0-8.82-.02-.22.02-.46,0-.68-.06-.59.1-1.3,0-1.7.78-.95,2.99,1.7,5.09,3.39Z"/>
        <path class="cls-29" d="m176.15,144.62c-.25-1.33-.33-.96-.34-1.02-.38-1.93-.68-4.68-1.02-6.78,1.37.96,10.96,5.67,11.19,6.27,1.58,4.14-5.94,4.72-9.84,1.53Z"/>
        <path class="cls-52" d="m195.14,141.23c.19.2.49.81.68,1.02-2.03,2.53-9.75-1.29-9.84-3.9,0-.15.64-2.28.68-2.88,1.27.41,2.42.29,2.54.34.46.19,5.12,4.58,5.94,5.43Z"/>
        <path class="cls-59" d="m193.44,150.39c.06.46-.9,1.88,0,3.39-.72.01-.74.32-1.02.34-1.44.1-3.11-.31-4.41.34,0-.11,0-.23,0-.34,0-1.13,0-2.26,0-3.39,0-.14.43.4.34-2.71,2.85-.63,4.63-1.07,5.09,2.37Z"/>
        <path class="cls-29" d="m201.58,140.89c-.78,1.9-1.36,3.89-2.2,5.77-1-1.69-2.24-2.98-3.56-4.41-.19-.21-.49-.82-.68-1.02l6.44-.34Z"/>
        <path class="cls-27" d="m199.55,153.1c-.07.28.04.69,0,1.02-1.59.34-3.37-.36-3.73-.34-.79.04-1.59-.01-2.37,0-.9-1.51.06-2.93,0-3.39,2.31,1.36,6,1.54,6.1,2.71Z"/>
        <path class="cls-58" d="m174.79,129.36c1.34,1.08,2.7,2.03,4.07,3.05-1.04.06-3.49,1.78-4.75,1.36-.44-3.16-1.31-5.31.68-4.41Z"/>
        <path class="cls-29" d="m77.45,154.12c-.02.95-2.28,1.41-3.39,1.36-.15,0,.77-.28-2.37-1.02-3.98-.94-7.91-2.36-11.87-3.39-.01-.27-.32-.29-.34-1.02,1.28-.38,2.41-.16,3.73-.34,2.01-.27,1.64-.31,3.9-.34.28,0,.13-.68.17-.68,2.35.17,8.08,3.96,10.17,5.43Z"/>
        <path class="cls-53" d="m82.2,153.44c2.04,2.12,3.72,4.66,5.77,6.78-.03.1-.35,1.93-.34,2.03-5.56.29-7.63.37-7.12-5.94.01-.14.94-.28,1.02-.68.11-.61-1.18-2.96.68-2.2Z"/>
        <path class="cls-56" d="m62.53,145.3l.68,4.41c-1.32.18-2.45-.04-3.73.34-.05-2.02.12-4.09,0-6.1,1.12.18,2.04.94,3.05,1.36Z"/>
        <path class="cls-19" d="m67.27,148.69s.11.67-.17.68c-2.26.03-1.89.07-3.9.34l-.68-4.41c1.99.82,5.2,1.04,4.75,3.39Z"/>
        <g>
          <g>
            <path class="cls-31" d="m59.13,153.1c-.24,4.02-3.4-.33-3.73-2.03-.45-2.32-.18-5.64-.34-8.14-.18-2.78-.36-6.05-.34-8.82.02-2.38-.77-5.45,1.36-6.78.84.4.21,2.01.34,4.58.22,4.29.87,10.89,1.36,15.26.15,1.34,1.48,3.93,1.36,5.94Z"/>
            <path class="cls-13" d="m58.79,134.45c.26,3.11.49,6.38.68,9.5.12,2.02-.05,4.08,0,6.1.02.72.33.75.34,1.02.02.44-.27,1.5-.34,2.03h-.34c.12-2-1.21-4.6-1.36-5.94-.49-4.37-1.14-10.97-1.36-15.26-.13-2.56.5-4.18-.34-4.58,3-1.89,2.34,2.71,2.71,7.12Z"/>
          </g>
          <path class="cls-60" d="m55.4,151.06c.33,1.71,3.49,6.06,3.73,2.03h.34c3.6,1.34,5.26,4.45,6.27,5.09.05.03.02-.59,1.19,0-.55.48.39,1.41-.17,1.7-.59.3-12.64-.03-13.23-.34-.39-.21.05-1.1-.34-1.36-.31-.2-3.62,3.12-6.27,4.07-.95.34-1.47.94-1.7.51l.34-4.75c.06-.17,1.08-.82,1.19-.85,2.44-.55,9.04,4.04,7.63-5.77.37-.13.55-.46,1.02-.34Z"/>
        </g>
        <path class="cls-56" d="m55.06,142.92c.16,2.5-.11,5.82.34,8.14-.47-.12-.65.21-1.02.34-1.66.58-4.12,1.5-5.77,1.53-1.69-2.79,5.97-7.35-1.7-5.09-.07-2.65-.19-5.32-.34-7.97l8.48,3.05Z"/>
        <path class="cls-42" d="m128.32,4.21c.11-.01.23.01.34,0v5.77c-.66.23-1.72,1.53-2.37,2.03-.57.44-1.36.66-1.7,1.36-.11-.19-1.63-.21-3.39-2.71-.91-1.3-1.83-3.03-2.71-4.41,3.25-.73,6.51-1.67,9.84-2.03Z"/>
        <g>
          <path class="cls-9" d="m91.02,15.4c-.9,1.63-7.49,4.99-7.8,6.1l-3.05-2.37c2.9-2.36,5.92-4.58,9.16-6.44.07.65,1.33,2.44,1.7,2.71Z"/>
          <path class="cls-42" d="m92.37,17.1c.31.36,2.37,2.27,2.37,2.54,0,.4-3.23,2.88-3.73,3.39-.02.02.48.37.34.51-.57.55-3.39,2.32-4.41,3.39-.89-1.85-2.14-3.18-3.39-4.75,4.16-.83,6.72-5.18,8.82-5.09Z"/>
          <path class="cls-15" d="m91.69,15.74c.02.23.63,1.3.68,1.36-2.1-.09-4.66,4.26-8.82,5.09-.11.02-.23-.02-.34,0,.02-.22-.05-.5,0-.68.31-1.11,6.9-4.48,7.8-6.1.15.11.48.28.68.34Z"/>
        </g>
        <path class="cls-53" d="m93.39,82.89c1.55,2.22,1.96,4.66,2.71,7.12.34,1.1-.61,2.13,0,2.03-.35.89-.71,1.81-1.02,2.71-.84,2.48-1.67,4.93-2.37,7.46-.39,1.38-.8,2.75-1.36,4.07-.16.48-.64,1.4-.68,1.7-5.12,4.54-4.68,2.86-4.92,3.05-.34.28-2.77,3.32-6.44,6.1-1.48,1.12-7.24,5.17-7.97,4.41.04-.3-.21-.92-.34-1.36,11.42-10.56,25.84-21.57,20.35-39,.33.38,1.84,1.42,2.03,1.7Z"/>
        <path class="cls-21" d="m151.05,5.22c-.48,1.23-.84,2.48-1.36,3.73-.48,1.18-1.52,2.3-1.02,3.73-.28-.06-4.84.04-5.77,0-.25-1-1-.95-1.02-1.02-.15-2.49-.52-4.97-.68-7.46,3.28.26,6.53.99,9.84,1.02Z"/>
        <path class="cls-52" d="m169.36,16.76c-3.42-1.9-2.43,2-4.92,3.39-.77-.72-5.09-2.31-5.26-2.88-.17-.6,1.54-2.91,1.36-3.9,2.67.88,3.3,1.16,5.94,2.37.32.15.78-.69,2.88,1.02Z"/>
        <g>
          <path class="cls-9" d="m188.69,18.79c-.41.76-1.16,1.38-1.7,2.03-3.24-1.08-6.78-3.65-9.5-5.77.21-.26.64-1.3,1.7-2.37,3.34,1.91,6.42,3.77,9.5,6.1Z"/>
          <path class="cls-42" d="m184.96,23.54c-.64.78-1.35,1.92-1.7,2.88l-1.02.17c-.67,0-4.38-2.12-4.07-3.39.48-.25,1.01-.39,1.36-.85l-5.09-3.39c.65-1.29,1.62-2.09,1.7-2.2,1.26,2.08,5.8,4.33,7.63,4.41,1.1.83-1.25.95,1.19,2.37Z"/>
          <path class="cls-44" d="m187,20.83c-.35.43-.68.91-1.02,1.36-.33.44-.67.93-1.02,1.36-2.43-1.42-.09-1.54-1.19-2.37-1.83-.08-6.37-2.33-7.63-4.41.76-1.22,1.02-1.27,1.36-1.7,2.72,2.12,6.26,4.69,9.5,5.77Z"/>
        </g>
        <path class="cls-52" d="m156.13,12.69c-.37.37-1.07,2.24-1.53,2.37-.8.24-3.49-1.89-5.94-2.37-.5-1.43.54-2.56,1.02-3.73,1.98,1.62,6.21,1.66,6.44,3.73Z"/>
        <path class="cls-42" d="m213.45,67.63c1.63,5.43,1.55,16.15,0,21.37-1.13-.17-2.26.26-4.07-.68.3-1.81.52-3.6.68-5.43,1.51.08.2-5.26.68-7.97.07-.38,2.59-1.79,1.36-7.29.44-.06.93.07,1.36,0Z"/>
        <path class="cls-44" d="m214.81,67.29c1.41,7.29,1.45,14.76,0,22.05-.08,0-.4-.19-1.36-.34,1.55-5.21,1.63-15.94,0-21.37.49-.09.87-.26,1.36-.34Z"/>
        <path class="cls-21" d="m210.06,82.89c.43-4.91.19-9.76-1.02-14.58,1.14-.04,2.49-.6,3.05-.68,1.23,5.5-1.29,6.91-1.36,7.29-.47,2.71.83,8.05-.68,7.97Z"/>
        <g>
          <path class="cls-47" d="m206.67,129.36c.42,1.54-.61,4.25.51,4.75h14.08c1.08,5.16-2.65,3.38-10.01,4.41-.43.24.45,2.91.51,3.39.19,1.59.52,3.15.68,4.75-.61.28-.97.31-1.02.34l-8.99-3.05c-.76,2.68-2.54,6.48-1.19,6.78-.27.17-1.6,2.01-1.7,2.37-.1-1.17-3.79-1.35-6.1-2.71-.46-3.44-2.24-3-5.09-2.37,0-.16-.21-.31-.34-1.02-.08-.48.97-.25.51-.68-8.48.52-7.07,2.52-7.46,2.71-6,1.01-4.41-1.67-4.92-4.41,3.9,3.19,11.41,2.62,9.84-1.53-.23-.6-9.82-5.32-11.19-6.27-.16-1.01-.52-1.95-.68-3.05,1.26.42,3.71-1.3,4.75-1.36.9-.05,1.69.58,2.54.68.93,2.73,3.99,1.96,5.26,2.37-.04.6-.68,2.73-.68,2.88.08,2.61,7.81,6.43,9.84,3.9,1.32,1.43,2.56,2.72,3.56,4.41.84-1.88,1.43-3.87,2.2-5.77.74-1.81,1.31-3.64,2.03-5.43.73-1.78,2.46-4.36,2.71-5.26.02-.07-1.02-.85.34-.85Z"/>
          <path class="cls-56" d="m222.95,134.11c-.06,3.27,0,6.56,0,9.84l-5.09,3.05c-4.86-3.9-1.54.79,1.7,5.43-1.96-.45-7.3-1.04-9.84-1.36-.09-.01-.4-.2-1.7-.34.33-1.77,1.83-2.94,3.39-3.73.05-.02.41-.06,1.02-.34.68-.31,8.6-2.56,8.48-3.22-.18-1.03-2.31-.07-2.88-.17-2.05-.35-4.11-1.38-6.27-1.36-.06-.49-.93-3.15-.51-3.39,7.36-1.03,11.09.75,10.01-4.41h1.7Z"/>
          <path class="cls-29" d="m222.95,143.94c0,3.16-.02,6.35,0,9.5-1.54.17-1.29-.32-1.36-.34-.52-.86-3.45-5.88-3.73-6.1l5.09-3.05Z"/>
          <g>
            <path class="cls-52" d="m219.56,152.42c.1.02,1.1.43,2.03.68.07.02-.18.51,1.36.34.02,2.78,1.08,7.3,0,9.84-.18-.25-4.62-3.65-4.92-3.73-1-.26-17.74-.04-20.69,0-.28,0-.13.68-.17.68-1.34.03-4.85-.27-5.09-1.36,2.02-.27,5.86-3.8,3.73-5.09.36-.02,2.14.68,3.73.34,1.79-.38,1.92-2.29,2.37-.85.09.27-1.65,5.03-.85,5.6h9.5l.51-.85-1.36-6.95c2.54.31,7.88.91,9.84,1.36Z"/>
            <path class="cls-60" d="m208.03,150.73c1.3.14,1.61.33,1.7.34l1.36,6.95-.51.85h-9.5c-.8-.56.93-5.33.85-5.6-.46-1.44-.59.47-2.37.85.04-.32-.07-.73,0-1.02.09-.37,1.42-2.2,1.7-2.37,2.03-1.27,4.58-.23,6.78,0Z"/>
          </g>
          <path class="cls-56" d="m211.42,146.99c-1.56.79-3.06,1.96-3.39,3.73-2.21-.23-4.75-1.27-6.78,0-1.36-.31.42-4.1,1.19-6.78l8.99,3.05Z"/>
          <path class="cls-17" d="m212.44,146.66c-.16-1.59-.49-3.16-.68-4.75,2.17-.02,4.22,1.01,6.27,1.36.57.1,2.7-.86,2.88.17.12.66-7.8,2.91-8.48,3.22Z"/>
          <path class="cls-57" d="m217.86,146.99c.28.22,3.21,5.24,3.73,6.1-.94-.25-1.93-.65-2.03-.68-3.23-4.63-6.56-9.32-1.7-5.43Z"/>
        </g>
        <path class="cls-17" d="m195.48,121.9c1.05-.04,2.21,1.07,2.37-.68.92,1.08,2.91,2.24,3.05,2.37,1.24,1.13,2.54,2.52,3.73,3.73-3.97.9-11.29,2.19-15.09,2.37-2.47.12-3.57-1.07-4.92,0-3.96-2.61-7.76-5.36-11.19-8.65.7-1.9,3.14-6.91,3.39-7.97,1.53,5.82,13.45,9.04,18.65,8.82Z"/>
        <g>
          <path class="cls-18" d="m57.44,53.73c.08.05.26-.05.34,0,.29.18,1.91,1.66,2.03,1.7q-1.87,5.94-3.73,11.87h-1.36l-4.41-.34c.88-5.16,2.77-10.12,4.75-14.92.71.66,1.57,1.17,2.37,1.7Z"/>
          <path class="cls-52" d="m60.49,55.42c1.75,1.31,1.55,4.86,1.36,7.12-.14,1.57-.53,6.1-2.37,6.1-.11,0,.29-.07-2.03-1.02-.19-.08-.68.05-1.02,0l-.34-.34q1.87-5.94,3.73-11.87c.18.05.46-.02.68,0Z"/>
        </g>
        <path class="cls-11" d="m205.65,114.1c.21,1.24-.65,1.29-.68,1.36-1.36-4.12-3.8,6.22-4.58,6.44-.97.28-1.45-1.11-2.2-1.36.34-.38,3.22-6.59,3.73-7.8,1.23.46,2.48.93,3.73,1.36Z"/>
        <path class="cls-44" d="m204.97,115.45c-1.25,2.77-2.07,5.73-4.07,8.14-.14-.13-2.13-1.29-3.05-2.37,0-.1.02-.24,0-.34-.04-.41.32-.32.34-.34.76.24,1.23,1.63,2.2,1.36.78-.22,3.22-10.56,4.58-6.44Z"/>
        <path class="cls-31" d="m141.89,11.67c-.45-2.23-1.35-4.88-1.02-7.46.11,0,.23,0,.34,0,.16,2.49.53,4.97.68,7.46Z"/>
        <path class="cls-52" d="m71.68,154.46c-2.16,1.57-1.06,4.46-2.37,6.61.04.83,1.17.77,1.7.85.16,1.16-.32.97-.34,1.02-.3-1.29-2.62-.29-3.05-.85-.88-1.14,3.61-1.75-.68-3.9-1.17-.59-1.14.03-1.19,0-1.02-.64-2.68-3.75-6.27-5.09.07-.53.36-1.6.34-2.03,3.96,1.03,7.89,2.45,11.87,3.39Z"/>
        <path class="cls-44" d="m212.77,94.09l-1.36,6.44c-1.4-.82-1.94-.64-2.03-.68-.12-.05-.72-.8-2.37-1.02.1-.37.43-3.14,1.02-5.77,1.57.08,3.24.82,4.75,1.02Z"/>
        <path class="cls-11" d="m208.03,104.94c.22.02.63.55,1.7.34-.03.1.03.23,0,.34-.07.25-2.15,4.32-2.37,4.41-1.22-.48-2.56-.75-3.73-1.36.52-1.4.89-2.98,1.36-4.41.97.47,2,.59,3.05.68Z"/>
        <g>
          <path class="cls-52" d="m207.35,110.03c1.88.74,3.67,1.86,5.77,2.03-.77,2.03-1.42,3.08-1.7,3.73-1.96-.38-3.88-1.06-5.77-1.7-1.25-.42-2.5-.89-3.73-1.36.56-1.32,1.2-2.74,1.7-4.07,1.17.61,2.52.88,3.73,1.36Z"/>
          <path class="cls-52" d="m205.82,110.03c3.37-.7-.1,3.76-.68,2.71-.16-.29.54-2.68.68-2.71Z"/>
        </g>
        <g>
          <path class="cls-9" d="m54.73,67.29c-.69,7.25-.24,14.47.34,21.71-1.51.36-3.51.49-5.09.68-.89-7.6-.95-15.18.34-22.72l4.41.34Z"/>
          <path class="cls-23" d="m62.86,98.83c.34,1.46.62,2.97,1.02,4.41-.93.64-2.01.7-3.05,1.02-.48.14-.93.22-1.36.34-1.92.56-3.79,1.32-5.77,1.7-.46-1.62-.97-3.09-1.36-4.75,1.62-.29,3.16-.96,4.75-1.36,1.89-.47,3.93-.53,5.77-1.36Z"/>
          <path class="cls-52" d="m66.6,111.72c-.47.9-2.7,1.24-4.07,1.7-1.34.45-2.75.87-4.07,1.36-.56.21-1.04.71-1.7.68-.51-1.3-.9-2.42-1.36-3.73,2.19-.58,4.36-1.51,6.44-2.37,1.19-.49,2.38-.85,3.39-1.7.45,1.33.87,2.77,1.36,4.07Z"/>
          <path class="cls-44" d="m54.39,93.75c2.32.39,1.38,1.69,2.71,1.02.11.92-.16,2.54,1.02,2.37,0,1.28.52,2-1.02,3.05-1.59.4-3.13,1.07-4.75,1.36-.56-2.37-.95-4.72-1.36-7.12.8.13,1.38-.35,2.03-.68.45,0,.9.01,1.36,0Z"/>
          <path class="cls-44" d="m61.51,109.01c.06.03.37-.07.34.34-2.09.87-4.25,1.8-6.44,2.37-.65-1.88-1.15-3.52-1.7-5.43,1.97-.38,3.85-1.14,5.77-1.7.92,1.89.17,3.3,2.03,4.41Z"/>
          <path class="cls-44" d="m64.22,128c-.35.3-.16,1.23-1.02,1.02-.2-.72-4.47-8.53-6.44-13.57.65.03,1.13-.47,1.7-.68l5.77,13.23Z"/>
          <g>
            <path class="cls-60" d="m60.49,87.98c.98.21.69,2.81,1.02,4.75-2.27.13-4.94.97-7.12,1.02-.45.01-.9,0-1.36,0,3.16-1.58,1.41-3.93,1.19-4.07-.5-.31-4.36-.69-3.56,3.73-.19-1.22-.53-2.51-.68-3.73,1.58-.19,3.57-.31,5.09-.68.39-.09,1.01.11,1.36,0,.88-.27.65-.32.68-.34l3.39-.68Z"/>
            <path class="cls-38" d="m53.03,93.75c-.66.33-1.23.81-2.03.68,0-.05-.13.34-.34-1.02-.8-4.42,3.06-4.05,3.56-3.73.23.14,1.97,2.49-1.19,4.07Z"/>
          </g>
          <path class="cls-42" d="m69.31,123.93c-1.51,1.6-3.47,2.66-5.09,4.07l-5.77-13.23c1.32-.49,2.73-.91,4.07-1.36-.25,2.37,4.56,11.18,6.78,10.51Z"/>
          <path class="cls-15" d="m71,120.2c.13.44.37,1.05.34,1.36-.11,1.19-1.36,1.66-2.03,2.37-2.23.67-7.03-8.14-6.78-10.51,1.37-.46,3.6-.79,4.07-1.7.68,1.8,4.14,7.53,4.41,8.48Z"/>
          <path class="cls-15" d="m56.08,67.29l.34.34c-1.1,7.11-.09,14.23,0,21.37-.35.11-.97-.09-1.36,0-.58-7.23-1.03-14.45-.34-21.71h1.36Z"/>
          <path class="cls-42" d="m61.51,92.73c.35,2.04.89,4.09,1.36,6.1-1.84.83-3.88.89-5.77,1.36,1.53-1.06,1.02-1.77,1.02-3.05,0-.13.73-1.14,0-2.54-1.09-2.09-.92.12-1.02.17-1.34.67-.4-.63-2.71-1.02,2.19-.05,4.86-.89,7.12-1.02Z"/>
          <path class="cls-42" d="m65.24,107.65c-1.01.85-2.21,1.2-3.39,1.7.04-.41-.28-.3-.34-.34.98-1.28.64-3.66-.68-4.75,1.04-.31,2.12-.38,3.05-1.02.41,1.47.87,2.97,1.36,4.41Z"/>
          <path class="cls-37" d="m61.51,109.01c-1.87-1.11-1.11-2.52-2.03-4.41.43-.12.88-.2,1.36-.34,1.32,1.09,1.65,3.47.68,4.75Z"/>
          <path class="cls-42" d="m58.12,97.14c-1.18.17-.91-1.45-1.02-2.37.1-.05-.07-2.26,1.02-.17.73,1.41,0,2.42,0,2.54Z"/>
          <path class="cls-21" d="m59.47,68.65l1.02,19.33-3.39.68c.08-.04.94-1.03,1.36-1.19q-.51-9.92-1.02-19.84c2.33.95,1.92,1.02,2.03,1.02Z"/>
          <path class="cls-42" d="m57.44,67.63q.51,9.92,1.02,19.84c-.42.16-1.28,1.14-1.36,1.19-.03.02.21.07-.68.34-.09-7.14-1.1-14.26,0-21.37.34.05.83-.08,1.02,0Z"/>
        </g>
        <g>
          <path class="cls-52" d="m214.81,89.34c1.48.18,2.89.53,4.41.34-.23,1.77-.68,3.36-1.02,5.09-3.44-1.37-5.15-.64-5.43-.68-1.51-.19-3.17-.94-4.75-1.02.21-.95.33-.64.34-.68.6-.1,3.41.78,3.56.68.18-.12,1.4-3.65,1.53-4.07.96.15,1.28.33,1.36.34Z"/>
          <path class="cls-52" d="m213.45,89c-.12.42-1.34,3.95-1.53,4.07-.15.1-2.96-.78-3.56-.68.41-1.91.98-3.86,1.02-4.07,1.81.94,2.94.5,4.07.68Z"/>
        </g>
        <path class="cls-2" d="m144.94,183.96c.28,2.39.63,5.07.68,7.46,0,.21-.89,1.34,0,1.7-.1,0,.47.23-2.03.34,0-.23.08-.62-.17-.68-1.38-.33-14.37.13-18.31,0-5.35-.17-10.75-.81-16.11-1.02-.18-1.61,5.29-.79,6.1-3.05.04-.1-.03-.23,0-.34l6.78-.34c-.08.81.24.98.34,1.53,1.33,1.21,12.7.23,15.43-1.53,1.05-.68,2.49-3.51,2.54-3.73,1.84-.43,1.64-1.22,2.03-1.36.77.65,1.77.8,2.71,1.02Z"/>
        <path class="cls-60" d="m192.42,154.12l-.34,4.75c.24,1.08,3.75,1.38,5.09,1.36,6.22,2.63,2.95,5.38,3.39,11.7q-6.1.76-12.21,1.53c.06-4.79-.35-9.75-.34-14.58,0-1.47,0-2.94,0-4.41,1.3-.65,2.96-.24,4.41-.34Z"/>
        <path class="cls-46" d="m167.67,185.32c-1.99,1.59-3.96,3.04-6.1,4.41-.67.13-.8.3-1.02.34-4.93.96-9.91,1.54-14.92,1.36-.04-2.39-.39-5.07-.68-7.46,5.05,1.14,12.68,1.7,17.81,1.36,1.79-.12,6-2.14,4.92,0Z"/>
        <path class="cls-30" d="m171.06,182.61c-.83,1.39-2.26,1.8-3.39,2.71,1.08-2.14-3.12-.12-4.92,0-5.13.34-12.76-.22-17.81-1.36-.94-.21-1.94-.37-2.71-1.02,1.56-.54,11.19-.65,14.41-1.02,1.66-.54,1.11-1.01,1.19-1.02.11-.01.23.01.34,0,.03,0-.1.71.17.68,3.03-.4,6.29-1.17,9.33-1.7.12.18,2.82,1.74,3.39,2.71Z"/>
        <path class="cls-43" d="m171.06,174.81c-.13,2.86,1.38,5.48,0,7.8-.57-.97-3.27-2.53-3.39-2.71-.61-.93-1.27-4.51-1.7-5.43,1.69-.33,3.45.3,5.09.34Z"/>
        <path class="cls-2" d="m193.44,153.78c.79-.01,1.59.04,2.37,0,2.13,1.29-1.71,4.82-3.73,5.09l.34-4.75c.28-.02.3-.33,1.02-.34Z"/>
        <path class="cls-52" d="m195.48,38.46c-2.21,4.99-1.55,3.45-6.78-1.53.58-1.04,2.21-2.97,2.37-3.9,1.38-.3,5.7,5.56,4.41,5.43Z"/>
        <path class="cls-29" d="m171.4,86.28c-.17,2.54-.59,9.77-1.02,11.53-1.1,4.53-4.43,9.32-6.78,13.23-4.71-.1-3.59,6.09-7.8,4.75,11.07-17.55,17.99-24.27,9.16-45.79,4.36,5.55,6.3,8.78,6.44,16.28Z"/>
        <path class="cls-16" d="m155.8,115.79c4.21,1.35,3.09-4.84,7.8-4.75-4.87,8.11-9.31,12.6-9.5,13.4-.18.76.68,4.47.68,5.94-.77-.14-1.87.1-2.71,0-.65-7.06-.52-14.29-1.02-21.37,1.79.72,1.54.05,2.71-.68,1.68,1.81,1.26,5.15,1.36,7.63.15.43.41-.26.68-.17Z"/>
        <path class="cls-16" d="m153.42,73.4c-7.03,3.36-5.46-.3-8.48-4.07,7.39-1.33,5.48-.24,8.48,4.07Z"/>
        <path class="cls-29" d="m155.12,90.35c2.63,1.54,5.64,5,6.44,4.75.09,2-1.27,6.58-3.39,7.12.69-5.54-.41-7.56-3.73-11.7l.68-.17Z"/>
        <path class="cls-30" d="m117.13,105.62c-.69,1.8-1.83,3.4-2.71,5.09-1.9-2.34-2.36-5.58-3.05-8.48,1.95,1.04,3.76,2.46,5.77,3.39Z"/>
        <path class="cls-47" d="m114.08,91.37l-3.05,1.19c.02-2.66-.03-5.31,0-7.97l4.07,4.24c-.49,1.72-.01,1.42-1.02,2.54Z"/>
        <path class="cls-52" d="m157.15,88.32c1.41,2.98,4.24,3.15,4.41,6.78-.8.25-3.81-3.21-6.44-4.75.12-1.13,1.36-1.43,2.03-2.03Z"/>
        <g>
          <path class="cls-16" d="m140.87,4.21c-.33,2.58.57,5.23,1.02,7.46.01.07.77.01,1.02,1.02.75,3.07-.05,16.78.34,21.54.22,2.69,1.16,5.07,1.7,7.63,2.02,9.64,4.19,9.49.68,11.53l-6.61-9.84c-12.03-.85-8.44,1-16.11,8.82-.15-.21-1.39-1.03-1.36-1.53.03-.45,4.77-6.59,5.43-7.29.51-.55,1.15-1.17,1.7-1.7.88-.85,5.88-3.91,6.1-4.58-.1-4.01.14-8.04,0-12.04-.08-2.22-.98-13.71-2.03-14.75-.26-.26-3.47-.71-4.07-.51v-5.77c4.33-.44,7.9-.31,12.21,0Z"/>
          <path class="cls-52" d="m145.62,53.39c-3.96,2.3-14.99.2-20.52,1.36-1.23-.56-1.5-1.38-2.2-2.37,7.67-7.81,4.08-9.67,16.11-8.82l6.61,9.84Z"/>
          <path class="cls-51" d="m128.66,41.85c-.55.53-1.18,1.15-1.7,1.7-.78-1.77-2.08-.61-3.39-1.02,4.08-7.51,1.76-27.88,1.02-29.17.34-.7,1.13-.92,1.7-1.36,2.37,9.82,3.35,19.78,2.37,29.85Z"/>
          <path class="cls-17" d="m134.77,25.24c.14,4-.1,8.03,0,12.04-.22.67-5.23,3.73-6.1,4.58.98-10.07,0-20.03-2.37-29.85,5.72.81,5.56,12.07,8.48,13.23Z"/>
          <path class="cls-29" d="m134.77,25.24c-2.92-1.16-2.76-12.42-8.48-13.23.65-.51,1.71-1.81,2.37-2.03.6-.2,3.81.25,4.07.51,1.05,1.04,1.96,12.54,2.03,14.75Z"/>
        </g>
        <g>
          <path class="cls-25" d="m60.83,45.59c-2.11,1.8-5,5.64-3.39,8.14-.81-.52-1.67-1.04-2.37-1.7.78-1.89,2.12-5.1,3.05-6.78,1.18-1.25,1.52-.14,2.71.34Z"/>
          <path class="cls-52" d="m113.4,59.49c-3.89,4.45-9.05,9.94-10.85,15.6-3.36,4.38-3.96,10.09-6.44,14.92-.75-2.46-1.17-4.9-2.71-7.12,2.05.88-2.23-5.54-3.05-9.33,5.49-13.36,14.86-10.96,22.05-13.74.62-.24.92-1.06,1.02-.34Z"/>
          <path class="cls-56" d="m116.45,55.08c1.2-.09.27.51-.34,1.36-.84,1.17-1.82,2.03-2.71,3.05-.1-.72-.4.1-1.02.34,0-.24.09-.59-.17-.68-1.62-.56-15.14,1.68-18.15,2.03-6.16.06-23.93-6.36-33.58-5.77-.22-.02-.5.05-.68,0-.13-.04-1.75-1.51-2.03-1.7,1.62-.14,1.62-5.59,3.73-7.8,15.91,6.81,37.85,18.1,54.94,9.16Z"/>
          <path class="cls-51" d="m61.51,45.92c-2.11,2.21-2.11,7.66-3.73,7.8-.08-.05-.26.05-.34,0-1.61-2.5,1.28-6.34,3.39-8.14.73.29.64.32.68.34Z"/>
          <path class="cls-16" d="m112.38,59.83c-7.18,2.78-16.56.38-22.05,13.74.82,3.79,5.1,10.21,3.05,9.33-.19-.28-1.71-1.31-2.03-1.7-2.06-2.39-4.04-3.75-4.75-4.75-.47-.67-1.08-.99-1.02-1.87l8.48-13.4c3.01-.35,16.53-2.6,18.15-2.03.26.09.17.44.17.68Z"/>
          <path class="cls-29" d="m94.07,61.19l-8.48,13.4c-.06.88.54,1.2,1.02,1.87-7.9-5.27-16.21-9.79-24.76-13.91.19-2.26.39-5.81-1.36-7.12,9.64-.6,27.42,5.83,33.58,5.77Z"/>
        </g>
        <path class="cls-52" d="m99.49,101.55c-.13,5.93,5.41,14.92,9.84,18.99-.69,1.25-1.32,2.49-2.03,3.73-2.01-.77-4.53-.66-6.44-1.7-2.73-1.48-9.66-12.46-9.5-16.28.55-1.32.97-2.69,1.36-4.07,4.23-1.19,2.79-2.17,4.75-4.58-1.86-1.61.02-4.65-2.37-2.88.31-.91.67-1.82,1.02-2.71,2.91,10.25,4.17,6.74,4.41,7.29.05.11-1,1.22-1.02,2.2Z"/>
        <path class="cls-29" d="m110.69,118.17c-.43.81-.92,1.58-1.36,2.37-4.43-4.07-9.96-13.06-9.84-18.99,1.54,1,2.44,5.47,4.75,8.99,1.81,2.77,4.7,4.81,6.44,7.63Z"/>
        <path class="cls-52" d="m177.16,105.28c0,.45.02.91,0,1.36-1.42,6.47-6.83,11.22-9.16,16.96-.47-.33-1.66-1.07-2.2-1.02-13.15,7.46-8.42,6.55,3.9,5.09.02.22-.02.45,0,.68-.7.07-.05,1.31-.51,1.7-.48.41-11.92,1.03-12.55,1.02-1.77-.02-1.77-.66-1.87-.68,0-1.47-.86-5.17-.68-5.94.19-.8,4.63-5.29,9.5-13.4,2.35-3.91,5.68-8.7,6.78-13.23l6.78,7.46Z"/>
        <path class="cls-56" d="m179.88,103.24c4.41,8.64,6.46,13.65,15.6,18.65-5.2.22-17.13-3-18.65-8.82.51-2.14.24-4.32.34-6.44.02-.45,0-.91,0-1.36.02-1.66.11-5.82,0-6.78.92,1.55,1.9,3.15,2.71,4.75Z"/>
        <path class="cls-29" d="m177.5,93.41l-1.7-1.36c-1.19-4.09-1.05-1.26-1.7-2.54-2.07-4.1,1.13-5.14,3.39-7.63-1.57,4.79-1.1,6.94,0,11.53Z"/>
        <path class="cls-58" d="m177.5,93.41c.62,2.58,2.4,7.31,3.73,9.5l-1.36.34c-.81-1.6-1.8-3.2-2.71-4.75-.16-1.4-.94-5.03-1.36-6.44l1.7,1.36Z"/>
        <path class="cls-54" d="m169.7,137.16c.07,2.09-.05,4.19,0,6.27,1.18-.03,3.54.51,3.73.51-.2,1.77-1.53-.21-1.7,4.41.73-1.73-7.55-1.06-11.53-.68-.1,0-.35-.83-2.03.34-.82-1.03-7.58-.85-7.97-.68-.35.16-.07.85-.17,1.02-.26.43-.33.32-.34.34.04-.41-.28-.3-.34-.34.61-2.21-5.27-1.56-5.77-.51.06.89.08,1.36-.34,2.2h-1.02c-1.1-.33-3.22.34-3.39.34-.15,0-.68-.51-3.05-.34-1.41-2.24,1.94-2.46,3.9-2.37.86-.18.1,1.89,2.03,1.02.67-.3.26-3.67.85-4.41,3.89,1.15,11.74-.3,16.11,0,.66-.45.45-.8.51-1.02,1.5.86,4.54-.05,5.77,0,.11,0-.44,1.2,1.7.51-.26-3.27.59-6.7-.34-6.27,1.06-.07,2.25-.64,3.39-.34Z"/>
        <path class="cls-30" d="m165.63,162.94c.05,2.94-.07,5.88,0,8.82.02.83.44,1.53,0,2.37-.5-.74-.25-1.22-1.36-1.02,1.67-.56,1.07-4.59.85-4.75-.71-.51-14.75.63-17.47-.34.42-.72,2.07-4.54,2.54-4.75,2.99-.07,6.01-.52,8.99-.68,2.01-.11,4.32.44,6.44.34Z"/>
        <path class="cls-20" d="m164.27,173.11c1.1-.21.86.27,1.36,1.02.01.02.12-.12.34.34.43.91,1.09,4.49,1.7,5.43-3.04.52-6.29,1.29-9.33,1.7-.27.04-.13-.68-.17-.68,2.21-.58-.13-1.33-1.36-1.02-1.06-1.31-4.79-6.16-5.09-6.44,3.57-.89,11.23.1,12.55-.34Z"/>
        <g>
          <path class="cls-44" d="m188.02,146.99c.13.71.33.86.34,1.02.1,3.11-.34,2.58-.34,2.71-1.6-1.43-4.35-1.31-6.44-1.36.17-.8-.28-.79.85-1.36l5.6-1.02Z"/>
          <path class="cls-21" d="m188.02,158.87c-.01,4.83.4,9.79.34,14.58-.02,1.71-.61,3.46,0,5.26-.27.35-1.54.11-2.03.17-.8-1.6-.05-4.85-.34-5.26-.32-.46-2.73.18-4.41-.51-.1-4.18.29-8.39.34-12.55,1.11-1.43,4.05-1.09,6.1-1.7Z"/>
          <path class="cls-13" d="m186.32,178.88c-1.43.17-3.11-.12-4.58,0-.34-.24-.14-3.08-.17-3.73-.03-.62.01-1.39,0-2.03,1.68.69,4.08.05,4.41.51.29.41-.46,3.66.34,5.26Z"/>
          <path class="cls-44" d="m188.02,154.12c0,.11,0,.23,0,.34,0,1.47,0,2.94,0,4.41-2.05.61-4.99.27-6.1,1.7.02-1.48-.38-3.16-.34-4.75,1.26.26.31-1.64.85-2.03.23-.17,4.69.82,5.6.34Z"/>
          <path class="cls-61" d="m188.02,150.73c0,1.13,0,2.26,0,3.39-.91.48-5.37-.5-5.6-.34-.54.39.41,2.3-.85,2.03.05-1.95-.2-5.48,0-6.44,2.1.05,4.84-.07,6.44,1.36Z"/>
        </g>
        <path class="cls-52" d="m170.72,150.39c-1.49,3.83,6.57,4.01,4.07.34,1.1.04,5.41-.45,5.94,0,.12.1.62,2.3.51,2.54-.36.78-8.66.76-10.01.85l-.85,4.75c.02-.68-.01-1.36,0-2.03.05-2.37-.16-4.75,0-7.12.52.27.23.3.34.68Z"/>
        <path class="cls-58" d="m174.79,150.73c2.5,3.67-5.55,3.49-4.07-.34,1.35-.33,2.8.3,4.07.34Z"/>
        <path class="cls-29" d="m169.7,137.16c-1.14-.3-2.33.27-3.39.34-2.3.15-4.65-.11-6.95,0-.16,1.49-.84,2.25-.85,2.37-.7.57-.78-.1-1.02,0,.91-4.74-.93-3.64-4.75-3.39.54-1.98-.5-3.89-.68-5.77-.01-.11.01-.23,0-.34.84.1,1.94-.14,2.71,0,.1.02.1.66,1.87.68.63,0,12.07-.61,12.55-1.02.45-.39-.19-1.63.51-1.7.22,2.83-.09,5.94,0,8.82Z"/>
        <path class="cls-56" d="m105.26,127.66c-.2.31-.42.61-.34,1.02-.28.05-.76.47-1.7.68-2.49.55-4.97,1.14-7.46,1.7l-1.7-2.71c.88-.68,1.82-1.36,2.71-2.03l8.48,1.36Z"/>
        <path class="cls-25" d="m107.3,124.27c-.66,1.15-1.34,2.27-2.03,3.39l-8.48-1.36c1.44-1.09,2.81-2.43,4.07-3.73,1.92,1.04,4.43.93,6.44,1.7Z"/>
        <g>
          <path class="cls-56" d="m90.68,107.99c-.35,2.59-.13,5.95,1.7,7.97l-.51.85c-9.8,3.62-17.82,10.39-26.96,15.26-.4-.31-.85-.41-1.36-.34-.02-1.11-.03-1.62-.34-2.71.86.21.67-.71,1.02-1.02,1.62-1.41,3.57-2.47,5.09-4.07.68-.72,1.93-1.18,2.03-2.37.73.76,6.49-3.29,7.97-4.41,3.68-2.78,6.1-5.82,6.44-6.1.24-.2-.2,1.49,4.92-3.05Z"/>
          <path class="cls-29" d="m64.9,132.07c.62.47,1.29,1.95,2.37,2.2-1.19,2.19,6.32,5.93,5.43,7.97-1.54,1.88-2.7,4.21-4.24,6.1-1.67-2.65-2.51-13.35-5.26-13.91.52-.83.36-1.8.34-2.71.51-.07.95.03,1.36.34Z"/>
          <path class="cls-16" d="m100.85,122.58c-1.26,1.3-2.63,2.64-4.07,3.73-.89.68-1.83,1.36-2.71,2.03-.02.02-.11-.64-.51-.34-1.13.87-3.32,3.65-4.41,4.41-.33.23-1.64-.46-.85.68-1.09.26-2.28.44-3.39.68-1.06.23-.91-1.17-4.24.68-2.14,1.19-6.28,5.73-7.97,7.8.89-2.04-6.62-5.78-5.43-7.97-1.08-.25-1.76-1.73-2.37-2.2,9.14-4.88,17.16-11.65,26.96-15.26l.51-.85c-1.83-2.02-2.05-5.38-1.7-7.97.04-.29.51-1.22.68-1.7-.17,3.82,6.76,14.8,9.5,16.28Z"/>
          <path class="cls-52" d="m94.07,128.34l1.7,2.71c-2.48.55-4.97,1.45-7.46,2.03-.79-1.14.52-.45.85-.68,1.09-.76,3.28-3.54,4.41-4.41.4-.3.48.36.51.34Z"/>
        </g>
        <path class="cls-27" d="m97.8,163.95c1.61.06,7.88.5,8.48.68,1.41.41,1.44,1.25,2.37,1.7-.23,1,.17,2.85-.51,4.07q-7.89-.34-15.77-.68c-.14-.41-.39-.49-.34-1.7.12-3.14,1.37-3.33,4.07-4.41.5,0,.76.3,1.7.34Z"/>
        <path class="cls-47" d="m74.06,155.47c-.63,2.11.75,4.22,1.02,6.27-.2.25-3.51.25-4.07.17-.52-.08-1.65-.02-1.7-.85,1.31-2.15.21-5.05,2.37-6.61,3.14.74,2.23,1.01,2.37,1.02Z"/>
        <g>
          <g>
            <path class="cls-60" d="m82.2,153.44c-1.86-.76-.56,1.6-.68,2.2-.07.4-1.01.54-1.02.68-.51,6.3,1.56,6.22,7.12,5.94.01.1.36-.14.51,2.03.85.03,1.7-.04,2.54,0,2.3.11,3.15-.72,5.43-.68-2.7,1.07-3.95,1.27-4.07,4.41-2.36-.2-3.96.78-4.92-1.36.95,5.81-6.25,2.47-11.53,3.05-.93-1.19-1.45-.97-1.53-1.02-.1-.06-1.3-1.34-1.7-1.7-.72-.65-1.49-1.19-2.03-2.03.13-.85-.02-1.04.34-2.03.02-.05.5.15.34-1.02.56.08,3.87.08,4.07-.17-.27-2.06-1.65-4.16-1.02-6.27,1.11.05,3.37-.41,3.39-1.36,1.62,1.13.23,1.07,1.19,1.7,2.8,1.83.93-5.1,3.56-2.37Z"/>
            <path class="cls-53" d="m78.3,156.15c.71.04,1.37-.24,1.87.51-.33,1.3.69,4.59.34,5.09-.28.39-6.23,2.1-5.77-4.75.09-.16,3.38-.86,3.56-.85Z"/>
          </g>
          <g>
            <path class="cls-20" d="m72.36,167.01c-.87.09-1.03,3.26-.51,4.07l2.2-2.37c.08.05.6-.18,1.53,1.02,5.28-.58,12.48,2.76,11.53-3.05.96,2.14,2.55,1.16,4.92,1.36-.05,1.21.2,1.28.34,1.7.04.1-.04.25,0,.34-5.9,1.19-6.09-1.71-10.01,4.07-13.77-1.97-13.64,1.56-12.04-9.16.54.84,1.31,1.38,2.03,2.03Z"/>
            <path class="cls-57" d="m74.06,168.7l-2.2,2.37c-.52-.81-.36-3.98.51-4.07.4.36,1.59,1.64,1.7,1.7Z"/>
          </g>
        </g>
        <path class="cls-49" d="m123.91,154.46l.68,2.71c-3.14.98-6.54,5.09-4.92,8.48,6.94-.02,13.92-.07,20.86-.34v2.71c-.02,1.58.03,3.17,0,4.75-1.29-.22-.3,1.83-.85,3.39-2.35-.55-19.77.81-20.69.34-1.51-.76-.33-1.41-1.36-2.37-1.73-1.61-13.85-.76-16.62-1.02-2.83,2.12-3.67.22-4.58,1.36-.81-.81-3.82-3.84-4.07-4.41-.04-.09.04-.24,0-.34q7.89.34,15.77.68c.68-1.22.28-3.07.51-4.07.31-1.39.09-1.31,1.02-3.05,3.1-5.86,13.51-8.39,14.24-8.82Z"/>
        <path class="cls-2" d="m140.53,172.77c-.04,2.21-.17,4.24-.34,6.44-.06.78.09,1.6,0,2.37q-15.94.34-31.88.68c-.18-5.24-1.85-4.82-9.67-5.09-2.14-1.79-2.08-2.59-2.2-2.71.91-1.14,1.75.76,4.58-1.36,2.77.26,14.89-.6,16.62,1.02,1.03.96-.15,1.61,1.36,2.37.92.47,18.34-.89,20.69-.34.55-1.56-.44-3.61.85-3.39Z"/>
        <path class="cls-20" d="m140.19,181.59c-.05.44.07.92,0,1.36h-17.13c-.92.41-.34,2.47-.51,3.73-.09-3.48-3.54-1.58-6.95-2.03-.37.27.11.91-.51,1.02-4.53.8-6.45.63-6.78.68-.03-1.35.05-2.72,0-4.07q15.94-.34,31.88-.68Z"/>
        <path class="cls-29" d="m92.71,102.23c.71-2.53,1.54-4.98,2.37-7.46,2.39-1.77.51,1.28,2.37,2.88-1.95,2.41-.52,3.39-4.75,4.58Z"/>
        <path class="cls-28" d="m181.23,102.9c3.59,5.91,16.38,16.77,16.62,17.98.02.1,0,.24,0,.34-.16,1.75-1.33.63-2.37.68-9.14-5.01-11.19-10.02-15.6-18.65l1.36-.34Z"/>
        <g>
          <path class="cls-60" d="m216.51,101.89c-.54,1.99-1.39,3.83-2.03,5.77.55-1.21-2.46-1.49-4.75-2.03.03-.1-.03-.24,0-.34.62-.12.14-.74.51-1.02,1.24,3.81,3.26-1.81,2.54-3.05,1.06.11,2.18.98,3.73.68Z"/>
          <path class="cls-48" d="m211.42,100.53c.09.05.98.03,1.36.68-1.31-.13-2.08-.74-2.71.17-1.01,3.35-.28,3.71-.34,3.9-1.07.21-1.47-.32-1.7-.34l1.36-5.09c.1.04.63-.14,2.03.68Z"/>
          <path class="cls-52" d="m212.77,101.21c.72,1.25-1.3,6.86-2.54,3.05-.37.28.11.89-.51,1.02.06-.19-.67-.55.34-3.9.64-.91,1.4-.3,2.71-.17Z"/>
          <path class="cls-41" d="m209.38,99.85l-1.36,5.09c-1.06-.09-2.09-.21-3.05-.68.56-1.72,1.8-4.57,2.03-5.43,1.66.22,2.25.97,2.37,1.02Z"/>
        </g>
        <path class="cls-60" d="m145.96,171.41c2.99.7,3.53-.08,5.77,2.03.3.28,4.03,5.14,5.09,6.44.29.36.48.91,1.02,1.02-.08,0,.47.48-1.19,1.02-3.23.37-12.85.48-14.41,1.02-.4.14-.2.93-2.03,1.36.09-.4-.07-.94,0-1.36.07-.43-.05-.92,0-1.36.09-.77-.06-1.6,0-2.37l4.75-.51c.19-1.78-.27-4.73,0-6.1.29-1.49.99-1.11,1.02-1.19Z"/>
        <path class="cls-49" d="m140.19,182.95c-.07.42.09.96,0,1.36-.05.22-1.49,3.05-2.54,3.73-2.73,1.76-14.1,2.73-15.43,1.53-.1-.55-.42-.72-.34-1.53,0-.09.4.71.68-1.36.17-1.26-.41-3.32.51-3.73h17.13Z"/>
        <path class="cls-60" d="m122.56,186.68c-.27,2.07-.67,1.26-.68,1.36l-6.78.34c.16-.6-.11-1.9,0-2.71.62-.11.14-.75.51-1.02,3.42.45,6.87-1.44,6.95,2.03Z"/>
        <path class="cls-49" d="m115.1,188.71c-.81,2.26-6.29,1.45-6.1,3.05-.9-.03-1.81,0-2.71,0-.26-.56.02-2.58,0-2.71l8.82-.34Z"/>
        <g>
          <g>
            <path class="cls-2" d="m99.16,185.66c.52.46,0,.65,0,.68-3.18-1.84-5.9,2.25-3.56,3.73.94.6,1.99.13,2.88.34.54.13,1.52.58,2.03.68,1.65.32,3-.75,4.07,1.02.04.07.34,1.61.34,1.7,0,.22.05.5,0,.68-.79,3-8.94,1.25-11.87,1.7.11-1.68-.15-3.42,0-5.09.06-.66-.1-1.46,0-2.03.06-.3.48-1.32.68-1.7,2-3.78,5.11-1.76,5.43-1.7Z"/>
            <path class="cls-8" d="m104.92,198.55c-2.55,2.83-8.5,1.16-11.87,1.02v-3.39c2.93-.44,11.08,1.3,11.87-1.7,1.84.5,1.05,2.9,0,4.07Z"/>
          </g>
          <path class="cls-22" d="m105.6,187.02c.22.69.56,1.33.68,2.03.02.13-.26,2.15,0,2.71-.93,0-1.74-.17-1.7.34-1.07-1.77-2.42-.7-4.07-1.02l3.05-5.43c.19-.09,1.11-1.04,1.19-1.02.5.14.52,1.34.85,2.37Z"/>
          <path class="cls-45" d="m103.56,185.66l-3.05,5.43c-.51-.1-1.5-.55-2.03-.68,2.18-2.36,1-2.41.68-4.07,0-.03.52-.22,0-.68,2.8.57.76,1.66,4.41,0Z"/>
          <path class="cls-27" d="m99.16,186.34c.33,1.66,1.5,1.71-.68,4.07-.9-.21-1.94.26-2.88-.34-2.34-1.48.38-5.57,3.56-3.73Z"/>
        </g>
        <path class="cls-14" d="m158.17,180.91c-.11.01-.23-.01-.34,0-.54-.11-.73-.66-1.02-1.02,1.23-.31,3.57.44,1.36,1.02Z"/>
        <path class="cls-29" d="m148.67,115.11c-.69.86-.13,4.04-.85,4.75-.39.39-9.44,2.92-10.51,3.05-5.83.74-15.82-.21-20.52-4.07.94-1.02,4.02-3.96,4.41-4.58.93-1.5.25-1.32.34-1.53.58-1.35,1.13-2.6,1.36-4.07,1.89,1.37,4.01,3.59,6.27,4.41,10.51,3.83,14.31-3.47,16.11-5.09,4.04,2.22,2.85,1.77,3.39,7.12Z"/>
        <g>
          <path class="cls-53" d="m119.84,105.96c-.31.95-.9,1.82-1.36,2.71-2.95,5.72-5.18,11.94-8.82,17.3-.76,1.12-1.33,2.35-2.2,3.39-.34.13-.53-.48-1.53-.34-.28.04-.37-.46-1.02-.34-.08-.41.14-.7.34-1.02.7-1.13,1.37-2.25,2.03-3.39.72-1.24,1.35-2.48,2.03-3.73.43-.79.92-1.57,1.36-2.37.42-.79.93-1.56,1.36-2.37.85-1.61,1.53-3.47,2.37-5.09.88-1.69,2.03-3.29,2.71-5.09.12.06.47-.47,2.71.34Z"/>
          <path class="cls-58" d="m122.9,108.67c-.22,1.47-.77,2.72-1.36,4.07-1.53-1.05-2.54-2.3-3.05-4.07.46-.89,1.04-1.77,1.36-2.71,1.22.05,2.42,2.25,3.05,2.71Z"/>
        </g>
        <path class="cls-52" d="m121.54,112.74c-.09.2.59.03-.34,1.53-.39.62-3.47,3.56-4.41,4.58-3.5,3.81-7.12,4.43,1.87,7.12,8.89,2.66,20.98,2.2,29.85-.68.12,1.26.65,2.51.85,3.73.33,1.99-.06,5.54.68,7.8-8.96,1.06-8.75,1.53-8.82,4.75-.01.51-.23,2.28,0,2.54.32.37.97.06,1.36.17-.59.74-.18,4.11-.85,4.41-1.93.87-1.17-1.19-2.03-1.02-1.96-.08-5.31.14-3.9,2.37-.22.02-.45-.02-.68,0-.1-1.37.27-3.03.34-4.75.07-1.62.14-3.43-.34-3.39.11-.03-.53-.49,1.7-.85l5.26-8.99c-3.18-.68-7.06.73-9.5.68-1.72-.04-8.25-1.87-10.34-1.36q-6.27-2.71-12.55-5.43c3.64-5.36,5.87-11.57,8.82-17.3.51,1.77,1.52,3.02,3.05,4.07Z"/>
        <path class="cls-47" d="m122.22,131.39c1.26,2.66,2.47,5.51,4.07,7.97,2.28,3.5,3.18,1.41.68,3.22-.77.18-1.76-.4-2.37.51-.19.41.4,1.36.34,2.88-.04,1.12-.01,2.27,0,3.39-1.51-.94-2.9-2.5-5.09-3.39-.04-1.86.97-3.35-.17-4.41-.25-.23-3.04-.85-3.39-.68-.83.4-.37,1.43-.51,2.03-.28-.02-.61.04-.68,0-1.05-7.39-4.54-3.63,4.92-2.71,2.1-4.79-.88-2.95-7.12-3.73-.9-.33-.4-1.92-2.88-4.41-.9-.9-3.21-1.9-4.07-3.05,1-.14,1.18.47,1.53.34.88-1.04,1.45-2.27,2.2-3.39q6.27,2.71,12.55,5.43Z"/>
        <path class="cls-27" d="m132.73,152.76c1.07.18,3.49.52,1.7,1.7-1.28-2.95.28,2.93-.68,4.58,1.09.86,1.29.14,1.36.17,1.51.6,2.73,1.5,4.07,2.37.1.07,1,1.6,1.53,1.36.73-.33-1.8-1.54,1.19-2.03.57,2.91,2.75,1.74,5.09,2.71-1.47.9-1.61,1.29-1.7,1.36-1.61-.1-3.14.28-4.75.34-6.94.27-13.91.32-20.86.34-1.63-3.39,1.78-7.5,4.92-8.48,1.68-.53,2.08.16,3.39,0,3.27-.39.43-.89.34-1.02-1.41-1.91-.22-1.56,1.02-3.39.17.04,1.35-.35,3.39,0Z"/>
        <path class="cls-31" d="m159.19,162.6c-2.98.16-6,.61-8.99.68-.48.21-2.12,4.03-2.54,4.75-.81,1.38-1.13,1.69-1.7,3.39-.02.07-.73-.31-1.02,1.19-.27,1.37.19,4.32,0,6.1l-4.75.51c.17-2.2.3-4.23.34-6.44.03-1.58-.02-3.17,0-4.75,2.17.33,3.86-2.39,4.75-3.05.09-.06.23-.46,1.7-1.36,5.79-3.53,12.94,1.47,12.04-4.07l.17,3.05Z"/>
        <path class="cls-52" d="m143.25,150.05c-.36.72-1.16,1.19-1.36,2.03.21,1.46.33,2.94.34,4.41,0,.22-.72,2.49-.34,4.41-2.99.5-.46,1.71-1.19,2.03-.53.24-1.42-1.29-1.53-1.36-.21-1.29-.59-2.79-.68-4.07-.11-1.5-.03-3.23,0-4.75,4.04.33,2.31-.51,3.73-2.71h1.02Z"/>
        <g>
          <path class="cls-31" d="m170.38,162.6c-.05,2.99.04,5.99,0,8.99l-4.75.17c-.07-2.94.05-5.88,0-8.82,1.53-.07,3.16-.64,4.75-.34Z"/>
          <path class="cls-37" d="m171.74,148.35c-1-.15-1.51.28-1.36,1.36-.79-.41-8.87-.6-10.51-.68l.34-1.36c3.98-.38,12.26-1.05,11.53.68Z"/>
          <path class="cls-44" d="m167.33,156.83h-6.95c-.37-.26-.08-1.54-.17-2.03,3.91.13,8.8-.46,7.12,2.03Z"/>
        </g>
        <path class="cls-10" d="m158.51,139.87c-.07.95.68.96.68,1.02-.04.82.12,1.96,0,2.37-.06.21.15.56-.51,1.02-4.37-.3-12.22,1.15-16.11,0-.39-.11-1.04.2-1.36-.17-.23-.26-.01-2.03,0-2.54,3.79-.29,13.62-.36,16.11-1.02.29-.08.13-.66.17-.68.24-.1.32.57,1.02,0Z"/>
        <path class="cls-4" d="m166.31,137.5c.92-.43.08,3,.34,6.27-2.13.69-1.58-.5-1.7-.51,1.07-3.91-2.9-3.74-5.77-2.37,0-.06-.75-.07-.68-1.02,0-.13.69-.88.85-2.37,2.3-.11,4.66.15,6.95,0Z"/>
        <path class="cls-35" d="m164.95,143.26c-1.22-.05-4.26.86-5.77,0,.12-.42-.04-1.56,0-2.37,2.86-1.36,6.84-1.53,5.77,2.37Z"/>
        <path class="cls-27" d="m135.78,150.05c2.38-.18,2.9.34,3.05.34-.52.74-.32,1.55-.34,2.37-.03,1.52-.11,3.25,0,4.75-1.4-.14-3.26-5.88-3.39-7.12-.01-.11,0-.23,0-.34.22-.02.45.02.68,0Z"/>
        <g>
          <path class="cls-42" d="m160.2,154.8c.09.49-.2,1.77.17,2.03h10.01c-.01.68.02,1.36,0,2.03-.03,1.24.02,2.49,0,3.73-1.59-.31-3.22.27-4.75.34-2.13.1-4.44-.45-6.44-.34l-.17-3.05c.9,5.54-6.25.54-12.04,4.07-2.34-.97-4.51.19-5.09-2.71-.38-1.92.34-4.19.34-4.41q8.39.17,16.79.34c.36-.25.12-3.37.17-4.07.04-.65.01-1.23,0-1.87h.68c.12.21.2,3.12.34,3.9Z"/>
          <path class="cls-11" d="m149.35,148.35c-4.72-2.8-5.82,2.18.17,1.7.38-.25.04-1.14.17-1.36.01-.02.08.09.34-.34-.42.81,3.73.9,7.29,1.02.07,0,.88-.69,1.19-.68.61.02.74.31,1.36.34,1.64.08,9.73.27,10.51.68-.16,2.37.05,4.75,0,7.12h-3.05c1.68-2.49-3.22-1.91-7.12-2.03-.14-.78-.22-3.69-.34-3.9h-.68c.01.64.04,1.22,0,1.87-.78.62.23,1.54-1.19,2.03-.72.25-14.64.77-15.26.34-.47-.33.32-2.27-.85-3.05.19-.85,1-1.31,1.36-2.03.42-.84.4-1.32.34-2.2.5-1.05,6.38-1.7,5.77.51Z"/>
          <path class="cls-44" d="m159.19,152.76c-.05.7.19,3.82-.17,4.07q-8.39-.17-16.79-.34c0-1.47-.13-2.95-.34-4.41,1.17.78.37,2.72.85,3.05.63.44,14.54-.09,15.26-.34,1.42-.5.41-1.42,1.19-2.03Z"/>
          <path class="cls-37" d="m158.17,148.01c.09.12.29.5.34.68-.3,0-1.12.68-1.19.68-3.56-.11-7.71-.2-7.29-1.02.1-.17-.18-.86.17-1.02.39-.18,7.15-.35,7.97.68Z"/>
          <path class="cls-44" d="m149.35,148.35c.06.03.37-.07.34.34-.13.21.21,1.1-.17,1.36-5.99.49-4.89-4.5-.17-1.7Z"/>
        </g>
        <path class="cls-17" d="m142.23,150.05c-1.42,2.2.31,3.04-3.73,2.71.02-.82-.18-1.63.34-2.37.17,0,2.29-.67,3.39-.34Z"/>
        <path class="cls-60" d="m160.2,147.67l-.34,1.36c-.62-.03-.75-.32-1.36-.34-.05-.18-.25-.56-.34-.68,1.69-1.17,1.93-.33,2.03-.34Z"/>
        <path class="cls-2" d="m164.27,173.11c-1.32.44-8.98-.55-12.55.34-2.24-2.12-2.78-1.34-5.77-2.03.57-1.71.89-2.01,1.7-3.39,2.72.97,16.75-.17,17.47.34.22.16.83,4.19-.85,4.75Z"/>
        <path class="cls-27" d="m157.49,139.87s.13.6-.17.68c-2.49.66-12.32.72-16.11,1.02.06-3.22-.14-3.69,8.82-4.75.79-.09,2.11-.3,2.71-.34,3.82-.24,5.66-1.35,4.75,3.39Z"/>
        <g>
          <path class="cls-25" d="m151.05,109.01c.5,7.08.36,14.31,1.02,21.37.01.11-.01.23,0,.34-1.91.29-2.01-1.04-2.37-2.37-.8-2.9-.66-9.7-1.02-13.23-.54-5.35.65-4.9-3.39-7.12.07-.07.43-1.01,1.19-1.02l4.58,2.03Z"/>
          <path class="cls-56" d="m152.06,130.71c.18,1.87,1.21,3.78.68,5.77-.61.04-1.92.25-2.71.34-.74-2.26-.35-5.81-.68-7.8l.34-.68c.37,1.34.47,2.67,2.37,2.37Z"/>
        </g>
        <path class="cls-53" d="m124.93,151.06c0,.1.49,1.59.68,1.87-.37.69-1.06,1.15-1.7,1.53-.74.43-11.14,2.96-14.24,8.82-.83-.32-.12-1.26,0-1.7.49-1.76.55-1.94,1.7-3.39.14-.18,2.79-2.53,3.39-3.05,2.34-2.02.9-2.26,5.09-3.39,1.02-.27,3.73-.47,5.09-.68Z"/>
        <path class="cls-13" d="m145.28,164.97c-.89.66-2.58,3.38-4.75,3.05v-2.71c1.6-.06,3.14-.44,4.75-.34Z"/>
        <path class="cls-47" d="m149.69,128.34l-.34.68c-.2-1.22-.73-2.47-.85-3.73-8.87,2.88-20.95,3.34-29.85.68-8.98-2.69-5.37-3.31-1.87-7.12,4.7,3.86,14.69,4.81,20.52,4.07,1.08-.14,10.13-2.67,10.51-3.05.72-.71.16-3.89.85-4.75.36,3.52.22,10.33,1.02,13.23Z"/>
        <path class="cls-47" d="m135.11,141.91c-.49.12-3.74.03-6.1.34-.8.11-1.23.16-2.03.34,2.5-1.81,1.6.27-.68-3.22-1.6-2.46-2.81-5.32-4.07-7.97,2.1-.52,8.62,1.32,10.34,1.36,2.44.05,6.32-1.36,9.5-.68l-5.26,8.99c-2.23.35-1.59.82-1.7.85Z"/>
        <g>
          <path class="cls-27" d="m115.1,142.92c-1.17-.76-2.73-4.65-3.05-4.92-.98-.83-1.02,1.22-1.7-.85-.35-1.08-.02-3.82-.34-5.09,2.48,2.49,1.99,4.07,2.88,4.41,6.25.78,9.22-1.06,7.12,3.73-9.46-.92-5.97-4.68-4.92,2.71Z"/>
          <path class="cls-32" d="m119.84,145.98c0,.11,0,.23,0,.34-4.48,1.07-5.45,2.62-4.07-3.39.14-.61-.33-1.63.51-2.03.35-.17,3.14.44,3.39.68,1.14,1.06.13,2.54.17,4.41Z"/>
        </g>
        <path class="cls-20" d="m124.93,149.37c0,.56,0,1.13,0,1.7-1.36.21-4.07.4-5.09.68.04-1.81-.05-3.62,0-5.43,0-.11,0-.23,0-.34,2.18.89,3.58,2.45,5.09,3.39Z"/>
        <g>
          <path class="cls-22" d="m138.5,157.51c.09,1.28.47,2.78.68,4.07-1.34-.88-2.56-1.78-4.07-2.37.28-1.4-.12-3.45-.68-4.75,1.79-1.18-.63-1.51-1.7-1.7l2.37-2.37c.13,1.24,1.99,6.99,3.39,7.12Z"/>
          <g>
            <path class="cls-34" d="m128.32,152.42s.87.3,1.02.34c-1.24,1.83-2.43,1.49-1.02,3.39l-.34,1.02c-1.31.16-1.71-.53-3.39,0l-.68-2.71c.64-.37,1.32-.84,1.7-1.53-.19-.27-.68-1.77-.68-1.87,0-.56,0-1.13,0-1.7-.01-1.12-.04-2.27,0-3.39l5.09-.68c-.19,1.96-1.56,2.08-1.7,2.54-.13.45.73,1.48-1.02,3.73.59.09.6.6,1.02.85Z"/>
            <path class="cls-22" d="m135.45,145.3c-.07,1.72-.44,3.38-.34,4.75-1.01.08-1.66.6-2.54,1.02-1.96.37-4.44-1.91-4.24,1.36-.42-.25-.43-.76-1.02-.85,1.75-2.25.89-3.29,1.02-3.73.14-.47,1.51-.58,1.7-2.54.01-.11-.55-.7-.34-2.03.94,1.21.69,1.8,1.19,2.03.33.16,3.33-.6,4.58,0Z"/>
            <path class="cls-27" d="m135.11,141.91c.48-.04.41,1.77.34,3.39-1.25-.6-4.25.16-4.58,0-.49-.23-.24-.83-1.19-2.03-.22-.28-.61-.62-.68-1.02,2.37-.31,5.62-.22,6.1-.34Z"/>
            <path class="cls-27" d="m129,142.25c.07.4.46.73.68,1.02-.21,1.34.35,1.93.34,2.03l-5.09.68c.06-1.53-.53-2.47-.34-2.88.61-.91,1.6-.33,2.37-.51.8-.18,1.24-.23,2.03-.34Z"/>
            <path class="cls-52" d="m135.11,150.05c0,.11-.01.23,0,.34l-2.37,2.37c-2.04-.35-3.23.04-3.39,0-.15-.04-.97-.31-1.02-.34-.2-3.27,2.28-.99,4.24-1.36.88-.42,1.53-.94,2.54-1.02Z"/>
          </g>
          <path class="cls-39" d="m134.43,154.46c.56,1.29.95,3.35.68,4.75-.06-.03-.27.69-1.36-.17.96-1.65-.6-7.53.68-4.58Z"/>
          <path class="cls-1" d="m127.98,157.17l.34-1.02c.09.12,2.93.62-.34,1.02Z"/>
        </g>
        <g>
          <path class="cls-1" d="m108.31,136.82c-.63-.1-.69.31-1.02.34-1.27-3.1-6.75-2.2-6.1,1.36-1.96.73-3.78,2.04-5.6,3.05,3.8-.68,10.46-1,13.74-1.7.24,1.74-.18,3.39-.34,5.09q-14.24.17-28.49.34c-.06-1.04-.12-3.17,0-4.07l15.09-2.37c1.88-.8.11-3.91,1.53-3.73,2.64-.46,4.64.1,6.1-2.71,4.11-.2,4.74.18,5.09,4.41Z"/>
          <path class="cls-49" d="m108.99,144.96c-.16,1.63-.51,3.17-.68,4.75h-18.31l-.68-.17c-.35,2.27.48,4.63-.34,6.95-1.39-1.79-8.1-8.15-8.48-8.99-.82-1.8,0-2.09,0-2.2q14.24-.17,28.49-.34Z"/>
          <path class="cls-27" d="m103.23,129.36c1.4,1.68.45,2.18,0,3.05-1.46,2.82-3.47,2.25-6.1,2.71-.16.03-2.4-.16-3.22,0-4.23.82-8.41,2.25-12.72,2.71.54-1.45,2.22-3.46,3.73-4.07,1.11-.24,2.3-.42,3.39-.68,2.49-.59,4.98-1.48,7.46-2.03,2.49-.56,4.97-1.15,7.46-1.7Z"/>
          <path class="cls-2" d="m90,149.71c-.04.8-.06,4.1.51,4.41.77.41,15.12.31,17.47.68.11,4.11-.99,4.17-1.02,4.41-3.26-.23-15.41-2.14-17.3-1.36.06-.54-.38-.97-.68-1.36.82-2.32,0-4.68.34-6.95l.68.17Z"/>
          <path class="cls-19" d="m97.12,135.12c-1.42-.18.36,2.93-1.53,3.73l-15.09,2.37c.14-.99.35-2.52.68-3.39,4.3-.46,8.49-1.9,12.72-2.71.82-.16,3.06.03,3.22,0Z"/>
          <path class="cls-19" d="m111.03,139.87c-.2,1.55-.27,3.19-.34,4.75-.25,5.67-.61,11.3-1.02,16.96-.12.44-.83,1.38,0,1.7-.92,1.74-.7,1.67-1.02,3.05-.93-.44-.96-1.29-2.37-1.7,1.58-.07.64-4.81.68-5.09.01-.11-.01-.23,0-.34.03-.24,1.13-.3,1.02-4.41.65-1.66.16-3.41.34-5.09.17-1.58.52-3.12.68-4.75.16-1.7.58-3.35.34-5.09.22-.05,1-.4,1.02-.68.18.19.52.49.68.68Z"/>
          <path class="cls-27" d="m108.31,136.82l1.36.68c.59.85.62,1.63.68,1.7-.02.28-.79.63-1.02.68-3.28.7-9.93,1.01-13.74,1.7,1.82-1.02,3.64-2.32,5.6-3.05.81-.3,5.14-1.28,6.1-1.36.33-.03.38-.44,1.02-.34Z"/>
          <path class="cls-14" d="m105.94,129.02c.86,1.15,3.17,2.15,4.07,3.05.31,1.27-.01,4.01.34,5.09l-.68.34-1.36-.68c-.34-4.23-.98-4.61-5.09-4.41.45-.87,1.4-1.37,0-3.05.93-.2,1.42-.63,1.7-.68.64-.12.74.38,1.02.34Z"/>
          <path class="cls-2" d="m107.3,137.16c-.96.08-5.29,1.05-6.1,1.36-.65-3.56,4.84-4.46,6.1-1.36Z"/>
          <g>
            <path class="cls-27" d="m106.96,159.2c-.01.11.01.23,0,.34-1.31,1.68-4.4,1.89-4.75,2.03-.01-.32.59-.58.34-.85-.5-.54-13.06,1.72-14.24,3.05l2.37.51c-.84-.04-1.7.03-2.54,0-.15-2.18-.5-1.93-.51-2.03-.01-.1.31-1.94.34-2.03.32-.96.7-1.96,1.7-2.37,1.89-.78,14.04,1.13,17.3,1.36Z"/>
            <path class="cls-55" d="m102.21,161.58c-1.5.61-2.69,1.13-4.24,1.7-.27.1-.17.45-.17.68-.93-.04-1.19-.33-1.7-.34-2.28-.04-3.13.79-5.43.68l-2.37-.51c1.19-1.34,13.74-3.59,14.24-3.05.25.26-.35.53-.34.85Z"/>
          </g>
          <path class="cls-22" d="m108.31,149.71c-.18,1.68.31,3.43-.34,5.09-2.34-.37-16.7-.26-17.47-.68-.57-.31-.55-3.61-.51-4.41h18.31Z"/>
          <path class="cls-8" d="m106.28,164.63c-.6-.17-6.86-.62-8.48-.68,0-.23-.1-.58.17-.68,1.55-.57,2.74-1.09,4.24-1.7.35-.14,3.44-.35,4.75-2.03-.04.28.9,5.01-.68,5.09Z"/>
          <g>
            <path class="cls-12" d="m110.35,137.16c.68,2.07.71.02,1.7.85.32.27,1.88,4.15,3.05,4.92.06.04.4-.02.68,0-1.38,6.01-.41,4.46,4.07,3.39-.05,1.81.04,3.62,0,5.43-4.19,1.13-2.75,1.37-5.09,3.39-3.82-1.83-3.88-1.04-3.39,3.05-1.15,1.45-1.21,1.63-1.7,3.39.4-5.66.77-11.29,1.02-16.96.52,4.27,1.29.7,1.7.17,1.01-1.33,3.16.6-1.36-4.92-.16-.19-.5-.49-.68-.68-.06-.07-.09-.84-.68-1.7l.68-.34Z"/>
            <path class="cls-22" d="m110.69,144.62c.07-1.56.14-3.2.34-4.75,4.52,5.52,2.37,3.59,1.36,4.92-.4.53-1.18,4.1-1.7-.17Z"/>
            <path class="cls-8" d="m114.76,155.13c-.6.52-3.25,2.87-3.39,3.05-.49-4.09-.43-4.88,3.39-3.05Z"/>
            <path class="cls-59" d="m115.6,148.69c7.73-.73.71,1.82.34,1.7-.14-.05-.82-1.43-.34-1.7Z"/>
          </g>
        </g>
        <g>
          <path class="cls-60" d="m144.94,69.33c3.02,3.77,1.45,7.43,8.48,4.07,2.89,4.15,5.87,8.4,5.77,13.74-.55.42-1.74.92-2.03,1.19-.67.61-1.91.91-2.03,2.03l-.68.17c3.32,4.14,4.42,6.16,3.73,11.7-.31,2.5-2.2,4.73-4.41,6.1-1.17.73-.92,1.4-2.71.68l-4.58-2.03c-.76,0-1.11.95-1.19,1.02-1.8,1.61-5.6,8.92-16.11,5.09-2.26-.82-4.38-3.03-6.27-4.41-.63-.46-1.83-2.67-3.05-2.71-2.24-.81-2.59-.28-2.71-.34-2.01-.93-3.81-2.35-5.77-3.39-.55-2.29-1.55-4.51-1.7-6.95,1.15-1.55,3.22-2.56,4.41-3.9,1-1.13.53-.83,1.02-2.54l-4.07-4.24c0-.35-.6-2.13-.34-4.58,1.3-2.38,3.23-4.45,5.26-6.27,3.66-3.3,8.31-7.3,3.9.51,2.76,1.26,1.82-2.2,4.92-4.92.45-.39,7.69-4.32,8.14-4.41,4.97-.94,8.93.52,12.04,4.41Z"/>
          <g>
            <path class="cls-44" d="m132.22,74.41c5.62-.72,11.77,2.94,14.75,7.63,9.26,14.58-9.11,29.07-21.88,19.5-11.59-8.69-4.12-25.69,7.12-27.13Z"/>
            <g>
              <path class="cls-31" d="m132.9,77.47c15.44-1.56,18.92,22.93,2.37,24.08-17.21,1.2-16.11-22.7-2.37-24.08Z"/>
              <path class="cls-42" d="m133.07,84.25c-1.24.24-3.78,2.34-4.07,3.56-2.18,9.2,10.97,10.27,11.19,1.53,2.3,1.68-1.43,4.87-2.37,6.78-10.61,3.99-15.39-9.46-7.46-13.91.85,1.54,2.76.05,2.71,2.03Z"/>
              <path class="cls-21" d="m137.82,96.12c.94-1.91,4.67-5.11,2.37-6.78.02-.92-.42-1.56-.68-2.37,0-.03.56-.02.34-.51-1.25-2.78-6.14-3.99-5.77-2.2-.33,0-.7-.06-1.02,0,.05-1.99-1.86-.49-2.71-2.03,9.81-5.5,18.8,9.64,7.46,13.91Z"/>
              <g>
                <path class="cls-26" d="m134.09,84.25c2.42-.07,4.02.71,5.43,2.71.26.81.7,1.46.68,2.37-.23,8.74-13.37,7.68-11.19-1.53.29-1.23,2.83-3.32,4.07-3.56.31-.06.69,0,1.02,0Z"/>
                <path class="cls-42" d="m139.52,86.96c-1.41-2.01-3.01-2.78-5.43-2.71-.37-1.78,4.52-.58,5.77,2.2.22.49-.35.48-.34.51Z"/>
                <path class="cls-23" d="m137.48,86.28l-.68,1.7c-2.17-2.13-4.53,1.29-5.94,1.02-3.03-.59,1.81-6.43,6.78-3.39.39.24-.35.51-.17.68Z"/>
                <path class="cls-20" d="m136.8,87.98l.68-1.7c.09.09.77-.1.85,0,2.66,3.18.33,7.05-.34,7.12-2.78.29.01-4.25-1.19-5.43Z"/>
              </g>
            </g>
          </g>
        </g>
      </g>
    </g>
  </g>
</svg>